M48
; DRILL file {KiCad 8.0.1} date 2024-07-22T19:22:43+0200
; FORMAT={-:-/ absolute / inch / decimal}
; #@! TF.CreationDate,2024-07-22T19:22:43+02:00
; #@! TF.GenerationSoftware,Kicad,Pcbnew,8.0.1
; #@! TF.FileFunction,Plated,1,2,PTH
FMAT,2
INCH
; #@! TA.AperFunction,Plated,PTH,ViaDrill
T1C0.0079
; #@! TA.AperFunction,Plated,PTH,ComponentDrill
T2C0.0276
; #@! TA.AperFunction,Plated,PTH,ComponentDrill
T3C0.0299
; #@! TA.AperFunction,Plated,PTH,ComponentDrill
T4C0.0300
; #@! TA.AperFunction,Plated,PTH,ComponentDrill
T5C0.0394
; #@! TA.AperFunction,Plated,PTH,ComponentDrill
T6C0.0590
; #@! TA.AperFunction,Plated,PTH,ComponentDrill
T7C0.0598
; #@! TA.AperFunction,Plated,PTH,ComponentDrill
T8C0.0790
; #@! TA.AperFunction,Plated,PTH,ComponentDrill
T9C0.1772
%
G90
G05
T1
X3.7244Y-5.0
X3.9998Y-4.2283
X4.2913Y-4.9843
X4.4858Y-3.8392
X4.6547Y-3.9687
T2
X4.7931Y-4.2636
X4.7973Y-3.77
X4.9931Y-4.2636
X4.9973Y-3.77
T3
X2.6969Y-2.9889
X2.6969Y-3.0889
X2.6969Y-3.1889
X2.6969Y-3.2889
X2.7969Y-3.0389
X2.7969Y-3.1389
X2.7969Y-3.2389
X2.7969Y-3.3389
T4
X4.3236Y-3.2441
X4.4236Y-3.2441
X4.5236Y-3.2441
X4.7236Y-3.2441
X4.8236Y-3.2441
X4.9236Y-3.2441
X5.0236Y-3.2441
T5
X2.8241Y-2.3479
X2.9241Y-2.3479
X3.0241Y-2.3479
X3.1241Y-2.3479
X3.2241Y-2.3479
X3.3241Y-2.3479
X3.4241Y-2.3479
X3.5241Y-2.3479
T6
X3.2591Y-3.1875
X3.5591Y-3.1875
X3.5591Y-4.2875
X3.8591Y-3.1875
T7
X2.8079Y-5.0157
X3.0079Y-5.0157
X3.3622Y-5.0138
X3.5622Y-5.0138
X3.9315Y-5.0157
X4.1315Y-5.0157
X4.5039Y-5.0157
X4.7039Y-5.0157
T8
X3.2591Y-4.2875
X3.8591Y-4.2875
T9
X2.4016Y-4.0945
X2.4016Y-4.378
M30
