%TF.GenerationSoftware,KiCad,Pcbnew,8.0.1*%
%TF.CreationDate,2024-07-22T19:22:35+02:00*%
%TF.ProjectId,Switch-_and_PowerDistribution-Board,53776974-6368-42d5-9f61-6e645f506f77,rev?*%
%TF.SameCoordinates,Original*%
%TF.FileFunction,Copper,L2,Bot*%
%TF.FilePolarity,Positive*%
%FSLAX46Y46*%
G04 Gerber Fmt 4.6, Leading zero omitted, Abs format (unit mm)*
G04 Created by KiCad (PCBNEW 8.0.1) date 2024-07-22 19:22:35*
%MOMM*%
%LPD*%
G01*
G04 APERTURE LIST*
G04 Aperture macros list*
%AMRoundRect*
0 Rectangle with rounded corners*
0 $1 Rounding radius*
0 $2 $3 $4 $5 $6 $7 $8 $9 X,Y pos of 4 corners*
0 Add a 4 corners polygon primitive as box body*
4,1,4,$2,$3,$4,$5,$6,$7,$8,$9,$2,$3,0*
0 Add four circle primitives for the rounded corners*
1,1,$1+$1,$2,$3*
1,1,$1+$1,$4,$5*
1,1,$1+$1,$6,$7*
1,1,$1+$1,$8,$9*
0 Add four rect primitives between the rounded corners*
20,1,$1+$1,$2,$3,$4,$5,0*
20,1,$1+$1,$4,$5,$6,$7,0*
20,1,$1+$1,$6,$7,$8,$9,0*
20,1,$1+$1,$8,$9,$2,$3,0*%
G04 Aperture macros list end*
%TA.AperFunction,ComponentPad*%
%ADD10R,1.270000X1.270000*%
%TD*%
%TA.AperFunction,ComponentPad*%
%ADD11C,1.270000*%
%TD*%
%TA.AperFunction,ComponentPad*%
%ADD12R,3.000000X3.000000*%
%TD*%
%TA.AperFunction,ComponentPad*%
%ADD13C,3.000000*%
%TD*%
%TA.AperFunction,ComponentPad*%
%ADD14C,1.400000*%
%TD*%
%TA.AperFunction,ComponentPad*%
%ADD15O,1.400000X1.400000*%
%TD*%
%TA.AperFunction,ComponentPad*%
%ADD16R,1.700000X1.700000*%
%TD*%
%TA.AperFunction,ComponentPad*%
%ADD17O,1.700000X1.700000*%
%TD*%
%TA.AperFunction,ComponentPad*%
%ADD18C,2.006600*%
%TD*%
%TA.AperFunction,ComponentPad*%
%ADD19C,2.514600*%
%TD*%
%TA.AperFunction,ComponentPad*%
%ADD20R,1.500000X1.500000*%
%TD*%
%TA.AperFunction,ComponentPad*%
%ADD21C,1.500000*%
%TD*%
%TA.AperFunction,ComponentPad*%
%ADD22RoundRect,1.500000X1.500000X-1.500000X1.500000X1.500000X-1.500000X1.500000X-1.500000X-1.500000X0*%
%TD*%
%TA.AperFunction,ComponentPad*%
%ADD23C,6.000000*%
%TD*%
%TA.AperFunction,ViaPad*%
%ADD24C,0.600000*%
%TD*%
%TA.AperFunction,Conductor*%
%ADD25C,0.400000*%
%TD*%
G04 APERTURE END LIST*
D10*
%TO.P,U2,1,-VIN*%
%TO.N,GND*%
X109820000Y-82400000D03*
D11*
%TO.P,U2,2,+VIN*%
%TO.N,+12V*%
X112360000Y-82400000D03*
%TO.P,U2,3,RC*%
%TO.N,unconnected-(U2-RC-Pad3)*%
X114900000Y-82400000D03*
%TO.P,U2,5,NC*%
%TO.N,unconnected-(U2-NC-Pad5)*%
X119980000Y-82400000D03*
%TO.P,U2,6,+VOUT*%
%TO.N,+5V*%
X122520000Y-82400000D03*
%TO.P,U2,7,-VOUT*%
%TO.N,GND*%
X125060000Y-82400000D03*
%TO.P,U2,8,NC*%
%TO.N,unconnected-(U2-NC-Pad8)*%
X127600000Y-82400000D03*
%TD*%
D12*
%TO.P,J2,1,Pin_1*%
%TO.N,Net-(J2-Pin_1)*%
X71320000Y-127400000D03*
D13*
%TO.P,J2,2,Pin_2*%
%TO.N,GND*%
X76400000Y-127400000D03*
%TD*%
D14*
%TO.P,R2,1*%
%TO.N,Hupe*%
X121851700Y-95759200D03*
D15*
%TO.P,R2,2*%
%TO.N,Net-(MOSFET2-Pad3)*%
X126931700Y-95759200D03*
%TD*%
D16*
%TO.P,J3,1,1*%
%TO.N,+5V*%
X89512500Y-59635800D03*
D17*
%TO.P,J3,2,2*%
%TO.N,unconnected-(J3-Pad2)*%
X86972500Y-59635800D03*
%TO.P,J3,3,3*%
%TO.N,GND*%
X84432500Y-59635800D03*
%TO.P,J3,4,4*%
%TO.N,Net-(J1-ADC1)*%
X81892500Y-59635800D03*
%TO.P,J3,5,Pin_4*%
%TO.N,Net-(J1-TX|SDA)*%
X79352500Y-59635800D03*
%TO.P,J3,6,Pin_3*%
%TO.N,Net-(J1-RX|SDA)*%
X76812500Y-59635800D03*
%TO.P,J3,7,Pin_2*%
%TO.N,Net-(J1-ADC2)*%
X74272500Y-59635800D03*
%TO.P,J3,8,Pin_1*%
%TO.N,unconnected-(J3-Pin_1-Pad8)*%
X71732500Y-59635800D03*
%TD*%
D18*
%TO.P,U1,1,+IN*%
%TO.N,Akku_V*%
X98020000Y-80963400D03*
%TO.P,U1,2,RC*%
%TO.N,unconnected-(U1-RC-Pad2)*%
X90400000Y-80963400D03*
%TO.P,U1,3,-IN*%
%TO.N,GND*%
X82780000Y-80963400D03*
D19*
%TO.P,U1,4,-OUT*%
X82780000Y-108903400D03*
D18*
%TO.P,U1,6,VADJ*%
%TO.N,unconnected-(U1-VADJ-Pad6)*%
X90400000Y-108903400D03*
D19*
%TO.P,U1,8,+OUT*%
%TO.N,+12V*%
X98020000Y-108903400D03*
%TD*%
D12*
%TO.P,J6,1,Pin_1*%
%TO.N,+12V*%
X114400000Y-127400000D03*
D13*
%TO.P,J6,2,Pin_2*%
%TO.N,GND*%
X119480000Y-127400000D03*
%TD*%
D20*
%TO.P,J1,1,+5V*%
%TO.N,+5V*%
X68500000Y-75917500D03*
D21*
%TO.P,J1,2,GND*%
%TO.N,GND*%
X71040000Y-77187500D03*
%TO.P,J1,3,ADC2*%
%TO.N,Net-(J1-ADC2)*%
X68500000Y-78457500D03*
%TO.P,J1,4,ADC1*%
%TO.N,Net-(J1-ADC1)*%
X71040000Y-79727500D03*
%TO.P,J1,5,RX|SDA*%
%TO.N,Net-(J1-RX|SDA)*%
X68500000Y-80997500D03*
%TO.P,J1,6,TX|SDA*%
%TO.N,Net-(J1-TX|SDA)*%
X71040000Y-82267500D03*
%TO.P,J1,7,Bremse*%
%TO.N,Bremse*%
X68500000Y-83537500D03*
%TO.P,J1,8,Hupe*%
%TO.N,Hupe*%
X71040000Y-84807500D03*
%TD*%
D22*
%TO.P,J7,1,Pin_1*%
%TO.N,GND*%
X61000000Y-111200000D03*
D23*
%TO.P,J7,2,Pin_2*%
%TO.N,Akku_V*%
X61000000Y-104000000D03*
%TD*%
D14*
%TO.P,R1,1*%
%TO.N,Net-(U3-SENSE+)*%
X121744200Y-108295000D03*
D15*
%TO.P,R1,2*%
%TO.N,Net-(J2-Pin_1)*%
X126824200Y-108295000D03*
%TD*%
D12*
%TO.P,J5,1,Pin_1*%
%TO.N,+12V*%
X85400000Y-127350000D03*
D13*
%TO.P,J5,2,Pin_2*%
%TO.N,GND*%
X90480000Y-127350000D03*
%TD*%
D12*
%TO.P,J4,1,Pin_1*%
%TO.N,+12V*%
X99860000Y-127400000D03*
D13*
%TO.P,J4,2,Pin_2*%
%TO.N,Net-(J4-Pin_2)*%
X104940000Y-127400000D03*
%TD*%
D24*
%TO.N,GND*%
X94600000Y-127000000D03*
X109000000Y-126600000D03*
%TO.N,Net-(U3-SENSE+)*%
X118228800Y-100806200D03*
%TO.N,Net-(J4-Pin_2)*%
X113940100Y-97515800D03*
%TO.N,Bremse*%
X101594500Y-107400000D03*
%TD*%
D25*
%TO.N,Net-(J1-ADC2)*%
X69888300Y-65271700D02*
X74272500Y-60887500D01*
X69888300Y-77069200D02*
X69888300Y-65271700D01*
X68500000Y-78457500D02*
X69888300Y-77069200D01*
X74272500Y-59635800D02*
X74272500Y-60887500D01*
%TO.N,Net-(J1-ADC1)*%
X80640800Y-59117100D02*
X80640800Y-59635800D01*
X79902100Y-58378400D02*
X80640800Y-59117100D01*
X78835600Y-58378400D02*
X79902100Y-58378400D01*
X78082500Y-59131500D02*
X78835600Y-58378400D01*
X78082500Y-72685000D02*
X78082500Y-59131500D01*
X71040000Y-79727500D02*
X78082500Y-72685000D01*
X81892500Y-59635800D02*
X80640800Y-59635800D01*
%TO.N,Net-(J1-RX|SDA)*%
X67283900Y-79781400D02*
X68500000Y-80997500D01*
X67283900Y-66604600D02*
X67283900Y-79781400D01*
X73002500Y-60886000D02*
X67283900Y-66604600D01*
X73002500Y-59088000D02*
X73002500Y-60886000D01*
X73712300Y-58378200D02*
X73002500Y-59088000D01*
X74850800Y-58378200D02*
X73712300Y-58378200D01*
X75560800Y-59088200D02*
X74850800Y-58378200D01*
X75560800Y-59635800D02*
X75560800Y-59088200D01*
X76812500Y-59635800D02*
X75560800Y-59635800D01*
%TO.N,Net-(J1-TX|SDA)*%
X79352500Y-73955000D02*
X79352500Y-59635800D01*
X71040000Y-82267500D02*
X79352500Y-73955000D01*
%TO.N,Net-(U3-SENSE+)*%
X118228800Y-104779600D02*
X118228800Y-100806200D01*
X121744200Y-108295000D02*
X118228800Y-104779600D01*
%TO.N,Net-(J4-Pin_2)*%
X104940000Y-106515900D02*
X104940000Y-127400000D01*
X113940100Y-97515800D02*
X104940000Y-106515900D01*
%TO.N,Bremse*%
X80236200Y-86041700D02*
X101594500Y-107400000D01*
X70572200Y-86041700D02*
X80236200Y-86041700D01*
X68500000Y-83969500D02*
X70572200Y-86041700D01*
X68500000Y-83537500D02*
X68500000Y-83969500D01*
%TD*%
%TA.AperFunction,Conductor*%
%TO.N,GND*%
G36*
X75428363Y-60118469D02*
G01*
X75494908Y-60136300D01*
X75699701Y-60136300D01*
X75766740Y-60155985D01*
X75810701Y-60205029D01*
X75830132Y-60244053D01*
X75919040Y-60361785D01*
X75958628Y-60414207D01*
X76116198Y-60557852D01*
X76297481Y-60670098D01*
X76496302Y-60747121D01*
X76705890Y-60786300D01*
X76705892Y-60786300D01*
X76919108Y-60786300D01*
X76919110Y-60786300D01*
X77128698Y-60747121D01*
X77327519Y-60670098D01*
X77392724Y-60629724D01*
X77460082Y-60611169D01*
X77526782Y-60631977D01*
X77571644Y-60685542D01*
X77582000Y-60735152D01*
X77582000Y-72426323D01*
X77562315Y-72493362D01*
X77545681Y-72514004D01*
X72464371Y-77595313D01*
X72403048Y-77628798D01*
X72333356Y-77623814D01*
X72277423Y-77581942D01*
X72253006Y-77516478D01*
X72256915Y-77475538D01*
X72275711Y-77405390D01*
X72275712Y-77405384D01*
X72294775Y-77187500D01*
X72294775Y-77187499D01*
X72275712Y-76969615D01*
X72275710Y-76969605D01*
X72219105Y-76758349D01*
X72219101Y-76758340D01*
X72126667Y-76560114D01*
X72126666Y-76560112D01*
X72083124Y-76497928D01*
X72083124Y-76497927D01*
X71420000Y-77161052D01*
X71420000Y-77137472D01*
X71394104Y-77040825D01*
X71344076Y-76954175D01*
X71273325Y-76883424D01*
X71186675Y-76833396D01*
X71090028Y-76807500D01*
X71066447Y-76807500D01*
X71729571Y-76144374D01*
X71667387Y-76100833D01*
X71469159Y-76008398D01*
X71469150Y-76008394D01*
X71257894Y-75951789D01*
X71257884Y-75951787D01*
X71040001Y-75932725D01*
X71039999Y-75932725D01*
X70822115Y-75951787D01*
X70822105Y-75951789D01*
X70610849Y-76008394D01*
X70610840Y-76008398D01*
X70565205Y-76029678D01*
X70496127Y-76040170D01*
X70432343Y-76011650D01*
X70394104Y-75953174D01*
X70388800Y-75917296D01*
X70388800Y-65530376D01*
X70408485Y-65463337D01*
X70425119Y-65442695D01*
X70659300Y-65208514D01*
X74673000Y-61194814D01*
X74738892Y-61080686D01*
X74773000Y-60953393D01*
X74773000Y-60821608D01*
X74773000Y-60748155D01*
X74792685Y-60681116D01*
X74831723Y-60642728D01*
X74852723Y-60629725D01*
X74968802Y-60557852D01*
X75126372Y-60414207D01*
X75254866Y-60244055D01*
X75285279Y-60182975D01*
X75332780Y-60131739D01*
X75400442Y-60114316D01*
X75428363Y-60118469D01*
G37*
%TD.AperFunction*%
%TA.AperFunction,Conductor*%
G36*
X130002324Y-53500587D02*
G01*
X130042259Y-53502081D01*
X130481082Y-53518500D01*
X130490306Y-53519192D01*
X130964101Y-53572575D01*
X130973247Y-53573954D01*
X131335901Y-53642572D01*
X131441708Y-53662592D01*
X131450749Y-53664655D01*
X131624139Y-53711114D01*
X131911287Y-53788056D01*
X131920133Y-53790784D01*
X132370158Y-53948255D01*
X132378778Y-53951637D01*
X132622667Y-54058045D01*
X132815784Y-54142302D01*
X132824138Y-54146326D01*
X133245640Y-54369096D01*
X133253671Y-54373732D01*
X133657371Y-54627393D01*
X133665033Y-54632617D01*
X134048641Y-54915732D01*
X134055883Y-54921508D01*
X134417275Y-55232511D01*
X134424072Y-55238818D01*
X134761181Y-55575927D01*
X134767488Y-55582724D01*
X135078491Y-55944116D01*
X135084273Y-55951366D01*
X135367382Y-56334966D01*
X135372606Y-56342628D01*
X135626267Y-56746328D01*
X135630903Y-56754359D01*
X135853673Y-57175861D01*
X135857697Y-57184215D01*
X136048359Y-57621215D01*
X136051747Y-57629848D01*
X136209212Y-58079859D01*
X136211945Y-58088719D01*
X136335344Y-58549250D01*
X136337407Y-58558291D01*
X136426043Y-59026741D01*
X136427425Y-59035910D01*
X136480806Y-59509681D01*
X136481499Y-59518928D01*
X136499413Y-59997674D01*
X136499500Y-60002311D01*
X136499500Y-129997688D01*
X136499413Y-130002325D01*
X136481499Y-130481071D01*
X136480806Y-130490318D01*
X136427425Y-130964089D01*
X136426043Y-130973258D01*
X136337407Y-131441708D01*
X136335344Y-131450749D01*
X136211945Y-131911280D01*
X136209212Y-131920140D01*
X136051747Y-132370151D01*
X136048359Y-132378784D01*
X135857697Y-132815784D01*
X135853673Y-132824138D01*
X135630903Y-133245640D01*
X135626267Y-133253671D01*
X135372606Y-133657371D01*
X135367382Y-133665033D01*
X135084273Y-134048633D01*
X135078491Y-134055883D01*
X134767488Y-134417275D01*
X134761181Y-134424072D01*
X134424072Y-134761181D01*
X134417275Y-134767488D01*
X134055883Y-135078491D01*
X134048633Y-135084273D01*
X133665033Y-135367382D01*
X133657371Y-135372606D01*
X133253671Y-135626267D01*
X133245640Y-135630903D01*
X132824138Y-135853673D01*
X132815784Y-135857697D01*
X132378784Y-136048359D01*
X132370151Y-136051747D01*
X131920140Y-136209212D01*
X131911280Y-136211945D01*
X131450749Y-136335344D01*
X131441708Y-136337407D01*
X130973258Y-136426043D01*
X130964089Y-136427425D01*
X130490318Y-136480806D01*
X130481071Y-136481499D01*
X130002325Y-136499413D01*
X129997688Y-136499500D01*
X60002312Y-136499500D01*
X59997675Y-136499413D01*
X59518928Y-136481499D01*
X59509681Y-136480806D01*
X59035910Y-136427425D01*
X59026741Y-136426043D01*
X58558291Y-136337407D01*
X58549250Y-136335344D01*
X58088719Y-136211945D01*
X58079859Y-136209212D01*
X57629848Y-136051747D01*
X57621215Y-136048359D01*
X57184215Y-135857697D01*
X57175861Y-135853673D01*
X56754359Y-135630903D01*
X56746328Y-135626267D01*
X56342628Y-135372606D01*
X56334966Y-135367382D01*
X55951366Y-135084273D01*
X55944116Y-135078491D01*
X55582724Y-134767488D01*
X55575927Y-134761181D01*
X55238818Y-134424072D01*
X55232511Y-134417275D01*
X54921508Y-134055883D01*
X54915726Y-134048633D01*
X54632617Y-133665033D01*
X54627393Y-133657371D01*
X54373732Y-133253671D01*
X54369096Y-133245640D01*
X54146326Y-132824138D01*
X54142302Y-132815784D01*
X53951640Y-132378784D01*
X53948252Y-132370151D01*
X53790787Y-131920140D01*
X53788054Y-131911280D01*
X53752043Y-131776887D01*
X53711114Y-131624139D01*
X53664655Y-131450749D01*
X53662592Y-131441708D01*
X53642572Y-131335901D01*
X53573954Y-130973247D01*
X53572574Y-130964089D01*
X53556363Y-130820214D01*
X53519192Y-130490306D01*
X53518500Y-130481070D01*
X53505038Y-130121288D01*
X58149500Y-130121288D01*
X58181161Y-130361785D01*
X58243947Y-130596104D01*
X58314934Y-130767480D01*
X58336776Y-130820212D01*
X58458064Y-131030289D01*
X58458066Y-131030292D01*
X58458067Y-131030293D01*
X58605733Y-131222736D01*
X58605739Y-131222743D01*
X58777256Y-131394260D01*
X58777263Y-131394266D01*
X58890321Y-131481018D01*
X58969711Y-131541936D01*
X59179788Y-131663224D01*
X59403900Y-131756054D01*
X59638211Y-131818838D01*
X59818586Y-131842584D01*
X59878711Y-131850500D01*
X59878712Y-131850500D01*
X60121289Y-131850500D01*
X60169388Y-131844167D01*
X60361789Y-131818838D01*
X60596100Y-131756054D01*
X60820212Y-131663224D01*
X61030289Y-131541936D01*
X61222738Y-131394265D01*
X61394265Y-131222738D01*
X61541936Y-131030289D01*
X61663224Y-130820212D01*
X61756054Y-130596100D01*
X61818838Y-130361789D01*
X61850500Y-130121288D01*
X128149500Y-130121288D01*
X128181161Y-130361785D01*
X128243947Y-130596104D01*
X128314934Y-130767480D01*
X128336776Y-130820212D01*
X128458064Y-131030289D01*
X128458066Y-131030292D01*
X128458067Y-131030293D01*
X128605733Y-131222736D01*
X128605739Y-131222743D01*
X128777256Y-131394260D01*
X128777263Y-131394266D01*
X128890321Y-131481018D01*
X128969711Y-131541936D01*
X129179788Y-131663224D01*
X129403900Y-131756054D01*
X129638211Y-131818838D01*
X129818586Y-131842584D01*
X129878711Y-131850500D01*
X129878712Y-131850500D01*
X130121289Y-131850500D01*
X130169388Y-131844167D01*
X130361789Y-131818838D01*
X130596100Y-131756054D01*
X130820212Y-131663224D01*
X131030289Y-131541936D01*
X131222738Y-131394265D01*
X131394265Y-131222738D01*
X131541936Y-131030289D01*
X131663224Y-130820212D01*
X131756054Y-130596100D01*
X131818838Y-130361789D01*
X131850500Y-130121288D01*
X131850500Y-129878712D01*
X131818838Y-129638211D01*
X131756054Y-129403900D01*
X131663224Y-129179788D01*
X131541936Y-128969711D01*
X131394265Y-128777262D01*
X131394260Y-128777256D01*
X131222743Y-128605739D01*
X131222736Y-128605733D01*
X131030293Y-128458067D01*
X131030292Y-128458066D01*
X131030289Y-128458064D01*
X130820212Y-128336776D01*
X130820205Y-128336773D01*
X130596104Y-128243947D01*
X130370126Y-128183396D01*
X130361789Y-128181162D01*
X130361788Y-128181161D01*
X130361785Y-128181161D01*
X130121289Y-128149500D01*
X130121288Y-128149500D01*
X129878712Y-128149500D01*
X129878711Y-128149500D01*
X129638214Y-128181161D01*
X129403895Y-128243947D01*
X129179794Y-128336773D01*
X129179785Y-128336777D01*
X128969706Y-128458067D01*
X128777263Y-128605733D01*
X128777256Y-128605739D01*
X128605739Y-128777256D01*
X128605733Y-128777263D01*
X128458067Y-128969706D01*
X128336777Y-129179785D01*
X128336773Y-129179794D01*
X128243947Y-129403895D01*
X128181161Y-129638214D01*
X128149500Y-129878711D01*
X128149500Y-130121288D01*
X61850500Y-130121288D01*
X61850500Y-129878712D01*
X61818838Y-129638211D01*
X61756054Y-129403900D01*
X61663224Y-129179788D01*
X61541936Y-128969711D01*
X61522864Y-128944856D01*
X69519500Y-128944856D01*
X69519502Y-128944882D01*
X69522413Y-128969987D01*
X69522415Y-128969991D01*
X69567793Y-129072764D01*
X69567794Y-129072765D01*
X69647235Y-129152206D01*
X69750009Y-129197585D01*
X69775135Y-129200500D01*
X72864864Y-129200499D01*
X72864879Y-129200497D01*
X72864882Y-129200497D01*
X72889987Y-129197586D01*
X72889988Y-129197585D01*
X72889991Y-129197585D01*
X72992765Y-129152206D01*
X73072206Y-129072765D01*
X73117585Y-128969991D01*
X73120500Y-128944865D01*
X73120500Y-127400001D01*
X74394891Y-127400001D01*
X74415300Y-127685362D01*
X74476109Y-127964895D01*
X74576091Y-128232958D01*
X74713191Y-128484038D01*
X74713196Y-128484046D01*
X74819882Y-128626561D01*
X74819883Y-128626562D01*
X75714767Y-127731677D01*
X75726497Y-127759995D01*
X75809670Y-127884472D01*
X75915528Y-127990330D01*
X76040005Y-128073503D01*
X76068320Y-128085231D01*
X75173436Y-128980115D01*
X75315960Y-129086807D01*
X75315961Y-129086808D01*
X75567042Y-129223908D01*
X75567041Y-129223908D01*
X75835104Y-129323890D01*
X76114637Y-129384699D01*
X76399999Y-129405109D01*
X76400001Y-129405109D01*
X76685362Y-129384699D01*
X76964895Y-129323890D01*
X77232958Y-129223908D01*
X77484047Y-129086803D01*
X77626561Y-128980116D01*
X77626562Y-128980115D01*
X77541303Y-128894856D01*
X83599500Y-128894856D01*
X83599502Y-128894882D01*
X83602413Y-128919987D01*
X83602415Y-128919991D01*
X83647793Y-129022764D01*
X83647794Y-129022765D01*
X83727235Y-129102206D01*
X83830009Y-129147585D01*
X83855135Y-129150500D01*
X86944864Y-129150499D01*
X86944879Y-129150497D01*
X86944882Y-129150497D01*
X86969987Y-129147586D01*
X86969988Y-129147585D01*
X86969991Y-129147585D01*
X87072765Y-129102206D01*
X87152206Y-129022765D01*
X87197585Y-128919991D01*
X87200500Y-128894865D01*
X87200500Y-127350001D01*
X88474891Y-127350001D01*
X88495300Y-127635362D01*
X88556109Y-127914895D01*
X88656091Y-128182958D01*
X88793191Y-128434038D01*
X88793196Y-128434046D01*
X88899882Y-128576561D01*
X88899883Y-128576562D01*
X89794767Y-127681677D01*
X89806497Y-127709995D01*
X89889670Y-127834472D01*
X89995528Y-127940330D01*
X90120005Y-128023503D01*
X90148320Y-128035231D01*
X89253436Y-128930115D01*
X89395960Y-129036807D01*
X89395961Y-129036808D01*
X89647042Y-129173908D01*
X89647041Y-129173908D01*
X89915104Y-129273890D01*
X90194637Y-129334699D01*
X90479999Y-129355109D01*
X90480001Y-129355109D01*
X90765362Y-129334699D01*
X91044895Y-129273890D01*
X91312958Y-129173908D01*
X91564047Y-129036803D01*
X91686871Y-128944856D01*
X98059500Y-128944856D01*
X98059502Y-128944882D01*
X98062413Y-128969987D01*
X98062415Y-128969991D01*
X98107793Y-129072764D01*
X98107794Y-129072765D01*
X98187235Y-129152206D01*
X98290009Y-129197585D01*
X98315135Y-129200500D01*
X101404864Y-129200499D01*
X101404879Y-129200497D01*
X101404882Y-129200497D01*
X101429987Y-129197586D01*
X101429988Y-129197585D01*
X101429991Y-129197585D01*
X101532765Y-129152206D01*
X101612206Y-129072765D01*
X101657585Y-128969991D01*
X101660500Y-128944865D01*
X101660500Y-127400004D01*
X103134451Y-127400004D01*
X103154616Y-127669101D01*
X103210717Y-127914895D01*
X103214666Y-127932195D01*
X103313257Y-128183398D01*
X103448185Y-128417102D01*
X103575350Y-128576561D01*
X103616442Y-128628089D01*
X103777207Y-128777256D01*
X103814259Y-128811635D01*
X104037226Y-128963651D01*
X104280359Y-129080738D01*
X104538228Y-129160280D01*
X104538229Y-129160280D01*
X104538232Y-129160281D01*
X104805063Y-129200499D01*
X104805068Y-129200499D01*
X104805071Y-129200500D01*
X104805072Y-129200500D01*
X105074928Y-129200500D01*
X105074929Y-129200500D01*
X105074949Y-129200497D01*
X105341767Y-129160281D01*
X105341768Y-129160280D01*
X105341772Y-129160280D01*
X105599641Y-129080738D01*
X105842775Y-128963651D01*
X105870342Y-128944856D01*
X112599500Y-128944856D01*
X112599502Y-128944882D01*
X112602413Y-128969987D01*
X112602415Y-128969991D01*
X112647793Y-129072764D01*
X112647794Y-129072765D01*
X112727235Y-129152206D01*
X112830009Y-129197585D01*
X112855135Y-129200500D01*
X115944864Y-129200499D01*
X115944879Y-129200497D01*
X115944882Y-129200497D01*
X115969987Y-129197586D01*
X115969988Y-129197585D01*
X115969991Y-129197585D01*
X116072765Y-129152206D01*
X116152206Y-129072765D01*
X116197585Y-128969991D01*
X116200500Y-128944865D01*
X116200500Y-127400001D01*
X117474891Y-127400001D01*
X117495300Y-127685362D01*
X117556109Y-127964895D01*
X117656091Y-128232958D01*
X117793191Y-128484038D01*
X117793196Y-128484046D01*
X117899882Y-128626561D01*
X117899883Y-128626562D01*
X118794767Y-127731677D01*
X118806497Y-127759995D01*
X118889670Y-127884472D01*
X118995528Y-127990330D01*
X119120005Y-128073503D01*
X119148320Y-128085231D01*
X118253436Y-128980115D01*
X118395960Y-129086807D01*
X118395961Y-129086808D01*
X118647042Y-129223908D01*
X118647041Y-129223908D01*
X118915104Y-129323890D01*
X119194637Y-129384699D01*
X119479999Y-129405109D01*
X119480001Y-129405109D01*
X119765362Y-129384699D01*
X120044895Y-129323890D01*
X120312958Y-129223908D01*
X120564047Y-129086803D01*
X120706561Y-128980116D01*
X120706562Y-128980115D01*
X119811679Y-128085231D01*
X119839995Y-128073503D01*
X119964472Y-127990330D01*
X120070330Y-127884472D01*
X120153503Y-127759995D01*
X120165231Y-127731678D01*
X121060115Y-128626562D01*
X121060116Y-128626561D01*
X121166803Y-128484047D01*
X121303908Y-128232958D01*
X121403890Y-127964895D01*
X121464699Y-127685362D01*
X121485109Y-127400001D01*
X121485109Y-127399998D01*
X121464699Y-127114637D01*
X121403890Y-126835104D01*
X121303908Y-126567041D01*
X121166808Y-126315961D01*
X121166807Y-126315960D01*
X121060115Y-126173436D01*
X120165231Y-127068320D01*
X120153503Y-127040005D01*
X120070330Y-126915528D01*
X119964472Y-126809670D01*
X119839995Y-126726497D01*
X119811678Y-126714767D01*
X120706562Y-125819883D01*
X120706561Y-125819882D01*
X120564046Y-125713196D01*
X120564038Y-125713191D01*
X120312957Y-125576091D01*
X120312958Y-125576091D01*
X120044895Y-125476109D01*
X119765362Y-125415300D01*
X119480001Y-125394891D01*
X119479999Y-125394891D01*
X119194637Y-125415300D01*
X118915104Y-125476109D01*
X118647041Y-125576091D01*
X118395961Y-125713191D01*
X118395953Y-125713196D01*
X118253437Y-125819882D01*
X118253436Y-125819883D01*
X119148321Y-126714767D01*
X119120005Y-126726497D01*
X118995528Y-126809670D01*
X118889670Y-126915528D01*
X118806497Y-127040005D01*
X118794768Y-127068321D01*
X117899883Y-126173436D01*
X117899882Y-126173437D01*
X117793196Y-126315953D01*
X117793191Y-126315961D01*
X117656091Y-126567041D01*
X117556109Y-126835104D01*
X117495300Y-127114637D01*
X117474891Y-127399998D01*
X117474891Y-127400001D01*
X116200500Y-127400001D01*
X116200499Y-125855136D01*
X116200497Y-125855117D01*
X116197586Y-125830012D01*
X116197585Y-125830010D01*
X116197585Y-125830009D01*
X116152206Y-125727235D01*
X116072765Y-125647794D01*
X116072763Y-125647793D01*
X115969992Y-125602415D01*
X115944865Y-125599500D01*
X112855143Y-125599500D01*
X112855117Y-125599502D01*
X112830012Y-125602413D01*
X112830008Y-125602415D01*
X112727235Y-125647793D01*
X112647794Y-125727234D01*
X112602415Y-125830006D01*
X112602415Y-125830008D01*
X112599500Y-125855131D01*
X112599500Y-128944856D01*
X105870342Y-128944856D01*
X106065741Y-128811635D01*
X106263561Y-128628085D01*
X106431815Y-128417102D01*
X106566743Y-128183398D01*
X106665334Y-127932195D01*
X106725383Y-127669103D01*
X106745549Y-127400000D01*
X106725383Y-127130897D01*
X106665334Y-126867805D01*
X106566743Y-126616602D01*
X106431815Y-126382898D01*
X106263561Y-126171915D01*
X106263560Y-126171914D01*
X106263557Y-126171910D01*
X106065741Y-125988365D01*
X105842775Y-125836349D01*
X105842769Y-125836346D01*
X105842768Y-125836345D01*
X105842767Y-125836344D01*
X105599646Y-125719264D01*
X105599643Y-125719263D01*
X105599641Y-125719262D01*
X105527948Y-125697147D01*
X105469691Y-125658577D01*
X105441533Y-125594632D01*
X105440500Y-125578657D01*
X105440500Y-106774575D01*
X105460185Y-106707536D01*
X105476814Y-106686899D01*
X111357511Y-100806201D01*
X117623118Y-100806201D01*
X117643755Y-100962960D01*
X117643757Y-100962965D01*
X117704261Y-101109036D01*
X117708326Y-101116076D01*
X117706583Y-101117082D01*
X117727869Y-101172132D01*
X117728300Y-101182457D01*
X117728300Y-104845491D01*
X117762408Y-104972787D01*
X117795354Y-105029850D01*
X117828300Y-105086914D01*
X117828302Y-105086916D01*
X120724926Y-107983540D01*
X120758411Y-108044863D01*
X120758865Y-108095401D01*
X120758176Y-108098865D01*
X120738859Y-108295000D01*
X120758175Y-108491129D01*
X120815388Y-108679733D01*
X120908286Y-108853532D01*
X120908290Y-108853539D01*
X121033316Y-109005883D01*
X121185660Y-109130909D01*
X121185667Y-109130913D01*
X121359466Y-109223811D01*
X121359469Y-109223811D01*
X121359473Y-109223814D01*
X121548068Y-109281024D01*
X121744200Y-109300341D01*
X121940332Y-109281024D01*
X122128927Y-109223814D01*
X122302738Y-109130910D01*
X122455083Y-109005883D01*
X122580110Y-108853538D01*
X122673014Y-108679727D01*
X122730224Y-108491132D01*
X122749541Y-108295000D01*
X125818859Y-108295000D01*
X125838175Y-108491129D01*
X125895388Y-108679733D01*
X125988286Y-108853532D01*
X125988290Y-108853539D01*
X126113316Y-109005883D01*
X126265660Y-109130909D01*
X126265667Y-109130913D01*
X126439466Y-109223811D01*
X126439469Y-109223811D01*
X126439473Y-109223814D01*
X126628068Y-109281024D01*
X126824200Y-109300341D01*
X127020332Y-109281024D01*
X127208927Y-109223814D01*
X127382738Y-109130910D01*
X127535083Y-109005883D01*
X127660110Y-108853538D01*
X127753014Y-108679727D01*
X127810224Y-108491132D01*
X127829541Y-108295000D01*
X127810224Y-108098868D01*
X127753014Y-107910273D01*
X127753011Y-107910269D01*
X127753011Y-107910266D01*
X127660113Y-107736467D01*
X127660109Y-107736460D01*
X127535083Y-107584116D01*
X127382739Y-107459090D01*
X127382732Y-107459086D01*
X127208933Y-107366188D01*
X127208927Y-107366186D01*
X127083197Y-107328046D01*
X127020329Y-107308975D01*
X126824200Y-107289659D01*
X126628070Y-107308975D01*
X126439466Y-107366188D01*
X126265667Y-107459086D01*
X126265660Y-107459090D01*
X126113316Y-107584116D01*
X125988290Y-107736460D01*
X125988286Y-107736467D01*
X125895388Y-107910266D01*
X125838175Y-108098870D01*
X125818859Y-108295000D01*
X122749541Y-108295000D01*
X122730224Y-108098868D01*
X122673014Y-107910273D01*
X122673011Y-107910269D01*
X122673011Y-107910266D01*
X122580113Y-107736467D01*
X122580109Y-107736460D01*
X122455083Y-107584116D01*
X122302739Y-107459090D01*
X122302732Y-107459086D01*
X122128933Y-107366188D01*
X122128927Y-107366186D01*
X122003197Y-107328046D01*
X121940329Y-107308975D01*
X121744200Y-107289659D01*
X121548065Y-107308976D01*
X121544601Y-107309665D01*
X121542752Y-107309499D01*
X121542006Y-107309573D01*
X121541992Y-107309431D01*
X121475010Y-107303430D01*
X121432740Y-107275726D01*
X118765619Y-104608605D01*
X118732134Y-104547282D01*
X118729300Y-104520924D01*
X118729300Y-101182457D01*
X118748985Y-101115418D01*
X118752724Y-101110100D01*
X118753332Y-101109045D01*
X118753336Y-101109041D01*
X118813844Y-100962962D01*
X118834482Y-100806200D01*
X118813844Y-100649438D01*
X118753336Y-100503359D01*
X118657082Y-100377918D01*
X118531641Y-100281664D01*
X118385562Y-100221156D01*
X118385560Y-100221155D01*
X118228801Y-100200518D01*
X118228799Y-100200518D01*
X118072039Y-100221155D01*
X118072037Y-100221156D01*
X117925960Y-100281663D01*
X117800518Y-100377918D01*
X117704263Y-100503360D01*
X117643756Y-100649437D01*
X117643755Y-100649439D01*
X117623118Y-100806198D01*
X117623118Y-100806201D01*
X111357511Y-100806201D01*
X114027952Y-98135760D01*
X114089273Y-98102277D01*
X114095680Y-98101160D01*
X114096854Y-98100844D01*
X114096862Y-98100844D01*
X114242941Y-98040336D01*
X114368382Y-97944082D01*
X114464636Y-97818641D01*
X114525144Y-97672562D01*
X114545782Y-97515800D01*
X114525144Y-97359038D01*
X114464636Y-97212959D01*
X114368382Y-97087518D01*
X114242941Y-96991264D01*
X114096862Y-96930756D01*
X114096860Y-96930755D01*
X113940101Y-96910118D01*
X113940099Y-96910118D01*
X113783339Y-96930755D01*
X113783337Y-96930756D01*
X113637260Y-96991263D01*
X113511818Y-97087518D01*
X113415563Y-97212960D01*
X113355054Y-97359041D01*
X113352952Y-97366889D01*
X113351011Y-97366369D01*
X113327119Y-97420359D01*
X113320138Y-97427946D01*
X104632686Y-106115400D01*
X104539502Y-106208583D01*
X104539500Y-106208586D01*
X104473608Y-106322712D01*
X104439500Y-106450008D01*
X104439500Y-125578657D01*
X104419815Y-125645696D01*
X104367011Y-125691451D01*
X104352050Y-125697148D01*
X104280360Y-125719261D01*
X104037230Y-125836346D01*
X103814258Y-125988365D01*
X103616442Y-126171910D01*
X103448185Y-126382898D01*
X103313258Y-126616599D01*
X103313256Y-126616603D01*
X103214666Y-126867804D01*
X103214664Y-126867811D01*
X103154616Y-127130898D01*
X103134451Y-127399995D01*
X103134451Y-127400004D01*
X101660500Y-127400004D01*
X101660499Y-125855136D01*
X101660497Y-125855117D01*
X101657586Y-125830012D01*
X101657585Y-125830010D01*
X101657585Y-125830009D01*
X101612206Y-125727235D01*
X101532765Y-125647794D01*
X101532763Y-125647793D01*
X101429992Y-125602415D01*
X101404865Y-125599500D01*
X98315143Y-125599500D01*
X98315117Y-125599502D01*
X98290012Y-125602413D01*
X98290008Y-125602415D01*
X98187235Y-125647793D01*
X98107794Y-125727234D01*
X98062415Y-125830006D01*
X98062415Y-125830008D01*
X98059500Y-125855131D01*
X98059500Y-128944856D01*
X91686871Y-128944856D01*
X91706561Y-128930116D01*
X91706562Y-128930115D01*
X90811679Y-128035231D01*
X90839995Y-128023503D01*
X90964472Y-127940330D01*
X91070330Y-127834472D01*
X91153503Y-127709995D01*
X91165231Y-127681678D01*
X92060115Y-128576562D01*
X92060116Y-128576561D01*
X92166803Y-128434047D01*
X92303908Y-128182958D01*
X92403890Y-127914895D01*
X92464699Y-127635362D01*
X92485109Y-127350001D01*
X92485109Y-127349998D01*
X92464699Y-127064637D01*
X92403890Y-126785104D01*
X92303908Y-126517041D01*
X92166808Y-126265961D01*
X92166807Y-126265960D01*
X92060115Y-126123436D01*
X91165231Y-127018320D01*
X91153503Y-126990005D01*
X91070330Y-126865528D01*
X90964472Y-126759670D01*
X90839995Y-126676497D01*
X90811678Y-126664767D01*
X91706562Y-125769883D01*
X91706561Y-125769882D01*
X91564046Y-125663196D01*
X91564038Y-125663191D01*
X91312957Y-125526091D01*
X91312958Y-125526091D01*
X91044895Y-125426109D01*
X90765362Y-125365300D01*
X90480001Y-125344891D01*
X90479999Y-125344891D01*
X90194637Y-125365300D01*
X89915104Y-125426109D01*
X89647041Y-125526091D01*
X89395961Y-125663191D01*
X89395953Y-125663196D01*
X89253437Y-125769882D01*
X89253436Y-125769883D01*
X90148321Y-126664767D01*
X90120005Y-126676497D01*
X89995528Y-126759670D01*
X89889670Y-126865528D01*
X89806497Y-126990005D01*
X89794768Y-127018321D01*
X88899883Y-126123436D01*
X88899882Y-126123437D01*
X88793196Y-126265953D01*
X88793191Y-126265961D01*
X88656091Y-126517041D01*
X88556109Y-126785104D01*
X88495300Y-127064637D01*
X88474891Y-127349998D01*
X88474891Y-127350001D01*
X87200500Y-127350001D01*
X87200499Y-125805136D01*
X87200497Y-125805117D01*
X87197586Y-125780012D01*
X87197585Y-125780010D01*
X87197585Y-125780009D01*
X87152206Y-125677235D01*
X87072765Y-125597794D01*
X87029424Y-125578657D01*
X86969992Y-125552415D01*
X86944865Y-125549500D01*
X83855143Y-125549500D01*
X83855117Y-125549502D01*
X83830012Y-125552413D01*
X83830008Y-125552415D01*
X83727235Y-125597793D01*
X83647794Y-125677234D01*
X83602415Y-125780006D01*
X83602415Y-125780008D01*
X83599500Y-125805131D01*
X83599500Y-128894856D01*
X77541303Y-128894856D01*
X76731679Y-128085231D01*
X76759995Y-128073503D01*
X76884472Y-127990330D01*
X76990330Y-127884472D01*
X77073503Y-127759995D01*
X77085231Y-127731678D01*
X77980115Y-128626562D01*
X77980116Y-128626561D01*
X78086803Y-128484047D01*
X78223908Y-128232958D01*
X78323890Y-127964895D01*
X78384699Y-127685362D01*
X78405109Y-127400001D01*
X78405109Y-127399998D01*
X78384699Y-127114637D01*
X78323890Y-126835104D01*
X78223908Y-126567041D01*
X78086808Y-126315961D01*
X78086807Y-126315960D01*
X77980115Y-126173436D01*
X77085231Y-127068320D01*
X77073503Y-127040005D01*
X76990330Y-126915528D01*
X76884472Y-126809670D01*
X76759995Y-126726497D01*
X76731678Y-126714767D01*
X77626562Y-125819883D01*
X77626561Y-125819882D01*
X77484046Y-125713196D01*
X77484038Y-125713191D01*
X77232957Y-125576091D01*
X77232958Y-125576091D01*
X76964895Y-125476109D01*
X76685362Y-125415300D01*
X76400001Y-125394891D01*
X76399999Y-125394891D01*
X76114637Y-125415300D01*
X75835104Y-125476109D01*
X75567041Y-125576091D01*
X75315961Y-125713191D01*
X75315953Y-125713196D01*
X75173437Y-125819882D01*
X75173436Y-125819883D01*
X76068321Y-126714767D01*
X76040005Y-126726497D01*
X75915528Y-126809670D01*
X75809670Y-126915528D01*
X75726497Y-127040005D01*
X75714768Y-127068321D01*
X74819883Y-126173436D01*
X74819882Y-126173437D01*
X74713196Y-126315953D01*
X74713191Y-126315961D01*
X74576091Y-126567041D01*
X74476109Y-126835104D01*
X74415300Y-127114637D01*
X74394891Y-127399998D01*
X74394891Y-127400001D01*
X73120500Y-127400001D01*
X73120499Y-125855136D01*
X73120497Y-125855117D01*
X73117586Y-125830012D01*
X73117585Y-125830010D01*
X73117585Y-125830009D01*
X73072206Y-125727235D01*
X72992765Y-125647794D01*
X72992763Y-125647793D01*
X72889992Y-125602415D01*
X72864865Y-125599500D01*
X69775143Y-125599500D01*
X69775117Y-125599502D01*
X69750012Y-125602413D01*
X69750008Y-125602415D01*
X69647235Y-125647793D01*
X69567794Y-125727234D01*
X69522415Y-125830006D01*
X69522415Y-125830008D01*
X69519500Y-125855131D01*
X69519500Y-128944856D01*
X61522864Y-128944856D01*
X61394265Y-128777262D01*
X61394260Y-128777256D01*
X61222743Y-128605739D01*
X61222736Y-128605733D01*
X61030293Y-128458067D01*
X61030292Y-128458066D01*
X61030289Y-128458064D01*
X60820212Y-128336776D01*
X60820205Y-128336773D01*
X60596104Y-128243947D01*
X60370126Y-128183396D01*
X60361789Y-128181162D01*
X60361788Y-128181161D01*
X60361785Y-128181161D01*
X60121289Y-128149500D01*
X60121288Y-128149500D01*
X59878712Y-128149500D01*
X59878711Y-128149500D01*
X59638214Y-128181161D01*
X59403895Y-128243947D01*
X59179794Y-128336773D01*
X59179785Y-128336777D01*
X58969706Y-128458067D01*
X58777263Y-128605733D01*
X58777256Y-128605739D01*
X58605739Y-128777256D01*
X58605733Y-128777263D01*
X58458067Y-128969706D01*
X58336777Y-129179785D01*
X58336773Y-129179794D01*
X58243947Y-129403895D01*
X58181161Y-129638214D01*
X58149500Y-129878711D01*
X58149500Y-130121288D01*
X53505038Y-130121288D01*
X53500587Y-130002324D01*
X53500500Y-129997688D01*
X53500500Y-112771436D01*
X57500000Y-112771436D01*
X57515300Y-112985362D01*
X57576109Y-113264895D01*
X57676091Y-113532958D01*
X57813191Y-113784038D01*
X57813192Y-113784039D01*
X57984639Y-114013065D01*
X57984649Y-114013077D01*
X58186922Y-114215350D01*
X58186934Y-114215360D01*
X58415960Y-114386807D01*
X58415961Y-114386808D01*
X58667042Y-114523908D01*
X58667041Y-114523908D01*
X58935104Y-114623890D01*
X59214637Y-114684699D01*
X59428563Y-114699999D01*
X59428566Y-114700000D01*
X60750000Y-114700000D01*
X60750000Y-113436502D01*
X60852527Y-113450000D01*
X61147473Y-113450000D01*
X61250000Y-113436502D01*
X61250000Y-114700000D01*
X62571434Y-114700000D01*
X62571436Y-114699999D01*
X62785362Y-114684699D01*
X63064895Y-114623890D01*
X63332958Y-114523908D01*
X63584038Y-114386808D01*
X63584039Y-114386807D01*
X63813065Y-114215360D01*
X63813077Y-114215350D01*
X64015350Y-114013077D01*
X64015360Y-114013065D01*
X64186807Y-113784039D01*
X64186808Y-113784038D01*
X64323908Y-113532958D01*
X64423890Y-113264895D01*
X64484699Y-112985362D01*
X64499999Y-112771436D01*
X64500000Y-112771434D01*
X64500000Y-111450000D01*
X63236502Y-111450000D01*
X63250000Y-111347473D01*
X63250000Y-111052527D01*
X63236502Y-110950000D01*
X64500000Y-110950000D01*
X64500000Y-109628566D01*
X64499999Y-109628563D01*
X64484699Y-109414637D01*
X64423890Y-109135104D01*
X64337470Y-108903403D01*
X81017772Y-108903403D01*
X81037454Y-109166045D01*
X81037454Y-109166046D01*
X81096062Y-109422828D01*
X81192287Y-109668002D01*
X81192286Y-109668002D01*
X81323978Y-109896097D01*
X81372679Y-109957166D01*
X81915046Y-109414799D01*
X82000686Y-109542967D01*
X82140433Y-109682714D01*
X82268599Y-109768352D01*
X81725577Y-110311373D01*
X81898890Y-110429536D01*
X82136185Y-110543811D01*
X82387865Y-110621444D01*
X82387871Y-110621446D01*
X82648301Y-110660699D01*
X82648310Y-110660700D01*
X82911690Y-110660700D01*
X82911698Y-110660699D01*
X83172128Y-110621446D01*
X83172134Y-110621444D01*
X83423814Y-110543811D01*
X83661117Y-110429532D01*
X83834421Y-110311373D01*
X83291399Y-109768352D01*
X83419567Y-109682714D01*
X83559314Y-109542967D01*
X83644952Y-109414799D01*
X84187320Y-109957167D01*
X84236020Y-109896097D01*
X84367712Y-109668002D01*
X84463937Y-109422828D01*
X84522545Y-109166046D01*
X84522545Y-109166045D01*
X84542228Y-108903403D01*
X84542228Y-108903401D01*
X89091220Y-108903401D01*
X89111102Y-109130661D01*
X89111104Y-109130672D01*
X89170146Y-109351021D01*
X89170148Y-109351025D01*
X89170149Y-109351029D01*
X89241821Y-109504731D01*
X89266562Y-109557788D01*
X89266563Y-109557790D01*
X89397417Y-109744670D01*
X89558729Y-109905982D01*
X89605688Y-109938863D01*
X89745610Y-110036837D01*
X89952371Y-110133251D01*
X90172733Y-110192297D01*
X90335066Y-110206499D01*
X90399998Y-110212180D01*
X90400000Y-110212180D01*
X90400002Y-110212180D01*
X90456816Y-110207209D01*
X90627267Y-110192297D01*
X90847629Y-110133251D01*
X91054390Y-110036837D01*
X91241268Y-109905984D01*
X91402584Y-109744668D01*
X91533437Y-109557790D01*
X91629851Y-109351029D01*
X91688897Y-109130667D01*
X91708780Y-108903400D01*
X96457383Y-108903400D01*
X96476620Y-109147841D01*
X96476620Y-109147844D01*
X96476621Y-109147847D01*
X96508594Y-109281024D01*
X96533864Y-109386279D01*
X96627695Y-109612809D01*
X96627697Y-109612812D01*
X96755812Y-109821878D01*
X96755813Y-109821880D01*
X96755816Y-109821883D01*
X96915063Y-110008337D01*
X97059397Y-110131610D01*
X97101519Y-110167586D01*
X97101521Y-110167587D01*
X97310587Y-110295702D01*
X97310590Y-110295704D01*
X97537120Y-110389535D01*
X97537125Y-110389537D01*
X97775553Y-110446779D01*
X98020000Y-110466017D01*
X98264447Y-110446779D01*
X98502875Y-110389537D01*
X98691580Y-110311373D01*
X98729409Y-110295704D01*
X98729410Y-110295703D01*
X98729413Y-110295702D01*
X98938483Y-110167584D01*
X99124937Y-110008337D01*
X99284184Y-109821883D01*
X99412302Y-109612813D01*
X99506137Y-109386275D01*
X99563379Y-109147847D01*
X99582617Y-108903400D01*
X99563379Y-108658953D01*
X99506137Y-108420525D01*
X99454143Y-108295000D01*
X99412304Y-108193990D01*
X99412302Y-108193987D01*
X99284187Y-107984921D01*
X99284186Y-107984919D01*
X99220426Y-107910266D01*
X99124937Y-107798463D01*
X98978678Y-107673546D01*
X98938480Y-107639213D01*
X98938478Y-107639212D01*
X98729412Y-107511097D01*
X98729409Y-107511095D01*
X98502879Y-107417264D01*
X98430974Y-107400001D01*
X98264447Y-107360021D01*
X98264444Y-107360020D01*
X98264441Y-107360020D01*
X98020000Y-107340783D01*
X97775558Y-107360020D01*
X97775554Y-107360020D01*
X97775553Y-107360021D01*
X97703723Y-107377266D01*
X97537120Y-107417264D01*
X97310590Y-107511095D01*
X97310587Y-107511097D01*
X97101521Y-107639212D01*
X97101519Y-107639213D01*
X96915063Y-107798463D01*
X96755813Y-107984919D01*
X96755812Y-107984921D01*
X96627697Y-108193987D01*
X96627695Y-108193990D01*
X96533864Y-108420520D01*
X96525401Y-108455771D01*
X96480991Y-108640753D01*
X96476620Y-108658958D01*
X96457383Y-108903400D01*
X91708780Y-108903400D01*
X91688897Y-108676133D01*
X91629851Y-108455771D01*
X91533437Y-108249010D01*
X91402584Y-108062132D01*
X91402582Y-108062129D01*
X91241270Y-107900817D01*
X91054390Y-107769963D01*
X91054388Y-107769962D01*
X90982557Y-107736467D01*
X90847629Y-107673549D01*
X90847625Y-107673548D01*
X90847621Y-107673546D01*
X90627272Y-107614504D01*
X90627268Y-107614503D01*
X90627267Y-107614503D01*
X90627266Y-107614502D01*
X90627261Y-107614502D01*
X90400002Y-107594620D01*
X90399998Y-107594620D01*
X90172738Y-107614502D01*
X90172727Y-107614504D01*
X89952378Y-107673546D01*
X89952369Y-107673550D01*
X89745611Y-107769962D01*
X89745609Y-107769963D01*
X89558729Y-107900817D01*
X89397417Y-108062129D01*
X89266563Y-108249009D01*
X89266562Y-108249011D01*
X89170150Y-108455769D01*
X89170146Y-108455778D01*
X89111104Y-108676127D01*
X89111102Y-108676138D01*
X89091220Y-108903398D01*
X89091220Y-108903401D01*
X84542228Y-108903401D01*
X84542228Y-108903396D01*
X84522545Y-108640754D01*
X84522545Y-108640753D01*
X84463937Y-108383971D01*
X84367712Y-108138797D01*
X84367713Y-108138797D01*
X84236021Y-107910702D01*
X84187320Y-107849631D01*
X83644952Y-108391999D01*
X83559314Y-108263833D01*
X83419567Y-108124086D01*
X83291399Y-108038447D01*
X83834421Y-107495425D01*
X83661109Y-107377263D01*
X83423814Y-107262988D01*
X83172134Y-107185355D01*
X83172128Y-107185353D01*
X82911698Y-107146100D01*
X82648301Y-107146100D01*
X82387871Y-107185353D01*
X82387865Y-107185355D01*
X82136185Y-107262988D01*
X81898889Y-107377264D01*
X81898885Y-107377266D01*
X81725577Y-107495425D01*
X82268600Y-108038447D01*
X82140433Y-108124086D01*
X82000686Y-108263833D01*
X81915047Y-108392000D01*
X81372679Y-107849632D01*
X81372678Y-107849632D01*
X81323981Y-107910698D01*
X81192287Y-108138797D01*
X81096062Y-108383971D01*
X81037454Y-108640753D01*
X81037454Y-108640754D01*
X81017772Y-108903396D01*
X81017772Y-108903403D01*
X64337470Y-108903403D01*
X64323908Y-108867041D01*
X64186808Y-108615961D01*
X64186807Y-108615960D01*
X64015360Y-108386934D01*
X64015350Y-108386922D01*
X63813077Y-108184649D01*
X63813065Y-108184639D01*
X63584039Y-108013192D01*
X63584038Y-108013191D01*
X63332957Y-107876091D01*
X63332958Y-107876091D01*
X63064895Y-107776109D01*
X62785362Y-107715300D01*
X62571436Y-107700000D01*
X61250000Y-107700000D01*
X61250000Y-108963497D01*
X61147473Y-108950000D01*
X60852527Y-108950000D01*
X60750000Y-108963497D01*
X60750000Y-107700000D01*
X59428563Y-107700000D01*
X59214637Y-107715300D01*
X58935104Y-107776109D01*
X58667041Y-107876091D01*
X58415961Y-108013191D01*
X58415960Y-108013192D01*
X58186934Y-108184639D01*
X58186922Y-108184649D01*
X57984649Y-108386922D01*
X57984639Y-108386934D01*
X57813192Y-108615960D01*
X57813191Y-108615961D01*
X57676091Y-108867041D01*
X57576109Y-109135104D01*
X57515300Y-109414637D01*
X57500000Y-109628563D01*
X57500000Y-110950000D01*
X58763498Y-110950000D01*
X58750000Y-111052527D01*
X58750000Y-111347473D01*
X58763498Y-111450000D01*
X57500000Y-111450000D01*
X57500000Y-112771436D01*
X53500500Y-112771436D01*
X53500500Y-104000002D01*
X57694652Y-104000002D01*
X57714028Y-104357368D01*
X57714029Y-104357385D01*
X57771926Y-104710539D01*
X57771932Y-104710565D01*
X57867672Y-105055392D01*
X57867674Y-105055399D01*
X58000142Y-105387870D01*
X58000151Y-105387888D01*
X58167784Y-105704077D01*
X58167790Y-105704086D01*
X58368634Y-106000309D01*
X58368641Y-106000319D01*
X58545545Y-106208586D01*
X58600332Y-106273086D01*
X58860163Y-106519211D01*
X59145081Y-106735800D01*
X59451747Y-106920315D01*
X59451749Y-106920316D01*
X59451751Y-106920317D01*
X59451755Y-106920319D01*
X59562853Y-106971718D01*
X59776565Y-107070591D01*
X60115726Y-107184868D01*
X60465254Y-107261805D01*
X60821052Y-107300500D01*
X60821058Y-107300500D01*
X61178942Y-107300500D01*
X61178948Y-107300500D01*
X61534746Y-107261805D01*
X61884274Y-107184868D01*
X62223435Y-107070591D01*
X62548253Y-106920315D01*
X62854919Y-106735800D01*
X63139837Y-106519211D01*
X63399668Y-106273086D01*
X63631365Y-106000311D01*
X63832211Y-105704085D01*
X63999853Y-105387880D01*
X64132324Y-105055403D01*
X64228071Y-104710552D01*
X64285972Y-104357371D01*
X64305348Y-104000000D01*
X64285972Y-103642629D01*
X64228071Y-103289448D01*
X64132324Y-102944597D01*
X63999853Y-102612120D01*
X63832211Y-102295915D01*
X63631365Y-101999689D01*
X63631361Y-101999684D01*
X63631358Y-101999680D01*
X63399668Y-101726914D01*
X63139837Y-101480789D01*
X63139830Y-101480783D01*
X63139827Y-101480781D01*
X63072245Y-101429407D01*
X62854919Y-101264200D01*
X62548253Y-101079685D01*
X62548252Y-101079684D01*
X62548248Y-101079682D01*
X62548244Y-101079680D01*
X62223447Y-100929414D01*
X62223441Y-100929411D01*
X62223435Y-100929409D01*
X62053854Y-100872270D01*
X61884273Y-100815131D01*
X61534744Y-100738194D01*
X61178949Y-100699500D01*
X61178948Y-100699500D01*
X60821052Y-100699500D01*
X60821050Y-100699500D01*
X60465255Y-100738194D01*
X60115726Y-100815131D01*
X59859970Y-100901306D01*
X59776565Y-100929409D01*
X59776563Y-100929410D01*
X59776552Y-100929414D01*
X59451755Y-101079680D01*
X59451751Y-101079682D01*
X59350896Y-101140365D01*
X59145081Y-101264200D01*
X59056768Y-101331333D01*
X58860172Y-101480781D01*
X58860163Y-101480789D01*
X58600331Y-101726914D01*
X58368641Y-101999680D01*
X58368634Y-101999690D01*
X58167790Y-102295913D01*
X58167784Y-102295922D01*
X58000151Y-102612111D01*
X58000142Y-102612129D01*
X57867674Y-102944600D01*
X57867672Y-102944607D01*
X57771932Y-103289434D01*
X57771926Y-103289460D01*
X57714029Y-103642614D01*
X57714028Y-103642631D01*
X57694652Y-103999997D01*
X57694652Y-104000002D01*
X53500500Y-104000002D01*
X53500500Y-86198788D01*
X60299500Y-86198788D01*
X60331161Y-86439285D01*
X60393947Y-86673604D01*
X60486773Y-86897705D01*
X60486776Y-86897712D01*
X60608064Y-87107789D01*
X60608066Y-87107792D01*
X60608067Y-87107793D01*
X60755733Y-87300236D01*
X60755739Y-87300243D01*
X60927256Y-87471760D01*
X60927262Y-87471765D01*
X61119711Y-87619436D01*
X61329788Y-87740724D01*
X61553900Y-87833554D01*
X61788211Y-87896338D01*
X61968586Y-87920084D01*
X62028711Y-87928000D01*
X62028712Y-87928000D01*
X62271289Y-87928000D01*
X62319388Y-87921667D01*
X62511789Y-87896338D01*
X62746100Y-87833554D01*
X62970212Y-87740724D01*
X63180289Y-87619436D01*
X63372738Y-87471765D01*
X63544265Y-87300238D01*
X63691936Y-87107789D01*
X63813224Y-86897712D01*
X63906054Y-86673600D01*
X63968838Y-86439289D01*
X64000500Y-86198788D01*
X64000500Y-85956212D01*
X63968838Y-85715711D01*
X63906054Y-85481400D01*
X63813224Y-85257288D01*
X63691936Y-85047211D01*
X63544265Y-84854762D01*
X63544260Y-84854756D01*
X63372743Y-84683239D01*
X63372736Y-84683233D01*
X63180293Y-84535567D01*
X63180292Y-84535566D01*
X63180289Y-84535564D01*
X63008661Y-84436474D01*
X62970214Y-84414277D01*
X62970205Y-84414273D01*
X62746104Y-84321447D01*
X62511785Y-84258661D01*
X62271289Y-84227000D01*
X62271288Y-84227000D01*
X62028712Y-84227000D01*
X62028711Y-84227000D01*
X61788214Y-84258661D01*
X61553895Y-84321447D01*
X61329794Y-84414273D01*
X61329785Y-84414277D01*
X61119706Y-84535567D01*
X60927263Y-84683233D01*
X60927256Y-84683239D01*
X60755739Y-84854756D01*
X60755733Y-84854763D01*
X60608067Y-85047206D01*
X60486777Y-85257285D01*
X60486773Y-85257294D01*
X60393947Y-85481395D01*
X60331161Y-85715714D01*
X60299500Y-85956211D01*
X60299500Y-86198788D01*
X53500500Y-86198788D01*
X53500500Y-83537500D01*
X67444417Y-83537500D01*
X67464699Y-83743432D01*
X67473426Y-83772200D01*
X67524768Y-83941454D01*
X67622315Y-84123950D01*
X67656969Y-84166177D01*
X67753589Y-84283910D01*
X67799329Y-84321447D01*
X67913550Y-84415185D01*
X68096046Y-84512732D01*
X68294066Y-84572800D01*
X68362411Y-84579531D01*
X68427199Y-84605691D01*
X68437939Y-84615253D01*
X70171700Y-86349014D01*
X70264886Y-86442200D01*
X70379014Y-86508092D01*
X70506307Y-86542200D01*
X70506308Y-86542200D01*
X79977524Y-86542200D01*
X80044563Y-86561885D01*
X80065205Y-86578519D01*
X100974538Y-107487852D01*
X101008023Y-107549175D01*
X101009141Y-107555588D01*
X101009454Y-107556758D01*
X101057831Y-107673549D01*
X101069964Y-107702841D01*
X101166218Y-107828282D01*
X101291659Y-107924536D01*
X101437738Y-107985044D01*
X101516119Y-107995363D01*
X101594499Y-108005682D01*
X101594500Y-108005682D01*
X101594501Y-108005682D01*
X101646754Y-107998802D01*
X101751262Y-107985044D01*
X101897341Y-107924536D01*
X102022782Y-107828282D01*
X102119036Y-107702841D01*
X102179544Y-107556762D01*
X102200182Y-107400000D01*
X102195730Y-107366186D01*
X102179544Y-107243239D01*
X102179544Y-107243238D01*
X102119036Y-107097159D01*
X102022782Y-106971718D01*
X101897341Y-106875464D01*
X101897339Y-106875463D01*
X101751258Y-106814954D01*
X101743411Y-106812852D01*
X101743930Y-106810911D01*
X101689943Y-106787023D01*
X101682352Y-106780038D01*
X90661514Y-95759200D01*
X120846359Y-95759200D01*
X120865675Y-95955329D01*
X120922888Y-96143933D01*
X121015786Y-96317732D01*
X121015790Y-96317739D01*
X121140816Y-96470083D01*
X121293160Y-96595109D01*
X121293167Y-96595113D01*
X121466966Y-96688011D01*
X121466969Y-96688011D01*
X121466973Y-96688014D01*
X121655568Y-96745224D01*
X121851700Y-96764541D01*
X122047832Y-96745224D01*
X122236427Y-96688014D01*
X122410238Y-96595110D01*
X122562583Y-96470083D01*
X122687610Y-96317738D01*
X122780514Y-96143927D01*
X122837724Y-95955332D01*
X122857041Y-95759200D01*
X125926359Y-95759200D01*
X125945675Y-95955329D01*
X126002888Y-96143933D01*
X126095786Y-96317732D01*
X126095790Y-96317739D01*
X126220816Y-96470083D01*
X126373160Y-96595109D01*
X126373167Y-96595113D01*
X126546966Y-96688011D01*
X126546969Y-96688011D01*
X126546973Y-96688014D01*
X126735568Y-96745224D01*
X126931700Y-96764541D01*
X127127832Y-96745224D01*
X127316427Y-96688014D01*
X127490238Y-96595110D01*
X127642583Y-96470083D01*
X127767610Y-96317738D01*
X127860514Y-96143927D01*
X127917724Y-95955332D01*
X127937041Y-95759200D01*
X127917724Y-95563068D01*
X127860514Y-95374473D01*
X127860511Y-95374469D01*
X127860511Y-95374466D01*
X127767613Y-95200667D01*
X127767609Y-95200660D01*
X127642583Y-95048316D01*
X127490239Y-94923290D01*
X127490232Y-94923286D01*
X127316433Y-94830388D01*
X127316427Y-94830386D01*
X127127832Y-94773176D01*
X127127829Y-94773175D01*
X126931700Y-94753859D01*
X126735570Y-94773175D01*
X126546966Y-94830388D01*
X126373167Y-94923286D01*
X126373160Y-94923290D01*
X126220816Y-95048316D01*
X126095790Y-95200660D01*
X126095786Y-95200667D01*
X126002888Y-95374466D01*
X125945675Y-95563070D01*
X125926359Y-95759200D01*
X122857041Y-95759200D01*
X122837724Y-95563068D01*
X122780514Y-95374473D01*
X122780511Y-95374469D01*
X122780511Y-95374466D01*
X122687613Y-95200667D01*
X122687609Y-95200660D01*
X122562583Y-95048316D01*
X122410239Y-94923290D01*
X122410232Y-94923286D01*
X122236433Y-94830388D01*
X122236427Y-94830386D01*
X122047832Y-94773176D01*
X122047829Y-94773175D01*
X121851700Y-94753859D01*
X121655570Y-94773175D01*
X121466966Y-94830388D01*
X121293167Y-94923286D01*
X121293160Y-94923290D01*
X121140816Y-95048316D01*
X121015790Y-95200660D01*
X121015786Y-95200667D01*
X120922888Y-95374466D01*
X120865675Y-95563070D01*
X120846359Y-95759200D01*
X90661514Y-95759200D01*
X80543516Y-85641202D01*
X80543514Y-85641200D01*
X80486450Y-85608254D01*
X80429387Y-85575308D01*
X80365739Y-85558254D01*
X80302092Y-85541200D01*
X80302091Y-85541200D01*
X72045860Y-85541200D01*
X71978821Y-85521515D01*
X71933066Y-85468711D01*
X71923122Y-85399553D01*
X71936502Y-85358746D01*
X72015232Y-85211454D01*
X72075300Y-85013434D01*
X72095583Y-84807500D01*
X72075300Y-84601566D01*
X72015232Y-84403546D01*
X71917685Y-84221050D01*
X71792092Y-84068013D01*
X71786410Y-84061089D01*
X71668677Y-83964469D01*
X71626450Y-83929815D01*
X71443954Y-83832268D01*
X71245934Y-83772200D01*
X71245932Y-83772199D01*
X71245934Y-83772199D01*
X71040000Y-83751917D01*
X70834067Y-83772199D01*
X70636043Y-83832269D01*
X70525898Y-83891143D01*
X70453550Y-83929815D01*
X70453548Y-83929816D01*
X70453547Y-83929817D01*
X70293589Y-84061089D01*
X70162317Y-84221047D01*
X70064767Y-84403546D01*
X70026392Y-84530052D01*
X69988095Y-84588490D01*
X69924282Y-84616947D01*
X69855215Y-84606386D01*
X69820051Y-84581737D01*
X69437342Y-84199028D01*
X69403857Y-84137705D01*
X69408841Y-84068013D01*
X69415659Y-84052906D01*
X69475232Y-83941454D01*
X69535300Y-83743434D01*
X69555583Y-83537500D01*
X69535300Y-83331566D01*
X69475232Y-83133546D01*
X69377685Y-82951050D01*
X69263381Y-82811769D01*
X69246410Y-82791089D01*
X69128677Y-82694469D01*
X69086450Y-82659815D01*
X68903954Y-82562268D01*
X68705934Y-82502200D01*
X68705932Y-82502199D01*
X68705934Y-82502199D01*
X68500000Y-82481917D01*
X68294067Y-82502199D01*
X68096043Y-82562269D01*
X67985898Y-82621143D01*
X67913550Y-82659815D01*
X67913548Y-82659816D01*
X67913547Y-82659817D01*
X67753589Y-82791089D01*
X67622317Y-82951047D01*
X67524769Y-83133543D01*
X67464699Y-83331567D01*
X67444417Y-83537500D01*
X53500500Y-83537500D01*
X53500500Y-79847291D01*
X66783400Y-79847291D01*
X66817508Y-79974587D01*
X66826690Y-79990490D01*
X66883400Y-80088714D01*
X66883402Y-80088716D01*
X67440436Y-80645750D01*
X67473921Y-80707073D01*
X67471416Y-80769424D01*
X67464700Y-80791563D01*
X67464699Y-80791566D01*
X67444417Y-80997500D01*
X67464699Y-81203432D01*
X67485317Y-81271401D01*
X67524768Y-81401454D01*
X67622315Y-81583950D01*
X67623483Y-81585373D01*
X67753589Y-81743910D01*
X67850209Y-81823202D01*
X67913550Y-81875185D01*
X68096046Y-81972732D01*
X68294066Y-82032800D01*
X68294065Y-82032800D01*
X68312529Y-82034618D01*
X68500000Y-82053083D01*
X68705934Y-82032800D01*
X68903954Y-81972732D01*
X69086450Y-81875185D01*
X69246410Y-81743910D01*
X69377685Y-81583950D01*
X69475232Y-81401454D01*
X69535300Y-81203434D01*
X69555583Y-80997500D01*
X69535300Y-80791566D01*
X69475232Y-80593546D01*
X69377685Y-80411050D01*
X69297998Y-80313950D01*
X69246410Y-80251089D01*
X69128677Y-80154469D01*
X69086450Y-80119815D01*
X68903954Y-80022268D01*
X68705934Y-79962200D01*
X68705932Y-79962199D01*
X68705934Y-79962199D01*
X68500000Y-79941917D01*
X68294066Y-79962199D01*
X68294063Y-79962200D01*
X68271924Y-79968916D01*
X68202057Y-79969539D01*
X68148250Y-79937936D01*
X67820719Y-79610405D01*
X67787234Y-79549082D01*
X67784400Y-79522724D01*
X67784400Y-79473034D01*
X67804085Y-79405995D01*
X67856889Y-79360240D01*
X67926047Y-79350296D01*
X67966849Y-79363674D01*
X68096046Y-79432732D01*
X68294066Y-79492800D01*
X68294065Y-79492800D01*
X68312529Y-79494618D01*
X68500000Y-79513083D01*
X68705934Y-79492800D01*
X68903954Y-79432732D01*
X69086450Y-79335185D01*
X69246410Y-79203910D01*
X69377685Y-79043950D01*
X69475232Y-78861454D01*
X69535300Y-78663434D01*
X69555583Y-78457500D01*
X69535300Y-78251566D01*
X69528583Y-78229426D01*
X69527959Y-78159560D01*
X69559561Y-78105751D01*
X69806460Y-77858853D01*
X69867780Y-77825370D01*
X69937472Y-77830354D01*
X69993405Y-77872226D01*
X69995713Y-77875412D01*
X69996874Y-77877070D01*
X70660000Y-77213945D01*
X70660000Y-77237528D01*
X70685896Y-77334175D01*
X70735924Y-77420825D01*
X70806675Y-77491576D01*
X70893325Y-77541604D01*
X70989972Y-77567500D01*
X71013553Y-77567500D01*
X70350427Y-78230624D01*
X70412612Y-78274166D01*
X70610840Y-78366601D01*
X70610849Y-78366605D01*
X70822105Y-78423210D01*
X70822116Y-78423212D01*
X70946325Y-78434079D01*
X71011394Y-78459531D01*
X71052373Y-78516122D01*
X71056251Y-78585884D01*
X71021797Y-78646668D01*
X70959951Y-78679176D01*
X70947673Y-78681010D01*
X70834067Y-78692199D01*
X70636043Y-78752269D01*
X70525898Y-78811143D01*
X70453550Y-78849815D01*
X70453548Y-78849816D01*
X70453547Y-78849817D01*
X70293589Y-78981089D01*
X70162317Y-79141047D01*
X70064769Y-79323543D01*
X70004699Y-79521567D01*
X69984417Y-79727500D01*
X70004699Y-79933432D01*
X70031647Y-80022268D01*
X70064768Y-80131454D01*
X70162315Y-80313950D01*
X70196969Y-80356177D01*
X70293589Y-80473910D01*
X70352228Y-80522033D01*
X70453550Y-80605185D01*
X70636046Y-80702732D01*
X70834066Y-80762800D01*
X70834065Y-80762800D01*
X70852529Y-80764618D01*
X71040000Y-80783083D01*
X71245934Y-80762800D01*
X71443954Y-80702732D01*
X71626450Y-80605185D01*
X71727772Y-80522032D01*
X71792081Y-80494720D01*
X71807867Y-80497422D01*
X71821554Y-80434509D01*
X71834533Y-80415271D01*
X71917685Y-80313950D01*
X72015232Y-80131454D01*
X72075300Y-79933434D01*
X72095583Y-79727500D01*
X72075300Y-79521566D01*
X72068583Y-79499426D01*
X72067959Y-79429560D01*
X72099561Y-79375751D01*
X78483000Y-72992314D01*
X78548892Y-72878186D01*
X78583000Y-72750892D01*
X78583000Y-72619108D01*
X78583000Y-60735152D01*
X78602685Y-60668113D01*
X78655489Y-60622358D01*
X78724647Y-60612414D01*
X78772276Y-60629725D01*
X78775914Y-60631977D01*
X78793279Y-60642729D01*
X78839914Y-60694757D01*
X78852000Y-60748155D01*
X78852000Y-73696323D01*
X78832315Y-73763362D01*
X78815681Y-73784004D01*
X72018067Y-80581617D01*
X71956744Y-80615102D01*
X71928236Y-80613063D01*
X71930392Y-80621205D01*
X71908919Y-80687694D01*
X71894117Y-80705567D01*
X71391749Y-81207935D01*
X71330426Y-81241420D01*
X71268077Y-81238916D01*
X71245934Y-81232199D01*
X71040000Y-81211917D01*
X70834067Y-81232199D01*
X70636043Y-81292269D01*
X70581078Y-81321649D01*
X70453550Y-81389815D01*
X70453548Y-81389816D01*
X70453547Y-81389817D01*
X70293589Y-81521089D01*
X70162317Y-81681047D01*
X70162315Y-81681050D01*
X70143007Y-81717172D01*
X70064769Y-81863543D01*
X70004699Y-82061567D01*
X69984417Y-82267500D01*
X70004699Y-82473432D01*
X70013426Y-82502200D01*
X70064768Y-82671454D01*
X70162315Y-82853950D01*
X70162317Y-82853952D01*
X70293589Y-83013910D01*
X70377566Y-83082827D01*
X70453550Y-83145185D01*
X70636046Y-83242732D01*
X70834066Y-83302800D01*
X70834065Y-83302800D01*
X70852529Y-83304618D01*
X71040000Y-83323083D01*
X71245934Y-83302800D01*
X71443954Y-83242732D01*
X71626450Y-83145185D01*
X71702413Y-83082844D01*
X108685000Y-83082844D01*
X108691401Y-83142372D01*
X108691403Y-83142379D01*
X108741645Y-83277086D01*
X108741649Y-83277093D01*
X108827809Y-83392187D01*
X108827812Y-83392190D01*
X108942906Y-83478350D01*
X108942913Y-83478354D01*
X109077620Y-83528596D01*
X109077627Y-83528598D01*
X109137155Y-83534999D01*
X109137172Y-83535000D01*
X109570000Y-83535000D01*
X109570000Y-82688816D01*
X109586060Y-82704876D01*
X109672939Y-82755036D01*
X109769840Y-82781000D01*
X109870160Y-82781000D01*
X109967061Y-82755036D01*
X110053940Y-82704876D01*
X110070000Y-82688816D01*
X110070000Y-83535000D01*
X110502828Y-83535000D01*
X110502844Y-83534999D01*
X110562372Y-83528598D01*
X110562379Y-83528596D01*
X110697086Y-83478354D01*
X110697093Y-83478350D01*
X110812187Y-83392190D01*
X110812190Y-83392187D01*
X110898350Y-83277093D01*
X110898354Y-83277086D01*
X110948596Y-83142379D01*
X110948598Y-83142372D01*
X110954999Y-83082844D01*
X110955000Y-83082827D01*
X110955000Y-82650000D01*
X110108816Y-82650000D01*
X110124876Y-82633940D01*
X110175036Y-82547061D01*
X110201000Y-82450160D01*
X110201000Y-82400000D01*
X111419347Y-82400000D01*
X111439903Y-82595575D01*
X111439904Y-82595577D01*
X111500668Y-82782592D01*
X111500671Y-82782598D01*
X111598995Y-82952901D01*
X111730574Y-83099036D01*
X111730577Y-83099038D01*
X111730580Y-83099041D01*
X111790230Y-83142379D01*
X111889673Y-83214629D01*
X112069317Y-83294612D01*
X112069322Y-83294614D01*
X112261675Y-83335500D01*
X112458325Y-83335500D01*
X112650678Y-83294614D01*
X112830327Y-83214629D01*
X112989420Y-83099041D01*
X113121004Y-82952902D01*
X113219329Y-82782598D01*
X113280097Y-82595573D01*
X113300653Y-82400000D01*
X113959347Y-82400000D01*
X113979903Y-82595575D01*
X113979904Y-82595577D01*
X114040668Y-82782592D01*
X114040671Y-82782598D01*
X114138995Y-82952901D01*
X114270574Y-83099036D01*
X114270577Y-83099038D01*
X114270580Y-83099041D01*
X114330230Y-83142379D01*
X114429673Y-83214629D01*
X114609317Y-83294612D01*
X114609322Y-83294614D01*
X114801675Y-83335500D01*
X114998325Y-83335500D01*
X115190678Y-83294614D01*
X115370327Y-83214629D01*
X115529420Y-83099041D01*
X115661004Y-82952902D01*
X115759329Y-82782598D01*
X115820097Y-82595573D01*
X115840653Y-82400000D01*
X119039347Y-82400000D01*
X119059903Y-82595575D01*
X119059904Y-82595577D01*
X119120668Y-82782592D01*
X119120671Y-82782598D01*
X119218995Y-82952901D01*
X119350574Y-83099036D01*
X119350577Y-83099038D01*
X119350580Y-83099041D01*
X119410230Y-83142379D01*
X119509673Y-83214629D01*
X119689317Y-83294612D01*
X119689322Y-83294614D01*
X119881675Y-83335500D01*
X120078325Y-83335500D01*
X120270678Y-83294614D01*
X120450327Y-83214629D01*
X120609420Y-83099041D01*
X120741004Y-82952902D01*
X120839329Y-82782598D01*
X120900097Y-82595573D01*
X120920653Y-82400000D01*
X121579347Y-82400000D01*
X121599903Y-82595575D01*
X121599904Y-82595577D01*
X121660668Y-82782592D01*
X121660671Y-82782598D01*
X121758995Y-82952901D01*
X121890574Y-83099036D01*
X121890577Y-83099038D01*
X121890580Y-83099041D01*
X121950230Y-83142379D01*
X122049673Y-83214629D01*
X122229317Y-83294612D01*
X122229322Y-83294614D01*
X122421675Y-83335500D01*
X122618325Y-83335500D01*
X122810678Y-83294614D01*
X122990327Y-83214629D01*
X123149420Y-83099041D01*
X123281004Y-82952902D01*
X123379329Y-82782598D01*
X123440097Y-82595573D01*
X123460653Y-82400000D01*
X123920138Y-82400000D01*
X123939545Y-82609444D01*
X123997111Y-82811769D01*
X124090871Y-83000062D01*
X124097545Y-83008899D01*
X124679000Y-82427446D01*
X124679000Y-82450160D01*
X124704964Y-82547061D01*
X124755124Y-82633940D01*
X124826060Y-82704876D01*
X124912939Y-82755036D01*
X125009840Y-82781000D01*
X125032553Y-82781000D01*
X124453887Y-83359663D01*
X124551918Y-83420362D01*
X124551920Y-83420363D01*
X124748063Y-83496348D01*
X124954829Y-83535000D01*
X125165171Y-83535000D01*
X125371935Y-83496348D01*
X125371936Y-83496348D01*
X125568079Y-83420363D01*
X125568080Y-83420362D01*
X125666110Y-83359664D01*
X125666111Y-83359663D01*
X125087448Y-82781000D01*
X125110160Y-82781000D01*
X125207061Y-82755036D01*
X125293940Y-82704876D01*
X125364876Y-82633940D01*
X125415036Y-82547061D01*
X125441000Y-82450160D01*
X125441000Y-82427447D01*
X126022452Y-83008899D01*
X126022453Y-83008899D01*
X126029128Y-83000061D01*
X126122888Y-82811769D01*
X126180454Y-82609444D01*
X126199862Y-82400000D01*
X126659347Y-82400000D01*
X126679903Y-82595575D01*
X126679904Y-82595577D01*
X126740668Y-82782592D01*
X126740671Y-82782598D01*
X126838995Y-82952901D01*
X126970574Y-83099036D01*
X126970577Y-83099038D01*
X126970580Y-83099041D01*
X127030230Y-83142379D01*
X127129673Y-83214629D01*
X127309317Y-83294612D01*
X127309322Y-83294614D01*
X127501675Y-83335500D01*
X127698325Y-83335500D01*
X127890678Y-83294614D01*
X128070327Y-83214629D01*
X128229420Y-83099041D01*
X128361004Y-82952902D01*
X128459329Y-82782598D01*
X128520097Y-82595573D01*
X128540653Y-82400000D01*
X128520097Y-82204427D01*
X128473679Y-82061566D01*
X128459331Y-82017407D01*
X128459328Y-82017401D01*
X128442486Y-81988230D01*
X128361004Y-81847098D01*
X128318542Y-81799939D01*
X128229425Y-81700963D01*
X128229422Y-81700961D01*
X128229421Y-81700960D01*
X128229420Y-81700959D01*
X128070327Y-81585371D01*
X128070326Y-81585370D01*
X127890682Y-81505387D01*
X127890677Y-81505385D01*
X127698325Y-81464500D01*
X127501675Y-81464500D01*
X127309322Y-81505385D01*
X127309317Y-81505387D01*
X127129674Y-81585370D01*
X127129669Y-81585373D01*
X126970581Y-81700957D01*
X126970574Y-81700963D01*
X126838995Y-81847098D01*
X126740671Y-82017401D01*
X126740668Y-82017407D01*
X126679904Y-82204422D01*
X126679903Y-82204424D01*
X126659347Y-82400000D01*
X126199862Y-82400000D01*
X126199862Y-82399999D01*
X126180454Y-82190555D01*
X126122888Y-81988230D01*
X126029130Y-81799941D01*
X126029128Y-81799937D01*
X126022453Y-81791099D01*
X126022452Y-81791098D01*
X125441000Y-82372551D01*
X125441000Y-82349840D01*
X125415036Y-82252939D01*
X125364876Y-82166060D01*
X125293940Y-82095124D01*
X125207061Y-82044964D01*
X125110160Y-82019000D01*
X125087448Y-82019000D01*
X125666111Y-81440335D01*
X125666110Y-81440334D01*
X125568083Y-81379638D01*
X125568077Y-81379636D01*
X125371936Y-81303651D01*
X125165171Y-81265000D01*
X124954829Y-81265000D01*
X124748064Y-81303651D01*
X124748063Y-81303651D01*
X124551923Y-81379635D01*
X124453887Y-81440335D01*
X125032553Y-82019000D01*
X125009840Y-82019000D01*
X124912939Y-82044964D01*
X124826060Y-82095124D01*
X124755124Y-82166060D01*
X124704964Y-82252939D01*
X124679000Y-82349840D01*
X124679000Y-82372553D01*
X124097546Y-81791099D01*
X124097545Y-81791099D01*
X124090870Y-81799939D01*
X123997111Y-81988230D01*
X123939545Y-82190555D01*
X123920138Y-82399999D01*
X123920138Y-82400000D01*
X123460653Y-82400000D01*
X123440097Y-82204427D01*
X123393679Y-82061566D01*
X123379331Y-82017407D01*
X123379328Y-82017401D01*
X123362486Y-81988230D01*
X123281004Y-81847098D01*
X123238542Y-81799939D01*
X123149425Y-81700963D01*
X123149422Y-81700961D01*
X123149421Y-81700960D01*
X123149420Y-81700959D01*
X122990327Y-81585371D01*
X122990326Y-81585370D01*
X122810682Y-81505387D01*
X122810677Y-81505385D01*
X122618325Y-81464500D01*
X122421675Y-81464500D01*
X122229322Y-81505385D01*
X122229317Y-81505387D01*
X122049674Y-81585370D01*
X122049669Y-81585373D01*
X121890581Y-81700957D01*
X121890574Y-81700963D01*
X121758995Y-81847098D01*
X121660671Y-82017401D01*
X121660668Y-82017407D01*
X121599904Y-82204422D01*
X121599903Y-82204424D01*
X121579347Y-82400000D01*
X120920653Y-82400000D01*
X120900097Y-82204427D01*
X120853679Y-82061566D01*
X120839331Y-82017407D01*
X120839328Y-82017401D01*
X120822486Y-81988230D01*
X120741004Y-81847098D01*
X120698542Y-81799939D01*
X120609425Y-81700963D01*
X120609422Y-81700961D01*
X120609421Y-81700960D01*
X120609420Y-81700959D01*
X120450327Y-81585371D01*
X120450326Y-81585370D01*
X120270682Y-81505387D01*
X120270677Y-81505385D01*
X120078325Y-81464500D01*
X119881675Y-81464500D01*
X119689322Y-81505385D01*
X119689317Y-81505387D01*
X119509674Y-81585370D01*
X119509669Y-81585373D01*
X119350581Y-81700957D01*
X119350574Y-81700963D01*
X119218995Y-81847098D01*
X119120671Y-82017401D01*
X119120668Y-82017407D01*
X119059904Y-82204422D01*
X119059903Y-82204424D01*
X119039347Y-82400000D01*
X115840653Y-82400000D01*
X115820097Y-82204427D01*
X115773679Y-82061566D01*
X115759331Y-82017407D01*
X115759328Y-82017401D01*
X115742486Y-81988230D01*
X115661004Y-81847098D01*
X115618542Y-81799939D01*
X115529425Y-81700963D01*
X115529422Y-81700961D01*
X115529421Y-81700960D01*
X115529420Y-81700959D01*
X115370327Y-81585371D01*
X115370326Y-81585370D01*
X115190682Y-81505387D01*
X115190677Y-81505385D01*
X114998325Y-81464500D01*
X114801675Y-81464500D01*
X114609322Y-81505385D01*
X114609317Y-81505387D01*
X114429674Y-81585370D01*
X114429669Y-81585373D01*
X114270581Y-81700957D01*
X114270574Y-81700963D01*
X114138995Y-81847098D01*
X114040671Y-82017401D01*
X114040668Y-82017407D01*
X113979904Y-82204422D01*
X113979903Y-82204424D01*
X113959347Y-82400000D01*
X113300653Y-82400000D01*
X113280097Y-82204427D01*
X113233679Y-82061566D01*
X113219331Y-82017407D01*
X113219328Y-82017401D01*
X113202486Y-81988230D01*
X113121004Y-81847098D01*
X113078542Y-81799939D01*
X112989425Y-81700963D01*
X112989422Y-81700961D01*
X112989421Y-81700960D01*
X112989420Y-81700959D01*
X112830327Y-81585371D01*
X112830326Y-81585370D01*
X112650682Y-81505387D01*
X112650677Y-81505385D01*
X112458325Y-81464500D01*
X112261675Y-81464500D01*
X112069322Y-81505385D01*
X112069317Y-81505387D01*
X111889674Y-81585370D01*
X111889669Y-81585373D01*
X111730581Y-81700957D01*
X111730574Y-81700963D01*
X111598995Y-81847098D01*
X111500671Y-82017401D01*
X111500668Y-82017407D01*
X111439904Y-82204422D01*
X111439903Y-82204424D01*
X111419347Y-82400000D01*
X110201000Y-82400000D01*
X110201000Y-82349840D01*
X110175036Y-82252939D01*
X110124876Y-82166060D01*
X110108816Y-82150000D01*
X110955000Y-82150000D01*
X110955000Y-81717172D01*
X110954999Y-81717155D01*
X110948598Y-81657627D01*
X110948596Y-81657620D01*
X110898354Y-81522913D01*
X110898350Y-81522906D01*
X110812190Y-81407812D01*
X110812187Y-81407809D01*
X110697093Y-81321649D01*
X110697086Y-81321645D01*
X110562379Y-81271403D01*
X110562372Y-81271401D01*
X110502844Y-81265000D01*
X110070000Y-81265000D01*
X110070000Y-82111184D01*
X110053940Y-82095124D01*
X109967061Y-82044964D01*
X109870160Y-82019000D01*
X109769840Y-82019000D01*
X109672939Y-82044964D01*
X109586060Y-82095124D01*
X109570000Y-82111184D01*
X109570000Y-81265000D01*
X109137155Y-81265000D01*
X109077627Y-81271401D01*
X109077620Y-81271403D01*
X108942913Y-81321645D01*
X108942906Y-81321649D01*
X108827812Y-81407809D01*
X108827809Y-81407812D01*
X108741649Y-81522906D01*
X108741645Y-81522913D01*
X108691403Y-81657620D01*
X108691401Y-81657627D01*
X108685000Y-81717155D01*
X108685000Y-82150000D01*
X109531184Y-82150000D01*
X109515124Y-82166060D01*
X109464964Y-82252939D01*
X109439000Y-82349840D01*
X109439000Y-82450160D01*
X109464964Y-82547061D01*
X109515124Y-82633940D01*
X109531184Y-82650000D01*
X108685000Y-82650000D01*
X108685000Y-83082844D01*
X71702413Y-83082844D01*
X71786410Y-83013910D01*
X71917685Y-82853950D01*
X72015232Y-82671454D01*
X72075300Y-82473434D01*
X72095583Y-82267500D01*
X72075300Y-82061566D01*
X72068583Y-82039426D01*
X72067959Y-81969560D01*
X72099561Y-81915751D01*
X73051912Y-80963400D01*
X81272051Y-80963400D01*
X81290615Y-81199292D01*
X81345853Y-81429377D01*
X81436407Y-81647995D01*
X81552464Y-81837382D01*
X82102957Y-81286889D01*
X82115979Y-81318327D01*
X82197980Y-81441051D01*
X82302349Y-81545420D01*
X82425073Y-81627421D01*
X82456509Y-81640442D01*
X81906016Y-82190934D01*
X82095404Y-82306992D01*
X82314022Y-82397546D01*
X82544108Y-82452784D01*
X82544107Y-82452784D01*
X82780000Y-82471348D01*
X83015892Y-82452784D01*
X83245977Y-82397546D01*
X83464595Y-82306992D01*
X83653982Y-82190934D01*
X83103490Y-81640442D01*
X83134927Y-81627421D01*
X83257651Y-81545420D01*
X83362020Y-81441051D01*
X83444021Y-81318327D01*
X83457042Y-81286890D01*
X84007534Y-81837382D01*
X84123592Y-81647995D01*
X84214146Y-81429377D01*
X84269384Y-81199292D01*
X84287948Y-80963401D01*
X89091220Y-80963401D01*
X89111102Y-81190661D01*
X89111104Y-81190672D01*
X89170146Y-81411021D01*
X89170148Y-81411025D01*
X89170149Y-81411029D01*
X89250783Y-81583950D01*
X89266562Y-81617788D01*
X89266563Y-81617790D01*
X89397417Y-81804670D01*
X89558729Y-81965982D01*
X89558732Y-81965984D01*
X89745610Y-82096837D01*
X89952371Y-82193251D01*
X90172733Y-82252297D01*
X90335066Y-82266499D01*
X90399998Y-82272180D01*
X90400000Y-82272180D01*
X90400002Y-82272180D01*
X90456816Y-82267209D01*
X90627267Y-82252297D01*
X90847629Y-82193251D01*
X91054390Y-82096837D01*
X91241268Y-81965984D01*
X91402584Y-81804668D01*
X91533437Y-81617790D01*
X91629851Y-81411029D01*
X91688897Y-81190667D01*
X91708780Y-80963401D01*
X96711220Y-80963401D01*
X96731102Y-81190661D01*
X96731104Y-81190672D01*
X96790146Y-81411021D01*
X96790148Y-81411025D01*
X96790149Y-81411029D01*
X96870783Y-81583950D01*
X96886562Y-81617788D01*
X96886563Y-81617790D01*
X97017417Y-81804670D01*
X97178729Y-81965982D01*
X97178732Y-81965984D01*
X97365610Y-82096837D01*
X97572371Y-82193251D01*
X97792733Y-82252297D01*
X97955066Y-82266499D01*
X98019998Y-82272180D01*
X98020000Y-82272180D01*
X98020002Y-82272180D01*
X98076816Y-82267209D01*
X98247267Y-82252297D01*
X98467629Y-82193251D01*
X98674390Y-82096837D01*
X98861268Y-81965984D01*
X99022584Y-81804668D01*
X99153437Y-81617790D01*
X99249851Y-81411029D01*
X99308897Y-81190667D01*
X99328780Y-80963400D01*
X99308897Y-80736133D01*
X99249851Y-80515771D01*
X99153437Y-80309010D01*
X99022584Y-80122132D01*
X99022582Y-80122129D01*
X98861270Y-79960817D01*
X98674390Y-79829963D01*
X98674388Y-79829962D01*
X98651208Y-79819153D01*
X98467629Y-79733549D01*
X98467625Y-79733548D01*
X98467621Y-79733546D01*
X98247272Y-79674504D01*
X98247268Y-79674503D01*
X98247267Y-79674503D01*
X98247266Y-79674502D01*
X98247261Y-79674502D01*
X98020002Y-79654620D01*
X98019998Y-79654620D01*
X97792738Y-79674502D01*
X97792727Y-79674504D01*
X97572378Y-79733546D01*
X97572371Y-79733548D01*
X97572371Y-79733549D01*
X97549189Y-79744358D01*
X97365611Y-79829962D01*
X97365609Y-79829963D01*
X97178729Y-79960817D01*
X97017417Y-80122129D01*
X96886563Y-80309009D01*
X96886562Y-80309011D01*
X96790150Y-80515769D01*
X96790146Y-80515778D01*
X96731104Y-80736127D01*
X96731102Y-80736138D01*
X96711220Y-80963398D01*
X96711220Y-80963401D01*
X91708780Y-80963401D01*
X91708780Y-80963400D01*
X91688897Y-80736133D01*
X91629851Y-80515771D01*
X91533437Y-80309010D01*
X91402584Y-80122132D01*
X91402582Y-80122129D01*
X91241270Y-79960817D01*
X91054390Y-79829963D01*
X91054388Y-79829962D01*
X91031208Y-79819153D01*
X90847629Y-79733549D01*
X90847625Y-79733548D01*
X90847621Y-79733546D01*
X90627272Y-79674504D01*
X90627268Y-79674503D01*
X90627267Y-79674503D01*
X90627266Y-79674502D01*
X90627261Y-79674502D01*
X90400002Y-79654620D01*
X90399998Y-79654620D01*
X90172738Y-79674502D01*
X90172727Y-79674504D01*
X89952378Y-79733546D01*
X89952371Y-79733548D01*
X89952371Y-79733549D01*
X89929189Y-79744358D01*
X89745611Y-79829962D01*
X89745609Y-79829963D01*
X89558729Y-79960817D01*
X89397417Y-80122129D01*
X89266563Y-80309009D01*
X89266562Y-80309011D01*
X89170150Y-80515769D01*
X89170146Y-80515778D01*
X89111104Y-80736127D01*
X89111102Y-80736138D01*
X89091220Y-80963398D01*
X89091220Y-80963401D01*
X84287948Y-80963401D01*
X84287948Y-80963400D01*
X84269384Y-80727507D01*
X84214146Y-80497422D01*
X84123592Y-80278804D01*
X84007534Y-80089416D01*
X83457042Y-80639909D01*
X83444021Y-80608473D01*
X83362020Y-80485749D01*
X83257651Y-80381380D01*
X83134927Y-80299379D01*
X83103489Y-80286357D01*
X83653982Y-79735864D01*
X83464595Y-79619807D01*
X83245977Y-79529253D01*
X83015891Y-79474015D01*
X83015892Y-79474015D01*
X82780000Y-79455451D01*
X82544107Y-79474015D01*
X82314022Y-79529253D01*
X82095412Y-79619804D01*
X82095407Y-79619807D01*
X81906016Y-79735864D01*
X82456509Y-80286357D01*
X82425073Y-80299379D01*
X82302349Y-80381380D01*
X82197980Y-80485749D01*
X82115979Y-80608473D01*
X82102957Y-80639909D01*
X81552464Y-80089416D01*
X81436407Y-80278807D01*
X81436404Y-80278812D01*
X81345853Y-80497422D01*
X81290615Y-80727507D01*
X81272051Y-80963400D01*
X73051912Y-80963400D01*
X79649604Y-74365707D01*
X79649609Y-74365704D01*
X79659812Y-74355500D01*
X79659814Y-74355500D01*
X79753000Y-74262314D01*
X79818892Y-74148186D01*
X79853000Y-74020893D01*
X79853000Y-73889108D01*
X79853000Y-60748155D01*
X79872685Y-60681116D01*
X79911723Y-60642728D01*
X79932723Y-60629725D01*
X80048802Y-60557852D01*
X80206372Y-60414207D01*
X80334866Y-60244055D01*
X80365279Y-60182975D01*
X80412780Y-60131739D01*
X80480442Y-60114316D01*
X80508363Y-60118469D01*
X80574908Y-60136300D01*
X80779701Y-60136300D01*
X80846740Y-60155985D01*
X80890701Y-60205029D01*
X80910132Y-60244053D01*
X80999040Y-60361785D01*
X81038628Y-60414207D01*
X81196198Y-60557852D01*
X81377481Y-60670098D01*
X81576302Y-60747121D01*
X81785890Y-60786300D01*
X81785892Y-60786300D01*
X81999108Y-60786300D01*
X81999110Y-60786300D01*
X82208698Y-60747121D01*
X82407519Y-60670098D01*
X82588802Y-60557852D01*
X82746372Y-60414207D01*
X82874866Y-60244055D01*
X82941825Y-60109581D01*
X82989325Y-60058348D01*
X83056988Y-60040926D01*
X83123328Y-60062851D01*
X83165205Y-60112451D01*
X83258899Y-60313378D01*
X83394394Y-60506882D01*
X83561417Y-60673905D01*
X83754921Y-60809400D01*
X83969007Y-60909229D01*
X83969016Y-60909233D01*
X84182500Y-60966434D01*
X84182500Y-60068812D01*
X84239507Y-60101725D01*
X84366674Y-60135800D01*
X84498326Y-60135800D01*
X84625493Y-60101725D01*
X84682500Y-60068812D01*
X84682500Y-60966433D01*
X84895983Y-60909233D01*
X84895992Y-60909229D01*
X85110078Y-60809400D01*
X85303582Y-60673905D01*
X85470605Y-60506882D01*
X85606100Y-60313378D01*
X85699794Y-60112451D01*
X85745966Y-60060012D01*
X85813160Y-60040860D01*
X85880041Y-60061076D01*
X85923176Y-60109585D01*
X85990132Y-60244053D01*
X86079040Y-60361785D01*
X86118628Y-60414207D01*
X86276198Y-60557852D01*
X86457481Y-60670098D01*
X86656302Y-60747121D01*
X86865890Y-60786300D01*
X86865892Y-60786300D01*
X87079108Y-60786300D01*
X87079110Y-60786300D01*
X87288698Y-60747121D01*
X87487519Y-60670098D01*
X87668802Y-60557852D01*
X87826372Y-60414207D01*
X87954866Y-60244055D01*
X87954867Y-60244053D01*
X88049903Y-60053194D01*
X88049903Y-60053193D01*
X88049905Y-60053189D01*
X88108256Y-59848110D01*
X88114529Y-59780405D01*
X88140314Y-59715469D01*
X88197114Y-59674781D01*
X88266895Y-59671261D01*
X88327502Y-59706025D01*
X88359693Y-59768038D01*
X88362000Y-59791847D01*
X88362000Y-60530656D01*
X88362002Y-60530682D01*
X88364913Y-60555787D01*
X88364915Y-60555791D01*
X88410293Y-60658564D01*
X88410294Y-60658565D01*
X88489735Y-60738006D01*
X88592509Y-60783385D01*
X88617635Y-60786300D01*
X90407364Y-60786299D01*
X90407379Y-60786297D01*
X90407382Y-60786297D01*
X90432487Y-60783386D01*
X90432488Y-60783385D01*
X90432491Y-60783385D01*
X90535265Y-60738006D01*
X90614706Y-60658565D01*
X90660085Y-60555791D01*
X90663000Y-60530665D01*
X90663000Y-60121288D01*
X128149500Y-60121288D01*
X128174788Y-60313378D01*
X128181162Y-60361789D01*
X128212554Y-60478944D01*
X128243947Y-60596104D01*
X128336773Y-60820205D01*
X128336776Y-60820212D01*
X128458064Y-61030289D01*
X128458066Y-61030292D01*
X128458067Y-61030293D01*
X128605733Y-61222736D01*
X128605739Y-61222743D01*
X128777256Y-61394260D01*
X128777262Y-61394265D01*
X128969711Y-61541936D01*
X129179788Y-61663224D01*
X129403900Y-61756054D01*
X129638211Y-61818838D01*
X129818586Y-61842584D01*
X129878711Y-61850500D01*
X129878712Y-61850500D01*
X130121289Y-61850500D01*
X130169388Y-61844167D01*
X130361789Y-61818838D01*
X130596100Y-61756054D01*
X130820212Y-61663224D01*
X131030289Y-61541936D01*
X131222738Y-61394265D01*
X131394265Y-61222738D01*
X131541936Y-61030289D01*
X131663224Y-60820212D01*
X131756054Y-60596100D01*
X131818838Y-60361789D01*
X131850500Y-60121288D01*
X131850500Y-59878712D01*
X131818838Y-59638211D01*
X131756054Y-59403900D01*
X131663224Y-59179788D01*
X131541936Y-58969711D01*
X131454127Y-58855276D01*
X131394266Y-58777263D01*
X131394260Y-58777256D01*
X131222743Y-58605739D01*
X131222736Y-58605733D01*
X131030293Y-58458067D01*
X131030292Y-58458066D01*
X131030289Y-58458064D01*
X130820212Y-58336776D01*
X130743894Y-58305164D01*
X130596104Y-58243947D01*
X130361785Y-58181161D01*
X130121289Y-58149500D01*
X130121288Y-58149500D01*
X129878712Y-58149500D01*
X129878711Y-58149500D01*
X129638214Y-58181161D01*
X129403895Y-58243947D01*
X129179794Y-58336773D01*
X129179785Y-58336777D01*
X128969706Y-58458067D01*
X128777263Y-58605733D01*
X128777256Y-58605739D01*
X128605739Y-58777256D01*
X128605733Y-58777263D01*
X128458067Y-58969706D01*
X128336777Y-59179785D01*
X128336773Y-59179794D01*
X128243947Y-59403895D01*
X128181161Y-59638214D01*
X128149500Y-59878711D01*
X128149500Y-60121288D01*
X90663000Y-60121288D01*
X90662999Y-58740936D01*
X90662875Y-58739869D01*
X90660086Y-58715812D01*
X90660085Y-58715810D01*
X90660085Y-58715809D01*
X90614706Y-58613035D01*
X90535265Y-58533594D01*
X90514624Y-58524480D01*
X90432492Y-58488215D01*
X90407365Y-58485300D01*
X88617643Y-58485300D01*
X88617617Y-58485302D01*
X88592512Y-58488213D01*
X88592508Y-58488215D01*
X88489735Y-58533593D01*
X88410294Y-58613034D01*
X88364915Y-58715806D01*
X88364915Y-58715808D01*
X88362000Y-58740931D01*
X88362000Y-59479751D01*
X88342315Y-59546790D01*
X88289511Y-59592545D01*
X88220353Y-59602489D01*
X88156797Y-59573464D01*
X88119023Y-59514686D01*
X88114529Y-59491191D01*
X88108256Y-59423489D01*
X88081312Y-59328793D01*
X88049905Y-59218411D01*
X88049903Y-59218406D01*
X88049903Y-59218405D01*
X87954867Y-59027546D01*
X87826372Y-58857393D01*
X87824050Y-58855276D01*
X87668802Y-58713748D01*
X87487519Y-58601502D01*
X87487517Y-58601501D01*
X87352640Y-58549250D01*
X87288698Y-58524479D01*
X87079110Y-58485300D01*
X86865890Y-58485300D01*
X86656302Y-58524479D01*
X86656299Y-58524479D01*
X86656299Y-58524480D01*
X86457482Y-58601501D01*
X86457480Y-58601502D01*
X86276199Y-58713747D01*
X86118627Y-58857393D01*
X85990134Y-59027544D01*
X85923176Y-59162015D01*
X85875673Y-59213252D01*
X85808010Y-59230673D01*
X85741670Y-59208747D01*
X85699794Y-59159148D01*
X85606100Y-58958222D01*
X85606099Y-58958220D01*
X85470613Y-58764726D01*
X85470608Y-58764720D01*
X85303582Y-58597694D01*
X85110078Y-58462199D01*
X84895992Y-58362370D01*
X84895986Y-58362367D01*
X84682500Y-58305164D01*
X84682500Y-59202788D01*
X84625493Y-59169875D01*
X84498326Y-59135800D01*
X84366674Y-59135800D01*
X84239507Y-59169875D01*
X84182500Y-59202788D01*
X84182500Y-58305164D01*
X84182499Y-58305164D01*
X83969013Y-58362367D01*
X83969007Y-58362370D01*
X83754922Y-58462199D01*
X83754920Y-58462200D01*
X83561426Y-58597686D01*
X83561420Y-58597691D01*
X83394391Y-58764720D01*
X83394386Y-58764726D01*
X83258900Y-58958220D01*
X83258899Y-58958222D01*
X83165205Y-59159148D01*
X83119032Y-59211587D01*
X83051839Y-59230739D01*
X82984957Y-59210523D01*
X82941823Y-59162015D01*
X82874866Y-59027545D01*
X82831191Y-58969711D01*
X82746372Y-58857393D01*
X82744050Y-58855276D01*
X82588802Y-58713748D01*
X82407519Y-58601502D01*
X82407517Y-58601501D01*
X82272640Y-58549250D01*
X82208698Y-58524479D01*
X81999110Y-58485300D01*
X81785890Y-58485300D01*
X81576302Y-58524479D01*
X81576299Y-58524479D01*
X81576299Y-58524480D01*
X81377482Y-58601501D01*
X81377480Y-58601502D01*
X81196196Y-58713749D01*
X81152427Y-58753650D01*
X81089623Y-58784267D01*
X81020236Y-58776069D01*
X80981208Y-58749694D01*
X80209416Y-57977902D01*
X80209414Y-57977900D01*
X80152350Y-57944954D01*
X80095287Y-57912008D01*
X80031639Y-57894954D01*
X79967992Y-57877900D01*
X78901492Y-57877900D01*
X78769707Y-57877900D01*
X78643151Y-57911810D01*
X78642415Y-57912007D01*
X78642413Y-57912008D01*
X78528289Y-57977898D01*
X78528283Y-57977902D01*
X78435098Y-58071088D01*
X77757745Y-58748440D01*
X77740897Y-58765288D01*
X77679574Y-58798773D01*
X77609882Y-58793789D01*
X77569679Y-58769245D01*
X77508802Y-58713748D01*
X77327519Y-58601502D01*
X77327517Y-58601501D01*
X77192640Y-58549250D01*
X77128698Y-58524479D01*
X76919110Y-58485300D01*
X76705890Y-58485300D01*
X76496302Y-58524479D01*
X76496299Y-58524479D01*
X76496299Y-58524480D01*
X76297482Y-58601501D01*
X76297480Y-58601502D01*
X76116199Y-58713747D01*
X76116198Y-58713748D01*
X76091886Y-58735912D01*
X76087545Y-58739869D01*
X76024741Y-58770485D01*
X75955353Y-58762287D01*
X75916326Y-58735912D01*
X75158116Y-57977702D01*
X75158114Y-57977700D01*
X75101050Y-57944754D01*
X75043987Y-57911808D01*
X74980339Y-57894754D01*
X74916692Y-57877700D01*
X73778193Y-57877700D01*
X73646408Y-57877700D01*
X73519112Y-57911808D01*
X73404986Y-57977700D01*
X73404983Y-57977702D01*
X73045913Y-58336773D01*
X72695186Y-58687500D01*
X72668939Y-58713747D01*
X72638140Y-58744545D01*
X72576816Y-58778029D01*
X72507124Y-58773043D01*
X72466923Y-58748500D01*
X72428802Y-58713748D01*
X72247519Y-58601502D01*
X72247517Y-58601501D01*
X72112640Y-58549250D01*
X72048698Y-58524479D01*
X71839110Y-58485300D01*
X71625890Y-58485300D01*
X71416302Y-58524479D01*
X71416299Y-58524479D01*
X71416299Y-58524480D01*
X71217482Y-58601501D01*
X71217480Y-58601502D01*
X71036199Y-58713747D01*
X70878627Y-58857393D01*
X70750132Y-59027546D01*
X70655096Y-59218405D01*
X70655096Y-59218407D01*
X70596744Y-59423489D01*
X70583171Y-59569974D01*
X70577071Y-59635800D01*
X70596744Y-59848110D01*
X70650175Y-60035899D01*
X70655096Y-60053192D01*
X70655096Y-60053194D01*
X70750132Y-60244053D01*
X70839040Y-60361785D01*
X70878628Y-60414207D01*
X71036198Y-60557852D01*
X71217481Y-60670098D01*
X71416302Y-60747121D01*
X71625890Y-60786300D01*
X71625892Y-60786300D01*
X71839108Y-60786300D01*
X71839110Y-60786300D01*
X72048698Y-60747121D01*
X72128822Y-60716080D01*
X72198444Y-60710218D01*
X72260185Y-60742927D01*
X72294440Y-60803823D01*
X72290335Y-60873572D01*
X72261297Y-60919388D01*
X66976586Y-66204100D01*
X66883402Y-66297283D01*
X66883400Y-66297286D01*
X66817508Y-66411412D01*
X66783400Y-66538708D01*
X66783400Y-79847291D01*
X53500500Y-79847291D01*
X53500500Y-74768788D01*
X60299500Y-74768788D01*
X60331161Y-75009285D01*
X60393947Y-75243604D01*
X60486773Y-75467705D01*
X60486776Y-75467712D01*
X60608064Y-75677789D01*
X60608066Y-75677792D01*
X60608067Y-75677793D01*
X60755733Y-75870236D01*
X60755739Y-75870243D01*
X60927256Y-76041760D01*
X60927262Y-76041765D01*
X61119711Y-76189436D01*
X61329788Y-76310724D01*
X61553900Y-76403554D01*
X61788211Y-76466338D01*
X61968586Y-76490084D01*
X62028711Y-76498000D01*
X62028712Y-76498000D01*
X62271289Y-76498000D01*
X62319388Y-76491667D01*
X62511789Y-76466338D01*
X62746100Y-76403554D01*
X62970212Y-76310724D01*
X63180289Y-76189436D01*
X63372738Y-76041765D01*
X63544265Y-75870238D01*
X63691936Y-75677789D01*
X63813224Y-75467712D01*
X63906054Y-75243600D01*
X63968838Y-75009289D01*
X64000500Y-74768788D01*
X64000500Y-74526212D01*
X63968838Y-74285711D01*
X63906054Y-74051400D01*
X63813224Y-73827288D01*
X63691936Y-73617211D01*
X63544265Y-73424762D01*
X63544260Y-73424756D01*
X63372743Y-73253239D01*
X63372736Y-73253233D01*
X63180293Y-73105567D01*
X63180292Y-73105566D01*
X63180289Y-73105564D01*
X62984134Y-72992314D01*
X62970214Y-72984277D01*
X62970205Y-72984273D01*
X62746104Y-72891447D01*
X62511785Y-72828661D01*
X62271289Y-72797000D01*
X62271288Y-72797000D01*
X62028712Y-72797000D01*
X62028711Y-72797000D01*
X61788214Y-72828661D01*
X61553895Y-72891447D01*
X61329794Y-72984273D01*
X61329785Y-72984277D01*
X61119706Y-73105567D01*
X60927263Y-73253233D01*
X60927256Y-73253239D01*
X60755739Y-73424756D01*
X60755733Y-73424763D01*
X60608067Y-73617206D01*
X60486777Y-73827285D01*
X60486773Y-73827294D01*
X60393947Y-74051395D01*
X60331161Y-74285714D01*
X60299500Y-74526211D01*
X60299500Y-74768788D01*
X53500500Y-74768788D01*
X53500500Y-60121288D01*
X58149500Y-60121288D01*
X58174788Y-60313378D01*
X58181162Y-60361789D01*
X58212554Y-60478944D01*
X58243947Y-60596104D01*
X58336773Y-60820205D01*
X58336776Y-60820212D01*
X58458064Y-61030289D01*
X58458066Y-61030292D01*
X58458067Y-61030293D01*
X58605733Y-61222736D01*
X58605739Y-61222743D01*
X58777256Y-61394260D01*
X58777262Y-61394265D01*
X58969711Y-61541936D01*
X59179788Y-61663224D01*
X59403900Y-61756054D01*
X59638211Y-61818838D01*
X59818586Y-61842584D01*
X59878711Y-61850500D01*
X59878712Y-61850500D01*
X60121289Y-61850500D01*
X60169388Y-61844167D01*
X60361789Y-61818838D01*
X60596100Y-61756054D01*
X60820212Y-61663224D01*
X61030289Y-61541936D01*
X61222738Y-61394265D01*
X61394265Y-61222738D01*
X61541936Y-61030289D01*
X61663224Y-60820212D01*
X61756054Y-60596100D01*
X61818838Y-60361789D01*
X61850500Y-60121288D01*
X61850500Y-59878712D01*
X61818838Y-59638211D01*
X61756054Y-59403900D01*
X61663224Y-59179788D01*
X61541936Y-58969711D01*
X61454127Y-58855276D01*
X61394266Y-58777263D01*
X61394260Y-58777256D01*
X61222743Y-58605739D01*
X61222736Y-58605733D01*
X61030293Y-58458067D01*
X61030292Y-58458066D01*
X61030289Y-58458064D01*
X60820212Y-58336776D01*
X60743894Y-58305164D01*
X60596104Y-58243947D01*
X60361785Y-58181161D01*
X60121289Y-58149500D01*
X60121288Y-58149500D01*
X59878712Y-58149500D01*
X59878711Y-58149500D01*
X59638214Y-58181161D01*
X59403895Y-58243947D01*
X59179794Y-58336773D01*
X59179785Y-58336777D01*
X58969706Y-58458067D01*
X58777263Y-58605733D01*
X58777256Y-58605739D01*
X58605739Y-58777256D01*
X58605733Y-58777263D01*
X58458067Y-58969706D01*
X58336777Y-59179785D01*
X58336773Y-59179794D01*
X58243947Y-59403895D01*
X58181161Y-59638214D01*
X58149500Y-59878711D01*
X58149500Y-60121288D01*
X53500500Y-60121288D01*
X53500500Y-60002311D01*
X53500587Y-59997675D01*
X53502640Y-59942807D01*
X53518500Y-59518915D01*
X53519191Y-59509695D01*
X53572576Y-59035894D01*
X53573953Y-59026756D01*
X53662592Y-58558289D01*
X53664655Y-58549250D01*
X53681790Y-58485301D01*
X53788058Y-58088704D01*
X53790782Y-58079874D01*
X53948258Y-57629832D01*
X53951633Y-57621230D01*
X54142304Y-57184209D01*
X54146326Y-57175861D01*
X54369099Y-56754352D01*
X54373732Y-56746328D01*
X54627399Y-56342618D01*
X54632610Y-56334975D01*
X54915742Y-55951345D01*
X54921508Y-55944116D01*
X55232511Y-55582724D01*
X55238805Y-55575940D01*
X55575940Y-55238805D01*
X55582724Y-55232511D01*
X55944116Y-54921508D01*
X55951345Y-54915742D01*
X56334975Y-54632610D01*
X56342618Y-54627399D01*
X56746334Y-54373728D01*
X56754352Y-54369099D01*
X57175866Y-54146323D01*
X57184209Y-54142304D01*
X57621230Y-53951633D01*
X57629832Y-53948258D01*
X58079874Y-53790782D01*
X58088704Y-53788058D01*
X58549251Y-53664654D01*
X58558291Y-53662592D01*
X59026756Y-53573953D01*
X59035894Y-53572576D01*
X59509695Y-53519191D01*
X59518915Y-53518500D01*
X59960526Y-53501977D01*
X59997676Y-53500587D01*
X60002312Y-53500500D01*
X60065892Y-53500500D01*
X129934108Y-53500500D01*
X129997688Y-53500500D01*
X130002324Y-53500587D01*
G37*
%TD.AperFunction*%
%TD*%
M02*
