%TF.GenerationSoftware,KiCad,Pcbnew,8.0.1*%
%TF.CreationDate,2024-07-29T09:45:32+02:00*%
%TF.ProjectId,Head Unit,48656164-2055-46e6-9974-2e6b69636164,rev?*%
%TF.SameCoordinates,Original*%
%TF.FileFunction,Copper,L2,Bot*%
%TF.FilePolarity,Positive*%
%FSLAX46Y46*%
G04 Gerber Fmt 4.6, Leading zero omitted, Abs format (unit mm)*
G04 Created by KiCad (PCBNEW 8.0.1) date 2024-07-29 09:45:32*
%MOMM*%
%LPD*%
G01*
G04 APERTURE LIST*
%TA.AperFunction,ComponentPad*%
%ADD10R,1.700000X1.700000*%
%TD*%
%TA.AperFunction,ComponentPad*%
%ADD11O,1.700000X1.700000*%
%TD*%
%TA.AperFunction,ComponentPad*%
%ADD12C,1.524000*%
%TD*%
%TA.AperFunction,ComponentPad*%
%ADD13R,1.500000X1.500000*%
%TD*%
%TA.AperFunction,ComponentPad*%
%ADD14C,1.500000*%
%TD*%
%TA.AperFunction,ComponentPad*%
%ADD15C,1.200000*%
%TD*%
%TA.AperFunction,ComponentPad*%
%ADD16R,1.200000X2.000000*%
%TD*%
%TA.AperFunction,ComponentPad*%
%ADD17O,1.200000X2.000000*%
%TD*%
%TA.AperFunction,Conductor*%
%ADD18C,1.000000*%
%TD*%
G04 APERTURE END LIST*
D10*
%TO.P,J10,1,Pin_1*%
%TO.N,GND*%
X49316000Y-96180000D03*
D11*
%TO.P,J10,2,Pin_2*%
%TO.N,+3V3*%
X49316000Y-98720000D03*
%TD*%
D10*
%TO.P,J5,1,V-Out*%
%TO.N,Net-(J5-V-Out)*%
X34000000Y-75475000D03*
D11*
%TO.P,J5,2,V-IN*%
%TO.N,+5V*%
X34000000Y-78015000D03*
%TO.P,J5,3,GND*%
%TO.N,GND*%
X34000000Y-80555000D03*
%TD*%
D10*
%TO.P,J4,1,V-Out*%
%TO.N,Net-(J4-V-Out)*%
X114500000Y-83960000D03*
D11*
%TO.P,J4,2,V-IN*%
%TO.N,+5V*%
X114500000Y-86500000D03*
%TO.P,J4,3,GND*%
%TO.N,GND*%
X114500000Y-89040000D03*
%TD*%
D12*
%TO.P,J7,1,CS*%
%TO.N,SPI_CS*%
X39389600Y-61072500D03*
%TO.P,J7,2,DC*%
%TO.N,SPI_DC*%
X39389600Y-63612500D03*
%TO.P,J7,3,RES*%
%TO.N,unconnected-(J7-RES-Pad3)*%
X39389600Y-66152500D03*
%TO.P,J7,4,SDA*%
%TO.N,SPI_MOSI*%
X39389600Y-68692500D03*
%TO.P,J7,5,SCLK*%
%TO.N,SPI_CLK*%
X39389600Y-71232500D03*
%TO.P,J7,6,VDD*%
%TO.N,+5V*%
X39389600Y-73772500D03*
%TO.P,J7,7,VSS*%
%TO.N,GND*%
X39389600Y-76312500D03*
%TD*%
D10*
%TO.P,J8,1,Pin_1*%
%TO.N,GND*%
X43200000Y-96200000D03*
D11*
%TO.P,J8,2,Pin_2*%
%TO.N,+5V*%
X43200000Y-98740000D03*
%TD*%
D10*
%TO.P,J3,1,V-Out*%
%TO.N,Net-(J3-V-Out)*%
X34000000Y-55460000D03*
D11*
%TO.P,J3,2,V-IN*%
%TO.N,+5V*%
X34000000Y-58000000D03*
%TO.P,J3,3,GND*%
%TO.N,GND*%
X34000000Y-60540000D03*
%TD*%
D10*
%TO.P,J1,1,S1*%
%TO.N,Net-(J1-S1)*%
X34000000Y-65475000D03*
D11*
%TO.P,J1,2,S2*%
%TO.N,Net-(J1-S2)*%
X34000000Y-68015000D03*
%TO.P,J1,3,GND*%
%TO.N,GND*%
X34000000Y-70555000D03*
%TD*%
D10*
%TO.P,J11,1,Pin_1*%
%TO.N,GND*%
X54200000Y-96200000D03*
D11*
%TO.P,J11,2,Pin_2*%
%TO.N,+5V*%
X54200000Y-98740000D03*
%TD*%
D10*
%TO.P,J2,1,V-Out*%
%TO.N,Net-(J2-V-Out)*%
X114500000Y-55460000D03*
D11*
%TO.P,J2,2,V-In*%
%TO.N,+5V*%
X114500000Y-58000000D03*
%TO.P,J2,3,GND*%
%TO.N,GND*%
X114500000Y-60540000D03*
%TD*%
D10*
%TO.P,J13,1,Pin_1*%
%TO.N,Net-(J13-Pin_1)*%
X34000000Y-85960000D03*
D11*
%TO.P,J13,2,Pin_2*%
%TO.N,GND*%
X34000000Y-88500000D03*
%TD*%
D13*
%TO.P,J6,1,5V*%
%TO.N,+5V*%
X102100000Y-104282500D03*
D14*
%TO.P,J6,2,GND*%
%TO.N,GND*%
X104640000Y-103012500D03*
%TO.P,J6,3,ADC2*%
%TO.N,Net-(J5-V-Out)*%
X102100000Y-101742500D03*
%TO.P,J6,4,ADC1*%
%TO.N,Net-(J4-V-Out)*%
X104640000Y-100472500D03*
%TO.P,J6,5,RX|SDA*%
%TO.N,Net-(J6-RX|SDA)*%
X102100000Y-99202500D03*
%TO.P,J6,6,TX|SCL*%
%TO.N,Net-(J6-TX|SCL)*%
X104640000Y-97932500D03*
%TO.P,J6,7,Bremse*%
%TO.N,Bremse*%
X102100000Y-96662500D03*
%TO.P,J6,8,Hupe*%
%TO.N,Hupe*%
X104640000Y-95392500D03*
%TD*%
D15*
%TO.P,C1,1*%
%TO.N,+3V3*%
X48500000Y-53000000D03*
%TO.P,C1,2*%
%TO.N,GND*%
X48500000Y-55000000D03*
%TD*%
D16*
%TO.P,U1,1,3V3*%
%TO.N,+3V3*%
X53980000Y-52500000D03*
X53980000Y-56000000D03*
D17*
%TO.P,U1,2,CHIP_PU*%
%TO.N,Net-(J13-Pin_1)*%
X56520000Y-52500000D03*
X56520000Y-56000000D03*
%TO.P,U1,3,SENSOR_VP/GPIO36/ADC1_CH0*%
%TO.N,unconnected-(U1-SENSOR_VP{slash}GPIO36{slash}ADC1_CH0-Pad3)*%
X59060000Y-52500000D03*
X59060000Y-56000000D03*
%TO.P,U1,4,SENSOR_VN/GPIO39/ADC1_CH3*%
%TO.N,unconnected-(U1-SENSOR_VN{slash}GPIO39{slash}ADC1_CH3-Pad4)*%
X61600000Y-52500000D03*
X61600000Y-56000000D03*
%TO.P,U1,5,VDET_1/GPIO34/ADC1_CH6*%
%TO.N,Net-(J2-V-Out)*%
X64140000Y-52500000D03*
X64140000Y-56000000D03*
%TO.P,U1,6,VDET_2/GPIO35/ADC1_CH7*%
%TO.N,Net-(J3-V-Out)*%
X66680000Y-52500000D03*
X66680000Y-56000000D03*
%TO.P,U1,7,32K_XP/GPIO32/ADC1_CH4*%
%TO.N,unconnected-(U1-32K_XP{slash}GPIO32{slash}ADC1_CH4-Pad7)*%
X69220000Y-52500000D03*
X69220000Y-56000000D03*
%TO.P,U1,8,32K_XN/GPIO33/ADC1_CH5*%
%TO.N,SPI_DC*%
X71760000Y-52500000D03*
X71760000Y-56000000D03*
%TO.P,U1,9,DAC_1/ADC2_CH8/GPIO25*%
%TO.N,unconnected-(U1-DAC_1{slash}ADC2_CH8{slash}GPIO25-Pad9)*%
X74300000Y-52500000D03*
X74300000Y-56000000D03*
%TO.P,U1,10,DAC_2/ADC2_CH9/GPIO26*%
%TO.N,Hupe*%
X76840000Y-52500000D03*
X76840000Y-56000000D03*
%TO.P,U1,11,ADC2_CH7/GPIO27*%
%TO.N,Bremse*%
X79380000Y-52500000D03*
X79380000Y-56000000D03*
%TO.P,U1,12,MTMS/GPIO14/ADC2_CH6*%
%TO.N,unconnected-(U1-MTMS{slash}GPIO14{slash}ADC2_CH6-Pad12)*%
X81920000Y-52500000D03*
X81920000Y-56000000D03*
%TO.P,U1,13,MTDI/GPIO12/ADC2_CH5*%
%TO.N,Net-(U1-MTDI{slash}GPIO12{slash}ADC2_CH5)*%
X84460000Y-52500000D03*
X84460000Y-56000000D03*
%TO.P,U1,14,GND*%
%TO.N,GND*%
X87000000Y-52500000D03*
X87000000Y-56000000D03*
%TO.P,U1,15,MTCK/GPIO13/ADC2_CH4*%
%TO.N,unconnected-(U1-MTCK{slash}GPIO13{slash}ADC2_CH4-Pad15)*%
X89540000Y-52500000D03*
X89540000Y-56000000D03*
%TO.P,U1,16,SD_DATA2/GPIO9*%
%TO.N,unconnected-(U1-SD_DATA2{slash}GPIO9-Pad16)*%
X92080000Y-52500000D03*
X92080000Y-56000000D03*
%TO.P,U1,17,SD_DATA3/GPIO10*%
%TO.N,unconnected-(U1-SD_DATA3{slash}GPIO10-Pad17)*%
X94620000Y-52500000D03*
X94620000Y-56000000D03*
%TO.P,U1,18,CMD*%
%TO.N,unconnected-(U1-CMD-Pad18)*%
X97160000Y-52500000D03*
X97160000Y-56000000D03*
%TO.P,U1,19,5V*%
%TO.N,+5V*%
X99700000Y-52500000D03*
X99700000Y-56000000D03*
%TO.P,U1,20,SD_CLK/GPIO6*%
%TO.N,unconnected-(U1-SD_CLK{slash}GPIO6-Pad20)*%
X99697280Y-78856320D03*
X99697280Y-81396320D03*
X99697280Y-84896320D03*
%TO.P,U1,21,SD_DATA0/GPIO7*%
%TO.N,unconnected-(U1-SD_DATA0{slash}GPIO7-Pad21)*%
X97157280Y-78856320D03*
X97157280Y-81396320D03*
X97157280Y-84896320D03*
%TO.P,U1,22,SD_DATA1/GPIO8*%
%TO.N,unconnected-(U1-SD_DATA1{slash}GPIO8-Pad22)*%
X94620000Y-78860000D03*
X94620000Y-81400000D03*
X94620000Y-84900000D03*
%TO.P,U1,23,MTDO/GPIO15/ADC2_CH3*%
%TO.N,unconnected-(U1-MTDO{slash}GPIO15{slash}ADC2_CH3-Pad23)*%
X92080000Y-78860000D03*
X92080000Y-81400000D03*
X92080000Y-84900000D03*
%TO.P,U1,24,ADC2_CH2/GPIO2*%
%TO.N,unconnected-(U1-ADC2_CH2{slash}GPIO2-Pad24)*%
X89540000Y-78860000D03*
X89540000Y-81400000D03*
X89540000Y-84900000D03*
%TO.P,U1,25,GPIO0/BOOT/ADC2_CH1*%
%TO.N,unconnected-(U1-GPIO0{slash}BOOT{slash}ADC2_CH1-Pad25)*%
X87000000Y-78860000D03*
X87000000Y-81400000D03*
X87000000Y-84900000D03*
%TO.P,U1,26,ADC2_CH0/GPIO4*%
%TO.N,unconnected-(U1-ADC2_CH0{slash}GPIO4-Pad26)*%
X84460000Y-78860000D03*
X84460000Y-81400000D03*
X84460000Y-84900000D03*
%TO.P,U1,27,GPIO16*%
%TO.N,Net-(J6-TX|SCL)*%
X81920000Y-78860000D03*
X81920000Y-81400000D03*
X81920000Y-84900000D03*
%TO.P,U1,28,GPIO17*%
%TO.N,Net-(J6-RX|SDA)*%
X79380000Y-78860000D03*
X79380000Y-81400000D03*
X79380000Y-84900000D03*
%TO.P,U1,29,GPIO5*%
%TO.N,SPI_CS*%
X76840000Y-78860000D03*
X76840000Y-81400000D03*
X76840000Y-84900000D03*
%TO.P,U1,30,GPIO18*%
%TO.N,SPI_CLK*%
X74300000Y-78860000D03*
X74300000Y-81400000D03*
X74300000Y-84900000D03*
%TO.P,U1,31,GPIO19*%
%TO.N,SPI_MISO*%
X71760000Y-78860000D03*
X71760000Y-81400000D03*
X71760000Y-84900000D03*
%TO.P,U1,32,GND*%
%TO.N,GND*%
X69220000Y-78860000D03*
X69220000Y-81400000D03*
X69220000Y-84900000D03*
%TO.P,U1,33,GPIO21*%
%TO.N,Net-(J1-S1)*%
X66680000Y-78860000D03*
X66680000Y-81400000D03*
X66680000Y-84900000D03*
%TO.P,U1,34,U0RXD/GPIO3*%
%TO.N,unconnected-(U1-U0RXD{slash}GPIO3-Pad34)*%
X64140000Y-78860000D03*
X64140000Y-81400000D03*
X64140000Y-84900000D03*
%TO.P,U1,35,U0TXD/GPIO1*%
%TO.N,unconnected-(U1-U0TXD{slash}GPIO1-Pad35)*%
X61600000Y-78860000D03*
X61600000Y-81400000D03*
X61600000Y-84900000D03*
%TO.P,U1,36,GPIO22*%
%TO.N,Net-(J1-S2)*%
X59060000Y-78860000D03*
X59060000Y-81400000D03*
X59060000Y-84900000D03*
%TO.P,U1,37,GPIO23*%
%TO.N,SPI_MOSI*%
X56520000Y-78860000D03*
X56520000Y-81400000D03*
X56520000Y-84900000D03*
%TO.P,U1,38,GND*%
%TO.N,GND*%
X53980000Y-78860000D03*
X53980000Y-81400000D03*
X53980000Y-84900000D03*
%TD*%
D18*
%TO.N,Net-(J1-S2)*%
X59060000Y-76860000D02*
X42778000Y-76860000D01*
X36506500Y-75644200D02*
X36506500Y-70521500D01*
X59060000Y-84900000D02*
X59060000Y-81400000D01*
X36506500Y-70521500D02*
X34000000Y-68015000D01*
X59060000Y-78860000D02*
X59060000Y-76860000D01*
X41754000Y-77884000D02*
X38746300Y-77884000D01*
X38746300Y-77884000D02*
X36506500Y-75644200D01*
X59060000Y-81400000D02*
X59060000Y-78860000D01*
X42778000Y-76860000D02*
X41754000Y-77884000D01*
%TO.N,SPI_MOSI*%
X56520000Y-81400000D02*
X56520000Y-78860000D01*
%TO.N,SPI_CS*%
X76840000Y-84900000D02*
X76840000Y-81400000D01*
X76840000Y-81400000D02*
X76840000Y-78860000D01*
%TO.N,Net-(J3-V-Out)*%
X66680000Y-56000000D02*
X66680000Y-58000000D01*
X66680000Y-52500000D02*
X66680000Y-56000000D01*
X38390000Y-58000000D02*
X35850000Y-55460000D01*
X34000000Y-55460000D02*
X35850000Y-55460000D01*
X66680000Y-58000000D02*
X38390000Y-58000000D01*
%TO.N,Net-(J2-V-Out)*%
X64140000Y-56000000D02*
X64140000Y-52500000D01*
%TO.N,Net-(J1-S1)*%
X38120500Y-59504500D02*
X34000000Y-63625000D01*
X66680000Y-84900000D02*
X66680000Y-81400000D01*
X66680000Y-78860000D02*
X66680000Y-76860000D01*
X66680000Y-76860000D02*
X49324500Y-59504500D01*
X34000000Y-65475000D02*
X34000000Y-63625000D01*
X66680000Y-81400000D02*
X66680000Y-78860000D01*
X49324500Y-59504500D02*
X38120500Y-59504500D01*
%TO.N,+5V*%
X56050000Y-98740000D02*
X59842500Y-102532500D01*
X114500000Y-86500000D02*
X116350000Y-86500000D01*
X99700000Y-56000000D02*
X99700000Y-52500000D01*
X116350000Y-59850000D02*
X116350000Y-86500000D01*
X112712500Y-88287500D02*
X114500000Y-86500000D01*
X102100000Y-104282500D02*
X100350000Y-104282500D01*
X102100000Y-104282500D02*
X102392500Y-104575000D01*
X105352600Y-104575000D02*
X112712500Y-97215100D01*
X112712500Y-97215100D02*
X112712500Y-88287500D01*
X114500000Y-58000000D02*
X116350000Y-59850000D01*
X98600000Y-102532500D02*
X100350000Y-104282500D01*
X59842500Y-102532500D02*
X98600000Y-102532500D01*
X54200000Y-98740000D02*
X56050000Y-98740000D01*
X102392500Y-104575000D02*
X105352600Y-104575000D01*
%TO.N,Net-(J6-RX|SDA)*%
X79380000Y-84900000D02*
X79380000Y-86900000D01*
X79380000Y-81400000D02*
X79380000Y-84900000D01*
X91682500Y-99202500D02*
X79380000Y-86900000D01*
X102100000Y-99202500D02*
X91682500Y-99202500D01*
X79380000Y-81400000D02*
X79380000Y-78860000D01*
%TO.N,Net-(J4-V-Out)*%
X111410800Y-87049200D02*
X111410800Y-93701700D01*
X114500000Y-83960000D02*
X111410800Y-87049200D01*
X111410800Y-93701700D02*
X104640000Y-100472500D01*
%TO.N,SPI_CLK*%
X74300000Y-84900000D02*
X74300000Y-81400000D01*
X74300000Y-81400000D02*
X74300000Y-78860000D01*
%TO.N,Hupe*%
X76840000Y-50500000D02*
X100135700Y-50500000D01*
X103650200Y-94402700D02*
X104640000Y-95392500D01*
X76840000Y-52500000D02*
X76840000Y-50500000D01*
X76840000Y-56000000D02*
X76840000Y-52500000D01*
X103650200Y-54014500D02*
X103650200Y-94402700D01*
X100135700Y-50500000D02*
X103650200Y-54014500D01*
%TO.N,unconnected-(U1-MTCK{slash}GPIO13{slash}ADC2_CH4-Pad15)*%
X89540000Y-56000000D02*
X89540000Y-52500000D01*
%TO.N,SPI_DC*%
X71760000Y-56000000D02*
X71760000Y-52500000D01*
%TO.N,Bremse*%
X79380000Y-56000000D02*
X79380000Y-58000000D01*
X81255000Y-58000000D02*
X102100000Y-78845000D01*
X79380000Y-52500000D02*
X79380000Y-56000000D01*
X102100000Y-78845000D02*
X102100000Y-96662500D01*
X79380000Y-58000000D02*
X81255000Y-58000000D01*
%TO.N,unconnected-(U1-SENSOR_VP{slash}GPIO36{slash}ADC1_CH0-Pad3)*%
X59060000Y-56000000D02*
X59060000Y-52500000D01*
%TO.N,unconnected-(U1-32K_XP{slash}GPIO32{slash}ADC1_CH4-Pad7)*%
X69220000Y-56000000D02*
X69220000Y-52500000D01*
%TO.N,unconnected-(U1-CMD-Pad18)*%
X97160000Y-56000000D02*
X97160000Y-52500000D01*
%TO.N,unconnected-(U1-ADC2_CH0{slash}GPIO4-Pad26)*%
X84460000Y-84900000D02*
X84460000Y-81400000D01*
X84460000Y-81400000D02*
X84460000Y-78860000D01*
%TO.N,unconnected-(U1-SENSOR_VN{slash}GPIO39{slash}ADC1_CH3-Pad4)*%
X61600000Y-56000000D02*
X61600000Y-52500000D01*
%TO.N,unconnected-(U1-ADC2_CH2{slash}GPIO2-Pad24)*%
X89540000Y-84900000D02*
X89540000Y-81400000D01*
X89540000Y-81400000D02*
X89540000Y-78860000D01*
%TO.N,Net-(U1-MTDI{slash}GPIO12{slash}ADC2_CH5)*%
X84460000Y-56000000D02*
X84460000Y-52500000D01*
%TO.N,+3V3*%
X34662400Y-83623400D02*
X32332800Y-81293800D01*
X38059800Y-83623400D02*
X34662400Y-83623400D01*
X33622900Y-53000000D02*
X48500000Y-53000000D01*
X32332800Y-81293800D02*
X32332800Y-54290100D01*
X32332800Y-54290100D02*
X33622900Y-53000000D01*
X49316000Y-98720000D02*
X47466000Y-98720000D01*
X47466000Y-93029600D02*
X38059800Y-83623400D01*
X47466000Y-98720000D02*
X47466000Y-93029600D01*
%TO.N,unconnected-(U1-GPIO0{slash}BOOT{slash}ADC2_CH1-Pad25)*%
X87000000Y-81400000D02*
X87000000Y-78860000D01*
X87000000Y-84900000D02*
X87000000Y-81400000D01*
%TO.N,unconnected-(U1-SD_DATA1{slash}GPIO8-Pad22)*%
X94620000Y-84900000D02*
X94620000Y-81400000D01*
X94620000Y-81400000D02*
X94620000Y-78860000D01*
%TO.N,Net-(J6-TX|SCL)*%
X81920000Y-84900000D02*
X81920000Y-81400000D01*
X81920000Y-81400000D02*
X81920000Y-78860000D01*
%TO.N,unconnected-(U1-SD_DATA3{slash}GPIO10-Pad17)*%
X94620000Y-56000000D02*
X94620000Y-52500000D01*
%TO.N,unconnected-(U1-U0TXD{slash}GPIO1-Pad35)*%
X61600000Y-84900000D02*
X61600000Y-81400000D01*
X61600000Y-81400000D02*
X61600000Y-78860000D01*
%TO.N,unconnected-(U1-SD_DATA0{slash}GPIO7-Pad21)*%
X97157300Y-84896300D02*
X97157300Y-81396300D01*
X97157300Y-81396300D02*
X97157300Y-78856300D01*
%TO.N,unconnected-(U1-U0RXD{slash}GPIO3-Pad34)*%
X64140000Y-84900000D02*
X64140000Y-81400000D01*
X64140000Y-81400000D02*
X64140000Y-78860000D01*
%TO.N,unconnected-(U1-SD_CLK{slash}GPIO6-Pad20)*%
X99697300Y-84896300D02*
X99697300Y-81396300D01*
X99697300Y-81396300D02*
X99697300Y-78856300D01*
%TO.N,Net-(J13-Pin_1)*%
X35880100Y-48776300D02*
X35880100Y-49938500D01*
X35880100Y-49938500D02*
X34143600Y-51675000D01*
X37855300Y-46801100D02*
X35880100Y-48776300D01*
X52821100Y-46801100D02*
X37855300Y-46801100D01*
X56520000Y-52500000D02*
X56520000Y-50500000D01*
X56520000Y-50500000D02*
X52821100Y-46801100D01*
X56520000Y-56000000D02*
X56520000Y-52500000D01*
X34143600Y-51675000D02*
X33082600Y-51675000D01*
X30993700Y-82953700D02*
X34000000Y-85960000D01*
X33082600Y-51675000D02*
X30993700Y-53763900D01*
X30993700Y-53763900D02*
X30993700Y-82953700D01*
%TO.N,unconnected-(U1-SD_DATA2{slash}GPIO9-Pad16)*%
X92080000Y-56000000D02*
X92080000Y-52500000D01*
%TO.N,unconnected-(U1-MTMS{slash}GPIO14{slash}ADC2_CH6-Pad12)*%
X81920000Y-56000000D02*
X81920000Y-52500000D01*
%TO.N,SPI_MISO*%
X71760000Y-81400000D02*
X71760000Y-78860000D01*
X71760000Y-84900000D02*
X71760000Y-81400000D01*
%TO.N,unconnected-(U1-DAC_1{slash}ADC2_CH8{slash}GPIO25-Pad9)*%
X74300000Y-56000000D02*
X74300000Y-52500000D01*
%TO.N,unconnected-(U1-MTDO{slash}GPIO15{slash}ADC2_CH3-Pad23)*%
X92080000Y-81400000D02*
X92080000Y-78860000D01*
X92080000Y-84900000D02*
X92080000Y-81400000D01*
%TD*%
%TA.AperFunction,Conductor*%
%TO.N,GND*%
G36*
X54230000Y-81084314D02*
G01*
X54225606Y-81079920D01*
X54134394Y-81027259D01*
X54032661Y-81000000D01*
X53927339Y-81000000D01*
X53825606Y-81027259D01*
X53734394Y-81079920D01*
X53730000Y-81084314D01*
X53730000Y-79175686D01*
X53734394Y-79180080D01*
X53825606Y-79232741D01*
X53927339Y-79260000D01*
X54032661Y-79260000D01*
X54134394Y-79232741D01*
X54225606Y-79180080D01*
X54230000Y-79175686D01*
X54230000Y-81084314D01*
G37*
%TD.AperFunction*%
%TA.AperFunction,Conductor*%
G36*
X34250000Y-61870633D02*
G01*
X34311548Y-61854143D01*
X34381398Y-61855806D01*
X34439260Y-61894969D01*
X34466764Y-61959197D01*
X34455177Y-62028099D01*
X34431322Y-62061599D01*
X33948063Y-62544859D01*
X33489711Y-63003211D01*
X33433961Y-63058961D01*
X33378211Y-63114710D01*
X33360402Y-63141364D01*
X33306789Y-63186168D01*
X33237464Y-63194875D01*
X33174437Y-63164720D01*
X33137718Y-63105277D01*
X33133300Y-63072472D01*
X33133300Y-61819185D01*
X33152985Y-61752146D01*
X33205789Y-61706391D01*
X33274947Y-61696447D01*
X33319305Y-61711801D01*
X33322420Y-61713599D01*
X33536507Y-61813429D01*
X33536516Y-61813433D01*
X33750000Y-61870634D01*
X33750000Y-60973012D01*
X33807007Y-61005925D01*
X33934174Y-61040000D01*
X34065826Y-61040000D01*
X34192993Y-61005925D01*
X34250000Y-60973012D01*
X34250000Y-61870633D01*
G37*
%TD.AperFunction*%
%TA.AperFunction,Conductor*%
G36*
X35534099Y-56280185D02*
G01*
X35554741Y-56296819D01*
X37768211Y-58510289D01*
X37830507Y-58572585D01*
X37863991Y-58633909D01*
X37859006Y-58703600D01*
X37817135Y-58759534D01*
X37790278Y-58774827D01*
X37741324Y-58795104D01*
X37741314Y-58795109D01*
X37610211Y-58882710D01*
X37610207Y-58882713D01*
X35521600Y-60971320D01*
X35460277Y-61004805D01*
X35390585Y-60999821D01*
X35334652Y-60957949D01*
X35310235Y-60892485D01*
X35314144Y-60851544D01*
X35330635Y-60790000D01*
X34433012Y-60790000D01*
X34465925Y-60732993D01*
X34500000Y-60605826D01*
X34500000Y-60474174D01*
X34465925Y-60347007D01*
X34433012Y-60290000D01*
X35330636Y-60290000D01*
X35330635Y-60289999D01*
X35273432Y-60076513D01*
X35273429Y-60076507D01*
X35173600Y-59862422D01*
X35173599Y-59862420D01*
X35038113Y-59668926D01*
X35038108Y-59668920D01*
X34871082Y-59501894D01*
X34677578Y-59366399D01*
X34478426Y-59273533D01*
X34425987Y-59227360D01*
X34406835Y-59160167D01*
X34427051Y-59093286D01*
X34480216Y-59047951D01*
X34486005Y-59045537D01*
X34515019Y-59034298D01*
X34696302Y-58922052D01*
X34853872Y-58778407D01*
X34982366Y-58608255D01*
X35000127Y-58572585D01*
X35077403Y-58417394D01*
X35077403Y-58417393D01*
X35077405Y-58417389D01*
X35135756Y-58212310D01*
X35155429Y-58000000D01*
X35135756Y-57787690D01*
X35077405Y-57582611D01*
X35077403Y-57582606D01*
X35077403Y-57582605D01*
X34982367Y-57391746D01*
X34853872Y-57221593D01*
X34808044Y-57179815D01*
X34696302Y-57077948D01*
X34515019Y-56965702D01*
X34515017Y-56965701D01*
X34415608Y-56927190D01*
X34316198Y-56888679D01*
X34143453Y-56856387D01*
X34081174Y-56824720D01*
X34045901Y-56764407D01*
X34048835Y-56694599D01*
X34089044Y-56637459D01*
X34153762Y-56611128D01*
X34166240Y-56610499D01*
X34894856Y-56610499D01*
X34894864Y-56610499D01*
X34894879Y-56610497D01*
X34894882Y-56610497D01*
X34919987Y-56607586D01*
X34919988Y-56607585D01*
X34919991Y-56607585D01*
X35022765Y-56562206D01*
X35102206Y-56482765D01*
X35147585Y-56379991D01*
X35148720Y-56370208D01*
X35176001Y-56305884D01*
X35233727Y-56266520D01*
X35271894Y-56260500D01*
X35467060Y-56260500D01*
X35534099Y-56280185D01*
G37*
%TD.AperFunction*%
%TA.AperFunction,Conductor*%
G36*
X52505199Y-47621285D02*
G01*
X52525841Y-47637919D01*
X55683181Y-50795259D01*
X55716666Y-50856582D01*
X55719500Y-50882940D01*
X55719500Y-51654793D01*
X55710061Y-51702245D01*
X55654106Y-51837332D01*
X55654103Y-51837341D01*
X55619500Y-52011304D01*
X55619500Y-52988695D01*
X55654104Y-53162658D01*
X55654107Y-53162670D01*
X55710061Y-53297755D01*
X55719500Y-53345207D01*
X55719500Y-55154793D01*
X55710061Y-55202245D01*
X55654106Y-55337332D01*
X55654103Y-55337341D01*
X55619500Y-55511304D01*
X55619500Y-56488695D01*
X55654103Y-56662658D01*
X55654106Y-56662667D01*
X55721983Y-56826540D01*
X55721990Y-56826553D01*
X55820535Y-56974034D01*
X55820538Y-56974038D01*
X55834319Y-56987819D01*
X55867804Y-57049142D01*
X55862820Y-57118834D01*
X55820948Y-57174767D01*
X55755484Y-57199184D01*
X55746638Y-57199500D01*
X55001778Y-57199500D01*
X54934739Y-57179815D01*
X54888984Y-57127011D01*
X54878604Y-57061210D01*
X54880004Y-57049142D01*
X54880500Y-57044865D01*
X54880499Y-54955136D01*
X54880497Y-54955117D01*
X54877586Y-54930012D01*
X54877585Y-54930010D01*
X54877585Y-54930009D01*
X54832206Y-54827235D01*
X54752765Y-54747794D01*
X54752763Y-54747793D01*
X54649992Y-54702415D01*
X54624865Y-54699500D01*
X53335143Y-54699500D01*
X53335117Y-54699502D01*
X53310012Y-54702413D01*
X53310008Y-54702415D01*
X53207235Y-54747793D01*
X53127794Y-54827234D01*
X53082415Y-54930006D01*
X53082415Y-54930008D01*
X53079500Y-54955131D01*
X53079500Y-57044856D01*
X53079502Y-57044877D01*
X53081397Y-57061214D01*
X53069567Y-57130075D01*
X53022387Y-57181609D01*
X52958223Y-57199500D01*
X38772940Y-57199500D01*
X38705901Y-57179815D01*
X38685259Y-57163181D01*
X37456319Y-55934240D01*
X47919311Y-55934240D01*
X48007585Y-55988897D01*
X48197678Y-56062539D01*
X48398072Y-56100000D01*
X48601928Y-56100000D01*
X48802322Y-56062539D01*
X48992412Y-55988899D01*
X48992416Y-55988897D01*
X49080686Y-55934241D01*
X49080686Y-55934240D01*
X48500001Y-55353553D01*
X48500000Y-55353553D01*
X47919311Y-55934240D01*
X37456319Y-55934240D01*
X36522079Y-55000000D01*
X47395287Y-55000000D01*
X47414096Y-55202989D01*
X47414097Y-55202992D01*
X47469883Y-55399063D01*
X47469886Y-55399069D01*
X47560751Y-55581551D01*
X47562533Y-55583911D01*
X48106950Y-55039496D01*
X48200000Y-55039496D01*
X48220444Y-55115796D01*
X48259940Y-55184205D01*
X48315795Y-55240060D01*
X48384204Y-55279556D01*
X48460504Y-55300000D01*
X48539496Y-55300000D01*
X48615796Y-55279556D01*
X48684205Y-55240060D01*
X48740060Y-55184205D01*
X48779556Y-55115796D01*
X48800000Y-55039496D01*
X48800000Y-55000000D01*
X48853553Y-55000000D01*
X49437465Y-55583912D01*
X49439247Y-55581553D01*
X49439248Y-55581551D01*
X49530113Y-55399069D01*
X49530116Y-55399063D01*
X49585902Y-55202992D01*
X49585903Y-55202989D01*
X49604713Y-55000000D01*
X49604713Y-54999999D01*
X49585903Y-54797010D01*
X49585902Y-54797007D01*
X49530116Y-54600936D01*
X49530113Y-54600930D01*
X49439249Y-54418449D01*
X49439247Y-54418447D01*
X49437465Y-54416087D01*
X48853553Y-55000000D01*
X48800000Y-55000000D01*
X48800000Y-54960504D01*
X48779556Y-54884204D01*
X48740060Y-54815795D01*
X48684205Y-54759940D01*
X48615796Y-54720444D01*
X48539496Y-54700000D01*
X48460504Y-54700000D01*
X48384204Y-54720444D01*
X48315795Y-54759940D01*
X48259940Y-54815795D01*
X48220444Y-54884204D01*
X48200000Y-54960504D01*
X48200000Y-55039496D01*
X48106950Y-55039496D01*
X48146446Y-55000000D01*
X47562533Y-54416087D01*
X47560755Y-54418442D01*
X47560754Y-54418443D01*
X47469886Y-54600930D01*
X47469883Y-54600936D01*
X47414097Y-54797007D01*
X47414096Y-54797010D01*
X47395287Y-54999999D01*
X47395287Y-55000000D01*
X36522079Y-55000000D01*
X36360292Y-54838213D01*
X36360288Y-54838210D01*
X36229185Y-54750609D01*
X36229172Y-54750602D01*
X36083501Y-54690264D01*
X36083489Y-54690261D01*
X35928845Y-54659500D01*
X35928842Y-54659500D01*
X35271893Y-54659500D01*
X35204854Y-54639815D01*
X35159099Y-54587011D01*
X35148718Y-54549783D01*
X35147585Y-54540012D01*
X35147585Y-54540009D01*
X35102206Y-54437235D01*
X35022765Y-54357794D01*
X34996231Y-54346078D01*
X34919992Y-54312415D01*
X34894868Y-54309500D01*
X34894865Y-54309500D01*
X33744839Y-54309500D01*
X33677800Y-54289815D01*
X33632045Y-54237011D01*
X33622101Y-54167853D01*
X33651126Y-54104297D01*
X33657158Y-54097819D01*
X33725051Y-54029927D01*
X33918159Y-53836819D01*
X33979482Y-53803334D01*
X34005840Y-53800500D01*
X47911904Y-53800500D01*
X47978943Y-53820185D01*
X48024698Y-53872989D01*
X48034642Y-53942147D01*
X48005617Y-54005703D01*
X47977181Y-54029927D01*
X47919312Y-54065757D01*
X47919311Y-54065758D01*
X48500000Y-54646446D01*
X48500001Y-54646446D01*
X49080687Y-54065758D01*
X48992413Y-54011101D01*
X48992408Y-54011099D01*
X48974879Y-54004308D01*
X48919478Y-53961734D01*
X48895889Y-53895967D01*
X48911601Y-53827887D01*
X48949020Y-53790101D01*
X48947473Y-53787971D01*
X49089120Y-53685058D01*
X49105871Y-53672888D01*
X49221152Y-53544856D01*
X53079500Y-53544856D01*
X53079502Y-53544882D01*
X53082413Y-53569987D01*
X53082415Y-53569991D01*
X53127793Y-53672764D01*
X53127794Y-53672765D01*
X53207235Y-53752206D01*
X53310009Y-53797585D01*
X53335135Y-53800500D01*
X54624864Y-53800499D01*
X54624879Y-53800497D01*
X54624882Y-53800497D01*
X54649987Y-53797586D01*
X54649988Y-53797585D01*
X54649991Y-53797585D01*
X54752765Y-53752206D01*
X54832206Y-53672765D01*
X54877585Y-53569991D01*
X54880500Y-53544865D01*
X54880499Y-51455136D01*
X54878993Y-51442147D01*
X54877586Y-51430012D01*
X54877585Y-51430010D01*
X54877585Y-51430009D01*
X54832206Y-51327235D01*
X54752765Y-51247794D01*
X54721758Y-51234103D01*
X54649992Y-51202415D01*
X54624865Y-51199500D01*
X53335143Y-51199500D01*
X53335117Y-51199502D01*
X53310012Y-51202413D01*
X53310008Y-51202415D01*
X53207235Y-51247793D01*
X53127794Y-51327234D01*
X53082415Y-51430006D01*
X53082415Y-51430008D01*
X53079500Y-51455131D01*
X53079500Y-53544856D01*
X49221152Y-53544856D01*
X49232533Y-53532216D01*
X49327179Y-53368284D01*
X49385674Y-53188256D01*
X49405460Y-53000000D01*
X49385674Y-52811744D01*
X49327179Y-52631716D01*
X49232533Y-52467784D01*
X49105871Y-52327112D01*
X49045770Y-52283446D01*
X48952734Y-52215851D01*
X48952729Y-52215848D01*
X48779807Y-52138857D01*
X48779802Y-52138855D01*
X48634001Y-52107865D01*
X48594646Y-52099500D01*
X48405354Y-52099500D01*
X48372897Y-52106398D01*
X48220197Y-52138855D01*
X48220192Y-52138857D01*
X48108069Y-52188779D01*
X48057633Y-52199500D01*
X35050540Y-52199500D01*
X34983501Y-52179815D01*
X34937746Y-52127011D01*
X34927802Y-52057853D01*
X34956827Y-51994297D01*
X34962859Y-51987819D01*
X36501886Y-50448792D01*
X36501889Y-50448789D01*
X36589494Y-50317679D01*
X36649837Y-50171997D01*
X36680600Y-50017342D01*
X36680600Y-49859657D01*
X36680600Y-49159240D01*
X36700285Y-49092201D01*
X36716919Y-49071559D01*
X36854370Y-48934108D01*
X37015748Y-48772729D01*
X37077069Y-48739246D01*
X37146760Y-48744230D01*
X37202694Y-48786101D01*
X37227111Y-48851566D01*
X37223202Y-48892504D01*
X37212055Y-48934108D01*
X37191532Y-49010702D01*
X37191531Y-49010710D01*
X37161580Y-49238198D01*
X37161580Y-49467681D01*
X37184694Y-49643242D01*
X37191532Y-49695178D01*
X37225035Y-49820214D01*
X37250922Y-49916827D01*
X37338730Y-50128816D01*
X37338737Y-50128830D01*
X37363662Y-50172001D01*
X37418226Y-50266510D01*
X37453472Y-50327557D01*
X37593161Y-50509601D01*
X37593169Y-50509610D01*
X37755410Y-50671851D01*
X37755418Y-50671858D01*
X37755419Y-50671859D01*
X37768660Y-50682019D01*
X37937462Y-50811547D01*
X37937465Y-50811548D01*
X37937468Y-50811551D01*
X38136192Y-50926284D01*
X38136197Y-50926286D01*
X38136203Y-50926289D01*
X38160715Y-50936442D01*
X38348193Y-51014098D01*
X38569842Y-51073488D01*
X38797346Y-51103440D01*
X38797353Y-51103440D01*
X39026807Y-51103440D01*
X39026814Y-51103440D01*
X39254318Y-51073488D01*
X39475967Y-51014098D01*
X39687968Y-50926284D01*
X39886692Y-50811551D01*
X40068741Y-50671859D01*
X40068745Y-50671854D01*
X40068750Y-50671851D01*
X40230991Y-50509610D01*
X40230994Y-50509605D01*
X40230999Y-50509601D01*
X40370691Y-50327552D01*
X40485424Y-50128828D01*
X40573238Y-49916827D01*
X40632628Y-49695178D01*
X40662580Y-49467674D01*
X40662580Y-49238206D01*
X40632628Y-49010702D01*
X40573238Y-48789053D01*
X40510757Y-48638211D01*
X40485429Y-48577063D01*
X40485426Y-48577057D01*
X40485424Y-48577052D01*
X40370691Y-48378328D01*
X40370688Y-48378325D01*
X40370687Y-48378322D01*
X40230998Y-48196278D01*
X40230991Y-48196270D01*
X40068750Y-48034029D01*
X40068741Y-48034021D01*
X39886697Y-47894332D01*
X39780444Y-47832987D01*
X39732228Y-47782420D01*
X39719006Y-47713813D01*
X39744974Y-47648948D01*
X39801888Y-47608420D01*
X39842444Y-47601600D01*
X52438160Y-47601600D01*
X52505199Y-47621285D01*
G37*
%TD.AperFunction*%
%TA.AperFunction,Conductor*%
G36*
X83753677Y-51320185D02*
G01*
X83799432Y-51372989D01*
X83809376Y-51442147D01*
X83780351Y-51505703D01*
X83774319Y-51512181D01*
X83760538Y-51525961D01*
X83760535Y-51525965D01*
X83661990Y-51673446D01*
X83661983Y-51673459D01*
X83594106Y-51837332D01*
X83594103Y-51837341D01*
X83559500Y-52011304D01*
X83559500Y-52988695D01*
X83594104Y-53162658D01*
X83594107Y-53162670D01*
X83650061Y-53297755D01*
X83659500Y-53345207D01*
X83659500Y-55154793D01*
X83650061Y-55202245D01*
X83594106Y-55337332D01*
X83594103Y-55337341D01*
X83559500Y-55511304D01*
X83559500Y-56488695D01*
X83594103Y-56662658D01*
X83594106Y-56662667D01*
X83661983Y-56826540D01*
X83661990Y-56826553D01*
X83760535Y-56974034D01*
X83760538Y-56974038D01*
X83885961Y-57099461D01*
X83885965Y-57099464D01*
X84033446Y-57198009D01*
X84033459Y-57198016D01*
X84156363Y-57248923D01*
X84197334Y-57265894D01*
X84197336Y-57265894D01*
X84197341Y-57265896D01*
X84371304Y-57300499D01*
X84371307Y-57300500D01*
X84371309Y-57300500D01*
X84548693Y-57300500D01*
X84548694Y-57300499D01*
X84606682Y-57288964D01*
X84722658Y-57265896D01*
X84722661Y-57265894D01*
X84722666Y-57265894D01*
X84886547Y-57198013D01*
X85034035Y-57099464D01*
X85159464Y-56974035D01*
X85258013Y-56826547D01*
X85325894Y-56662666D01*
X85332356Y-56630183D01*
X85360499Y-56488695D01*
X85360500Y-56488693D01*
X85360500Y-56486571D01*
X85900000Y-56486571D01*
X85927085Y-56657584D01*
X85980591Y-56822257D01*
X86059195Y-56976524D01*
X86160967Y-57116602D01*
X86283397Y-57239032D01*
X86423475Y-57340804D01*
X86577744Y-57419408D01*
X86742415Y-57472914D01*
X86742414Y-57472914D01*
X86749999Y-57474115D01*
X86750000Y-57474114D01*
X86750000Y-56315686D01*
X86754394Y-56320080D01*
X86845606Y-56372741D01*
X86947339Y-56400000D01*
X87052661Y-56400000D01*
X87154394Y-56372741D01*
X87245606Y-56320080D01*
X87250000Y-56315686D01*
X87250000Y-57474115D01*
X87257584Y-57472914D01*
X87422255Y-57419408D01*
X87576524Y-57340804D01*
X87716602Y-57239032D01*
X87839032Y-57116602D01*
X87940804Y-56976524D01*
X88019408Y-56822257D01*
X88072914Y-56657584D01*
X88100000Y-56486571D01*
X88100000Y-56250000D01*
X87315686Y-56250000D01*
X87320080Y-56245606D01*
X87372741Y-56154394D01*
X87400000Y-56052661D01*
X87400000Y-55947339D01*
X87372741Y-55845606D01*
X87320080Y-55754394D01*
X87315686Y-55750000D01*
X88100000Y-55750000D01*
X88100000Y-55513428D01*
X88072914Y-55342415D01*
X88019408Y-55177742D01*
X87940804Y-55023475D01*
X87839032Y-54883397D01*
X87716602Y-54760967D01*
X87576524Y-54659195D01*
X87422257Y-54580591D01*
X87257589Y-54527087D01*
X87257581Y-54527085D01*
X87250000Y-54525884D01*
X87250000Y-55684314D01*
X87245606Y-55679920D01*
X87154394Y-55627259D01*
X87052661Y-55600000D01*
X86947339Y-55600000D01*
X86845606Y-55627259D01*
X86754394Y-55679920D01*
X86750000Y-55684314D01*
X86750000Y-54525884D01*
X86749999Y-54525884D01*
X86742418Y-54527085D01*
X86742410Y-54527087D01*
X86577742Y-54580591D01*
X86423475Y-54659195D01*
X86283397Y-54760967D01*
X86160967Y-54883397D01*
X86059195Y-55023475D01*
X85980591Y-55177742D01*
X85927085Y-55342415D01*
X85900000Y-55513428D01*
X85900000Y-55750000D01*
X86684314Y-55750000D01*
X86679920Y-55754394D01*
X86627259Y-55845606D01*
X86600000Y-55947339D01*
X86600000Y-56052661D01*
X86627259Y-56154394D01*
X86679920Y-56245606D01*
X86684314Y-56250000D01*
X85900000Y-56250000D01*
X85900000Y-56486571D01*
X85360500Y-56486571D01*
X85360500Y-55511306D01*
X85360499Y-55511304D01*
X85325896Y-55337341D01*
X85325893Y-55337332D01*
X85269939Y-55202245D01*
X85260500Y-55154793D01*
X85260500Y-53345207D01*
X85269939Y-53297755D01*
X85325892Y-53162670D01*
X85325894Y-53162666D01*
X85360500Y-52988691D01*
X85360500Y-52011309D01*
X85360500Y-52011306D01*
X85360499Y-52011304D01*
X85325896Y-51837341D01*
X85325893Y-51837332D01*
X85258016Y-51673459D01*
X85258009Y-51673446D01*
X85159464Y-51525965D01*
X85159461Y-51525961D01*
X85145681Y-51512181D01*
X85112196Y-51450858D01*
X85117180Y-51381166D01*
X85159052Y-51325233D01*
X85224516Y-51300816D01*
X85233362Y-51300500D01*
X85977833Y-51300500D01*
X86044872Y-51320185D01*
X86090627Y-51372989D01*
X86100571Y-51442147D01*
X86078151Y-51497386D01*
X86059196Y-51523474D01*
X85980591Y-51677742D01*
X85927085Y-51842415D01*
X85900000Y-52013428D01*
X85900000Y-52250000D01*
X86684314Y-52250000D01*
X86679920Y-52254394D01*
X86627259Y-52345606D01*
X86600000Y-52447339D01*
X86600000Y-52552661D01*
X86627259Y-52654394D01*
X86679920Y-52745606D01*
X86684314Y-52750000D01*
X85900000Y-52750000D01*
X85900000Y-52986571D01*
X85927085Y-53157584D01*
X85980591Y-53322257D01*
X86059195Y-53476524D01*
X86160967Y-53616602D01*
X86283397Y-53739032D01*
X86423475Y-53840804D01*
X86577744Y-53919408D01*
X86742415Y-53972914D01*
X86742414Y-53972914D01*
X86749999Y-53974115D01*
X86750000Y-53974114D01*
X86750000Y-52815686D01*
X86754394Y-52820080D01*
X86845606Y-52872741D01*
X86947339Y-52900000D01*
X87052661Y-52900000D01*
X87154394Y-52872741D01*
X87245606Y-52820080D01*
X87250000Y-52815686D01*
X87250000Y-53974115D01*
X87257584Y-53972914D01*
X87422255Y-53919408D01*
X87576524Y-53840804D01*
X87716602Y-53739032D01*
X87839032Y-53616602D01*
X87940804Y-53476524D01*
X88019408Y-53322257D01*
X88072914Y-53157584D01*
X88100000Y-52986571D01*
X88100000Y-52750000D01*
X87315686Y-52750000D01*
X87320080Y-52745606D01*
X87372741Y-52654394D01*
X87400000Y-52552661D01*
X87400000Y-52447339D01*
X87372741Y-52345606D01*
X87320080Y-52254394D01*
X87315686Y-52250000D01*
X88100000Y-52250000D01*
X88100000Y-52013428D01*
X88072914Y-51842415D01*
X88019408Y-51677742D01*
X87940803Y-51523474D01*
X87921849Y-51497386D01*
X87898369Y-51431580D01*
X87914194Y-51363526D01*
X87964300Y-51314831D01*
X88022167Y-51300500D01*
X88766638Y-51300500D01*
X88833677Y-51320185D01*
X88879432Y-51372989D01*
X88889376Y-51442147D01*
X88860351Y-51505703D01*
X88854319Y-51512181D01*
X88840538Y-51525961D01*
X88840535Y-51525965D01*
X88741990Y-51673446D01*
X88741983Y-51673459D01*
X88674106Y-51837332D01*
X88674103Y-51837341D01*
X88639500Y-52011304D01*
X88639500Y-52988695D01*
X88674104Y-53162658D01*
X88674107Y-53162670D01*
X88730061Y-53297755D01*
X88739500Y-53345207D01*
X88739500Y-55154793D01*
X88730061Y-55202245D01*
X88674106Y-55337332D01*
X88674103Y-55337341D01*
X88639500Y-55511304D01*
X88639500Y-56488695D01*
X88674103Y-56662658D01*
X88674106Y-56662667D01*
X88741983Y-56826540D01*
X88741990Y-56826553D01*
X88840535Y-56974034D01*
X88840538Y-56974038D01*
X88965961Y-57099461D01*
X88965965Y-57099464D01*
X89113446Y-57198009D01*
X89113459Y-57198016D01*
X89236363Y-57248923D01*
X89277334Y-57265894D01*
X89277336Y-57265894D01*
X89277341Y-57265896D01*
X89451304Y-57300499D01*
X89451307Y-57300500D01*
X89451309Y-57300500D01*
X89628693Y-57300500D01*
X89628694Y-57300499D01*
X89686682Y-57288964D01*
X89802658Y-57265896D01*
X89802661Y-57265894D01*
X89802666Y-57265894D01*
X89966547Y-57198013D01*
X90114035Y-57099464D01*
X90239464Y-56974035D01*
X90338013Y-56826547D01*
X90405894Y-56662666D01*
X90412356Y-56630183D01*
X90440499Y-56488695D01*
X90440500Y-56488693D01*
X90440500Y-55511306D01*
X90440499Y-55511304D01*
X90405896Y-55337341D01*
X90405893Y-55337332D01*
X90349939Y-55202245D01*
X90340500Y-55154793D01*
X90340500Y-53345207D01*
X90349939Y-53297755D01*
X90405892Y-53162670D01*
X90405894Y-53162666D01*
X90440500Y-52988691D01*
X90440500Y-52011309D01*
X90440500Y-52011306D01*
X90440499Y-52011304D01*
X90405896Y-51837341D01*
X90405893Y-51837332D01*
X90338016Y-51673459D01*
X90338009Y-51673446D01*
X90239464Y-51525965D01*
X90239461Y-51525961D01*
X90225681Y-51512181D01*
X90192196Y-51450858D01*
X90197180Y-51381166D01*
X90239052Y-51325233D01*
X90304516Y-51300816D01*
X90313362Y-51300500D01*
X91306638Y-51300500D01*
X91373677Y-51320185D01*
X91419432Y-51372989D01*
X91429376Y-51442147D01*
X91400351Y-51505703D01*
X91394319Y-51512181D01*
X91380538Y-51525961D01*
X91380535Y-51525965D01*
X91281990Y-51673446D01*
X91281983Y-51673459D01*
X91214106Y-51837332D01*
X91214103Y-51837341D01*
X91179500Y-52011304D01*
X91179500Y-52988695D01*
X91214104Y-53162658D01*
X91214107Y-53162670D01*
X91270061Y-53297755D01*
X91279500Y-53345207D01*
X91279500Y-55154793D01*
X91270061Y-55202245D01*
X91214106Y-55337332D01*
X91214103Y-55337341D01*
X91179500Y-55511304D01*
X91179500Y-56488695D01*
X91214103Y-56662658D01*
X91214106Y-56662667D01*
X91281983Y-56826540D01*
X91281990Y-56826553D01*
X91380535Y-56974034D01*
X91380538Y-56974038D01*
X91505961Y-57099461D01*
X91505965Y-57099464D01*
X91653446Y-57198009D01*
X91653459Y-57198016D01*
X91776363Y-57248923D01*
X91817334Y-57265894D01*
X91817336Y-57265894D01*
X91817341Y-57265896D01*
X91991304Y-57300499D01*
X91991307Y-57300500D01*
X91991309Y-57300500D01*
X92168693Y-57300500D01*
X92168694Y-57300499D01*
X92226682Y-57288964D01*
X92342658Y-57265896D01*
X92342661Y-57265894D01*
X92342666Y-57265894D01*
X92506547Y-57198013D01*
X92654035Y-57099464D01*
X92779464Y-56974035D01*
X92878013Y-56826547D01*
X92945894Y-56662666D01*
X92952356Y-56630183D01*
X92980499Y-56488695D01*
X92980500Y-56488693D01*
X92980500Y-55511306D01*
X92980499Y-55511304D01*
X92945896Y-55337341D01*
X92945893Y-55337332D01*
X92889939Y-55202245D01*
X92880500Y-55154793D01*
X92880500Y-53345207D01*
X92889939Y-53297755D01*
X92945892Y-53162670D01*
X92945894Y-53162666D01*
X92980500Y-52988691D01*
X92980500Y-52011309D01*
X92980500Y-52011306D01*
X92980499Y-52011304D01*
X92945896Y-51837341D01*
X92945893Y-51837332D01*
X92878016Y-51673459D01*
X92878009Y-51673446D01*
X92779464Y-51525965D01*
X92779461Y-51525961D01*
X92765681Y-51512181D01*
X92732196Y-51450858D01*
X92737180Y-51381166D01*
X92779052Y-51325233D01*
X92844516Y-51300816D01*
X92853362Y-51300500D01*
X93846638Y-51300500D01*
X93913677Y-51320185D01*
X93959432Y-51372989D01*
X93969376Y-51442147D01*
X93940351Y-51505703D01*
X93934319Y-51512181D01*
X93920538Y-51525961D01*
X93920535Y-51525965D01*
X93821990Y-51673446D01*
X93821983Y-51673459D01*
X93754106Y-51837332D01*
X93754103Y-51837341D01*
X93719500Y-52011304D01*
X93719500Y-52988695D01*
X93754104Y-53162658D01*
X93754107Y-53162670D01*
X93810061Y-53297755D01*
X93819500Y-53345207D01*
X93819500Y-55154793D01*
X93810061Y-55202245D01*
X93754106Y-55337332D01*
X93754103Y-55337341D01*
X93719500Y-55511304D01*
X93719500Y-56488695D01*
X93754103Y-56662658D01*
X93754106Y-56662667D01*
X93821983Y-56826540D01*
X93821990Y-56826553D01*
X93920535Y-56974034D01*
X93920538Y-56974038D01*
X94045961Y-57099461D01*
X94045965Y-57099464D01*
X94193446Y-57198009D01*
X94193459Y-57198016D01*
X94316363Y-57248923D01*
X94357334Y-57265894D01*
X94357336Y-57265894D01*
X94357341Y-57265896D01*
X94531304Y-57300499D01*
X94531307Y-57300500D01*
X94531309Y-57300500D01*
X94708693Y-57300500D01*
X94708694Y-57300499D01*
X94766682Y-57288964D01*
X94882658Y-57265896D01*
X94882661Y-57265894D01*
X94882666Y-57265894D01*
X95046547Y-57198013D01*
X95194035Y-57099464D01*
X95319464Y-56974035D01*
X95418013Y-56826547D01*
X95485894Y-56662666D01*
X95492356Y-56630183D01*
X95520499Y-56488695D01*
X95520500Y-56488693D01*
X95520500Y-55511306D01*
X95520499Y-55511304D01*
X95485896Y-55337341D01*
X95485893Y-55337332D01*
X95429939Y-55202245D01*
X95420500Y-55154793D01*
X95420500Y-53345207D01*
X95429939Y-53297755D01*
X95485892Y-53162670D01*
X95485894Y-53162666D01*
X95520500Y-52988691D01*
X95520500Y-52011309D01*
X95520500Y-52011306D01*
X95520499Y-52011304D01*
X95485896Y-51837341D01*
X95485893Y-51837332D01*
X95418016Y-51673459D01*
X95418009Y-51673446D01*
X95319464Y-51525965D01*
X95319461Y-51525961D01*
X95305681Y-51512181D01*
X95272196Y-51450858D01*
X95277180Y-51381166D01*
X95319052Y-51325233D01*
X95384516Y-51300816D01*
X95393362Y-51300500D01*
X96386638Y-51300500D01*
X96453677Y-51320185D01*
X96499432Y-51372989D01*
X96509376Y-51442147D01*
X96480351Y-51505703D01*
X96474319Y-51512181D01*
X96460538Y-51525961D01*
X96460535Y-51525965D01*
X96361990Y-51673446D01*
X96361983Y-51673459D01*
X96294106Y-51837332D01*
X96294103Y-51837341D01*
X96259500Y-52011304D01*
X96259500Y-52988695D01*
X96294104Y-53162658D01*
X96294107Y-53162670D01*
X96350061Y-53297755D01*
X96359500Y-53345207D01*
X96359500Y-55154793D01*
X96350061Y-55202245D01*
X96294106Y-55337332D01*
X96294103Y-55337341D01*
X96259500Y-55511304D01*
X96259500Y-56488695D01*
X96294103Y-56662658D01*
X96294106Y-56662667D01*
X96361983Y-56826540D01*
X96361990Y-56826553D01*
X96460535Y-56974034D01*
X96460538Y-56974038D01*
X96585961Y-57099461D01*
X96585965Y-57099464D01*
X96733446Y-57198009D01*
X96733459Y-57198016D01*
X96856363Y-57248923D01*
X96897334Y-57265894D01*
X96897336Y-57265894D01*
X96897341Y-57265896D01*
X97071304Y-57300499D01*
X97071307Y-57300500D01*
X97071309Y-57300500D01*
X97248693Y-57300500D01*
X97248694Y-57300499D01*
X97306682Y-57288964D01*
X97422658Y-57265896D01*
X97422661Y-57265894D01*
X97422666Y-57265894D01*
X97586547Y-57198013D01*
X97734035Y-57099464D01*
X97859464Y-56974035D01*
X97958013Y-56826547D01*
X98025894Y-56662666D01*
X98032356Y-56630183D01*
X98060499Y-56488695D01*
X98060500Y-56488693D01*
X98060500Y-55511306D01*
X98060499Y-55511304D01*
X98025896Y-55337341D01*
X98025893Y-55337332D01*
X97969939Y-55202245D01*
X97960500Y-55154793D01*
X97960500Y-53345207D01*
X97969939Y-53297755D01*
X98025892Y-53162670D01*
X98025894Y-53162666D01*
X98060500Y-52988691D01*
X98060500Y-52011309D01*
X98060500Y-52011306D01*
X98060499Y-52011304D01*
X98025896Y-51837341D01*
X98025893Y-51837332D01*
X97958016Y-51673459D01*
X97958009Y-51673446D01*
X97859464Y-51525965D01*
X97859461Y-51525961D01*
X97845681Y-51512181D01*
X97812196Y-51450858D01*
X97817180Y-51381166D01*
X97859052Y-51325233D01*
X97924516Y-51300816D01*
X97933362Y-51300500D01*
X98926638Y-51300500D01*
X98993677Y-51320185D01*
X99039432Y-51372989D01*
X99049376Y-51442147D01*
X99020351Y-51505703D01*
X99014319Y-51512181D01*
X99000538Y-51525961D01*
X99000535Y-51525965D01*
X98901990Y-51673446D01*
X98901983Y-51673459D01*
X98834106Y-51837332D01*
X98834103Y-51837341D01*
X98799500Y-52011304D01*
X98799500Y-52988695D01*
X98834104Y-53162658D01*
X98834107Y-53162670D01*
X98890061Y-53297755D01*
X98899500Y-53345207D01*
X98899500Y-55154793D01*
X98890061Y-55202245D01*
X98834106Y-55337332D01*
X98834103Y-55337341D01*
X98799500Y-55511304D01*
X98799500Y-56488695D01*
X98834103Y-56662658D01*
X98834106Y-56662667D01*
X98901983Y-56826540D01*
X98901990Y-56826553D01*
X99000535Y-56974034D01*
X99000538Y-56974038D01*
X99125961Y-57099461D01*
X99125965Y-57099464D01*
X99273446Y-57198009D01*
X99273459Y-57198016D01*
X99396363Y-57248923D01*
X99437334Y-57265894D01*
X99437336Y-57265894D01*
X99437341Y-57265896D01*
X99611304Y-57300499D01*
X99611307Y-57300500D01*
X99611309Y-57300500D01*
X99788693Y-57300500D01*
X99788694Y-57300499D01*
X99846682Y-57288964D01*
X99962658Y-57265896D01*
X99962661Y-57265894D01*
X99962666Y-57265894D01*
X100126547Y-57198013D01*
X100274035Y-57099464D01*
X100399464Y-56974035D01*
X100498013Y-56826547D01*
X100565894Y-56662666D01*
X100572356Y-56630183D01*
X100600499Y-56488695D01*
X100600500Y-56488693D01*
X100600500Y-55511306D01*
X100600499Y-55511304D01*
X100565896Y-55337341D01*
X100565893Y-55337332D01*
X100509939Y-55202245D01*
X100500500Y-55154793D01*
X100500500Y-53345207D01*
X100509939Y-53297755D01*
X100565892Y-53162670D01*
X100565894Y-53162666D01*
X100600500Y-52988691D01*
X100600500Y-52396240D01*
X100620185Y-52329201D01*
X100672989Y-52283446D01*
X100742147Y-52273502D01*
X100805703Y-52302527D01*
X100812181Y-52308559D01*
X102813381Y-54309759D01*
X102846866Y-54371082D01*
X102849700Y-54397440D01*
X102849700Y-78163259D01*
X102830015Y-78230298D01*
X102777211Y-78276053D01*
X102708053Y-78285997D01*
X102644497Y-78256972D01*
X102638019Y-78250940D01*
X81899260Y-57512181D01*
X81865775Y-57450858D01*
X81870759Y-57381166D01*
X81912631Y-57325233D01*
X81978095Y-57300816D01*
X81986941Y-57300500D01*
X82008693Y-57300500D01*
X82008694Y-57300499D01*
X82066682Y-57288964D01*
X82182658Y-57265896D01*
X82182661Y-57265894D01*
X82182666Y-57265894D01*
X82346547Y-57198013D01*
X82494035Y-57099464D01*
X82619464Y-56974035D01*
X82718013Y-56826547D01*
X82785894Y-56662666D01*
X82792356Y-56630183D01*
X82820499Y-56488695D01*
X82820500Y-56488693D01*
X82820500Y-55511306D01*
X82820499Y-55511304D01*
X82785896Y-55337341D01*
X82785893Y-55337332D01*
X82729939Y-55202245D01*
X82720500Y-55154793D01*
X82720500Y-53345207D01*
X82729939Y-53297755D01*
X82785892Y-53162670D01*
X82785894Y-53162666D01*
X82820500Y-52988691D01*
X82820500Y-52011309D01*
X82820500Y-52011306D01*
X82820499Y-52011304D01*
X82785896Y-51837341D01*
X82785893Y-51837332D01*
X82718016Y-51673459D01*
X82718009Y-51673446D01*
X82619464Y-51525965D01*
X82619461Y-51525961D01*
X82605681Y-51512181D01*
X82572196Y-51450858D01*
X82577180Y-51381166D01*
X82619052Y-51325233D01*
X82684516Y-51300816D01*
X82693362Y-51300500D01*
X83686638Y-51300500D01*
X83753677Y-51320185D01*
G37*
%TD.AperFunction*%
%TA.AperFunction,Conductor*%
G36*
X69470000Y-81084314D02*
G01*
X69465606Y-81079920D01*
X69374394Y-81027259D01*
X69272661Y-81000000D01*
X69167339Y-81000000D01*
X69065606Y-81027259D01*
X68974394Y-81079920D01*
X68970000Y-81084314D01*
X68970000Y-79175686D01*
X68974394Y-79180080D01*
X69065606Y-79232741D01*
X69167339Y-79260000D01*
X69272661Y-79260000D01*
X69374394Y-79232741D01*
X69465606Y-79180080D01*
X69470000Y-79175686D01*
X69470000Y-81084314D01*
G37*
%TD.AperFunction*%
%TA.AperFunction,Conductor*%
G36*
X113002702Y-44500617D02*
G01*
X113386771Y-44517386D01*
X113397506Y-44518326D01*
X113775971Y-44568152D01*
X113786597Y-44570025D01*
X114159284Y-44652648D01*
X114169710Y-44655442D01*
X114533765Y-44770227D01*
X114543911Y-44773920D01*
X114896578Y-44920000D01*
X114906369Y-44924566D01*
X115244942Y-45100816D01*
X115254310Y-45106224D01*
X115576244Y-45311318D01*
X115585105Y-45317523D01*
X115887930Y-45549889D01*
X115896217Y-45556843D01*
X116177635Y-45814715D01*
X116185284Y-45822364D01*
X116443156Y-46103782D01*
X116450110Y-46112069D01*
X116682476Y-46414894D01*
X116688681Y-46423755D01*
X116893775Y-46745689D01*
X116899183Y-46755057D01*
X117075430Y-47093623D01*
X117080002Y-47103427D01*
X117226075Y-47456078D01*
X117229775Y-47466244D01*
X117344554Y-47830278D01*
X117347354Y-47840727D01*
X117429971Y-48213389D01*
X117431849Y-48224042D01*
X117481671Y-48602473D01*
X117482614Y-48613249D01*
X117499382Y-48997297D01*
X117499500Y-49002706D01*
X117499500Y-103997293D01*
X117499382Y-104002702D01*
X117482614Y-104386750D01*
X117481671Y-104397526D01*
X117431849Y-104775957D01*
X117429971Y-104786610D01*
X117347354Y-105159272D01*
X117344554Y-105169721D01*
X117229775Y-105533755D01*
X117226075Y-105543921D01*
X117080002Y-105896572D01*
X117075430Y-105906376D01*
X116899183Y-106244942D01*
X116893775Y-106254310D01*
X116688681Y-106576244D01*
X116682476Y-106585105D01*
X116450110Y-106887930D01*
X116443156Y-106896217D01*
X116185284Y-107177635D01*
X116177635Y-107185284D01*
X115896217Y-107443156D01*
X115887930Y-107450110D01*
X115585105Y-107682476D01*
X115576244Y-107688681D01*
X115254310Y-107893775D01*
X115244942Y-107899183D01*
X114906376Y-108075430D01*
X114896572Y-108080002D01*
X114543921Y-108226075D01*
X114533755Y-108229775D01*
X114169721Y-108344554D01*
X114159272Y-108347354D01*
X113786610Y-108429971D01*
X113775957Y-108431849D01*
X113397526Y-108481671D01*
X113386750Y-108482614D01*
X113002703Y-108499382D01*
X112997294Y-108499500D01*
X33002706Y-108499500D01*
X32997297Y-108499382D01*
X32613249Y-108482614D01*
X32602473Y-108481671D01*
X32224042Y-108431849D01*
X32213389Y-108429971D01*
X31840727Y-108347354D01*
X31830278Y-108344554D01*
X31466244Y-108229775D01*
X31456078Y-108226075D01*
X31103427Y-108080002D01*
X31093623Y-108075430D01*
X30755057Y-107899183D01*
X30745689Y-107893775D01*
X30423755Y-107688681D01*
X30414894Y-107682476D01*
X30112069Y-107450110D01*
X30103782Y-107443156D01*
X29822364Y-107185284D01*
X29814715Y-107177635D01*
X29556843Y-106896217D01*
X29549889Y-106887930D01*
X29317523Y-106585105D01*
X29311318Y-106576244D01*
X29106224Y-106254310D01*
X29100816Y-106244942D01*
X28924566Y-105906369D01*
X28919997Y-105896572D01*
X28773920Y-105543911D01*
X28770224Y-105533755D01*
X28655442Y-105169710D01*
X28652648Y-105159284D01*
X28570025Y-104786597D01*
X28568152Y-104775971D01*
X28518326Y-104397506D01*
X28517386Y-104386771D01*
X28505795Y-104121288D01*
X31149500Y-104121288D01*
X31181161Y-104361785D01*
X31243947Y-104596104D01*
X31336773Y-104820205D01*
X31336776Y-104820212D01*
X31458064Y-105030289D01*
X31458066Y-105030292D01*
X31458067Y-105030293D01*
X31605733Y-105222736D01*
X31605739Y-105222743D01*
X31777256Y-105394260D01*
X31777262Y-105394265D01*
X31969711Y-105541936D01*
X32179788Y-105663224D01*
X32403900Y-105756054D01*
X32638211Y-105818838D01*
X32818586Y-105842584D01*
X32878711Y-105850500D01*
X32878712Y-105850500D01*
X33121289Y-105850500D01*
X33169388Y-105844167D01*
X33361789Y-105818838D01*
X33596100Y-105756054D01*
X33794708Y-105673788D01*
X93899500Y-105673788D01*
X93931161Y-105914285D01*
X93993947Y-106148604D01*
X94037732Y-106254310D01*
X94086776Y-106372712D01*
X94208064Y-106582789D01*
X94208066Y-106582792D01*
X94208067Y-106582793D01*
X94355733Y-106775236D01*
X94355739Y-106775243D01*
X94527256Y-106946760D01*
X94527262Y-106946765D01*
X94719711Y-107094436D01*
X94929788Y-107215724D01*
X95153900Y-107308554D01*
X95388211Y-107371338D01*
X95568586Y-107395084D01*
X95628711Y-107403000D01*
X95628712Y-107403000D01*
X95871289Y-107403000D01*
X95919388Y-107396667D01*
X96111789Y-107371338D01*
X96346100Y-107308554D01*
X96570212Y-107215724D01*
X96780289Y-107094436D01*
X96972738Y-106946765D01*
X97144265Y-106775238D01*
X97291936Y-106582789D01*
X97413224Y-106372712D01*
X97506054Y-106148600D01*
X97568838Y-105914289D01*
X97600500Y-105673788D01*
X97600500Y-105431212D01*
X97568838Y-105190711D01*
X97506054Y-104956400D01*
X97413224Y-104732288D01*
X97291936Y-104522211D01*
X97144265Y-104329762D01*
X97144260Y-104329756D01*
X96972743Y-104158239D01*
X96972736Y-104158233D01*
X96780293Y-104010567D01*
X96780292Y-104010566D01*
X96780289Y-104010564D01*
X96570212Y-103889276D01*
X96570205Y-103889273D01*
X96346104Y-103796447D01*
X96111785Y-103733661D01*
X95871289Y-103702000D01*
X95871288Y-103702000D01*
X95628712Y-103702000D01*
X95628711Y-103702000D01*
X95388214Y-103733661D01*
X95153895Y-103796447D01*
X94929794Y-103889273D01*
X94929785Y-103889277D01*
X94719706Y-104010567D01*
X94527263Y-104158233D01*
X94527256Y-104158239D01*
X94355739Y-104329756D01*
X94355733Y-104329763D01*
X94208067Y-104522206D01*
X94086777Y-104732285D01*
X94086773Y-104732294D01*
X93993947Y-104956395D01*
X93931161Y-105190714D01*
X93899500Y-105431211D01*
X93899500Y-105673788D01*
X33794708Y-105673788D01*
X33820212Y-105663224D01*
X34030289Y-105541936D01*
X34222738Y-105394265D01*
X34394265Y-105222738D01*
X34541936Y-105030289D01*
X34663224Y-104820212D01*
X34756054Y-104596100D01*
X34818838Y-104361789D01*
X34850500Y-104121288D01*
X34850500Y-103878712D01*
X34818838Y-103638211D01*
X34756054Y-103403900D01*
X34663224Y-103179788D01*
X34541936Y-102969711D01*
X34462222Y-102865825D01*
X34394266Y-102777263D01*
X34394260Y-102777256D01*
X34222743Y-102605739D01*
X34222736Y-102605733D01*
X34030293Y-102458067D01*
X34030292Y-102458066D01*
X34030289Y-102458064D01*
X33820212Y-102336776D01*
X33820205Y-102336773D01*
X33596104Y-102243947D01*
X33361785Y-102181161D01*
X33121289Y-102149500D01*
X33121288Y-102149500D01*
X32878712Y-102149500D01*
X32878711Y-102149500D01*
X32638214Y-102181161D01*
X32403895Y-102243947D01*
X32179794Y-102336773D01*
X32179785Y-102336777D01*
X31969706Y-102458067D01*
X31777263Y-102605733D01*
X31777256Y-102605739D01*
X31605739Y-102777256D01*
X31605733Y-102777263D01*
X31458067Y-102969706D01*
X31336777Y-103179785D01*
X31336773Y-103179794D01*
X31243947Y-103403895D01*
X31181161Y-103638214D01*
X31149500Y-103878711D01*
X31149500Y-104121288D01*
X28505795Y-104121288D01*
X28500618Y-104002702D01*
X28500500Y-103997293D01*
X28500500Y-97097844D01*
X41850000Y-97097844D01*
X41856401Y-97157372D01*
X41856403Y-97157379D01*
X41906645Y-97292086D01*
X41906649Y-97292093D01*
X41992809Y-97407187D01*
X41992812Y-97407190D01*
X42107906Y-97493350D01*
X42107913Y-97493354D01*
X42242620Y-97543596D01*
X42242627Y-97543598D01*
X42302155Y-97549999D01*
X42302172Y-97550000D01*
X42500634Y-97550000D01*
X42567673Y-97569685D01*
X42613428Y-97622489D01*
X42623372Y-97691647D01*
X42594347Y-97755203D01*
X42565911Y-97779427D01*
X42503701Y-97817945D01*
X42346127Y-97961593D01*
X42217632Y-98131746D01*
X42122596Y-98322605D01*
X42122596Y-98322607D01*
X42069935Y-98507690D01*
X42064244Y-98527690D01*
X42044571Y-98740000D01*
X42064244Y-98952310D01*
X42116904Y-99137389D01*
X42122596Y-99157392D01*
X42122596Y-99157394D01*
X42217632Y-99348253D01*
X42346127Y-99518406D01*
X42346128Y-99518407D01*
X42503698Y-99662052D01*
X42684981Y-99774298D01*
X42883802Y-99851321D01*
X43093390Y-99890500D01*
X43093392Y-99890500D01*
X43306608Y-99890500D01*
X43306610Y-99890500D01*
X43516198Y-99851321D01*
X43715019Y-99774298D01*
X43896302Y-99662052D01*
X44053872Y-99518407D01*
X44182366Y-99348255D01*
X44241104Y-99230292D01*
X44277403Y-99157394D01*
X44277403Y-99157393D01*
X44277405Y-99157389D01*
X44335756Y-98952310D01*
X44355429Y-98740000D01*
X44335756Y-98527690D01*
X44277405Y-98322611D01*
X44277403Y-98322606D01*
X44277403Y-98322605D01*
X44182367Y-98131746D01*
X44053872Y-97961593D01*
X44021959Y-97932500D01*
X43896302Y-97817948D01*
X43896299Y-97817946D01*
X43896298Y-97817945D01*
X43834089Y-97779427D01*
X43787453Y-97727399D01*
X43776349Y-97658418D01*
X43804302Y-97594383D01*
X43862437Y-97555627D01*
X43899366Y-97550000D01*
X44097828Y-97550000D01*
X44097844Y-97549999D01*
X44157372Y-97543598D01*
X44157379Y-97543596D01*
X44292086Y-97493354D01*
X44292093Y-97493350D01*
X44407187Y-97407190D01*
X44407190Y-97407187D01*
X44493350Y-97292093D01*
X44493354Y-97292086D01*
X44543596Y-97157379D01*
X44543598Y-97157372D01*
X44549999Y-97097844D01*
X44550000Y-97097827D01*
X44550000Y-96450000D01*
X43633012Y-96450000D01*
X43665925Y-96392993D01*
X43700000Y-96265826D01*
X43700000Y-96134174D01*
X43665925Y-96007007D01*
X43633012Y-95950000D01*
X44550000Y-95950000D01*
X44550000Y-95302172D01*
X44549999Y-95302155D01*
X44543598Y-95242627D01*
X44543596Y-95242620D01*
X44493354Y-95107913D01*
X44493350Y-95107906D01*
X44407190Y-94992812D01*
X44407187Y-94992809D01*
X44292093Y-94906649D01*
X44292086Y-94906645D01*
X44157379Y-94856403D01*
X44157372Y-94856401D01*
X44097844Y-94850000D01*
X43450000Y-94850000D01*
X43450000Y-95766988D01*
X43392993Y-95734075D01*
X43265826Y-95700000D01*
X43134174Y-95700000D01*
X43007007Y-95734075D01*
X42950000Y-95766988D01*
X42950000Y-94850000D01*
X42302155Y-94850000D01*
X42242627Y-94856401D01*
X42242620Y-94856403D01*
X42107913Y-94906645D01*
X42107906Y-94906649D01*
X41992812Y-94992809D01*
X41992809Y-94992812D01*
X41906649Y-95107906D01*
X41906645Y-95107913D01*
X41856403Y-95242620D01*
X41856401Y-95242627D01*
X41850000Y-95302155D01*
X41850000Y-95950000D01*
X42766988Y-95950000D01*
X42734075Y-96007007D01*
X42700000Y-96134174D01*
X42700000Y-96265826D01*
X42734075Y-96392993D01*
X42766988Y-96450000D01*
X41850000Y-96450000D01*
X41850000Y-97097844D01*
X28500500Y-97097844D01*
X28500500Y-83032546D01*
X30193200Y-83032546D01*
X30223961Y-83187189D01*
X30223964Y-83187201D01*
X30284302Y-83332872D01*
X30284309Y-83332885D01*
X30371910Y-83463988D01*
X30371913Y-83463992D01*
X32813181Y-85905259D01*
X32846666Y-85966582D01*
X32849500Y-85992940D01*
X32849500Y-86854856D01*
X32849502Y-86854882D01*
X32852413Y-86879987D01*
X32852415Y-86879991D01*
X32897793Y-86982764D01*
X32897794Y-86982765D01*
X32977235Y-87062206D01*
X33080009Y-87107585D01*
X33105135Y-87110500D01*
X33237483Y-87110499D01*
X33304520Y-87130183D01*
X33350275Y-87182987D01*
X33360219Y-87252145D01*
X33331195Y-87315701D01*
X33308605Y-87336074D01*
X33128922Y-87461890D01*
X33128920Y-87461891D01*
X32961891Y-87628920D01*
X32961886Y-87628926D01*
X32826400Y-87822420D01*
X32826399Y-87822422D01*
X32726570Y-88036507D01*
X32726567Y-88036513D01*
X32669364Y-88249999D01*
X32669364Y-88250000D01*
X33566988Y-88250000D01*
X33534075Y-88307007D01*
X33500000Y-88434174D01*
X33500000Y-88565826D01*
X33534075Y-88692993D01*
X33566988Y-88750000D01*
X32669364Y-88750000D01*
X32726567Y-88963486D01*
X32726570Y-88963492D01*
X32826399Y-89177578D01*
X32961894Y-89371082D01*
X33128917Y-89538105D01*
X33322421Y-89673600D01*
X33536507Y-89773429D01*
X33536516Y-89773433D01*
X33750000Y-89830634D01*
X33750000Y-88933012D01*
X33807007Y-88965925D01*
X33934174Y-89000000D01*
X34065826Y-89000000D01*
X34192993Y-88965925D01*
X34250000Y-88933012D01*
X34250000Y-89830633D01*
X34463483Y-89773433D01*
X34463492Y-89773429D01*
X34677578Y-89673600D01*
X34871082Y-89538105D01*
X35038105Y-89371082D01*
X35173600Y-89177578D01*
X35273429Y-88963492D01*
X35273432Y-88963486D01*
X35330636Y-88750000D01*
X34433012Y-88750000D01*
X34465925Y-88692993D01*
X34500000Y-88565826D01*
X34500000Y-88434174D01*
X34465925Y-88307007D01*
X34433012Y-88250000D01*
X35330636Y-88250000D01*
X35330635Y-88249999D01*
X35273432Y-88036513D01*
X35273429Y-88036507D01*
X35173600Y-87822422D01*
X35173599Y-87822420D01*
X35038113Y-87628926D01*
X35038108Y-87628920D01*
X34871082Y-87461894D01*
X34691394Y-87336074D01*
X34647769Y-87281496D01*
X34640577Y-87211998D01*
X34672099Y-87149643D01*
X34732329Y-87114230D01*
X34762517Y-87110499D01*
X34894864Y-87110499D01*
X34894879Y-87110497D01*
X34894882Y-87110497D01*
X34919987Y-87107586D01*
X34919988Y-87107585D01*
X34919991Y-87107585D01*
X35022765Y-87062206D01*
X35102206Y-86982765D01*
X35147585Y-86879991D01*
X35150500Y-86854865D01*
X35150499Y-85065136D01*
X35150159Y-85062206D01*
X35147586Y-85040012D01*
X35147585Y-85040010D01*
X35147585Y-85040009D01*
X35102206Y-84937235D01*
X35022765Y-84857794D01*
X34999087Y-84847339D01*
X34919992Y-84812415D01*
X34894868Y-84809500D01*
X34894865Y-84809500D01*
X34032940Y-84809500D01*
X33965901Y-84789815D01*
X33945259Y-84773181D01*
X31830519Y-82658441D01*
X31797034Y-82597118D01*
X31794200Y-82570760D01*
X31794200Y-82186640D01*
X31813885Y-82119601D01*
X31866689Y-82073846D01*
X31935847Y-82063902D01*
X31999403Y-82092927D01*
X32005881Y-82098959D01*
X34040611Y-84133689D01*
X34140574Y-84233652D01*
X34152112Y-84245190D01*
X34283214Y-84332790D01*
X34283227Y-84332797D01*
X34428898Y-84393135D01*
X34428903Y-84393137D01*
X34583553Y-84423899D01*
X34583556Y-84423900D01*
X34583558Y-84423900D01*
X37676860Y-84423900D01*
X37743899Y-84443585D01*
X37764541Y-84460219D01*
X39584252Y-86279930D01*
X39617737Y-86341253D01*
X39612753Y-86410945D01*
X39570881Y-86466878D01*
X39505417Y-86491295D01*
X39464478Y-86487386D01*
X39244158Y-86428352D01*
X39206135Y-86423346D01*
X39016661Y-86398400D01*
X39016654Y-86398400D01*
X38787186Y-86398400D01*
X38787178Y-86398400D01*
X38570635Y-86426909D01*
X38559682Y-86428352D01*
X38465996Y-86453454D01*
X38338032Y-86487742D01*
X38126043Y-86575550D01*
X38126029Y-86575557D01*
X37927302Y-86690292D01*
X37745258Y-86829981D01*
X37583001Y-86992238D01*
X37443312Y-87174282D01*
X37328577Y-87373009D01*
X37328570Y-87373023D01*
X37240762Y-87585012D01*
X37181373Y-87806659D01*
X37181371Y-87806670D01*
X37151420Y-88034158D01*
X37151420Y-88263641D01*
X37173872Y-88434174D01*
X37181372Y-88491138D01*
X37235458Y-88692993D01*
X37240762Y-88712787D01*
X37328570Y-88924776D01*
X37328577Y-88924790D01*
X37443312Y-89123517D01*
X37583001Y-89305561D01*
X37583009Y-89305570D01*
X37745250Y-89467811D01*
X37745258Y-89467818D01*
X37927302Y-89607507D01*
X37927305Y-89607508D01*
X37927308Y-89607511D01*
X38126032Y-89722244D01*
X38126037Y-89722246D01*
X38126043Y-89722249D01*
X38217400Y-89760090D01*
X38338033Y-89810058D01*
X38559682Y-89869448D01*
X38787186Y-89899400D01*
X38787193Y-89899400D01*
X39016647Y-89899400D01*
X39016654Y-89899400D01*
X39244158Y-89869448D01*
X39465807Y-89810058D01*
X39677808Y-89722244D01*
X39876532Y-89607511D01*
X40058581Y-89467819D01*
X40058585Y-89467814D01*
X40058590Y-89467811D01*
X40220831Y-89305570D01*
X40220834Y-89305565D01*
X40220839Y-89305561D01*
X40360531Y-89123512D01*
X40475264Y-88924788D01*
X40563078Y-88712787D01*
X40622468Y-88491138D01*
X40652420Y-88263634D01*
X40652420Y-88034166D01*
X40622468Y-87806662D01*
X40563433Y-87586338D01*
X40565096Y-87516491D01*
X40604259Y-87458629D01*
X40668487Y-87431125D01*
X40737389Y-87442712D01*
X40770889Y-87466567D01*
X46629181Y-93324859D01*
X46662666Y-93386182D01*
X46665500Y-93412540D01*
X46665500Y-98798846D01*
X46696261Y-98953489D01*
X46696264Y-98953501D01*
X46756602Y-99099172D01*
X46756609Y-99099185D01*
X46844210Y-99230288D01*
X46844213Y-99230292D01*
X46955707Y-99341786D01*
X46955711Y-99341789D01*
X47086814Y-99429390D01*
X47086827Y-99429397D01*
X47232498Y-99489735D01*
X47232503Y-99489737D01*
X47376631Y-99518406D01*
X47387153Y-99520499D01*
X47387156Y-99520500D01*
X47387158Y-99520500D01*
X47544842Y-99520500D01*
X48438324Y-99520500D01*
X48505363Y-99540185D01*
X48521862Y-99552863D01*
X48567884Y-99594817D01*
X48619698Y-99642052D01*
X48800981Y-99754298D01*
X48999802Y-99831321D01*
X49209390Y-99870500D01*
X49209392Y-99870500D01*
X49422608Y-99870500D01*
X49422610Y-99870500D01*
X49632198Y-99831321D01*
X49831019Y-99754298D01*
X50012302Y-99642052D01*
X50169872Y-99498407D01*
X50298366Y-99328255D01*
X50298367Y-99328253D01*
X50393403Y-99137394D01*
X50393403Y-99137393D01*
X50393405Y-99137389D01*
X50451756Y-98932310D01*
X50471429Y-98720000D01*
X50451756Y-98507690D01*
X50393405Y-98302611D01*
X50393403Y-98302606D01*
X50393403Y-98302605D01*
X50298367Y-98111746D01*
X50169872Y-97941593D01*
X50167576Y-97939500D01*
X50012302Y-97797948D01*
X50012299Y-97797946D01*
X50012298Y-97797945D01*
X49950089Y-97759427D01*
X49903453Y-97707399D01*
X49892349Y-97638418D01*
X49920302Y-97574383D01*
X49978437Y-97535627D01*
X50015366Y-97530000D01*
X50213828Y-97530000D01*
X50213844Y-97529999D01*
X50273372Y-97523598D01*
X50273379Y-97523596D01*
X50408086Y-97473354D01*
X50408093Y-97473350D01*
X50523187Y-97387190D01*
X50523190Y-97387187D01*
X50609350Y-97272093D01*
X50609354Y-97272086D01*
X50659596Y-97137379D01*
X50659598Y-97137372D01*
X50663848Y-97097844D01*
X52850000Y-97097844D01*
X52856401Y-97157372D01*
X52856403Y-97157379D01*
X52906645Y-97292086D01*
X52906649Y-97292093D01*
X52992809Y-97407187D01*
X52992812Y-97407190D01*
X53107906Y-97493350D01*
X53107913Y-97493354D01*
X53242620Y-97543596D01*
X53242627Y-97543598D01*
X53302155Y-97549999D01*
X53302172Y-97550000D01*
X53500634Y-97550000D01*
X53567673Y-97569685D01*
X53613428Y-97622489D01*
X53623372Y-97691647D01*
X53594347Y-97755203D01*
X53565911Y-97779427D01*
X53503701Y-97817945D01*
X53346127Y-97961593D01*
X53217632Y-98131746D01*
X53122596Y-98322605D01*
X53122596Y-98322607D01*
X53069935Y-98507690D01*
X53064244Y-98527690D01*
X53044571Y-98740000D01*
X53064244Y-98952310D01*
X53116904Y-99137389D01*
X53122596Y-99157392D01*
X53122596Y-99157394D01*
X53217632Y-99348253D01*
X53346127Y-99518406D01*
X53346128Y-99518407D01*
X53503698Y-99662052D01*
X53684981Y-99774298D01*
X53883802Y-99851321D01*
X54093390Y-99890500D01*
X54093392Y-99890500D01*
X54306608Y-99890500D01*
X54306610Y-99890500D01*
X54516198Y-99851321D01*
X54715019Y-99774298D01*
X54896302Y-99662052D01*
X54945046Y-99617615D01*
X54994138Y-99572863D01*
X55056942Y-99542246D01*
X55077676Y-99540500D01*
X55667060Y-99540500D01*
X55734099Y-99560185D01*
X55754741Y-99576819D01*
X59220711Y-103042789D01*
X59332211Y-103154289D01*
X59332212Y-103154290D01*
X59463314Y-103241890D01*
X59463327Y-103241897D01*
X59608998Y-103302235D01*
X59609003Y-103302237D01*
X59763653Y-103332999D01*
X59763656Y-103333000D01*
X59763658Y-103333000D01*
X98217060Y-103333000D01*
X98284099Y-103352685D01*
X98304741Y-103369319D01*
X99839707Y-104904286D01*
X99839711Y-104904289D01*
X99970814Y-104991890D01*
X99970818Y-104991892D01*
X99970821Y-104991894D01*
X100116503Y-105052238D01*
X100271153Y-105082999D01*
X100271157Y-105083000D01*
X100271158Y-105083000D01*
X100428843Y-105083000D01*
X100963011Y-105083000D01*
X101030050Y-105102685D01*
X101075805Y-105155489D01*
X101076392Y-105156795D01*
X101097794Y-105205265D01*
X101177235Y-105284706D01*
X101280009Y-105330085D01*
X101305135Y-105333000D01*
X102105999Y-105332999D01*
X102153453Y-105342438D01*
X102159002Y-105344737D01*
X102313652Y-105375499D01*
X102313655Y-105375500D01*
X102313657Y-105375500D01*
X105431444Y-105375500D01*
X105431445Y-105375499D01*
X105586097Y-105344737D01*
X105731779Y-105284394D01*
X105862889Y-105196789D01*
X106938390Y-104121288D01*
X111149500Y-104121288D01*
X111181161Y-104361785D01*
X111243947Y-104596104D01*
X111336773Y-104820205D01*
X111336776Y-104820212D01*
X111458064Y-105030289D01*
X111458066Y-105030292D01*
X111458067Y-105030293D01*
X111605733Y-105222736D01*
X111605739Y-105222743D01*
X111777256Y-105394260D01*
X111777262Y-105394265D01*
X111969711Y-105541936D01*
X112179788Y-105663224D01*
X112403900Y-105756054D01*
X112638211Y-105818838D01*
X112818586Y-105842584D01*
X112878711Y-105850500D01*
X112878712Y-105850500D01*
X113121289Y-105850500D01*
X113169388Y-105844167D01*
X113361789Y-105818838D01*
X113596100Y-105756054D01*
X113820212Y-105663224D01*
X114030289Y-105541936D01*
X114222738Y-105394265D01*
X114394265Y-105222738D01*
X114541936Y-105030289D01*
X114663224Y-104820212D01*
X114756054Y-104596100D01*
X114818838Y-104361789D01*
X114850500Y-104121288D01*
X114850500Y-103878712D01*
X114818838Y-103638211D01*
X114756054Y-103403900D01*
X114663224Y-103179788D01*
X114541936Y-102969711D01*
X114462222Y-102865825D01*
X114394266Y-102777263D01*
X114394260Y-102777256D01*
X114222743Y-102605739D01*
X114222736Y-102605733D01*
X114030293Y-102458067D01*
X114030292Y-102458066D01*
X114030289Y-102458064D01*
X113820212Y-102336776D01*
X113820205Y-102336773D01*
X113596104Y-102243947D01*
X113361785Y-102181161D01*
X113121289Y-102149500D01*
X113121288Y-102149500D01*
X112878712Y-102149500D01*
X112878711Y-102149500D01*
X112638214Y-102181161D01*
X112403895Y-102243947D01*
X112179794Y-102336773D01*
X112179785Y-102336777D01*
X111969706Y-102458067D01*
X111777263Y-102605733D01*
X111777256Y-102605739D01*
X111605739Y-102777256D01*
X111605733Y-102777263D01*
X111458067Y-102969706D01*
X111336777Y-103179785D01*
X111336773Y-103179794D01*
X111243947Y-103403895D01*
X111181161Y-103638214D01*
X111149500Y-103878711D01*
X111149500Y-104121288D01*
X106938390Y-104121288D01*
X113334288Y-97725390D01*
X113334289Y-97725389D01*
X113421894Y-97594279D01*
X113482237Y-97448597D01*
X113505938Y-97329448D01*
X113513000Y-97293943D01*
X113513000Y-97136258D01*
X113513000Y-90235142D01*
X113532685Y-90168103D01*
X113585489Y-90122348D01*
X113654647Y-90112404D01*
X113708124Y-90133568D01*
X113822414Y-90213595D01*
X113822420Y-90213599D01*
X114036507Y-90313429D01*
X114036516Y-90313433D01*
X114250000Y-90370634D01*
X114250000Y-89473012D01*
X114307007Y-89505925D01*
X114434174Y-89540000D01*
X114565826Y-89540000D01*
X114692993Y-89505925D01*
X114750000Y-89473012D01*
X114750000Y-90370633D01*
X114963483Y-90313433D01*
X114963492Y-90313429D01*
X115177578Y-90213600D01*
X115371082Y-90078105D01*
X115538105Y-89911082D01*
X115673600Y-89717578D01*
X115773429Y-89503492D01*
X115773432Y-89503486D01*
X115830636Y-89290000D01*
X114933012Y-89290000D01*
X114965925Y-89232993D01*
X115000000Y-89105826D01*
X115000000Y-88974174D01*
X114965925Y-88847007D01*
X114933012Y-88790000D01*
X115830636Y-88790000D01*
X115830635Y-88789999D01*
X115773432Y-88576513D01*
X115773429Y-88576507D01*
X115673600Y-88362422D01*
X115673599Y-88362420D01*
X115538113Y-88168926D01*
X115538108Y-88168920D01*
X115371082Y-88001894D01*
X115177578Y-87866399D01*
X114978426Y-87773533D01*
X114925987Y-87727360D01*
X114906835Y-87660167D01*
X114927051Y-87593286D01*
X114980216Y-87547951D01*
X114986005Y-87545537D01*
X115015019Y-87534298D01*
X115196302Y-87422052D01*
X115250099Y-87373009D01*
X115294138Y-87332863D01*
X115356942Y-87302246D01*
X115377676Y-87300500D01*
X116428844Y-87300500D01*
X116428845Y-87300499D01*
X116583497Y-87269737D01*
X116696166Y-87223067D01*
X116729172Y-87209397D01*
X116729172Y-87209396D01*
X116729179Y-87209394D01*
X116860289Y-87121789D01*
X116971789Y-87010289D01*
X117059394Y-86879179D01*
X117119737Y-86733497D01*
X117150500Y-86578842D01*
X117150500Y-59771158D01*
X117150500Y-59771155D01*
X117150499Y-59771153D01*
X117119737Y-59616503D01*
X117072264Y-59501891D01*
X117059397Y-59470827D01*
X117059390Y-59470814D01*
X116971790Y-59339712D01*
X116971789Y-59339711D01*
X116860289Y-59228211D01*
X115689472Y-58057394D01*
X115655987Y-57996071D01*
X115653683Y-57981165D01*
X115635756Y-57787690D01*
X115577405Y-57582611D01*
X115577403Y-57582606D01*
X115577403Y-57582605D01*
X115482367Y-57391746D01*
X115353872Y-57221593D01*
X115308044Y-57179815D01*
X115196302Y-57077948D01*
X115015019Y-56965702D01*
X115015017Y-56965701D01*
X114915608Y-56927190D01*
X114816198Y-56888679D01*
X114643456Y-56856387D01*
X114581176Y-56824719D01*
X114545903Y-56764407D01*
X114548837Y-56694599D01*
X114589046Y-56637459D01*
X114653764Y-56611128D01*
X114666233Y-56610499D01*
X115394864Y-56610499D01*
X115394879Y-56610497D01*
X115394882Y-56610497D01*
X115419987Y-56607586D01*
X115419988Y-56607585D01*
X115419991Y-56607585D01*
X115522765Y-56562206D01*
X115602206Y-56482765D01*
X115647585Y-56379991D01*
X115650500Y-56354865D01*
X115650499Y-54565136D01*
X115650497Y-54565117D01*
X115647586Y-54540012D01*
X115647585Y-54540010D01*
X115647585Y-54540009D01*
X115602206Y-54437235D01*
X115522765Y-54357794D01*
X115496231Y-54346078D01*
X115419992Y-54312415D01*
X115394865Y-54309500D01*
X113605143Y-54309500D01*
X113605117Y-54309502D01*
X113580012Y-54312413D01*
X113580008Y-54312415D01*
X113477235Y-54357793D01*
X113397794Y-54437234D01*
X113352415Y-54540006D01*
X113352415Y-54540008D01*
X113349500Y-54565131D01*
X113349500Y-56354856D01*
X113349502Y-56354882D01*
X113352413Y-56379987D01*
X113352415Y-56379991D01*
X113397793Y-56482764D01*
X113397794Y-56482765D01*
X113477235Y-56562206D01*
X113580009Y-56607585D01*
X113605135Y-56610500D01*
X114333758Y-56610499D01*
X114400795Y-56630183D01*
X114446550Y-56682987D01*
X114456494Y-56752146D01*
X114427469Y-56815702D01*
X114368691Y-56853476D01*
X114356542Y-56856388D01*
X114300116Y-56866935D01*
X114183802Y-56888679D01*
X114183800Y-56888679D01*
X114183798Y-56888680D01*
X113984982Y-56965701D01*
X113984980Y-56965702D01*
X113803699Y-57077947D01*
X113646127Y-57221593D01*
X113517632Y-57391746D01*
X113422596Y-57582605D01*
X113422596Y-57582607D01*
X113364244Y-57787689D01*
X113344571Y-57999999D01*
X113344571Y-58000000D01*
X113364244Y-58212310D01*
X113422596Y-58417392D01*
X113422596Y-58417394D01*
X113517632Y-58608253D01*
X113639581Y-58769738D01*
X113646128Y-58778407D01*
X113803698Y-58922052D01*
X113984981Y-59034298D01*
X114013961Y-59045525D01*
X114069362Y-59088095D01*
X114092954Y-59153861D01*
X114077244Y-59221942D01*
X114027222Y-59270722D01*
X114021573Y-59273533D01*
X113822422Y-59366399D01*
X113822420Y-59366400D01*
X113628926Y-59501886D01*
X113628920Y-59501891D01*
X113461891Y-59668920D01*
X113461886Y-59668926D01*
X113326400Y-59862420D01*
X113326399Y-59862422D01*
X113226570Y-60076507D01*
X113226567Y-60076513D01*
X113169364Y-60289999D01*
X113169364Y-60290000D01*
X114066988Y-60290000D01*
X114034075Y-60347007D01*
X114000000Y-60474174D01*
X114000000Y-60605826D01*
X114034075Y-60732993D01*
X114066988Y-60790000D01*
X113169364Y-60790000D01*
X113226567Y-61003486D01*
X113226570Y-61003492D01*
X113326399Y-61217578D01*
X113461894Y-61411082D01*
X113628917Y-61578105D01*
X113822421Y-61713600D01*
X114036507Y-61813429D01*
X114036516Y-61813433D01*
X114250000Y-61870634D01*
X114250000Y-60973012D01*
X114307007Y-61005925D01*
X114434174Y-61040000D01*
X114565826Y-61040000D01*
X114692993Y-61005925D01*
X114750000Y-60973012D01*
X114750000Y-61870633D01*
X114963483Y-61813433D01*
X114963492Y-61813429D01*
X115177579Y-61713599D01*
X115177585Y-61713595D01*
X115354376Y-61589804D01*
X115420582Y-61567476D01*
X115488349Y-61584486D01*
X115536162Y-61635433D01*
X115549500Y-61691378D01*
X115549500Y-82688222D01*
X115529815Y-82755261D01*
X115477011Y-82801016D01*
X115411210Y-82811396D01*
X115394866Y-82809500D01*
X113605143Y-82809500D01*
X113605117Y-82809502D01*
X113580012Y-82812413D01*
X113580008Y-82812415D01*
X113477235Y-82857793D01*
X113397794Y-82937234D01*
X113352415Y-83040006D01*
X113352415Y-83040008D01*
X113349500Y-83065131D01*
X113349500Y-83927059D01*
X113329815Y-83994098D01*
X113313181Y-84014740D01*
X112096145Y-85231777D01*
X110900511Y-86427411D01*
X110861044Y-86466878D01*
X110789009Y-86538912D01*
X110701409Y-86670014D01*
X110701402Y-86670027D01*
X110641064Y-86815698D01*
X110641061Y-86815710D01*
X110610300Y-86970353D01*
X110610300Y-93318759D01*
X110590615Y-93385798D01*
X110573981Y-93406440D01*
X105902141Y-98078279D01*
X105840818Y-98111764D01*
X105771126Y-98106780D01*
X105715193Y-98064908D01*
X105690776Y-97999444D01*
X105691056Y-97978454D01*
X105695583Y-97932500D01*
X105675300Y-97726566D01*
X105615232Y-97528546D01*
X105517685Y-97346050D01*
X105465702Y-97282709D01*
X105386410Y-97186089D01*
X105254490Y-97077827D01*
X105226450Y-97054815D01*
X105043954Y-96957268D01*
X104845934Y-96897200D01*
X104845932Y-96897199D01*
X104845934Y-96897199D01*
X104640000Y-96876917D01*
X104434067Y-96897199D01*
X104236043Y-96957269D01*
X104125898Y-97016143D01*
X104053550Y-97054815D01*
X104053548Y-97054816D01*
X104053547Y-97054817D01*
X103893589Y-97186089D01*
X103762317Y-97346047D01*
X103664769Y-97528543D01*
X103604699Y-97726567D01*
X103584417Y-97932500D01*
X103604699Y-98138432D01*
X103613426Y-98167200D01*
X103664768Y-98336454D01*
X103762315Y-98518950D01*
X103762317Y-98518952D01*
X103893589Y-98678910D01*
X103968029Y-98740000D01*
X104053550Y-98810185D01*
X104236046Y-98907732D01*
X104434066Y-98967800D01*
X104434065Y-98967800D01*
X104456563Y-98970015D01*
X104640000Y-98988083D01*
X104685945Y-98983557D01*
X104754588Y-98996575D01*
X104805299Y-99044639D01*
X104821975Y-99112490D01*
X104799320Y-99178585D01*
X104785779Y-99194641D01*
X104586520Y-99393900D01*
X104525197Y-99427385D01*
X104510995Y-99429622D01*
X104434067Y-99437199D01*
X104236043Y-99497269D01*
X104155165Y-99540500D01*
X104053550Y-99594815D01*
X104053548Y-99594816D01*
X104053547Y-99594817D01*
X103893589Y-99726089D01*
X103775076Y-99870500D01*
X103762315Y-99886050D01*
X103748503Y-99911890D01*
X103664769Y-100068543D01*
X103604699Y-100266567D01*
X103584417Y-100472500D01*
X103604699Y-100678432D01*
X103613426Y-100707200D01*
X103664768Y-100876454D01*
X103762315Y-101058950D01*
X103762317Y-101058952D01*
X103893589Y-101218910D01*
X103990209Y-101298202D01*
X104053550Y-101350185D01*
X104236046Y-101447732D01*
X104434066Y-101507800D01*
X104434065Y-101507800D01*
X104458255Y-101510182D01*
X104547673Y-101518989D01*
X104612459Y-101545150D01*
X104640431Y-101584680D01*
X104658202Y-101553330D01*
X104720049Y-101520823D01*
X104732317Y-101518990D01*
X104845934Y-101507800D01*
X105043954Y-101447732D01*
X105226450Y-101350185D01*
X105386410Y-101218910D01*
X105517685Y-101058950D01*
X105615232Y-100876454D01*
X105675300Y-100678434D01*
X105682876Y-100601504D01*
X105709036Y-100536719D01*
X105718589Y-100525987D01*
X111700321Y-94544256D01*
X111761642Y-94510773D01*
X111831334Y-94515757D01*
X111887267Y-94557629D01*
X111911684Y-94623093D01*
X111912000Y-94631939D01*
X111912000Y-96832159D01*
X111892315Y-96899198D01*
X111875681Y-96919840D01*
X106054037Y-102741483D01*
X105992714Y-102774968D01*
X105923022Y-102769984D01*
X105867089Y-102728112D01*
X105846581Y-102685894D01*
X105819106Y-102583351D01*
X105819101Y-102583340D01*
X105726667Y-102385114D01*
X105726666Y-102385112D01*
X105683124Y-102322928D01*
X105683124Y-102322927D01*
X105020000Y-102986051D01*
X105020000Y-102962472D01*
X104994104Y-102865825D01*
X104944076Y-102779175D01*
X104873325Y-102708424D01*
X104786675Y-102658396D01*
X104690028Y-102632500D01*
X104666447Y-102632500D01*
X105329571Y-101969374D01*
X105267387Y-101925833D01*
X105069159Y-101833398D01*
X105069150Y-101833394D01*
X104857894Y-101776789D01*
X104857884Y-101776787D01*
X104733673Y-101765920D01*
X104668604Y-101740467D01*
X104639494Y-101700266D01*
X104620821Y-101732389D01*
X104558623Y-101764220D01*
X104546326Y-101765920D01*
X104422115Y-101776787D01*
X104422105Y-101776789D01*
X104210849Y-101833394D01*
X104210840Y-101833398D01*
X104012613Y-101925833D01*
X103950428Y-101969374D01*
X104613554Y-102632500D01*
X104589972Y-102632500D01*
X104493325Y-102658396D01*
X104406675Y-102708424D01*
X104335924Y-102779175D01*
X104285896Y-102865825D01*
X104260000Y-102962472D01*
X104260000Y-102986054D01*
X103596874Y-102322928D01*
X103553333Y-102385113D01*
X103460898Y-102583340D01*
X103460894Y-102583349D01*
X103404289Y-102794605D01*
X103404287Y-102794615D01*
X103385225Y-103012499D01*
X103385225Y-103012500D01*
X103404287Y-103230384D01*
X103404289Y-103230394D01*
X103460894Y-103441650D01*
X103460898Y-103441659D01*
X103533845Y-103598095D01*
X103544337Y-103667173D01*
X103515817Y-103730957D01*
X103457341Y-103769196D01*
X103421463Y-103774500D01*
X103274499Y-103774500D01*
X103207460Y-103754815D01*
X103161705Y-103702011D01*
X103150499Y-103650500D01*
X103150499Y-103487643D01*
X103150499Y-103487636D01*
X103150497Y-103487617D01*
X103147586Y-103462512D01*
X103147585Y-103462510D01*
X103147585Y-103462509D01*
X103102206Y-103359735D01*
X103022765Y-103280294D01*
X103018412Y-103278372D01*
X102919992Y-103234915D01*
X102894865Y-103232000D01*
X101305143Y-103232000D01*
X101305117Y-103232002D01*
X101280012Y-103234913D01*
X101280008Y-103234915D01*
X101177235Y-103280293D01*
X101097795Y-103359733D01*
X101097794Y-103359734D01*
X101097794Y-103359735D01*
X101076443Y-103408088D01*
X101031360Y-103461462D01*
X100964574Y-103481990D01*
X100963011Y-103482000D01*
X100732940Y-103482000D01*
X100665901Y-103462315D01*
X100645259Y-103445681D01*
X99110292Y-101910713D01*
X99110288Y-101910710D01*
X98979185Y-101823109D01*
X98979172Y-101823102D01*
X98833501Y-101762764D01*
X98833489Y-101762761D01*
X98731631Y-101742500D01*
X101044417Y-101742500D01*
X101064699Y-101948432D01*
X101064700Y-101948434D01*
X101124768Y-102146454D01*
X101222315Y-102328950D01*
X101256969Y-102371177D01*
X101353589Y-102488910D01*
X101450209Y-102568202D01*
X101513550Y-102620185D01*
X101696046Y-102717732D01*
X101894066Y-102777800D01*
X101894065Y-102777800D01*
X101908026Y-102779175D01*
X102100000Y-102798083D01*
X102305934Y-102777800D01*
X102503954Y-102717732D01*
X102686450Y-102620185D01*
X102846410Y-102488910D01*
X102977685Y-102328950D01*
X103075232Y-102146454D01*
X103135300Y-101948434D01*
X103155583Y-101742500D01*
X103135300Y-101536566D01*
X103075232Y-101338546D01*
X102977685Y-101156050D01*
X102897998Y-101058950D01*
X102846410Y-100996089D01*
X102728677Y-100899469D01*
X102686450Y-100864815D01*
X102503954Y-100767268D01*
X102305934Y-100707200D01*
X102305932Y-100707199D01*
X102305934Y-100707199D01*
X102100000Y-100686917D01*
X101894067Y-100707199D01*
X101696043Y-100767269D01*
X101585898Y-100826143D01*
X101513550Y-100864815D01*
X101513548Y-100864816D01*
X101513547Y-100864817D01*
X101353589Y-100996089D01*
X101222317Y-101156047D01*
X101124769Y-101338543D01*
X101064699Y-101536567D01*
X101044417Y-101742500D01*
X98731631Y-101742500D01*
X98678845Y-101732000D01*
X98678842Y-101732000D01*
X60225440Y-101732000D01*
X60158401Y-101712315D01*
X60137759Y-101695681D01*
X56560292Y-98118213D01*
X56560288Y-98118210D01*
X56429185Y-98030609D01*
X56429172Y-98030602D01*
X56283501Y-97970264D01*
X56283489Y-97970261D01*
X56128845Y-97939500D01*
X56128842Y-97939500D01*
X55077676Y-97939500D01*
X55010637Y-97919815D01*
X54994138Y-97907137D01*
X54896302Y-97817948D01*
X54896300Y-97817946D01*
X54834089Y-97779427D01*
X54787453Y-97727399D01*
X54776349Y-97658418D01*
X54804302Y-97594383D01*
X54862437Y-97555627D01*
X54899366Y-97550000D01*
X55097828Y-97550000D01*
X55097844Y-97549999D01*
X55157372Y-97543598D01*
X55157379Y-97543596D01*
X55292086Y-97493354D01*
X55292093Y-97493350D01*
X55407187Y-97407190D01*
X55407190Y-97407187D01*
X55493350Y-97292093D01*
X55493354Y-97292086D01*
X55543596Y-97157379D01*
X55543598Y-97157372D01*
X55549999Y-97097844D01*
X55550000Y-97097827D01*
X55550000Y-96450000D01*
X54633012Y-96450000D01*
X54665925Y-96392993D01*
X54700000Y-96265826D01*
X54700000Y-96134174D01*
X54665925Y-96007007D01*
X54633012Y-95950000D01*
X55550000Y-95950000D01*
X55550000Y-95302172D01*
X55549999Y-95302155D01*
X55543598Y-95242627D01*
X55543596Y-95242620D01*
X55493354Y-95107913D01*
X55493350Y-95107906D01*
X55407190Y-94992812D01*
X55407187Y-94992809D01*
X55292093Y-94906649D01*
X55292086Y-94906645D01*
X55157379Y-94856403D01*
X55157372Y-94856401D01*
X55097844Y-94850000D01*
X54450000Y-94850000D01*
X54450000Y-95766988D01*
X54392993Y-95734075D01*
X54265826Y-95700000D01*
X54134174Y-95700000D01*
X54007007Y-95734075D01*
X53950000Y-95766988D01*
X53950000Y-94850000D01*
X53302155Y-94850000D01*
X53242627Y-94856401D01*
X53242620Y-94856403D01*
X53107913Y-94906645D01*
X53107906Y-94906649D01*
X52992812Y-94992809D01*
X52992809Y-94992812D01*
X52906649Y-95107906D01*
X52906645Y-95107913D01*
X52856403Y-95242620D01*
X52856401Y-95242627D01*
X52850000Y-95302155D01*
X52850000Y-95950000D01*
X53766988Y-95950000D01*
X53734075Y-96007007D01*
X53700000Y-96134174D01*
X53700000Y-96265826D01*
X53734075Y-96392993D01*
X53766988Y-96450000D01*
X52850000Y-96450000D01*
X52850000Y-97097844D01*
X50663848Y-97097844D01*
X50665999Y-97077844D01*
X50666000Y-97077827D01*
X50666000Y-96430000D01*
X49749012Y-96430000D01*
X49781925Y-96372993D01*
X49816000Y-96245826D01*
X49816000Y-96114174D01*
X49781925Y-95987007D01*
X49749012Y-95930000D01*
X50666000Y-95930000D01*
X50666000Y-95282172D01*
X50665999Y-95282155D01*
X50659598Y-95222627D01*
X50659596Y-95222620D01*
X50609354Y-95087913D01*
X50609350Y-95087906D01*
X50523190Y-94972812D01*
X50523187Y-94972809D01*
X50408093Y-94886649D01*
X50408086Y-94886645D01*
X50273379Y-94836403D01*
X50273372Y-94836401D01*
X50213844Y-94830000D01*
X49566000Y-94830000D01*
X49566000Y-95746988D01*
X49508993Y-95714075D01*
X49381826Y-95680000D01*
X49250174Y-95680000D01*
X49123007Y-95714075D01*
X49066000Y-95746988D01*
X49066000Y-94830000D01*
X48418172Y-94830000D01*
X48403755Y-94831550D01*
X48334996Y-94819144D01*
X48283858Y-94771534D01*
X48266500Y-94708260D01*
X48266500Y-92950757D01*
X48266499Y-92950753D01*
X48256357Y-92899763D01*
X48235738Y-92796103D01*
X48175394Y-92650421D01*
X48175392Y-92650418D01*
X48175390Y-92650414D01*
X48087789Y-92519311D01*
X48087786Y-92519307D01*
X40955050Y-85386571D01*
X52880000Y-85386571D01*
X52907085Y-85557584D01*
X52960591Y-85722257D01*
X53039195Y-85876524D01*
X53140967Y-86016602D01*
X53263397Y-86139032D01*
X53403475Y-86240804D01*
X53557744Y-86319408D01*
X53722415Y-86372914D01*
X53722414Y-86372914D01*
X53729999Y-86374115D01*
X53730000Y-86374114D01*
X53730000Y-85215686D01*
X53734394Y-85220080D01*
X53825606Y-85272741D01*
X53927339Y-85300000D01*
X54032661Y-85300000D01*
X54134394Y-85272741D01*
X54225606Y-85220080D01*
X54230000Y-85215686D01*
X54230000Y-86374115D01*
X54237584Y-86372914D01*
X54402255Y-86319408D01*
X54556524Y-86240804D01*
X54696602Y-86139032D01*
X54819032Y-86016602D01*
X54920804Y-85876524D01*
X54999408Y-85722257D01*
X55052914Y-85557584D01*
X55079664Y-85388695D01*
X55619500Y-85388695D01*
X55654103Y-85562658D01*
X55654106Y-85562667D01*
X55721983Y-85726540D01*
X55721990Y-85726553D01*
X55820535Y-85874034D01*
X55820538Y-85874038D01*
X55945961Y-85999461D01*
X55945965Y-85999464D01*
X56093446Y-86098009D01*
X56093459Y-86098016D01*
X56216363Y-86148923D01*
X56257334Y-86165894D01*
X56257336Y-86165894D01*
X56257341Y-86165896D01*
X56431304Y-86200499D01*
X56431307Y-86200500D01*
X56431309Y-86200500D01*
X56608693Y-86200500D01*
X56608694Y-86200499D01*
X56666682Y-86188964D01*
X56782658Y-86165896D01*
X56782661Y-86165894D01*
X56782666Y-86165894D01*
X56946547Y-86098013D01*
X57094035Y-85999464D01*
X57219464Y-85874035D01*
X57318013Y-85726547D01*
X57385894Y-85562666D01*
X57405182Y-85465702D01*
X57420499Y-85388695D01*
X57420500Y-85388693D01*
X57420500Y-84411306D01*
X57420499Y-84411304D01*
X57385896Y-84237341D01*
X57385893Y-84237332D01*
X57384372Y-84233661D01*
X57368923Y-84196363D01*
X57318016Y-84073459D01*
X57318009Y-84073446D01*
X57219464Y-83925965D01*
X57219461Y-83925961D01*
X57094038Y-83800538D01*
X57094034Y-83800535D01*
X56946553Y-83701990D01*
X56946540Y-83701983D01*
X56782667Y-83634106D01*
X56782658Y-83634103D01*
X56608694Y-83599500D01*
X56608691Y-83599500D01*
X56431309Y-83599500D01*
X56431306Y-83599500D01*
X56257341Y-83634103D01*
X56257332Y-83634106D01*
X56093459Y-83701983D01*
X56093446Y-83701990D01*
X55945965Y-83800535D01*
X55945961Y-83800538D01*
X55820538Y-83925961D01*
X55820535Y-83925965D01*
X55721990Y-84073446D01*
X55721983Y-84073459D01*
X55654106Y-84237332D01*
X55654103Y-84237341D01*
X55619500Y-84411304D01*
X55619500Y-85388695D01*
X55079664Y-85388695D01*
X55080000Y-85386571D01*
X55080000Y-85150000D01*
X54295686Y-85150000D01*
X54300080Y-85145606D01*
X54352741Y-85054394D01*
X54380000Y-84952661D01*
X54380000Y-84847339D01*
X54352741Y-84745606D01*
X54300080Y-84654394D01*
X54295686Y-84650000D01*
X55080000Y-84650000D01*
X55080000Y-84413428D01*
X55052914Y-84242415D01*
X54999408Y-84077742D01*
X54920804Y-83923475D01*
X54819032Y-83783397D01*
X54696602Y-83660967D01*
X54556524Y-83559195D01*
X54402257Y-83480591D01*
X54237589Y-83427087D01*
X54237581Y-83427085D01*
X54230000Y-83425884D01*
X54230000Y-84584314D01*
X54225606Y-84579920D01*
X54134394Y-84527259D01*
X54032661Y-84500000D01*
X53927339Y-84500000D01*
X53825606Y-84527259D01*
X53734394Y-84579920D01*
X53730000Y-84584314D01*
X53730000Y-83425884D01*
X53729999Y-83425884D01*
X53722418Y-83427085D01*
X53722410Y-83427087D01*
X53557742Y-83480591D01*
X53403475Y-83559195D01*
X53263397Y-83660967D01*
X53140967Y-83783397D01*
X53039195Y-83923475D01*
X52960591Y-84077742D01*
X52907085Y-84242415D01*
X52880000Y-84413428D01*
X52880000Y-84650000D01*
X53664314Y-84650000D01*
X53659920Y-84654394D01*
X53607259Y-84745606D01*
X53580000Y-84847339D01*
X53580000Y-84952661D01*
X53607259Y-85054394D01*
X53659920Y-85145606D01*
X53664314Y-85150000D01*
X52880000Y-85150000D01*
X52880000Y-85386571D01*
X40955050Y-85386571D01*
X38570092Y-83001613D01*
X38570088Y-83001610D01*
X38438985Y-82914009D01*
X38438972Y-82914002D01*
X38293301Y-82853664D01*
X38293289Y-82853661D01*
X38138645Y-82822900D01*
X38138642Y-82822900D01*
X35045340Y-82822900D01*
X34978301Y-82803215D01*
X34957659Y-82786581D01*
X34249428Y-82078350D01*
X34215943Y-82017027D01*
X34220927Y-81947335D01*
X34262799Y-81891402D01*
X34305016Y-81870894D01*
X34463483Y-81828433D01*
X34463492Y-81828429D01*
X34677578Y-81728600D01*
X34871082Y-81593105D01*
X35038105Y-81426082D01*
X35173600Y-81232578D01*
X35273429Y-81018492D01*
X35273432Y-81018486D01*
X35330636Y-80805000D01*
X34433012Y-80805000D01*
X34465925Y-80747993D01*
X34500000Y-80620826D01*
X34500000Y-80489174D01*
X34465925Y-80362007D01*
X34433012Y-80305000D01*
X35330636Y-80305000D01*
X35330635Y-80304999D01*
X35273432Y-80091513D01*
X35273429Y-80091507D01*
X35173600Y-79877422D01*
X35173599Y-79877420D01*
X35038113Y-79683926D01*
X35038108Y-79683920D01*
X34871082Y-79516894D01*
X34677578Y-79381399D01*
X34478426Y-79288533D01*
X34425987Y-79242360D01*
X34406835Y-79175167D01*
X34427051Y-79108286D01*
X34480216Y-79062951D01*
X34486005Y-79060537D01*
X34515019Y-79049298D01*
X34696302Y-78937052D01*
X34853872Y-78793407D01*
X34982366Y-78623255D01*
X35012306Y-78563127D01*
X35077403Y-78432394D01*
X35077403Y-78432393D01*
X35077405Y-78432389D01*
X35135756Y-78227310D01*
X35155429Y-78015000D01*
X35135756Y-77802690D01*
X35077405Y-77597611D01*
X35077403Y-77597606D01*
X35077403Y-77597605D01*
X34982367Y-77406746D01*
X34853872Y-77236593D01*
X34764653Y-77155259D01*
X34696302Y-77092948D01*
X34515019Y-76980702D01*
X34515017Y-76980701D01*
X34325018Y-76907096D01*
X34316198Y-76903679D01*
X34143453Y-76871387D01*
X34081174Y-76839720D01*
X34045901Y-76779407D01*
X34048835Y-76709599D01*
X34089044Y-76652459D01*
X34153762Y-76626128D01*
X34166240Y-76625499D01*
X34894856Y-76625499D01*
X34894864Y-76625499D01*
X34894879Y-76625497D01*
X34894882Y-76625497D01*
X34919987Y-76622586D01*
X34919988Y-76622585D01*
X34919991Y-76622585D01*
X35022765Y-76577206D01*
X35102206Y-76497765D01*
X35147585Y-76394991D01*
X35150500Y-76369865D01*
X35150499Y-74580136D01*
X35150497Y-74580117D01*
X35147586Y-74555012D01*
X35147585Y-74555010D01*
X35147585Y-74555009D01*
X35102206Y-74452235D01*
X35022765Y-74372794D01*
X35006585Y-74365650D01*
X34919992Y-74327415D01*
X34894868Y-74324500D01*
X34894865Y-74324500D01*
X33257300Y-74324500D01*
X33190261Y-74304815D01*
X33144506Y-74252011D01*
X33133300Y-74200500D01*
X33133300Y-71834185D01*
X33152985Y-71767146D01*
X33205789Y-71721391D01*
X33274947Y-71711447D01*
X33319305Y-71726801D01*
X33322420Y-71728599D01*
X33536507Y-71828429D01*
X33536516Y-71828433D01*
X33750000Y-71885634D01*
X33750000Y-70988012D01*
X33807007Y-71020925D01*
X33934174Y-71055000D01*
X34065826Y-71055000D01*
X34192993Y-71020925D01*
X34250000Y-70988012D01*
X34250000Y-71885633D01*
X34463483Y-71828433D01*
X34463492Y-71828429D01*
X34677578Y-71728600D01*
X34871082Y-71593105D01*
X35038105Y-71426082D01*
X35173600Y-71232578D01*
X35273429Y-71018492D01*
X35273433Y-71018483D01*
X35334567Y-70790326D01*
X35334569Y-70790314D01*
X35336225Y-70771388D01*
X35361676Y-70706318D01*
X35418265Y-70665338D01*
X35488027Y-70661459D01*
X35547434Y-70694511D01*
X35669681Y-70816758D01*
X35703166Y-70878081D01*
X35706000Y-70904439D01*
X35706000Y-75723046D01*
X35736761Y-75877689D01*
X35736764Y-75877701D01*
X35797102Y-76023372D01*
X35797109Y-76023385D01*
X35884710Y-76154488D01*
X35884713Y-76154492D01*
X38236007Y-78505786D01*
X38236011Y-78505789D01*
X38367114Y-78593390D01*
X38367118Y-78593392D01*
X38367121Y-78593394D01*
X38512803Y-78653738D01*
X38667453Y-78684499D01*
X38667457Y-78684500D01*
X38667458Y-78684500D01*
X41832844Y-78684500D01*
X41832845Y-78684499D01*
X41987497Y-78653737D01*
X42133179Y-78593394D01*
X42264289Y-78505789D01*
X43073259Y-77696819D01*
X43134582Y-77663334D01*
X43160940Y-77660500D01*
X52957833Y-77660500D01*
X53024872Y-77680185D01*
X53070627Y-77732989D01*
X53080571Y-77802147D01*
X53058151Y-77857386D01*
X53039196Y-77883474D01*
X52960591Y-78037742D01*
X52907085Y-78202415D01*
X52880000Y-78373428D01*
X52880000Y-78610000D01*
X53664314Y-78610000D01*
X53659920Y-78614394D01*
X53607259Y-78705606D01*
X53580000Y-78807339D01*
X53580000Y-78912661D01*
X53607259Y-79014394D01*
X53659920Y-79105606D01*
X53664314Y-79110000D01*
X52880000Y-79110000D01*
X52880000Y-79346571D01*
X52907085Y-79517584D01*
X52960591Y-79682257D01*
X53039195Y-79836524D01*
X53140967Y-79976602D01*
X53206684Y-80042319D01*
X53240169Y-80103642D01*
X53235185Y-80173334D01*
X53206684Y-80217681D01*
X53140967Y-80283397D01*
X53039195Y-80423475D01*
X52960591Y-80577742D01*
X52907085Y-80742415D01*
X52880000Y-80913428D01*
X52880000Y-81150000D01*
X53664314Y-81150000D01*
X53659920Y-81154394D01*
X53607259Y-81245606D01*
X53580000Y-81347339D01*
X53580000Y-81452661D01*
X53607259Y-81554394D01*
X53659920Y-81645606D01*
X53664314Y-81650000D01*
X52880000Y-81650000D01*
X52880000Y-81886571D01*
X52907085Y-82057584D01*
X52960591Y-82222257D01*
X53039195Y-82376524D01*
X53140967Y-82516602D01*
X53263397Y-82639032D01*
X53403475Y-82740804D01*
X53557744Y-82819408D01*
X53722415Y-82872914D01*
X53722414Y-82872914D01*
X53729999Y-82874115D01*
X53730000Y-82874114D01*
X53730000Y-81715686D01*
X53734394Y-81720080D01*
X53825606Y-81772741D01*
X53927339Y-81800000D01*
X54032661Y-81800000D01*
X54134394Y-81772741D01*
X54225606Y-81720080D01*
X54230000Y-81715686D01*
X54230000Y-82874115D01*
X54237584Y-82872914D01*
X54402255Y-82819408D01*
X54556524Y-82740804D01*
X54696602Y-82639032D01*
X54819032Y-82516602D01*
X54920804Y-82376524D01*
X54999408Y-82222257D01*
X55052914Y-82057584D01*
X55080000Y-81886571D01*
X55080000Y-81650000D01*
X54295686Y-81650000D01*
X54300080Y-81645606D01*
X54352741Y-81554394D01*
X54380000Y-81452661D01*
X54380000Y-81347339D01*
X54352741Y-81245606D01*
X54300080Y-81154394D01*
X54295686Y-81150000D01*
X55080000Y-81150000D01*
X55080000Y-80913428D01*
X55052914Y-80742415D01*
X54999408Y-80577742D01*
X54920804Y-80423475D01*
X54819032Y-80283397D01*
X54753316Y-80217681D01*
X54719831Y-80156358D01*
X54724815Y-80086666D01*
X54753316Y-80042319D01*
X54819032Y-79976602D01*
X54920804Y-79836524D01*
X54999408Y-79682257D01*
X55052914Y-79517584D01*
X55080000Y-79346571D01*
X55080000Y-79110000D01*
X54295686Y-79110000D01*
X54300080Y-79105606D01*
X54352741Y-79014394D01*
X54380000Y-78912661D01*
X54380000Y-78807339D01*
X54352741Y-78705606D01*
X54300080Y-78614394D01*
X54295686Y-78610000D01*
X55080000Y-78610000D01*
X55080000Y-78373428D01*
X55052914Y-78202415D01*
X54999408Y-78037742D01*
X54920803Y-77883474D01*
X54901849Y-77857386D01*
X54878369Y-77791580D01*
X54894194Y-77723526D01*
X54944300Y-77674831D01*
X55002167Y-77660500D01*
X55746638Y-77660500D01*
X55813677Y-77680185D01*
X55859432Y-77732989D01*
X55869376Y-77802147D01*
X55840351Y-77865703D01*
X55834319Y-77872181D01*
X55820538Y-77885961D01*
X55820535Y-77885965D01*
X55721990Y-78033446D01*
X55721983Y-78033459D01*
X55654106Y-78197332D01*
X55654103Y-78197341D01*
X55619500Y-78371304D01*
X55619500Y-79348695D01*
X55654104Y-79522658D01*
X55654107Y-79522670D01*
X55710061Y-79657755D01*
X55719500Y-79705207D01*
X55719500Y-80554793D01*
X55710061Y-80602245D01*
X55654106Y-80737332D01*
X55654103Y-80737341D01*
X55619500Y-80911304D01*
X55619500Y-81888695D01*
X55654103Y-82062658D01*
X55654106Y-82062667D01*
X55721983Y-82226540D01*
X55721990Y-82226553D01*
X55820535Y-82374034D01*
X55820538Y-82374038D01*
X55945961Y-82499461D01*
X55945965Y-82499464D01*
X56093446Y-82598009D01*
X56093459Y-82598016D01*
X56216363Y-82648923D01*
X56257334Y-82665894D01*
X56257336Y-82665894D01*
X56257341Y-82665896D01*
X56431304Y-82700499D01*
X56431307Y-82700500D01*
X56431309Y-82700500D01*
X56608693Y-82700500D01*
X56608694Y-82700499D01*
X56670416Y-82688222D01*
X56782658Y-82665896D01*
X56782661Y-82665894D01*
X56782666Y-82665894D01*
X56946547Y-82598013D01*
X57094035Y-82499464D01*
X57219464Y-82374035D01*
X57318013Y-82226547D01*
X57322045Y-82216814D01*
X57370861Y-82098959D01*
X57385894Y-82062666D01*
X57420500Y-81888691D01*
X57420500Y-80911309D01*
X57420500Y-80911306D01*
X57420499Y-80911304D01*
X57385896Y-80737341D01*
X57385893Y-80737332D01*
X57384372Y-80733661D01*
X57329939Y-80602245D01*
X57320500Y-80554793D01*
X57320500Y-79705207D01*
X57329939Y-79657755D01*
X57385892Y-79522670D01*
X57385894Y-79522666D01*
X57420500Y-79348691D01*
X57420500Y-78371309D01*
X57420500Y-78371306D01*
X57420499Y-78371304D01*
X57385896Y-78197341D01*
X57385893Y-78197332D01*
X57384372Y-78193661D01*
X57319790Y-78037742D01*
X57318016Y-78033459D01*
X57318009Y-78033446D01*
X57219464Y-77885965D01*
X57219461Y-77885961D01*
X57205681Y-77872181D01*
X57172196Y-77810858D01*
X57177180Y-77741166D01*
X57219052Y-77685233D01*
X57284516Y-77660816D01*
X57293362Y-77660500D01*
X58135500Y-77660500D01*
X58202539Y-77680185D01*
X58248294Y-77732989D01*
X58259500Y-77784500D01*
X58259500Y-78014793D01*
X58250061Y-78062245D01*
X58194106Y-78197332D01*
X58194103Y-78197341D01*
X58159500Y-78371304D01*
X58159500Y-79348695D01*
X58194104Y-79522658D01*
X58194107Y-79522670D01*
X58250061Y-79657755D01*
X58259500Y-79705207D01*
X58259500Y-80554793D01*
X58250061Y-80602245D01*
X58194106Y-80737332D01*
X58194103Y-80737341D01*
X58159500Y-80911304D01*
X58159500Y-81888695D01*
X58194104Y-82062658D01*
X58194107Y-82062670D01*
X58250061Y-82197755D01*
X58259500Y-82245207D01*
X58259500Y-84054793D01*
X58250061Y-84102245D01*
X58194106Y-84237332D01*
X58194103Y-84237341D01*
X58159500Y-84411304D01*
X58159500Y-85388695D01*
X58194103Y-85562658D01*
X58194106Y-85562667D01*
X58261983Y-85726540D01*
X58261990Y-85726553D01*
X58360535Y-85874034D01*
X58360538Y-85874038D01*
X58485961Y-85999461D01*
X58485965Y-85999464D01*
X58633446Y-86098009D01*
X58633459Y-86098016D01*
X58756363Y-86148923D01*
X58797334Y-86165894D01*
X58797336Y-86165894D01*
X58797341Y-86165896D01*
X58971304Y-86200499D01*
X58971307Y-86200500D01*
X58971309Y-86200500D01*
X59148693Y-86200500D01*
X59148694Y-86200499D01*
X59206682Y-86188964D01*
X59322658Y-86165896D01*
X59322661Y-86165894D01*
X59322666Y-86165894D01*
X59486547Y-86098013D01*
X59634035Y-85999464D01*
X59759464Y-85874035D01*
X59858013Y-85726547D01*
X59925894Y-85562666D01*
X59945182Y-85465702D01*
X59960499Y-85388695D01*
X60699500Y-85388695D01*
X60734103Y-85562658D01*
X60734106Y-85562667D01*
X60801983Y-85726540D01*
X60801990Y-85726553D01*
X60900535Y-85874034D01*
X60900538Y-85874038D01*
X61025961Y-85999461D01*
X61025965Y-85999464D01*
X61173446Y-86098009D01*
X61173459Y-86098016D01*
X61296363Y-86148923D01*
X61337334Y-86165894D01*
X61337336Y-86165894D01*
X61337341Y-86165896D01*
X61511304Y-86200499D01*
X61511307Y-86200500D01*
X61511309Y-86200500D01*
X61688693Y-86200500D01*
X61688694Y-86200499D01*
X61746682Y-86188964D01*
X61862658Y-86165896D01*
X61862661Y-86165894D01*
X61862666Y-86165894D01*
X62026547Y-86098013D01*
X62174035Y-85999464D01*
X62299464Y-85874035D01*
X62398013Y-85726547D01*
X62465894Y-85562666D01*
X62485182Y-85465702D01*
X62500499Y-85388695D01*
X63239500Y-85388695D01*
X63274103Y-85562658D01*
X63274106Y-85562667D01*
X63341983Y-85726540D01*
X63341990Y-85726553D01*
X63440535Y-85874034D01*
X63440538Y-85874038D01*
X63565961Y-85999461D01*
X63565965Y-85999464D01*
X63713446Y-86098009D01*
X63713459Y-86098016D01*
X63836363Y-86148923D01*
X63877334Y-86165894D01*
X63877336Y-86165894D01*
X63877341Y-86165896D01*
X64051304Y-86200499D01*
X64051307Y-86200500D01*
X64051309Y-86200500D01*
X64228693Y-86200500D01*
X64228694Y-86200499D01*
X64286682Y-86188964D01*
X64402658Y-86165896D01*
X64402661Y-86165894D01*
X64402666Y-86165894D01*
X64566547Y-86098013D01*
X64714035Y-85999464D01*
X64839464Y-85874035D01*
X64938013Y-85726547D01*
X65005894Y-85562666D01*
X65025182Y-85465702D01*
X65040499Y-85388695D01*
X65040500Y-85388693D01*
X65040500Y-84411306D01*
X65040499Y-84411304D01*
X65005896Y-84237341D01*
X65005893Y-84237332D01*
X65004372Y-84233661D01*
X64949939Y-84102245D01*
X64940500Y-84054793D01*
X64940500Y-82245207D01*
X64949939Y-82197755D01*
X64990861Y-82098959D01*
X65005894Y-82062666D01*
X65040500Y-81888691D01*
X65040500Y-80911309D01*
X65040500Y-80911306D01*
X65040499Y-80911304D01*
X65005896Y-80737341D01*
X65005893Y-80737332D01*
X65004372Y-80733661D01*
X64949939Y-80602245D01*
X64940500Y-80554793D01*
X64940500Y-79705207D01*
X64949939Y-79657755D01*
X65005892Y-79522670D01*
X65005894Y-79522666D01*
X65040500Y-79348691D01*
X65040500Y-78371309D01*
X65040500Y-78371306D01*
X65040499Y-78371304D01*
X65005896Y-78197341D01*
X65005893Y-78197332D01*
X65004372Y-78193661D01*
X64939790Y-78037742D01*
X64938016Y-78033459D01*
X64938009Y-78033446D01*
X64839464Y-77885965D01*
X64839461Y-77885961D01*
X64714038Y-77760538D01*
X64714034Y-77760535D01*
X64566553Y-77661990D01*
X64566540Y-77661983D01*
X64402667Y-77594106D01*
X64402658Y-77594103D01*
X64228694Y-77559500D01*
X64228691Y-77559500D01*
X64051309Y-77559500D01*
X64051306Y-77559500D01*
X63877341Y-77594103D01*
X63877332Y-77594106D01*
X63713459Y-77661983D01*
X63713446Y-77661990D01*
X63565965Y-77760535D01*
X63565961Y-77760538D01*
X63440538Y-77885961D01*
X63440535Y-77885965D01*
X63341990Y-78033446D01*
X63341983Y-78033459D01*
X63274106Y-78197332D01*
X63274103Y-78197341D01*
X63239500Y-78371304D01*
X63239500Y-79348695D01*
X63274104Y-79522658D01*
X63274107Y-79522670D01*
X63330061Y-79657755D01*
X63339500Y-79705207D01*
X63339500Y-80554793D01*
X63330061Y-80602245D01*
X63274106Y-80737332D01*
X63274103Y-80737341D01*
X63239500Y-80911304D01*
X63239500Y-81888695D01*
X63274104Y-82062658D01*
X63274107Y-82062670D01*
X63330061Y-82197755D01*
X63339500Y-82245207D01*
X63339500Y-84054793D01*
X63330061Y-84102245D01*
X63274106Y-84237332D01*
X63274103Y-84237341D01*
X63239500Y-84411304D01*
X63239500Y-85388695D01*
X62500499Y-85388695D01*
X62500500Y-85388693D01*
X62500500Y-84411306D01*
X62500499Y-84411304D01*
X62465896Y-84237341D01*
X62465893Y-84237332D01*
X62464372Y-84233661D01*
X62409939Y-84102245D01*
X62400500Y-84054793D01*
X62400500Y-82245207D01*
X62409939Y-82197755D01*
X62450861Y-82098959D01*
X62465894Y-82062666D01*
X62500500Y-81888691D01*
X62500500Y-80911309D01*
X62500500Y-80911306D01*
X62500499Y-80911304D01*
X62465896Y-80737341D01*
X62465893Y-80737332D01*
X62464372Y-80733661D01*
X62409939Y-80602245D01*
X62400500Y-80554793D01*
X62400500Y-79705207D01*
X62409939Y-79657755D01*
X62465892Y-79522670D01*
X62465894Y-79522666D01*
X62500500Y-79348691D01*
X62500500Y-78371309D01*
X62500500Y-78371306D01*
X62500499Y-78371304D01*
X62465896Y-78197341D01*
X62465893Y-78197332D01*
X62464372Y-78193661D01*
X62399790Y-78037742D01*
X62398016Y-78033459D01*
X62398009Y-78033446D01*
X62299464Y-77885965D01*
X62299461Y-77885961D01*
X62174038Y-77760538D01*
X62174034Y-77760535D01*
X62026553Y-77661990D01*
X62026540Y-77661983D01*
X61862667Y-77594106D01*
X61862658Y-77594103D01*
X61688694Y-77559500D01*
X61688691Y-77559500D01*
X61511309Y-77559500D01*
X61511306Y-77559500D01*
X61337341Y-77594103D01*
X61337332Y-77594106D01*
X61173459Y-77661983D01*
X61173446Y-77661990D01*
X61025965Y-77760535D01*
X61025961Y-77760538D01*
X60900538Y-77885961D01*
X60900535Y-77885965D01*
X60801990Y-78033446D01*
X60801983Y-78033459D01*
X60734106Y-78197332D01*
X60734103Y-78197341D01*
X60699500Y-78371304D01*
X60699500Y-79348695D01*
X60734104Y-79522658D01*
X60734107Y-79522670D01*
X60790061Y-79657755D01*
X60799500Y-79705207D01*
X60799500Y-80554793D01*
X60790061Y-80602245D01*
X60734106Y-80737332D01*
X60734103Y-80737341D01*
X60699500Y-80911304D01*
X60699500Y-81888695D01*
X60734104Y-82062658D01*
X60734107Y-82062670D01*
X60790061Y-82197755D01*
X60799500Y-82245207D01*
X60799500Y-84054793D01*
X60790061Y-84102245D01*
X60734106Y-84237332D01*
X60734103Y-84237341D01*
X60699500Y-84411304D01*
X60699500Y-85388695D01*
X59960499Y-85388695D01*
X59960500Y-85388693D01*
X59960500Y-84411306D01*
X59960499Y-84411304D01*
X59925896Y-84237341D01*
X59925893Y-84237332D01*
X59924372Y-84233661D01*
X59869939Y-84102245D01*
X59860500Y-84054793D01*
X59860500Y-82245207D01*
X59869939Y-82197755D01*
X59910861Y-82098959D01*
X59925894Y-82062666D01*
X59960500Y-81888691D01*
X59960500Y-80911309D01*
X59960500Y-80911306D01*
X59960499Y-80911304D01*
X59925896Y-80737341D01*
X59925893Y-80737332D01*
X59924372Y-80733661D01*
X59869939Y-80602245D01*
X59860500Y-80554793D01*
X59860500Y-79705207D01*
X59869939Y-79657755D01*
X59925892Y-79522670D01*
X59925894Y-79522666D01*
X59960500Y-79348691D01*
X59960500Y-78371309D01*
X59960500Y-78371306D01*
X59960499Y-78371304D01*
X59925896Y-78197341D01*
X59925893Y-78197332D01*
X59924372Y-78193661D01*
X59869939Y-78062245D01*
X59860500Y-78014793D01*
X59860500Y-76781155D01*
X59860499Y-76781153D01*
X59843956Y-76697988D01*
X59829737Y-76626503D01*
X59796574Y-76546440D01*
X59769397Y-76480827D01*
X59769390Y-76480814D01*
X59681789Y-76349711D01*
X59681786Y-76349707D01*
X59570291Y-76238212D01*
X59570288Y-76238210D01*
X59439185Y-76150609D01*
X59439172Y-76150602D01*
X59293501Y-76090264D01*
X59293489Y-76090261D01*
X59138845Y-76059500D01*
X59138842Y-76059500D01*
X42856843Y-76059500D01*
X42699158Y-76059500D01*
X42699153Y-76059500D01*
X42544510Y-76090260D01*
X42544502Y-76090262D01*
X42398824Y-76150604D01*
X42398814Y-76150609D01*
X42267711Y-76238210D01*
X42267709Y-76238212D01*
X41458741Y-77047181D01*
X41397418Y-77080666D01*
X41371060Y-77083500D01*
X40617181Y-77083500D01*
X40550142Y-77063815D01*
X40504387Y-77011011D01*
X40494443Y-76941853D01*
X40504799Y-76907096D01*
X40580019Y-76745784D01*
X40580024Y-76745770D01*
X40637173Y-76532486D01*
X40637175Y-76532476D01*
X40656421Y-76312500D01*
X40656421Y-76312499D01*
X40637175Y-76092523D01*
X40637173Y-76092513D01*
X40580024Y-75879229D01*
X40580020Y-75879220D01*
X40486696Y-75679086D01*
X40441341Y-75614311D01*
X40441340Y-75614310D01*
X39770600Y-76285050D01*
X39770600Y-76262340D01*
X39744636Y-76165439D01*
X39694476Y-76078560D01*
X39623540Y-76007624D01*
X39536661Y-75957464D01*
X39439760Y-75931500D01*
X39417048Y-75931500D01*
X40087788Y-75260759D01*
X40087787Y-75260758D01*
X40023011Y-75215401D01*
X40023005Y-75215398D01*
X39822884Y-75122080D01*
X39822870Y-75122075D01*
X39609586Y-75064926D01*
X39604252Y-75063986D01*
X39604472Y-75062733D01*
X39545150Y-75039527D01*
X39504173Y-74982936D01*
X39500296Y-74913174D01*
X39534750Y-74852390D01*
X39592285Y-74822149D01*
X39592057Y-74821395D01*
X39595992Y-74820201D01*
X39596598Y-74819883D01*
X39596839Y-74819835D01*
X39597876Y-74819627D01*
X39597886Y-74819627D01*
X39798169Y-74758872D01*
X39982750Y-74660211D01*
X40144536Y-74527436D01*
X40277311Y-74365650D01*
X40375972Y-74181069D01*
X40436727Y-73980786D01*
X40457241Y-73772500D01*
X40436727Y-73564214D01*
X40375972Y-73363931D01*
X40277311Y-73179350D01*
X40277308Y-73179346D01*
X40144536Y-73017563D01*
X39982753Y-72884791D01*
X39982751Y-72884790D01*
X39982750Y-72884789D01*
X39798169Y-72786128D01*
X39698027Y-72755750D01*
X39597884Y-72725372D01*
X39389600Y-72704859D01*
X39181315Y-72725372D01*
X38981028Y-72786129D01*
X38796446Y-72884791D01*
X38634663Y-73017563D01*
X38501891Y-73179346D01*
X38403229Y-73363928D01*
X38342472Y-73564215D01*
X38321959Y-73772500D01*
X38342472Y-73980784D01*
X38342473Y-73980786D01*
X38403228Y-74181069D01*
X38441147Y-74252011D01*
X38501891Y-74365653D01*
X38634663Y-74527436D01*
X38698887Y-74580143D01*
X38796450Y-74660211D01*
X38981031Y-74758872D01*
X39181314Y-74819627D01*
X39181316Y-74819627D01*
X39181319Y-74819628D01*
X39182363Y-74819836D01*
X39182859Y-74820095D01*
X39187143Y-74821395D01*
X39186896Y-74822207D01*
X39244274Y-74852221D01*
X39278848Y-74912937D01*
X39275108Y-74982707D01*
X39234241Y-75039378D01*
X39174737Y-75062790D01*
X39174948Y-75063986D01*
X39169613Y-75064926D01*
X38956329Y-75122075D01*
X38956320Y-75122079D01*
X38756190Y-75215401D01*
X38691411Y-75260758D01*
X39362153Y-75931500D01*
X39339440Y-75931500D01*
X39242539Y-75957464D01*
X39155660Y-76007624D01*
X39084724Y-76078560D01*
X39034564Y-76165439D01*
X39008600Y-76262340D01*
X39008600Y-76285053D01*
X38337858Y-75614311D01*
X38292501Y-75679090D01*
X38199179Y-75879220D01*
X38199173Y-75879235D01*
X38185961Y-75928542D01*
X38149595Y-75988202D01*
X38086748Y-76018730D01*
X38017373Y-76010435D01*
X37978506Y-75984128D01*
X37343319Y-75348941D01*
X37309834Y-75287618D01*
X37307000Y-75261260D01*
X37307000Y-71232500D01*
X38321959Y-71232500D01*
X38342472Y-71440784D01*
X38342473Y-71440786D01*
X38403228Y-71641069D01*
X38450014Y-71728600D01*
X38501891Y-71825653D01*
X38634663Y-71987436D01*
X38796446Y-72120208D01*
X38796450Y-72120211D01*
X38981031Y-72218872D01*
X39181314Y-72279627D01*
X39389600Y-72300141D01*
X39597886Y-72279627D01*
X39798169Y-72218872D01*
X39982750Y-72120211D01*
X40144536Y-71987436D01*
X40277311Y-71825650D01*
X40375972Y-71641069D01*
X40436727Y-71440786D01*
X40457241Y-71232500D01*
X40436727Y-71024214D01*
X40375972Y-70823931D01*
X40277311Y-70639350D01*
X40262109Y-70620826D01*
X40144536Y-70477563D01*
X39982753Y-70344791D01*
X39982751Y-70344790D01*
X39982750Y-70344789D01*
X39798169Y-70246128D01*
X39698027Y-70215750D01*
X39597884Y-70185372D01*
X39389600Y-70164859D01*
X39181315Y-70185372D01*
X38981028Y-70246129D01*
X38796446Y-70344791D01*
X38634663Y-70477563D01*
X38501891Y-70639346D01*
X38403229Y-70823928D01*
X38342472Y-71024215D01*
X38321959Y-71232500D01*
X37307000Y-71232500D01*
X37307000Y-70442655D01*
X37306999Y-70442653D01*
X37287533Y-70344791D01*
X37276237Y-70288003D01*
X37276235Y-70287998D01*
X37215897Y-70142327D01*
X37215890Y-70142314D01*
X37128289Y-70011211D01*
X37128286Y-70011207D01*
X37012470Y-69895391D01*
X37012447Y-69895370D01*
X35809578Y-68692500D01*
X38321959Y-68692500D01*
X38342472Y-68900784D01*
X38342473Y-68900786D01*
X38387523Y-69049298D01*
X38403229Y-69101071D01*
X38501891Y-69285653D01*
X38634663Y-69447436D01*
X38796446Y-69580208D01*
X38796450Y-69580211D01*
X38981031Y-69678872D01*
X39181314Y-69739627D01*
X39389600Y-69760141D01*
X39597886Y-69739627D01*
X39798169Y-69678872D01*
X39982750Y-69580211D01*
X40144536Y-69447436D01*
X40277311Y-69285650D01*
X40375972Y-69101069D01*
X40436727Y-68900786D01*
X40457241Y-68692500D01*
X40436727Y-68484214D01*
X40375972Y-68283931D01*
X40277311Y-68099350D01*
X40255189Y-68072394D01*
X40144536Y-67937563D01*
X39982753Y-67804791D01*
X39982751Y-67804790D01*
X39982750Y-67804789D01*
X39798169Y-67706128D01*
X39698027Y-67675750D01*
X39597884Y-67645372D01*
X39389600Y-67624859D01*
X39181315Y-67645372D01*
X38981028Y-67706129D01*
X38796446Y-67804791D01*
X38634663Y-67937563D01*
X38501891Y-68099346D01*
X38403229Y-68283928D01*
X38342472Y-68484215D01*
X38321959Y-68692500D01*
X35809578Y-68692500D01*
X35189472Y-68072394D01*
X35155987Y-68011071D01*
X35153683Y-67996165D01*
X35135756Y-67802690D01*
X35077405Y-67597611D01*
X35077403Y-67597606D01*
X35077403Y-67597605D01*
X34982367Y-67406746D01*
X34853872Y-67236593D01*
X34835824Y-67220140D01*
X34696302Y-67092948D01*
X34515019Y-66980702D01*
X34515017Y-66980701D01*
X34415608Y-66942190D01*
X34316198Y-66903679D01*
X34143453Y-66871387D01*
X34081174Y-66839720D01*
X34045901Y-66779407D01*
X34048835Y-66709599D01*
X34089044Y-66652459D01*
X34153762Y-66626128D01*
X34166240Y-66625499D01*
X34894856Y-66625499D01*
X34894864Y-66625499D01*
X34894879Y-66625497D01*
X34894882Y-66625497D01*
X34919987Y-66622586D01*
X34919988Y-66622585D01*
X34919991Y-66622585D01*
X35022765Y-66577206D01*
X35102206Y-66497765D01*
X35147585Y-66394991D01*
X35150500Y-66369865D01*
X35150500Y-66152500D01*
X38321959Y-66152500D01*
X38342472Y-66360784D01*
X38372850Y-66460927D01*
X38403228Y-66561069D01*
X38482619Y-66709599D01*
X38501891Y-66745653D01*
X38634663Y-66907436D01*
X38796446Y-67040208D01*
X38796450Y-67040211D01*
X38981031Y-67138872D01*
X39181314Y-67199627D01*
X39389600Y-67220141D01*
X39597886Y-67199627D01*
X39798169Y-67138872D01*
X39982750Y-67040211D01*
X40144536Y-66907436D01*
X40277311Y-66745650D01*
X40375972Y-66561069D01*
X40436727Y-66360786D01*
X40457241Y-66152500D01*
X40436727Y-65944214D01*
X40375972Y-65743931D01*
X40277311Y-65559350D01*
X40277308Y-65559346D01*
X40144536Y-65397563D01*
X39982753Y-65264791D01*
X39982751Y-65264790D01*
X39982750Y-65264789D01*
X39798169Y-65166128D01*
X39698027Y-65135750D01*
X39597884Y-65105372D01*
X39389600Y-65084859D01*
X39181315Y-65105372D01*
X38981028Y-65166129D01*
X38796446Y-65264791D01*
X38634663Y-65397563D01*
X38501891Y-65559346D01*
X38403229Y-65743928D01*
X38342472Y-65944215D01*
X38321959Y-66152500D01*
X35150500Y-66152500D01*
X35150499Y-64580136D01*
X35150497Y-64580117D01*
X35147586Y-64555012D01*
X35147585Y-64555010D01*
X35147585Y-64555009D01*
X35102206Y-64452235D01*
X35022765Y-64372794D01*
X35010630Y-64367436D01*
X34919992Y-64327415D01*
X34910208Y-64326280D01*
X34845884Y-64298999D01*
X34806520Y-64241273D01*
X34800500Y-64203106D01*
X34800500Y-64007940D01*
X34820185Y-63940901D01*
X34836819Y-63920259D01*
X35144578Y-63612500D01*
X38321959Y-63612500D01*
X38342472Y-63820784D01*
X38342473Y-63820786D01*
X38403228Y-64021069D01*
X38500529Y-64203106D01*
X38501891Y-64205653D01*
X38634663Y-64367436D01*
X38737991Y-64452235D01*
X38796450Y-64500211D01*
X38981031Y-64598872D01*
X39181314Y-64659627D01*
X39389600Y-64680141D01*
X39597886Y-64659627D01*
X39798169Y-64598872D01*
X39982750Y-64500211D01*
X40144536Y-64367436D01*
X40277311Y-64205650D01*
X40375972Y-64021069D01*
X40436727Y-63820786D01*
X40457241Y-63612500D01*
X40436727Y-63404214D01*
X40375972Y-63203931D01*
X40277311Y-63019350D01*
X40264066Y-63003211D01*
X40144536Y-62857563D01*
X39982753Y-62724791D01*
X39982751Y-62724790D01*
X39982750Y-62724789D01*
X39798169Y-62626128D01*
X39698027Y-62595750D01*
X39597884Y-62565372D01*
X39389600Y-62544859D01*
X39181315Y-62565372D01*
X38981028Y-62626129D01*
X38796446Y-62724791D01*
X38634663Y-62857563D01*
X38501891Y-63019346D01*
X38403229Y-63203928D01*
X38342472Y-63404215D01*
X38321959Y-63612500D01*
X35144578Y-63612500D01*
X36212219Y-62544859D01*
X38188207Y-60568870D01*
X38249528Y-60535387D01*
X38319220Y-60540371D01*
X38375153Y-60582243D01*
X38399570Y-60647707D01*
X38394547Y-60692548D01*
X38342472Y-60864215D01*
X38321959Y-61072500D01*
X38342472Y-61280784D01*
X38342473Y-61280786D01*
X38403228Y-61481069D01*
X38461348Y-61589804D01*
X38501891Y-61665653D01*
X38634663Y-61827436D01*
X38795214Y-61959197D01*
X38796450Y-61960211D01*
X38981031Y-62058872D01*
X39181314Y-62119627D01*
X39389600Y-62140141D01*
X39597886Y-62119627D01*
X39798169Y-62058872D01*
X39982750Y-61960211D01*
X40144536Y-61827436D01*
X40277311Y-61665650D01*
X40375972Y-61481069D01*
X40436727Y-61280786D01*
X40457241Y-61072500D01*
X40436727Y-60864214D01*
X40375972Y-60663931D01*
X40281641Y-60487451D01*
X40267400Y-60419051D01*
X40292400Y-60353807D01*
X40348705Y-60312436D01*
X40391000Y-60305000D01*
X48941560Y-60305000D01*
X49008599Y-60324685D01*
X49029241Y-60341319D01*
X65843181Y-77155259D01*
X65876666Y-77216582D01*
X65879500Y-77242940D01*
X65879500Y-78014793D01*
X65870061Y-78062245D01*
X65814106Y-78197332D01*
X65814103Y-78197341D01*
X65779500Y-78371304D01*
X65779500Y-79348695D01*
X65814104Y-79522658D01*
X65814107Y-79522670D01*
X65870061Y-79657755D01*
X65879500Y-79705207D01*
X65879500Y-80554793D01*
X65870061Y-80602245D01*
X65814106Y-80737332D01*
X65814103Y-80737341D01*
X65779500Y-80911304D01*
X65779500Y-81888695D01*
X65814104Y-82062658D01*
X65814107Y-82062670D01*
X65870061Y-82197755D01*
X65879500Y-82245207D01*
X65879500Y-84054793D01*
X65870061Y-84102245D01*
X65814106Y-84237332D01*
X65814103Y-84237341D01*
X65779500Y-84411304D01*
X65779500Y-85388695D01*
X65814103Y-85562658D01*
X65814106Y-85562667D01*
X65881983Y-85726540D01*
X65881990Y-85726553D01*
X65980535Y-85874034D01*
X65980538Y-85874038D01*
X66105961Y-85999461D01*
X66105965Y-85999464D01*
X66253446Y-86098009D01*
X66253459Y-86098016D01*
X66376363Y-86148923D01*
X66417334Y-86165894D01*
X66417336Y-86165894D01*
X66417341Y-86165896D01*
X66591304Y-86200499D01*
X66591307Y-86200500D01*
X66591309Y-86200500D01*
X66768693Y-86200500D01*
X66768694Y-86200499D01*
X66826682Y-86188964D01*
X66942658Y-86165896D01*
X66942661Y-86165894D01*
X66942666Y-86165894D01*
X67106547Y-86098013D01*
X67254035Y-85999464D01*
X67379464Y-85874035D01*
X67478013Y-85726547D01*
X67545894Y-85562666D01*
X67565182Y-85465702D01*
X67580499Y-85388695D01*
X67580500Y-85388693D01*
X67580500Y-85386571D01*
X68120000Y-85386571D01*
X68147085Y-85557584D01*
X68200591Y-85722257D01*
X68279195Y-85876524D01*
X68380967Y-86016602D01*
X68503397Y-86139032D01*
X68643475Y-86240804D01*
X68797744Y-86319408D01*
X68962415Y-86372914D01*
X68962414Y-86372914D01*
X68969999Y-86374115D01*
X68970000Y-86374114D01*
X68970000Y-85215686D01*
X68974394Y-85220080D01*
X69065606Y-85272741D01*
X69167339Y-85300000D01*
X69272661Y-85300000D01*
X69374394Y-85272741D01*
X69465606Y-85220080D01*
X69470000Y-85215686D01*
X69470000Y-86374115D01*
X69477584Y-86372914D01*
X69642255Y-86319408D01*
X69796524Y-86240804D01*
X69936602Y-86139032D01*
X70059032Y-86016602D01*
X70160804Y-85876524D01*
X70239408Y-85722257D01*
X70292914Y-85557584D01*
X70319664Y-85388695D01*
X70859500Y-85388695D01*
X70894103Y-85562658D01*
X70894106Y-85562667D01*
X70961983Y-85726540D01*
X70961990Y-85726553D01*
X71060535Y-85874034D01*
X71060538Y-85874038D01*
X71185961Y-85999461D01*
X71185965Y-85999464D01*
X71333446Y-86098009D01*
X71333459Y-86098016D01*
X71456363Y-86148923D01*
X71497334Y-86165894D01*
X71497336Y-86165894D01*
X71497341Y-86165896D01*
X71671304Y-86200499D01*
X71671307Y-86200500D01*
X71671309Y-86200500D01*
X71848693Y-86200500D01*
X71848694Y-86200499D01*
X71906682Y-86188964D01*
X72022658Y-86165896D01*
X72022661Y-86165894D01*
X72022666Y-86165894D01*
X72186547Y-86098013D01*
X72334035Y-85999464D01*
X72459464Y-85874035D01*
X72558013Y-85726547D01*
X72625894Y-85562666D01*
X72645182Y-85465702D01*
X72660499Y-85388695D01*
X73399500Y-85388695D01*
X73434103Y-85562658D01*
X73434106Y-85562667D01*
X73501983Y-85726540D01*
X73501990Y-85726553D01*
X73600535Y-85874034D01*
X73600538Y-85874038D01*
X73725961Y-85999461D01*
X73725965Y-85999464D01*
X73873446Y-86098009D01*
X73873459Y-86098016D01*
X73996363Y-86148923D01*
X74037334Y-86165894D01*
X74037336Y-86165894D01*
X74037341Y-86165896D01*
X74211304Y-86200499D01*
X74211307Y-86200500D01*
X74211309Y-86200500D01*
X74388693Y-86200500D01*
X74388694Y-86200499D01*
X74446682Y-86188964D01*
X74562658Y-86165896D01*
X74562661Y-86165894D01*
X74562666Y-86165894D01*
X74726547Y-86098013D01*
X74874035Y-85999464D01*
X74999464Y-85874035D01*
X75098013Y-85726547D01*
X75165894Y-85562666D01*
X75185182Y-85465702D01*
X75200499Y-85388695D01*
X75939500Y-85388695D01*
X75974103Y-85562658D01*
X75974106Y-85562667D01*
X76041983Y-85726540D01*
X76041990Y-85726553D01*
X76140535Y-85874034D01*
X76140538Y-85874038D01*
X76265961Y-85999461D01*
X76265965Y-85999464D01*
X76413446Y-86098009D01*
X76413459Y-86098016D01*
X76536363Y-86148923D01*
X76577334Y-86165894D01*
X76577336Y-86165894D01*
X76577341Y-86165896D01*
X76751304Y-86200499D01*
X76751307Y-86200500D01*
X76751309Y-86200500D01*
X76928693Y-86200500D01*
X76928694Y-86200499D01*
X76986682Y-86188964D01*
X77102658Y-86165896D01*
X77102661Y-86165894D01*
X77102666Y-86165894D01*
X77266547Y-86098013D01*
X77414035Y-85999464D01*
X77539464Y-85874035D01*
X77638013Y-85726547D01*
X77705894Y-85562666D01*
X77725182Y-85465702D01*
X77740499Y-85388695D01*
X78479500Y-85388695D01*
X78514104Y-85562658D01*
X78514107Y-85562670D01*
X78570061Y-85697755D01*
X78579500Y-85745207D01*
X78579500Y-86978846D01*
X78610261Y-87133489D01*
X78610264Y-87133501D01*
X78670602Y-87279172D01*
X78670609Y-87279185D01*
X78758210Y-87410288D01*
X78758213Y-87410292D01*
X91060711Y-99712789D01*
X91122219Y-99774297D01*
X91172212Y-99824290D01*
X91264638Y-99886047D01*
X91303321Y-99911894D01*
X91406333Y-99954562D01*
X91449002Y-99972237D01*
X91603652Y-100002999D01*
X91603655Y-100003000D01*
X91603657Y-100003000D01*
X91603658Y-100003000D01*
X101375131Y-100003000D01*
X101442170Y-100022685D01*
X101453795Y-100031146D01*
X101513550Y-100080185D01*
X101696046Y-100177732D01*
X101894066Y-100237800D01*
X101894065Y-100237800D01*
X101912529Y-100239618D01*
X102100000Y-100258083D01*
X102305934Y-100237800D01*
X102503954Y-100177732D01*
X102686450Y-100080185D01*
X102846410Y-99948910D01*
X102977685Y-99788950D01*
X103075232Y-99606454D01*
X103135300Y-99408434D01*
X103155583Y-99202500D01*
X103135300Y-98996566D01*
X103075232Y-98798546D01*
X102977685Y-98616050D01*
X102905170Y-98527690D01*
X102846410Y-98456089D01*
X102728677Y-98359469D01*
X102686450Y-98324815D01*
X102503954Y-98227268D01*
X102305934Y-98167200D01*
X102305932Y-98167199D01*
X102305934Y-98167199D01*
X102100000Y-98146917D01*
X101894067Y-98167199D01*
X101696043Y-98227269D01*
X101585898Y-98286143D01*
X101513550Y-98324815D01*
X101513548Y-98324816D01*
X101513547Y-98324817D01*
X101453795Y-98373854D01*
X101389485Y-98401166D01*
X101375131Y-98402000D01*
X92065440Y-98402000D01*
X91998401Y-98382315D01*
X91977759Y-98365681D01*
X87855866Y-94243788D01*
X93899500Y-94243788D01*
X93922338Y-94417269D01*
X93931162Y-94484289D01*
X93939342Y-94514817D01*
X93993947Y-94718604D01*
X94086773Y-94942705D01*
X94086777Y-94942714D01*
X94104154Y-94972812D01*
X94208064Y-95152789D01*
X94208066Y-95152792D01*
X94208067Y-95152793D01*
X94355733Y-95345236D01*
X94355739Y-95345243D01*
X94527256Y-95516760D01*
X94527263Y-95516766D01*
X94633693Y-95598432D01*
X94719711Y-95664436D01*
X94929788Y-95785724D01*
X95125269Y-95866695D01*
X95140474Y-95872993D01*
X95153900Y-95878554D01*
X95388211Y-95941338D01*
X95568586Y-95965084D01*
X95628711Y-95973000D01*
X95628712Y-95973000D01*
X95871289Y-95973000D01*
X95919388Y-95966667D01*
X96111789Y-95941338D01*
X96346100Y-95878554D01*
X96570212Y-95785724D01*
X96780289Y-95664436D01*
X96972738Y-95516765D01*
X97144265Y-95345238D01*
X97291936Y-95152789D01*
X97413224Y-94942712D01*
X97506054Y-94718600D01*
X97568838Y-94484289D01*
X97600500Y-94243788D01*
X97600500Y-94001212D01*
X97568838Y-93760711D01*
X97506054Y-93526400D01*
X97413224Y-93302288D01*
X97291936Y-93092211D01*
X97144265Y-92899762D01*
X97144260Y-92899756D01*
X96972743Y-92728239D01*
X96972736Y-92728233D01*
X96780293Y-92580567D01*
X96780292Y-92580566D01*
X96780289Y-92580564D01*
X96570212Y-92459276D01*
X96570205Y-92459273D01*
X96346104Y-92366447D01*
X96111785Y-92303661D01*
X95871289Y-92272000D01*
X95871288Y-92272000D01*
X95628712Y-92272000D01*
X95628711Y-92272000D01*
X95388214Y-92303661D01*
X95153895Y-92366447D01*
X94929794Y-92459273D01*
X94929785Y-92459277D01*
X94719706Y-92580567D01*
X94527263Y-92728233D01*
X94527256Y-92728239D01*
X94355739Y-92899756D01*
X94355733Y-92899763D01*
X94208067Y-93092206D01*
X94086777Y-93302285D01*
X94086773Y-93302294D01*
X93993947Y-93526395D01*
X93931161Y-93760714D01*
X93899500Y-94001211D01*
X93899500Y-94243788D01*
X87855866Y-94243788D01*
X80216819Y-86604741D01*
X80183334Y-86543418D01*
X80180500Y-86517060D01*
X80180500Y-85745207D01*
X80189939Y-85697755D01*
X80218985Y-85627628D01*
X80245894Y-85562666D01*
X80280499Y-85388695D01*
X81019500Y-85388695D01*
X81054103Y-85562658D01*
X81054106Y-85562667D01*
X81121983Y-85726540D01*
X81121990Y-85726553D01*
X81220535Y-85874034D01*
X81220538Y-85874038D01*
X81345961Y-85999461D01*
X81345965Y-85999464D01*
X81493446Y-86098009D01*
X81493459Y-86098016D01*
X81616363Y-86148923D01*
X81657334Y-86165894D01*
X81657336Y-86165894D01*
X81657341Y-86165896D01*
X81831304Y-86200499D01*
X81831307Y-86200500D01*
X81831309Y-86200500D01*
X82008693Y-86200500D01*
X82008694Y-86200499D01*
X82066682Y-86188964D01*
X82182658Y-86165896D01*
X82182661Y-86165894D01*
X82182666Y-86165894D01*
X82346547Y-86098013D01*
X82494035Y-85999464D01*
X82619464Y-85874035D01*
X82718013Y-85726547D01*
X82785894Y-85562666D01*
X82805182Y-85465702D01*
X82820499Y-85388695D01*
X83559500Y-85388695D01*
X83594103Y-85562658D01*
X83594106Y-85562667D01*
X83661983Y-85726540D01*
X83661990Y-85726553D01*
X83760535Y-85874034D01*
X83760538Y-85874038D01*
X83885961Y-85999461D01*
X83885965Y-85999464D01*
X84033446Y-86098009D01*
X84033459Y-86098016D01*
X84156363Y-86148923D01*
X84197334Y-86165894D01*
X84197336Y-86165894D01*
X84197341Y-86165896D01*
X84371304Y-86200499D01*
X84371307Y-86200500D01*
X84371309Y-86200500D01*
X84548693Y-86200500D01*
X84548694Y-86200499D01*
X84606682Y-86188964D01*
X84722658Y-86165896D01*
X84722661Y-86165894D01*
X84722666Y-86165894D01*
X84886547Y-86098013D01*
X85034035Y-85999464D01*
X85159464Y-85874035D01*
X85258013Y-85726547D01*
X85325894Y-85562666D01*
X85345182Y-85465702D01*
X85360499Y-85388695D01*
X86099500Y-85388695D01*
X86134103Y-85562658D01*
X86134106Y-85562667D01*
X86201983Y-85726540D01*
X86201990Y-85726553D01*
X86300535Y-85874034D01*
X86300538Y-85874038D01*
X86425961Y-85999461D01*
X86425965Y-85999464D01*
X86573446Y-86098009D01*
X86573459Y-86098016D01*
X86696363Y-86148923D01*
X86737334Y-86165894D01*
X86737336Y-86165894D01*
X86737341Y-86165896D01*
X86911304Y-86200499D01*
X86911307Y-86200500D01*
X86911309Y-86200500D01*
X87088693Y-86200500D01*
X87088694Y-86200499D01*
X87146682Y-86188964D01*
X87262658Y-86165896D01*
X87262661Y-86165894D01*
X87262666Y-86165894D01*
X87426547Y-86098013D01*
X87574035Y-85999464D01*
X87699464Y-85874035D01*
X87798013Y-85726547D01*
X87865894Y-85562666D01*
X87885182Y-85465702D01*
X87900499Y-85388695D01*
X88639500Y-85388695D01*
X88674103Y-85562658D01*
X88674106Y-85562667D01*
X88741983Y-85726540D01*
X88741990Y-85726553D01*
X88840535Y-85874034D01*
X88840538Y-85874038D01*
X88965961Y-85999461D01*
X88965965Y-85999464D01*
X89113446Y-86098009D01*
X89113459Y-86098016D01*
X89236363Y-86148923D01*
X89277334Y-86165894D01*
X89277336Y-86165894D01*
X89277341Y-86165896D01*
X89451304Y-86200499D01*
X89451307Y-86200500D01*
X89451309Y-86200500D01*
X89628693Y-86200500D01*
X89628694Y-86200499D01*
X89686682Y-86188964D01*
X89802658Y-86165896D01*
X89802661Y-86165894D01*
X89802666Y-86165894D01*
X89966547Y-86098013D01*
X90114035Y-85999464D01*
X90239464Y-85874035D01*
X90338013Y-85726547D01*
X90405894Y-85562666D01*
X90425182Y-85465702D01*
X90440499Y-85388695D01*
X91179500Y-85388695D01*
X91214103Y-85562658D01*
X91214106Y-85562667D01*
X91281983Y-85726540D01*
X91281990Y-85726553D01*
X91380535Y-85874034D01*
X91380538Y-85874038D01*
X91505961Y-85999461D01*
X91505965Y-85999464D01*
X91653446Y-86098009D01*
X91653459Y-86098016D01*
X91776363Y-86148923D01*
X91817334Y-86165894D01*
X91817336Y-86165894D01*
X91817341Y-86165896D01*
X91991304Y-86200499D01*
X91991307Y-86200500D01*
X91991309Y-86200500D01*
X92168693Y-86200500D01*
X92168694Y-86200499D01*
X92226682Y-86188964D01*
X92342658Y-86165896D01*
X92342661Y-86165894D01*
X92342666Y-86165894D01*
X92506547Y-86098013D01*
X92654035Y-85999464D01*
X92779464Y-85874035D01*
X92878013Y-85726547D01*
X92945894Y-85562666D01*
X92965182Y-85465702D01*
X92980499Y-85388695D01*
X93719500Y-85388695D01*
X93754103Y-85562658D01*
X93754106Y-85562667D01*
X93821983Y-85726540D01*
X93821990Y-85726553D01*
X93920535Y-85874034D01*
X93920538Y-85874038D01*
X94045961Y-85999461D01*
X94045965Y-85999464D01*
X94193446Y-86098009D01*
X94193459Y-86098016D01*
X94316363Y-86148923D01*
X94357334Y-86165894D01*
X94357336Y-86165894D01*
X94357341Y-86165896D01*
X94531304Y-86200499D01*
X94531307Y-86200500D01*
X94531309Y-86200500D01*
X94708693Y-86200500D01*
X94708694Y-86200499D01*
X94766682Y-86188964D01*
X94882658Y-86165896D01*
X94882661Y-86165894D01*
X94882666Y-86165894D01*
X95046547Y-86098013D01*
X95194035Y-85999464D01*
X95319464Y-85874035D01*
X95418013Y-85726547D01*
X95485894Y-85562666D01*
X95505182Y-85465702D01*
X95520499Y-85388695D01*
X95520500Y-85388693D01*
X95520500Y-85385015D01*
X96256780Y-85385015D01*
X96291383Y-85558978D01*
X96291386Y-85558987D01*
X96359263Y-85722860D01*
X96359270Y-85722873D01*
X96457815Y-85870354D01*
X96457818Y-85870358D01*
X96583241Y-85995781D01*
X96583245Y-85995784D01*
X96730726Y-86094329D01*
X96730739Y-86094336D01*
X96838647Y-86139032D01*
X96894614Y-86162214D01*
X96894616Y-86162214D01*
X96894621Y-86162216D01*
X97068584Y-86196819D01*
X97068587Y-86196820D01*
X97068589Y-86196820D01*
X97245973Y-86196820D01*
X97245974Y-86196819D01*
X97303962Y-86185284D01*
X97419938Y-86162216D01*
X97419941Y-86162214D01*
X97419946Y-86162214D01*
X97559815Y-86104278D01*
X97583820Y-86094336D01*
X97583820Y-86094335D01*
X97583827Y-86094333D01*
X97731315Y-85995784D01*
X97856744Y-85870355D01*
X97955293Y-85722867D01*
X98023174Y-85558986D01*
X98041730Y-85465702D01*
X98057047Y-85388695D01*
X98057780Y-85385011D01*
X98057780Y-84407629D01*
X98057780Y-84407626D01*
X98057779Y-84407624D01*
X98023176Y-84233661D01*
X98023173Y-84233652D01*
X97967239Y-84098613D01*
X97957800Y-84051161D01*
X97957800Y-82241478D01*
X97967239Y-82194025D01*
X97970298Y-82186640D01*
X98023174Y-82058986D01*
X98057780Y-81885011D01*
X98057780Y-80907629D01*
X98057780Y-80907626D01*
X98057779Y-80907624D01*
X98023176Y-80733661D01*
X98023173Y-80733652D01*
X98022700Y-80732511D01*
X97967239Y-80598613D01*
X97957800Y-80551161D01*
X97957800Y-79701478D01*
X97967239Y-79654025D01*
X98023174Y-79518986D01*
X98057780Y-79345011D01*
X98057780Y-78367629D01*
X98057780Y-78367626D01*
X98057779Y-78367624D01*
X98023176Y-78193661D01*
X98023173Y-78193652D01*
X97955296Y-78029779D01*
X97955289Y-78029766D01*
X97856744Y-77882285D01*
X97856741Y-77882281D01*
X97731318Y-77756858D01*
X97731314Y-77756855D01*
X97583833Y-77658310D01*
X97583820Y-77658303D01*
X97419947Y-77590426D01*
X97419938Y-77590423D01*
X97245974Y-77555820D01*
X97245971Y-77555820D01*
X97068589Y-77555820D01*
X97068586Y-77555820D01*
X96894621Y-77590423D01*
X96894612Y-77590426D01*
X96730739Y-77658303D01*
X96730726Y-77658310D01*
X96583245Y-77756855D01*
X96583241Y-77756858D01*
X96457818Y-77882281D01*
X96457815Y-77882285D01*
X96359270Y-78029766D01*
X96359263Y-78029779D01*
X96291386Y-78193652D01*
X96291383Y-78193661D01*
X96256780Y-78367624D01*
X96256780Y-79345015D01*
X96291383Y-79518978D01*
X96291386Y-79518986D01*
X96347320Y-79654025D01*
X96347361Y-79654122D01*
X96356800Y-79701574D01*
X96356800Y-80551064D01*
X96347361Y-80598516D01*
X96291386Y-80733652D01*
X96291383Y-80733661D01*
X96256780Y-80907624D01*
X96256780Y-81885015D01*
X96291383Y-82058978D01*
X96291386Y-82058987D01*
X96307943Y-82098959D01*
X96347320Y-82194025D01*
X96347361Y-82194122D01*
X96356800Y-82241574D01*
X96356800Y-84051064D01*
X96347361Y-84098516D01*
X96291386Y-84233652D01*
X96291383Y-84233661D01*
X96256780Y-84407624D01*
X96256780Y-85385015D01*
X95520500Y-85385015D01*
X95520500Y-84411306D01*
X95520499Y-84411304D01*
X95485896Y-84237341D01*
X95485893Y-84237332D01*
X95484372Y-84233661D01*
X95429939Y-84102245D01*
X95420500Y-84054793D01*
X95420500Y-82245207D01*
X95429939Y-82197755D01*
X95470861Y-82098959D01*
X95485894Y-82062666D01*
X95520500Y-81888691D01*
X95520500Y-80911309D01*
X95520500Y-80911306D01*
X95520499Y-80911304D01*
X95485896Y-80737341D01*
X95485893Y-80737332D01*
X95484372Y-80733661D01*
X95429939Y-80602245D01*
X95420500Y-80554793D01*
X95420500Y-79705207D01*
X95429939Y-79657755D01*
X95485892Y-79522670D01*
X95485894Y-79522666D01*
X95520500Y-79348691D01*
X95520500Y-78371309D01*
X95520500Y-78371306D01*
X95520499Y-78371304D01*
X95485896Y-78197341D01*
X95485893Y-78197332D01*
X95484372Y-78193661D01*
X95419790Y-78037742D01*
X95418016Y-78033459D01*
X95418009Y-78033446D01*
X95319464Y-77885965D01*
X95319461Y-77885961D01*
X95194038Y-77760538D01*
X95194034Y-77760535D01*
X95046553Y-77661990D01*
X95046540Y-77661983D01*
X94882667Y-77594106D01*
X94882658Y-77594103D01*
X94708694Y-77559500D01*
X94708691Y-77559500D01*
X94531309Y-77559500D01*
X94531306Y-77559500D01*
X94357341Y-77594103D01*
X94357332Y-77594106D01*
X94193459Y-77661983D01*
X94193446Y-77661990D01*
X94045965Y-77760535D01*
X94045961Y-77760538D01*
X93920538Y-77885961D01*
X93920535Y-77885965D01*
X93821990Y-78033446D01*
X93821983Y-78033459D01*
X93754106Y-78197332D01*
X93754103Y-78197341D01*
X93719500Y-78371304D01*
X93719500Y-79348695D01*
X93754104Y-79522658D01*
X93754107Y-79522670D01*
X93810061Y-79657755D01*
X93819500Y-79705207D01*
X93819500Y-80554793D01*
X93810061Y-80602245D01*
X93754106Y-80737332D01*
X93754103Y-80737341D01*
X93719500Y-80911304D01*
X93719500Y-81888695D01*
X93754104Y-82062658D01*
X93754107Y-82062670D01*
X93810061Y-82197755D01*
X93819500Y-82245207D01*
X93819500Y-84054793D01*
X93810061Y-84102245D01*
X93754106Y-84237332D01*
X93754103Y-84237341D01*
X93719500Y-84411304D01*
X93719500Y-85388695D01*
X92980499Y-85388695D01*
X92980500Y-85388693D01*
X92980500Y-84411306D01*
X92980499Y-84411304D01*
X92945896Y-84237341D01*
X92945893Y-84237332D01*
X92944372Y-84233661D01*
X92889939Y-84102245D01*
X92880500Y-84054793D01*
X92880500Y-82245207D01*
X92889939Y-82197755D01*
X92930861Y-82098959D01*
X92945894Y-82062666D01*
X92980500Y-81888691D01*
X92980500Y-80911309D01*
X92980500Y-80911306D01*
X92980499Y-80911304D01*
X92945896Y-80737341D01*
X92945893Y-80737332D01*
X92944372Y-80733661D01*
X92889939Y-80602245D01*
X92880500Y-80554793D01*
X92880500Y-79705207D01*
X92889939Y-79657755D01*
X92945892Y-79522670D01*
X92945894Y-79522666D01*
X92980500Y-79348691D01*
X92980500Y-78371309D01*
X92980500Y-78371306D01*
X92980499Y-78371304D01*
X92945896Y-78197341D01*
X92945893Y-78197332D01*
X92944372Y-78193661D01*
X92879790Y-78037742D01*
X92878016Y-78033459D01*
X92878009Y-78033446D01*
X92779464Y-77885965D01*
X92779461Y-77885961D01*
X92654038Y-77760538D01*
X92654034Y-77760535D01*
X92506553Y-77661990D01*
X92506540Y-77661983D01*
X92342667Y-77594106D01*
X92342658Y-77594103D01*
X92168694Y-77559500D01*
X92168691Y-77559500D01*
X91991309Y-77559500D01*
X91991306Y-77559500D01*
X91817341Y-77594103D01*
X91817332Y-77594106D01*
X91653459Y-77661983D01*
X91653446Y-77661990D01*
X91505965Y-77760535D01*
X91505961Y-77760538D01*
X91380538Y-77885961D01*
X91380535Y-77885965D01*
X91281990Y-78033446D01*
X91281983Y-78033459D01*
X91214106Y-78197332D01*
X91214103Y-78197341D01*
X91179500Y-78371304D01*
X91179500Y-79348695D01*
X91214104Y-79522658D01*
X91214107Y-79522670D01*
X91270061Y-79657755D01*
X91279500Y-79705207D01*
X91279500Y-80554793D01*
X91270061Y-80602245D01*
X91214106Y-80737332D01*
X91214103Y-80737341D01*
X91179500Y-80911304D01*
X91179500Y-81888695D01*
X91214104Y-82062658D01*
X91214107Y-82062670D01*
X91270061Y-82197755D01*
X91279500Y-82245207D01*
X91279500Y-84054793D01*
X91270061Y-84102245D01*
X91214106Y-84237332D01*
X91214103Y-84237341D01*
X91179500Y-84411304D01*
X91179500Y-85388695D01*
X90440499Y-85388695D01*
X90440500Y-85388693D01*
X90440500Y-84411306D01*
X90440499Y-84411304D01*
X90405896Y-84237341D01*
X90405893Y-84237332D01*
X90404372Y-84233661D01*
X90349939Y-84102245D01*
X90340500Y-84054793D01*
X90340500Y-82245207D01*
X90349939Y-82197755D01*
X90390861Y-82098959D01*
X90405894Y-82062666D01*
X90440500Y-81888691D01*
X90440500Y-80911309D01*
X90440500Y-80911306D01*
X90440499Y-80911304D01*
X90405896Y-80737341D01*
X90405893Y-80737332D01*
X90404372Y-80733661D01*
X90349939Y-80602245D01*
X90340500Y-80554793D01*
X90340500Y-79705207D01*
X90349939Y-79657755D01*
X90405892Y-79522670D01*
X90405894Y-79522666D01*
X90440500Y-79348691D01*
X90440500Y-78371309D01*
X90440500Y-78371306D01*
X90440499Y-78371304D01*
X90405896Y-78197341D01*
X90405893Y-78197332D01*
X90404372Y-78193661D01*
X90339790Y-78037742D01*
X90338016Y-78033459D01*
X90338009Y-78033446D01*
X90239464Y-77885965D01*
X90239461Y-77885961D01*
X90114038Y-77760538D01*
X90114034Y-77760535D01*
X89966553Y-77661990D01*
X89966540Y-77661983D01*
X89802667Y-77594106D01*
X89802658Y-77594103D01*
X89628694Y-77559500D01*
X89628691Y-77559500D01*
X89451309Y-77559500D01*
X89451306Y-77559500D01*
X89277341Y-77594103D01*
X89277332Y-77594106D01*
X89113459Y-77661983D01*
X89113446Y-77661990D01*
X88965965Y-77760535D01*
X88965961Y-77760538D01*
X88840538Y-77885961D01*
X88840535Y-77885965D01*
X88741990Y-78033446D01*
X88741983Y-78033459D01*
X88674106Y-78197332D01*
X88674103Y-78197341D01*
X88639500Y-78371304D01*
X88639500Y-79348695D01*
X88674104Y-79522658D01*
X88674107Y-79522670D01*
X88730061Y-79657755D01*
X88739500Y-79705207D01*
X88739500Y-80554793D01*
X88730061Y-80602245D01*
X88674106Y-80737332D01*
X88674103Y-80737341D01*
X88639500Y-80911304D01*
X88639500Y-81888695D01*
X88674104Y-82062658D01*
X88674107Y-82062670D01*
X88730061Y-82197755D01*
X88739500Y-82245207D01*
X88739500Y-84054793D01*
X88730061Y-84102245D01*
X88674106Y-84237332D01*
X88674103Y-84237341D01*
X88639500Y-84411304D01*
X88639500Y-85388695D01*
X87900499Y-85388695D01*
X87900500Y-85388693D01*
X87900500Y-84411306D01*
X87900499Y-84411304D01*
X87865896Y-84237341D01*
X87865893Y-84237332D01*
X87864372Y-84233661D01*
X87809939Y-84102245D01*
X87800500Y-84054793D01*
X87800500Y-82245207D01*
X87809939Y-82197755D01*
X87850861Y-82098959D01*
X87865894Y-82062666D01*
X87900500Y-81888691D01*
X87900500Y-80911309D01*
X87900500Y-80911306D01*
X87900499Y-80911304D01*
X87865896Y-80737341D01*
X87865893Y-80737332D01*
X87864372Y-80733661D01*
X87809939Y-80602245D01*
X87800500Y-80554793D01*
X87800500Y-79705207D01*
X87809939Y-79657755D01*
X87865892Y-79522670D01*
X87865894Y-79522666D01*
X87900500Y-79348691D01*
X87900500Y-78371309D01*
X87900500Y-78371306D01*
X87900499Y-78371304D01*
X87865896Y-78197341D01*
X87865893Y-78197332D01*
X87864372Y-78193661D01*
X87799790Y-78037742D01*
X87798016Y-78033459D01*
X87798009Y-78033446D01*
X87699464Y-77885965D01*
X87699461Y-77885961D01*
X87574038Y-77760538D01*
X87574034Y-77760535D01*
X87426553Y-77661990D01*
X87426540Y-77661983D01*
X87262667Y-77594106D01*
X87262658Y-77594103D01*
X87088694Y-77559500D01*
X87088691Y-77559500D01*
X86911309Y-77559500D01*
X86911306Y-77559500D01*
X86737341Y-77594103D01*
X86737332Y-77594106D01*
X86573459Y-77661983D01*
X86573446Y-77661990D01*
X86425965Y-77760535D01*
X86425961Y-77760538D01*
X86300538Y-77885961D01*
X86300535Y-77885965D01*
X86201990Y-78033446D01*
X86201983Y-78033459D01*
X86134106Y-78197332D01*
X86134103Y-78197341D01*
X86099500Y-78371304D01*
X86099500Y-79348695D01*
X86134104Y-79522658D01*
X86134107Y-79522670D01*
X86190061Y-79657755D01*
X86199500Y-79705207D01*
X86199500Y-80554793D01*
X86190061Y-80602245D01*
X86134106Y-80737332D01*
X86134103Y-80737341D01*
X86099500Y-80911304D01*
X86099500Y-81888695D01*
X86134104Y-82062658D01*
X86134107Y-82062670D01*
X86190061Y-82197755D01*
X86199500Y-82245207D01*
X86199500Y-84054793D01*
X86190061Y-84102245D01*
X86134106Y-84237332D01*
X86134103Y-84237341D01*
X86099500Y-84411304D01*
X86099500Y-85388695D01*
X85360499Y-85388695D01*
X85360500Y-85388693D01*
X85360500Y-84411306D01*
X85360499Y-84411304D01*
X85325896Y-84237341D01*
X85325893Y-84237332D01*
X85324372Y-84233661D01*
X85269939Y-84102245D01*
X85260500Y-84054793D01*
X85260500Y-82245207D01*
X85269939Y-82197755D01*
X85310861Y-82098959D01*
X85325894Y-82062666D01*
X85360500Y-81888691D01*
X85360500Y-80911309D01*
X85360500Y-80911306D01*
X85360499Y-80911304D01*
X85325896Y-80737341D01*
X85325893Y-80737332D01*
X85324372Y-80733661D01*
X85269939Y-80602245D01*
X85260500Y-80554793D01*
X85260500Y-79705207D01*
X85269939Y-79657755D01*
X85325892Y-79522670D01*
X85325894Y-79522666D01*
X85360500Y-79348691D01*
X85360500Y-78371309D01*
X85360500Y-78371306D01*
X85360499Y-78371304D01*
X85325896Y-78197341D01*
X85325893Y-78197332D01*
X85324372Y-78193661D01*
X85259790Y-78037742D01*
X85258016Y-78033459D01*
X85258009Y-78033446D01*
X85159464Y-77885965D01*
X85159461Y-77885961D01*
X85034038Y-77760538D01*
X85034034Y-77760535D01*
X84886553Y-77661990D01*
X84886540Y-77661983D01*
X84722667Y-77594106D01*
X84722658Y-77594103D01*
X84548694Y-77559500D01*
X84548691Y-77559500D01*
X84371309Y-77559500D01*
X84371306Y-77559500D01*
X84197341Y-77594103D01*
X84197332Y-77594106D01*
X84033459Y-77661983D01*
X84033446Y-77661990D01*
X83885965Y-77760535D01*
X83885961Y-77760538D01*
X83760538Y-77885961D01*
X83760535Y-77885965D01*
X83661990Y-78033446D01*
X83661983Y-78033459D01*
X83594106Y-78197332D01*
X83594103Y-78197341D01*
X83559500Y-78371304D01*
X83559500Y-79348695D01*
X83594104Y-79522658D01*
X83594107Y-79522670D01*
X83650061Y-79657755D01*
X83659500Y-79705207D01*
X83659500Y-80554793D01*
X83650061Y-80602245D01*
X83594106Y-80737332D01*
X83594103Y-80737341D01*
X83559500Y-80911304D01*
X83559500Y-81888695D01*
X83594104Y-82062658D01*
X83594107Y-82062670D01*
X83650061Y-82197755D01*
X83659500Y-82245207D01*
X83659500Y-84054793D01*
X83650061Y-84102245D01*
X83594106Y-84237332D01*
X83594103Y-84237341D01*
X83559500Y-84411304D01*
X83559500Y-85388695D01*
X82820499Y-85388695D01*
X82820500Y-85388693D01*
X82820500Y-84411306D01*
X82820499Y-84411304D01*
X82785896Y-84237341D01*
X82785893Y-84237332D01*
X82784372Y-84233661D01*
X82729939Y-84102245D01*
X82720500Y-84054793D01*
X82720500Y-82245207D01*
X82729939Y-82197755D01*
X82770861Y-82098959D01*
X82785894Y-82062666D01*
X82820500Y-81888691D01*
X82820500Y-80911309D01*
X82820500Y-80911306D01*
X82820499Y-80911304D01*
X82785896Y-80737341D01*
X82785893Y-80737332D01*
X82784372Y-80733661D01*
X82729939Y-80602245D01*
X82720500Y-80554793D01*
X82720500Y-79705207D01*
X82729939Y-79657755D01*
X82785892Y-79522670D01*
X82785894Y-79522666D01*
X82820500Y-79348691D01*
X82820500Y-78371309D01*
X82820500Y-78371306D01*
X82820499Y-78371304D01*
X82785896Y-78197341D01*
X82785893Y-78197332D01*
X82784372Y-78193661D01*
X82719790Y-78037742D01*
X82718016Y-78033459D01*
X82718009Y-78033446D01*
X82619464Y-77885965D01*
X82619461Y-77885961D01*
X82494038Y-77760538D01*
X82494034Y-77760535D01*
X82346553Y-77661990D01*
X82346540Y-77661983D01*
X82182667Y-77594106D01*
X82182658Y-77594103D01*
X82008694Y-77559500D01*
X82008691Y-77559500D01*
X81831309Y-77559500D01*
X81831306Y-77559500D01*
X81657341Y-77594103D01*
X81657332Y-77594106D01*
X81493459Y-77661983D01*
X81493446Y-77661990D01*
X81345965Y-77760535D01*
X81345961Y-77760538D01*
X81220538Y-77885961D01*
X81220535Y-77885965D01*
X81121990Y-78033446D01*
X81121983Y-78033459D01*
X81054106Y-78197332D01*
X81054103Y-78197341D01*
X81019500Y-78371304D01*
X81019500Y-79348695D01*
X81054104Y-79522658D01*
X81054107Y-79522670D01*
X81110061Y-79657755D01*
X81119500Y-79705207D01*
X81119500Y-80554793D01*
X81110061Y-80602245D01*
X81054106Y-80737332D01*
X81054103Y-80737341D01*
X81019500Y-80911304D01*
X81019500Y-81888695D01*
X81054104Y-82062658D01*
X81054107Y-82062670D01*
X81110061Y-82197755D01*
X81119500Y-82245207D01*
X81119500Y-84054793D01*
X81110061Y-84102245D01*
X81054106Y-84237332D01*
X81054103Y-84237341D01*
X81019500Y-84411304D01*
X81019500Y-85388695D01*
X80280499Y-85388695D01*
X80280500Y-85388691D01*
X80280500Y-84411309D01*
X80280500Y-84411306D01*
X80280499Y-84411304D01*
X80245896Y-84237341D01*
X80245893Y-84237332D01*
X80244372Y-84233661D01*
X80189939Y-84102245D01*
X80180500Y-84054793D01*
X80180500Y-82245207D01*
X80189939Y-82197755D01*
X80230861Y-82098959D01*
X80245894Y-82062666D01*
X80280500Y-81888691D01*
X80280500Y-80911309D01*
X80280500Y-80911306D01*
X80280499Y-80911304D01*
X80245896Y-80737341D01*
X80245893Y-80737332D01*
X80244372Y-80733661D01*
X80189939Y-80602245D01*
X80180500Y-80554793D01*
X80180500Y-79705207D01*
X80189939Y-79657755D01*
X80245892Y-79522670D01*
X80245894Y-79522666D01*
X80280500Y-79348691D01*
X80280500Y-78371309D01*
X80280500Y-78371306D01*
X80280499Y-78371304D01*
X80245896Y-78197341D01*
X80245893Y-78197332D01*
X80244372Y-78193661D01*
X80179790Y-78037742D01*
X80178016Y-78033459D01*
X80178009Y-78033446D01*
X80079464Y-77885965D01*
X80079461Y-77885961D01*
X79954038Y-77760538D01*
X79954034Y-77760535D01*
X79806553Y-77661990D01*
X79806540Y-77661983D01*
X79642667Y-77594106D01*
X79642658Y-77594103D01*
X79468694Y-77559500D01*
X79468691Y-77559500D01*
X79291309Y-77559500D01*
X79291306Y-77559500D01*
X79117341Y-77594103D01*
X79117332Y-77594106D01*
X78953459Y-77661983D01*
X78953446Y-77661990D01*
X78805965Y-77760535D01*
X78805961Y-77760538D01*
X78680538Y-77885961D01*
X78680535Y-77885965D01*
X78581990Y-78033446D01*
X78581983Y-78033459D01*
X78514106Y-78197332D01*
X78514103Y-78197341D01*
X78479500Y-78371304D01*
X78479500Y-79348695D01*
X78514104Y-79522658D01*
X78514107Y-79522670D01*
X78570061Y-79657755D01*
X78579500Y-79705207D01*
X78579500Y-80554793D01*
X78570061Y-80602245D01*
X78514106Y-80737332D01*
X78514103Y-80737341D01*
X78479500Y-80911304D01*
X78479500Y-81888695D01*
X78514104Y-82062658D01*
X78514107Y-82062670D01*
X78570061Y-82197755D01*
X78579500Y-82245207D01*
X78579500Y-84054793D01*
X78570061Y-84102245D01*
X78514106Y-84237332D01*
X78514103Y-84237341D01*
X78479500Y-84411304D01*
X78479500Y-85388695D01*
X77740499Y-85388695D01*
X77740500Y-85388693D01*
X77740500Y-84411306D01*
X77740499Y-84411304D01*
X77705896Y-84237341D01*
X77705893Y-84237332D01*
X77704372Y-84233661D01*
X77649939Y-84102245D01*
X77640500Y-84054793D01*
X77640500Y-82245207D01*
X77649939Y-82197755D01*
X77690861Y-82098959D01*
X77705894Y-82062666D01*
X77740500Y-81888691D01*
X77740500Y-80911309D01*
X77740500Y-80911306D01*
X77740499Y-80911304D01*
X77705896Y-80737341D01*
X77705893Y-80737332D01*
X77704372Y-80733661D01*
X77649939Y-80602245D01*
X77640500Y-80554793D01*
X77640500Y-79705207D01*
X77649939Y-79657755D01*
X77705892Y-79522670D01*
X77705894Y-79522666D01*
X77740500Y-79348691D01*
X77740500Y-78371309D01*
X77740500Y-78371306D01*
X77740499Y-78371304D01*
X77705896Y-78197341D01*
X77705893Y-78197332D01*
X77704372Y-78193661D01*
X77639790Y-78037742D01*
X77638016Y-78033459D01*
X77638009Y-78033446D01*
X77539464Y-77885965D01*
X77539461Y-77885961D01*
X77414038Y-77760538D01*
X77414034Y-77760535D01*
X77266553Y-77661990D01*
X77266540Y-77661983D01*
X77102667Y-77594106D01*
X77102658Y-77594103D01*
X76928694Y-77559500D01*
X76928691Y-77559500D01*
X76751309Y-77559500D01*
X76751306Y-77559500D01*
X76577341Y-77594103D01*
X76577332Y-77594106D01*
X76413459Y-77661983D01*
X76413446Y-77661990D01*
X76265965Y-77760535D01*
X76265961Y-77760538D01*
X76140538Y-77885961D01*
X76140535Y-77885965D01*
X76041990Y-78033446D01*
X76041983Y-78033459D01*
X75974106Y-78197332D01*
X75974103Y-78197341D01*
X75939500Y-78371304D01*
X75939500Y-79348695D01*
X75974104Y-79522658D01*
X75974107Y-79522670D01*
X76030061Y-79657755D01*
X76039500Y-79705207D01*
X76039500Y-80554793D01*
X76030061Y-80602245D01*
X75974106Y-80737332D01*
X75974103Y-80737341D01*
X75939500Y-80911304D01*
X75939500Y-81888695D01*
X75974104Y-82062658D01*
X75974107Y-82062670D01*
X76030061Y-82197755D01*
X76039500Y-82245207D01*
X76039500Y-84054793D01*
X76030061Y-84102245D01*
X75974106Y-84237332D01*
X75974103Y-84237341D01*
X75939500Y-84411304D01*
X75939500Y-85388695D01*
X75200499Y-85388695D01*
X75200500Y-85388693D01*
X75200500Y-84411306D01*
X75200499Y-84411304D01*
X75165896Y-84237341D01*
X75165893Y-84237332D01*
X75164372Y-84233661D01*
X75109939Y-84102245D01*
X75100500Y-84054793D01*
X75100500Y-82245207D01*
X75109939Y-82197755D01*
X75150861Y-82098959D01*
X75165894Y-82062666D01*
X75200500Y-81888691D01*
X75200500Y-80911309D01*
X75200500Y-80911306D01*
X75200499Y-80911304D01*
X75165896Y-80737341D01*
X75165893Y-80737332D01*
X75164372Y-80733661D01*
X75109939Y-80602245D01*
X75100500Y-80554793D01*
X75100500Y-79705207D01*
X75109939Y-79657755D01*
X75165892Y-79522670D01*
X75165894Y-79522666D01*
X75200500Y-79348691D01*
X75200500Y-78371309D01*
X75200500Y-78371306D01*
X75200499Y-78371304D01*
X75165896Y-78197341D01*
X75165893Y-78197332D01*
X75164372Y-78193661D01*
X75099790Y-78037742D01*
X75098016Y-78033459D01*
X75098009Y-78033446D01*
X74999464Y-77885965D01*
X74999461Y-77885961D01*
X74874038Y-77760538D01*
X74874034Y-77760535D01*
X74726553Y-77661990D01*
X74726540Y-77661983D01*
X74562667Y-77594106D01*
X74562658Y-77594103D01*
X74388694Y-77559500D01*
X74388691Y-77559500D01*
X74211309Y-77559500D01*
X74211306Y-77559500D01*
X74037341Y-77594103D01*
X74037332Y-77594106D01*
X73873459Y-77661983D01*
X73873446Y-77661990D01*
X73725965Y-77760535D01*
X73725961Y-77760538D01*
X73600538Y-77885961D01*
X73600535Y-77885965D01*
X73501990Y-78033446D01*
X73501983Y-78033459D01*
X73434106Y-78197332D01*
X73434103Y-78197341D01*
X73399500Y-78371304D01*
X73399500Y-79348695D01*
X73434104Y-79522658D01*
X73434107Y-79522670D01*
X73490061Y-79657755D01*
X73499500Y-79705207D01*
X73499500Y-80554793D01*
X73490061Y-80602245D01*
X73434106Y-80737332D01*
X73434103Y-80737341D01*
X73399500Y-80911304D01*
X73399500Y-81888695D01*
X73434104Y-82062658D01*
X73434107Y-82062670D01*
X73490061Y-82197755D01*
X73499500Y-82245207D01*
X73499500Y-84054793D01*
X73490061Y-84102245D01*
X73434106Y-84237332D01*
X73434103Y-84237341D01*
X73399500Y-84411304D01*
X73399500Y-85388695D01*
X72660499Y-85388695D01*
X72660500Y-85388693D01*
X72660500Y-84411306D01*
X72660499Y-84411304D01*
X72625896Y-84237341D01*
X72625893Y-84237332D01*
X72624372Y-84233661D01*
X72569939Y-84102245D01*
X72560500Y-84054793D01*
X72560500Y-82245207D01*
X72569939Y-82197755D01*
X72610861Y-82098959D01*
X72625894Y-82062666D01*
X72660500Y-81888691D01*
X72660500Y-80911309D01*
X72660500Y-80911306D01*
X72660499Y-80911304D01*
X72625896Y-80737341D01*
X72625893Y-80737332D01*
X72624372Y-80733661D01*
X72569939Y-80602245D01*
X72560500Y-80554793D01*
X72560500Y-79705207D01*
X72569939Y-79657755D01*
X72625892Y-79522670D01*
X72625894Y-79522666D01*
X72660500Y-79348691D01*
X72660500Y-78371309D01*
X72660500Y-78371306D01*
X72660499Y-78371304D01*
X72625896Y-78197341D01*
X72625893Y-78197332D01*
X72624372Y-78193661D01*
X72559790Y-78037742D01*
X72558016Y-78033459D01*
X72558009Y-78033446D01*
X72459464Y-77885965D01*
X72459461Y-77885961D01*
X72334038Y-77760538D01*
X72334034Y-77760535D01*
X72186553Y-77661990D01*
X72186540Y-77661983D01*
X72022667Y-77594106D01*
X72022658Y-77594103D01*
X71848694Y-77559500D01*
X71848691Y-77559500D01*
X71671309Y-77559500D01*
X71671306Y-77559500D01*
X71497341Y-77594103D01*
X71497332Y-77594106D01*
X71333459Y-77661983D01*
X71333446Y-77661990D01*
X71185965Y-77760535D01*
X71185961Y-77760538D01*
X71060538Y-77885961D01*
X71060535Y-77885965D01*
X70961990Y-78033446D01*
X70961983Y-78033459D01*
X70894106Y-78197332D01*
X70894103Y-78197341D01*
X70859500Y-78371304D01*
X70859500Y-79348695D01*
X70894104Y-79522658D01*
X70894107Y-79522670D01*
X70950061Y-79657755D01*
X70959500Y-79705207D01*
X70959500Y-80554793D01*
X70950061Y-80602245D01*
X70894106Y-80737332D01*
X70894103Y-80737341D01*
X70859500Y-80911304D01*
X70859500Y-81888695D01*
X70894104Y-82062658D01*
X70894107Y-82062670D01*
X70950061Y-82197755D01*
X70959500Y-82245207D01*
X70959500Y-84054793D01*
X70950061Y-84102245D01*
X70894106Y-84237332D01*
X70894103Y-84237341D01*
X70859500Y-84411304D01*
X70859500Y-85388695D01*
X70319664Y-85388695D01*
X70320000Y-85386571D01*
X70320000Y-85150000D01*
X69535686Y-85150000D01*
X69540080Y-85145606D01*
X69592741Y-85054394D01*
X69620000Y-84952661D01*
X69620000Y-84847339D01*
X69592741Y-84745606D01*
X69540080Y-84654394D01*
X69535686Y-84650000D01*
X70320000Y-84650000D01*
X70320000Y-84413428D01*
X70292914Y-84242415D01*
X70239408Y-84077742D01*
X70160804Y-83923475D01*
X70059032Y-83783397D01*
X69936602Y-83660967D01*
X69796524Y-83559195D01*
X69642257Y-83480591D01*
X69477589Y-83427087D01*
X69477581Y-83427085D01*
X69470000Y-83425884D01*
X69470000Y-84584314D01*
X69465606Y-84579920D01*
X69374394Y-84527259D01*
X69272661Y-84500000D01*
X69167339Y-84500000D01*
X69065606Y-84527259D01*
X68974394Y-84579920D01*
X68970000Y-84584314D01*
X68970000Y-83425884D01*
X68969999Y-83425884D01*
X68962418Y-83427085D01*
X68962410Y-83427087D01*
X68797742Y-83480591D01*
X68643475Y-83559195D01*
X68503397Y-83660967D01*
X68380967Y-83783397D01*
X68279195Y-83923475D01*
X68200591Y-84077742D01*
X68147085Y-84242415D01*
X68120000Y-84413428D01*
X68120000Y-84650000D01*
X68904314Y-84650000D01*
X68899920Y-84654394D01*
X68847259Y-84745606D01*
X68820000Y-84847339D01*
X68820000Y-84952661D01*
X68847259Y-85054394D01*
X68899920Y-85145606D01*
X68904314Y-85150000D01*
X68120000Y-85150000D01*
X68120000Y-85386571D01*
X67580500Y-85386571D01*
X67580500Y-84411306D01*
X67580499Y-84411304D01*
X67545896Y-84237341D01*
X67545893Y-84237332D01*
X67544372Y-84233661D01*
X67489939Y-84102245D01*
X67480500Y-84054793D01*
X67480500Y-82245207D01*
X67489939Y-82197755D01*
X67530861Y-82098959D01*
X67545894Y-82062666D01*
X67580500Y-81888691D01*
X67580500Y-81886571D01*
X68120000Y-81886571D01*
X68147085Y-82057584D01*
X68200591Y-82222257D01*
X68279195Y-82376524D01*
X68380967Y-82516602D01*
X68503397Y-82639032D01*
X68643475Y-82740804D01*
X68797744Y-82819408D01*
X68962415Y-82872914D01*
X68962414Y-82872914D01*
X68969999Y-82874115D01*
X68970000Y-82874114D01*
X68970000Y-81715686D01*
X68974394Y-81720080D01*
X69065606Y-81772741D01*
X69167339Y-81800000D01*
X69272661Y-81800000D01*
X69374394Y-81772741D01*
X69465606Y-81720080D01*
X69470000Y-81715686D01*
X69470000Y-82874115D01*
X69477584Y-82872914D01*
X69642255Y-82819408D01*
X69796524Y-82740804D01*
X69936602Y-82639032D01*
X70059032Y-82516602D01*
X70160804Y-82376524D01*
X70239408Y-82222257D01*
X70292914Y-82057584D01*
X70320000Y-81886571D01*
X70320000Y-81650000D01*
X69535686Y-81650000D01*
X69540080Y-81645606D01*
X69592741Y-81554394D01*
X69620000Y-81452661D01*
X69620000Y-81347339D01*
X69592741Y-81245606D01*
X69540080Y-81154394D01*
X69535686Y-81150000D01*
X70320000Y-81150000D01*
X70320000Y-80913428D01*
X70292914Y-80742415D01*
X70239408Y-80577742D01*
X70160804Y-80423475D01*
X70059032Y-80283397D01*
X69993316Y-80217681D01*
X69959831Y-80156358D01*
X69964815Y-80086666D01*
X69993316Y-80042319D01*
X70059032Y-79976602D01*
X70160804Y-79836524D01*
X70239408Y-79682257D01*
X70292914Y-79517584D01*
X70320000Y-79346571D01*
X70320000Y-79110000D01*
X69535686Y-79110000D01*
X69540080Y-79105606D01*
X69592741Y-79014394D01*
X69620000Y-78912661D01*
X69620000Y-78807339D01*
X69592741Y-78705606D01*
X69540080Y-78614394D01*
X69535686Y-78610000D01*
X70320000Y-78610000D01*
X70320000Y-78373428D01*
X70292914Y-78202415D01*
X70239408Y-78037742D01*
X70160804Y-77883475D01*
X70059032Y-77743397D01*
X69936602Y-77620967D01*
X69796524Y-77519195D01*
X69642257Y-77440591D01*
X69477589Y-77387087D01*
X69477581Y-77387085D01*
X69470000Y-77385884D01*
X69470000Y-78544314D01*
X69465606Y-78539920D01*
X69374394Y-78487259D01*
X69272661Y-78460000D01*
X69167339Y-78460000D01*
X69065606Y-78487259D01*
X68974394Y-78539920D01*
X68970000Y-78544314D01*
X68970000Y-77385884D01*
X68969999Y-77385884D01*
X68962418Y-77387085D01*
X68962410Y-77387087D01*
X68797742Y-77440591D01*
X68643475Y-77519195D01*
X68503397Y-77620967D01*
X68380967Y-77743397D01*
X68279195Y-77883475D01*
X68200591Y-78037742D01*
X68147085Y-78202415D01*
X68120000Y-78373428D01*
X68120000Y-78610000D01*
X68904314Y-78610000D01*
X68899920Y-78614394D01*
X68847259Y-78705606D01*
X68820000Y-78807339D01*
X68820000Y-78912661D01*
X68847259Y-79014394D01*
X68899920Y-79105606D01*
X68904314Y-79110000D01*
X68120000Y-79110000D01*
X68120000Y-79346571D01*
X68147085Y-79517584D01*
X68200591Y-79682257D01*
X68279195Y-79836524D01*
X68380967Y-79976602D01*
X68446684Y-80042319D01*
X68480169Y-80103642D01*
X68475185Y-80173334D01*
X68446684Y-80217681D01*
X68380967Y-80283397D01*
X68279195Y-80423475D01*
X68200591Y-80577742D01*
X68147085Y-80742415D01*
X68120000Y-80913428D01*
X68120000Y-81150000D01*
X68904314Y-81150000D01*
X68899920Y-81154394D01*
X68847259Y-81245606D01*
X68820000Y-81347339D01*
X68820000Y-81452661D01*
X68847259Y-81554394D01*
X68899920Y-81645606D01*
X68904314Y-81650000D01*
X68120000Y-81650000D01*
X68120000Y-81886571D01*
X67580500Y-81886571D01*
X67580500Y-80911309D01*
X67580500Y-80911306D01*
X67580499Y-80911304D01*
X67545896Y-80737341D01*
X67545893Y-80737332D01*
X67544372Y-80733661D01*
X67489939Y-80602245D01*
X67480500Y-80554793D01*
X67480500Y-79705207D01*
X67489939Y-79657755D01*
X67545892Y-79522670D01*
X67545894Y-79522666D01*
X67580500Y-79348691D01*
X67580500Y-78371309D01*
X67580500Y-78371306D01*
X67580499Y-78371304D01*
X67545896Y-78197341D01*
X67545893Y-78197332D01*
X67544372Y-78193661D01*
X67489939Y-78062245D01*
X67480500Y-78014793D01*
X67480500Y-76781155D01*
X67449737Y-76626503D01*
X67449320Y-76625497D01*
X67449316Y-76625487D01*
X67396412Y-76497765D01*
X67396411Y-76497761D01*
X67389397Y-76480828D01*
X67389396Y-76480826D01*
X67389394Y-76480821D01*
X67345591Y-76415266D01*
X67301790Y-76349712D01*
X67264577Y-76312499D01*
X67190289Y-76238211D01*
X58597450Y-67645372D01*
X49964260Y-59012181D01*
X49930775Y-58950858D01*
X49935759Y-58881166D01*
X49977631Y-58825233D01*
X50043095Y-58800816D01*
X50051941Y-58800500D01*
X66758844Y-58800500D01*
X66758845Y-58800499D01*
X66913497Y-58769737D01*
X67026166Y-58723067D01*
X67059172Y-58709397D01*
X67059172Y-58709396D01*
X67059179Y-58709394D01*
X67190289Y-58621789D01*
X67301789Y-58510289D01*
X67389394Y-58379179D01*
X67449737Y-58233497D01*
X67480500Y-58078842D01*
X67480500Y-56845207D01*
X67489939Y-56797755D01*
X67545892Y-56662670D01*
X67545894Y-56662666D01*
X67580499Y-56488695D01*
X68319500Y-56488695D01*
X68354103Y-56662658D01*
X68354106Y-56662667D01*
X68421983Y-56826540D01*
X68421990Y-56826553D01*
X68520535Y-56974034D01*
X68520538Y-56974038D01*
X68645961Y-57099461D01*
X68645965Y-57099464D01*
X68793446Y-57198009D01*
X68793459Y-57198016D01*
X68916363Y-57248923D01*
X68957334Y-57265894D01*
X68957336Y-57265894D01*
X68957341Y-57265896D01*
X69131304Y-57300499D01*
X69131307Y-57300500D01*
X69131309Y-57300500D01*
X69308693Y-57300500D01*
X69308694Y-57300499D01*
X69366682Y-57288964D01*
X69482658Y-57265896D01*
X69482661Y-57265894D01*
X69482666Y-57265894D01*
X69646547Y-57198013D01*
X69794035Y-57099464D01*
X69919464Y-56974035D01*
X70018013Y-56826547D01*
X70085894Y-56662666D01*
X70092356Y-56630183D01*
X70120499Y-56488695D01*
X70859500Y-56488695D01*
X70894103Y-56662658D01*
X70894106Y-56662667D01*
X70961983Y-56826540D01*
X70961990Y-56826553D01*
X71060535Y-56974034D01*
X71060538Y-56974038D01*
X71185961Y-57099461D01*
X71185965Y-57099464D01*
X71333446Y-57198009D01*
X71333459Y-57198016D01*
X71456363Y-57248923D01*
X71497334Y-57265894D01*
X71497336Y-57265894D01*
X71497341Y-57265896D01*
X71671304Y-57300499D01*
X71671307Y-57300500D01*
X71671309Y-57300500D01*
X71848693Y-57300500D01*
X71848694Y-57300499D01*
X71906682Y-57288964D01*
X72022658Y-57265896D01*
X72022661Y-57265894D01*
X72022666Y-57265894D01*
X72186547Y-57198013D01*
X72334035Y-57099464D01*
X72459464Y-56974035D01*
X72558013Y-56826547D01*
X72625894Y-56662666D01*
X72632356Y-56630183D01*
X72660499Y-56488695D01*
X73399500Y-56488695D01*
X73434103Y-56662658D01*
X73434106Y-56662667D01*
X73501983Y-56826540D01*
X73501990Y-56826553D01*
X73600535Y-56974034D01*
X73600538Y-56974038D01*
X73725961Y-57099461D01*
X73725965Y-57099464D01*
X73873446Y-57198009D01*
X73873459Y-57198016D01*
X73996363Y-57248923D01*
X74037334Y-57265894D01*
X74037336Y-57265894D01*
X74037341Y-57265896D01*
X74211304Y-57300499D01*
X74211307Y-57300500D01*
X74211309Y-57300500D01*
X74388693Y-57300500D01*
X74388694Y-57300499D01*
X74446682Y-57288964D01*
X74562658Y-57265896D01*
X74562661Y-57265894D01*
X74562666Y-57265894D01*
X74726547Y-57198013D01*
X74874035Y-57099464D01*
X74999464Y-56974035D01*
X75098013Y-56826547D01*
X75165894Y-56662666D01*
X75172356Y-56630183D01*
X75200499Y-56488695D01*
X75939500Y-56488695D01*
X75974103Y-56662658D01*
X75974106Y-56662667D01*
X76041983Y-56826540D01*
X76041990Y-56826553D01*
X76140535Y-56974034D01*
X76140538Y-56974038D01*
X76265961Y-57099461D01*
X76265965Y-57099464D01*
X76413446Y-57198009D01*
X76413459Y-57198016D01*
X76536363Y-57248923D01*
X76577334Y-57265894D01*
X76577336Y-57265894D01*
X76577341Y-57265896D01*
X76751304Y-57300499D01*
X76751307Y-57300500D01*
X76751309Y-57300500D01*
X76928693Y-57300500D01*
X76928694Y-57300499D01*
X76986682Y-57288964D01*
X77102658Y-57265896D01*
X77102661Y-57265894D01*
X77102666Y-57265894D01*
X77266547Y-57198013D01*
X77414035Y-57099464D01*
X77539464Y-56974035D01*
X77638013Y-56826547D01*
X77705894Y-56662666D01*
X77712356Y-56630183D01*
X77740499Y-56488695D01*
X77740500Y-56488693D01*
X77740500Y-55511306D01*
X77740499Y-55511304D01*
X77705896Y-55337341D01*
X77705893Y-55337332D01*
X77649939Y-55202245D01*
X77640500Y-55154793D01*
X77640500Y-53345207D01*
X77649939Y-53297755D01*
X77705892Y-53162670D01*
X77705894Y-53162666D01*
X77740500Y-52988691D01*
X77740500Y-52011309D01*
X77740500Y-52011306D01*
X77740499Y-52011304D01*
X77705896Y-51837341D01*
X77705893Y-51837332D01*
X77649939Y-51702245D01*
X77640500Y-51654793D01*
X77640500Y-51424500D01*
X77660185Y-51357461D01*
X77712989Y-51311706D01*
X77764500Y-51300500D01*
X78606638Y-51300500D01*
X78673677Y-51320185D01*
X78719432Y-51372989D01*
X78729376Y-51442147D01*
X78700351Y-51505703D01*
X78694319Y-51512181D01*
X78680538Y-51525961D01*
X78680535Y-51525965D01*
X78581990Y-51673446D01*
X78581983Y-51673459D01*
X78514106Y-51837332D01*
X78514103Y-51837341D01*
X78479500Y-52011304D01*
X78479500Y-52988695D01*
X78514104Y-53162658D01*
X78514107Y-53162670D01*
X78570061Y-53297755D01*
X78579500Y-53345207D01*
X78579500Y-55154793D01*
X78570061Y-55202245D01*
X78514106Y-55337332D01*
X78514103Y-55337341D01*
X78479500Y-55511304D01*
X78479500Y-56488695D01*
X78514104Y-56662658D01*
X78514107Y-56662670D01*
X78570061Y-56797755D01*
X78579500Y-56845207D01*
X78579500Y-58078846D01*
X78610261Y-58233489D01*
X78610264Y-58233501D01*
X78670602Y-58379172D01*
X78670609Y-58379185D01*
X78758210Y-58510288D01*
X78758213Y-58510292D01*
X78869707Y-58621786D01*
X78869711Y-58621789D01*
X79000814Y-58709390D01*
X79000827Y-58709397D01*
X79126424Y-58761420D01*
X79146503Y-58769737D01*
X79274031Y-58795104D01*
X79301153Y-58800499D01*
X79301156Y-58800500D01*
X79301158Y-58800500D01*
X80872060Y-58800500D01*
X80939099Y-58820185D01*
X80959741Y-58836819D01*
X99503063Y-77380141D01*
X99536548Y-77441464D01*
X99531564Y-77511156D01*
X99489692Y-77567089D01*
X99439574Y-77589439D01*
X99434620Y-77590424D01*
X99434612Y-77590426D01*
X99270739Y-77658303D01*
X99270726Y-77658310D01*
X99123245Y-77756855D01*
X99123241Y-77756858D01*
X98997818Y-77882281D01*
X98997815Y-77882285D01*
X98899270Y-78029766D01*
X98899263Y-78029779D01*
X98831386Y-78193652D01*
X98831383Y-78193661D01*
X98796780Y-78367624D01*
X98796780Y-79345015D01*
X98831383Y-79518978D01*
X98831386Y-79518986D01*
X98887320Y-79654025D01*
X98887361Y-79654122D01*
X98896800Y-79701574D01*
X98896800Y-80551064D01*
X98887361Y-80598516D01*
X98831386Y-80733652D01*
X98831383Y-80733661D01*
X98796780Y-80907624D01*
X98796780Y-81885015D01*
X98831383Y-82058978D01*
X98831386Y-82058987D01*
X98847943Y-82098959D01*
X98887320Y-82194025D01*
X98887361Y-82194122D01*
X98896800Y-82241574D01*
X98896800Y-84051064D01*
X98887361Y-84098516D01*
X98831386Y-84233652D01*
X98831383Y-84233661D01*
X98796780Y-84407624D01*
X98796780Y-85385015D01*
X98831383Y-85558978D01*
X98831386Y-85558987D01*
X98899263Y-85722860D01*
X98899270Y-85722873D01*
X98997815Y-85870354D01*
X98997818Y-85870358D01*
X99123241Y-85995781D01*
X99123245Y-85995784D01*
X99270726Y-86094329D01*
X99270739Y-86094336D01*
X99378647Y-86139032D01*
X99434614Y-86162214D01*
X99434616Y-86162214D01*
X99434621Y-86162216D01*
X99608584Y-86196819D01*
X99608587Y-86196820D01*
X99608589Y-86196820D01*
X99785973Y-86196820D01*
X99785974Y-86196819D01*
X99843962Y-86185284D01*
X99959938Y-86162216D01*
X99959941Y-86162214D01*
X99959946Y-86162214D01*
X100099815Y-86104278D01*
X100123820Y-86094336D01*
X100123820Y-86094335D01*
X100123827Y-86094333D01*
X100271315Y-85995784D01*
X100396744Y-85870355D01*
X100495293Y-85722867D01*
X100563174Y-85558986D01*
X100581730Y-85465702D01*
X100597047Y-85388695D01*
X100597780Y-85385011D01*
X100597780Y-84407629D01*
X100597780Y-84407626D01*
X100597779Y-84407624D01*
X100563176Y-84233661D01*
X100563173Y-84233652D01*
X100507239Y-84098613D01*
X100497800Y-84051161D01*
X100497800Y-82241478D01*
X100507239Y-82194025D01*
X100510298Y-82186640D01*
X100563174Y-82058986D01*
X100597780Y-81885011D01*
X100597780Y-80907629D01*
X100597780Y-80907626D01*
X100597779Y-80907624D01*
X100563176Y-80733661D01*
X100563173Y-80733652D01*
X100562700Y-80732511D01*
X100507239Y-80598613D01*
X100497800Y-80551161D01*
X100497800Y-79701478D01*
X100507239Y-79654025D01*
X100563174Y-79518986D01*
X100597780Y-79345011D01*
X100597780Y-78774220D01*
X100617465Y-78707181D01*
X100670269Y-78661426D01*
X100739427Y-78651482D01*
X100802983Y-78680507D01*
X100809461Y-78686539D01*
X101263181Y-79140259D01*
X101296666Y-79201582D01*
X101299500Y-79227940D01*
X101299500Y-95937631D01*
X101279815Y-96004670D01*
X101271354Y-96016295D01*
X101222317Y-96076047D01*
X101124769Y-96258543D01*
X101064699Y-96456567D01*
X101044417Y-96662500D01*
X101064699Y-96868432D01*
X101091647Y-96957268D01*
X101124768Y-97066454D01*
X101222315Y-97248950D01*
X101222317Y-97248952D01*
X101353589Y-97408910D01*
X101432111Y-97473350D01*
X101513550Y-97540185D01*
X101696046Y-97637732D01*
X101894066Y-97697800D01*
X101894065Y-97697800D01*
X101912529Y-97699618D01*
X102100000Y-97718083D01*
X102305934Y-97697800D01*
X102503954Y-97637732D01*
X102686450Y-97540185D01*
X102846410Y-97408910D01*
X102977685Y-97248950D01*
X103075232Y-97066454D01*
X103135300Y-96868434D01*
X103155583Y-96662500D01*
X103135300Y-96456566D01*
X103075232Y-96258546D01*
X102977685Y-96076050D01*
X102928646Y-96016295D01*
X102901334Y-95951985D01*
X102900500Y-95937631D01*
X102900500Y-95084440D01*
X102920185Y-95017401D01*
X102972989Y-94971646D01*
X103042147Y-94961702D01*
X103105703Y-94990727D01*
X103112181Y-94996759D01*
X103561400Y-95445978D01*
X103594885Y-95507301D01*
X103597122Y-95521503D01*
X103604699Y-95598432D01*
X103604700Y-95598434D01*
X103664768Y-95796454D01*
X103762315Y-95978950D01*
X103768927Y-95987007D01*
X103893589Y-96138910D01*
X103990209Y-96218202D01*
X104053550Y-96270185D01*
X104236046Y-96367732D01*
X104434066Y-96427800D01*
X104434065Y-96427800D01*
X104452529Y-96429618D01*
X104640000Y-96448083D01*
X104845934Y-96427800D01*
X105043954Y-96367732D01*
X105226450Y-96270185D01*
X105386410Y-96138910D01*
X105517685Y-95978950D01*
X105615232Y-95796454D01*
X105675300Y-95598434D01*
X105695583Y-95392500D01*
X105675300Y-95186566D01*
X105615232Y-94988546D01*
X105517685Y-94806050D01*
X105465702Y-94742709D01*
X105386410Y-94646089D01*
X105262327Y-94544258D01*
X105226450Y-94514815D01*
X105043954Y-94417268D01*
X104944944Y-94387234D01*
X104845932Y-94357199D01*
X104769003Y-94349622D01*
X104704216Y-94323460D01*
X104693478Y-94313900D01*
X104487019Y-94107441D01*
X104453534Y-94046118D01*
X104450700Y-94019760D01*
X104450700Y-88263641D01*
X105162460Y-88263641D01*
X105184912Y-88434174D01*
X105192412Y-88491138D01*
X105246498Y-88692993D01*
X105251802Y-88712787D01*
X105339610Y-88924776D01*
X105339617Y-88924790D01*
X105454352Y-89123517D01*
X105594041Y-89305561D01*
X105594049Y-89305570D01*
X105756290Y-89467811D01*
X105756298Y-89467818D01*
X105938342Y-89607507D01*
X105938345Y-89607508D01*
X105938348Y-89607511D01*
X106137072Y-89722244D01*
X106137077Y-89722246D01*
X106137083Y-89722249D01*
X106228440Y-89760090D01*
X106349073Y-89810058D01*
X106570722Y-89869448D01*
X106798226Y-89899400D01*
X106798233Y-89899400D01*
X107027687Y-89899400D01*
X107027694Y-89899400D01*
X107255198Y-89869448D01*
X107476847Y-89810058D01*
X107688848Y-89722244D01*
X107887572Y-89607511D01*
X108069621Y-89467819D01*
X108069625Y-89467814D01*
X108069630Y-89467811D01*
X108231871Y-89305570D01*
X108231874Y-89305565D01*
X108231879Y-89305561D01*
X108371571Y-89123512D01*
X108486304Y-88924788D01*
X108574118Y-88712787D01*
X108633508Y-88491138D01*
X108663460Y-88263634D01*
X108663460Y-88034166D01*
X108633508Y-87806662D01*
X108574118Y-87585013D01*
X108501745Y-87410289D01*
X108486309Y-87373023D01*
X108486306Y-87373017D01*
X108486304Y-87373012D01*
X108371571Y-87174288D01*
X108371568Y-87174285D01*
X108371567Y-87174282D01*
X108270724Y-87042862D01*
X108231879Y-86992239D01*
X108231878Y-86992238D01*
X108231871Y-86992230D01*
X108069630Y-86829989D01*
X108069621Y-86829981D01*
X107887577Y-86690292D01*
X107852454Y-86670014D01*
X107739398Y-86604741D01*
X107688850Y-86575557D01*
X107688836Y-86575550D01*
X107476847Y-86487742D01*
X107475518Y-86487386D01*
X107255198Y-86428352D01*
X107217175Y-86423346D01*
X107027701Y-86398400D01*
X107027694Y-86398400D01*
X106798226Y-86398400D01*
X106798218Y-86398400D01*
X106581675Y-86426909D01*
X106570722Y-86428352D01*
X106477036Y-86453454D01*
X106349072Y-86487742D01*
X106137083Y-86575550D01*
X106137069Y-86575557D01*
X105938342Y-86690292D01*
X105756298Y-86829981D01*
X105594041Y-86992238D01*
X105454352Y-87174282D01*
X105339617Y-87373009D01*
X105339610Y-87373023D01*
X105251802Y-87585012D01*
X105192413Y-87806659D01*
X105192411Y-87806670D01*
X105162460Y-88034158D01*
X105162460Y-88263641D01*
X104450700Y-88263641D01*
X104450700Y-53935657D01*
X104450699Y-53935653D01*
X104438235Y-53872989D01*
X104419938Y-53781003D01*
X104359594Y-53635321D01*
X104359592Y-53635318D01*
X104359590Y-53635314D01*
X104271989Y-53504211D01*
X104271986Y-53504207D01*
X100645992Y-49878213D01*
X100645988Y-49878210D01*
X100514885Y-49790609D01*
X100514872Y-49790602D01*
X100369201Y-49730264D01*
X100369189Y-49730261D01*
X100214545Y-49699500D01*
X100214542Y-49699500D01*
X76918842Y-49699500D01*
X76761158Y-49699500D01*
X76761155Y-49699500D01*
X76606510Y-49730261D01*
X76606498Y-49730264D01*
X76460827Y-49790602D01*
X76460814Y-49790609D01*
X76329711Y-49878210D01*
X76329707Y-49878213D01*
X76218213Y-49989707D01*
X76218210Y-49989711D01*
X76130609Y-50120814D01*
X76130602Y-50120827D01*
X76070264Y-50266498D01*
X76070261Y-50266510D01*
X76039500Y-50421153D01*
X76039500Y-51654793D01*
X76030061Y-51702245D01*
X75974106Y-51837332D01*
X75974103Y-51837341D01*
X75939500Y-52011304D01*
X75939500Y-52988695D01*
X75974104Y-53162658D01*
X75974107Y-53162670D01*
X76030061Y-53297755D01*
X76039500Y-53345207D01*
X76039500Y-55154793D01*
X76030061Y-55202245D01*
X75974106Y-55337332D01*
X75974103Y-55337341D01*
X75939500Y-55511304D01*
X75939500Y-56488695D01*
X75200499Y-56488695D01*
X75200500Y-56488693D01*
X75200500Y-55511306D01*
X75200499Y-55511304D01*
X75165896Y-55337341D01*
X75165893Y-55337332D01*
X75109939Y-55202245D01*
X75100500Y-55154793D01*
X75100500Y-53345207D01*
X75109939Y-53297755D01*
X75165892Y-53162670D01*
X75165894Y-53162666D01*
X75200500Y-52988691D01*
X75200500Y-52011309D01*
X75200500Y-52011306D01*
X75200499Y-52011304D01*
X75165896Y-51837341D01*
X75165893Y-51837332D01*
X75098016Y-51673459D01*
X75098009Y-51673446D01*
X74999464Y-51525965D01*
X74999461Y-51525961D01*
X74874038Y-51400538D01*
X74874034Y-51400535D01*
X74726553Y-51301990D01*
X74726540Y-51301983D01*
X74562667Y-51234106D01*
X74562658Y-51234103D01*
X74388694Y-51199500D01*
X74388691Y-51199500D01*
X74211309Y-51199500D01*
X74211306Y-51199500D01*
X74037341Y-51234103D01*
X74037332Y-51234106D01*
X73873459Y-51301983D01*
X73873446Y-51301990D01*
X73725965Y-51400535D01*
X73725961Y-51400538D01*
X73600538Y-51525961D01*
X73600535Y-51525965D01*
X73501990Y-51673446D01*
X73501983Y-51673459D01*
X73434106Y-51837332D01*
X73434103Y-51837341D01*
X73399500Y-52011304D01*
X73399500Y-52988695D01*
X73434104Y-53162658D01*
X73434107Y-53162670D01*
X73490061Y-53297755D01*
X73499500Y-53345207D01*
X73499500Y-55154793D01*
X73490061Y-55202245D01*
X73434106Y-55337332D01*
X73434103Y-55337341D01*
X73399500Y-55511304D01*
X73399500Y-56488695D01*
X72660499Y-56488695D01*
X72660500Y-56488693D01*
X72660500Y-55511306D01*
X72660499Y-55511304D01*
X72625896Y-55337341D01*
X72625893Y-55337332D01*
X72569939Y-55202245D01*
X72560500Y-55154793D01*
X72560500Y-53345207D01*
X72569939Y-53297755D01*
X72625892Y-53162670D01*
X72625894Y-53162666D01*
X72660500Y-52988691D01*
X72660500Y-52011309D01*
X72660500Y-52011306D01*
X72660499Y-52011304D01*
X72625896Y-51837341D01*
X72625893Y-51837332D01*
X72558016Y-51673459D01*
X72558009Y-51673446D01*
X72459464Y-51525965D01*
X72459461Y-51525961D01*
X72334038Y-51400538D01*
X72334034Y-51400535D01*
X72186553Y-51301990D01*
X72186540Y-51301983D01*
X72022667Y-51234106D01*
X72022658Y-51234103D01*
X71848694Y-51199500D01*
X71848691Y-51199500D01*
X71671309Y-51199500D01*
X71671306Y-51199500D01*
X71497341Y-51234103D01*
X71497332Y-51234106D01*
X71333459Y-51301983D01*
X71333446Y-51301990D01*
X71185965Y-51400535D01*
X71185961Y-51400538D01*
X71060538Y-51525961D01*
X71060535Y-51525965D01*
X70961990Y-51673446D01*
X70961983Y-51673459D01*
X70894106Y-51837332D01*
X70894103Y-51837341D01*
X70859500Y-52011304D01*
X70859500Y-52988695D01*
X70894104Y-53162658D01*
X70894107Y-53162670D01*
X70950061Y-53297755D01*
X70959500Y-53345207D01*
X70959500Y-55154793D01*
X70950061Y-55202245D01*
X70894106Y-55337332D01*
X70894103Y-55337341D01*
X70859500Y-55511304D01*
X70859500Y-56488695D01*
X70120499Y-56488695D01*
X70120500Y-56488693D01*
X70120500Y-55511306D01*
X70120499Y-55511304D01*
X70085896Y-55337341D01*
X70085893Y-55337332D01*
X70029939Y-55202245D01*
X70020500Y-55154793D01*
X70020500Y-53345207D01*
X70029939Y-53297755D01*
X70085892Y-53162670D01*
X70085894Y-53162666D01*
X70120500Y-52988691D01*
X70120500Y-52011309D01*
X70120500Y-52011306D01*
X70120499Y-52011304D01*
X70085896Y-51837341D01*
X70085893Y-51837332D01*
X70018016Y-51673459D01*
X70018009Y-51673446D01*
X69919464Y-51525965D01*
X69919461Y-51525961D01*
X69794038Y-51400538D01*
X69794034Y-51400535D01*
X69646553Y-51301990D01*
X69646540Y-51301983D01*
X69482667Y-51234106D01*
X69482658Y-51234103D01*
X69308694Y-51199500D01*
X69308691Y-51199500D01*
X69131309Y-51199500D01*
X69131306Y-51199500D01*
X68957341Y-51234103D01*
X68957332Y-51234106D01*
X68793459Y-51301983D01*
X68793446Y-51301990D01*
X68645965Y-51400535D01*
X68645961Y-51400538D01*
X68520538Y-51525961D01*
X68520535Y-51525965D01*
X68421990Y-51673446D01*
X68421983Y-51673459D01*
X68354106Y-51837332D01*
X68354103Y-51837341D01*
X68319500Y-52011304D01*
X68319500Y-52988695D01*
X68354104Y-53162658D01*
X68354107Y-53162670D01*
X68410061Y-53297755D01*
X68419500Y-53345207D01*
X68419500Y-55154793D01*
X68410061Y-55202245D01*
X68354106Y-55337332D01*
X68354103Y-55337341D01*
X68319500Y-55511304D01*
X68319500Y-56488695D01*
X67580499Y-56488695D01*
X67580500Y-56488691D01*
X67580500Y-55511309D01*
X67580500Y-55511306D01*
X67580499Y-55511304D01*
X67545896Y-55337341D01*
X67545893Y-55337332D01*
X67489939Y-55202245D01*
X67480500Y-55154793D01*
X67480500Y-53345207D01*
X67489939Y-53297755D01*
X67545892Y-53162670D01*
X67545894Y-53162666D01*
X67580500Y-52988691D01*
X67580500Y-52011309D01*
X67580500Y-52011306D01*
X67580499Y-52011304D01*
X67545896Y-51837341D01*
X67545893Y-51837332D01*
X67478016Y-51673459D01*
X67478009Y-51673446D01*
X67379464Y-51525965D01*
X67379461Y-51525961D01*
X67254038Y-51400538D01*
X67254034Y-51400535D01*
X67106553Y-51301990D01*
X67106540Y-51301983D01*
X66942667Y-51234106D01*
X66942658Y-51234103D01*
X66768694Y-51199500D01*
X66768691Y-51199500D01*
X66591309Y-51199500D01*
X66591306Y-51199500D01*
X66417341Y-51234103D01*
X66417332Y-51234106D01*
X66253459Y-51301983D01*
X66253446Y-51301990D01*
X66105965Y-51400535D01*
X66105961Y-51400538D01*
X65980538Y-51525961D01*
X65980535Y-51525965D01*
X65881990Y-51673446D01*
X65881983Y-51673459D01*
X65814106Y-51837332D01*
X65814103Y-51837341D01*
X65779500Y-52011304D01*
X65779500Y-52988695D01*
X65814104Y-53162658D01*
X65814107Y-53162670D01*
X65870061Y-53297755D01*
X65879500Y-53345207D01*
X65879500Y-55154793D01*
X65870061Y-55202245D01*
X65814106Y-55337332D01*
X65814103Y-55337341D01*
X65779500Y-55511304D01*
X65779500Y-56488695D01*
X65814104Y-56662658D01*
X65814107Y-56662670D01*
X65870061Y-56797755D01*
X65879500Y-56845207D01*
X65879500Y-57075500D01*
X65859815Y-57142539D01*
X65807011Y-57188294D01*
X65755500Y-57199500D01*
X64913362Y-57199500D01*
X64846323Y-57179815D01*
X64800568Y-57127011D01*
X64790624Y-57057853D01*
X64819649Y-56994297D01*
X64825681Y-56987819D01*
X64839461Y-56974038D01*
X64839464Y-56974035D01*
X64938013Y-56826547D01*
X65005894Y-56662666D01*
X65012356Y-56630183D01*
X65040499Y-56488695D01*
X65040500Y-56488693D01*
X65040500Y-55511306D01*
X65040499Y-55511304D01*
X65005896Y-55337341D01*
X65005893Y-55337332D01*
X64949939Y-55202245D01*
X64940500Y-55154793D01*
X64940500Y-53345207D01*
X64949939Y-53297755D01*
X65005892Y-53162670D01*
X65005894Y-53162666D01*
X65040500Y-52988691D01*
X65040500Y-52011309D01*
X65040500Y-52011306D01*
X65040499Y-52011304D01*
X65005896Y-51837341D01*
X65005893Y-51837332D01*
X64938016Y-51673459D01*
X64938009Y-51673446D01*
X64839464Y-51525965D01*
X64839461Y-51525961D01*
X64714038Y-51400538D01*
X64714034Y-51400535D01*
X64566553Y-51301990D01*
X64566540Y-51301983D01*
X64402667Y-51234106D01*
X64402658Y-51234103D01*
X64228694Y-51199500D01*
X64228691Y-51199500D01*
X64051309Y-51199500D01*
X64051306Y-51199500D01*
X63877341Y-51234103D01*
X63877332Y-51234106D01*
X63713459Y-51301983D01*
X63713446Y-51301990D01*
X63565965Y-51400535D01*
X63565961Y-51400538D01*
X63440538Y-51525961D01*
X63440535Y-51525965D01*
X63341990Y-51673446D01*
X63341983Y-51673459D01*
X63274106Y-51837332D01*
X63274103Y-51837341D01*
X63239500Y-52011304D01*
X63239500Y-52988695D01*
X63274104Y-53162658D01*
X63274107Y-53162670D01*
X63330061Y-53297755D01*
X63339500Y-53345207D01*
X63339500Y-55154793D01*
X63330061Y-55202245D01*
X63274106Y-55337332D01*
X63274103Y-55337341D01*
X63239500Y-55511304D01*
X63239500Y-56488695D01*
X63274103Y-56662658D01*
X63274106Y-56662667D01*
X63341983Y-56826540D01*
X63341990Y-56826553D01*
X63440535Y-56974034D01*
X63440538Y-56974038D01*
X63454319Y-56987819D01*
X63487804Y-57049142D01*
X63482820Y-57118834D01*
X63440948Y-57174767D01*
X63375484Y-57199184D01*
X63366638Y-57199500D01*
X62373362Y-57199500D01*
X62306323Y-57179815D01*
X62260568Y-57127011D01*
X62250624Y-57057853D01*
X62279649Y-56994297D01*
X62285681Y-56987819D01*
X62299461Y-56974038D01*
X62299464Y-56974035D01*
X62398013Y-56826547D01*
X62465894Y-56662666D01*
X62472356Y-56630183D01*
X62500499Y-56488695D01*
X62500500Y-56488693D01*
X62500500Y-55511306D01*
X62500499Y-55511304D01*
X62465896Y-55337341D01*
X62465893Y-55337332D01*
X62409939Y-55202245D01*
X62400500Y-55154793D01*
X62400500Y-53345207D01*
X62409939Y-53297755D01*
X62465892Y-53162670D01*
X62465894Y-53162666D01*
X62500500Y-52988691D01*
X62500500Y-52011309D01*
X62500500Y-52011306D01*
X62500499Y-52011304D01*
X62465896Y-51837341D01*
X62465893Y-51837332D01*
X62398016Y-51673459D01*
X62398009Y-51673446D01*
X62299464Y-51525965D01*
X62299461Y-51525961D01*
X62174038Y-51400538D01*
X62174034Y-51400535D01*
X62026553Y-51301990D01*
X62026540Y-51301983D01*
X61862667Y-51234106D01*
X61862658Y-51234103D01*
X61688694Y-51199500D01*
X61688691Y-51199500D01*
X61511309Y-51199500D01*
X61511306Y-51199500D01*
X61337341Y-51234103D01*
X61337332Y-51234106D01*
X61173459Y-51301983D01*
X61173446Y-51301990D01*
X61025965Y-51400535D01*
X61025961Y-51400538D01*
X60900538Y-51525961D01*
X60900535Y-51525965D01*
X60801990Y-51673446D01*
X60801983Y-51673459D01*
X60734106Y-51837332D01*
X60734103Y-51837341D01*
X60699500Y-52011304D01*
X60699500Y-52988695D01*
X60734104Y-53162658D01*
X60734107Y-53162670D01*
X60790061Y-53297755D01*
X60799500Y-53345207D01*
X60799500Y-55154793D01*
X60790061Y-55202245D01*
X60734106Y-55337332D01*
X60734103Y-55337341D01*
X60699500Y-55511304D01*
X60699500Y-56488695D01*
X60734103Y-56662658D01*
X60734106Y-56662667D01*
X60801983Y-56826540D01*
X60801990Y-56826553D01*
X60900535Y-56974034D01*
X60900538Y-56974038D01*
X60914319Y-56987819D01*
X60947804Y-57049142D01*
X60942820Y-57118834D01*
X60900948Y-57174767D01*
X60835484Y-57199184D01*
X60826638Y-57199500D01*
X59833362Y-57199500D01*
X59766323Y-57179815D01*
X59720568Y-57127011D01*
X59710624Y-57057853D01*
X59739649Y-56994297D01*
X59745681Y-56987819D01*
X59759461Y-56974038D01*
X59759464Y-56974035D01*
X59858013Y-56826547D01*
X59925894Y-56662666D01*
X59932356Y-56630183D01*
X59960499Y-56488695D01*
X59960500Y-56488693D01*
X59960500Y-55511306D01*
X59960499Y-55511304D01*
X59925896Y-55337341D01*
X59925893Y-55337332D01*
X59869939Y-55202245D01*
X59860500Y-55154793D01*
X59860500Y-53345207D01*
X59869939Y-53297755D01*
X59925892Y-53162670D01*
X59925894Y-53162666D01*
X59960500Y-52988691D01*
X59960500Y-52011309D01*
X59960500Y-52011306D01*
X59960499Y-52011304D01*
X59925896Y-51837341D01*
X59925893Y-51837332D01*
X59858016Y-51673459D01*
X59858009Y-51673446D01*
X59759464Y-51525965D01*
X59759461Y-51525961D01*
X59634038Y-51400538D01*
X59634034Y-51400535D01*
X59486553Y-51301990D01*
X59486540Y-51301983D01*
X59322667Y-51234106D01*
X59322658Y-51234103D01*
X59148694Y-51199500D01*
X59148691Y-51199500D01*
X58971309Y-51199500D01*
X58971306Y-51199500D01*
X58797341Y-51234103D01*
X58797332Y-51234106D01*
X58633459Y-51301983D01*
X58633446Y-51301990D01*
X58485965Y-51400535D01*
X58485961Y-51400538D01*
X58360538Y-51525961D01*
X58360535Y-51525965D01*
X58261990Y-51673446D01*
X58261983Y-51673459D01*
X58194106Y-51837332D01*
X58194103Y-51837341D01*
X58159500Y-52011304D01*
X58159500Y-52988695D01*
X58194104Y-53162658D01*
X58194107Y-53162670D01*
X58250061Y-53297755D01*
X58259500Y-53345207D01*
X58259500Y-55154793D01*
X58250061Y-55202245D01*
X58194106Y-55337332D01*
X58194103Y-55337341D01*
X58159500Y-55511304D01*
X58159500Y-56488695D01*
X58194103Y-56662658D01*
X58194106Y-56662667D01*
X58261983Y-56826540D01*
X58261990Y-56826553D01*
X58360535Y-56974034D01*
X58360538Y-56974038D01*
X58374319Y-56987819D01*
X58407804Y-57049142D01*
X58402820Y-57118834D01*
X58360948Y-57174767D01*
X58295484Y-57199184D01*
X58286638Y-57199500D01*
X57293362Y-57199500D01*
X57226323Y-57179815D01*
X57180568Y-57127011D01*
X57170624Y-57057853D01*
X57199649Y-56994297D01*
X57205681Y-56987819D01*
X57219461Y-56974038D01*
X57219464Y-56974035D01*
X57318013Y-56826547D01*
X57385894Y-56662666D01*
X57392356Y-56630183D01*
X57420499Y-56488695D01*
X57420500Y-56488693D01*
X57420500Y-55511306D01*
X57420499Y-55511304D01*
X57385896Y-55337341D01*
X57385893Y-55337332D01*
X57329939Y-55202245D01*
X57320500Y-55154793D01*
X57320500Y-53345207D01*
X57329939Y-53297755D01*
X57385892Y-53162670D01*
X57385894Y-53162666D01*
X57420500Y-52988691D01*
X57420500Y-52011309D01*
X57420500Y-52011306D01*
X57420499Y-52011304D01*
X57385896Y-51837341D01*
X57385893Y-51837332D01*
X57329939Y-51702245D01*
X57320500Y-51654793D01*
X57320500Y-50421158D01*
X57315151Y-50394265D01*
X57315151Y-50394263D01*
X57315151Y-50394262D01*
X57289739Y-50266510D01*
X57289738Y-50266503D01*
X57229394Y-50120821D01*
X57229392Y-50120818D01*
X57229390Y-50120814D01*
X57141789Y-49989711D01*
X57141786Y-49989707D01*
X56629920Y-49477841D01*
X105157380Y-49477841D01*
X105174375Y-49606922D01*
X105187332Y-49705338D01*
X105210180Y-49790609D01*
X105246722Y-49926987D01*
X105334530Y-50138976D01*
X105334536Y-50138988D01*
X105437706Y-50317685D01*
X105449272Y-50337717D01*
X105588961Y-50519761D01*
X105588969Y-50519770D01*
X105751210Y-50682011D01*
X105751218Y-50682018D01*
X105933262Y-50821707D01*
X105933265Y-50821708D01*
X105933268Y-50821711D01*
X106131992Y-50936444D01*
X106131997Y-50936446D01*
X106132003Y-50936449D01*
X106223360Y-50974290D01*
X106343993Y-51024258D01*
X106565642Y-51083648D01*
X106793146Y-51113600D01*
X106793153Y-51113600D01*
X107022607Y-51113600D01*
X107022614Y-51113600D01*
X107250118Y-51083648D01*
X107471767Y-51024258D01*
X107683768Y-50936444D01*
X107882492Y-50821711D01*
X108064541Y-50682019D01*
X108064545Y-50682014D01*
X108064550Y-50682011D01*
X108226791Y-50519770D01*
X108226794Y-50519765D01*
X108226799Y-50519761D01*
X108366491Y-50337712D01*
X108481224Y-50138988D01*
X108569038Y-49926987D01*
X108628428Y-49705338D01*
X108658380Y-49477834D01*
X108658380Y-49248366D01*
X108641650Y-49121288D01*
X111149500Y-49121288D01*
X111181161Y-49361785D01*
X111243947Y-49596104D01*
X111324511Y-49790602D01*
X111336776Y-49820212D01*
X111458064Y-50030289D01*
X111458066Y-50030292D01*
X111458067Y-50030293D01*
X111605733Y-50222736D01*
X111605739Y-50222743D01*
X111777259Y-50394263D01*
X111848318Y-50448788D01*
X111969711Y-50541936D01*
X112179788Y-50663224D01*
X112403900Y-50756054D01*
X112638211Y-50818838D01*
X112790228Y-50838851D01*
X112878711Y-50850500D01*
X112878712Y-50850500D01*
X113121289Y-50850500D01*
X113209772Y-50838851D01*
X113361789Y-50818838D01*
X113596100Y-50756054D01*
X113820212Y-50663224D01*
X114030289Y-50541936D01*
X114222738Y-50394265D01*
X114222741Y-50394263D01*
X114222743Y-50394260D01*
X114394260Y-50222743D01*
X114394265Y-50222738D01*
X114541936Y-50030289D01*
X114663224Y-49820212D01*
X114756054Y-49596100D01*
X114818838Y-49361789D01*
X114850500Y-49121288D01*
X114850500Y-48878712D01*
X114818838Y-48638211D01*
X114756054Y-48403900D01*
X114663224Y-48179788D01*
X114541936Y-47969711D01*
X114403852Y-47789756D01*
X114394266Y-47777263D01*
X114394260Y-47777256D01*
X114222743Y-47605739D01*
X114222736Y-47605733D01*
X114030293Y-47458067D01*
X114030292Y-47458066D01*
X114030289Y-47458064D01*
X113820212Y-47336776D01*
X113820205Y-47336773D01*
X113596104Y-47243947D01*
X113361785Y-47181161D01*
X113121289Y-47149500D01*
X113121288Y-47149500D01*
X112878712Y-47149500D01*
X112878711Y-47149500D01*
X112638214Y-47181161D01*
X112403895Y-47243947D01*
X112179794Y-47336773D01*
X112179785Y-47336777D01*
X111969706Y-47458067D01*
X111777263Y-47605733D01*
X111777256Y-47605739D01*
X111605739Y-47777256D01*
X111605733Y-47777263D01*
X111458067Y-47969706D01*
X111336777Y-48179785D01*
X111336773Y-48179794D01*
X111243947Y-48403895D01*
X111181161Y-48638214D01*
X111149500Y-48878711D01*
X111149500Y-49121288D01*
X108641650Y-49121288D01*
X108628428Y-49020862D01*
X108569038Y-48799213D01*
X108489770Y-48607843D01*
X108481229Y-48587223D01*
X108481226Y-48587217D01*
X108481224Y-48587212D01*
X108366491Y-48388488D01*
X108366488Y-48388485D01*
X108366487Y-48388482D01*
X108226798Y-48206438D01*
X108226791Y-48206430D01*
X108064550Y-48044189D01*
X108064541Y-48044181D01*
X107882497Y-47904492D01*
X107864899Y-47894332D01*
X107683768Y-47789756D01*
X107683756Y-47789750D01*
X107471767Y-47701942D01*
X107433849Y-47691782D01*
X107250118Y-47642552D01*
X107212095Y-47637546D01*
X107022621Y-47612600D01*
X107022614Y-47612600D01*
X106793146Y-47612600D01*
X106793138Y-47612600D01*
X106576595Y-47641109D01*
X106565642Y-47642552D01*
X106541772Y-47648948D01*
X106343992Y-47701942D01*
X106132003Y-47789750D01*
X106131989Y-47789757D01*
X105933262Y-47904492D01*
X105751218Y-48044181D01*
X105588961Y-48206438D01*
X105449272Y-48388482D01*
X105334537Y-48587209D01*
X105334530Y-48587223D01*
X105246722Y-48799212D01*
X105221725Y-48892504D01*
X105190055Y-49010702D01*
X105187333Y-49020859D01*
X105187331Y-49020870D01*
X105157380Y-49248358D01*
X105157380Y-49477841D01*
X56629920Y-49477841D01*
X53331392Y-46179313D01*
X53331388Y-46179310D01*
X53200285Y-46091709D01*
X53200272Y-46091702D01*
X53054601Y-46031364D01*
X53054589Y-46031361D01*
X52899945Y-46000600D01*
X52899942Y-46000600D01*
X37934143Y-46000600D01*
X37776458Y-46000600D01*
X37776453Y-46000600D01*
X37621810Y-46031360D01*
X37621802Y-46031362D01*
X37476124Y-46091704D01*
X37476114Y-46091709D01*
X37345011Y-46179310D01*
X37345007Y-46179313D01*
X35832540Y-47691782D01*
X35369811Y-48154511D01*
X35328052Y-48196270D01*
X35258309Y-48266012D01*
X35170709Y-48397114D01*
X35170702Y-48397127D01*
X35110364Y-48542798D01*
X35110361Y-48542810D01*
X35079600Y-48697453D01*
X35079600Y-48727024D01*
X35059915Y-48794063D01*
X35007111Y-48839818D01*
X34937953Y-48849762D01*
X34874397Y-48820737D01*
X34836623Y-48761959D01*
X34832661Y-48743209D01*
X34818838Y-48638214D01*
X34818838Y-48638211D01*
X34756054Y-48403900D01*
X34663224Y-48179788D01*
X34541936Y-47969711D01*
X34403852Y-47789756D01*
X34394266Y-47777263D01*
X34394260Y-47777256D01*
X34222743Y-47605739D01*
X34222736Y-47605733D01*
X34030293Y-47458067D01*
X34030292Y-47458066D01*
X34030289Y-47458064D01*
X33820212Y-47336776D01*
X33820205Y-47336773D01*
X33596104Y-47243947D01*
X33361785Y-47181161D01*
X33121289Y-47149500D01*
X33121288Y-47149500D01*
X32878712Y-47149500D01*
X32878711Y-47149500D01*
X32638214Y-47181161D01*
X32403895Y-47243947D01*
X32179794Y-47336773D01*
X32179785Y-47336777D01*
X31969706Y-47458067D01*
X31777263Y-47605733D01*
X31777256Y-47605739D01*
X31605739Y-47777256D01*
X31605733Y-47777263D01*
X31458067Y-47969706D01*
X31336777Y-48179785D01*
X31336773Y-48179794D01*
X31243947Y-48403895D01*
X31181161Y-48638214D01*
X31149500Y-48878711D01*
X31149500Y-49121288D01*
X31181161Y-49361785D01*
X31243947Y-49596104D01*
X31324511Y-49790602D01*
X31336776Y-49820212D01*
X31458064Y-50030289D01*
X31458066Y-50030292D01*
X31458067Y-50030293D01*
X31605733Y-50222736D01*
X31605739Y-50222743D01*
X31777259Y-50394263D01*
X31848318Y-50448788D01*
X31969711Y-50541936D01*
X32179788Y-50663224D01*
X32329196Y-50725110D01*
X32403897Y-50756053D01*
X32403898Y-50756053D01*
X32403900Y-50756054D01*
X32577190Y-50802487D01*
X32636849Y-50838851D01*
X32667378Y-50901698D01*
X32659083Y-50971073D01*
X32614598Y-51024951D01*
X32613988Y-51025362D01*
X32572309Y-51053211D01*
X32572307Y-51053213D01*
X30993807Y-52631715D01*
X30483411Y-53142111D01*
X30437266Y-53188256D01*
X30371909Y-53253612D01*
X30284309Y-53384714D01*
X30284302Y-53384727D01*
X30223964Y-53530398D01*
X30223961Y-53530410D01*
X30193200Y-53685053D01*
X30193200Y-83032546D01*
X28500500Y-83032546D01*
X28500500Y-49002706D01*
X28500618Y-48997297D01*
X28505193Y-48892504D01*
X28517386Y-48613226D01*
X28518326Y-48602495D01*
X28568152Y-48224025D01*
X28570025Y-48213405D01*
X28652649Y-47840709D01*
X28655440Y-47830295D01*
X28770230Y-47466227D01*
X28773917Y-47456095D01*
X28920003Y-47103412D01*
X28924561Y-47093638D01*
X29100822Y-46755045D01*
X29106217Y-46745700D01*
X29311325Y-46423744D01*
X29317515Y-46414905D01*
X29549896Y-46112060D01*
X29556834Y-46103791D01*
X29814726Y-45822352D01*
X29822352Y-45814726D01*
X30103791Y-45556834D01*
X30112060Y-45549896D01*
X30414905Y-45317515D01*
X30423744Y-45311325D01*
X30745700Y-45106217D01*
X30755045Y-45100822D01*
X31093638Y-44924561D01*
X31103412Y-44920003D01*
X31456095Y-44773917D01*
X31466227Y-44770230D01*
X31830295Y-44655440D01*
X31840709Y-44652649D01*
X32213405Y-44570025D01*
X32224025Y-44568152D01*
X32602495Y-44518326D01*
X32613226Y-44517386D01*
X32997297Y-44500617D01*
X33002706Y-44500500D01*
X33065892Y-44500500D01*
X112934108Y-44500500D01*
X112997294Y-44500500D01*
X113002702Y-44500617D01*
G37*
%TD.AperFunction*%
%TD*%
M02*
