%TF.GenerationSoftware,KiCad,Pcbnew,8.0.1*%
%TF.CreationDate,2024-04-17T02:22:22+02:00*%
%TF.ProjectId,Head Unit,48656164-2055-46e6-9974-2e6b69636164,rev?*%
%TF.SameCoordinates,Original*%
%TF.FileFunction,Soldermask,Bot*%
%TF.FilePolarity,Negative*%
%FSLAX46Y46*%
G04 Gerber Fmt 4.6, Leading zero omitted, Abs format (unit mm)*
G04 Created by KiCad (PCBNEW 8.0.1) date 2024-04-17 02:22:22*
%MOMM*%
%LPD*%
G01*
G04 APERTURE LIST*
%ADD10R,1.600000X1.600000*%
%ADD11C,1.600000*%
%ADD12R,1.700000X1.700000*%
%ADD13O,1.700000X1.700000*%
%ADD14R,1.270000X1.270000*%
%ADD15C,1.270000*%
%ADD16C,1.200000*%
%ADD17C,3.000000*%
%ADD18C,1.524000*%
%ADD19C,3.200000*%
%ADD20R,2.400000X2.400000*%
%ADD21O,2.400000X2.400000*%
%ADD22R,1.200000X2.000000*%
%ADD23O,1.200000X2.000000*%
G04 APERTURE END LIST*
D10*
%TO.C,C2*%
X56134000Y-100298000D03*
D11*
X56134000Y-98298000D03*
%TD*%
D12*
%TO.C,J10*%
X33020000Y-102616000D03*
D13*
X30480000Y-102616000D03*
%TD*%
D14*
%TO.C,U2*%
X48270000Y-97856000D03*
D15*
X48270000Y-100396000D03*
X48270000Y-102936000D03*
X48270000Y-108016000D03*
X48270000Y-110556000D03*
X48270000Y-113096000D03*
X48270000Y-115636000D03*
%TD*%
D16*
%TO.C,C1*%
X62992000Y-98806000D03*
X62992000Y-100806000D03*
%TD*%
D12*
%TO.C,J5*%
X30000000Y-58420000D03*
D13*
X30000000Y-60960000D03*
X30000000Y-63500000D03*
%TD*%
D12*
%TO.C,J4*%
X121000000Y-58475000D03*
D13*
X121000000Y-61015000D03*
X121000000Y-63555000D03*
%TD*%
D17*
%TO.C,J7*%
X39491920Y-87898900D03*
X39502080Y-49102940D03*
X107497880Y-49113100D03*
X107502960Y-87898900D03*
D18*
X39979600Y-76062500D03*
X39979600Y-73522500D03*
X39979600Y-70982500D03*
X39979600Y-68442500D03*
X39979600Y-65902500D03*
X39979600Y-63362500D03*
X39979600Y-60822500D03*
%TD*%
D19*
%TO.C,BL*%
X30000000Y-129000000D03*
%TD*%
D12*
%TO.C,J8*%
X33000000Y-96500000D03*
D13*
X30460000Y-96500000D03*
%TD*%
D12*
%TO.C,J3*%
X30000000Y-83920000D03*
D13*
X30000000Y-86460000D03*
X30000000Y-89000000D03*
%TD*%
D20*
%TO.C,D1*%
X56134000Y-117094000D03*
D21*
X56134000Y-106934000D03*
%TD*%
D12*
%TO.C,J1*%
X30000000Y-70960000D03*
D13*
X30000000Y-73500000D03*
X30000000Y-76040000D03*
%TD*%
D12*
%TO.C,J11*%
X33000000Y-107500000D03*
D13*
X30460000Y-107500000D03*
%TD*%
D19*
%TO.C,BR*%
X120000000Y-129000000D03*
%TD*%
D12*
%TO.C,J2*%
X121000000Y-83920000D03*
D13*
X121000000Y-86460000D03*
X121000000Y-89000000D03*
%TD*%
D19*
%TO.C,TR*%
X120000000Y-49000000D03*
%TD*%
%TO.C,TL*%
X30000000Y-49000000D03*
%TD*%
D22*
%TO.C,U1*%
X67691000Y-130373000D03*
X67691000Y-126873000D03*
D23*
X70231000Y-130373000D03*
X70231000Y-126873000D03*
X72771000Y-130373000D03*
X72771000Y-126873000D03*
X75311000Y-130373000D03*
X75311000Y-126873000D03*
X77851000Y-130373000D03*
X77851000Y-126873000D03*
X80391000Y-130373000D03*
X80391000Y-126873000D03*
X82931000Y-130373000D03*
X82931000Y-126873000D03*
X85471000Y-130373000D03*
X85471000Y-126873000D03*
X88011000Y-130373000D03*
X88011000Y-126873000D03*
X90551000Y-130373000D03*
X90551000Y-126873000D03*
X93091000Y-130373000D03*
X93091000Y-126873000D03*
X95631000Y-130373000D03*
X95631000Y-126873000D03*
X98171000Y-130373000D03*
X98171000Y-126873000D03*
X100711000Y-130373000D03*
X100711000Y-126873000D03*
X103251000Y-130373000D03*
X103251000Y-126873000D03*
X105791000Y-130373000D03*
X105791000Y-126873000D03*
X108331000Y-130373000D03*
X108331000Y-126873000D03*
X110871000Y-130373000D03*
X110871000Y-126873000D03*
X113411000Y-130373000D03*
X113411000Y-126873000D03*
X113408280Y-101476680D03*
X113408280Y-97976680D03*
X110868280Y-101476680D03*
X110868280Y-97976680D03*
X108331000Y-101473000D03*
X108331000Y-97973000D03*
X105791000Y-101473000D03*
X105791000Y-97973000D03*
X103251000Y-101473000D03*
X103251000Y-97973000D03*
X100711000Y-101473000D03*
X100711000Y-97973000D03*
X98171000Y-101473000D03*
X98171000Y-97973000D03*
X95631000Y-101473000D03*
X95631000Y-97973000D03*
X93091000Y-101473000D03*
X93091000Y-97973000D03*
X90551000Y-101473000D03*
X90551000Y-97973000D03*
X88011000Y-101473000D03*
X88011000Y-97973000D03*
X85471000Y-101473000D03*
X85471000Y-97973000D03*
X82931000Y-101473000D03*
X82931000Y-97973000D03*
X80391000Y-101473000D03*
X80391000Y-97973000D03*
X77851000Y-101473000D03*
X77851000Y-97973000D03*
X75311000Y-101473000D03*
X75311000Y-97973000D03*
X72771000Y-101473000D03*
X72771000Y-97973000D03*
X70231000Y-101473000D03*
X70231000Y-97973000D03*
X67691000Y-101473000D03*
X67691000Y-97973000D03*
%TD*%
D12*
%TO.C,J6*%
X38600000Y-128800000D03*
D13*
X41140000Y-128800000D03*
X43680000Y-128800000D03*
X46220000Y-128800000D03*
X48760000Y-128800000D03*
X51300000Y-128800000D03*
X53840000Y-128800000D03*
%TD*%
D12*
%TO.C,J12*%
X60200000Y-128600000D03*
D13*
X62740000Y-128600000D03*
%TD*%
D12*
%TO.C,J9*%
X38600000Y-122400000D03*
D13*
X41140000Y-122400000D03*
X43680000Y-122400000D03*
X46220000Y-122400000D03*
X48760000Y-122400000D03*
X51300000Y-122400000D03*
%TD*%
M02*
