M48
; DRILL file {KiCad 8.0.1} date 2024-07-29T09:45:27+0200
; FORMAT={-:-/ absolute / inch / decimal}
; #@! TF.CreationDate,2024-07-29T09:45:27+02:00
; #@! TF.GenerationSoftware,Kicad,Pcbnew,8.0.1
; #@! TF.FileFunction,Plated,1,2,PTH
FMAT,2
INCH
; #@! TA.AperFunction,Plated,PTH,ComponentDrill
T1C0.0236
; #@! TA.AperFunction,Plated,PTH,ComponentDrill
T2C0.0299
; #@! TA.AperFunction,Plated,PTH,ComponentDrill
T3C0.0300
; #@! TA.AperFunction,Plated,PTH,ComponentDrill
T4C0.0315
; #@! TA.AperFunction,Plated,PTH,ComponentDrill
T5C0.0394
%
G90
G05
T1
X1.9094Y-2.0866
X1.9094Y-2.1654
T2
X4.0197Y-3.8056
X4.0197Y-3.9056
X4.0197Y-4.0056
X4.0197Y-4.1056
X4.1197Y-3.7556
X4.1197Y-3.8556
X4.1197Y-3.9556
X4.1197Y-4.0556
T3
X1.5508Y-2.4044
X1.5508Y-2.5044
X1.5508Y-2.6044
X1.5508Y-2.7044
X1.5508Y-2.8044
X1.5508Y-2.9044
X1.5508Y-3.0044
T4
X2.1252Y-2.0669
X2.1252Y-2.2047
X2.1252Y-3.1047
X2.1252Y-3.2047
X2.1252Y-3.3425
X2.2252Y-2.0669
X2.2252Y-2.2047
X2.2252Y-3.1047
X2.2252Y-3.2047
X2.2252Y-3.3425
X2.3252Y-2.0669
X2.3252Y-2.2047
X2.3252Y-3.1047
X2.3252Y-3.2047
X2.3252Y-3.3425
X2.4252Y-2.0669
X2.4252Y-2.2047
X2.4252Y-3.1047
X2.4252Y-3.2047
X2.4252Y-3.3425
X2.5252Y-2.0669
X2.5252Y-2.2047
X2.5252Y-3.1047
X2.5252Y-3.2047
X2.5252Y-3.3425
X2.6252Y-2.0669
X2.6252Y-2.2047
X2.6252Y-3.1047
X2.6252Y-3.2047
X2.6252Y-3.3425
X2.7252Y-2.0669
X2.7252Y-2.2047
X2.7252Y-3.1047
X2.7252Y-3.2047
X2.7252Y-3.3425
X2.8252Y-2.0669
X2.8252Y-2.2047
X2.8252Y-3.1047
X2.8252Y-3.2047
X2.8252Y-3.3425
X2.9252Y-2.0669
X2.9252Y-2.2047
X2.9252Y-3.1047
X2.9252Y-3.2047
X2.9252Y-3.3425
X3.0252Y-2.0669
X3.0252Y-2.2047
X3.0252Y-3.1047
X3.0252Y-3.2047
X3.0252Y-3.3425
X3.1252Y-2.0669
X3.1252Y-2.2047
X3.1252Y-3.1047
X3.1252Y-3.2047
X3.1252Y-3.3425
X3.2252Y-2.0669
X3.2252Y-2.2047
X3.2252Y-3.1047
X3.2252Y-3.2047
X3.2252Y-3.3425
X3.3252Y-2.0669
X3.3252Y-2.2047
X3.3252Y-3.1047
X3.3252Y-3.2047
X3.3252Y-3.3425
X3.4252Y-2.0669
X3.4252Y-2.2047
X3.4252Y-3.1047
X3.4252Y-3.2047
X3.4252Y-3.3425
X3.5252Y-2.0669
X3.5252Y-2.2047
X3.5252Y-3.1047
X3.5252Y-3.2047
X3.5252Y-3.3425
X3.6252Y-2.0669
X3.6252Y-2.2047
X3.6252Y-3.1047
X3.6252Y-3.2047
X3.6252Y-3.3425
X3.7252Y-2.0669
X3.7252Y-2.2047
X3.7252Y-3.1047
X3.7252Y-3.2047
X3.7252Y-3.3425
X3.8251Y-3.1046
X3.8251Y-3.2046
X3.8251Y-3.3424
X3.8252Y-2.0669
X3.8252Y-2.2047
X3.9251Y-3.1046
X3.9251Y-3.2046
X3.9251Y-3.3424
X3.9252Y-2.0669
X3.9252Y-2.2047
T5
X1.3386Y-2.1835
X1.3386Y-2.2835
X1.3386Y-2.3835
X1.3386Y-2.5778
X1.3386Y-2.6778
X1.3386Y-2.7778
X1.3386Y-2.9715
X1.3386Y-3.0715
X1.3386Y-3.1715
X1.3386Y-3.3843
X1.3386Y-3.4843
X1.7008Y-3.7874
X1.7008Y-3.8874
X1.9416Y-3.7866
X1.9416Y-3.8866
X2.1339Y-3.7874
X2.1339Y-3.8874
X4.5079Y-2.1835
X4.5079Y-2.2835
X4.5079Y-2.3835
X4.5079Y-3.3055
X4.5079Y-3.4055
X4.5079Y-3.5055
M30
