%TF.GenerationSoftware,KiCad,Pcbnew,8.0.1*%
%TF.CreationDate,2024-04-17T02:22:21+02:00*%
%TF.ProjectId,Head Unit,48656164-2055-46e6-9974-2e6b69636164,rev?*%
%TF.SameCoordinates,Original*%
%TF.FileFunction,Copper,L2,Bot*%
%TF.FilePolarity,Positive*%
%FSLAX46Y46*%
G04 Gerber Fmt 4.6, Leading zero omitted, Abs format (unit mm)*
G04 Created by KiCad (PCBNEW 8.0.1) date 2024-04-17 02:22:21*
%MOMM*%
%LPD*%
G01*
G04 APERTURE LIST*
%TA.AperFunction,ComponentPad*%
%ADD10R,1.600000X1.600000*%
%TD*%
%TA.AperFunction,ComponentPad*%
%ADD11C,1.600000*%
%TD*%
%TA.AperFunction,ComponentPad*%
%ADD12R,1.700000X1.700000*%
%TD*%
%TA.AperFunction,ComponentPad*%
%ADD13O,1.700000X1.700000*%
%TD*%
%TA.AperFunction,ComponentPad*%
%ADD14R,1.270000X1.270000*%
%TD*%
%TA.AperFunction,ComponentPad*%
%ADD15C,1.270000*%
%TD*%
%TA.AperFunction,ComponentPad*%
%ADD16C,1.200000*%
%TD*%
%TA.AperFunction,ComponentPad*%
%ADD17C,1.524000*%
%TD*%
%TA.AperFunction,ComponentPad*%
%ADD18R,2.400000X2.400000*%
%TD*%
%TA.AperFunction,ComponentPad*%
%ADD19O,2.400000X2.400000*%
%TD*%
%TA.AperFunction,ComponentPad*%
%ADD20R,1.200000X2.000000*%
%TD*%
%TA.AperFunction,ComponentPad*%
%ADD21O,1.200000X2.000000*%
%TD*%
%TA.AperFunction,ViaPad*%
%ADD22C,0.600000*%
%TD*%
%TA.AperFunction,Conductor*%
%ADD23C,1.000000*%
%TD*%
G04 APERTURE END LIST*
D10*
%TO.P,C2,1*%
%TO.N,Net-(D1-K)*%
X56134000Y-100298000D03*
D11*
%TO.P,C2,2*%
%TO.N,GND*%
X56134000Y-98298000D03*
%TD*%
D12*
%TO.P,J10,1,Pin_1*%
%TO.N,+3.3V*%
X33020000Y-102616000D03*
D13*
%TO.P,J10,2,Pin_2*%
%TO.N,GND*%
X30480000Y-102616000D03*
%TD*%
D14*
%TO.P,U2,1,-VIN*%
%TO.N,GND*%
X48270000Y-97856000D03*
D15*
%TO.P,U2,2,+VIN*%
%TO.N,Net-(D1-K)*%
X48270000Y-100396000D03*
%TO.P,U2,3,RC*%
%TO.N,unconnected-(U2-RC-Pad3)*%
X48270000Y-102936000D03*
%TO.P,U2,5,NC*%
%TO.N,unconnected-(U2-NC-Pad5)*%
X48270000Y-108016000D03*
%TO.P,U2,6,+VOUT*%
%TO.N,+3.3V*%
X48270000Y-110556000D03*
%TO.P,U2,7,-VOUT*%
%TO.N,GND*%
X48270000Y-113096000D03*
%TO.P,U2,8,NC*%
%TO.N,unconnected-(U2-NC-Pad8)*%
X48270000Y-115636000D03*
%TD*%
D16*
%TO.P,C1,1*%
%TO.N,+3.3V*%
X62992000Y-98806000D03*
%TO.P,C1,2*%
%TO.N,GND*%
X62992000Y-100806000D03*
%TD*%
D12*
%TO.P,J5,1,V-Out*%
%TO.N,Net-(J5-V-Out)*%
X30000000Y-58420000D03*
D13*
%TO.P,J5,2,V-IN*%
%TO.N,+3.3V*%
X30000000Y-60960000D03*
%TO.P,J5,3,GND*%
%TO.N,GND*%
X30000000Y-63500000D03*
%TD*%
D12*
%TO.P,J4,1,V-Out*%
%TO.N,Net-(J4-V-Out)*%
X121000000Y-58475000D03*
D13*
%TO.P,J4,2,V-IN*%
%TO.N,+3.3V*%
X121000000Y-61015000D03*
%TO.P,J4,3,GND*%
%TO.N,GND*%
X121000000Y-63555000D03*
%TD*%
D17*
%TO.P,J7,1,CS*%
%TO.N,Net-(J7-CS)*%
X39979600Y-76062500D03*
%TO.P,J7,2,DC*%
%TO.N,unconnected-(J7-DC-Pad2)*%
X39979600Y-73522500D03*
%TO.P,J7,3,RES*%
%TO.N,unconnected-(J7-RES-Pad3)*%
X39979600Y-70982500D03*
%TO.P,J7,4,SDA*%
%TO.N,Net-(J7-SDA)*%
X39979600Y-68442500D03*
%TO.P,J7,5,SCLK*%
%TO.N,Net-(J7-SCLK)*%
X39979600Y-65902500D03*
%TO.P,J7,6,VDD*%
%TO.N,+3.3V*%
X39979600Y-63362500D03*
%TO.P,J7,7,VSS*%
%TO.N,GND*%
X39979600Y-60822500D03*
%TD*%
D12*
%TO.P,J8,1,Pin_1*%
%TO.N,+3.3V*%
X33000000Y-96500000D03*
D13*
%TO.P,J8,2,Pin_2*%
%TO.N,GND*%
X30460000Y-96500000D03*
%TD*%
D12*
%TO.P,J3,1,V-Out*%
%TO.N,Net-(J3-V-Out)*%
X30000000Y-83920000D03*
D13*
%TO.P,J3,2,V-IN*%
%TO.N,+3.3V*%
X30000000Y-86460000D03*
%TO.P,J3,3,GND*%
%TO.N,GND*%
X30000000Y-89000000D03*
%TD*%
D18*
%TO.P,D1,1,K*%
%TO.N,Net-(D1-K)*%
X56134000Y-117094000D03*
D19*
%TO.P,D1,2,A*%
%TO.N,+12V*%
X56134000Y-106934000D03*
%TD*%
D12*
%TO.P,J1,1,S1*%
%TO.N,Net-(J1-S1)*%
X30000000Y-70960000D03*
D13*
%TO.P,J1,2,S2*%
%TO.N,Net-(J1-S2)*%
X30000000Y-73500000D03*
%TO.P,J1,3,GND*%
%TO.N,GND*%
X30000000Y-76040000D03*
%TD*%
D12*
%TO.P,J11,1,Pin_1*%
%TO.N,+3.3V*%
X33000000Y-107500000D03*
D13*
%TO.P,J11,2,Pin_2*%
%TO.N,GND*%
X30460000Y-107500000D03*
%TD*%
D12*
%TO.P,J2,1,V-Out*%
%TO.N,Net-(J2-V-Out)*%
X121000000Y-83920000D03*
D13*
%TO.P,J2,2,V-In*%
%TO.N,+3.3V*%
X121000000Y-86460000D03*
%TO.P,J2,3,GND*%
%TO.N,GND*%
X121000000Y-89000000D03*
%TD*%
D20*
%TO.P,U1,1,3V3*%
%TO.N,+3.3V*%
X67691000Y-130373000D03*
X67691000Y-126873000D03*
D21*
%TO.P,U1,2,CHIP_PU*%
%TO.N,unconnected-(U1-CHIP_PU-Pad2)*%
X70231000Y-130373000D03*
X70231000Y-126873000D03*
%TO.P,U1,3,SENSOR_VP/GPIO36/ADC1_CH0*%
%TO.N,unconnected-(U1-SENSOR_VP{slash}GPIO36{slash}ADC1_CH0-Pad3)*%
X72771000Y-130373000D03*
X72771000Y-126873000D03*
%TO.P,U1,4,SENSOR_VN/GPIO39/ADC1_CH3*%
%TO.N,unconnected-(U1-SENSOR_VN{slash}GPIO39{slash}ADC1_CH3-Pad4)*%
X75311000Y-130373000D03*
X75311000Y-126873000D03*
%TO.P,U1,5,VDET_1/GPIO34/ADC1_CH6*%
%TO.N,unconnected-(U1-VDET_1{slash}GPIO34{slash}ADC1_CH6-Pad5)*%
X77851000Y-130373000D03*
X77851000Y-126873000D03*
%TO.P,U1,6,VDET_2/GPIO35/ADC1_CH7*%
%TO.N,unconnected-(U1-VDET_2{slash}GPIO35{slash}ADC1_CH7-Pad6)*%
X80391000Y-130373000D03*
X80391000Y-126873000D03*
%TO.P,U1,7,32K_XP/GPIO32/ADC1_CH4*%
%TO.N,Net-(J3-V-Out)*%
X82931000Y-130373000D03*
X82931000Y-126873000D03*
%TO.P,U1,8,32K_XN/GPIO33/ADC1_CH5*%
%TO.N,Net-(J2-V-Out)*%
X85471000Y-130373000D03*
X85471000Y-126873000D03*
%TO.P,U1,9,DAC_1/ADC2_CH8/GPIO25*%
%TO.N,Net-(J6-TX)*%
X88011000Y-130373000D03*
X88011000Y-126873000D03*
%TO.P,U1,10,DAC_2/ADC2_CH9/GPIO26*%
%TO.N,Net-(J6-RX)*%
X90551000Y-130373000D03*
X90551000Y-126873000D03*
%TO.P,U1,11,ADC2_CH7/GPIO27*%
%TO.N,Net-(J9-Pin_3)*%
X93091000Y-130373000D03*
X93091000Y-126873000D03*
%TO.P,U1,12,MTMS/GPIO14/ADC2_CH6*%
%TO.N,unconnected-(U1-MTMS{slash}GPIO14{slash}ADC2_CH6-Pad12)*%
X95631000Y-130373000D03*
X95631000Y-126873000D03*
%TO.P,U1,13,MTDI/GPIO12/ADC2_CH5*%
%TO.N,Net-(U1-MTDI{slash}GPIO12{slash}ADC2_CH5)*%
X98171000Y-130373000D03*
X98171000Y-126873000D03*
%TO.P,U1,14,GND*%
%TO.N,GND*%
X100711000Y-130373000D03*
X100711000Y-126873000D03*
%TO.P,U1,15,MTCK/GPIO13/ADC2_CH4*%
%TO.N,unconnected-(U1-MTCK{slash}GPIO13{slash}ADC2_CH4-Pad15)*%
X103251000Y-130373000D03*
X103251000Y-126873000D03*
%TO.P,U1,16,SD_DATA2/GPIO9*%
%TO.N,unconnected-(U1-SD_DATA2{slash}GPIO9-Pad16)*%
X105791000Y-130373000D03*
X105791000Y-126873000D03*
%TO.P,U1,17,SD_DATA3/GPIO10*%
%TO.N,unconnected-(U1-SD_DATA3{slash}GPIO10-Pad17)*%
X108331000Y-130373000D03*
X108331000Y-126873000D03*
%TO.P,U1,18,CMD*%
%TO.N,unconnected-(U1-CMD-Pad18)*%
X110871000Y-130373000D03*
X110871000Y-126873000D03*
%TO.P,U1,19,5V*%
%TO.N,unconnected-(U1-5V-Pad19)*%
X113411000Y-130373000D03*
X113411000Y-126873000D03*
%TO.P,U1,20,SD_CLK/GPIO6*%
%TO.N,unconnected-(U1-SD_CLK{slash}GPIO6-Pad20)*%
X113408280Y-101476680D03*
X113408280Y-97976680D03*
%TO.P,U1,21,SD_DATA0/GPIO7*%
%TO.N,unconnected-(U1-SD_DATA0{slash}GPIO7-Pad21)*%
X110868280Y-101476680D03*
X110868280Y-97976680D03*
%TO.P,U1,22,SD_DATA1/GPIO8*%
%TO.N,unconnected-(U1-SD_DATA1{slash}GPIO8-Pad22)*%
X108331000Y-101473000D03*
X108331000Y-97973000D03*
%TO.P,U1,23,MTDO/GPIO15/ADC2_CH3*%
%TO.N,unconnected-(U1-MTDO{slash}GPIO15{slash}ADC2_CH3-Pad23)*%
X105791000Y-101473000D03*
X105791000Y-97973000D03*
%TO.P,U1,24,ADC2_CH2/GPIO2*%
%TO.N,Net-(J9-Pin_5)*%
X103251000Y-101473000D03*
X103251000Y-97973000D03*
%TO.P,U1,25,GPIO0/BOOT/ADC2_CH1*%
%TO.N,unconnected-(U1-GPIO0{slash}BOOT{slash}ADC2_CH1-Pad25)*%
X100711000Y-101473000D03*
X100711000Y-97973000D03*
%TO.P,U1,26,ADC2_CH0/GPIO4*%
%TO.N,Net-(J9-Pin_4)*%
X98171000Y-101473000D03*
X98171000Y-97973000D03*
%TO.P,U1,27,GPIO16*%
%TO.N,unconnected-(U1-GPIO16-Pad27)*%
X95631000Y-101473000D03*
X95631000Y-97973000D03*
%TO.P,U1,28,GPIO17*%
%TO.N,Net-(J9-Pin_6)*%
X93091000Y-101473000D03*
X93091000Y-97973000D03*
%TO.P,U1,29,GPIO5*%
%TO.N,Net-(J7-CS)*%
X90551000Y-101473000D03*
X90551000Y-97973000D03*
%TO.P,U1,30,GPIO18*%
%TO.N,Net-(J7-SCLK)*%
X88011000Y-101473000D03*
X88011000Y-97973000D03*
%TO.P,U1,31,GPIO19*%
%TO.N,unconnected-(U1-GPIO19-Pad31)*%
X85471000Y-101473000D03*
X85471000Y-97973000D03*
%TO.P,U1,32,GND*%
%TO.N,GND*%
X82931000Y-101473000D03*
X82931000Y-97973000D03*
%TO.P,U1,33,GPIO21*%
%TO.N,Net-(J1-S1)*%
X80391000Y-101473000D03*
X80391000Y-97973000D03*
%TO.P,U1,34,U0RXD/GPIO3*%
%TO.N,unconnected-(U1-U0RXD{slash}GPIO3-Pad34)*%
X77851000Y-101473000D03*
X77851000Y-97973000D03*
%TO.P,U1,35,U0TXD/GPIO1*%
%TO.N,unconnected-(U1-U0TXD{slash}GPIO1-Pad35)*%
X75311000Y-101473000D03*
X75311000Y-97973000D03*
%TO.P,U1,36,GPIO22*%
%TO.N,Net-(J1-S2)*%
X72771000Y-101473000D03*
X72771000Y-97973000D03*
%TO.P,U1,37,GPIO23*%
%TO.N,Net-(J7-SDA)*%
X70231000Y-101473000D03*
X70231000Y-97973000D03*
%TO.P,U1,38,GND*%
%TO.N,GND*%
X67691000Y-101473000D03*
X67691000Y-97973000D03*
%TD*%
D12*
%TO.P,J6,1,3\u002C3V*%
%TO.N,+3.3V*%
X38600000Y-128800000D03*
D13*
%TO.P,J6,2,GND*%
%TO.N,GND*%
X41140000Y-128800000D03*
%TO.P,J6,3,ADC*%
%TO.N,Net-(J4-V-Out)*%
X43680000Y-128800000D03*
%TO.P,J6,4,RX*%
%TO.N,Net-(J6-RX)*%
X46220000Y-128800000D03*
%TO.P,J6,5,TX*%
%TO.N,Net-(J6-TX)*%
X48760000Y-128800000D03*
%TO.P,J6,6,ADC2*%
%TO.N,Net-(J5-V-Out)*%
X51300000Y-128800000D03*
%TO.P,J6,7,ADC15*%
%TO.N,unconnected-(J6-ADC15-Pad7)*%
X53840000Y-128800000D03*
%TD*%
D12*
%TO.P,J12,1,Pin_1*%
%TO.N,+12V*%
X60200000Y-128600000D03*
D13*
%TO.P,J12,2,Pin_2*%
%TO.N,GND*%
X62740000Y-128600000D03*
%TD*%
D12*
%TO.P,J9,1,Pin_1*%
%TO.N,GND*%
X38600000Y-122400000D03*
D13*
%TO.P,J9,2,Pin_2*%
%TO.N,+3.3V*%
X41140000Y-122400000D03*
%TO.P,J9,3,Pin_3*%
%TO.N,Net-(J9-Pin_3)*%
X43680000Y-122400000D03*
%TO.P,J9,4,Pin_4*%
%TO.N,Net-(J9-Pin_4)*%
X46220000Y-122400000D03*
%TO.P,J9,5,Pin_5*%
%TO.N,Net-(J9-Pin_5)*%
X48760000Y-122400000D03*
%TO.P,J9,6,Pin_6*%
%TO.N,Net-(J9-Pin_6)*%
X51300000Y-122400000D03*
%TD*%
D22*
%TO.N,GND*%
X63500000Y-110998000D03*
%TO.N,Net-(J9-Pin_5)*%
X70352700Y-112504600D03*
%TO.N,+12V*%
X58799600Y-115186900D03*
%TO.N,Net-(J3-V-Out)*%
X73527200Y-115186900D03*
%TD*%
D23*
%TO.N,unconnected-(U1-GPIO19-Pad31)*%
X85471000Y-97973000D02*
X85471000Y-101473000D01*
%TO.N,unconnected-(U1-MTMS{slash}GPIO14{slash}ADC2_CH6-Pad12)*%
X95631000Y-126873000D02*
X95631000Y-130373000D01*
%TO.N,unconnected-(U1-SD_DATA2{slash}GPIO9-Pad16)*%
X105791000Y-126873000D02*
X105791000Y-130373000D01*
%TO.N,Net-(J9-Pin_6)*%
X93091000Y-97973000D02*
X93091000Y-101473000D01*
%TO.N,unconnected-(U1-SD_CLK{slash}GPIO6-Pad20)*%
X113408300Y-97976700D02*
X113408300Y-101476700D01*
%TO.N,unconnected-(U1-U0RXD{slash}GPIO3-Pad34)*%
X77851000Y-97973000D02*
X77851000Y-101473000D01*
%TO.N,unconnected-(U1-SD_DATA0{slash}GPIO7-Pad21)*%
X110868300Y-97976700D02*
X110868300Y-101476700D01*
%TO.N,unconnected-(U1-U0TXD{slash}GPIO1-Pad35)*%
X75311000Y-97973000D02*
X75311000Y-101473000D01*
%TO.N,unconnected-(U1-SD_DATA3{slash}GPIO10-Pad17)*%
X108331000Y-126873000D02*
X108331000Y-130373000D01*
%TO.N,unconnected-(U1-5V-Pad19)*%
X113411000Y-126873000D02*
X113411000Y-130373000D01*
%TO.N,unconnected-(U1-SD_DATA1{slash}GPIO8-Pad22)*%
X108331000Y-97973000D02*
X108331000Y-101473000D01*
%TO.N,unconnected-(U1-GPIO0{slash}BOOT{slash}ADC2_CH1-Pad25)*%
X100711000Y-97973000D02*
X100711000Y-101473000D01*
%TO.N,unconnected-(U1-GPIO16-Pad27)*%
X95631000Y-97973000D02*
X95631000Y-101473000D01*
%TO.N,Net-(U1-MTDI{slash}GPIO12{slash}ADC2_CH5)*%
X98171000Y-126873000D02*
X98171000Y-130373000D01*
%TO.N,Net-(J9-Pin_4)*%
X98171000Y-101473000D02*
X98171000Y-103473000D01*
X98171000Y-97973000D02*
X98171000Y-101473000D01*
X65147000Y-103473000D02*
X46220000Y-122400000D01*
X98171000Y-103473000D02*
X65147000Y-103473000D01*
%TO.N,unconnected-(U1-SENSOR_VN{slash}GPIO39{slash}ADC1_CH3-Pad4)*%
X75311000Y-126873000D02*
X75311000Y-130373000D01*
%TO.N,Net-(J9-Pin_3)*%
X93091000Y-126873000D02*
X93091000Y-130373000D01*
%TO.N,unconnected-(U1-CMD-Pad18)*%
X110871000Y-126873000D02*
X110871000Y-130373000D01*
%TO.N,unconnected-(U1-VDET_2{slash}GPIO35{slash}ADC1_CH7-Pad6)*%
X80391000Y-126873000D02*
X80391000Y-130373000D01*
%TO.N,unconnected-(U1-VDET_1{slash}GPIO34{slash}ADC1_CH6-Pad5)*%
X77851000Y-126873000D02*
X77851000Y-130373000D01*
%TO.N,unconnected-(U1-SENSOR_VP{slash}GPIO36{slash}ADC1_CH0-Pad3)*%
X72771000Y-126873000D02*
X72771000Y-130373000D01*
%TO.N,unconnected-(U1-MTDO{slash}GPIO15{slash}ADC2_CH3-Pad23)*%
X105791000Y-97973000D02*
X105791000Y-101473000D01*
%TO.N,unconnected-(U1-CHIP_PU-Pad2)*%
X70231000Y-126873000D02*
X70231000Y-130373000D01*
%TO.N,unconnected-(U1-MTCK{slash}GPIO13{slash}ADC2_CH4-Pad15)*%
X103251000Y-126873000D02*
X103251000Y-130373000D01*
%TO.N,Net-(J9-Pin_5)*%
X103251000Y-97973000D02*
X103251000Y-101473000D01*
X94219400Y-112504600D02*
X103251000Y-103473000D01*
X70352700Y-112504600D02*
X94219400Y-112504600D01*
X103251000Y-101473000D02*
X103251000Y-103473000D01*
%TO.N,Net-(J7-SCLK)*%
X88011000Y-101473000D02*
X88011000Y-97973000D01*
X57940500Y-65902500D02*
X39979600Y-65902500D01*
X88011000Y-95973000D02*
X57940500Y-65902500D01*
X88011000Y-97973000D02*
X88011000Y-95973000D01*
%TO.N,+12V*%
X60200000Y-116587300D02*
X58799600Y-115186900D01*
X60200000Y-128600000D02*
X60200000Y-116587300D01*
%TO.N,Net-(J5-V-Out)*%
X49615100Y-130484900D02*
X51300000Y-128800000D01*
X37394900Y-130484900D02*
X49615100Y-130484900D01*
X34823000Y-127913000D02*
X37394900Y-130484900D01*
X34823000Y-63243000D02*
X34823000Y-127913000D01*
X30000000Y-58420000D02*
X34823000Y-63243000D01*
%TO.N,Net-(J4-V-Out)*%
X40045400Y-58475000D02*
X121000000Y-58475000D01*
X36924400Y-61596000D02*
X40045400Y-58475000D01*
X36924400Y-123560500D02*
X36924400Y-61596000D01*
X37979100Y-124615200D02*
X36924400Y-123560500D01*
X39495200Y-124615200D02*
X37979100Y-124615200D01*
X43680000Y-128800000D02*
X39495200Y-124615200D01*
%TO.N,Net-(J6-RX)*%
X90551000Y-126873000D02*
X90551000Y-130373000D01*
X47906000Y-127114000D02*
X46220000Y-128800000D01*
X55863900Y-127114000D02*
X47906000Y-127114000D01*
X61122900Y-132373000D02*
X55863900Y-127114000D01*
X90551000Y-132373000D02*
X61122900Y-132373000D01*
X90551000Y-130373000D02*
X90551000Y-132373000D01*
%TO.N,Net-(J1-S1)*%
X80391000Y-101473000D02*
X80391000Y-97973000D01*
%TO.N,Net-(J2-V-Out)*%
X85471000Y-130373000D02*
X85471000Y-126873000D01*
X116782600Y-88137400D02*
X121000000Y-83920000D01*
X116782600Y-100487200D02*
X116782600Y-88137400D01*
X92396800Y-124873000D02*
X116782600Y-100487200D01*
X85471000Y-124873000D02*
X92396800Y-124873000D01*
X85471000Y-126873000D02*
X85471000Y-124873000D01*
%TO.N,+3.3V*%
X67691000Y-126873000D02*
X67691000Y-130373000D01*
X48780400Y-110556000D02*
X48270000Y-110556000D01*
X60530400Y-98806000D02*
X48780400Y-110556000D01*
X62992000Y-98806000D02*
X60530400Y-98806000D01*
X33000000Y-104486000D02*
X33020000Y-104466000D01*
X33000000Y-107500000D02*
X33000000Y-104486000D01*
X33020000Y-102616000D02*
X33020000Y-104466000D01*
X33020000Y-98370000D02*
X33020000Y-102616000D01*
X33000000Y-98350000D02*
X33020000Y-98370000D01*
X33000000Y-96500000D02*
X33000000Y-98350000D01*
X31787500Y-62747500D02*
X30000000Y-60960000D01*
X31787500Y-86460000D02*
X31787500Y-62747500D01*
X30000000Y-86460000D02*
X31787500Y-86460000D01*
X33000000Y-87672500D02*
X31787500Y-86460000D01*
X33000000Y-96500000D02*
X33000000Y-87672500D01*
X121000000Y-61015000D02*
X119150000Y-61015000D01*
X121000000Y-86460000D02*
X122850000Y-86460000D01*
X122850000Y-69410000D02*
X116802500Y-63362500D01*
X122850000Y-86460000D02*
X122850000Y-69410000D01*
X39979600Y-63362500D02*
X116802500Y-63362500D01*
X116802500Y-63362500D02*
X119150000Y-61015000D01*
%TO.N,Net-(J3-V-Out)*%
X82931000Y-124590700D02*
X82931000Y-126873000D01*
X73527200Y-115186900D02*
X82931000Y-124590700D01*
X82931000Y-126873000D02*
X82931000Y-130373000D01*
%TO.N,Net-(J7-SDA)*%
X70231000Y-101473000D02*
X70231000Y-97973000D01*
X67510100Y-95973000D02*
X39979600Y-68442500D01*
X70231000Y-95973000D02*
X67510100Y-95973000D01*
X70231000Y-97973000D02*
X70231000Y-95973000D01*
%TO.N,Net-(J7-CS)*%
X90551000Y-101473000D02*
X90551000Y-97973000D01*
%TO.N,Net-(J1-S2)*%
X72771000Y-101473000D02*
X72771000Y-97973000D01*
%TO.N,Net-(J6-TX)*%
X88011000Y-126873000D02*
X88011000Y-130373000D01*
%TD*%
%TA.AperFunction,Conductor*%
%TO.N,GND*%
G36*
X39598600Y-60872660D02*
G01*
X39624564Y-60969561D01*
X39674724Y-61056440D01*
X39745660Y-61127376D01*
X39832539Y-61177536D01*
X39929440Y-61203500D01*
X39952153Y-61203500D01*
X39281410Y-61874240D01*
X39346190Y-61919599D01*
X39346192Y-61919600D01*
X39546315Y-62012919D01*
X39546329Y-62012924D01*
X39759613Y-62070073D01*
X39764948Y-62071014D01*
X39764726Y-62072271D01*
X39824030Y-62095457D01*
X39865018Y-62152041D01*
X39868909Y-62221802D01*
X39834466Y-62282592D01*
X39776915Y-62312854D01*
X39777143Y-62313605D01*
X39773233Y-62314790D01*
X39772625Y-62315111D01*
X39772379Y-62315160D01*
X39771325Y-62315369D01*
X39571028Y-62376129D01*
X39386446Y-62474791D01*
X39224663Y-62607563D01*
X39091891Y-62769346D01*
X38993229Y-62953928D01*
X38932472Y-63154215D01*
X38911959Y-63362500D01*
X38932472Y-63570784D01*
X38932473Y-63570786D01*
X38993228Y-63771069D01*
X39091594Y-63955099D01*
X39091891Y-63955653D01*
X39224663Y-64117436D01*
X39324438Y-64199319D01*
X39386450Y-64250211D01*
X39571031Y-64348872D01*
X39771314Y-64409627D01*
X39979600Y-64430141D01*
X40187886Y-64409627D01*
X40388169Y-64348872D01*
X40572750Y-64250211D01*
X40644720Y-64191146D01*
X40709028Y-64163834D01*
X40723384Y-64163000D01*
X116419560Y-64163000D01*
X116486599Y-64182685D01*
X116507241Y-64199319D01*
X122013181Y-69705259D01*
X122046666Y-69766582D01*
X122049500Y-69792940D01*
X122049500Y-82648222D01*
X122029815Y-82715261D01*
X121977011Y-82761016D01*
X121911210Y-82771396D01*
X121894866Y-82769500D01*
X120105143Y-82769500D01*
X120105117Y-82769502D01*
X120080012Y-82772413D01*
X120080008Y-82772415D01*
X119977235Y-82817793D01*
X119897794Y-82897234D01*
X119852415Y-83000006D01*
X119852415Y-83000008D01*
X119849500Y-83025131D01*
X119849500Y-83887059D01*
X119829815Y-83954098D01*
X119813181Y-83974740D01*
X116160813Y-87627107D01*
X116160810Y-87627111D01*
X116073209Y-87758214D01*
X116073202Y-87758227D01*
X116012864Y-87903898D01*
X116012861Y-87903910D01*
X115982100Y-88058553D01*
X115982100Y-100104260D01*
X115962415Y-100171299D01*
X115945781Y-100191941D01*
X114520461Y-101617261D01*
X114459138Y-101650746D01*
X114389446Y-101645762D01*
X114333513Y-101603890D01*
X114309096Y-101538426D01*
X114308780Y-101529580D01*
X114308780Y-100987986D01*
X114308779Y-100987984D01*
X114274176Y-100814021D01*
X114274173Y-100814012D01*
X114272652Y-100810341D01*
X114218239Y-100678973D01*
X114208800Y-100631521D01*
X114208800Y-98821838D01*
X114218239Y-98774385D01*
X114230690Y-98744326D01*
X114274174Y-98639346D01*
X114308780Y-98465371D01*
X114308780Y-97487989D01*
X114308780Y-97487986D01*
X114308779Y-97487984D01*
X114274176Y-97314021D01*
X114274173Y-97314012D01*
X114272652Y-97310341D01*
X114257203Y-97273043D01*
X114206296Y-97150139D01*
X114206289Y-97150126D01*
X114107744Y-97002645D01*
X114107741Y-97002641D01*
X113982318Y-96877218D01*
X113982314Y-96877215D01*
X113834833Y-96778670D01*
X113834820Y-96778663D01*
X113670947Y-96710786D01*
X113670938Y-96710783D01*
X113496974Y-96676180D01*
X113496971Y-96676180D01*
X113319589Y-96676180D01*
X113319586Y-96676180D01*
X113145621Y-96710783D01*
X113145612Y-96710786D01*
X112981739Y-96778663D01*
X112981726Y-96778670D01*
X112834245Y-96877215D01*
X112834241Y-96877218D01*
X112708818Y-97002641D01*
X112708815Y-97002645D01*
X112610270Y-97150126D01*
X112610263Y-97150139D01*
X112542386Y-97314012D01*
X112542383Y-97314021D01*
X112507780Y-97487984D01*
X112507780Y-98465375D01*
X112542383Y-98639338D01*
X112542386Y-98639346D01*
X112598320Y-98774385D01*
X112598361Y-98774482D01*
X112607800Y-98821934D01*
X112607800Y-100631424D01*
X112598361Y-100678876D01*
X112542386Y-100814012D01*
X112542383Y-100814021D01*
X112507780Y-100987984D01*
X112507780Y-101965375D01*
X112542383Y-102139338D01*
X112542386Y-102139347D01*
X112610263Y-102303220D01*
X112610270Y-102303233D01*
X112708815Y-102450714D01*
X112708818Y-102450718D01*
X112834241Y-102576141D01*
X112834245Y-102576144D01*
X112981726Y-102674689D01*
X112981730Y-102674691D01*
X112981733Y-102674693D01*
X113145614Y-102742574D01*
X113145621Y-102742575D01*
X113150608Y-102744641D01*
X113205012Y-102788482D01*
X113227077Y-102854776D01*
X113209798Y-102922475D01*
X113190837Y-102946884D01*
X92101541Y-124036181D01*
X92040218Y-124069666D01*
X92013860Y-124072500D01*
X85392155Y-124072500D01*
X85237510Y-124103261D01*
X85237498Y-124103264D01*
X85091827Y-124163602D01*
X85091814Y-124163609D01*
X84960711Y-124251210D01*
X84960707Y-124251213D01*
X84849213Y-124362707D01*
X84849210Y-124362711D01*
X84761609Y-124493814D01*
X84761602Y-124493827D01*
X84701264Y-124639498D01*
X84701261Y-124639510D01*
X84670500Y-124794153D01*
X84670500Y-126027793D01*
X84661061Y-126075245D01*
X84605106Y-126210332D01*
X84605103Y-126210341D01*
X84570500Y-126384304D01*
X84570500Y-127361695D01*
X84605104Y-127535658D01*
X84605107Y-127535670D01*
X84661061Y-127670755D01*
X84670500Y-127718207D01*
X84670500Y-129527793D01*
X84661061Y-129575245D01*
X84605107Y-129710331D01*
X84605103Y-129710341D01*
X84570500Y-129884304D01*
X84570500Y-130861695D01*
X84605103Y-131035658D01*
X84605106Y-131035667D01*
X84672983Y-131199540D01*
X84672990Y-131199553D01*
X84771535Y-131347034D01*
X84771538Y-131347038D01*
X84785319Y-131360819D01*
X84818804Y-131422142D01*
X84813820Y-131491834D01*
X84771948Y-131547767D01*
X84706484Y-131572184D01*
X84697638Y-131572500D01*
X83704362Y-131572500D01*
X83637323Y-131552815D01*
X83591568Y-131500011D01*
X83581624Y-131430853D01*
X83610649Y-131367297D01*
X83616681Y-131360819D01*
X83630461Y-131347038D01*
X83630464Y-131347035D01*
X83729013Y-131199547D01*
X83731191Y-131194290D01*
X83740939Y-131170755D01*
X83796894Y-131035666D01*
X83831500Y-130861691D01*
X83831500Y-129884309D01*
X83831500Y-129884306D01*
X83831499Y-129884304D01*
X83796896Y-129710341D01*
X83796893Y-129710331D01*
X83740939Y-129575245D01*
X83731500Y-129527793D01*
X83731500Y-127718207D01*
X83740939Y-127670755D01*
X83796892Y-127535670D01*
X83796894Y-127535666D01*
X83831500Y-127361691D01*
X83831500Y-126384309D01*
X83831500Y-126384306D01*
X83831499Y-126384304D01*
X83796896Y-126210341D01*
X83796893Y-126210332D01*
X83740939Y-126075245D01*
X83731500Y-126027793D01*
X83731500Y-124511857D01*
X83731499Y-124511853D01*
X83705611Y-124381704D01*
X83705611Y-124381703D01*
X83700737Y-124357202D01*
X83683062Y-124314533D01*
X83656833Y-124251210D01*
X83640397Y-124211528D01*
X83640396Y-124211527D01*
X83640394Y-124211521D01*
X83568059Y-124103264D01*
X83552790Y-124080412D01*
X83508559Y-124036181D01*
X83441289Y-123968911D01*
X80398378Y-120926000D01*
X74037492Y-114565113D01*
X74037488Y-114565110D01*
X73906385Y-114477509D01*
X73906372Y-114477502D01*
X73760701Y-114417164D01*
X73760689Y-114417161D01*
X73606045Y-114386400D01*
X73606042Y-114386400D01*
X73448358Y-114386400D01*
X73448355Y-114386400D01*
X73293710Y-114417161D01*
X73293698Y-114417164D01*
X73148027Y-114477502D01*
X73148014Y-114477509D01*
X73016911Y-114565110D01*
X73016907Y-114565113D01*
X72905413Y-114676607D01*
X72905410Y-114676611D01*
X72817809Y-114807714D01*
X72817802Y-114807727D01*
X72757464Y-114953398D01*
X72757461Y-114953410D01*
X72726700Y-115108053D01*
X72726700Y-115265746D01*
X72757461Y-115420389D01*
X72757464Y-115420401D01*
X72817802Y-115566072D01*
X72817809Y-115566085D01*
X72905410Y-115697188D01*
X72905413Y-115697192D01*
X82094181Y-124885959D01*
X82127666Y-124947282D01*
X82130500Y-124973640D01*
X82130500Y-126027793D01*
X82121061Y-126075245D01*
X82065106Y-126210332D01*
X82065103Y-126210341D01*
X82030500Y-126384304D01*
X82030500Y-127361695D01*
X82065104Y-127535658D01*
X82065107Y-127535670D01*
X82121061Y-127670755D01*
X82130500Y-127718207D01*
X82130500Y-129527793D01*
X82121061Y-129575245D01*
X82065107Y-129710331D01*
X82065103Y-129710341D01*
X82030500Y-129884304D01*
X82030500Y-130861695D01*
X82065103Y-131035658D01*
X82065106Y-131035667D01*
X82132983Y-131199540D01*
X82132990Y-131199553D01*
X82231535Y-131347034D01*
X82231538Y-131347038D01*
X82245319Y-131360819D01*
X82278804Y-131422142D01*
X82273820Y-131491834D01*
X82231948Y-131547767D01*
X82166484Y-131572184D01*
X82157638Y-131572500D01*
X81164362Y-131572500D01*
X81097323Y-131552815D01*
X81051568Y-131500011D01*
X81041624Y-131430853D01*
X81070649Y-131367297D01*
X81076681Y-131360819D01*
X81090461Y-131347038D01*
X81090464Y-131347035D01*
X81189013Y-131199547D01*
X81191191Y-131194290D01*
X81200939Y-131170755D01*
X81256894Y-131035666D01*
X81291500Y-130861691D01*
X81291500Y-129884309D01*
X81291500Y-129884306D01*
X81291499Y-129884304D01*
X81256896Y-129710341D01*
X81256893Y-129710331D01*
X81200939Y-129575245D01*
X81191500Y-129527793D01*
X81191500Y-127718207D01*
X81200939Y-127670755D01*
X81256892Y-127535670D01*
X81256894Y-127535666D01*
X81291500Y-127361691D01*
X81291500Y-126384309D01*
X81291500Y-126384306D01*
X81291499Y-126384304D01*
X81256896Y-126210341D01*
X81256893Y-126210332D01*
X81189016Y-126046459D01*
X81189009Y-126046446D01*
X81090464Y-125898965D01*
X81090461Y-125898961D01*
X80965038Y-125773538D01*
X80965034Y-125773535D01*
X80817553Y-125674990D01*
X80817540Y-125674983D01*
X80653667Y-125607106D01*
X80653658Y-125607103D01*
X80479694Y-125572500D01*
X80479691Y-125572500D01*
X80302309Y-125572500D01*
X80302306Y-125572500D01*
X80128341Y-125607103D01*
X80128332Y-125607106D01*
X79964459Y-125674983D01*
X79964446Y-125674990D01*
X79816965Y-125773535D01*
X79816961Y-125773538D01*
X79691538Y-125898961D01*
X79691535Y-125898965D01*
X79592990Y-126046446D01*
X79592983Y-126046459D01*
X79525106Y-126210332D01*
X79525103Y-126210341D01*
X79490500Y-126384304D01*
X79490500Y-127361695D01*
X79525104Y-127535658D01*
X79525107Y-127535670D01*
X79581061Y-127670755D01*
X79590500Y-127718207D01*
X79590500Y-129527793D01*
X79581061Y-129575245D01*
X79525107Y-129710331D01*
X79525103Y-129710341D01*
X79490500Y-129884304D01*
X79490500Y-130861695D01*
X79525103Y-131035658D01*
X79525106Y-131035667D01*
X79592983Y-131199540D01*
X79592990Y-131199553D01*
X79691535Y-131347034D01*
X79691538Y-131347038D01*
X79705319Y-131360819D01*
X79738804Y-131422142D01*
X79733820Y-131491834D01*
X79691948Y-131547767D01*
X79626484Y-131572184D01*
X79617638Y-131572500D01*
X78624362Y-131572500D01*
X78557323Y-131552815D01*
X78511568Y-131500011D01*
X78501624Y-131430853D01*
X78530649Y-131367297D01*
X78536681Y-131360819D01*
X78550461Y-131347038D01*
X78550464Y-131347035D01*
X78649013Y-131199547D01*
X78651191Y-131194290D01*
X78660939Y-131170755D01*
X78716894Y-131035666D01*
X78751500Y-130861691D01*
X78751500Y-129884309D01*
X78751500Y-129884306D01*
X78751499Y-129884304D01*
X78716896Y-129710341D01*
X78716893Y-129710331D01*
X78660939Y-129575245D01*
X78651500Y-129527793D01*
X78651500Y-127718207D01*
X78660939Y-127670755D01*
X78716892Y-127535670D01*
X78716894Y-127535666D01*
X78751500Y-127361691D01*
X78751500Y-126384309D01*
X78751500Y-126384306D01*
X78751499Y-126384304D01*
X78716896Y-126210341D01*
X78716893Y-126210332D01*
X78649016Y-126046459D01*
X78649009Y-126046446D01*
X78550464Y-125898965D01*
X78550461Y-125898961D01*
X78425038Y-125773538D01*
X78425034Y-125773535D01*
X78277553Y-125674990D01*
X78277540Y-125674983D01*
X78113667Y-125607106D01*
X78113658Y-125607103D01*
X77939694Y-125572500D01*
X77939691Y-125572500D01*
X77762309Y-125572500D01*
X77762306Y-125572500D01*
X77588341Y-125607103D01*
X77588332Y-125607106D01*
X77424459Y-125674983D01*
X77424446Y-125674990D01*
X77276965Y-125773535D01*
X77276961Y-125773538D01*
X77151538Y-125898961D01*
X77151535Y-125898965D01*
X77052990Y-126046446D01*
X77052983Y-126046459D01*
X76985106Y-126210332D01*
X76985103Y-126210341D01*
X76950500Y-126384304D01*
X76950500Y-127361695D01*
X76985104Y-127535658D01*
X76985107Y-127535670D01*
X77041061Y-127670755D01*
X77050500Y-127718207D01*
X77050500Y-129527793D01*
X77041061Y-129575245D01*
X76985107Y-129710331D01*
X76985103Y-129710341D01*
X76950500Y-129884304D01*
X76950500Y-130861695D01*
X76985103Y-131035658D01*
X76985106Y-131035667D01*
X77052983Y-131199540D01*
X77052990Y-131199553D01*
X77151535Y-131347034D01*
X77151538Y-131347038D01*
X77165319Y-131360819D01*
X77198804Y-131422142D01*
X77193820Y-131491834D01*
X77151948Y-131547767D01*
X77086484Y-131572184D01*
X77077638Y-131572500D01*
X76084362Y-131572500D01*
X76017323Y-131552815D01*
X75971568Y-131500011D01*
X75961624Y-131430853D01*
X75990649Y-131367297D01*
X75996681Y-131360819D01*
X76010461Y-131347038D01*
X76010464Y-131347035D01*
X76109013Y-131199547D01*
X76111191Y-131194290D01*
X76120939Y-131170755D01*
X76176894Y-131035666D01*
X76211500Y-130861691D01*
X76211500Y-129884309D01*
X76211500Y-129884306D01*
X76211499Y-129884304D01*
X76176896Y-129710341D01*
X76176893Y-129710331D01*
X76120939Y-129575245D01*
X76111500Y-129527793D01*
X76111500Y-127718207D01*
X76120939Y-127670755D01*
X76176892Y-127535670D01*
X76176894Y-127535666D01*
X76211500Y-127361691D01*
X76211500Y-126384309D01*
X76211500Y-126384306D01*
X76211499Y-126384304D01*
X76176896Y-126210341D01*
X76176893Y-126210332D01*
X76109016Y-126046459D01*
X76109009Y-126046446D01*
X76010464Y-125898965D01*
X76010461Y-125898961D01*
X75885038Y-125773538D01*
X75885034Y-125773535D01*
X75737553Y-125674990D01*
X75737540Y-125674983D01*
X75573667Y-125607106D01*
X75573658Y-125607103D01*
X75399694Y-125572500D01*
X75399691Y-125572500D01*
X75222309Y-125572500D01*
X75222306Y-125572500D01*
X75048341Y-125607103D01*
X75048332Y-125607106D01*
X74884459Y-125674983D01*
X74884446Y-125674990D01*
X74736965Y-125773535D01*
X74736961Y-125773538D01*
X74611538Y-125898961D01*
X74611535Y-125898965D01*
X74512990Y-126046446D01*
X74512983Y-126046459D01*
X74445106Y-126210332D01*
X74445103Y-126210341D01*
X74410500Y-126384304D01*
X74410500Y-127361695D01*
X74445104Y-127535658D01*
X74445107Y-127535670D01*
X74501061Y-127670755D01*
X74510500Y-127718207D01*
X74510500Y-129527793D01*
X74501061Y-129575245D01*
X74445107Y-129710331D01*
X74445103Y-129710341D01*
X74410500Y-129884304D01*
X74410500Y-130861695D01*
X74445103Y-131035658D01*
X74445106Y-131035667D01*
X74512983Y-131199540D01*
X74512990Y-131199553D01*
X74611535Y-131347034D01*
X74611538Y-131347038D01*
X74625319Y-131360819D01*
X74658804Y-131422142D01*
X74653820Y-131491834D01*
X74611948Y-131547767D01*
X74546484Y-131572184D01*
X74537638Y-131572500D01*
X73544362Y-131572500D01*
X73477323Y-131552815D01*
X73431568Y-131500011D01*
X73421624Y-131430853D01*
X73450649Y-131367297D01*
X73456681Y-131360819D01*
X73470461Y-131347038D01*
X73470464Y-131347035D01*
X73569013Y-131199547D01*
X73571191Y-131194290D01*
X73580939Y-131170755D01*
X73636894Y-131035666D01*
X73671500Y-130861691D01*
X73671500Y-129884309D01*
X73671500Y-129884306D01*
X73671499Y-129884304D01*
X73636896Y-129710341D01*
X73636893Y-129710331D01*
X73580939Y-129575245D01*
X73571500Y-129527793D01*
X73571500Y-127718207D01*
X73580939Y-127670755D01*
X73636892Y-127535670D01*
X73636894Y-127535666D01*
X73671500Y-127361691D01*
X73671500Y-126384309D01*
X73671500Y-126384306D01*
X73671499Y-126384304D01*
X73636896Y-126210341D01*
X73636893Y-126210332D01*
X73569016Y-126046459D01*
X73569009Y-126046446D01*
X73470464Y-125898965D01*
X73470461Y-125898961D01*
X73345038Y-125773538D01*
X73345034Y-125773535D01*
X73197553Y-125674990D01*
X73197540Y-125674983D01*
X73033667Y-125607106D01*
X73033658Y-125607103D01*
X72859694Y-125572500D01*
X72859691Y-125572500D01*
X72682309Y-125572500D01*
X72682306Y-125572500D01*
X72508341Y-125607103D01*
X72508332Y-125607106D01*
X72344459Y-125674983D01*
X72344446Y-125674990D01*
X72196965Y-125773535D01*
X72196961Y-125773538D01*
X72071538Y-125898961D01*
X72071535Y-125898965D01*
X71972990Y-126046446D01*
X71972983Y-126046459D01*
X71905106Y-126210332D01*
X71905103Y-126210341D01*
X71870500Y-126384304D01*
X71870500Y-127361695D01*
X71905104Y-127535658D01*
X71905107Y-127535670D01*
X71961061Y-127670755D01*
X71970500Y-127718207D01*
X71970500Y-129527793D01*
X71961061Y-129575245D01*
X71905107Y-129710331D01*
X71905103Y-129710341D01*
X71870500Y-129884304D01*
X71870500Y-130861695D01*
X71905103Y-131035658D01*
X71905106Y-131035667D01*
X71972983Y-131199540D01*
X71972990Y-131199553D01*
X72071535Y-131347034D01*
X72071538Y-131347038D01*
X72085319Y-131360819D01*
X72118804Y-131422142D01*
X72113820Y-131491834D01*
X72071948Y-131547767D01*
X72006484Y-131572184D01*
X71997638Y-131572500D01*
X71004362Y-131572500D01*
X70937323Y-131552815D01*
X70891568Y-131500011D01*
X70881624Y-131430853D01*
X70910649Y-131367297D01*
X70916681Y-131360819D01*
X70930461Y-131347038D01*
X70930464Y-131347035D01*
X71029013Y-131199547D01*
X71031191Y-131194290D01*
X71040939Y-131170755D01*
X71096894Y-131035666D01*
X71131500Y-130861691D01*
X71131500Y-129884309D01*
X71131500Y-129884306D01*
X71131499Y-129884304D01*
X71096896Y-129710341D01*
X71096893Y-129710331D01*
X71040939Y-129575245D01*
X71031500Y-129527793D01*
X71031500Y-127718207D01*
X71040939Y-127670755D01*
X71096892Y-127535670D01*
X71096894Y-127535666D01*
X71131500Y-127361691D01*
X71131500Y-126384309D01*
X71131500Y-126384306D01*
X71131499Y-126384304D01*
X71096896Y-126210341D01*
X71096893Y-126210332D01*
X71029016Y-126046459D01*
X71029009Y-126046446D01*
X70930464Y-125898965D01*
X70930461Y-125898961D01*
X70805038Y-125773538D01*
X70805034Y-125773535D01*
X70657553Y-125674990D01*
X70657540Y-125674983D01*
X70493667Y-125607106D01*
X70493658Y-125607103D01*
X70319694Y-125572500D01*
X70319691Y-125572500D01*
X70142309Y-125572500D01*
X70142306Y-125572500D01*
X69968341Y-125607103D01*
X69968332Y-125607106D01*
X69804459Y-125674983D01*
X69804446Y-125674990D01*
X69656965Y-125773535D01*
X69656961Y-125773538D01*
X69531538Y-125898961D01*
X69531535Y-125898965D01*
X69432990Y-126046446D01*
X69432983Y-126046459D01*
X69365106Y-126210332D01*
X69365103Y-126210341D01*
X69330500Y-126384304D01*
X69330500Y-127361695D01*
X69365104Y-127535658D01*
X69365107Y-127535670D01*
X69421061Y-127670755D01*
X69430500Y-127718207D01*
X69430500Y-129527793D01*
X69421061Y-129575245D01*
X69365107Y-129710331D01*
X69365103Y-129710341D01*
X69330500Y-129884304D01*
X69330500Y-130861695D01*
X69365103Y-131035658D01*
X69365106Y-131035667D01*
X69432983Y-131199540D01*
X69432990Y-131199553D01*
X69531535Y-131347034D01*
X69531538Y-131347038D01*
X69545319Y-131360819D01*
X69578804Y-131422142D01*
X69573820Y-131491834D01*
X69531948Y-131547767D01*
X69466484Y-131572184D01*
X69457638Y-131572500D01*
X68712778Y-131572500D01*
X68645739Y-131552815D01*
X68599984Y-131500011D01*
X68589604Y-131434210D01*
X68591004Y-131422142D01*
X68591500Y-131417865D01*
X68591499Y-129328136D01*
X68591497Y-129328117D01*
X68588586Y-129303012D01*
X68588585Y-129303010D01*
X68588585Y-129303009D01*
X68543206Y-129200235D01*
X68527819Y-129184848D01*
X68494334Y-129123525D01*
X68491500Y-129097167D01*
X68491500Y-128148833D01*
X68511185Y-128081794D01*
X68527819Y-128061152D01*
X68532824Y-128056147D01*
X68543206Y-128045765D01*
X68588585Y-127942991D01*
X68591500Y-127917865D01*
X68591499Y-125828136D01*
X68589993Y-125815147D01*
X68588586Y-125803012D01*
X68588585Y-125803010D01*
X68588585Y-125803009D01*
X68543206Y-125700235D01*
X68463765Y-125620794D01*
X68432758Y-125607103D01*
X68360992Y-125575415D01*
X68335865Y-125572500D01*
X67046143Y-125572500D01*
X67046117Y-125572502D01*
X67021012Y-125575413D01*
X67021008Y-125575415D01*
X66918235Y-125620793D01*
X66838794Y-125700234D01*
X66793415Y-125803006D01*
X66793415Y-125803008D01*
X66790500Y-125828131D01*
X66790500Y-127917856D01*
X66790502Y-127917882D01*
X66793413Y-127942987D01*
X66793415Y-127942991D01*
X66838793Y-128045764D01*
X66854181Y-128061152D01*
X66887666Y-128122475D01*
X66890500Y-128148833D01*
X66890500Y-129097167D01*
X66870815Y-129164206D01*
X66854181Y-129184848D01*
X66838794Y-129200234D01*
X66793415Y-129303006D01*
X66793415Y-129303008D01*
X66790500Y-129328131D01*
X66790500Y-131417856D01*
X66790502Y-131417877D01*
X66792397Y-131434214D01*
X66780567Y-131503075D01*
X66733387Y-131554609D01*
X66669223Y-131572500D01*
X61505840Y-131572500D01*
X61438801Y-131552815D01*
X61418159Y-131536181D01*
X59844158Y-129962180D01*
X59810673Y-129900857D01*
X59815657Y-129831165D01*
X59857529Y-129775232D01*
X59922993Y-129750815D01*
X59931839Y-129750499D01*
X61094856Y-129750499D01*
X61094864Y-129750499D01*
X61094879Y-129750497D01*
X61094882Y-129750497D01*
X61119987Y-129747586D01*
X61119988Y-129747585D01*
X61119991Y-129747585D01*
X61222765Y-129702206D01*
X61302206Y-129622765D01*
X61347585Y-129519991D01*
X61350500Y-129494865D01*
X61350499Y-129362516D01*
X61370183Y-129295480D01*
X61422987Y-129249725D01*
X61492145Y-129239781D01*
X61555701Y-129268805D01*
X61576073Y-129291395D01*
X61701890Y-129471078D01*
X61868917Y-129638105D01*
X62062421Y-129773600D01*
X62276507Y-129873429D01*
X62276516Y-129873433D01*
X62490000Y-129930634D01*
X62490000Y-129033012D01*
X62547007Y-129065925D01*
X62674174Y-129100000D01*
X62805826Y-129100000D01*
X62932993Y-129065925D01*
X62990000Y-129033012D01*
X62990000Y-129930633D01*
X63203483Y-129873433D01*
X63203492Y-129873429D01*
X63417578Y-129773600D01*
X63611082Y-129638105D01*
X63778105Y-129471082D01*
X63913600Y-129277578D01*
X64013429Y-129063492D01*
X64013432Y-129063486D01*
X64070636Y-128850000D01*
X63173012Y-128850000D01*
X63205925Y-128792993D01*
X63240000Y-128665826D01*
X63240000Y-128534174D01*
X63205925Y-128407007D01*
X63173012Y-128350000D01*
X64070636Y-128350000D01*
X64070635Y-128349999D01*
X64013432Y-128136513D01*
X64013429Y-128136507D01*
X63913600Y-127922422D01*
X63913599Y-127922420D01*
X63778113Y-127728926D01*
X63778108Y-127728920D01*
X63611082Y-127561894D01*
X63417578Y-127426399D01*
X63203492Y-127326570D01*
X63203486Y-127326567D01*
X62990000Y-127269364D01*
X62990000Y-128166988D01*
X62932993Y-128134075D01*
X62805826Y-128100000D01*
X62674174Y-128100000D01*
X62547007Y-128134075D01*
X62490000Y-128166988D01*
X62490000Y-127269364D01*
X62489999Y-127269364D01*
X62276513Y-127326567D01*
X62276507Y-127326570D01*
X62062422Y-127426399D01*
X62062420Y-127426400D01*
X61868926Y-127561886D01*
X61868920Y-127561891D01*
X61701891Y-127728920D01*
X61701890Y-127728922D01*
X61576074Y-127908606D01*
X61521497Y-127952230D01*
X61451998Y-127959423D01*
X61389644Y-127927901D01*
X61354230Y-127867671D01*
X61350499Y-127837482D01*
X61350499Y-127705143D01*
X61350499Y-127705136D01*
X61349648Y-127697794D01*
X61347586Y-127680012D01*
X61347585Y-127680010D01*
X61347585Y-127680009D01*
X61302206Y-127577235D01*
X61222765Y-127497794D01*
X61222763Y-127497793D01*
X61119992Y-127452415D01*
X61110208Y-127451280D01*
X61045884Y-127423999D01*
X61006520Y-127366273D01*
X61000500Y-127328106D01*
X61000500Y-116508456D01*
X60995898Y-116485326D01*
X60988997Y-116450629D01*
X60969738Y-116353803D01*
X60909394Y-116208121D01*
X60909392Y-116208118D01*
X60909390Y-116208114D01*
X60821789Y-116077011D01*
X60821786Y-116077007D01*
X59309892Y-114565113D01*
X59309888Y-114565110D01*
X59178785Y-114477509D01*
X59178772Y-114477502D01*
X59033101Y-114417164D01*
X59033089Y-114417161D01*
X58878445Y-114386400D01*
X58878442Y-114386400D01*
X58720758Y-114386400D01*
X58720755Y-114386400D01*
X58566110Y-114417161D01*
X58566098Y-114417164D01*
X58420427Y-114477502D01*
X58420414Y-114477509D01*
X58289311Y-114565110D01*
X58289307Y-114565113D01*
X58177813Y-114676607D01*
X58177810Y-114676611D01*
X58090209Y-114807714D01*
X58090202Y-114807727D01*
X58029864Y-114953398D01*
X58029861Y-114953410D01*
X57999100Y-115108053D01*
X57999100Y-115265746D01*
X58029861Y-115420389D01*
X58029864Y-115420401D01*
X58090202Y-115566072D01*
X58090209Y-115566085D01*
X58177810Y-115697188D01*
X58177813Y-115697192D01*
X59363181Y-116882559D01*
X59396666Y-116943882D01*
X59399500Y-116970240D01*
X59399500Y-127328106D01*
X59379815Y-127395145D01*
X59327011Y-127440900D01*
X59289789Y-127451280D01*
X59280010Y-127452414D01*
X59280008Y-127452415D01*
X59177235Y-127497793D01*
X59097794Y-127577234D01*
X59052415Y-127680006D01*
X59052415Y-127680008D01*
X59049500Y-127705131D01*
X59049500Y-128868159D01*
X59029815Y-128935198D01*
X58977011Y-128980953D01*
X58907853Y-128990897D01*
X58844297Y-128961872D01*
X58837819Y-128955840D01*
X56374192Y-126492213D01*
X56374188Y-126492210D01*
X56243085Y-126404609D01*
X56243072Y-126404602D01*
X56097401Y-126344264D01*
X56097389Y-126344261D01*
X55942745Y-126313500D01*
X55942742Y-126313500D01*
X47984842Y-126313500D01*
X47827158Y-126313500D01*
X47827155Y-126313500D01*
X47672510Y-126344261D01*
X47672498Y-126344264D01*
X47526827Y-126404602D01*
X47526814Y-126404609D01*
X47395711Y-126492210D01*
X47395707Y-126492213D01*
X46274741Y-127613181D01*
X46213418Y-127646666D01*
X46187060Y-127649500D01*
X46113390Y-127649500D01*
X45903802Y-127688679D01*
X45903799Y-127688679D01*
X45903799Y-127688680D01*
X45704982Y-127765701D01*
X45704980Y-127765702D01*
X45523699Y-127877947D01*
X45366127Y-128021593D01*
X45237632Y-128191746D01*
X45142596Y-128382605D01*
X45142596Y-128382607D01*
X45084244Y-128587689D01*
X45073471Y-128703951D01*
X45047685Y-128768888D01*
X45003130Y-128800804D01*
X45039503Y-128821668D01*
X45071693Y-128883681D01*
X45073470Y-128896047D01*
X45084244Y-129012310D01*
X45137675Y-129200099D01*
X45142596Y-129217392D01*
X45142596Y-129217394D01*
X45237632Y-129408253D01*
X45296098Y-129485673D01*
X45320790Y-129551034D01*
X45306225Y-129619369D01*
X45257028Y-129668981D01*
X45197144Y-129684400D01*
X44702856Y-129684400D01*
X44635817Y-129664715D01*
X44590062Y-129611911D01*
X44580118Y-129542753D01*
X44603902Y-129485673D01*
X44614924Y-129471078D01*
X44662366Y-129408255D01*
X44702270Y-129328117D01*
X44757403Y-129217394D01*
X44757403Y-129217393D01*
X44757405Y-129217389D01*
X44815756Y-129012310D01*
X44826529Y-128896047D01*
X44852315Y-128831111D01*
X44896869Y-128799194D01*
X44860497Y-128778331D01*
X44828307Y-128716318D01*
X44826529Y-128703951D01*
X44822996Y-128665826D01*
X44815756Y-128587690D01*
X44757405Y-128382611D01*
X44757403Y-128382606D01*
X44757403Y-128382605D01*
X44662367Y-128191746D01*
X44533872Y-128021593D01*
X44495913Y-127986989D01*
X44376302Y-127877948D01*
X44195019Y-127765702D01*
X44195017Y-127765701D01*
X44038697Y-127705143D01*
X43996198Y-127688679D01*
X43786610Y-127649500D01*
X43786608Y-127649500D01*
X43712940Y-127649500D01*
X43645901Y-127629815D01*
X43625259Y-127613181D01*
X40005492Y-123993413D01*
X40005488Y-123993410D01*
X39874385Y-123905809D01*
X39874375Y-123905804D01*
X39775496Y-123864847D01*
X39721093Y-123821006D01*
X39699028Y-123754712D01*
X39716307Y-123687012D01*
X39748639Y-123651019D01*
X39807189Y-123607188D01*
X39807190Y-123607187D01*
X39893350Y-123492093D01*
X39893354Y-123492086D01*
X39943596Y-123357379D01*
X39943598Y-123357372D01*
X39949999Y-123297844D01*
X39950000Y-123297827D01*
X39950000Y-123103268D01*
X39969685Y-123036229D01*
X40022489Y-122990474D01*
X40091647Y-122980530D01*
X40155203Y-123009555D01*
X40172950Y-123028537D01*
X40286128Y-123178407D01*
X40443698Y-123322052D01*
X40624981Y-123434298D01*
X40823802Y-123511321D01*
X41033390Y-123550500D01*
X41033392Y-123550500D01*
X41246608Y-123550500D01*
X41246610Y-123550500D01*
X41456198Y-123511321D01*
X41655019Y-123434298D01*
X41836302Y-123322052D01*
X41993872Y-123178407D01*
X42122366Y-123008255D01*
X42176270Y-122900000D01*
X42217403Y-122817394D01*
X42217403Y-122817393D01*
X42217405Y-122817389D01*
X42275756Y-122612310D01*
X42286529Y-122496047D01*
X42312315Y-122431111D01*
X42354622Y-122400804D01*
X42463130Y-122400804D01*
X42499503Y-122421668D01*
X42531693Y-122483681D01*
X42533470Y-122496047D01*
X42544244Y-122612310D01*
X42597675Y-122800099D01*
X42602596Y-122817392D01*
X42602596Y-122817394D01*
X42697632Y-123008253D01*
X42712953Y-123028541D01*
X42826128Y-123178407D01*
X42983698Y-123322052D01*
X43164981Y-123434298D01*
X43363802Y-123511321D01*
X43573390Y-123550500D01*
X43573392Y-123550500D01*
X43786608Y-123550500D01*
X43786610Y-123550500D01*
X43996198Y-123511321D01*
X44195019Y-123434298D01*
X44376302Y-123322052D01*
X44533872Y-123178407D01*
X44662366Y-123008255D01*
X44716270Y-122900000D01*
X44757403Y-122817394D01*
X44757403Y-122817393D01*
X44757405Y-122817389D01*
X44815756Y-122612310D01*
X44826529Y-122496047D01*
X44852315Y-122431111D01*
X44896869Y-122399194D01*
X44860497Y-122378331D01*
X44828307Y-122316318D01*
X44826529Y-122303951D01*
X44825849Y-122296613D01*
X44815756Y-122187690D01*
X44757405Y-121982611D01*
X44757403Y-121982606D01*
X44757403Y-121982605D01*
X44662367Y-121791746D01*
X44533872Y-121621593D01*
X44402874Y-121502172D01*
X44376302Y-121477948D01*
X44195019Y-121365702D01*
X44195017Y-121365701D01*
X44045829Y-121307906D01*
X43996198Y-121288679D01*
X43786610Y-121249500D01*
X43573390Y-121249500D01*
X43363802Y-121288679D01*
X43363799Y-121288679D01*
X43363799Y-121288680D01*
X43164982Y-121365701D01*
X43164980Y-121365702D01*
X42983699Y-121477947D01*
X42826127Y-121621593D01*
X42697632Y-121791746D01*
X42602596Y-121982605D01*
X42602596Y-121982607D01*
X42544244Y-122187689D01*
X42533471Y-122303951D01*
X42507685Y-122368888D01*
X42463130Y-122400804D01*
X42354622Y-122400804D01*
X42356869Y-122399194D01*
X42320497Y-122378331D01*
X42288307Y-122316318D01*
X42286529Y-122303951D01*
X42285849Y-122296613D01*
X42275756Y-122187690D01*
X42217405Y-121982611D01*
X42217403Y-121982606D01*
X42217403Y-121982605D01*
X42122367Y-121791746D01*
X41993872Y-121621593D01*
X41862874Y-121502172D01*
X41836302Y-121477948D01*
X41655019Y-121365702D01*
X41655017Y-121365701D01*
X41505829Y-121307906D01*
X41456198Y-121288679D01*
X41246610Y-121249500D01*
X41033390Y-121249500D01*
X40823802Y-121288679D01*
X40823799Y-121288679D01*
X40823799Y-121288680D01*
X40624982Y-121365701D01*
X40624980Y-121365702D01*
X40443699Y-121477947D01*
X40286127Y-121621593D01*
X40172954Y-121771458D01*
X40116845Y-121813094D01*
X40047133Y-121817785D01*
X39985951Y-121784043D01*
X39952724Y-121722579D01*
X39950000Y-121696731D01*
X39950000Y-121502172D01*
X39949999Y-121502155D01*
X39943598Y-121442627D01*
X39943596Y-121442620D01*
X39893354Y-121307913D01*
X39893350Y-121307906D01*
X39807190Y-121192812D01*
X39807187Y-121192809D01*
X39692093Y-121106649D01*
X39692086Y-121106645D01*
X39557379Y-121056403D01*
X39557372Y-121056401D01*
X39497844Y-121050000D01*
X38850000Y-121050000D01*
X38850000Y-121966988D01*
X38792993Y-121934075D01*
X38665826Y-121900000D01*
X38534174Y-121900000D01*
X38407007Y-121934075D01*
X38350000Y-121966988D01*
X38350000Y-121050000D01*
X37848900Y-121050000D01*
X37781861Y-121030315D01*
X37736106Y-120977511D01*
X37724900Y-120926000D01*
X37724900Y-115636000D01*
X47329347Y-115636000D01*
X47349903Y-115831575D01*
X47349904Y-115831577D01*
X47410668Y-116018592D01*
X47410671Y-116018598D01*
X47508995Y-116188901D01*
X47640574Y-116335036D01*
X47640577Y-116335038D01*
X47640580Y-116335041D01*
X47799670Y-116450627D01*
X47799673Y-116450629D01*
X47979317Y-116530612D01*
X47979322Y-116530614D01*
X48171675Y-116571500D01*
X48368325Y-116571500D01*
X48560678Y-116530614D01*
X48740327Y-116450629D01*
X48899420Y-116335041D01*
X49031004Y-116188902D01*
X49129329Y-116018598D01*
X49190097Y-115831573D01*
X49210653Y-115636000D01*
X49190097Y-115440427D01*
X49129329Y-115253402D01*
X49031004Y-115083098D01*
X48899425Y-114936963D01*
X48899422Y-114936961D01*
X48899421Y-114936960D01*
X48899420Y-114936959D01*
X48740327Y-114821371D01*
X48740326Y-114821370D01*
X48560682Y-114741387D01*
X48560677Y-114741385D01*
X48368325Y-114700500D01*
X48171675Y-114700500D01*
X47979322Y-114741385D01*
X47979317Y-114741387D01*
X47799674Y-114821370D01*
X47799669Y-114821373D01*
X47640581Y-114936957D01*
X47640574Y-114936963D01*
X47508995Y-115083098D01*
X47410671Y-115253401D01*
X47410668Y-115253407D01*
X47349904Y-115440422D01*
X47349903Y-115440424D01*
X47329347Y-115636000D01*
X37724900Y-115636000D01*
X37724900Y-113096000D01*
X47130138Y-113096000D01*
X47149545Y-113305444D01*
X47207111Y-113507769D01*
X47300871Y-113696062D01*
X47307545Y-113704899D01*
X47889000Y-113123446D01*
X47889000Y-113146160D01*
X47914964Y-113243061D01*
X47965124Y-113329940D01*
X48036060Y-113400876D01*
X48122939Y-113451036D01*
X48219840Y-113477000D01*
X48242553Y-113477000D01*
X47663887Y-114055663D01*
X47761918Y-114116362D01*
X47761920Y-114116363D01*
X47958063Y-114192348D01*
X48164829Y-114231000D01*
X48375171Y-114231000D01*
X48581935Y-114192348D01*
X48581936Y-114192348D01*
X48778079Y-114116363D01*
X48778080Y-114116362D01*
X48876110Y-114055664D01*
X48876111Y-114055663D01*
X48297448Y-113477000D01*
X48320160Y-113477000D01*
X48417061Y-113451036D01*
X48503940Y-113400876D01*
X48574876Y-113329940D01*
X48625036Y-113243061D01*
X48651000Y-113146160D01*
X48651000Y-113123447D01*
X49232452Y-113704899D01*
X49232453Y-113704899D01*
X49239128Y-113696061D01*
X49332888Y-113507769D01*
X49390454Y-113305444D01*
X49409862Y-113096000D01*
X49409862Y-113095999D01*
X49390454Y-112886555D01*
X49332888Y-112684230D01*
X49239130Y-112495941D01*
X49239128Y-112495937D01*
X49232453Y-112487099D01*
X49232452Y-112487098D01*
X48651000Y-113068551D01*
X48651000Y-113045840D01*
X48625036Y-112948939D01*
X48574876Y-112862060D01*
X48503940Y-112791124D01*
X48417061Y-112740964D01*
X48320160Y-112715000D01*
X48297448Y-112715000D01*
X48876111Y-112136335D01*
X48876110Y-112136334D01*
X48778083Y-112075638D01*
X48778077Y-112075636D01*
X48581936Y-111999651D01*
X48375171Y-111961000D01*
X48164829Y-111961000D01*
X47958064Y-111999651D01*
X47958063Y-111999651D01*
X47761923Y-112075635D01*
X47663887Y-112136335D01*
X48242553Y-112715000D01*
X48219840Y-112715000D01*
X48122939Y-112740964D01*
X48036060Y-112791124D01*
X47965124Y-112862060D01*
X47914964Y-112948939D01*
X47889000Y-113045840D01*
X47889000Y-113068553D01*
X47307546Y-112487099D01*
X47307545Y-112487099D01*
X47300870Y-112495939D01*
X47207111Y-112684230D01*
X47149545Y-112886555D01*
X47130138Y-113095999D01*
X47130138Y-113096000D01*
X37724900Y-113096000D01*
X37724900Y-110556000D01*
X47329347Y-110556000D01*
X47349903Y-110751575D01*
X47349904Y-110751577D01*
X47410668Y-110938592D01*
X47410671Y-110938598D01*
X47508995Y-111108901D01*
X47640574Y-111255036D01*
X47640577Y-111255038D01*
X47640580Y-111255041D01*
X47737882Y-111325735D01*
X47799673Y-111370629D01*
X47979317Y-111450612D01*
X47979322Y-111450614D01*
X48171675Y-111491500D01*
X48368325Y-111491500D01*
X48560678Y-111450614D01*
X48740327Y-111370629D01*
X48740327Y-111370628D01*
X48746263Y-111367986D01*
X48747211Y-111370115D01*
X48798024Y-111356500D01*
X48859244Y-111356500D01*
X48859245Y-111356499D01*
X49013897Y-111325737D01*
X49159579Y-111265394D01*
X49290689Y-111177789D01*
X53534473Y-106934005D01*
X54628357Y-106934005D01*
X54648890Y-107181812D01*
X54648892Y-107181824D01*
X54709936Y-107422881D01*
X54809826Y-107650606D01*
X54945833Y-107858782D01*
X54945836Y-107858785D01*
X55114256Y-108041738D01*
X55310491Y-108194474D01*
X55529190Y-108312828D01*
X55764386Y-108393571D01*
X56009665Y-108434500D01*
X56258335Y-108434500D01*
X56503614Y-108393571D01*
X56738810Y-108312828D01*
X56957509Y-108194474D01*
X57153744Y-108041738D01*
X57322164Y-107858785D01*
X57458173Y-107650607D01*
X57558063Y-107422881D01*
X57619108Y-107181821D01*
X57639643Y-106934000D01*
X57633529Y-106860219D01*
X57619109Y-106686187D01*
X57619107Y-106686175D01*
X57558063Y-106445118D01*
X57458173Y-106217393D01*
X57322166Y-106009217D01*
X57300557Y-105985744D01*
X57153744Y-105826262D01*
X56957509Y-105673526D01*
X56957507Y-105673525D01*
X56957506Y-105673524D01*
X56738811Y-105555172D01*
X56738802Y-105555169D01*
X56503616Y-105474429D01*
X56258335Y-105433500D01*
X56009665Y-105433500D01*
X55764383Y-105474429D01*
X55529197Y-105555169D01*
X55529188Y-105555172D01*
X55310493Y-105673524D01*
X55114257Y-105826261D01*
X54945833Y-106009217D01*
X54809826Y-106217393D01*
X54709936Y-106445118D01*
X54648892Y-106686175D01*
X54648890Y-106686187D01*
X54628357Y-106933994D01*
X54628357Y-106934005D01*
X53534473Y-106934005D01*
X58728238Y-101740240D01*
X62411311Y-101740240D01*
X62499585Y-101794897D01*
X62689678Y-101868539D01*
X62890072Y-101906000D01*
X63093928Y-101906000D01*
X63294322Y-101868539D01*
X63484412Y-101794899D01*
X63484416Y-101794897D01*
X63572686Y-101740241D01*
X63572686Y-101740240D01*
X62992001Y-101159553D01*
X62992000Y-101159553D01*
X62411311Y-101740240D01*
X58728238Y-101740240D01*
X59662478Y-100806000D01*
X61887287Y-100806000D01*
X61906096Y-101008989D01*
X61906097Y-101008992D01*
X61961883Y-101205063D01*
X61961886Y-101205069D01*
X62052751Y-101387551D01*
X62054533Y-101389911D01*
X62598950Y-100845496D01*
X62692000Y-100845496D01*
X62712444Y-100921796D01*
X62751940Y-100990205D01*
X62807795Y-101046060D01*
X62876204Y-101085556D01*
X62952504Y-101106000D01*
X63031496Y-101106000D01*
X63107796Y-101085556D01*
X63176205Y-101046060D01*
X63232060Y-100990205D01*
X63271556Y-100921796D01*
X63292000Y-100845496D01*
X63292000Y-100806000D01*
X63345553Y-100806000D01*
X63929465Y-101389912D01*
X63931247Y-101387553D01*
X63931248Y-101387551D01*
X64022113Y-101205069D01*
X64022116Y-101205063D01*
X64077902Y-101008992D01*
X64077903Y-101008989D01*
X64096713Y-100806000D01*
X64096713Y-100805999D01*
X64077903Y-100603010D01*
X64077902Y-100603007D01*
X64022116Y-100406936D01*
X64022113Y-100406930D01*
X63931249Y-100224449D01*
X63931247Y-100224447D01*
X63929465Y-100222087D01*
X63345553Y-100806000D01*
X63292000Y-100806000D01*
X63292000Y-100766504D01*
X63271556Y-100690204D01*
X63232060Y-100621795D01*
X63176205Y-100565940D01*
X63107796Y-100526444D01*
X63031496Y-100506000D01*
X62952504Y-100506000D01*
X62876204Y-100526444D01*
X62807795Y-100565940D01*
X62751940Y-100621795D01*
X62712444Y-100690204D01*
X62692000Y-100766504D01*
X62692000Y-100845496D01*
X62598950Y-100845496D01*
X62638446Y-100806000D01*
X62054533Y-100222087D01*
X62052755Y-100224442D01*
X62052754Y-100224443D01*
X61961886Y-100406930D01*
X61961883Y-100406936D01*
X61906097Y-100603007D01*
X61906096Y-100603010D01*
X61887287Y-100805999D01*
X61887287Y-100806000D01*
X59662478Y-100806000D01*
X60825659Y-99642819D01*
X60886982Y-99609334D01*
X60913340Y-99606500D01*
X62403904Y-99606500D01*
X62470943Y-99626185D01*
X62516698Y-99678989D01*
X62526642Y-99748147D01*
X62497617Y-99811703D01*
X62469181Y-99835927D01*
X62411312Y-99871757D01*
X62411311Y-99871758D01*
X62992000Y-100452446D01*
X62992001Y-100452446D01*
X63572687Y-99871758D01*
X63484413Y-99817101D01*
X63484408Y-99817099D01*
X63466879Y-99810308D01*
X63411478Y-99767734D01*
X63387889Y-99701967D01*
X63403601Y-99633887D01*
X63441020Y-99596101D01*
X63439473Y-99593971D01*
X63509879Y-99542817D01*
X63597871Y-99478888D01*
X63724533Y-99338216D01*
X63819179Y-99174284D01*
X63877674Y-98994256D01*
X63897460Y-98806000D01*
X63877674Y-98617744D01*
X63819179Y-98437716D01*
X63724533Y-98273784D01*
X63597871Y-98133112D01*
X63590001Y-98127394D01*
X63444734Y-98021851D01*
X63444729Y-98021848D01*
X63271807Y-97944857D01*
X63271802Y-97944855D01*
X63126001Y-97913865D01*
X63086646Y-97905500D01*
X62897354Y-97905500D01*
X62864897Y-97912398D01*
X62712197Y-97944855D01*
X62712192Y-97944857D01*
X62600069Y-97994779D01*
X62549633Y-98005500D01*
X60451554Y-98005500D01*
X60296908Y-98036261D01*
X60296898Y-98036264D01*
X60283068Y-98041993D01*
X60151223Y-98096604D01*
X60151215Y-98096609D01*
X60024905Y-98181008D01*
X60020112Y-98184210D01*
X60020107Y-98184214D01*
X57446180Y-100758141D01*
X57384857Y-100791626D01*
X57315165Y-100786642D01*
X57259232Y-100744770D01*
X57234815Y-100679306D01*
X57234499Y-100670460D01*
X57234499Y-99453143D01*
X57234499Y-99453136D01*
X57233801Y-99447114D01*
X57231586Y-99428012D01*
X57231585Y-99428010D01*
X57231585Y-99428009D01*
X57186206Y-99325235D01*
X57186205Y-99325233D01*
X57151276Y-99290304D01*
X57117791Y-99228981D01*
X57122777Y-99159289D01*
X57137383Y-99131500D01*
X57264134Y-98950482D01*
X57360265Y-98744326D01*
X57360269Y-98744317D01*
X57419139Y-98524610D01*
X57419141Y-98524599D01*
X57438966Y-98298002D01*
X57438966Y-98297997D01*
X57419141Y-98071400D01*
X57419139Y-98071389D01*
X57360269Y-97851682D01*
X57360264Y-97851668D01*
X57264136Y-97645521D01*
X57264132Y-97645513D01*
X57213025Y-97572526D01*
X56534000Y-98251551D01*
X56534000Y-98245339D01*
X56506741Y-98143606D01*
X56454080Y-98052394D01*
X56379606Y-97977920D01*
X56288394Y-97925259D01*
X56186661Y-97898000D01*
X56180448Y-97898000D01*
X56859472Y-97218974D01*
X56786478Y-97167863D01*
X56580331Y-97071735D01*
X56580317Y-97071730D01*
X56360610Y-97012860D01*
X56360599Y-97012858D01*
X56134002Y-96993034D01*
X56133998Y-96993034D01*
X55907400Y-97012858D01*
X55907389Y-97012860D01*
X55687682Y-97071730D01*
X55687673Y-97071734D01*
X55481516Y-97167866D01*
X55481512Y-97167868D01*
X55408526Y-97218973D01*
X55408526Y-97218974D01*
X56087553Y-97898000D01*
X56081339Y-97898000D01*
X55979606Y-97925259D01*
X55888394Y-97977920D01*
X55813920Y-98052394D01*
X55761259Y-98143606D01*
X55734000Y-98245339D01*
X55734000Y-98251552D01*
X55054974Y-97572526D01*
X55054973Y-97572526D01*
X55003868Y-97645512D01*
X55003866Y-97645516D01*
X54907734Y-97851673D01*
X54907730Y-97851682D01*
X54848860Y-98071389D01*
X54848858Y-98071400D01*
X54829034Y-98297997D01*
X54829034Y-98298002D01*
X54848858Y-98524599D01*
X54848860Y-98524610D01*
X54907730Y-98744317D01*
X54907734Y-98744326D01*
X55003865Y-98950482D01*
X55130617Y-99131500D01*
X55152944Y-99197706D01*
X55135934Y-99265474D01*
X55116724Y-99290304D01*
X55081794Y-99325233D01*
X55081794Y-99325234D01*
X55036415Y-99428006D01*
X55036415Y-99428008D01*
X55033500Y-99453131D01*
X55033500Y-101142856D01*
X55033502Y-101142882D01*
X55036413Y-101167987D01*
X55036415Y-101167991D01*
X55081793Y-101270764D01*
X55081794Y-101270765D01*
X55161235Y-101350206D01*
X55264009Y-101395585D01*
X55289135Y-101398500D01*
X56506459Y-101398499D01*
X56573498Y-101418184D01*
X56619253Y-101470987D01*
X56629197Y-101540146D01*
X56600172Y-101603702D01*
X56594140Y-101610180D01*
X48593652Y-109610668D01*
X48532329Y-109644153D01*
X48480191Y-109644277D01*
X48368325Y-109620500D01*
X48171675Y-109620500D01*
X47979322Y-109661385D01*
X47979317Y-109661387D01*
X47799674Y-109741370D01*
X47799669Y-109741373D01*
X47640581Y-109856957D01*
X47640574Y-109856963D01*
X47508995Y-110003098D01*
X47410671Y-110173401D01*
X47410668Y-110173407D01*
X47349904Y-110360422D01*
X47349903Y-110360424D01*
X47329347Y-110556000D01*
X37724900Y-110556000D01*
X37724900Y-108016000D01*
X47329347Y-108016000D01*
X47349903Y-108211575D01*
X47349904Y-108211577D01*
X47410668Y-108398592D01*
X47410671Y-108398598D01*
X47508995Y-108568901D01*
X47640574Y-108715036D01*
X47640577Y-108715038D01*
X47640580Y-108715041D01*
X47799673Y-108830629D01*
X47979317Y-108910612D01*
X47979322Y-108910614D01*
X48171675Y-108951500D01*
X48368325Y-108951500D01*
X48560678Y-108910614D01*
X48740327Y-108830629D01*
X48899420Y-108715041D01*
X49031004Y-108568902D01*
X49129329Y-108398598D01*
X49190097Y-108211573D01*
X49210653Y-108016000D01*
X49190097Y-107820427D01*
X49148691Y-107692993D01*
X49129331Y-107633407D01*
X49129328Y-107633401D01*
X49031004Y-107463098D01*
X48899425Y-107316963D01*
X48899422Y-107316961D01*
X48899421Y-107316960D01*
X48899420Y-107316959D01*
X48740327Y-107201371D01*
X48740326Y-107201370D01*
X48560682Y-107121387D01*
X48560677Y-107121385D01*
X48368325Y-107080500D01*
X48171675Y-107080500D01*
X47979322Y-107121385D01*
X47979317Y-107121387D01*
X47799674Y-107201370D01*
X47799669Y-107201373D01*
X47640581Y-107316957D01*
X47640574Y-107316963D01*
X47508995Y-107463098D01*
X47410671Y-107633401D01*
X47410668Y-107633407D01*
X47349904Y-107820422D01*
X47349903Y-107820424D01*
X47329347Y-108016000D01*
X37724900Y-108016000D01*
X37724900Y-102936000D01*
X47329347Y-102936000D01*
X47349903Y-103131575D01*
X47349904Y-103131577D01*
X47410668Y-103318592D01*
X47410671Y-103318598D01*
X47508995Y-103488901D01*
X47640574Y-103635036D01*
X47640577Y-103635038D01*
X47640580Y-103635041D01*
X47755047Y-103718206D01*
X47799673Y-103750629D01*
X47979317Y-103830612D01*
X47979322Y-103830614D01*
X48171675Y-103871500D01*
X48368325Y-103871500D01*
X48560678Y-103830614D01*
X48740327Y-103750629D01*
X48899420Y-103635041D01*
X49031004Y-103488902D01*
X49129329Y-103318598D01*
X49190097Y-103131573D01*
X49210653Y-102936000D01*
X49190097Y-102740427D01*
X49159713Y-102646914D01*
X49129331Y-102553407D01*
X49129328Y-102553401D01*
X49126498Y-102548500D01*
X49031004Y-102383098D01*
X49015608Y-102365999D01*
X48899425Y-102236963D01*
X48899422Y-102236961D01*
X48899421Y-102236960D01*
X48899420Y-102236959D01*
X48765069Y-102139347D01*
X48740326Y-102121370D01*
X48560682Y-102041387D01*
X48560677Y-102041385D01*
X48368325Y-102000500D01*
X48171675Y-102000500D01*
X47979322Y-102041385D01*
X47979317Y-102041387D01*
X47799674Y-102121370D01*
X47799669Y-102121373D01*
X47640581Y-102236957D01*
X47640574Y-102236963D01*
X47508995Y-102383098D01*
X47410671Y-102553401D01*
X47410668Y-102553407D01*
X47349904Y-102740422D01*
X47349903Y-102740424D01*
X47329347Y-102936000D01*
X37724900Y-102936000D01*
X37724900Y-100396000D01*
X47329347Y-100396000D01*
X47349903Y-100591575D01*
X47349904Y-100591577D01*
X47410668Y-100778592D01*
X47410671Y-100778598D01*
X47508995Y-100948901D01*
X47640574Y-101095036D01*
X47640577Y-101095038D01*
X47640580Y-101095041D01*
X47740987Y-101167991D01*
X47799673Y-101210629D01*
X47979317Y-101290612D01*
X47979322Y-101290614D01*
X48171675Y-101331500D01*
X48368325Y-101331500D01*
X48560678Y-101290614D01*
X48740327Y-101210629D01*
X48899420Y-101095041D01*
X48907961Y-101085556D01*
X48946282Y-101042995D01*
X49031004Y-100948902D01*
X49129329Y-100778598D01*
X49190097Y-100591573D01*
X49210653Y-100396000D01*
X49190097Y-100200427D01*
X49129329Y-100013402D01*
X49031004Y-99843098D01*
X49007596Y-99817101D01*
X48899425Y-99696963D01*
X48899422Y-99696961D01*
X48899421Y-99696960D01*
X48899420Y-99696959D01*
X48760601Y-99596101D01*
X48740326Y-99581370D01*
X48560682Y-99501387D01*
X48560677Y-99501385D01*
X48368325Y-99460500D01*
X48171675Y-99460500D01*
X47979322Y-99501385D01*
X47979317Y-99501387D01*
X47799674Y-99581370D01*
X47799669Y-99581373D01*
X47640581Y-99696957D01*
X47640574Y-99696963D01*
X47508995Y-99843098D01*
X47410671Y-100013401D01*
X47410668Y-100013407D01*
X47349904Y-100200422D01*
X47349903Y-100200424D01*
X47329347Y-100396000D01*
X37724900Y-100396000D01*
X37724900Y-98538844D01*
X47135000Y-98538844D01*
X47141401Y-98598372D01*
X47141403Y-98598379D01*
X47191645Y-98733086D01*
X47191649Y-98733093D01*
X47277809Y-98848187D01*
X47277812Y-98848190D01*
X47392906Y-98934350D01*
X47392913Y-98934354D01*
X47527620Y-98984596D01*
X47527627Y-98984598D01*
X47587155Y-98990999D01*
X47587172Y-98991000D01*
X48020000Y-98991000D01*
X48020000Y-98144816D01*
X48036060Y-98160876D01*
X48122939Y-98211036D01*
X48219840Y-98237000D01*
X48320160Y-98237000D01*
X48417061Y-98211036D01*
X48503940Y-98160876D01*
X48520000Y-98144816D01*
X48520000Y-98991000D01*
X48952828Y-98991000D01*
X48952844Y-98990999D01*
X49012372Y-98984598D01*
X49012379Y-98984596D01*
X49147086Y-98934354D01*
X49147093Y-98934350D01*
X49262187Y-98848190D01*
X49262190Y-98848187D01*
X49348350Y-98733093D01*
X49348354Y-98733086D01*
X49398596Y-98598379D01*
X49398598Y-98598372D01*
X49404999Y-98538844D01*
X49405000Y-98538827D01*
X49405000Y-98106000D01*
X48558816Y-98106000D01*
X48574876Y-98089940D01*
X48625036Y-98003061D01*
X48651000Y-97906160D01*
X48651000Y-97805840D01*
X48625036Y-97708939D01*
X48574876Y-97622060D01*
X48558816Y-97606000D01*
X49405000Y-97606000D01*
X49405000Y-97173172D01*
X49404998Y-97173144D01*
X49398598Y-97113627D01*
X49398596Y-97113620D01*
X49348354Y-96978913D01*
X49348350Y-96978906D01*
X49262190Y-96863812D01*
X49262187Y-96863809D01*
X49147093Y-96777649D01*
X49147086Y-96777645D01*
X49012379Y-96727403D01*
X49012372Y-96727401D01*
X48952844Y-96721000D01*
X48520000Y-96721000D01*
X48520000Y-97567184D01*
X48503940Y-97551124D01*
X48417061Y-97500964D01*
X48320160Y-97475000D01*
X48219840Y-97475000D01*
X48122939Y-97500964D01*
X48036060Y-97551124D01*
X48020000Y-97567184D01*
X48020000Y-96721000D01*
X47587155Y-96721000D01*
X47527627Y-96727401D01*
X47527620Y-96727403D01*
X47392913Y-96777645D01*
X47392906Y-96777649D01*
X47277812Y-96863809D01*
X47277809Y-96863812D01*
X47191649Y-96978906D01*
X47191645Y-96978913D01*
X47141403Y-97113620D01*
X47141401Y-97113627D01*
X47135002Y-97173144D01*
X47135000Y-97173172D01*
X47135000Y-97606000D01*
X47981184Y-97606000D01*
X47965124Y-97622060D01*
X47914964Y-97708939D01*
X47889000Y-97805840D01*
X47889000Y-97906160D01*
X47914964Y-98003061D01*
X47965124Y-98089940D01*
X47981184Y-98106000D01*
X47135000Y-98106000D01*
X47135000Y-98538844D01*
X37724900Y-98538844D01*
X37724900Y-88802105D01*
X37744585Y-88735066D01*
X37797389Y-88689311D01*
X37866547Y-88679367D01*
X37930103Y-88708392D01*
X37956285Y-88740103D01*
X38033309Y-88873512D01*
X38033312Y-88873517D01*
X38173001Y-89055561D01*
X38173009Y-89055570D01*
X38335250Y-89217811D01*
X38335258Y-89217818D01*
X38517302Y-89357507D01*
X38517305Y-89357508D01*
X38517308Y-89357511D01*
X38716032Y-89472244D01*
X38716037Y-89472246D01*
X38716043Y-89472249D01*
X38807400Y-89510090D01*
X38928033Y-89560058D01*
X39149682Y-89619448D01*
X39377186Y-89649400D01*
X39377193Y-89649400D01*
X39606647Y-89649400D01*
X39606654Y-89649400D01*
X39834158Y-89619448D01*
X40055807Y-89560058D01*
X40267808Y-89472244D01*
X40466532Y-89357511D01*
X40648581Y-89217819D01*
X40648585Y-89217814D01*
X40648590Y-89217811D01*
X40810831Y-89055570D01*
X40810834Y-89055565D01*
X40810839Y-89055561D01*
X40950531Y-88873512D01*
X41065264Y-88674788D01*
X41153078Y-88462787D01*
X41212468Y-88241138D01*
X41242420Y-88013634D01*
X41242420Y-87784166D01*
X41212468Y-87556662D01*
X41153078Y-87335013D01*
X41103110Y-87214380D01*
X41065269Y-87123023D01*
X41065266Y-87123017D01*
X41065264Y-87123012D01*
X40950531Y-86924288D01*
X40950528Y-86924285D01*
X40950527Y-86924282D01*
X40810838Y-86742238D01*
X40810831Y-86742230D01*
X40648590Y-86579989D01*
X40648581Y-86579981D01*
X40466537Y-86440292D01*
X40447096Y-86429068D01*
X40267808Y-86325556D01*
X40267796Y-86325550D01*
X40055807Y-86237742D01*
X39834158Y-86178352D01*
X39796135Y-86173346D01*
X39606661Y-86148400D01*
X39606654Y-86148400D01*
X39377186Y-86148400D01*
X39377178Y-86148400D01*
X39160635Y-86176909D01*
X39149682Y-86178352D01*
X39055996Y-86203454D01*
X38928032Y-86237742D01*
X38716043Y-86325550D01*
X38716029Y-86325557D01*
X38517302Y-86440292D01*
X38335258Y-86579981D01*
X38173001Y-86742238D01*
X38033312Y-86924282D01*
X37956287Y-87057694D01*
X37905720Y-87105910D01*
X37837113Y-87119132D01*
X37772248Y-87093164D01*
X37731720Y-87036250D01*
X37724900Y-86995694D01*
X37724900Y-76062500D01*
X38911959Y-76062500D01*
X38932472Y-76270784D01*
X38932473Y-76270786D01*
X38983833Y-76440099D01*
X38993229Y-76471071D01*
X39091891Y-76655653D01*
X39224663Y-76817436D01*
X39338771Y-76911082D01*
X39386450Y-76950211D01*
X39571031Y-77048872D01*
X39771314Y-77109627D01*
X39979600Y-77130141D01*
X40187886Y-77109627D01*
X40388169Y-77048872D01*
X40572750Y-76950211D01*
X40734536Y-76817436D01*
X40867311Y-76655650D01*
X40965972Y-76471069D01*
X41026727Y-76270786D01*
X41047241Y-76062500D01*
X41026727Y-75854214D01*
X40965972Y-75653931D01*
X40867311Y-75469350D01*
X40867308Y-75469346D01*
X40734536Y-75307563D01*
X40572753Y-75174791D01*
X40572751Y-75174790D01*
X40572750Y-75174789D01*
X40388169Y-75076128D01*
X40288027Y-75045750D01*
X40187884Y-75015372D01*
X39979600Y-74994859D01*
X39771315Y-75015372D01*
X39571028Y-75076129D01*
X39386446Y-75174791D01*
X39224663Y-75307563D01*
X39091891Y-75469346D01*
X38993229Y-75653928D01*
X38932472Y-75854215D01*
X38911959Y-76062500D01*
X37724900Y-76062500D01*
X37724900Y-73522500D01*
X38911959Y-73522500D01*
X38932472Y-73730784D01*
X38932473Y-73730786D01*
X38993228Y-73931069D01*
X39087936Y-74108255D01*
X39091891Y-74115653D01*
X39224663Y-74277436D01*
X39335297Y-74368231D01*
X39386450Y-74410211D01*
X39571031Y-74508872D01*
X39771314Y-74569627D01*
X39979600Y-74590141D01*
X40187886Y-74569627D01*
X40388169Y-74508872D01*
X40572750Y-74410211D01*
X40734536Y-74277436D01*
X40867311Y-74115650D01*
X40965972Y-73931069D01*
X41026727Y-73730786D01*
X41047241Y-73522500D01*
X41026727Y-73314214D01*
X40965972Y-73113931D01*
X40867311Y-72929350D01*
X40867308Y-72929346D01*
X40734536Y-72767563D01*
X40572753Y-72634791D01*
X40572751Y-72634790D01*
X40572750Y-72634789D01*
X40388169Y-72536128D01*
X40288027Y-72505750D01*
X40187884Y-72475372D01*
X39979600Y-72454859D01*
X39771315Y-72475372D01*
X39571028Y-72536129D01*
X39386446Y-72634791D01*
X39224663Y-72767563D01*
X39091891Y-72929346D01*
X38993229Y-73113928D01*
X38932472Y-73314215D01*
X38911959Y-73522500D01*
X37724900Y-73522500D01*
X37724900Y-70982500D01*
X38911959Y-70982500D01*
X38932472Y-71190784D01*
X38993229Y-71391071D01*
X39091891Y-71575653D01*
X39224663Y-71737436D01*
X39386446Y-71870208D01*
X39386450Y-71870211D01*
X39571031Y-71968872D01*
X39771314Y-72029627D01*
X39979600Y-72050141D01*
X40187886Y-72029627D01*
X40388169Y-71968872D01*
X40572750Y-71870211D01*
X40734536Y-71737436D01*
X40867311Y-71575650D01*
X40965972Y-71391069D01*
X41026727Y-71190786D01*
X41047241Y-70982500D01*
X41044033Y-70949929D01*
X41057052Y-70881284D01*
X41105117Y-70830574D01*
X41172967Y-70813899D01*
X41239062Y-70836555D01*
X41255117Y-70850095D01*
X66969012Y-96563990D01*
X67002497Y-96625313D01*
X66997513Y-96695005D01*
X66969013Y-96739352D01*
X66851964Y-96856401D01*
X66750195Y-96996475D01*
X66671591Y-97150742D01*
X66618085Y-97315415D01*
X66591000Y-97486428D01*
X66591000Y-97723000D01*
X67375314Y-97723000D01*
X67370920Y-97727394D01*
X67318259Y-97818606D01*
X67291000Y-97920339D01*
X67291000Y-98025661D01*
X67318259Y-98127394D01*
X67370920Y-98218606D01*
X67375314Y-98223000D01*
X66591000Y-98223000D01*
X66591000Y-98459571D01*
X66618085Y-98630584D01*
X66671591Y-98795257D01*
X66750195Y-98949524D01*
X66851967Y-99089602D01*
X66974397Y-99212032D01*
X67114475Y-99313804D01*
X67268744Y-99392408D01*
X67433415Y-99445914D01*
X67433414Y-99445914D01*
X67440999Y-99447115D01*
X67441000Y-99447114D01*
X67441000Y-98288686D01*
X67445394Y-98293080D01*
X67536606Y-98345741D01*
X67638339Y-98373000D01*
X67743661Y-98373000D01*
X67845394Y-98345741D01*
X67936606Y-98293080D01*
X67941000Y-98288686D01*
X67941000Y-99447115D01*
X67948584Y-99445914D01*
X68113255Y-99392408D01*
X68267524Y-99313804D01*
X68407602Y-99212032D01*
X68530032Y-99089602D01*
X68631804Y-98949524D01*
X68710408Y-98795257D01*
X68763914Y-98630584D01*
X68791000Y-98459571D01*
X68791000Y-98223000D01*
X68006686Y-98223000D01*
X68011080Y-98218606D01*
X68063741Y-98127394D01*
X68091000Y-98025661D01*
X68091000Y-97920339D01*
X68063741Y-97818606D01*
X68011080Y-97727394D01*
X68006686Y-97723000D01*
X68791000Y-97723000D01*
X68791000Y-97486428D01*
X68763914Y-97315415D01*
X68710408Y-97150742D01*
X68631803Y-96996474D01*
X68612849Y-96970386D01*
X68589369Y-96904580D01*
X68605194Y-96836526D01*
X68655300Y-96787831D01*
X68713167Y-96773500D01*
X69306500Y-96773500D01*
X69373539Y-96793185D01*
X69419294Y-96845989D01*
X69430500Y-96897500D01*
X69430500Y-97127793D01*
X69421061Y-97175245D01*
X69365106Y-97310332D01*
X69365103Y-97310341D01*
X69330500Y-97484304D01*
X69330500Y-98461695D01*
X69365104Y-98635658D01*
X69365107Y-98635670D01*
X69421061Y-98770755D01*
X69430500Y-98818207D01*
X69430500Y-100627793D01*
X69421061Y-100675245D01*
X69365106Y-100810332D01*
X69365103Y-100810341D01*
X69330500Y-100984304D01*
X69330500Y-101961695D01*
X69365103Y-102135658D01*
X69365106Y-102135667D01*
X69432983Y-102299540D01*
X69432990Y-102299553D01*
X69531535Y-102447034D01*
X69531538Y-102447038D01*
X69545319Y-102460819D01*
X69578804Y-102522142D01*
X69573820Y-102591834D01*
X69531948Y-102647767D01*
X69466484Y-102672184D01*
X69457638Y-102672500D01*
X68713167Y-102672500D01*
X68646128Y-102652815D01*
X68600373Y-102600011D01*
X68590429Y-102530853D01*
X68612849Y-102475614D01*
X68631803Y-102449525D01*
X68710408Y-102295257D01*
X68763914Y-102130584D01*
X68791000Y-101959571D01*
X68791000Y-101723000D01*
X68006686Y-101723000D01*
X68011080Y-101718606D01*
X68063741Y-101627394D01*
X68091000Y-101525661D01*
X68091000Y-101420339D01*
X68063741Y-101318606D01*
X68011080Y-101227394D01*
X68006686Y-101223000D01*
X68791000Y-101223000D01*
X68791000Y-100986428D01*
X68763914Y-100815415D01*
X68710408Y-100650742D01*
X68631804Y-100496475D01*
X68530032Y-100356397D01*
X68407602Y-100233967D01*
X68267524Y-100132195D01*
X68113257Y-100053591D01*
X67948589Y-100000087D01*
X67948581Y-100000085D01*
X67941000Y-99998884D01*
X67941000Y-101157314D01*
X67936606Y-101152920D01*
X67845394Y-101100259D01*
X67743661Y-101073000D01*
X67638339Y-101073000D01*
X67536606Y-101100259D01*
X67445394Y-101152920D01*
X67441000Y-101157314D01*
X67441000Y-99998884D01*
X67440999Y-99998884D01*
X67433418Y-100000085D01*
X67433410Y-100000087D01*
X67268742Y-100053591D01*
X67114475Y-100132195D01*
X66974397Y-100233967D01*
X66851967Y-100356397D01*
X66750195Y-100496475D01*
X66671591Y-100650742D01*
X66618085Y-100815415D01*
X66591000Y-100986428D01*
X66591000Y-101223000D01*
X67375314Y-101223000D01*
X67370920Y-101227394D01*
X67318259Y-101318606D01*
X67291000Y-101420339D01*
X67291000Y-101525661D01*
X67318259Y-101627394D01*
X67370920Y-101718606D01*
X67375314Y-101723000D01*
X66591000Y-101723000D01*
X66591000Y-101959571D01*
X66618085Y-102130584D01*
X66671591Y-102295257D01*
X66750196Y-102449525D01*
X66769151Y-102475614D01*
X66792631Y-102541420D01*
X66776806Y-102609474D01*
X66726700Y-102658169D01*
X66668833Y-102672500D01*
X65068155Y-102672500D01*
X64913510Y-102703261D01*
X64913498Y-102703264D01*
X64767827Y-102763602D01*
X64767815Y-102763609D01*
X64639275Y-102849498D01*
X64636715Y-102851207D01*
X64636707Y-102851214D01*
X46274741Y-121213181D01*
X46213418Y-121246666D01*
X46187060Y-121249500D01*
X46113390Y-121249500D01*
X45903802Y-121288679D01*
X45903799Y-121288679D01*
X45903799Y-121288680D01*
X45704982Y-121365701D01*
X45704980Y-121365702D01*
X45523699Y-121477947D01*
X45366127Y-121621593D01*
X45237632Y-121791746D01*
X45142596Y-121982605D01*
X45142596Y-121982607D01*
X45084244Y-122187689D01*
X45073471Y-122303951D01*
X45047685Y-122368888D01*
X45003130Y-122400804D01*
X45039503Y-122421668D01*
X45071693Y-122483681D01*
X45073470Y-122496047D01*
X45084244Y-122612310D01*
X45137675Y-122800099D01*
X45142596Y-122817392D01*
X45142596Y-122817394D01*
X45237632Y-123008253D01*
X45252953Y-123028541D01*
X45366128Y-123178407D01*
X45523698Y-123322052D01*
X45704981Y-123434298D01*
X45903802Y-123511321D01*
X46113390Y-123550500D01*
X46113392Y-123550500D01*
X46326608Y-123550500D01*
X46326610Y-123550500D01*
X46536198Y-123511321D01*
X46735019Y-123434298D01*
X46916302Y-123322052D01*
X47073872Y-123178407D01*
X47202366Y-123008255D01*
X47256270Y-122900000D01*
X47297403Y-122817394D01*
X47297403Y-122817393D01*
X47297405Y-122817389D01*
X47355756Y-122612310D01*
X47366529Y-122496045D01*
X47392313Y-122431112D01*
X47449113Y-122390423D01*
X47518894Y-122386903D01*
X47579501Y-122421667D01*
X47611692Y-122483680D01*
X47613470Y-122496047D01*
X47616246Y-122526000D01*
X47624244Y-122612310D01*
X47677675Y-122800099D01*
X47682596Y-122817392D01*
X47682596Y-122817394D01*
X47777632Y-123008253D01*
X47792953Y-123028541D01*
X47906128Y-123178407D01*
X48063698Y-123322052D01*
X48244981Y-123434298D01*
X48443802Y-123511321D01*
X48653390Y-123550500D01*
X48653392Y-123550500D01*
X48866608Y-123550500D01*
X48866610Y-123550500D01*
X49076198Y-123511321D01*
X49275019Y-123434298D01*
X49456302Y-123322052D01*
X49613872Y-123178407D01*
X49742366Y-123008255D01*
X49796270Y-122900000D01*
X49837403Y-122817394D01*
X49837403Y-122817393D01*
X49837405Y-122817389D01*
X49895756Y-122612310D01*
X49906529Y-122496047D01*
X49932315Y-122431111D01*
X49974622Y-122400804D01*
X50083130Y-122400804D01*
X50119503Y-122421668D01*
X50151693Y-122483681D01*
X50153470Y-122496047D01*
X50164244Y-122612310D01*
X50217675Y-122800099D01*
X50222596Y-122817392D01*
X50222596Y-122817394D01*
X50317632Y-123008253D01*
X50332953Y-123028541D01*
X50446128Y-123178407D01*
X50603698Y-123322052D01*
X50784981Y-123434298D01*
X50983802Y-123511321D01*
X51193390Y-123550500D01*
X51193392Y-123550500D01*
X51406608Y-123550500D01*
X51406610Y-123550500D01*
X51616198Y-123511321D01*
X51815019Y-123434298D01*
X51996302Y-123322052D01*
X52153872Y-123178407D01*
X52282366Y-123008255D01*
X52336270Y-122900000D01*
X52377403Y-122817394D01*
X52377403Y-122817393D01*
X52377405Y-122817389D01*
X52435756Y-122612310D01*
X52455429Y-122400000D01*
X52435756Y-122187690D01*
X52377405Y-121982611D01*
X52377403Y-121982606D01*
X52377403Y-121982605D01*
X52282367Y-121791746D01*
X52153872Y-121621593D01*
X52022874Y-121502172D01*
X51996302Y-121477948D01*
X51815019Y-121365702D01*
X51815017Y-121365701D01*
X51665829Y-121307906D01*
X51616198Y-121288679D01*
X51406610Y-121249500D01*
X51193390Y-121249500D01*
X50983802Y-121288679D01*
X50983799Y-121288679D01*
X50983799Y-121288680D01*
X50784982Y-121365701D01*
X50784980Y-121365702D01*
X50603699Y-121477947D01*
X50446127Y-121621593D01*
X50317632Y-121791746D01*
X50222596Y-121982605D01*
X50222596Y-121982607D01*
X50164244Y-122187689D01*
X50153471Y-122303951D01*
X50127685Y-122368888D01*
X50083130Y-122400804D01*
X49974622Y-122400804D01*
X49976869Y-122399194D01*
X49940497Y-122378331D01*
X49908307Y-122316318D01*
X49906529Y-122303951D01*
X49905849Y-122296613D01*
X49895756Y-122187690D01*
X49837405Y-121982611D01*
X49837403Y-121982606D01*
X49837403Y-121982605D01*
X49742367Y-121791746D01*
X49613872Y-121621593D01*
X49482874Y-121502172D01*
X49456302Y-121477948D01*
X49275019Y-121365702D01*
X49275017Y-121365701D01*
X49125829Y-121307906D01*
X49076198Y-121288679D01*
X48866610Y-121249500D01*
X48801939Y-121249500D01*
X48734900Y-121229815D01*
X48689145Y-121177011D01*
X48679201Y-121107853D01*
X48708226Y-121044297D01*
X48714258Y-121037819D01*
X51413221Y-118338856D01*
X54633500Y-118338856D01*
X54633502Y-118338882D01*
X54636413Y-118363987D01*
X54636415Y-118363991D01*
X54681793Y-118466764D01*
X54681794Y-118466765D01*
X54761235Y-118546206D01*
X54864009Y-118591585D01*
X54889135Y-118594500D01*
X57378864Y-118594499D01*
X57378879Y-118594497D01*
X57378882Y-118594497D01*
X57403987Y-118591586D01*
X57403988Y-118591585D01*
X57403991Y-118591585D01*
X57506765Y-118546206D01*
X57586206Y-118466765D01*
X57631585Y-118363991D01*
X57634500Y-118338865D01*
X57634499Y-115849136D01*
X57632463Y-115831577D01*
X57631586Y-115824012D01*
X57631585Y-115824010D01*
X57631585Y-115824009D01*
X57586206Y-115721235D01*
X57506765Y-115641794D01*
X57493643Y-115636000D01*
X57403992Y-115596415D01*
X57378865Y-115593500D01*
X54889143Y-115593500D01*
X54889117Y-115593502D01*
X54864012Y-115596413D01*
X54864008Y-115596415D01*
X54761235Y-115641793D01*
X54681794Y-115721234D01*
X54636415Y-115824006D01*
X54636415Y-115824008D01*
X54633500Y-115849131D01*
X54633500Y-118338856D01*
X51413221Y-118338856D01*
X57009631Y-112742447D01*
X57168632Y-112583446D01*
X69552200Y-112583446D01*
X69582961Y-112738089D01*
X69582964Y-112738101D01*
X69643302Y-112883772D01*
X69643309Y-112883785D01*
X69730910Y-113014888D01*
X69730913Y-113014892D01*
X69842407Y-113126386D01*
X69842411Y-113126389D01*
X69973514Y-113213990D01*
X69973527Y-113213997D01*
X70043695Y-113243061D01*
X70119203Y-113274337D01*
X70273853Y-113305099D01*
X70273856Y-113305100D01*
X70273858Y-113305100D01*
X94298244Y-113305100D01*
X94298245Y-113305099D01*
X94452897Y-113274337D01*
X94598579Y-113213994D01*
X94729689Y-113126389D01*
X103872789Y-103983289D01*
X103891216Y-103955711D01*
X103960394Y-103852179D01*
X104020737Y-103706497D01*
X104051500Y-103551842D01*
X104051500Y-102318207D01*
X104060939Y-102270755D01*
X104109918Y-102152507D01*
X104116894Y-102135666D01*
X104151499Y-101961695D01*
X104890500Y-101961695D01*
X104925103Y-102135658D01*
X104925106Y-102135667D01*
X104992983Y-102299540D01*
X104992990Y-102299553D01*
X105091535Y-102447034D01*
X105091538Y-102447038D01*
X105216961Y-102572461D01*
X105216965Y-102572464D01*
X105364446Y-102671009D01*
X105364459Y-102671016D01*
X105487363Y-102721923D01*
X105528334Y-102738894D01*
X105528336Y-102738894D01*
X105528341Y-102738896D01*
X105702304Y-102773499D01*
X105702307Y-102773500D01*
X105702309Y-102773500D01*
X105879693Y-102773500D01*
X105879694Y-102773499D01*
X105937682Y-102761964D01*
X106053658Y-102738896D01*
X106053661Y-102738894D01*
X106053666Y-102738894D01*
X106193535Y-102680958D01*
X106217540Y-102671016D01*
X106217540Y-102671015D01*
X106217547Y-102671013D01*
X106365035Y-102572464D01*
X106490464Y-102447035D01*
X106589013Y-102299547D01*
X106656894Y-102135666D01*
X106659738Y-102121371D01*
X106690767Y-101965375D01*
X106691499Y-101961695D01*
X107430500Y-101961695D01*
X107465103Y-102135658D01*
X107465106Y-102135667D01*
X107532983Y-102299540D01*
X107532990Y-102299553D01*
X107631535Y-102447034D01*
X107631538Y-102447038D01*
X107756961Y-102572461D01*
X107756965Y-102572464D01*
X107904446Y-102671009D01*
X107904459Y-102671016D01*
X108027363Y-102721923D01*
X108068334Y-102738894D01*
X108068336Y-102738894D01*
X108068341Y-102738896D01*
X108242304Y-102773499D01*
X108242307Y-102773500D01*
X108242309Y-102773500D01*
X108419693Y-102773500D01*
X108419694Y-102773499D01*
X108477682Y-102761964D01*
X108593658Y-102738896D01*
X108593661Y-102738894D01*
X108593666Y-102738894D01*
X108733535Y-102680958D01*
X108757540Y-102671016D01*
X108757540Y-102671015D01*
X108757547Y-102671013D01*
X108905035Y-102572464D01*
X109030464Y-102447035D01*
X109129013Y-102299547D01*
X109196894Y-102135666D01*
X109199738Y-102121371D01*
X109230767Y-101965375D01*
X109967780Y-101965375D01*
X110002383Y-102139338D01*
X110002386Y-102139347D01*
X110070263Y-102303220D01*
X110070270Y-102303233D01*
X110168815Y-102450714D01*
X110168818Y-102450718D01*
X110294241Y-102576141D01*
X110294245Y-102576144D01*
X110441726Y-102674689D01*
X110441739Y-102674696D01*
X110510710Y-102703264D01*
X110605614Y-102742574D01*
X110605616Y-102742574D01*
X110605621Y-102742576D01*
X110779584Y-102777179D01*
X110779587Y-102777180D01*
X110779589Y-102777180D01*
X110956973Y-102777180D01*
X110956974Y-102777179D01*
X111025232Y-102763602D01*
X111130938Y-102742576D01*
X111130941Y-102742574D01*
X111130946Y-102742574D01*
X111294827Y-102674693D01*
X111442315Y-102576144D01*
X111567744Y-102450715D01*
X111666293Y-102303227D01*
X111734174Y-102139346D01*
X111734906Y-102135670D01*
X111768779Y-101965375D01*
X111768780Y-101965373D01*
X111768780Y-100987986D01*
X111768779Y-100987984D01*
X111734176Y-100814021D01*
X111734173Y-100814012D01*
X111732652Y-100810341D01*
X111678239Y-100678973D01*
X111668800Y-100631521D01*
X111668800Y-98821838D01*
X111678239Y-98774385D01*
X111690690Y-98744326D01*
X111734174Y-98639346D01*
X111768780Y-98465371D01*
X111768780Y-97487989D01*
X111768780Y-97487986D01*
X111768779Y-97487984D01*
X111734176Y-97314021D01*
X111734173Y-97314012D01*
X111732652Y-97310341D01*
X111717203Y-97273043D01*
X111666296Y-97150139D01*
X111666289Y-97150126D01*
X111567744Y-97002645D01*
X111567741Y-97002641D01*
X111442318Y-96877218D01*
X111442314Y-96877215D01*
X111294833Y-96778670D01*
X111294820Y-96778663D01*
X111130947Y-96710786D01*
X111130938Y-96710783D01*
X110956974Y-96676180D01*
X110956971Y-96676180D01*
X110779589Y-96676180D01*
X110779586Y-96676180D01*
X110605621Y-96710783D01*
X110605612Y-96710786D01*
X110441739Y-96778663D01*
X110441726Y-96778670D01*
X110294245Y-96877215D01*
X110294241Y-96877218D01*
X110168818Y-97002641D01*
X110168815Y-97002645D01*
X110070270Y-97150126D01*
X110070263Y-97150139D01*
X110002386Y-97314012D01*
X110002383Y-97314021D01*
X109967780Y-97487984D01*
X109967780Y-98465375D01*
X110002383Y-98639338D01*
X110002386Y-98639346D01*
X110058320Y-98774385D01*
X110058361Y-98774482D01*
X110067800Y-98821934D01*
X110067800Y-100631424D01*
X110058361Y-100678876D01*
X110002386Y-100814012D01*
X110002383Y-100814021D01*
X109967780Y-100987984D01*
X109967780Y-101965375D01*
X109230767Y-101965375D01*
X109231500Y-101961691D01*
X109231500Y-100984309D01*
X109231500Y-100984306D01*
X109231499Y-100984304D01*
X109196896Y-100810341D01*
X109196893Y-100810332D01*
X109187080Y-100786642D01*
X109140939Y-100675245D01*
X109131500Y-100627793D01*
X109131500Y-98818207D01*
X109140939Y-98770755D01*
X109171075Y-98698000D01*
X109196894Y-98635666D01*
X109231500Y-98461691D01*
X109231500Y-97484309D01*
X109231500Y-97484306D01*
X109231499Y-97484304D01*
X109196896Y-97310341D01*
X109196893Y-97310332D01*
X109129016Y-97146459D01*
X109129009Y-97146446D01*
X109030464Y-96998965D01*
X109030461Y-96998961D01*
X108905038Y-96873538D01*
X108905034Y-96873535D01*
X108757553Y-96774990D01*
X108757540Y-96774983D01*
X108593667Y-96707106D01*
X108593658Y-96707103D01*
X108419694Y-96672500D01*
X108419691Y-96672500D01*
X108242309Y-96672500D01*
X108242306Y-96672500D01*
X108068341Y-96707103D01*
X108068332Y-96707106D01*
X107904459Y-96774983D01*
X107904446Y-96774990D01*
X107756965Y-96873535D01*
X107756961Y-96873538D01*
X107631538Y-96998961D01*
X107631535Y-96998965D01*
X107532990Y-97146446D01*
X107532983Y-97146459D01*
X107465106Y-97310332D01*
X107465103Y-97310341D01*
X107430500Y-97484304D01*
X107430500Y-98461695D01*
X107465104Y-98635658D01*
X107465107Y-98635670D01*
X107521061Y-98770755D01*
X107530500Y-98818207D01*
X107530500Y-100627793D01*
X107521061Y-100675245D01*
X107465106Y-100810332D01*
X107465103Y-100810341D01*
X107430500Y-100984304D01*
X107430500Y-101961695D01*
X106691499Y-101961695D01*
X106691500Y-101961691D01*
X106691500Y-100984309D01*
X106691500Y-100984306D01*
X106691499Y-100984304D01*
X106656896Y-100810341D01*
X106656893Y-100810332D01*
X106647080Y-100786642D01*
X106600939Y-100675245D01*
X106591500Y-100627793D01*
X106591500Y-98818207D01*
X106600939Y-98770755D01*
X106631075Y-98698000D01*
X106656894Y-98635666D01*
X106691500Y-98461691D01*
X106691500Y-97484309D01*
X106691500Y-97484306D01*
X106691499Y-97484304D01*
X106656896Y-97310341D01*
X106656893Y-97310332D01*
X106589016Y-97146459D01*
X106589009Y-97146446D01*
X106490464Y-96998965D01*
X106490461Y-96998961D01*
X106365038Y-96873538D01*
X106365034Y-96873535D01*
X106217553Y-96774990D01*
X106217540Y-96774983D01*
X106053667Y-96707106D01*
X106053658Y-96707103D01*
X105879694Y-96672500D01*
X105879691Y-96672500D01*
X105702309Y-96672500D01*
X105702306Y-96672500D01*
X105528341Y-96707103D01*
X105528332Y-96707106D01*
X105364459Y-96774983D01*
X105364446Y-96774990D01*
X105216965Y-96873535D01*
X105216961Y-96873538D01*
X105091538Y-96998961D01*
X105091535Y-96998965D01*
X104992990Y-97146446D01*
X104992983Y-97146459D01*
X104925106Y-97310332D01*
X104925103Y-97310341D01*
X104890500Y-97484304D01*
X104890500Y-98461695D01*
X104925104Y-98635658D01*
X104925107Y-98635670D01*
X104981061Y-98770755D01*
X104990500Y-98818207D01*
X104990500Y-100627793D01*
X104981061Y-100675245D01*
X104925106Y-100810332D01*
X104925103Y-100810341D01*
X104890500Y-100984304D01*
X104890500Y-101961695D01*
X104151499Y-101961695D01*
X104151500Y-101961691D01*
X104151500Y-100984309D01*
X104151500Y-100984306D01*
X104151499Y-100984304D01*
X104116896Y-100810341D01*
X104116893Y-100810332D01*
X104107080Y-100786642D01*
X104060939Y-100675245D01*
X104051500Y-100627793D01*
X104051500Y-98818207D01*
X104060939Y-98770755D01*
X104091075Y-98698000D01*
X104116894Y-98635666D01*
X104151500Y-98461691D01*
X104151500Y-97484309D01*
X104151500Y-97484306D01*
X104151499Y-97484304D01*
X104116896Y-97310341D01*
X104116893Y-97310332D01*
X104049016Y-97146459D01*
X104049009Y-97146446D01*
X103950464Y-96998965D01*
X103950461Y-96998961D01*
X103825038Y-96873538D01*
X103825034Y-96873535D01*
X103677553Y-96774990D01*
X103677540Y-96774983D01*
X103513667Y-96707106D01*
X103513658Y-96707103D01*
X103339694Y-96672500D01*
X103339691Y-96672500D01*
X103162309Y-96672500D01*
X103162306Y-96672500D01*
X102988341Y-96707103D01*
X102988332Y-96707106D01*
X102824459Y-96774983D01*
X102824446Y-96774990D01*
X102676965Y-96873535D01*
X102676961Y-96873538D01*
X102551538Y-96998961D01*
X102551535Y-96998965D01*
X102452990Y-97146446D01*
X102452983Y-97146459D01*
X102385106Y-97310332D01*
X102385103Y-97310341D01*
X102350500Y-97484304D01*
X102350500Y-98461695D01*
X102385104Y-98635658D01*
X102385107Y-98635670D01*
X102441061Y-98770755D01*
X102450500Y-98818207D01*
X102450500Y-100627793D01*
X102441061Y-100675245D01*
X102385106Y-100810332D01*
X102385103Y-100810341D01*
X102350500Y-100984304D01*
X102350500Y-101961695D01*
X102385104Y-102135658D01*
X102385107Y-102135670D01*
X102441061Y-102270755D01*
X102450500Y-102318207D01*
X102450500Y-103090060D01*
X102430815Y-103157099D01*
X102414181Y-103177741D01*
X93924141Y-111667781D01*
X93862818Y-111701266D01*
X93836460Y-111704100D01*
X70273855Y-111704100D01*
X70119210Y-111734861D01*
X70119198Y-111734864D01*
X69973527Y-111795202D01*
X69973514Y-111795209D01*
X69842411Y-111882810D01*
X69842407Y-111882813D01*
X69730913Y-111994307D01*
X69730910Y-111994311D01*
X69643309Y-112125414D01*
X69643302Y-112125427D01*
X69582964Y-112271098D01*
X69582961Y-112271110D01*
X69552200Y-112425753D01*
X69552200Y-112583446D01*
X57168632Y-112583446D01*
X65442259Y-104309819D01*
X65503582Y-104276334D01*
X65529940Y-104273500D01*
X98249844Y-104273500D01*
X98249845Y-104273499D01*
X98404497Y-104242737D01*
X98550179Y-104182394D01*
X98681289Y-104094789D01*
X98792789Y-103983289D01*
X98880394Y-103852179D01*
X98940737Y-103706497D01*
X98971500Y-103551842D01*
X98971500Y-102318207D01*
X98980939Y-102270755D01*
X99029918Y-102152507D01*
X99036894Y-102135666D01*
X99071499Y-101961695D01*
X99810500Y-101961695D01*
X99845103Y-102135658D01*
X99845106Y-102135667D01*
X99912983Y-102299540D01*
X99912990Y-102299553D01*
X100011535Y-102447034D01*
X100011538Y-102447038D01*
X100136961Y-102572461D01*
X100136965Y-102572464D01*
X100284446Y-102671009D01*
X100284459Y-102671016D01*
X100407363Y-102721923D01*
X100448334Y-102738894D01*
X100448336Y-102738894D01*
X100448341Y-102738896D01*
X100622304Y-102773499D01*
X100622307Y-102773500D01*
X100622309Y-102773500D01*
X100799693Y-102773500D01*
X100799694Y-102773499D01*
X100857682Y-102761964D01*
X100973658Y-102738896D01*
X100973661Y-102738894D01*
X100973666Y-102738894D01*
X101113535Y-102680958D01*
X101137540Y-102671016D01*
X101137540Y-102671015D01*
X101137547Y-102671013D01*
X101285035Y-102572464D01*
X101410464Y-102447035D01*
X101509013Y-102299547D01*
X101576894Y-102135666D01*
X101579738Y-102121371D01*
X101610767Y-101965375D01*
X101611500Y-101961691D01*
X101611500Y-100984309D01*
X101611500Y-100984306D01*
X101611499Y-100984304D01*
X101576896Y-100810341D01*
X101576893Y-100810332D01*
X101567080Y-100786642D01*
X101520939Y-100675245D01*
X101511500Y-100627793D01*
X101511500Y-98818207D01*
X101520939Y-98770755D01*
X101551075Y-98698000D01*
X101576894Y-98635666D01*
X101611500Y-98461691D01*
X101611500Y-97484309D01*
X101611500Y-97484306D01*
X101611499Y-97484304D01*
X101576896Y-97310341D01*
X101576893Y-97310332D01*
X101509016Y-97146459D01*
X101509009Y-97146446D01*
X101410464Y-96998965D01*
X101410461Y-96998961D01*
X101285038Y-96873538D01*
X101285034Y-96873535D01*
X101137553Y-96774990D01*
X101137540Y-96774983D01*
X100973667Y-96707106D01*
X100973658Y-96707103D01*
X100799694Y-96672500D01*
X100799691Y-96672500D01*
X100622309Y-96672500D01*
X100622306Y-96672500D01*
X100448341Y-96707103D01*
X100448332Y-96707106D01*
X100284459Y-96774983D01*
X100284446Y-96774990D01*
X100136965Y-96873535D01*
X100136961Y-96873538D01*
X100011538Y-96998961D01*
X100011535Y-96998965D01*
X99912990Y-97146446D01*
X99912983Y-97146459D01*
X99845106Y-97310332D01*
X99845103Y-97310341D01*
X99810500Y-97484304D01*
X99810500Y-98461695D01*
X99845104Y-98635658D01*
X99845107Y-98635670D01*
X99901061Y-98770755D01*
X99910500Y-98818207D01*
X99910500Y-100627793D01*
X99901061Y-100675245D01*
X99845106Y-100810332D01*
X99845103Y-100810341D01*
X99810500Y-100984304D01*
X99810500Y-101961695D01*
X99071499Y-101961695D01*
X99071500Y-101961691D01*
X99071500Y-100984309D01*
X99071500Y-100984306D01*
X99071499Y-100984304D01*
X99036896Y-100810341D01*
X99036893Y-100810332D01*
X99027080Y-100786642D01*
X98980939Y-100675245D01*
X98971500Y-100627793D01*
X98971500Y-98818207D01*
X98980939Y-98770755D01*
X99011075Y-98698000D01*
X99036894Y-98635666D01*
X99071500Y-98461691D01*
X99071500Y-97484309D01*
X99071500Y-97484306D01*
X99071499Y-97484304D01*
X99036896Y-97310341D01*
X99036893Y-97310332D01*
X98969016Y-97146459D01*
X98969009Y-97146446D01*
X98870464Y-96998965D01*
X98870461Y-96998961D01*
X98745038Y-96873538D01*
X98745034Y-96873535D01*
X98597553Y-96774990D01*
X98597540Y-96774983D01*
X98433667Y-96707106D01*
X98433658Y-96707103D01*
X98259694Y-96672500D01*
X98259691Y-96672500D01*
X98082309Y-96672500D01*
X98082306Y-96672500D01*
X97908341Y-96707103D01*
X97908332Y-96707106D01*
X97744459Y-96774983D01*
X97744446Y-96774990D01*
X97596965Y-96873535D01*
X97596961Y-96873538D01*
X97471538Y-96998961D01*
X97471535Y-96998965D01*
X97372990Y-97146446D01*
X97372983Y-97146459D01*
X97305106Y-97310332D01*
X97305103Y-97310341D01*
X97270500Y-97484304D01*
X97270500Y-98461695D01*
X97305104Y-98635658D01*
X97305107Y-98635670D01*
X97361061Y-98770755D01*
X97370500Y-98818207D01*
X97370500Y-100627793D01*
X97361061Y-100675245D01*
X97305106Y-100810332D01*
X97305103Y-100810341D01*
X97270500Y-100984304D01*
X97270500Y-101961695D01*
X97305104Y-102135658D01*
X97305107Y-102135670D01*
X97361061Y-102270755D01*
X97370500Y-102318207D01*
X97370500Y-102548500D01*
X97350815Y-102615539D01*
X97298011Y-102661294D01*
X97246500Y-102672500D01*
X96404362Y-102672500D01*
X96337323Y-102652815D01*
X96291568Y-102600011D01*
X96281624Y-102530853D01*
X96310649Y-102467297D01*
X96316681Y-102460819D01*
X96330461Y-102447038D01*
X96330464Y-102447035D01*
X96429013Y-102299547D01*
X96496894Y-102135666D01*
X96499738Y-102121371D01*
X96530767Y-101965375D01*
X96531500Y-101961691D01*
X96531500Y-100984309D01*
X96531500Y-100984306D01*
X96531499Y-100984304D01*
X96496896Y-100810341D01*
X96496893Y-100810332D01*
X96487080Y-100786642D01*
X96440939Y-100675245D01*
X96431500Y-100627793D01*
X96431500Y-98818207D01*
X96440939Y-98770755D01*
X96471075Y-98698000D01*
X96496894Y-98635666D01*
X96531500Y-98461691D01*
X96531500Y-97484309D01*
X96531500Y-97484306D01*
X96531499Y-97484304D01*
X96496896Y-97310341D01*
X96496893Y-97310332D01*
X96429016Y-97146459D01*
X96429009Y-97146446D01*
X96330464Y-96998965D01*
X96330461Y-96998961D01*
X96205038Y-96873538D01*
X96205034Y-96873535D01*
X96057553Y-96774990D01*
X96057540Y-96774983D01*
X95893667Y-96707106D01*
X95893658Y-96707103D01*
X95719694Y-96672500D01*
X95719691Y-96672500D01*
X95542309Y-96672500D01*
X95542306Y-96672500D01*
X95368341Y-96707103D01*
X95368332Y-96707106D01*
X95204459Y-96774983D01*
X95204446Y-96774990D01*
X95056965Y-96873535D01*
X95056961Y-96873538D01*
X94931538Y-96998961D01*
X94931535Y-96998965D01*
X94832990Y-97146446D01*
X94832983Y-97146459D01*
X94765106Y-97310332D01*
X94765103Y-97310341D01*
X94730500Y-97484304D01*
X94730500Y-98461695D01*
X94765104Y-98635658D01*
X94765107Y-98635670D01*
X94821061Y-98770755D01*
X94830500Y-98818207D01*
X94830500Y-100627793D01*
X94821061Y-100675245D01*
X94765106Y-100810332D01*
X94765103Y-100810341D01*
X94730500Y-100984304D01*
X94730500Y-101961695D01*
X94765103Y-102135658D01*
X94765106Y-102135667D01*
X94832983Y-102299540D01*
X94832990Y-102299553D01*
X94931535Y-102447034D01*
X94931538Y-102447038D01*
X94945319Y-102460819D01*
X94978804Y-102522142D01*
X94973820Y-102591834D01*
X94931948Y-102647767D01*
X94866484Y-102672184D01*
X94857638Y-102672500D01*
X93864362Y-102672500D01*
X93797323Y-102652815D01*
X93751568Y-102600011D01*
X93741624Y-102530853D01*
X93770649Y-102467297D01*
X93776681Y-102460819D01*
X93790461Y-102447038D01*
X93790464Y-102447035D01*
X93889013Y-102299547D01*
X93956894Y-102135666D01*
X93959738Y-102121371D01*
X93990767Y-101965375D01*
X93991500Y-101961691D01*
X93991500Y-100984309D01*
X93991500Y-100984306D01*
X93991499Y-100984304D01*
X93956896Y-100810341D01*
X93956893Y-100810332D01*
X93947080Y-100786642D01*
X93900939Y-100675245D01*
X93891500Y-100627793D01*
X93891500Y-98818207D01*
X93900939Y-98770755D01*
X93931075Y-98698000D01*
X93956894Y-98635666D01*
X93991500Y-98461691D01*
X93991500Y-97484309D01*
X93991500Y-97484306D01*
X93991499Y-97484304D01*
X93956896Y-97310341D01*
X93956893Y-97310332D01*
X93889016Y-97146459D01*
X93889009Y-97146446D01*
X93790464Y-96998965D01*
X93790461Y-96998961D01*
X93665038Y-96873538D01*
X93665034Y-96873535D01*
X93517553Y-96774990D01*
X93517540Y-96774983D01*
X93353667Y-96707106D01*
X93353658Y-96707103D01*
X93179694Y-96672500D01*
X93179691Y-96672500D01*
X93002309Y-96672500D01*
X93002306Y-96672500D01*
X92828341Y-96707103D01*
X92828332Y-96707106D01*
X92664459Y-96774983D01*
X92664446Y-96774990D01*
X92516965Y-96873535D01*
X92516961Y-96873538D01*
X92391538Y-96998961D01*
X92391535Y-96998965D01*
X92292990Y-97146446D01*
X92292983Y-97146459D01*
X92225106Y-97310332D01*
X92225103Y-97310341D01*
X92190500Y-97484304D01*
X92190500Y-98461695D01*
X92225104Y-98635658D01*
X92225107Y-98635670D01*
X92281061Y-98770755D01*
X92290500Y-98818207D01*
X92290500Y-100627793D01*
X92281061Y-100675245D01*
X92225106Y-100810332D01*
X92225103Y-100810341D01*
X92190500Y-100984304D01*
X92190500Y-101961695D01*
X92225103Y-102135658D01*
X92225106Y-102135667D01*
X92292983Y-102299540D01*
X92292990Y-102299553D01*
X92391535Y-102447034D01*
X92391538Y-102447038D01*
X92405319Y-102460819D01*
X92438804Y-102522142D01*
X92433820Y-102591834D01*
X92391948Y-102647767D01*
X92326484Y-102672184D01*
X92317638Y-102672500D01*
X91324362Y-102672500D01*
X91257323Y-102652815D01*
X91211568Y-102600011D01*
X91201624Y-102530853D01*
X91230649Y-102467297D01*
X91236681Y-102460819D01*
X91250461Y-102447038D01*
X91250464Y-102447035D01*
X91349013Y-102299547D01*
X91416894Y-102135666D01*
X91419738Y-102121371D01*
X91450767Y-101965375D01*
X91451500Y-101961691D01*
X91451500Y-100984309D01*
X91451500Y-100984306D01*
X91451499Y-100984304D01*
X91416896Y-100810341D01*
X91416893Y-100810332D01*
X91407080Y-100786642D01*
X91360939Y-100675245D01*
X91351500Y-100627793D01*
X91351500Y-98818207D01*
X91360939Y-98770755D01*
X91391075Y-98698000D01*
X91416894Y-98635666D01*
X91451500Y-98461691D01*
X91451500Y-97484309D01*
X91451500Y-97484306D01*
X91451499Y-97484304D01*
X91416896Y-97310341D01*
X91416893Y-97310332D01*
X91349016Y-97146459D01*
X91349009Y-97146446D01*
X91250464Y-96998965D01*
X91250461Y-96998961D01*
X91125038Y-96873538D01*
X91125034Y-96873535D01*
X90977553Y-96774990D01*
X90977540Y-96774983D01*
X90813667Y-96707106D01*
X90813658Y-96707103D01*
X90639694Y-96672500D01*
X90639691Y-96672500D01*
X90462309Y-96672500D01*
X90462306Y-96672500D01*
X90288341Y-96707103D01*
X90288332Y-96707106D01*
X90124459Y-96774983D01*
X90124446Y-96774990D01*
X89976965Y-96873535D01*
X89976961Y-96873538D01*
X89851538Y-96998961D01*
X89851535Y-96998965D01*
X89752990Y-97146446D01*
X89752983Y-97146459D01*
X89685106Y-97310332D01*
X89685103Y-97310341D01*
X89650500Y-97484304D01*
X89650500Y-98461695D01*
X89685104Y-98635658D01*
X89685107Y-98635670D01*
X89741061Y-98770755D01*
X89750500Y-98818207D01*
X89750500Y-100627793D01*
X89741061Y-100675245D01*
X89685106Y-100810332D01*
X89685103Y-100810341D01*
X89650500Y-100984304D01*
X89650500Y-101961695D01*
X89685103Y-102135658D01*
X89685106Y-102135667D01*
X89752983Y-102299540D01*
X89752990Y-102299553D01*
X89851535Y-102447034D01*
X89851538Y-102447038D01*
X89865319Y-102460819D01*
X89898804Y-102522142D01*
X89893820Y-102591834D01*
X89851948Y-102647767D01*
X89786484Y-102672184D01*
X89777638Y-102672500D01*
X88784362Y-102672500D01*
X88717323Y-102652815D01*
X88671568Y-102600011D01*
X88661624Y-102530853D01*
X88690649Y-102467297D01*
X88696681Y-102460819D01*
X88710461Y-102447038D01*
X88710464Y-102447035D01*
X88809013Y-102299547D01*
X88876894Y-102135666D01*
X88879738Y-102121371D01*
X88910767Y-101965375D01*
X88911500Y-101961691D01*
X88911500Y-100984309D01*
X88911500Y-100984306D01*
X88911499Y-100984304D01*
X88876896Y-100810341D01*
X88876893Y-100810332D01*
X88867080Y-100786642D01*
X88820939Y-100675245D01*
X88811500Y-100627793D01*
X88811500Y-98818207D01*
X88820939Y-98770755D01*
X88851075Y-98698000D01*
X88876894Y-98635666D01*
X88911500Y-98461691D01*
X88911500Y-97484309D01*
X88911500Y-97484306D01*
X88911499Y-97484304D01*
X88876896Y-97310341D01*
X88876893Y-97310332D01*
X88820939Y-97175245D01*
X88811500Y-97127793D01*
X88811500Y-95894155D01*
X88811499Y-95894153D01*
X88802771Y-95850275D01*
X88780737Y-95739503D01*
X88780735Y-95739498D01*
X88720397Y-95593827D01*
X88720390Y-95593814D01*
X88632790Y-95462712D01*
X88631964Y-95461886D01*
X88521289Y-95351211D01*
X81183719Y-88013641D01*
X105752460Y-88013641D01*
X105777406Y-88203115D01*
X105782412Y-88241138D01*
X105782413Y-88241140D01*
X105841802Y-88462787D01*
X105929610Y-88674776D01*
X105929617Y-88674790D01*
X106044352Y-88873517D01*
X106184041Y-89055561D01*
X106184049Y-89055570D01*
X106346290Y-89217811D01*
X106346298Y-89217818D01*
X106528342Y-89357507D01*
X106528345Y-89357508D01*
X106528348Y-89357511D01*
X106727072Y-89472244D01*
X106727077Y-89472246D01*
X106727083Y-89472249D01*
X106818440Y-89510090D01*
X106939073Y-89560058D01*
X107160722Y-89619448D01*
X107388226Y-89649400D01*
X107388233Y-89649400D01*
X107617687Y-89649400D01*
X107617694Y-89649400D01*
X107845198Y-89619448D01*
X108066847Y-89560058D01*
X108278848Y-89472244D01*
X108477572Y-89357511D01*
X108659621Y-89217819D01*
X108659625Y-89217814D01*
X108659630Y-89217811D01*
X108821871Y-89055570D01*
X108821874Y-89055565D01*
X108821879Y-89055561D01*
X108961571Y-88873512D01*
X109076304Y-88674788D01*
X109164118Y-88462787D01*
X109223508Y-88241138D01*
X109253460Y-88013634D01*
X109253460Y-87784166D01*
X109223508Y-87556662D01*
X109164118Y-87335013D01*
X109114150Y-87214380D01*
X109076309Y-87123023D01*
X109076306Y-87123017D01*
X109076304Y-87123012D01*
X108961571Y-86924288D01*
X108961568Y-86924285D01*
X108961567Y-86924282D01*
X108821878Y-86742238D01*
X108821871Y-86742230D01*
X108659630Y-86579989D01*
X108659621Y-86579981D01*
X108477577Y-86440292D01*
X108458136Y-86429068D01*
X108278848Y-86325556D01*
X108278836Y-86325550D01*
X108066847Y-86237742D01*
X107845198Y-86178352D01*
X107807175Y-86173346D01*
X107617701Y-86148400D01*
X107617694Y-86148400D01*
X107388226Y-86148400D01*
X107388218Y-86148400D01*
X107171675Y-86176909D01*
X107160722Y-86178352D01*
X107067036Y-86203454D01*
X106939072Y-86237742D01*
X106727083Y-86325550D01*
X106727069Y-86325557D01*
X106528342Y-86440292D01*
X106346298Y-86579981D01*
X106184041Y-86742238D01*
X106044352Y-86924282D01*
X105929617Y-87123009D01*
X105929610Y-87123023D01*
X105841802Y-87335012D01*
X105829198Y-87382052D01*
X105784708Y-87548095D01*
X105782413Y-87556659D01*
X105782411Y-87556670D01*
X105752460Y-87784158D01*
X105752460Y-88013641D01*
X81183719Y-88013641D01*
X75815578Y-82645500D01*
X58450792Y-65280713D01*
X58450788Y-65280710D01*
X58319685Y-65193109D01*
X58319672Y-65193102D01*
X58174001Y-65132764D01*
X58173989Y-65132761D01*
X58019345Y-65102000D01*
X58019342Y-65102000D01*
X40723384Y-65102000D01*
X40656345Y-65082315D01*
X40644727Y-65073859D01*
X40572750Y-65014789D01*
X40388169Y-64916128D01*
X40287640Y-64885633D01*
X40187884Y-64855372D01*
X39979600Y-64834859D01*
X39771315Y-64855372D01*
X39571028Y-64916129D01*
X39386446Y-65014791D01*
X39224663Y-65147563D01*
X39091891Y-65309346D01*
X38993229Y-65493928D01*
X38932472Y-65694215D01*
X38911959Y-65902500D01*
X38932472Y-66110784D01*
X38993229Y-66311071D01*
X39091891Y-66495653D01*
X39224663Y-66657436D01*
X39324438Y-66739319D01*
X39386450Y-66790211D01*
X39571031Y-66888872D01*
X39771314Y-66949627D01*
X39979600Y-66970141D01*
X40187886Y-66949627D01*
X40388169Y-66888872D01*
X40572750Y-66790211D01*
X40644720Y-66731146D01*
X40709028Y-66703834D01*
X40723384Y-66703000D01*
X57557560Y-66703000D01*
X57624599Y-66722685D01*
X57645241Y-66739319D01*
X87174181Y-96268259D01*
X87207666Y-96329582D01*
X87210500Y-96355940D01*
X87210500Y-97127793D01*
X87201061Y-97175245D01*
X87145106Y-97310332D01*
X87145103Y-97310341D01*
X87110500Y-97484304D01*
X87110500Y-98461695D01*
X87145104Y-98635658D01*
X87145107Y-98635670D01*
X87201061Y-98770755D01*
X87210500Y-98818207D01*
X87210500Y-100627793D01*
X87201061Y-100675245D01*
X87145106Y-100810332D01*
X87145103Y-100810341D01*
X87110500Y-100984304D01*
X87110500Y-101961695D01*
X87145103Y-102135658D01*
X87145106Y-102135667D01*
X87212983Y-102299540D01*
X87212990Y-102299553D01*
X87311535Y-102447034D01*
X87311538Y-102447038D01*
X87325319Y-102460819D01*
X87358804Y-102522142D01*
X87353820Y-102591834D01*
X87311948Y-102647767D01*
X87246484Y-102672184D01*
X87237638Y-102672500D01*
X86244362Y-102672500D01*
X86177323Y-102652815D01*
X86131568Y-102600011D01*
X86121624Y-102530853D01*
X86150649Y-102467297D01*
X86156681Y-102460819D01*
X86170461Y-102447038D01*
X86170464Y-102447035D01*
X86269013Y-102299547D01*
X86336894Y-102135666D01*
X86339738Y-102121371D01*
X86370767Y-101965375D01*
X86371500Y-101961691D01*
X86371500Y-100984309D01*
X86371500Y-100984306D01*
X86371499Y-100984304D01*
X86336896Y-100810341D01*
X86336893Y-100810332D01*
X86327080Y-100786642D01*
X86280939Y-100675245D01*
X86271500Y-100627793D01*
X86271500Y-98818207D01*
X86280939Y-98770755D01*
X86311075Y-98698000D01*
X86336894Y-98635666D01*
X86371500Y-98461691D01*
X86371500Y-97484309D01*
X86371500Y-97484306D01*
X86371499Y-97484304D01*
X86336896Y-97310341D01*
X86336893Y-97310332D01*
X86269016Y-97146459D01*
X86269009Y-97146446D01*
X86170464Y-96998965D01*
X86170461Y-96998961D01*
X86045038Y-96873538D01*
X86045034Y-96873535D01*
X85897553Y-96774990D01*
X85897540Y-96774983D01*
X85733667Y-96707106D01*
X85733658Y-96707103D01*
X85559694Y-96672500D01*
X85559691Y-96672500D01*
X85382309Y-96672500D01*
X85382306Y-96672500D01*
X85208341Y-96707103D01*
X85208332Y-96707106D01*
X85044459Y-96774983D01*
X85044446Y-96774990D01*
X84896965Y-96873535D01*
X84896961Y-96873538D01*
X84771538Y-96998961D01*
X84771535Y-96998965D01*
X84672990Y-97146446D01*
X84672983Y-97146459D01*
X84605106Y-97310332D01*
X84605103Y-97310341D01*
X84570500Y-97484304D01*
X84570500Y-98461695D01*
X84605104Y-98635658D01*
X84605107Y-98635670D01*
X84661061Y-98770755D01*
X84670500Y-98818207D01*
X84670500Y-100627793D01*
X84661061Y-100675245D01*
X84605106Y-100810332D01*
X84605103Y-100810341D01*
X84570500Y-100984304D01*
X84570500Y-101961695D01*
X84605103Y-102135658D01*
X84605106Y-102135667D01*
X84672983Y-102299540D01*
X84672990Y-102299553D01*
X84771535Y-102447034D01*
X84771538Y-102447038D01*
X84785319Y-102460819D01*
X84818804Y-102522142D01*
X84813820Y-102591834D01*
X84771948Y-102647767D01*
X84706484Y-102672184D01*
X84697638Y-102672500D01*
X83953167Y-102672500D01*
X83886128Y-102652815D01*
X83840373Y-102600011D01*
X83830429Y-102530853D01*
X83852849Y-102475614D01*
X83871803Y-102449525D01*
X83950408Y-102295257D01*
X84003914Y-102130584D01*
X84031000Y-101959571D01*
X84031000Y-101723000D01*
X83246686Y-101723000D01*
X83251080Y-101718606D01*
X83303741Y-101627394D01*
X83331000Y-101525661D01*
X83331000Y-101420339D01*
X83303741Y-101318606D01*
X83251080Y-101227394D01*
X83246686Y-101223000D01*
X84031000Y-101223000D01*
X84031000Y-100986428D01*
X84003914Y-100815415D01*
X83950408Y-100650742D01*
X83871804Y-100496475D01*
X83770032Y-100356397D01*
X83647602Y-100233967D01*
X83507524Y-100132195D01*
X83353257Y-100053591D01*
X83188589Y-100000087D01*
X83188581Y-100000085D01*
X83181000Y-99998884D01*
X83181000Y-101157314D01*
X83176606Y-101152920D01*
X83085394Y-101100259D01*
X82983661Y-101073000D01*
X82878339Y-101073000D01*
X82776606Y-101100259D01*
X82685394Y-101152920D01*
X82681000Y-101157314D01*
X82681000Y-99998884D01*
X82680999Y-99998884D01*
X82673418Y-100000085D01*
X82673410Y-100000087D01*
X82508742Y-100053591D01*
X82354475Y-100132195D01*
X82214397Y-100233967D01*
X82091967Y-100356397D01*
X81990195Y-100496475D01*
X81911591Y-100650742D01*
X81858085Y-100815415D01*
X81831000Y-100986428D01*
X81831000Y-101223000D01*
X82615314Y-101223000D01*
X82610920Y-101227394D01*
X82558259Y-101318606D01*
X82531000Y-101420339D01*
X82531000Y-101525661D01*
X82558259Y-101627394D01*
X82610920Y-101718606D01*
X82615314Y-101723000D01*
X81831000Y-101723000D01*
X81831000Y-101959571D01*
X81858085Y-102130584D01*
X81911591Y-102295257D01*
X81990196Y-102449525D01*
X82009151Y-102475614D01*
X82032631Y-102541420D01*
X82016806Y-102609474D01*
X81966700Y-102658169D01*
X81908833Y-102672500D01*
X81164362Y-102672500D01*
X81097323Y-102652815D01*
X81051568Y-102600011D01*
X81041624Y-102530853D01*
X81070649Y-102467297D01*
X81076681Y-102460819D01*
X81090461Y-102447038D01*
X81090464Y-102447035D01*
X81189013Y-102299547D01*
X81256894Y-102135666D01*
X81259738Y-102121371D01*
X81290767Y-101965375D01*
X81291500Y-101961691D01*
X81291500Y-100984309D01*
X81291500Y-100984306D01*
X81291499Y-100984304D01*
X81256896Y-100810341D01*
X81256893Y-100810332D01*
X81247080Y-100786642D01*
X81200939Y-100675245D01*
X81191500Y-100627793D01*
X81191500Y-98818207D01*
X81200939Y-98770755D01*
X81231075Y-98698000D01*
X81256894Y-98635666D01*
X81291500Y-98461691D01*
X81291500Y-98459571D01*
X81831000Y-98459571D01*
X81858085Y-98630584D01*
X81911591Y-98795257D01*
X81990195Y-98949524D01*
X82091967Y-99089602D01*
X82214397Y-99212032D01*
X82354475Y-99313804D01*
X82508744Y-99392408D01*
X82673415Y-99445914D01*
X82673414Y-99445914D01*
X82680999Y-99447115D01*
X82681000Y-99447114D01*
X82681000Y-98288686D01*
X82685394Y-98293080D01*
X82776606Y-98345741D01*
X82878339Y-98373000D01*
X82983661Y-98373000D01*
X83085394Y-98345741D01*
X83176606Y-98293080D01*
X83181000Y-98288686D01*
X83181000Y-99447115D01*
X83188584Y-99445914D01*
X83353255Y-99392408D01*
X83507524Y-99313804D01*
X83647602Y-99212032D01*
X83770032Y-99089602D01*
X83871804Y-98949524D01*
X83950408Y-98795257D01*
X84003914Y-98630584D01*
X84031000Y-98459571D01*
X84031000Y-98223000D01*
X83246686Y-98223000D01*
X83251080Y-98218606D01*
X83303741Y-98127394D01*
X83331000Y-98025661D01*
X83331000Y-97920339D01*
X83303741Y-97818606D01*
X83251080Y-97727394D01*
X83246686Y-97723000D01*
X84031000Y-97723000D01*
X84031000Y-97486428D01*
X84003914Y-97315415D01*
X83950408Y-97150742D01*
X83871804Y-96996475D01*
X83770032Y-96856397D01*
X83647602Y-96733967D01*
X83507524Y-96632195D01*
X83353257Y-96553591D01*
X83188589Y-96500087D01*
X83188581Y-96500085D01*
X83181000Y-96498884D01*
X83181000Y-97657314D01*
X83176606Y-97652920D01*
X83085394Y-97600259D01*
X82983661Y-97573000D01*
X82878339Y-97573000D01*
X82776606Y-97600259D01*
X82685394Y-97652920D01*
X82681000Y-97657314D01*
X82681000Y-96498884D01*
X82680999Y-96498884D01*
X82673418Y-96500085D01*
X82673410Y-96500087D01*
X82508742Y-96553591D01*
X82354475Y-96632195D01*
X82214397Y-96733967D01*
X82091967Y-96856397D01*
X81990195Y-96996475D01*
X81911591Y-97150742D01*
X81858085Y-97315415D01*
X81831000Y-97486428D01*
X81831000Y-97723000D01*
X82615314Y-97723000D01*
X82610920Y-97727394D01*
X82558259Y-97818606D01*
X82531000Y-97920339D01*
X82531000Y-98025661D01*
X82558259Y-98127394D01*
X82610920Y-98218606D01*
X82615314Y-98223000D01*
X81831000Y-98223000D01*
X81831000Y-98459571D01*
X81291500Y-98459571D01*
X81291500Y-97484309D01*
X81291500Y-97484306D01*
X81291499Y-97484304D01*
X81256896Y-97310341D01*
X81256893Y-97310332D01*
X81189016Y-97146459D01*
X81189009Y-97146446D01*
X81090464Y-96998965D01*
X81090461Y-96998961D01*
X80965038Y-96873538D01*
X80965034Y-96873535D01*
X80817553Y-96774990D01*
X80817540Y-96774983D01*
X80653667Y-96707106D01*
X80653658Y-96707103D01*
X80479694Y-96672500D01*
X80479691Y-96672500D01*
X80302309Y-96672500D01*
X80302306Y-96672500D01*
X80128341Y-96707103D01*
X80128332Y-96707106D01*
X79964459Y-96774983D01*
X79964446Y-96774990D01*
X79816965Y-96873535D01*
X79816961Y-96873538D01*
X79691538Y-96998961D01*
X79691535Y-96998965D01*
X79592990Y-97146446D01*
X79592983Y-97146459D01*
X79525106Y-97310332D01*
X79525103Y-97310341D01*
X79490500Y-97484304D01*
X79490500Y-98461695D01*
X79525104Y-98635658D01*
X79525107Y-98635670D01*
X79581061Y-98770755D01*
X79590500Y-98818207D01*
X79590500Y-100627793D01*
X79581061Y-100675245D01*
X79525106Y-100810332D01*
X79525103Y-100810341D01*
X79490500Y-100984304D01*
X79490500Y-101961695D01*
X79525103Y-102135658D01*
X79525106Y-102135667D01*
X79592983Y-102299540D01*
X79592990Y-102299553D01*
X79691535Y-102447034D01*
X79691538Y-102447038D01*
X79705319Y-102460819D01*
X79738804Y-102522142D01*
X79733820Y-102591834D01*
X79691948Y-102647767D01*
X79626484Y-102672184D01*
X79617638Y-102672500D01*
X78624362Y-102672500D01*
X78557323Y-102652815D01*
X78511568Y-102600011D01*
X78501624Y-102530853D01*
X78530649Y-102467297D01*
X78536681Y-102460819D01*
X78550461Y-102447038D01*
X78550464Y-102447035D01*
X78649013Y-102299547D01*
X78716894Y-102135666D01*
X78719738Y-102121371D01*
X78750767Y-101965375D01*
X78751500Y-101961691D01*
X78751500Y-100984309D01*
X78751500Y-100984306D01*
X78751499Y-100984304D01*
X78716896Y-100810341D01*
X78716893Y-100810332D01*
X78707080Y-100786642D01*
X78660939Y-100675245D01*
X78651500Y-100627793D01*
X78651500Y-98818207D01*
X78660939Y-98770755D01*
X78691075Y-98698000D01*
X78716894Y-98635666D01*
X78751500Y-98461691D01*
X78751500Y-97484309D01*
X78751500Y-97484306D01*
X78751499Y-97484304D01*
X78716896Y-97310341D01*
X78716893Y-97310332D01*
X78649016Y-97146459D01*
X78649009Y-97146446D01*
X78550464Y-96998965D01*
X78550461Y-96998961D01*
X78425038Y-96873538D01*
X78425034Y-96873535D01*
X78277553Y-96774990D01*
X78277540Y-96774983D01*
X78113667Y-96707106D01*
X78113658Y-96707103D01*
X77939694Y-96672500D01*
X77939691Y-96672500D01*
X77762309Y-96672500D01*
X77762306Y-96672500D01*
X77588341Y-96707103D01*
X77588332Y-96707106D01*
X77424459Y-96774983D01*
X77424446Y-96774990D01*
X77276965Y-96873535D01*
X77276961Y-96873538D01*
X77151538Y-96998961D01*
X77151535Y-96998965D01*
X77052990Y-97146446D01*
X77052983Y-97146459D01*
X76985106Y-97310332D01*
X76985103Y-97310341D01*
X76950500Y-97484304D01*
X76950500Y-98461695D01*
X76985104Y-98635658D01*
X76985107Y-98635670D01*
X77041061Y-98770755D01*
X77050500Y-98818207D01*
X77050500Y-100627793D01*
X77041061Y-100675245D01*
X76985106Y-100810332D01*
X76985103Y-100810341D01*
X76950500Y-100984304D01*
X76950500Y-101961695D01*
X76985103Y-102135658D01*
X76985106Y-102135667D01*
X77052983Y-102299540D01*
X77052990Y-102299553D01*
X77151535Y-102447034D01*
X77151538Y-102447038D01*
X77165319Y-102460819D01*
X77198804Y-102522142D01*
X77193820Y-102591834D01*
X77151948Y-102647767D01*
X77086484Y-102672184D01*
X77077638Y-102672500D01*
X76084362Y-102672500D01*
X76017323Y-102652815D01*
X75971568Y-102600011D01*
X75961624Y-102530853D01*
X75990649Y-102467297D01*
X75996681Y-102460819D01*
X76010461Y-102447038D01*
X76010464Y-102447035D01*
X76109013Y-102299547D01*
X76176894Y-102135666D01*
X76179738Y-102121371D01*
X76210767Y-101965375D01*
X76211500Y-101961691D01*
X76211500Y-100984309D01*
X76211500Y-100984306D01*
X76211499Y-100984304D01*
X76176896Y-100810341D01*
X76176893Y-100810332D01*
X76167080Y-100786642D01*
X76120939Y-100675245D01*
X76111500Y-100627793D01*
X76111500Y-98818207D01*
X76120939Y-98770755D01*
X76151075Y-98698000D01*
X76176894Y-98635666D01*
X76211500Y-98461691D01*
X76211500Y-97484309D01*
X76211500Y-97484306D01*
X76211499Y-97484304D01*
X76176896Y-97310341D01*
X76176893Y-97310332D01*
X76109016Y-97146459D01*
X76109009Y-97146446D01*
X76010464Y-96998965D01*
X76010461Y-96998961D01*
X75885038Y-96873538D01*
X75885034Y-96873535D01*
X75737553Y-96774990D01*
X75737540Y-96774983D01*
X75573667Y-96707106D01*
X75573658Y-96707103D01*
X75399694Y-96672500D01*
X75399691Y-96672500D01*
X75222309Y-96672500D01*
X75222306Y-96672500D01*
X75048341Y-96707103D01*
X75048332Y-96707106D01*
X74884459Y-96774983D01*
X74884446Y-96774990D01*
X74736965Y-96873535D01*
X74736961Y-96873538D01*
X74611538Y-96998961D01*
X74611535Y-96998965D01*
X74512990Y-97146446D01*
X74512983Y-97146459D01*
X74445106Y-97310332D01*
X74445103Y-97310341D01*
X74410500Y-97484304D01*
X74410500Y-98461695D01*
X74445104Y-98635658D01*
X74445107Y-98635670D01*
X74501061Y-98770755D01*
X74510500Y-98818207D01*
X74510500Y-100627793D01*
X74501061Y-100675245D01*
X74445106Y-100810332D01*
X74445103Y-100810341D01*
X74410500Y-100984304D01*
X74410500Y-101961695D01*
X74445103Y-102135658D01*
X74445106Y-102135667D01*
X74512983Y-102299540D01*
X74512990Y-102299553D01*
X74611535Y-102447034D01*
X74611538Y-102447038D01*
X74625319Y-102460819D01*
X74658804Y-102522142D01*
X74653820Y-102591834D01*
X74611948Y-102647767D01*
X74546484Y-102672184D01*
X74537638Y-102672500D01*
X73544362Y-102672500D01*
X73477323Y-102652815D01*
X73431568Y-102600011D01*
X73421624Y-102530853D01*
X73450649Y-102467297D01*
X73456681Y-102460819D01*
X73470461Y-102447038D01*
X73470464Y-102447035D01*
X73569013Y-102299547D01*
X73636894Y-102135666D01*
X73639738Y-102121371D01*
X73670767Y-101965375D01*
X73671500Y-101961691D01*
X73671500Y-100984309D01*
X73671500Y-100984306D01*
X73671499Y-100984304D01*
X73636896Y-100810341D01*
X73636893Y-100810332D01*
X73627080Y-100786642D01*
X73580939Y-100675245D01*
X73571500Y-100627793D01*
X73571500Y-98818207D01*
X73580939Y-98770755D01*
X73611075Y-98698000D01*
X73636894Y-98635666D01*
X73671500Y-98461691D01*
X73671500Y-97484309D01*
X73671500Y-97484306D01*
X73671499Y-97484304D01*
X73636896Y-97310341D01*
X73636893Y-97310332D01*
X73569016Y-97146459D01*
X73569009Y-97146446D01*
X73470464Y-96998965D01*
X73470461Y-96998961D01*
X73345038Y-96873538D01*
X73345034Y-96873535D01*
X73197553Y-96774990D01*
X73197540Y-96774983D01*
X73033667Y-96707106D01*
X73033658Y-96707103D01*
X72859694Y-96672500D01*
X72859691Y-96672500D01*
X72682309Y-96672500D01*
X72682306Y-96672500D01*
X72508341Y-96707103D01*
X72508332Y-96707106D01*
X72344459Y-96774983D01*
X72344446Y-96774990D01*
X72196965Y-96873535D01*
X72196961Y-96873538D01*
X72071538Y-96998961D01*
X72071535Y-96998965D01*
X71972990Y-97146446D01*
X71972983Y-97146459D01*
X71905106Y-97310332D01*
X71905103Y-97310341D01*
X71870500Y-97484304D01*
X71870500Y-98461695D01*
X71905104Y-98635658D01*
X71905107Y-98635670D01*
X71961061Y-98770755D01*
X71970500Y-98818207D01*
X71970500Y-100627793D01*
X71961061Y-100675245D01*
X71905106Y-100810332D01*
X71905103Y-100810341D01*
X71870500Y-100984304D01*
X71870500Y-101961695D01*
X71905103Y-102135658D01*
X71905106Y-102135667D01*
X71972983Y-102299540D01*
X71972990Y-102299553D01*
X72071535Y-102447034D01*
X72071538Y-102447038D01*
X72085319Y-102460819D01*
X72118804Y-102522142D01*
X72113820Y-102591834D01*
X72071948Y-102647767D01*
X72006484Y-102672184D01*
X71997638Y-102672500D01*
X71004362Y-102672500D01*
X70937323Y-102652815D01*
X70891568Y-102600011D01*
X70881624Y-102530853D01*
X70910649Y-102467297D01*
X70916681Y-102460819D01*
X70930461Y-102447038D01*
X70930464Y-102447035D01*
X71029013Y-102299547D01*
X71096894Y-102135666D01*
X71099738Y-102121371D01*
X71130767Y-101965375D01*
X71131500Y-101961691D01*
X71131500Y-100984309D01*
X71131500Y-100984306D01*
X71131499Y-100984304D01*
X71096896Y-100810341D01*
X71096893Y-100810332D01*
X71087080Y-100786642D01*
X71040939Y-100675245D01*
X71031500Y-100627793D01*
X71031500Y-98818207D01*
X71040939Y-98770755D01*
X71071075Y-98698000D01*
X71096894Y-98635666D01*
X71131500Y-98461691D01*
X71131500Y-97484309D01*
X71131500Y-97484306D01*
X71131499Y-97484304D01*
X71096896Y-97310341D01*
X71096893Y-97310332D01*
X71040939Y-97175245D01*
X71031500Y-97127793D01*
X71031500Y-95894155D01*
X71031499Y-95894153D01*
X71022771Y-95850275D01*
X71000737Y-95739503D01*
X71000735Y-95739498D01*
X70940397Y-95593827D01*
X70940390Y-95593814D01*
X70852789Y-95462711D01*
X70852786Y-95462707D01*
X70741291Y-95351212D01*
X70741288Y-95351210D01*
X70610185Y-95263609D01*
X70610172Y-95263602D01*
X70464501Y-95203264D01*
X70464489Y-95203261D01*
X70309845Y-95172500D01*
X70309842Y-95172500D01*
X67893040Y-95172500D01*
X67826001Y-95152815D01*
X67805359Y-95136181D01*
X41071574Y-68402396D01*
X41038089Y-68341073D01*
X41035852Y-68326868D01*
X41026727Y-68234215D01*
X41026727Y-68234214D01*
X40965972Y-68033931D01*
X40867311Y-67849350D01*
X40867308Y-67849346D01*
X40734536Y-67687563D01*
X40572753Y-67554791D01*
X40572751Y-67554790D01*
X40572750Y-67554789D01*
X40388169Y-67456128D01*
X40288027Y-67425750D01*
X40187884Y-67395372D01*
X39979600Y-67374859D01*
X39771315Y-67395372D01*
X39571028Y-67456129D01*
X39386446Y-67554791D01*
X39224663Y-67687563D01*
X39091891Y-67849346D01*
X38993229Y-68033928D01*
X38932472Y-68234215D01*
X38911959Y-68442500D01*
X38932472Y-68650784D01*
X38932473Y-68650786D01*
X38993228Y-68851069D01*
X39089309Y-69030824D01*
X39091891Y-69035653D01*
X39224663Y-69197436D01*
X39386416Y-69330183D01*
X39386450Y-69330211D01*
X39571031Y-69428872D01*
X39771314Y-69489627D01*
X39863968Y-69498752D01*
X39928756Y-69524912D01*
X39939496Y-69534474D01*
X40112004Y-69706982D01*
X40145489Y-69768305D01*
X40140505Y-69837997D01*
X40098633Y-69893930D01*
X40033169Y-69918347D01*
X40012171Y-69918066D01*
X39979603Y-69914859D01*
X39979600Y-69914859D01*
X39771315Y-69935372D01*
X39571028Y-69996129D01*
X39386446Y-70094791D01*
X39224663Y-70227563D01*
X39091891Y-70389346D01*
X38993229Y-70573928D01*
X38932472Y-70774215D01*
X38911959Y-70982500D01*
X37724900Y-70982500D01*
X37724900Y-61978939D01*
X37744585Y-61911900D01*
X37761214Y-61891263D01*
X38554372Y-61098105D01*
X38615691Y-61064623D01*
X38685382Y-61069607D01*
X38741316Y-61111479D01*
X38761824Y-61153695D01*
X38789176Y-61255772D01*
X38789180Y-61255784D01*
X38882498Y-61455905D01*
X38882501Y-61455911D01*
X38927858Y-61520687D01*
X38927858Y-61520688D01*
X39598600Y-60849946D01*
X39598600Y-60872660D01*
G37*
%TD.AperFunction*%
%TA.AperFunction,Conductor*%
G36*
X119795146Y-59295185D02*
G01*
X119840901Y-59347989D01*
X119851282Y-59385217D01*
X119852415Y-59394992D01*
X119897793Y-59497764D01*
X119897794Y-59497765D01*
X119977235Y-59577206D01*
X120080009Y-59622585D01*
X120105135Y-59625500D01*
X120833758Y-59625499D01*
X120900795Y-59645183D01*
X120946550Y-59697987D01*
X120956494Y-59767146D01*
X120927469Y-59830702D01*
X120868691Y-59868476D01*
X120856542Y-59871388D01*
X120800116Y-59881935D01*
X120683802Y-59903679D01*
X120683800Y-59903679D01*
X120683798Y-59903680D01*
X120484982Y-59980701D01*
X120484980Y-59980702D01*
X120303696Y-60092949D01*
X120205862Y-60182137D01*
X120143058Y-60212754D01*
X120122324Y-60214500D01*
X119071154Y-60214500D01*
X118916509Y-60245261D01*
X118916497Y-60245264D01*
X118873832Y-60262936D01*
X118873833Y-60262937D01*
X118770823Y-60305604D01*
X118770814Y-60305609D01*
X118639712Y-60393209D01*
X118639710Y-60393212D01*
X116507241Y-62525681D01*
X116445918Y-62559166D01*
X116419560Y-62562000D01*
X40723384Y-62562000D01*
X40656345Y-62542315D01*
X40644727Y-62533859D01*
X40572750Y-62474789D01*
X40388169Y-62376128D01*
X40187886Y-62315373D01*
X40187885Y-62315372D01*
X40187879Y-62315371D01*
X40186823Y-62315161D01*
X40186321Y-62314898D01*
X40182057Y-62313605D01*
X40182302Y-62312795D01*
X40124915Y-62282768D01*
X40090348Y-62222049D01*
X40094096Y-62152280D01*
X40134969Y-62095612D01*
X40194463Y-62072211D01*
X40194252Y-62071014D01*
X40199586Y-62070073D01*
X40412870Y-62012924D01*
X40412884Y-62012919D01*
X40613007Y-61919600D01*
X40613017Y-61919594D01*
X40677788Y-61874241D01*
X40007048Y-61203500D01*
X40029760Y-61203500D01*
X40126661Y-61177536D01*
X40213540Y-61127376D01*
X40284476Y-61056440D01*
X40334636Y-60969561D01*
X40360600Y-60872660D01*
X40360600Y-60849947D01*
X41031341Y-61520688D01*
X41076694Y-61455917D01*
X41076700Y-61455907D01*
X41170019Y-61255784D01*
X41170024Y-61255770D01*
X41227173Y-61042486D01*
X41227175Y-61042476D01*
X41246421Y-60822500D01*
X41246421Y-60822499D01*
X41227175Y-60602523D01*
X41227173Y-60602513D01*
X41170024Y-60389229D01*
X41170020Y-60389220D01*
X41076696Y-60189086D01*
X41031341Y-60124311D01*
X41031340Y-60124310D01*
X40360600Y-60795051D01*
X40360600Y-60772340D01*
X40334636Y-60675439D01*
X40284476Y-60588560D01*
X40213540Y-60517624D01*
X40126661Y-60467464D01*
X40029760Y-60441500D01*
X40007046Y-60441500D01*
X40677788Y-59770758D01*
X40613011Y-59725401D01*
X40613005Y-59725398D01*
X40412884Y-59632080D01*
X40412870Y-59632075D01*
X40310796Y-59604725D01*
X40251135Y-59568360D01*
X40220606Y-59505513D01*
X40228901Y-59436138D01*
X40255203Y-59397274D01*
X40340661Y-59311816D01*
X40401983Y-59278334D01*
X40428340Y-59275500D01*
X119728107Y-59275500D01*
X119795146Y-59295185D01*
G37*
%TD.AperFunction*%
%TA.AperFunction,Conductor*%
G36*
X120002702Y-44500617D02*
G01*
X120386771Y-44517386D01*
X120397506Y-44518326D01*
X120775971Y-44568152D01*
X120786597Y-44570025D01*
X121159284Y-44652648D01*
X121169710Y-44655442D01*
X121533765Y-44770227D01*
X121543911Y-44773920D01*
X121896578Y-44920000D01*
X121906369Y-44924566D01*
X122244942Y-45100816D01*
X122254310Y-45106224D01*
X122576244Y-45311318D01*
X122585105Y-45317523D01*
X122887930Y-45549889D01*
X122896217Y-45556843D01*
X123177635Y-45814715D01*
X123185284Y-45822364D01*
X123443156Y-46103782D01*
X123450110Y-46112069D01*
X123682476Y-46414894D01*
X123688681Y-46423755D01*
X123893775Y-46745689D01*
X123899183Y-46755057D01*
X124075430Y-47093623D01*
X124080002Y-47103427D01*
X124226075Y-47456078D01*
X124229775Y-47466244D01*
X124344554Y-47830278D01*
X124347354Y-47840727D01*
X124429971Y-48213389D01*
X124431849Y-48224042D01*
X124481671Y-48602473D01*
X124482614Y-48613249D01*
X124499382Y-48997297D01*
X124499500Y-49002706D01*
X124499500Y-128997293D01*
X124499382Y-129002702D01*
X124482614Y-129386750D01*
X124481671Y-129397526D01*
X124431849Y-129775957D01*
X124429971Y-129786610D01*
X124347354Y-130159272D01*
X124344554Y-130169721D01*
X124229775Y-130533755D01*
X124226075Y-130543921D01*
X124080002Y-130896572D01*
X124075430Y-130906376D01*
X123899183Y-131244942D01*
X123893775Y-131254310D01*
X123688681Y-131576244D01*
X123682476Y-131585105D01*
X123450110Y-131887930D01*
X123443156Y-131896217D01*
X123185284Y-132177635D01*
X123177635Y-132185284D01*
X122896217Y-132443156D01*
X122887930Y-132450110D01*
X122585105Y-132682476D01*
X122576244Y-132688681D01*
X122254310Y-132893775D01*
X122244942Y-132899183D01*
X121906376Y-133075430D01*
X121896572Y-133080002D01*
X121543921Y-133226075D01*
X121533755Y-133229775D01*
X121169721Y-133344554D01*
X121159272Y-133347354D01*
X120786610Y-133429971D01*
X120775957Y-133431849D01*
X120397526Y-133481671D01*
X120386750Y-133482614D01*
X120002703Y-133499382D01*
X119997294Y-133499500D01*
X30002706Y-133499500D01*
X29997297Y-133499382D01*
X29613249Y-133482614D01*
X29602473Y-133481671D01*
X29224042Y-133431849D01*
X29213389Y-133429971D01*
X28840727Y-133347354D01*
X28830278Y-133344554D01*
X28466244Y-133229775D01*
X28456078Y-133226075D01*
X28103427Y-133080002D01*
X28093623Y-133075430D01*
X27755057Y-132899183D01*
X27745689Y-132893775D01*
X27423755Y-132688681D01*
X27414894Y-132682476D01*
X27112069Y-132450110D01*
X27103782Y-132443156D01*
X26822364Y-132185284D01*
X26814715Y-132177635D01*
X26556843Y-131896217D01*
X26549889Y-131887930D01*
X26317523Y-131585105D01*
X26311318Y-131576244D01*
X26307985Y-131571013D01*
X26106223Y-131254309D01*
X26100816Y-131244942D01*
X26028844Y-131106686D01*
X25924566Y-130906369D01*
X25919997Y-130896572D01*
X25773920Y-130543911D01*
X25770224Y-130533755D01*
X25655442Y-130169710D01*
X25652648Y-130159284D01*
X25570025Y-129786597D01*
X25568152Y-129775971D01*
X25518326Y-129397506D01*
X25517386Y-129386771D01*
X25505795Y-129121288D01*
X28149500Y-129121288D01*
X28181161Y-129361785D01*
X28243947Y-129596104D01*
X28336773Y-129820205D01*
X28336777Y-129820214D01*
X28358974Y-129858661D01*
X28458064Y-130030289D01*
X28458066Y-130030292D01*
X28458067Y-130030293D01*
X28605733Y-130222736D01*
X28605739Y-130222743D01*
X28777256Y-130394260D01*
X28777262Y-130394265D01*
X28969711Y-130541936D01*
X29179788Y-130663224D01*
X29403900Y-130756054D01*
X29638211Y-130818838D01*
X29818586Y-130842584D01*
X29878711Y-130850500D01*
X29878712Y-130850500D01*
X30121289Y-130850500D01*
X30169388Y-130844167D01*
X30361789Y-130818838D01*
X30596100Y-130756054D01*
X30820212Y-130663224D01*
X31030289Y-130541936D01*
X31222738Y-130394265D01*
X31394265Y-130222738D01*
X31541936Y-130030289D01*
X31663224Y-129820212D01*
X31756054Y-129596100D01*
X31818838Y-129361789D01*
X31850500Y-129121288D01*
X31850500Y-128878712D01*
X31818838Y-128638211D01*
X31756054Y-128403900D01*
X31663224Y-128179788D01*
X31541936Y-127969711D01*
X31463638Y-127867671D01*
X31394266Y-127777263D01*
X31394260Y-127777256D01*
X31222743Y-127605739D01*
X31222736Y-127605733D01*
X31030293Y-127458067D01*
X31030292Y-127458066D01*
X31030289Y-127458064D01*
X30820212Y-127336776D01*
X30799281Y-127328106D01*
X30596104Y-127243947D01*
X30361785Y-127181161D01*
X30121289Y-127149500D01*
X30121288Y-127149500D01*
X29878712Y-127149500D01*
X29878711Y-127149500D01*
X29638214Y-127181161D01*
X29403895Y-127243947D01*
X29179794Y-127336773D01*
X29179785Y-127336777D01*
X28969706Y-127458067D01*
X28777263Y-127605733D01*
X28777256Y-127605739D01*
X28605739Y-127777256D01*
X28605733Y-127777263D01*
X28458067Y-127969706D01*
X28336777Y-128179785D01*
X28336773Y-128179794D01*
X28243947Y-128403895D01*
X28181161Y-128638214D01*
X28149500Y-128878711D01*
X28149500Y-129121288D01*
X25505795Y-129121288D01*
X25500618Y-129002702D01*
X25500500Y-128997293D01*
X25500500Y-89250000D01*
X28669364Y-89250000D01*
X28726567Y-89463486D01*
X28726570Y-89463492D01*
X28826399Y-89677578D01*
X28961894Y-89871082D01*
X29128917Y-90038105D01*
X29322421Y-90173600D01*
X29536507Y-90273429D01*
X29536516Y-90273433D01*
X29750000Y-90330634D01*
X29750000Y-89433012D01*
X29807007Y-89465925D01*
X29934174Y-89500000D01*
X30065826Y-89500000D01*
X30192993Y-89465925D01*
X30250000Y-89433012D01*
X30250000Y-90330633D01*
X30463483Y-90273433D01*
X30463492Y-90273429D01*
X30677578Y-90173600D01*
X30871082Y-90038105D01*
X31038105Y-89871082D01*
X31173600Y-89677578D01*
X31273429Y-89463492D01*
X31273432Y-89463486D01*
X31330636Y-89250000D01*
X30433012Y-89250000D01*
X30465925Y-89192993D01*
X30500000Y-89065826D01*
X30500000Y-88934174D01*
X30465925Y-88807007D01*
X30433012Y-88750000D01*
X31330636Y-88750000D01*
X31330635Y-88749999D01*
X31273432Y-88536513D01*
X31273429Y-88536507D01*
X31173600Y-88322422D01*
X31173599Y-88322420D01*
X31038113Y-88128926D01*
X31038108Y-88128920D01*
X30871082Y-87961894D01*
X30677578Y-87826399D01*
X30478426Y-87733533D01*
X30425987Y-87687360D01*
X30406835Y-87620167D01*
X30427051Y-87553286D01*
X30480216Y-87507951D01*
X30486005Y-87505537D01*
X30515019Y-87494298D01*
X30696302Y-87382052D01*
X30747902Y-87335012D01*
X30794138Y-87292863D01*
X30856942Y-87262246D01*
X30877676Y-87260500D01*
X31404560Y-87260500D01*
X31471599Y-87280185D01*
X31492241Y-87296819D01*
X32163181Y-87967759D01*
X32196666Y-88029082D01*
X32199500Y-88055440D01*
X32199500Y-95228106D01*
X32179815Y-95295145D01*
X32127011Y-95340900D01*
X32089789Y-95351280D01*
X32080010Y-95352414D01*
X32080008Y-95352415D01*
X31977235Y-95397793D01*
X31897794Y-95477234D01*
X31852415Y-95580006D01*
X31852415Y-95580008D01*
X31849500Y-95605131D01*
X31849500Y-95737481D01*
X31829815Y-95804520D01*
X31777011Y-95850275D01*
X31707853Y-95860219D01*
X31644297Y-95831194D01*
X31623925Y-95808604D01*
X31498113Y-95628926D01*
X31498108Y-95628920D01*
X31331082Y-95461894D01*
X31137578Y-95326399D01*
X30923492Y-95226570D01*
X30923486Y-95226567D01*
X30710000Y-95169364D01*
X30710000Y-96066988D01*
X30652993Y-96034075D01*
X30525826Y-96000000D01*
X30394174Y-96000000D01*
X30267007Y-96034075D01*
X30210000Y-96066988D01*
X30210000Y-95169364D01*
X30209999Y-95169364D01*
X29996513Y-95226567D01*
X29996507Y-95226570D01*
X29782422Y-95326399D01*
X29782420Y-95326400D01*
X29588926Y-95461886D01*
X29588920Y-95461891D01*
X29421891Y-95628920D01*
X29421886Y-95628926D01*
X29286400Y-95822420D01*
X29286399Y-95822422D01*
X29186570Y-96036507D01*
X29186567Y-96036513D01*
X29129364Y-96249999D01*
X29129364Y-96250000D01*
X30026988Y-96250000D01*
X29994075Y-96307007D01*
X29960000Y-96434174D01*
X29960000Y-96565826D01*
X29994075Y-96692993D01*
X30026988Y-96750000D01*
X29129364Y-96750000D01*
X29186567Y-96963486D01*
X29186570Y-96963492D01*
X29286399Y-97177578D01*
X29421894Y-97371082D01*
X29588917Y-97538105D01*
X29782421Y-97673600D01*
X29996507Y-97773429D01*
X29996516Y-97773433D01*
X30210000Y-97830634D01*
X30210000Y-96933012D01*
X30267007Y-96965925D01*
X30394174Y-97000000D01*
X30525826Y-97000000D01*
X30652993Y-96965925D01*
X30710000Y-96933012D01*
X30710000Y-97830633D01*
X30923483Y-97773433D01*
X30923492Y-97773429D01*
X31137578Y-97673600D01*
X31331082Y-97538105D01*
X31498105Y-97371082D01*
X31623925Y-97191394D01*
X31678502Y-97147770D01*
X31748001Y-97140577D01*
X31810355Y-97172099D01*
X31845769Y-97232329D01*
X31849500Y-97262517D01*
X31849500Y-97394855D01*
X31849502Y-97394882D01*
X31852413Y-97419987D01*
X31852415Y-97419991D01*
X31897793Y-97522764D01*
X31897794Y-97522765D01*
X31977235Y-97602206D01*
X32042226Y-97630902D01*
X32080006Y-97647584D01*
X32080009Y-97647585D01*
X32089786Y-97648719D01*
X32154111Y-97675996D01*
X32193478Y-97733720D01*
X32199500Y-97771893D01*
X32199500Y-98428844D01*
X32217117Y-98517407D01*
X32219500Y-98541599D01*
X32219500Y-101344106D01*
X32199815Y-101411145D01*
X32147011Y-101456900D01*
X32109789Y-101467280D01*
X32100010Y-101468414D01*
X32100008Y-101468415D01*
X31997235Y-101513793D01*
X31917794Y-101593234D01*
X31872415Y-101696006D01*
X31872415Y-101696008D01*
X31869500Y-101721131D01*
X31869500Y-101853481D01*
X31849815Y-101920520D01*
X31797011Y-101966275D01*
X31727853Y-101976219D01*
X31664297Y-101947194D01*
X31643925Y-101924604D01*
X31518113Y-101744926D01*
X31518108Y-101744920D01*
X31351082Y-101577894D01*
X31157578Y-101442399D01*
X30943492Y-101342570D01*
X30943486Y-101342567D01*
X30730000Y-101285364D01*
X30730000Y-102182988D01*
X30672993Y-102150075D01*
X30545826Y-102116000D01*
X30414174Y-102116000D01*
X30287007Y-102150075D01*
X30230000Y-102182988D01*
X30230000Y-101285364D01*
X30229999Y-101285364D01*
X30016513Y-101342567D01*
X30016507Y-101342570D01*
X29802422Y-101442399D01*
X29802420Y-101442400D01*
X29608926Y-101577886D01*
X29608920Y-101577891D01*
X29441891Y-101744920D01*
X29441886Y-101744926D01*
X29306400Y-101938420D01*
X29306399Y-101938422D01*
X29206570Y-102152507D01*
X29206567Y-102152513D01*
X29149364Y-102365999D01*
X29149364Y-102366000D01*
X30046988Y-102366000D01*
X30014075Y-102423007D01*
X29980000Y-102550174D01*
X29980000Y-102681826D01*
X30014075Y-102808993D01*
X30046988Y-102866000D01*
X29149364Y-102866000D01*
X29206567Y-103079486D01*
X29206570Y-103079492D01*
X29306399Y-103293578D01*
X29441894Y-103487082D01*
X29608917Y-103654105D01*
X29802421Y-103789600D01*
X30016507Y-103889429D01*
X30016516Y-103889433D01*
X30230000Y-103946634D01*
X30230000Y-103049012D01*
X30287007Y-103081925D01*
X30414174Y-103116000D01*
X30545826Y-103116000D01*
X30672993Y-103081925D01*
X30730000Y-103049012D01*
X30730000Y-103946633D01*
X30943483Y-103889433D01*
X30943492Y-103889429D01*
X31157578Y-103789600D01*
X31351082Y-103654105D01*
X31518105Y-103487082D01*
X31643925Y-103307394D01*
X31698502Y-103263770D01*
X31768001Y-103256577D01*
X31830355Y-103288099D01*
X31865769Y-103348329D01*
X31869500Y-103378517D01*
X31869500Y-103510855D01*
X31869502Y-103510882D01*
X31872413Y-103535987D01*
X31872415Y-103535991D01*
X31917793Y-103638764D01*
X31917794Y-103638765D01*
X31997235Y-103718206D01*
X32062226Y-103746902D01*
X32100006Y-103763584D01*
X32100009Y-103763585D01*
X32109786Y-103764719D01*
X32174111Y-103791996D01*
X32213478Y-103849720D01*
X32219500Y-103887893D01*
X32219500Y-104294399D01*
X32217117Y-104318590D01*
X32199500Y-104407154D01*
X32199500Y-106228106D01*
X32179815Y-106295145D01*
X32127011Y-106340900D01*
X32089789Y-106351280D01*
X32080010Y-106352414D01*
X32080008Y-106352415D01*
X31977235Y-106397793D01*
X31897794Y-106477234D01*
X31852415Y-106580006D01*
X31852415Y-106580008D01*
X31849500Y-106605131D01*
X31849500Y-106737481D01*
X31829815Y-106804520D01*
X31777011Y-106850275D01*
X31707853Y-106860219D01*
X31644297Y-106831194D01*
X31623925Y-106808604D01*
X31498113Y-106628926D01*
X31498108Y-106628920D01*
X31331082Y-106461894D01*
X31137578Y-106326399D01*
X30923492Y-106226570D01*
X30923486Y-106226567D01*
X30710000Y-106169364D01*
X30710000Y-107066988D01*
X30652993Y-107034075D01*
X30525826Y-107000000D01*
X30394174Y-107000000D01*
X30267007Y-107034075D01*
X30210000Y-107066988D01*
X30210000Y-106169364D01*
X30209999Y-106169364D01*
X29996513Y-106226567D01*
X29996507Y-106226570D01*
X29782422Y-106326399D01*
X29782420Y-106326400D01*
X29588926Y-106461886D01*
X29588920Y-106461891D01*
X29421891Y-106628920D01*
X29421886Y-106628926D01*
X29286400Y-106822420D01*
X29286399Y-106822422D01*
X29186570Y-107036507D01*
X29186567Y-107036513D01*
X29129364Y-107249999D01*
X29129364Y-107250000D01*
X30026988Y-107250000D01*
X29994075Y-107307007D01*
X29960000Y-107434174D01*
X29960000Y-107565826D01*
X29994075Y-107692993D01*
X30026988Y-107750000D01*
X29129364Y-107750000D01*
X29186567Y-107963486D01*
X29186570Y-107963492D01*
X29286399Y-108177578D01*
X29421894Y-108371082D01*
X29588917Y-108538105D01*
X29782421Y-108673600D01*
X29996507Y-108773429D01*
X29996516Y-108773433D01*
X30210000Y-108830634D01*
X30210000Y-107933012D01*
X30267007Y-107965925D01*
X30394174Y-108000000D01*
X30525826Y-108000000D01*
X30652993Y-107965925D01*
X30710000Y-107933012D01*
X30710000Y-108830633D01*
X30923483Y-108773433D01*
X30923492Y-108773429D01*
X31137578Y-108673600D01*
X31331082Y-108538105D01*
X31498105Y-108371082D01*
X31623925Y-108191394D01*
X31678502Y-108147770D01*
X31748001Y-108140577D01*
X31810355Y-108172099D01*
X31845769Y-108232329D01*
X31849500Y-108262517D01*
X31849500Y-108394855D01*
X31849502Y-108394882D01*
X31852413Y-108419987D01*
X31852415Y-108419991D01*
X31897793Y-108522764D01*
X31897794Y-108522765D01*
X31977235Y-108602206D01*
X32080009Y-108647585D01*
X32105135Y-108650500D01*
X33894864Y-108650499D01*
X33898444Y-108650499D01*
X33898444Y-108652720D01*
X33957937Y-108665668D01*
X34007338Y-108715078D01*
X34022500Y-108774495D01*
X34022500Y-127991846D01*
X34053261Y-128146489D01*
X34053264Y-128146501D01*
X34113602Y-128292172D01*
X34113609Y-128292185D01*
X34201210Y-128423288D01*
X34201213Y-128423292D01*
X36884607Y-131106686D01*
X36884611Y-131106689D01*
X37015714Y-131194290D01*
X37015727Y-131194297D01*
X37161398Y-131254635D01*
X37161403Y-131254637D01*
X37316053Y-131285399D01*
X37316056Y-131285400D01*
X37316058Y-131285400D01*
X49693944Y-131285400D01*
X49693945Y-131285399D01*
X49848597Y-131254637D01*
X49994279Y-131194294D01*
X50125389Y-131106689D01*
X51245259Y-129986819D01*
X51306582Y-129953334D01*
X51332940Y-129950500D01*
X51406608Y-129950500D01*
X51406610Y-129950500D01*
X51616198Y-129911321D01*
X51815019Y-129834298D01*
X51996302Y-129722052D01*
X52153872Y-129578407D01*
X52282366Y-129408255D01*
X52322270Y-129328117D01*
X52377403Y-129217394D01*
X52377403Y-129217393D01*
X52377405Y-129217389D01*
X52435756Y-129012310D01*
X52446529Y-128896047D01*
X52472315Y-128831111D01*
X52516869Y-128799194D01*
X52480497Y-128778331D01*
X52448307Y-128716318D01*
X52446529Y-128703951D01*
X52442996Y-128665826D01*
X52435756Y-128587690D01*
X52377405Y-128382611D01*
X52377403Y-128382606D01*
X52377403Y-128382605D01*
X52282368Y-128191749D01*
X52282366Y-128191746D01*
X52282366Y-128191745D01*
X52223069Y-128113224D01*
X52198379Y-128047866D01*
X52212944Y-127979532D01*
X52262141Y-127929919D01*
X52322025Y-127914500D01*
X52817975Y-127914500D01*
X52885014Y-127934185D01*
X52930769Y-127986989D01*
X52940713Y-128056147D01*
X52916930Y-128113224D01*
X52887475Y-128152230D01*
X52857631Y-128191749D01*
X52762596Y-128382605D01*
X52762596Y-128382607D01*
X52704244Y-128587689D01*
X52693471Y-128703951D01*
X52667685Y-128768888D01*
X52623130Y-128800804D01*
X52659503Y-128821668D01*
X52691693Y-128883681D01*
X52693470Y-128896047D01*
X52704244Y-129012310D01*
X52757675Y-129200099D01*
X52762596Y-129217392D01*
X52762596Y-129217394D01*
X52857632Y-129408253D01*
X52966531Y-129552457D01*
X52986128Y-129578407D01*
X53143698Y-129722052D01*
X53324981Y-129834298D01*
X53523802Y-129911321D01*
X53733390Y-129950500D01*
X53733392Y-129950500D01*
X53946608Y-129950500D01*
X53946610Y-129950500D01*
X54156198Y-129911321D01*
X54355019Y-129834298D01*
X54536302Y-129722052D01*
X54693872Y-129578407D01*
X54822366Y-129408255D01*
X54862270Y-129328117D01*
X54917403Y-129217394D01*
X54917403Y-129217393D01*
X54917405Y-129217389D01*
X54975756Y-129012310D01*
X54995429Y-128800000D01*
X54975756Y-128587690D01*
X54917405Y-128382611D01*
X54917403Y-128382606D01*
X54917403Y-128382605D01*
X54822368Y-128191749D01*
X54822366Y-128191746D01*
X54822366Y-128191745D01*
X54763069Y-128113224D01*
X54738379Y-128047866D01*
X54752944Y-127979532D01*
X54802141Y-127929919D01*
X54862025Y-127914500D01*
X55480960Y-127914500D01*
X55547999Y-127934185D01*
X55568641Y-127950819D01*
X60501111Y-132883289D01*
X60612608Y-132994786D01*
X60612612Y-132994790D01*
X60743714Y-133082390D01*
X60743727Y-133082397D01*
X60889398Y-133142735D01*
X60889403Y-133142737D01*
X61044053Y-133173499D01*
X61044056Y-133173500D01*
X61044058Y-133173500D01*
X90629844Y-133173500D01*
X90629845Y-133173499D01*
X90784497Y-133142737D01*
X90930179Y-133082394D01*
X91061289Y-132994789D01*
X91172789Y-132883289D01*
X91260394Y-132752179D01*
X91320737Y-132606497D01*
X91351500Y-132451842D01*
X91351500Y-131218207D01*
X91360939Y-131170755D01*
X91416892Y-131035670D01*
X91416894Y-131035666D01*
X91451500Y-130861691D01*
X91451500Y-129884309D01*
X91451500Y-129884306D01*
X91451499Y-129884304D01*
X91416896Y-129710341D01*
X91416893Y-129710331D01*
X91360939Y-129575245D01*
X91351500Y-129527793D01*
X91351500Y-127718207D01*
X91360939Y-127670755D01*
X91416892Y-127535670D01*
X91416894Y-127535666D01*
X91451500Y-127361691D01*
X91451500Y-126384309D01*
X91451500Y-126384306D01*
X91451499Y-126384304D01*
X91416896Y-126210341D01*
X91416893Y-126210332D01*
X91349016Y-126046459D01*
X91349009Y-126046446D01*
X91250464Y-125898965D01*
X91250461Y-125898961D01*
X91236681Y-125885181D01*
X91203196Y-125823858D01*
X91208180Y-125754166D01*
X91250052Y-125698233D01*
X91315516Y-125673816D01*
X91324362Y-125673500D01*
X92317638Y-125673500D01*
X92384677Y-125693185D01*
X92430432Y-125745989D01*
X92440376Y-125815147D01*
X92411351Y-125878703D01*
X92405319Y-125885181D01*
X92391538Y-125898961D01*
X92391535Y-125898965D01*
X92292990Y-126046446D01*
X92292983Y-126046459D01*
X92225106Y-126210332D01*
X92225103Y-126210341D01*
X92190500Y-126384304D01*
X92190500Y-127361695D01*
X92225104Y-127535658D01*
X92225107Y-127535670D01*
X92281061Y-127670755D01*
X92290500Y-127718207D01*
X92290500Y-129527793D01*
X92281061Y-129575245D01*
X92225107Y-129710331D01*
X92225103Y-129710341D01*
X92190500Y-129884304D01*
X92190500Y-130861695D01*
X92225103Y-131035658D01*
X92225106Y-131035667D01*
X92292983Y-131199540D01*
X92292990Y-131199553D01*
X92391535Y-131347034D01*
X92391538Y-131347038D01*
X92516961Y-131472461D01*
X92516965Y-131472464D01*
X92664446Y-131571009D01*
X92664459Y-131571016D01*
X92787363Y-131621923D01*
X92828334Y-131638894D01*
X92828336Y-131638894D01*
X92828341Y-131638896D01*
X93002304Y-131673499D01*
X93002307Y-131673500D01*
X93002309Y-131673500D01*
X93179693Y-131673500D01*
X93179694Y-131673499D01*
X93237682Y-131661964D01*
X93353658Y-131638896D01*
X93353661Y-131638894D01*
X93353666Y-131638894D01*
X93517547Y-131571013D01*
X93665035Y-131472464D01*
X93790464Y-131347035D01*
X93889013Y-131199547D01*
X93891191Y-131194290D01*
X93900939Y-131170755D01*
X93956894Y-131035666D01*
X93991499Y-130861695D01*
X94730500Y-130861695D01*
X94765103Y-131035658D01*
X94765106Y-131035667D01*
X94832983Y-131199540D01*
X94832990Y-131199553D01*
X94931535Y-131347034D01*
X94931538Y-131347038D01*
X95056961Y-131472461D01*
X95056965Y-131472464D01*
X95204446Y-131571009D01*
X95204459Y-131571016D01*
X95327363Y-131621923D01*
X95368334Y-131638894D01*
X95368336Y-131638894D01*
X95368341Y-131638896D01*
X95542304Y-131673499D01*
X95542307Y-131673500D01*
X95542309Y-131673500D01*
X95719693Y-131673500D01*
X95719694Y-131673499D01*
X95777682Y-131661964D01*
X95893658Y-131638896D01*
X95893661Y-131638894D01*
X95893666Y-131638894D01*
X96057547Y-131571013D01*
X96205035Y-131472464D01*
X96330464Y-131347035D01*
X96429013Y-131199547D01*
X96431191Y-131194290D01*
X96440939Y-131170755D01*
X96496894Y-131035666D01*
X96531499Y-130861695D01*
X97270500Y-130861695D01*
X97305103Y-131035658D01*
X97305106Y-131035667D01*
X97372983Y-131199540D01*
X97372990Y-131199553D01*
X97471535Y-131347034D01*
X97471538Y-131347038D01*
X97596961Y-131472461D01*
X97596965Y-131472464D01*
X97744446Y-131571009D01*
X97744459Y-131571016D01*
X97867363Y-131621923D01*
X97908334Y-131638894D01*
X97908336Y-131638894D01*
X97908341Y-131638896D01*
X98082304Y-131673499D01*
X98082307Y-131673500D01*
X98082309Y-131673500D01*
X98259693Y-131673500D01*
X98259694Y-131673499D01*
X98317682Y-131661964D01*
X98433658Y-131638896D01*
X98433661Y-131638894D01*
X98433666Y-131638894D01*
X98597547Y-131571013D01*
X98745035Y-131472464D01*
X98870464Y-131347035D01*
X98969013Y-131199547D01*
X98971191Y-131194290D01*
X98980939Y-131170755D01*
X99036894Y-131035666D01*
X99071500Y-130861691D01*
X99071500Y-130859571D01*
X99611000Y-130859571D01*
X99638085Y-131030584D01*
X99691591Y-131195257D01*
X99770195Y-131349524D01*
X99871967Y-131489602D01*
X99994397Y-131612032D01*
X100134475Y-131713804D01*
X100288744Y-131792408D01*
X100453415Y-131845914D01*
X100453414Y-131845914D01*
X100460999Y-131847115D01*
X100461000Y-131847114D01*
X100461000Y-130688686D01*
X100465394Y-130693080D01*
X100556606Y-130745741D01*
X100658339Y-130773000D01*
X100763661Y-130773000D01*
X100865394Y-130745741D01*
X100956606Y-130693080D01*
X100961000Y-130688686D01*
X100961000Y-131847115D01*
X100968584Y-131845914D01*
X101133255Y-131792408D01*
X101287524Y-131713804D01*
X101427602Y-131612032D01*
X101550032Y-131489602D01*
X101651804Y-131349524D01*
X101730408Y-131195257D01*
X101783914Y-131030584D01*
X101810664Y-130861695D01*
X102350500Y-130861695D01*
X102385103Y-131035658D01*
X102385106Y-131035667D01*
X102452983Y-131199540D01*
X102452990Y-131199553D01*
X102551535Y-131347034D01*
X102551538Y-131347038D01*
X102676961Y-131472461D01*
X102676965Y-131472464D01*
X102824446Y-131571009D01*
X102824459Y-131571016D01*
X102947363Y-131621923D01*
X102988334Y-131638894D01*
X102988336Y-131638894D01*
X102988341Y-131638896D01*
X103162304Y-131673499D01*
X103162307Y-131673500D01*
X103162309Y-131673500D01*
X103339693Y-131673500D01*
X103339694Y-131673499D01*
X103397682Y-131661964D01*
X103513658Y-131638896D01*
X103513661Y-131638894D01*
X103513666Y-131638894D01*
X103677547Y-131571013D01*
X103825035Y-131472464D01*
X103950464Y-131347035D01*
X104049013Y-131199547D01*
X104051191Y-131194290D01*
X104060939Y-131170755D01*
X104116894Y-131035666D01*
X104151499Y-130861695D01*
X104890500Y-130861695D01*
X104925103Y-131035658D01*
X104925106Y-131035667D01*
X104992983Y-131199540D01*
X104992990Y-131199553D01*
X105091535Y-131347034D01*
X105091538Y-131347038D01*
X105216961Y-131472461D01*
X105216965Y-131472464D01*
X105364446Y-131571009D01*
X105364459Y-131571016D01*
X105487363Y-131621923D01*
X105528334Y-131638894D01*
X105528336Y-131638894D01*
X105528341Y-131638896D01*
X105702304Y-131673499D01*
X105702307Y-131673500D01*
X105702309Y-131673500D01*
X105879693Y-131673500D01*
X105879694Y-131673499D01*
X105937682Y-131661964D01*
X106053658Y-131638896D01*
X106053661Y-131638894D01*
X106053666Y-131638894D01*
X106217547Y-131571013D01*
X106365035Y-131472464D01*
X106490464Y-131347035D01*
X106589013Y-131199547D01*
X106591191Y-131194290D01*
X106600939Y-131170755D01*
X106656894Y-131035666D01*
X106691499Y-130861695D01*
X107430500Y-130861695D01*
X107465103Y-131035658D01*
X107465106Y-131035667D01*
X107532983Y-131199540D01*
X107532990Y-131199553D01*
X107631535Y-131347034D01*
X107631538Y-131347038D01*
X107756961Y-131472461D01*
X107756965Y-131472464D01*
X107904446Y-131571009D01*
X107904459Y-131571016D01*
X108027363Y-131621923D01*
X108068334Y-131638894D01*
X108068336Y-131638894D01*
X108068341Y-131638896D01*
X108242304Y-131673499D01*
X108242307Y-131673500D01*
X108242309Y-131673500D01*
X108419693Y-131673500D01*
X108419694Y-131673499D01*
X108477682Y-131661964D01*
X108593658Y-131638896D01*
X108593661Y-131638894D01*
X108593666Y-131638894D01*
X108757547Y-131571013D01*
X108905035Y-131472464D01*
X109030464Y-131347035D01*
X109129013Y-131199547D01*
X109131191Y-131194290D01*
X109140939Y-131170755D01*
X109196894Y-131035666D01*
X109231499Y-130861695D01*
X109970500Y-130861695D01*
X110005103Y-131035658D01*
X110005106Y-131035667D01*
X110072983Y-131199540D01*
X110072990Y-131199553D01*
X110171535Y-131347034D01*
X110171538Y-131347038D01*
X110296961Y-131472461D01*
X110296965Y-131472464D01*
X110444446Y-131571009D01*
X110444459Y-131571016D01*
X110567363Y-131621923D01*
X110608334Y-131638894D01*
X110608336Y-131638894D01*
X110608341Y-131638896D01*
X110782304Y-131673499D01*
X110782307Y-131673500D01*
X110782309Y-131673500D01*
X110959693Y-131673500D01*
X110959694Y-131673499D01*
X111017682Y-131661964D01*
X111133658Y-131638896D01*
X111133661Y-131638894D01*
X111133666Y-131638894D01*
X111297547Y-131571013D01*
X111445035Y-131472464D01*
X111570464Y-131347035D01*
X111669013Y-131199547D01*
X111671191Y-131194290D01*
X111680939Y-131170755D01*
X111736894Y-131035666D01*
X111771499Y-130861695D01*
X112510500Y-130861695D01*
X112545103Y-131035658D01*
X112545106Y-131035667D01*
X112612983Y-131199540D01*
X112612990Y-131199553D01*
X112711535Y-131347034D01*
X112711538Y-131347038D01*
X112836961Y-131472461D01*
X112836965Y-131472464D01*
X112984446Y-131571009D01*
X112984459Y-131571016D01*
X113107363Y-131621923D01*
X113148334Y-131638894D01*
X113148336Y-131638894D01*
X113148341Y-131638896D01*
X113322304Y-131673499D01*
X113322307Y-131673500D01*
X113322309Y-131673500D01*
X113499693Y-131673500D01*
X113499694Y-131673499D01*
X113557682Y-131661964D01*
X113673658Y-131638896D01*
X113673661Y-131638894D01*
X113673666Y-131638894D01*
X113837547Y-131571013D01*
X113985035Y-131472464D01*
X114110464Y-131347035D01*
X114209013Y-131199547D01*
X114211191Y-131194290D01*
X114220939Y-131170755D01*
X114276894Y-131035666D01*
X114311500Y-130861691D01*
X114311500Y-129884309D01*
X114311500Y-129884306D01*
X114311499Y-129884304D01*
X114276896Y-129710341D01*
X114276893Y-129710331D01*
X114220939Y-129575245D01*
X114211500Y-129527793D01*
X114211500Y-129121288D01*
X118149500Y-129121288D01*
X118181161Y-129361785D01*
X118243947Y-129596104D01*
X118336773Y-129820205D01*
X118336777Y-129820214D01*
X118358974Y-129858661D01*
X118458064Y-130030289D01*
X118458066Y-130030292D01*
X118458067Y-130030293D01*
X118605733Y-130222736D01*
X118605739Y-130222743D01*
X118777256Y-130394260D01*
X118777262Y-130394265D01*
X118969711Y-130541936D01*
X119179788Y-130663224D01*
X119403900Y-130756054D01*
X119638211Y-130818838D01*
X119818586Y-130842584D01*
X119878711Y-130850500D01*
X119878712Y-130850500D01*
X120121289Y-130850500D01*
X120169388Y-130844167D01*
X120361789Y-130818838D01*
X120596100Y-130756054D01*
X120820212Y-130663224D01*
X121030289Y-130541936D01*
X121222738Y-130394265D01*
X121394265Y-130222738D01*
X121541936Y-130030289D01*
X121663224Y-129820212D01*
X121756054Y-129596100D01*
X121818838Y-129361789D01*
X121850500Y-129121288D01*
X121850500Y-128878712D01*
X121818838Y-128638211D01*
X121756054Y-128403900D01*
X121663224Y-128179788D01*
X121541936Y-127969711D01*
X121463638Y-127867671D01*
X121394266Y-127777263D01*
X121394260Y-127777256D01*
X121222743Y-127605739D01*
X121222736Y-127605733D01*
X121030293Y-127458067D01*
X121030292Y-127458066D01*
X121030289Y-127458064D01*
X120820212Y-127336776D01*
X120799281Y-127328106D01*
X120596104Y-127243947D01*
X120361785Y-127181161D01*
X120121289Y-127149500D01*
X120121288Y-127149500D01*
X119878712Y-127149500D01*
X119878711Y-127149500D01*
X119638214Y-127181161D01*
X119403895Y-127243947D01*
X119179794Y-127336773D01*
X119179785Y-127336777D01*
X118969706Y-127458067D01*
X118777263Y-127605733D01*
X118777256Y-127605739D01*
X118605739Y-127777256D01*
X118605733Y-127777263D01*
X118458067Y-127969706D01*
X118336777Y-128179785D01*
X118336773Y-128179794D01*
X118243947Y-128403895D01*
X118181161Y-128638214D01*
X118149500Y-128878711D01*
X118149500Y-129121288D01*
X114211500Y-129121288D01*
X114211500Y-127718207D01*
X114220939Y-127670755D01*
X114276892Y-127535670D01*
X114276894Y-127535666D01*
X114311500Y-127361691D01*
X114311500Y-126384309D01*
X114311500Y-126384306D01*
X114311499Y-126384304D01*
X114276896Y-126210341D01*
X114276893Y-126210332D01*
X114209016Y-126046459D01*
X114209009Y-126046446D01*
X114110464Y-125898965D01*
X114110461Y-125898961D01*
X113985038Y-125773538D01*
X113985034Y-125773535D01*
X113837553Y-125674990D01*
X113837540Y-125674983D01*
X113673667Y-125607106D01*
X113673658Y-125607103D01*
X113499694Y-125572500D01*
X113499691Y-125572500D01*
X113322309Y-125572500D01*
X113322306Y-125572500D01*
X113148341Y-125607103D01*
X113148332Y-125607106D01*
X112984459Y-125674983D01*
X112984446Y-125674990D01*
X112836965Y-125773535D01*
X112836961Y-125773538D01*
X112711538Y-125898961D01*
X112711535Y-125898965D01*
X112612990Y-126046446D01*
X112612983Y-126046459D01*
X112545106Y-126210332D01*
X112545103Y-126210341D01*
X112510500Y-126384304D01*
X112510500Y-127361695D01*
X112545104Y-127535658D01*
X112545107Y-127535670D01*
X112601061Y-127670755D01*
X112610500Y-127718207D01*
X112610500Y-129527793D01*
X112601061Y-129575245D01*
X112545107Y-129710331D01*
X112545103Y-129710341D01*
X112510500Y-129884304D01*
X112510500Y-130861695D01*
X111771499Y-130861695D01*
X111771500Y-130861691D01*
X111771500Y-129884309D01*
X111771500Y-129884306D01*
X111771499Y-129884304D01*
X111736896Y-129710341D01*
X111736893Y-129710331D01*
X111680939Y-129575245D01*
X111671500Y-129527793D01*
X111671500Y-127718207D01*
X111680939Y-127670755D01*
X111736892Y-127535670D01*
X111736894Y-127535666D01*
X111771500Y-127361691D01*
X111771500Y-126384309D01*
X111771500Y-126384306D01*
X111771499Y-126384304D01*
X111736896Y-126210341D01*
X111736893Y-126210332D01*
X111669016Y-126046459D01*
X111669009Y-126046446D01*
X111570464Y-125898965D01*
X111570461Y-125898961D01*
X111445038Y-125773538D01*
X111445034Y-125773535D01*
X111297553Y-125674990D01*
X111297540Y-125674983D01*
X111133667Y-125607106D01*
X111133658Y-125607103D01*
X110959694Y-125572500D01*
X110959691Y-125572500D01*
X110782309Y-125572500D01*
X110782306Y-125572500D01*
X110608341Y-125607103D01*
X110608332Y-125607106D01*
X110444459Y-125674983D01*
X110444446Y-125674990D01*
X110296965Y-125773535D01*
X110296961Y-125773538D01*
X110171538Y-125898961D01*
X110171535Y-125898965D01*
X110072990Y-126046446D01*
X110072983Y-126046459D01*
X110005106Y-126210332D01*
X110005103Y-126210341D01*
X109970500Y-126384304D01*
X109970500Y-127361695D01*
X110005104Y-127535658D01*
X110005107Y-127535670D01*
X110061061Y-127670755D01*
X110070500Y-127718207D01*
X110070500Y-129527793D01*
X110061061Y-129575245D01*
X110005107Y-129710331D01*
X110005103Y-129710341D01*
X109970500Y-129884304D01*
X109970500Y-130861695D01*
X109231499Y-130861695D01*
X109231500Y-130861691D01*
X109231500Y-129884309D01*
X109231500Y-129884306D01*
X109231499Y-129884304D01*
X109196896Y-129710341D01*
X109196893Y-129710331D01*
X109140939Y-129575245D01*
X109131500Y-129527793D01*
X109131500Y-127718207D01*
X109140939Y-127670755D01*
X109196892Y-127535670D01*
X109196894Y-127535666D01*
X109231500Y-127361691D01*
X109231500Y-126384309D01*
X109231500Y-126384306D01*
X109231499Y-126384304D01*
X109196896Y-126210341D01*
X109196893Y-126210332D01*
X109129016Y-126046459D01*
X109129009Y-126046446D01*
X109030464Y-125898965D01*
X109030461Y-125898961D01*
X108905038Y-125773538D01*
X108905034Y-125773535D01*
X108757553Y-125674990D01*
X108757540Y-125674983D01*
X108593667Y-125607106D01*
X108593658Y-125607103D01*
X108419694Y-125572500D01*
X108419691Y-125572500D01*
X108242309Y-125572500D01*
X108242306Y-125572500D01*
X108068341Y-125607103D01*
X108068332Y-125607106D01*
X107904459Y-125674983D01*
X107904446Y-125674990D01*
X107756965Y-125773535D01*
X107756961Y-125773538D01*
X107631538Y-125898961D01*
X107631535Y-125898965D01*
X107532990Y-126046446D01*
X107532983Y-126046459D01*
X107465106Y-126210332D01*
X107465103Y-126210341D01*
X107430500Y-126384304D01*
X107430500Y-127361695D01*
X107465104Y-127535658D01*
X107465107Y-127535670D01*
X107521061Y-127670755D01*
X107530500Y-127718207D01*
X107530500Y-129527793D01*
X107521061Y-129575245D01*
X107465107Y-129710331D01*
X107465103Y-129710341D01*
X107430500Y-129884304D01*
X107430500Y-130861695D01*
X106691499Y-130861695D01*
X106691500Y-130861691D01*
X106691500Y-129884309D01*
X106691500Y-129884306D01*
X106691499Y-129884304D01*
X106656896Y-129710341D01*
X106656893Y-129710331D01*
X106600939Y-129575245D01*
X106591500Y-129527793D01*
X106591500Y-127718207D01*
X106600939Y-127670755D01*
X106656892Y-127535670D01*
X106656894Y-127535666D01*
X106691500Y-127361691D01*
X106691500Y-126384309D01*
X106691500Y-126384306D01*
X106691499Y-126384304D01*
X106656896Y-126210341D01*
X106656893Y-126210332D01*
X106589016Y-126046459D01*
X106589009Y-126046446D01*
X106490464Y-125898965D01*
X106490461Y-125898961D01*
X106365038Y-125773538D01*
X106365034Y-125773535D01*
X106217553Y-125674990D01*
X106217540Y-125674983D01*
X106053667Y-125607106D01*
X106053658Y-125607103D01*
X105879694Y-125572500D01*
X105879691Y-125572500D01*
X105702309Y-125572500D01*
X105702306Y-125572500D01*
X105528341Y-125607103D01*
X105528332Y-125607106D01*
X105364459Y-125674983D01*
X105364446Y-125674990D01*
X105216965Y-125773535D01*
X105216961Y-125773538D01*
X105091538Y-125898961D01*
X105091535Y-125898965D01*
X104992990Y-126046446D01*
X104992983Y-126046459D01*
X104925106Y-126210332D01*
X104925103Y-126210341D01*
X104890500Y-126384304D01*
X104890500Y-127361695D01*
X104925104Y-127535658D01*
X104925107Y-127535670D01*
X104981061Y-127670755D01*
X104990500Y-127718207D01*
X104990500Y-129527793D01*
X104981061Y-129575245D01*
X104925107Y-129710331D01*
X104925103Y-129710341D01*
X104890500Y-129884304D01*
X104890500Y-130861695D01*
X104151499Y-130861695D01*
X104151500Y-130861691D01*
X104151500Y-129884309D01*
X104151500Y-129884306D01*
X104151499Y-129884304D01*
X104116896Y-129710341D01*
X104116893Y-129710331D01*
X104060939Y-129575245D01*
X104051500Y-129527793D01*
X104051500Y-127718207D01*
X104060939Y-127670755D01*
X104116892Y-127535670D01*
X104116894Y-127535666D01*
X104151500Y-127361691D01*
X104151500Y-126384309D01*
X104151500Y-126384306D01*
X104151499Y-126384304D01*
X104116896Y-126210341D01*
X104116893Y-126210332D01*
X104049016Y-126046459D01*
X104049009Y-126046446D01*
X103950464Y-125898965D01*
X103950461Y-125898961D01*
X103825038Y-125773538D01*
X103825034Y-125773535D01*
X103677553Y-125674990D01*
X103677540Y-125674983D01*
X103513667Y-125607106D01*
X103513658Y-125607103D01*
X103339694Y-125572500D01*
X103339691Y-125572500D01*
X103162309Y-125572500D01*
X103162306Y-125572500D01*
X102988341Y-125607103D01*
X102988332Y-125607106D01*
X102824459Y-125674983D01*
X102824446Y-125674990D01*
X102676965Y-125773535D01*
X102676961Y-125773538D01*
X102551538Y-125898961D01*
X102551535Y-125898965D01*
X102452990Y-126046446D01*
X102452983Y-126046459D01*
X102385106Y-126210332D01*
X102385103Y-126210341D01*
X102350500Y-126384304D01*
X102350500Y-127361695D01*
X102385104Y-127535658D01*
X102385107Y-127535670D01*
X102441061Y-127670755D01*
X102450500Y-127718207D01*
X102450500Y-129527793D01*
X102441061Y-129575245D01*
X102385107Y-129710331D01*
X102385103Y-129710341D01*
X102350500Y-129884304D01*
X102350500Y-130861695D01*
X101810664Y-130861695D01*
X101811000Y-130859571D01*
X101811000Y-130623000D01*
X101026686Y-130623000D01*
X101031080Y-130618606D01*
X101083741Y-130527394D01*
X101111000Y-130425661D01*
X101111000Y-130320339D01*
X101083741Y-130218606D01*
X101031080Y-130127394D01*
X101026686Y-130123000D01*
X101811000Y-130123000D01*
X101811000Y-129886428D01*
X101783914Y-129715415D01*
X101730408Y-129550742D01*
X101651804Y-129396475D01*
X101550032Y-129256397D01*
X101427602Y-129133967D01*
X101287524Y-129032195D01*
X101133257Y-128953591D01*
X100968589Y-128900087D01*
X100968581Y-128900085D01*
X100961000Y-128898884D01*
X100961000Y-130057314D01*
X100956606Y-130052920D01*
X100865394Y-130000259D01*
X100763661Y-129973000D01*
X100658339Y-129973000D01*
X100556606Y-130000259D01*
X100465394Y-130052920D01*
X100461000Y-130057314D01*
X100461000Y-128898884D01*
X100460999Y-128898884D01*
X100453418Y-128900085D01*
X100453410Y-128900087D01*
X100288742Y-128953591D01*
X100134475Y-129032195D01*
X99994397Y-129133967D01*
X99871967Y-129256397D01*
X99770195Y-129396475D01*
X99691591Y-129550742D01*
X99638085Y-129715415D01*
X99611000Y-129886428D01*
X99611000Y-130123000D01*
X100395314Y-130123000D01*
X100390920Y-130127394D01*
X100338259Y-130218606D01*
X100311000Y-130320339D01*
X100311000Y-130425661D01*
X100338259Y-130527394D01*
X100390920Y-130618606D01*
X100395314Y-130623000D01*
X99611000Y-130623000D01*
X99611000Y-130859571D01*
X99071500Y-130859571D01*
X99071500Y-129884309D01*
X99071500Y-129884306D01*
X99071499Y-129884304D01*
X99036896Y-129710341D01*
X99036893Y-129710331D01*
X98980939Y-129575245D01*
X98971500Y-129527793D01*
X98971500Y-127718207D01*
X98980939Y-127670755D01*
X99036892Y-127535670D01*
X99036894Y-127535666D01*
X99071500Y-127361691D01*
X99071500Y-127359571D01*
X99611000Y-127359571D01*
X99638085Y-127530584D01*
X99691591Y-127695257D01*
X99770195Y-127849524D01*
X99871967Y-127989602D01*
X99994397Y-128112032D01*
X100134475Y-128213804D01*
X100288744Y-128292408D01*
X100453415Y-128345914D01*
X100453414Y-128345914D01*
X100460999Y-128347115D01*
X100461000Y-128347114D01*
X100461000Y-127188686D01*
X100465394Y-127193080D01*
X100556606Y-127245741D01*
X100658339Y-127273000D01*
X100763661Y-127273000D01*
X100865394Y-127245741D01*
X100956606Y-127193080D01*
X100961000Y-127188686D01*
X100961000Y-128347115D01*
X100968584Y-128345914D01*
X101133255Y-128292408D01*
X101287524Y-128213804D01*
X101427602Y-128112032D01*
X101550032Y-127989602D01*
X101651804Y-127849524D01*
X101730408Y-127695257D01*
X101783914Y-127530584D01*
X101811000Y-127359571D01*
X101811000Y-127123000D01*
X101026686Y-127123000D01*
X101031080Y-127118606D01*
X101083741Y-127027394D01*
X101111000Y-126925661D01*
X101111000Y-126820339D01*
X101083741Y-126718606D01*
X101031080Y-126627394D01*
X101026686Y-126623000D01*
X101811000Y-126623000D01*
X101811000Y-126386428D01*
X101783914Y-126215415D01*
X101730408Y-126050742D01*
X101651804Y-125896475D01*
X101550032Y-125756397D01*
X101427602Y-125633967D01*
X101287524Y-125532195D01*
X101133257Y-125453591D01*
X100968589Y-125400087D01*
X100968581Y-125400085D01*
X100961000Y-125398884D01*
X100961000Y-126557314D01*
X100956606Y-126552920D01*
X100865394Y-126500259D01*
X100763661Y-126473000D01*
X100658339Y-126473000D01*
X100556606Y-126500259D01*
X100465394Y-126552920D01*
X100461000Y-126557314D01*
X100461000Y-125398884D01*
X100460999Y-125398884D01*
X100453418Y-125400085D01*
X100453410Y-125400087D01*
X100288742Y-125453591D01*
X100134475Y-125532195D01*
X99994397Y-125633967D01*
X99871967Y-125756397D01*
X99770195Y-125896475D01*
X99691591Y-126050742D01*
X99638085Y-126215415D01*
X99611000Y-126386428D01*
X99611000Y-126623000D01*
X100395314Y-126623000D01*
X100390920Y-126627394D01*
X100338259Y-126718606D01*
X100311000Y-126820339D01*
X100311000Y-126925661D01*
X100338259Y-127027394D01*
X100390920Y-127118606D01*
X100395314Y-127123000D01*
X99611000Y-127123000D01*
X99611000Y-127359571D01*
X99071500Y-127359571D01*
X99071500Y-126384309D01*
X99071500Y-126384306D01*
X99071499Y-126384304D01*
X99036896Y-126210341D01*
X99036893Y-126210332D01*
X98969016Y-126046459D01*
X98969009Y-126046446D01*
X98870464Y-125898965D01*
X98870461Y-125898961D01*
X98745038Y-125773538D01*
X98745034Y-125773535D01*
X98597553Y-125674990D01*
X98597540Y-125674983D01*
X98433667Y-125607106D01*
X98433658Y-125607103D01*
X98259694Y-125572500D01*
X98259691Y-125572500D01*
X98082309Y-125572500D01*
X98082306Y-125572500D01*
X97908341Y-125607103D01*
X97908332Y-125607106D01*
X97744459Y-125674983D01*
X97744446Y-125674990D01*
X97596965Y-125773535D01*
X97596961Y-125773538D01*
X97471538Y-125898961D01*
X97471535Y-125898965D01*
X97372990Y-126046446D01*
X97372983Y-126046459D01*
X97305106Y-126210332D01*
X97305103Y-126210341D01*
X97270500Y-126384304D01*
X97270500Y-127361695D01*
X97305104Y-127535658D01*
X97305107Y-127535670D01*
X97361061Y-127670755D01*
X97370500Y-127718207D01*
X97370500Y-129527793D01*
X97361061Y-129575245D01*
X97305107Y-129710331D01*
X97305103Y-129710341D01*
X97270500Y-129884304D01*
X97270500Y-130861695D01*
X96531499Y-130861695D01*
X96531500Y-130861691D01*
X96531500Y-129884309D01*
X96531500Y-129884306D01*
X96531499Y-129884304D01*
X96496896Y-129710341D01*
X96496893Y-129710331D01*
X96440939Y-129575245D01*
X96431500Y-129527793D01*
X96431500Y-127718207D01*
X96440939Y-127670755D01*
X96496892Y-127535670D01*
X96496894Y-127535666D01*
X96531500Y-127361691D01*
X96531500Y-126384309D01*
X96531500Y-126384306D01*
X96531499Y-126384304D01*
X96496896Y-126210341D01*
X96496893Y-126210332D01*
X96429016Y-126046459D01*
X96429009Y-126046446D01*
X96330464Y-125898965D01*
X96330461Y-125898961D01*
X96205038Y-125773538D01*
X96205034Y-125773535D01*
X96057553Y-125674990D01*
X96057540Y-125674983D01*
X95893667Y-125607106D01*
X95893658Y-125607103D01*
X95719694Y-125572500D01*
X95719691Y-125572500D01*
X95542309Y-125572500D01*
X95542306Y-125572500D01*
X95368341Y-125607103D01*
X95368332Y-125607106D01*
X95204459Y-125674983D01*
X95204446Y-125674990D01*
X95056965Y-125773535D01*
X95056961Y-125773538D01*
X94931538Y-125898961D01*
X94931535Y-125898965D01*
X94832990Y-126046446D01*
X94832983Y-126046459D01*
X94765106Y-126210332D01*
X94765103Y-126210341D01*
X94730500Y-126384304D01*
X94730500Y-127361695D01*
X94765104Y-127535658D01*
X94765107Y-127535670D01*
X94821061Y-127670755D01*
X94830500Y-127718207D01*
X94830500Y-129527793D01*
X94821061Y-129575245D01*
X94765107Y-129710331D01*
X94765103Y-129710341D01*
X94730500Y-129884304D01*
X94730500Y-130861695D01*
X93991499Y-130861695D01*
X93991500Y-130861691D01*
X93991500Y-129884309D01*
X93991500Y-129884306D01*
X93991499Y-129884304D01*
X93956896Y-129710341D01*
X93956893Y-129710331D01*
X93900939Y-129575245D01*
X93891500Y-129527793D01*
X93891500Y-127718207D01*
X93900939Y-127670755D01*
X93956892Y-127535670D01*
X93956894Y-127535666D01*
X93991500Y-127361691D01*
X93991500Y-126384309D01*
X93991500Y-126384306D01*
X93991499Y-126384304D01*
X93956896Y-126210341D01*
X93956893Y-126210332D01*
X93889016Y-126046459D01*
X93889009Y-126046446D01*
X93790464Y-125898965D01*
X93790461Y-125898961D01*
X93665038Y-125773538D01*
X93665034Y-125773535D01*
X93517553Y-125674990D01*
X93517540Y-125674983D01*
X93353667Y-125607106D01*
X93353658Y-125607103D01*
X93179694Y-125572500D01*
X93179691Y-125572500D01*
X93128741Y-125572500D01*
X93061702Y-125552815D01*
X93015947Y-125500011D01*
X93006003Y-125430853D01*
X93035028Y-125367297D01*
X93041060Y-125360819D01*
X117404386Y-100997492D01*
X117404389Y-100997489D01*
X117491994Y-100866379D01*
X117552337Y-100720697D01*
X117583100Y-100566042D01*
X117583100Y-100408358D01*
X117583100Y-88520338D01*
X117602785Y-88453299D01*
X117619414Y-88432662D01*
X119636380Y-86415695D01*
X119697701Y-86382212D01*
X119767393Y-86387196D01*
X119823326Y-86429068D01*
X119847530Y-86491937D01*
X119864244Y-86672310D01*
X119922596Y-86877392D01*
X119922596Y-86877394D01*
X120017632Y-87068253D01*
X120139581Y-87229738D01*
X120146128Y-87238407D01*
X120303698Y-87382052D01*
X120484981Y-87494298D01*
X120513961Y-87505525D01*
X120569362Y-87548095D01*
X120592954Y-87613861D01*
X120577244Y-87681942D01*
X120527222Y-87730722D01*
X120521573Y-87733533D01*
X120322422Y-87826399D01*
X120322420Y-87826400D01*
X120128926Y-87961886D01*
X120128920Y-87961891D01*
X119961891Y-88128920D01*
X119961886Y-88128926D01*
X119826400Y-88322420D01*
X119826399Y-88322422D01*
X119726570Y-88536507D01*
X119726567Y-88536513D01*
X119669364Y-88749999D01*
X119669364Y-88750000D01*
X120566988Y-88750000D01*
X120534075Y-88807007D01*
X120500000Y-88934174D01*
X120500000Y-89065826D01*
X120534075Y-89192993D01*
X120566988Y-89250000D01*
X119669364Y-89250000D01*
X119726567Y-89463486D01*
X119726570Y-89463492D01*
X119826399Y-89677578D01*
X119961894Y-89871082D01*
X120128917Y-90038105D01*
X120322421Y-90173600D01*
X120536507Y-90273429D01*
X120536516Y-90273433D01*
X120750000Y-90330634D01*
X120750000Y-89433012D01*
X120807007Y-89465925D01*
X120934174Y-89500000D01*
X121065826Y-89500000D01*
X121192993Y-89465925D01*
X121250000Y-89433012D01*
X121250000Y-90330633D01*
X121463483Y-90273433D01*
X121463492Y-90273429D01*
X121677578Y-90173600D01*
X121871082Y-90038105D01*
X122038105Y-89871082D01*
X122173600Y-89677578D01*
X122273429Y-89463492D01*
X122273432Y-89463486D01*
X122330636Y-89250000D01*
X121433012Y-89250000D01*
X121465925Y-89192993D01*
X121500000Y-89065826D01*
X121500000Y-88934174D01*
X121465925Y-88807007D01*
X121433012Y-88750000D01*
X122330636Y-88750000D01*
X122330635Y-88749999D01*
X122273432Y-88536513D01*
X122273429Y-88536507D01*
X122173600Y-88322422D01*
X122173599Y-88322420D01*
X122038113Y-88128926D01*
X122038108Y-88128920D01*
X121871082Y-87961894D01*
X121677578Y-87826399D01*
X121478426Y-87733533D01*
X121425987Y-87687360D01*
X121406835Y-87620167D01*
X121427051Y-87553286D01*
X121480216Y-87507951D01*
X121486005Y-87505537D01*
X121515019Y-87494298D01*
X121696302Y-87382052D01*
X121747902Y-87335012D01*
X121794138Y-87292863D01*
X121856942Y-87262246D01*
X121877676Y-87260500D01*
X122928844Y-87260500D01*
X122928845Y-87260499D01*
X123083497Y-87229737D01*
X123229179Y-87169394D01*
X123360289Y-87081789D01*
X123471789Y-86970289D01*
X123559394Y-86839179D01*
X123619737Y-86693497D01*
X123650500Y-86538842D01*
X123650500Y-69331158D01*
X123650312Y-69330211D01*
X123619738Y-69176503D01*
X123559394Y-69030821D01*
X123559392Y-69030818D01*
X123559390Y-69030814D01*
X123471789Y-68899711D01*
X123471786Y-68899707D01*
X118022259Y-63450180D01*
X117988774Y-63388857D01*
X117993758Y-63319165D01*
X118022257Y-63274820D01*
X119445259Y-61851819D01*
X119506582Y-61818334D01*
X119532940Y-61815500D01*
X120122324Y-61815500D01*
X120189363Y-61835185D01*
X120205862Y-61847863D01*
X120276108Y-61911900D01*
X120303698Y-61937052D01*
X120484981Y-62049298D01*
X120513961Y-62060525D01*
X120569362Y-62103095D01*
X120592954Y-62168861D01*
X120577244Y-62236942D01*
X120527222Y-62285722D01*
X120521573Y-62288533D01*
X120322422Y-62381399D01*
X120322420Y-62381400D01*
X120128926Y-62516886D01*
X120128920Y-62516891D01*
X119961891Y-62683920D01*
X119961886Y-62683926D01*
X119826400Y-62877420D01*
X119826399Y-62877422D01*
X119726570Y-63091507D01*
X119726567Y-63091513D01*
X119669364Y-63304999D01*
X119669364Y-63305000D01*
X120566988Y-63305000D01*
X120534075Y-63362007D01*
X120500000Y-63489174D01*
X120500000Y-63620826D01*
X120534075Y-63747993D01*
X120566988Y-63805000D01*
X119669364Y-63805000D01*
X119726567Y-64018486D01*
X119726570Y-64018492D01*
X119826399Y-64232578D01*
X119961894Y-64426082D01*
X120128917Y-64593105D01*
X120322421Y-64728600D01*
X120536507Y-64828429D01*
X120536516Y-64828433D01*
X120750000Y-64885634D01*
X120750000Y-63988012D01*
X120807007Y-64020925D01*
X120934174Y-64055000D01*
X121065826Y-64055000D01*
X121192993Y-64020925D01*
X121250000Y-63988012D01*
X121250000Y-64885633D01*
X121463483Y-64828433D01*
X121463492Y-64828429D01*
X121677578Y-64728600D01*
X121871082Y-64593105D01*
X122038105Y-64426082D01*
X122173600Y-64232578D01*
X122273429Y-64018492D01*
X122273432Y-64018486D01*
X122330636Y-63805000D01*
X121433012Y-63805000D01*
X121465925Y-63747993D01*
X121500000Y-63620826D01*
X121500000Y-63489174D01*
X121465925Y-63362007D01*
X121433012Y-63305000D01*
X122330636Y-63305000D01*
X122330635Y-63304999D01*
X122273432Y-63091513D01*
X122273429Y-63091507D01*
X122173600Y-62877422D01*
X122173599Y-62877420D01*
X122038113Y-62683926D01*
X122038108Y-62683920D01*
X121871082Y-62516894D01*
X121677578Y-62381399D01*
X121478426Y-62288533D01*
X121425987Y-62242360D01*
X121406835Y-62175167D01*
X121427051Y-62108286D01*
X121480216Y-62062951D01*
X121486005Y-62060537D01*
X121515019Y-62049298D01*
X121696302Y-61937052D01*
X121853872Y-61793407D01*
X121982366Y-61623255D01*
X121982367Y-61623253D01*
X122077403Y-61432394D01*
X122077403Y-61432393D01*
X122077405Y-61432389D01*
X122135756Y-61227310D01*
X122155429Y-61015000D01*
X122135756Y-60802690D01*
X122077405Y-60597611D01*
X122077403Y-60597606D01*
X122077403Y-60597605D01*
X121982367Y-60406746D01*
X121853872Y-60236593D01*
X121827722Y-60212754D01*
X121696302Y-60092948D01*
X121515019Y-59980702D01*
X121515017Y-59980701D01*
X121373044Y-59925701D01*
X121316198Y-59903679D01*
X121143456Y-59871387D01*
X121081176Y-59839719D01*
X121045903Y-59779407D01*
X121048837Y-59709599D01*
X121089046Y-59652459D01*
X121153764Y-59626128D01*
X121166233Y-59625499D01*
X121894864Y-59625499D01*
X121894879Y-59625497D01*
X121894882Y-59625497D01*
X121919987Y-59622586D01*
X121919988Y-59622585D01*
X121919991Y-59622585D01*
X122022765Y-59577206D01*
X122102206Y-59497765D01*
X122147585Y-59394991D01*
X122150500Y-59369865D01*
X122150499Y-57580136D01*
X122148720Y-57564792D01*
X122147586Y-57555012D01*
X122147585Y-57555010D01*
X122147585Y-57555009D01*
X122102206Y-57452235D01*
X122022765Y-57372794D01*
X122022763Y-57372793D01*
X121919992Y-57327415D01*
X121894865Y-57324500D01*
X120105143Y-57324500D01*
X120105117Y-57324502D01*
X120080012Y-57327413D01*
X120080008Y-57327415D01*
X119977235Y-57372793D01*
X119897794Y-57452234D01*
X119852415Y-57555006D01*
X119852415Y-57555008D01*
X119851280Y-57564792D01*
X119823999Y-57629116D01*
X119766273Y-57668480D01*
X119728106Y-57674500D01*
X39966553Y-57674500D01*
X39811910Y-57705260D01*
X39811902Y-57705262D01*
X39666224Y-57765604D01*
X39666214Y-57765609D01*
X39535111Y-57853210D01*
X39535107Y-57853213D01*
X37175568Y-60212754D01*
X36414111Y-60974211D01*
X36373323Y-61014999D01*
X36302609Y-61085712D01*
X36215009Y-61216814D01*
X36215002Y-61216827D01*
X36154664Y-61362498D01*
X36154661Y-61362510D01*
X36123900Y-61517153D01*
X36123900Y-123639346D01*
X36154661Y-123793989D01*
X36154664Y-123794001D01*
X36215002Y-123939672D01*
X36215009Y-123939685D01*
X36302610Y-124070788D01*
X36302613Y-124070792D01*
X37357311Y-125125489D01*
X37468811Y-125236989D01*
X37468812Y-125236990D01*
X37599914Y-125324590D01*
X37599927Y-125324597D01*
X37745598Y-125384935D01*
X37745603Y-125384937D01*
X37900253Y-125415699D01*
X37900256Y-125415700D01*
X37900258Y-125415700D01*
X39112260Y-125415700D01*
X39179299Y-125435385D01*
X39199941Y-125452019D01*
X41000487Y-127252565D01*
X41033972Y-127313888D01*
X41028988Y-127383580D01*
X40987116Y-127439513D01*
X40923616Y-127463774D01*
X40904682Y-127465430D01*
X40904673Y-127465432D01*
X40676516Y-127526566D01*
X40676507Y-127526570D01*
X40462422Y-127626399D01*
X40462420Y-127626400D01*
X40268926Y-127761886D01*
X40268920Y-127761891D01*
X40101891Y-127928920D01*
X40101890Y-127928922D01*
X39976074Y-128108606D01*
X39921497Y-128152230D01*
X39851998Y-128159423D01*
X39789644Y-128127901D01*
X39754230Y-128067671D01*
X39750499Y-128037482D01*
X39750499Y-127905143D01*
X39750499Y-127905136D01*
X39750497Y-127905117D01*
X39747586Y-127880012D01*
X39747585Y-127880010D01*
X39747585Y-127880009D01*
X39702206Y-127777235D01*
X39622765Y-127697794D01*
X39602124Y-127688680D01*
X39519992Y-127652415D01*
X39494865Y-127649500D01*
X37705143Y-127649500D01*
X37705117Y-127649502D01*
X37680012Y-127652413D01*
X37680008Y-127652415D01*
X37577235Y-127697793D01*
X37497794Y-127777234D01*
X37452415Y-127880006D01*
X37452415Y-127880008D01*
X37449500Y-127905131D01*
X37449500Y-129108060D01*
X37429815Y-129175099D01*
X37377011Y-129220854D01*
X37307853Y-129230798D01*
X37244297Y-129201773D01*
X37237819Y-129195741D01*
X35659819Y-127617741D01*
X35626334Y-127556418D01*
X35623500Y-127530060D01*
X35623500Y-63164155D01*
X35623499Y-63164153D01*
X35601787Y-63055000D01*
X35592737Y-63009503D01*
X35588801Y-63000000D01*
X35532397Y-62863827D01*
X35532390Y-62863814D01*
X35444790Y-62732712D01*
X35395998Y-62683920D01*
X35333289Y-62621211D01*
X31186818Y-58474740D01*
X31153333Y-58413417D01*
X31150499Y-58387059D01*
X31150499Y-57525143D01*
X31150499Y-57525136D01*
X31150497Y-57525117D01*
X31147586Y-57500012D01*
X31147585Y-57500010D01*
X31147585Y-57500009D01*
X31102206Y-57397235D01*
X31022765Y-57317794D01*
X31022763Y-57317793D01*
X30919992Y-57272415D01*
X30894865Y-57269500D01*
X29105143Y-57269500D01*
X29105117Y-57269502D01*
X29080012Y-57272413D01*
X29080008Y-57272415D01*
X28977235Y-57317793D01*
X28897794Y-57397234D01*
X28852415Y-57500006D01*
X28852415Y-57500008D01*
X28849500Y-57525131D01*
X28849500Y-59314856D01*
X28849502Y-59314882D01*
X28852413Y-59339987D01*
X28852415Y-59339991D01*
X28897793Y-59442764D01*
X28897794Y-59442765D01*
X28977235Y-59522206D01*
X29080009Y-59567585D01*
X29105135Y-59570500D01*
X29833758Y-59570499D01*
X29900797Y-59590183D01*
X29946552Y-59642987D01*
X29956496Y-59712146D01*
X29927471Y-59775702D01*
X29868693Y-59813476D01*
X29856544Y-59816387D01*
X29683802Y-59848679D01*
X29683799Y-59848679D01*
X29683799Y-59848680D01*
X29484982Y-59925701D01*
X29484980Y-59925702D01*
X29303699Y-60037947D01*
X29146127Y-60181593D01*
X29017632Y-60351746D01*
X28922596Y-60542605D01*
X28922596Y-60542607D01*
X28884802Y-60675439D01*
X28864244Y-60747690D01*
X28844571Y-60960000D01*
X28864244Y-61172310D01*
X28918361Y-61362510D01*
X28922596Y-61377392D01*
X28922596Y-61377394D01*
X29017632Y-61568253D01*
X29017634Y-61568255D01*
X29146128Y-61738407D01*
X29303698Y-61882052D01*
X29484981Y-61994298D01*
X29513961Y-62005525D01*
X29569362Y-62048095D01*
X29592954Y-62113861D01*
X29577244Y-62181942D01*
X29527222Y-62230722D01*
X29521573Y-62233533D01*
X29322422Y-62326399D01*
X29322420Y-62326400D01*
X29128926Y-62461886D01*
X29128920Y-62461891D01*
X28961891Y-62628920D01*
X28961886Y-62628926D01*
X28826400Y-62822420D01*
X28826399Y-62822422D01*
X28726570Y-63036507D01*
X28726567Y-63036513D01*
X28669364Y-63249999D01*
X28669364Y-63250000D01*
X29566988Y-63250000D01*
X29534075Y-63307007D01*
X29500000Y-63434174D01*
X29500000Y-63565826D01*
X29534075Y-63692993D01*
X29566988Y-63750000D01*
X28669364Y-63750000D01*
X28726567Y-63963486D01*
X28726570Y-63963492D01*
X28826399Y-64177578D01*
X28961894Y-64371082D01*
X29128917Y-64538105D01*
X29322421Y-64673600D01*
X29536507Y-64773429D01*
X29536516Y-64773433D01*
X29750000Y-64830634D01*
X29750000Y-63933012D01*
X29807007Y-63965925D01*
X29934174Y-64000000D01*
X30065826Y-64000000D01*
X30192993Y-63965925D01*
X30250000Y-63933012D01*
X30250000Y-64830633D01*
X30463483Y-64773433D01*
X30463492Y-64773429D01*
X30677579Y-64673599D01*
X30677585Y-64673595D01*
X30791876Y-64593568D01*
X30858082Y-64571240D01*
X30925849Y-64588250D01*
X30973663Y-64639197D01*
X30987000Y-64695142D01*
X30987000Y-69685500D01*
X30967315Y-69752539D01*
X30914511Y-69798294D01*
X30863000Y-69809500D01*
X29105143Y-69809500D01*
X29105117Y-69809502D01*
X29080012Y-69812413D01*
X29080008Y-69812415D01*
X28977235Y-69857793D01*
X28897794Y-69937234D01*
X28852415Y-70040006D01*
X28852415Y-70040008D01*
X28849500Y-70065131D01*
X28849500Y-71854856D01*
X28849502Y-71854882D01*
X28852413Y-71879987D01*
X28852415Y-71879991D01*
X28897793Y-71982764D01*
X28897794Y-71982765D01*
X28977235Y-72062206D01*
X29080009Y-72107585D01*
X29105135Y-72110500D01*
X29833758Y-72110499D01*
X29900795Y-72130183D01*
X29946550Y-72182987D01*
X29956494Y-72252146D01*
X29927469Y-72315702D01*
X29868691Y-72353476D01*
X29856542Y-72356388D01*
X29800116Y-72366935D01*
X29683802Y-72388679D01*
X29683800Y-72388679D01*
X29683798Y-72388680D01*
X29484982Y-72465701D01*
X29484980Y-72465702D01*
X29303699Y-72577947D01*
X29146127Y-72721593D01*
X29017632Y-72891746D01*
X28922596Y-73082605D01*
X28922596Y-73082607D01*
X28864244Y-73287689D01*
X28844571Y-73499999D01*
X28844571Y-73500000D01*
X28864244Y-73712310D01*
X28922596Y-73917392D01*
X28922596Y-73917394D01*
X29017632Y-74108253D01*
X29146127Y-74278406D01*
X29146128Y-74278407D01*
X29303698Y-74422052D01*
X29484981Y-74534298D01*
X29513961Y-74545525D01*
X29569362Y-74588095D01*
X29592954Y-74653861D01*
X29577244Y-74721942D01*
X29527222Y-74770722D01*
X29521573Y-74773533D01*
X29322422Y-74866399D01*
X29322420Y-74866400D01*
X29128926Y-75001886D01*
X29128920Y-75001891D01*
X28961891Y-75168920D01*
X28961886Y-75168926D01*
X28826400Y-75362420D01*
X28826399Y-75362422D01*
X28726570Y-75576507D01*
X28726567Y-75576513D01*
X28669364Y-75789999D01*
X28669364Y-75790000D01*
X29566988Y-75790000D01*
X29534075Y-75847007D01*
X29500000Y-75974174D01*
X29500000Y-76105826D01*
X29534075Y-76232993D01*
X29566988Y-76290000D01*
X28669364Y-76290000D01*
X28726567Y-76503486D01*
X28726570Y-76503492D01*
X28826399Y-76717578D01*
X28961894Y-76911082D01*
X29128917Y-77078105D01*
X29322421Y-77213600D01*
X29536507Y-77313429D01*
X29536516Y-77313433D01*
X29750000Y-77370634D01*
X29750000Y-76473012D01*
X29807007Y-76505925D01*
X29934174Y-76540000D01*
X30065826Y-76540000D01*
X30192993Y-76505925D01*
X30250000Y-76473012D01*
X30250000Y-77370633D01*
X30463483Y-77313433D01*
X30463492Y-77313429D01*
X30677579Y-77213599D01*
X30677585Y-77213595D01*
X30791876Y-77133568D01*
X30858082Y-77111240D01*
X30925849Y-77128250D01*
X30973663Y-77179197D01*
X30987000Y-77235142D01*
X30987000Y-82645500D01*
X30967315Y-82712539D01*
X30914511Y-82758294D01*
X30863000Y-82769500D01*
X29105143Y-82769500D01*
X29105117Y-82769502D01*
X29080012Y-82772413D01*
X29080008Y-82772415D01*
X28977235Y-82817793D01*
X28897794Y-82897234D01*
X28852415Y-83000006D01*
X28852415Y-83000008D01*
X28849500Y-83025131D01*
X28849500Y-84814856D01*
X28849502Y-84814882D01*
X28852413Y-84839987D01*
X28852415Y-84839991D01*
X28897793Y-84942764D01*
X28897794Y-84942765D01*
X28977235Y-85022206D01*
X29080009Y-85067585D01*
X29105135Y-85070500D01*
X29833758Y-85070499D01*
X29900795Y-85090183D01*
X29946550Y-85142987D01*
X29956494Y-85212146D01*
X29927469Y-85275702D01*
X29868691Y-85313476D01*
X29856542Y-85316388D01*
X29800116Y-85326935D01*
X29683802Y-85348679D01*
X29683800Y-85348679D01*
X29683798Y-85348680D01*
X29484982Y-85425701D01*
X29484980Y-85425702D01*
X29303699Y-85537947D01*
X29146127Y-85681593D01*
X29017632Y-85851746D01*
X28922596Y-86042605D01*
X28922596Y-86042607D01*
X28864244Y-86247689D01*
X28844571Y-86459999D01*
X28844571Y-86460000D01*
X28864244Y-86672310D01*
X28922596Y-86877392D01*
X28922596Y-86877394D01*
X29017632Y-87068253D01*
X29139581Y-87229738D01*
X29146128Y-87238407D01*
X29303698Y-87382052D01*
X29484981Y-87494298D01*
X29513961Y-87505525D01*
X29569362Y-87548095D01*
X29592954Y-87613861D01*
X29577244Y-87681942D01*
X29527222Y-87730722D01*
X29521573Y-87733533D01*
X29322422Y-87826399D01*
X29322420Y-87826400D01*
X29128926Y-87961886D01*
X29128920Y-87961891D01*
X28961891Y-88128920D01*
X28961886Y-88128926D01*
X28826400Y-88322420D01*
X28826399Y-88322422D01*
X28726570Y-88536507D01*
X28726567Y-88536513D01*
X28669364Y-88749999D01*
X28669364Y-88750000D01*
X29566988Y-88750000D01*
X29534075Y-88807007D01*
X29500000Y-88934174D01*
X29500000Y-89065826D01*
X29534075Y-89192993D01*
X29566988Y-89250000D01*
X28669364Y-89250000D01*
X25500500Y-89250000D01*
X25500500Y-49121288D01*
X28149500Y-49121288D01*
X28181161Y-49361785D01*
X28243947Y-49596104D01*
X28273242Y-49666827D01*
X28336776Y-49820212D01*
X28458064Y-50030289D01*
X28458066Y-50030292D01*
X28458067Y-50030293D01*
X28605733Y-50222736D01*
X28605739Y-50222743D01*
X28777256Y-50394260D01*
X28777263Y-50394266D01*
X28826463Y-50432018D01*
X28969711Y-50541936D01*
X29179788Y-50663224D01*
X29403900Y-50756054D01*
X29638211Y-50818838D01*
X29818586Y-50842584D01*
X29878711Y-50850500D01*
X29878712Y-50850500D01*
X30121289Y-50850500D01*
X30169388Y-50844167D01*
X30361789Y-50818838D01*
X30596100Y-50756054D01*
X30820212Y-50663224D01*
X31030289Y-50541936D01*
X31222738Y-50394265D01*
X31394265Y-50222738D01*
X31541936Y-50030289D01*
X31663224Y-49820212D01*
X31756054Y-49596100D01*
X31818838Y-49361789D01*
X31837810Y-49217681D01*
X37751580Y-49217681D01*
X37770553Y-49361785D01*
X37781532Y-49445178D01*
X37784255Y-49455340D01*
X37840922Y-49666827D01*
X37928730Y-49878816D01*
X37928737Y-49878830D01*
X38043472Y-50077557D01*
X38183161Y-50259601D01*
X38183169Y-50259610D01*
X38345410Y-50421851D01*
X38345418Y-50421858D01*
X38345419Y-50421859D01*
X38358660Y-50432019D01*
X38527462Y-50561547D01*
X38527465Y-50561548D01*
X38527468Y-50561551D01*
X38726192Y-50676284D01*
X38726197Y-50676286D01*
X38726203Y-50676289D01*
X38750715Y-50686442D01*
X38938193Y-50764098D01*
X39159842Y-50823488D01*
X39387346Y-50853440D01*
X39387353Y-50853440D01*
X39616807Y-50853440D01*
X39616814Y-50853440D01*
X39844318Y-50823488D01*
X40065967Y-50764098D01*
X40277968Y-50676284D01*
X40476692Y-50561551D01*
X40658741Y-50421859D01*
X40658745Y-50421854D01*
X40658750Y-50421851D01*
X40820991Y-50259610D01*
X40820994Y-50259605D01*
X40820999Y-50259601D01*
X40960691Y-50077552D01*
X41075424Y-49878828D01*
X41163238Y-49666827D01*
X41222628Y-49445178D01*
X41251241Y-49227841D01*
X105747380Y-49227841D01*
X105765015Y-49361785D01*
X105777332Y-49455338D01*
X105777333Y-49455340D01*
X105836722Y-49676987D01*
X105924530Y-49888976D01*
X105924537Y-49888990D01*
X106039272Y-50087717D01*
X106178961Y-50269761D01*
X106178969Y-50269770D01*
X106341210Y-50432011D01*
X106341218Y-50432018D01*
X106523262Y-50571707D01*
X106523265Y-50571708D01*
X106523268Y-50571711D01*
X106721992Y-50686444D01*
X106721997Y-50686446D01*
X106722003Y-50686449D01*
X106813360Y-50724290D01*
X106933993Y-50774258D01*
X107155642Y-50833648D01*
X107383146Y-50863600D01*
X107383153Y-50863600D01*
X107612607Y-50863600D01*
X107612614Y-50863600D01*
X107840118Y-50833648D01*
X108061767Y-50774258D01*
X108273768Y-50686444D01*
X108472492Y-50571711D01*
X108654541Y-50432019D01*
X108654545Y-50432014D01*
X108654550Y-50432011D01*
X108816791Y-50269770D01*
X108816794Y-50269765D01*
X108816799Y-50269761D01*
X108956491Y-50087712D01*
X109071224Y-49888988D01*
X109159038Y-49676987D01*
X109218428Y-49455338D01*
X109248380Y-49227834D01*
X109248380Y-49121288D01*
X118149500Y-49121288D01*
X118181161Y-49361785D01*
X118243947Y-49596104D01*
X118273242Y-49666827D01*
X118336776Y-49820212D01*
X118458064Y-50030289D01*
X118458066Y-50030292D01*
X118458067Y-50030293D01*
X118605733Y-50222736D01*
X118605739Y-50222743D01*
X118777256Y-50394260D01*
X118777263Y-50394266D01*
X118826463Y-50432018D01*
X118969711Y-50541936D01*
X119179788Y-50663224D01*
X119403900Y-50756054D01*
X119638211Y-50818838D01*
X119818586Y-50842584D01*
X119878711Y-50850500D01*
X119878712Y-50850500D01*
X120121289Y-50850500D01*
X120169388Y-50844167D01*
X120361789Y-50818838D01*
X120596100Y-50756054D01*
X120820212Y-50663224D01*
X121030289Y-50541936D01*
X121222738Y-50394265D01*
X121394265Y-50222738D01*
X121541936Y-50030289D01*
X121663224Y-49820212D01*
X121756054Y-49596100D01*
X121818838Y-49361789D01*
X121850500Y-49121288D01*
X121850500Y-48878712D01*
X121818838Y-48638211D01*
X121756054Y-48403900D01*
X121663224Y-48179788D01*
X121541936Y-47969711D01*
X121407254Y-47794189D01*
X121394266Y-47777263D01*
X121394260Y-47777256D01*
X121222743Y-47605739D01*
X121222736Y-47605733D01*
X121030293Y-47458067D01*
X121030292Y-47458066D01*
X121030289Y-47458064D01*
X120820212Y-47336776D01*
X120820205Y-47336773D01*
X120596104Y-47243947D01*
X120361785Y-47181161D01*
X120121289Y-47149500D01*
X120121288Y-47149500D01*
X119878712Y-47149500D01*
X119878711Y-47149500D01*
X119638214Y-47181161D01*
X119403895Y-47243947D01*
X119179794Y-47336773D01*
X119179785Y-47336777D01*
X118969706Y-47458067D01*
X118777263Y-47605733D01*
X118777256Y-47605739D01*
X118605739Y-47777256D01*
X118605733Y-47777263D01*
X118458067Y-47969706D01*
X118336777Y-48179785D01*
X118336773Y-48179794D01*
X118243947Y-48403895D01*
X118181161Y-48638214D01*
X118149500Y-48878711D01*
X118149500Y-49121288D01*
X109248380Y-49121288D01*
X109248380Y-48998366D01*
X109218428Y-48770862D01*
X109159038Y-48549213D01*
X109071224Y-48337212D01*
X108956491Y-48138488D01*
X108956488Y-48138485D01*
X108956487Y-48138482D01*
X108816798Y-47956438D01*
X108816791Y-47956430D01*
X108654550Y-47794189D01*
X108654541Y-47794181D01*
X108472497Y-47654492D01*
X108454899Y-47644332D01*
X108273768Y-47539756D01*
X108273756Y-47539750D01*
X108061767Y-47451942D01*
X108023849Y-47441782D01*
X107840118Y-47392552D01*
X107802095Y-47387546D01*
X107612621Y-47362600D01*
X107612614Y-47362600D01*
X107383146Y-47362600D01*
X107383138Y-47362600D01*
X107166595Y-47391109D01*
X107155642Y-47392552D01*
X107061956Y-47417654D01*
X106933992Y-47451942D01*
X106722003Y-47539750D01*
X106721989Y-47539757D01*
X106523262Y-47654492D01*
X106341218Y-47794181D01*
X106178961Y-47956438D01*
X106039272Y-48138482D01*
X105924537Y-48337209D01*
X105924530Y-48337223D01*
X105836722Y-48549212D01*
X105802434Y-48677176D01*
X105780055Y-48760702D01*
X105777333Y-48770859D01*
X105777331Y-48770870D01*
X105747380Y-48998358D01*
X105747380Y-49227841D01*
X41251241Y-49227841D01*
X41252580Y-49217674D01*
X41252580Y-48988206D01*
X41222628Y-48760702D01*
X41163238Y-48539053D01*
X41079637Y-48337223D01*
X41075429Y-48327063D01*
X41075426Y-48327057D01*
X41075424Y-48327052D01*
X40960691Y-48128328D01*
X40960688Y-48128325D01*
X40960687Y-48128322D01*
X40820998Y-47946278D01*
X40820991Y-47946270D01*
X40658750Y-47784029D01*
X40658741Y-47784021D01*
X40476697Y-47644332D01*
X40277970Y-47529597D01*
X40277956Y-47529590D01*
X40065967Y-47441782D01*
X40018883Y-47429166D01*
X39844318Y-47382392D01*
X39806295Y-47377386D01*
X39616821Y-47352440D01*
X39616814Y-47352440D01*
X39387346Y-47352440D01*
X39387338Y-47352440D01*
X39170795Y-47380949D01*
X39159842Y-47382392D01*
X39066156Y-47407494D01*
X38938192Y-47441782D01*
X38726203Y-47529590D01*
X38726189Y-47529597D01*
X38527462Y-47644332D01*
X38345418Y-47784021D01*
X38183161Y-47946278D01*
X38043472Y-48128322D01*
X37928737Y-48327049D01*
X37928730Y-48327063D01*
X37840922Y-48539052D01*
X37781533Y-48760699D01*
X37781531Y-48760710D01*
X37751580Y-48988198D01*
X37751580Y-49217681D01*
X31837810Y-49217681D01*
X31850500Y-49121288D01*
X31850500Y-48878712D01*
X31818838Y-48638211D01*
X31756054Y-48403900D01*
X31663224Y-48179788D01*
X31541936Y-47969711D01*
X31407254Y-47794189D01*
X31394266Y-47777263D01*
X31394260Y-47777256D01*
X31222743Y-47605739D01*
X31222736Y-47605733D01*
X31030293Y-47458067D01*
X31030292Y-47458066D01*
X31030289Y-47458064D01*
X30820212Y-47336776D01*
X30820205Y-47336773D01*
X30596104Y-47243947D01*
X30361785Y-47181161D01*
X30121289Y-47149500D01*
X30121288Y-47149500D01*
X29878712Y-47149500D01*
X29878711Y-47149500D01*
X29638214Y-47181161D01*
X29403895Y-47243947D01*
X29179794Y-47336773D01*
X29179785Y-47336777D01*
X28969706Y-47458067D01*
X28777263Y-47605733D01*
X28777256Y-47605739D01*
X28605739Y-47777256D01*
X28605733Y-47777263D01*
X28458067Y-47969706D01*
X28336777Y-48179785D01*
X28336773Y-48179794D01*
X28243947Y-48403895D01*
X28181161Y-48638214D01*
X28149500Y-48878711D01*
X28149500Y-49121288D01*
X25500500Y-49121288D01*
X25500500Y-49002706D01*
X25500618Y-48997297D01*
X25503377Y-48934108D01*
X25517386Y-48613226D01*
X25518326Y-48602495D01*
X25568152Y-48224025D01*
X25570025Y-48213405D01*
X25652649Y-47840709D01*
X25655440Y-47830295D01*
X25770230Y-47466227D01*
X25773917Y-47456095D01*
X25920003Y-47103412D01*
X25924561Y-47093638D01*
X26100822Y-46755045D01*
X26106217Y-46745700D01*
X26311325Y-46423744D01*
X26317515Y-46414905D01*
X26549896Y-46112060D01*
X26556834Y-46103791D01*
X26814726Y-45822352D01*
X26822352Y-45814726D01*
X27103791Y-45556834D01*
X27112060Y-45549896D01*
X27414905Y-45317515D01*
X27423744Y-45311325D01*
X27745700Y-45106217D01*
X27755045Y-45100822D01*
X28093638Y-44924561D01*
X28103412Y-44920003D01*
X28456095Y-44773917D01*
X28466227Y-44770230D01*
X28830295Y-44655440D01*
X28840709Y-44652649D01*
X29213405Y-44570025D01*
X29224025Y-44568152D01*
X29602495Y-44518326D01*
X29613226Y-44517386D01*
X29997297Y-44500617D01*
X30002706Y-44500500D01*
X30065892Y-44500500D01*
X119934108Y-44500500D01*
X119997294Y-44500500D01*
X120002702Y-44500617D01*
G37*
%TD.AperFunction*%
%TD*%
M02*
