M48
; DRILL file {KiCad 8.0.1} date 2024-04-17T02:22:19+0200
; FORMAT={-:-/ absolute / inch / decimal}
; #@! TF.CreationDate,2024-04-17T02:22:19+02:00
; #@! TF.GenerationSoftware,Kicad,Pcbnew,8.0.1
; #@! TF.FileFunction,Plated,1,2,PTH
FMAT,2
INCH
; #@! TA.AperFunction,Plated,PTH,ViaDrill
T1C0.0118
; #@! TA.AperFunction,Plated,PTH,ComponentDrill
T2C0.0236
; #@! TA.AperFunction,Plated,PTH,ComponentDrill
T3C0.0300
; #@! TA.AperFunction,Plated,PTH,ComponentDrill
T4C0.0315
; #@! TA.AperFunction,Plated,PTH,ComponentDrill
T5C0.0394
; #@! TA.AperFunction,Plated,PTH,ComponentDrill
T6C0.0472
%
G90
G05
T1
X2.3149Y-4.5349
X2.5Y-4.37
X2.7698Y-4.4293
X2.8948Y-4.5349
T2
X2.48Y-3.89
X2.48Y-3.9687
T3
X1.574Y-2.3946
X1.574Y-2.4946
X1.574Y-2.5946
X1.574Y-2.6946
X1.574Y-2.7946
X1.574Y-2.8946
X1.574Y-2.9946
X1.9004Y-3.8526
X1.9004Y-3.9526
X1.9004Y-4.0526
X1.9004Y-4.2526
X1.9004Y-4.3526
X1.9004Y-4.4526
X1.9004Y-4.5526
T4
X2.21Y-3.87
X2.21Y-3.9487
X2.665Y-3.8572
X2.665Y-3.995
X2.665Y-4.995
X2.665Y-5.1328
X2.765Y-3.8572
X2.765Y-3.995
X2.765Y-4.995
X2.765Y-5.1328
X2.865Y-3.8572
X2.865Y-3.995
X2.865Y-4.995
X2.865Y-5.1328
X2.965Y-3.8572
X2.965Y-3.995
X2.965Y-4.995
X2.965Y-5.1328
X3.065Y-3.8572
X3.065Y-3.995
X3.065Y-4.995
X3.065Y-5.1328
X3.165Y-3.8572
X3.165Y-3.995
X3.165Y-4.995
X3.165Y-5.1328
X3.265Y-3.8572
X3.265Y-3.995
X3.265Y-4.995
X3.265Y-5.1328
X3.365Y-3.8572
X3.365Y-3.995
X3.365Y-4.995
X3.365Y-5.1328
X3.465Y-3.8572
X3.465Y-3.995
X3.465Y-4.995
X3.465Y-5.1328
X3.565Y-3.8572
X3.565Y-3.995
X3.565Y-4.995
X3.565Y-5.1328
X3.665Y-3.8572
X3.665Y-3.995
X3.665Y-4.995
X3.665Y-5.1328
X3.765Y-3.8572
X3.765Y-3.995
X3.765Y-4.995
X3.765Y-5.1328
X3.865Y-3.8572
X3.865Y-3.995
X3.865Y-4.995
X3.865Y-5.1328
X3.965Y-3.8572
X3.965Y-3.995
X3.965Y-4.995
X3.965Y-5.1328
X4.065Y-3.8572
X4.065Y-3.995
X4.065Y-4.995
X4.065Y-5.1328
X4.165Y-3.8572
X4.165Y-3.995
X4.165Y-4.995
X4.165Y-5.1328
X4.265Y-3.8572
X4.265Y-3.995
X4.265Y-4.995
X4.265Y-5.1328
X4.3649Y-3.8573
X4.3649Y-3.9951
X4.365Y-4.995
X4.365Y-5.1328
X4.4649Y-3.8573
X4.4649Y-3.9951
X4.465Y-4.995
X4.465Y-5.1328
T5
X1.1811Y-2.3
X1.1811Y-2.4
X1.1811Y-2.5
X1.1811Y-2.7937
X1.1811Y-2.8937
X1.1811Y-2.9937
X1.1811Y-3.3039
X1.1811Y-3.4039
X1.1811Y-3.5039
X1.1992Y-3.7992
X1.1992Y-4.2323
X1.2Y-4.04
X1.2992Y-3.7992
X1.2992Y-4.2323
X1.3Y-4.04
X1.5197Y-4.8189
X1.5197Y-5.0709
X1.6197Y-4.8189
X1.6197Y-5.0709
X1.7197Y-4.8189
X1.7197Y-5.0709
X1.8197Y-4.8189
X1.8197Y-5.0709
X1.9197Y-4.8189
X1.9197Y-5.0709
X2.0197Y-4.8189
X2.0197Y-5.0709
X2.1197Y-5.0709
X2.3701Y-5.063
X2.4701Y-5.063
X4.7638Y-2.3022
X4.7638Y-2.4022
X4.7638Y-2.5022
X4.7638Y-3.3039
X4.7638Y-3.4039
X4.7638Y-3.5039
T6
X2.21Y-4.21
X2.21Y-4.61
M30
