%TF.GenerationSoftware,KiCad,Pcbnew,8.0.1*%
%TF.CreationDate,2024-07-22T19:23:19+02:00*%
%TF.ProjectId,Head Unit,48656164-2055-46e6-9974-2e6b69636164,rev?*%
%TF.SameCoordinates,Original*%
%TF.FileFunction,Legend,Bot*%
%TF.FilePolarity,Positive*%
%FSLAX46Y46*%
G04 Gerber Fmt 4.6, Leading zero omitted, Abs format (unit mm)*
G04 Created by KiCad (PCBNEW 8.0.1) date 2024-07-22 19:23:19*
%MOMM*%
%LPD*%
G01*
G04 APERTURE LIST*
%ADD10C,0.100000*%
%ADD11C,0.150000*%
%ADD12C,0.120000*%
G04 APERTURE END LIST*
D10*
X37000000Y-47250000D02*
X109000000Y-47250000D01*
X109000000Y-107250000D01*
X37000000Y-107250000D01*
X37000000Y-47250000D01*
D11*
X106554819Y-99504166D02*
X107269104Y-99504166D01*
X107269104Y-99504166D02*
X107411961Y-99456547D01*
X107411961Y-99456547D02*
X107507200Y-99361309D01*
X107507200Y-99361309D02*
X107554819Y-99218452D01*
X107554819Y-99218452D02*
X107554819Y-99123214D01*
X106554819Y-100408928D02*
X106554819Y-100218452D01*
X106554819Y-100218452D02*
X106602438Y-100123214D01*
X106602438Y-100123214D02*
X106650057Y-100075595D01*
X106650057Y-100075595D02*
X106792914Y-99980357D01*
X106792914Y-99980357D02*
X106983390Y-99932738D01*
X106983390Y-99932738D02*
X107364342Y-99932738D01*
X107364342Y-99932738D02*
X107459580Y-99980357D01*
X107459580Y-99980357D02*
X107507200Y-100027976D01*
X107507200Y-100027976D02*
X107554819Y-100123214D01*
X107554819Y-100123214D02*
X107554819Y-100313690D01*
X107554819Y-100313690D02*
X107507200Y-100408928D01*
X107507200Y-100408928D02*
X107459580Y-100456547D01*
X107459580Y-100456547D02*
X107364342Y-100504166D01*
X107364342Y-100504166D02*
X107126247Y-100504166D01*
X107126247Y-100504166D02*
X107031009Y-100456547D01*
X107031009Y-100456547D02*
X106983390Y-100408928D01*
X106983390Y-100408928D02*
X106935771Y-100313690D01*
X106935771Y-100313690D02*
X106935771Y-100123214D01*
X106935771Y-100123214D02*
X106983390Y-100027976D01*
X106983390Y-100027976D02*
X107031009Y-99980357D01*
X107031009Y-99980357D02*
X107126247Y-99932738D01*
X98204819Y-97074881D02*
X97204819Y-97074881D01*
X97681009Y-97074881D02*
X97681009Y-97646309D01*
X98204819Y-97646309D02*
X97204819Y-97646309D01*
X97204819Y-98122500D02*
X98014342Y-98122500D01*
X98014342Y-98122500D02*
X98109580Y-98170119D01*
X98109580Y-98170119D02*
X98157200Y-98217738D01*
X98157200Y-98217738D02*
X98204819Y-98312976D01*
X98204819Y-98312976D02*
X98204819Y-98503452D01*
X98204819Y-98503452D02*
X98157200Y-98598690D01*
X98157200Y-98598690D02*
X98109580Y-98646309D01*
X98109580Y-98646309D02*
X98014342Y-98693928D01*
X98014342Y-98693928D02*
X97204819Y-98693928D01*
X98109580Y-100503452D02*
X98157200Y-100455833D01*
X98157200Y-100455833D02*
X98204819Y-100312976D01*
X98204819Y-100312976D02*
X98204819Y-100217738D01*
X98204819Y-100217738D02*
X98157200Y-100074881D01*
X98157200Y-100074881D02*
X98061961Y-99979643D01*
X98061961Y-99979643D02*
X97966723Y-99932024D01*
X97966723Y-99932024D02*
X97776247Y-99884405D01*
X97776247Y-99884405D02*
X97633390Y-99884405D01*
X97633390Y-99884405D02*
X97442914Y-99932024D01*
X97442914Y-99932024D02*
X97347676Y-99979643D01*
X97347676Y-99979643D02*
X97252438Y-100074881D01*
X97252438Y-100074881D02*
X97204819Y-100217738D01*
X97204819Y-100217738D02*
X97204819Y-100312976D01*
X97204819Y-100312976D02*
X97252438Y-100455833D01*
X97252438Y-100455833D02*
X97300057Y-100503452D01*
X98204819Y-101074881D02*
X98157200Y-100979643D01*
X98157200Y-100979643D02*
X98109580Y-100932024D01*
X98109580Y-100932024D02*
X98014342Y-100884405D01*
X98014342Y-100884405D02*
X97728628Y-100884405D01*
X97728628Y-100884405D02*
X97633390Y-100932024D01*
X97633390Y-100932024D02*
X97585771Y-100979643D01*
X97585771Y-100979643D02*
X97538152Y-101074881D01*
X97538152Y-101074881D02*
X97538152Y-101217738D01*
X97538152Y-101217738D02*
X97585771Y-101312976D01*
X97585771Y-101312976D02*
X97633390Y-101360595D01*
X97633390Y-101360595D02*
X97728628Y-101408214D01*
X97728628Y-101408214D02*
X98014342Y-101408214D01*
X98014342Y-101408214D02*
X98109580Y-101360595D01*
X98109580Y-101360595D02*
X98157200Y-101312976D01*
X98157200Y-101312976D02*
X98204819Y-101217738D01*
X98204819Y-101217738D02*
X98204819Y-101074881D01*
X97538152Y-101836786D02*
X98204819Y-101836786D01*
X97633390Y-101836786D02*
X97585771Y-101884405D01*
X97585771Y-101884405D02*
X97538152Y-101979643D01*
X97538152Y-101979643D02*
X97538152Y-102122500D01*
X97538152Y-102122500D02*
X97585771Y-102217738D01*
X97585771Y-102217738D02*
X97681009Y-102265357D01*
X97681009Y-102265357D02*
X98204819Y-102265357D01*
X97538152Y-102741548D02*
X98204819Y-102741548D01*
X97633390Y-102741548D02*
X97585771Y-102789167D01*
X97585771Y-102789167D02*
X97538152Y-102884405D01*
X97538152Y-102884405D02*
X97538152Y-103027262D01*
X97538152Y-103027262D02*
X97585771Y-103122500D01*
X97585771Y-103122500D02*
X97681009Y-103170119D01*
X97681009Y-103170119D02*
X98204819Y-103170119D01*
X50951580Y-47313047D02*
X50999200Y-47265428D01*
X50999200Y-47265428D02*
X51046819Y-47122571D01*
X51046819Y-47122571D02*
X51046819Y-47027333D01*
X51046819Y-47027333D02*
X50999200Y-46884476D01*
X50999200Y-46884476D02*
X50903961Y-46789238D01*
X50903961Y-46789238D02*
X50808723Y-46741619D01*
X50808723Y-46741619D02*
X50618247Y-46694000D01*
X50618247Y-46694000D02*
X50475390Y-46694000D01*
X50475390Y-46694000D02*
X50284914Y-46741619D01*
X50284914Y-46741619D02*
X50189676Y-46789238D01*
X50189676Y-46789238D02*
X50094438Y-46884476D01*
X50094438Y-46884476D02*
X50046819Y-47027333D01*
X50046819Y-47027333D02*
X50046819Y-47122571D01*
X50046819Y-47122571D02*
X50094438Y-47265428D01*
X50094438Y-47265428D02*
X50142057Y-47313047D01*
X51046819Y-49027333D02*
X51046819Y-48455905D01*
X51046819Y-48741619D02*
X50046819Y-48741619D01*
X50046819Y-48741619D02*
X50189676Y-48646381D01*
X50189676Y-48646381D02*
X50284914Y-48551143D01*
X50284914Y-48551143D02*
X50332533Y-48455905D01*
X50046819Y-49646381D02*
X50046819Y-49741619D01*
X50046819Y-49741619D02*
X50094438Y-49836857D01*
X50094438Y-49836857D02*
X50142057Y-49884476D01*
X50142057Y-49884476D02*
X50237295Y-49932095D01*
X50237295Y-49932095D02*
X50427771Y-49979714D01*
X50427771Y-49979714D02*
X50665866Y-49979714D01*
X50665866Y-49979714D02*
X50856342Y-49932095D01*
X50856342Y-49932095D02*
X50951580Y-49884476D01*
X50951580Y-49884476D02*
X50999200Y-49836857D01*
X50999200Y-49836857D02*
X51046819Y-49741619D01*
X51046819Y-49741619D02*
X51046819Y-49646381D01*
X51046819Y-49646381D02*
X50999200Y-49551143D01*
X50999200Y-49551143D02*
X50951580Y-49503524D01*
X50951580Y-49503524D02*
X50856342Y-49455905D01*
X50856342Y-49455905D02*
X50665866Y-49408286D01*
X50665866Y-49408286D02*
X50427771Y-49408286D01*
X50427771Y-49408286D02*
X50237295Y-49455905D01*
X50237295Y-49455905D02*
X50142057Y-49503524D01*
X50142057Y-49503524D02*
X50094438Y-49551143D01*
X50094438Y-49551143D02*
X50046819Y-49646381D01*
X50046819Y-50598762D02*
X50046819Y-50694000D01*
X50046819Y-50694000D02*
X50094438Y-50789238D01*
X50094438Y-50789238D02*
X50142057Y-50836857D01*
X50142057Y-50836857D02*
X50237295Y-50884476D01*
X50237295Y-50884476D02*
X50427771Y-50932095D01*
X50427771Y-50932095D02*
X50665866Y-50932095D01*
X50665866Y-50932095D02*
X50856342Y-50884476D01*
X50856342Y-50884476D02*
X50951580Y-50836857D01*
X50951580Y-50836857D02*
X50999200Y-50789238D01*
X50999200Y-50789238D02*
X51046819Y-50694000D01*
X51046819Y-50694000D02*
X51046819Y-50598762D01*
X51046819Y-50598762D02*
X50999200Y-50503524D01*
X50999200Y-50503524D02*
X50951580Y-50455905D01*
X50951580Y-50455905D02*
X50856342Y-50408286D01*
X50856342Y-50408286D02*
X50665866Y-50360667D01*
X50665866Y-50360667D02*
X50427771Y-50360667D01*
X50427771Y-50360667D02*
X50237295Y-50408286D01*
X50237295Y-50408286D02*
X50142057Y-50455905D01*
X50142057Y-50455905D02*
X50094438Y-50503524D01*
X50094438Y-50503524D02*
X50046819Y-50598762D01*
X50380152Y-51360667D02*
X51046819Y-51360667D01*
X50475390Y-51360667D02*
X50427771Y-51408286D01*
X50427771Y-51408286D02*
X50380152Y-51503524D01*
X50380152Y-51503524D02*
X50380152Y-51646381D01*
X50380152Y-51646381D02*
X50427771Y-51741619D01*
X50427771Y-51741619D02*
X50523009Y-51789238D01*
X50523009Y-51789238D02*
X51046819Y-51789238D01*
X50523009Y-52598762D02*
X50523009Y-52265429D01*
X51046819Y-52265429D02*
X50046819Y-52265429D01*
X50046819Y-52265429D02*
X50046819Y-52741619D01*
X51334819Y-67938095D02*
X52144342Y-67938095D01*
X52144342Y-67938095D02*
X52239580Y-67985714D01*
X52239580Y-67985714D02*
X52287200Y-68033333D01*
X52287200Y-68033333D02*
X52334819Y-68128571D01*
X52334819Y-68128571D02*
X52334819Y-68319047D01*
X52334819Y-68319047D02*
X52287200Y-68414285D01*
X52287200Y-68414285D02*
X52239580Y-68461904D01*
X52239580Y-68461904D02*
X52144342Y-68509523D01*
X52144342Y-68509523D02*
X51334819Y-68509523D01*
X52334819Y-69509523D02*
X52334819Y-68938095D01*
X52334819Y-69223809D02*
X51334819Y-69223809D01*
X51334819Y-69223809D02*
X51477676Y-69128571D01*
X51477676Y-69128571D02*
X51572914Y-69033333D01*
X51572914Y-69033333D02*
X51620533Y-68938095D01*
X83705237Y-68631009D02*
X83371904Y-68631009D01*
X83229047Y-69154819D02*
X83705237Y-69154819D01*
X83705237Y-69154819D02*
X83705237Y-68154819D01*
X83705237Y-68154819D02*
X83229047Y-68154819D01*
X82848094Y-69107200D02*
X82705237Y-69154819D01*
X82705237Y-69154819D02*
X82467142Y-69154819D01*
X82467142Y-69154819D02*
X82371904Y-69107200D01*
X82371904Y-69107200D02*
X82324285Y-69059580D01*
X82324285Y-69059580D02*
X82276666Y-68964342D01*
X82276666Y-68964342D02*
X82276666Y-68869104D01*
X82276666Y-68869104D02*
X82324285Y-68773866D01*
X82324285Y-68773866D02*
X82371904Y-68726247D01*
X82371904Y-68726247D02*
X82467142Y-68678628D01*
X82467142Y-68678628D02*
X82657618Y-68631009D01*
X82657618Y-68631009D02*
X82752856Y-68583390D01*
X82752856Y-68583390D02*
X82800475Y-68535771D01*
X82800475Y-68535771D02*
X82848094Y-68440533D01*
X82848094Y-68440533D02*
X82848094Y-68345295D01*
X82848094Y-68345295D02*
X82800475Y-68250057D01*
X82800475Y-68250057D02*
X82752856Y-68202438D01*
X82752856Y-68202438D02*
X82657618Y-68154819D01*
X82657618Y-68154819D02*
X82419523Y-68154819D01*
X82419523Y-68154819D02*
X82276666Y-68202438D01*
X81848094Y-69154819D02*
X81848094Y-68154819D01*
X81848094Y-68154819D02*
X81467142Y-68154819D01*
X81467142Y-68154819D02*
X81371904Y-68202438D01*
X81371904Y-68202438D02*
X81324285Y-68250057D01*
X81324285Y-68250057D02*
X81276666Y-68345295D01*
X81276666Y-68345295D02*
X81276666Y-68488152D01*
X81276666Y-68488152D02*
X81324285Y-68583390D01*
X81324285Y-68583390D02*
X81371904Y-68631009D01*
X81371904Y-68631009D02*
X81467142Y-68678628D01*
X81467142Y-68678628D02*
X81848094Y-68678628D01*
X80943332Y-68154819D02*
X80324285Y-68154819D01*
X80324285Y-68154819D02*
X80657618Y-68535771D01*
X80657618Y-68535771D02*
X80514761Y-68535771D01*
X80514761Y-68535771D02*
X80419523Y-68583390D01*
X80419523Y-68583390D02*
X80371904Y-68631009D01*
X80371904Y-68631009D02*
X80324285Y-68726247D01*
X80324285Y-68726247D02*
X80324285Y-68964342D01*
X80324285Y-68964342D02*
X80371904Y-69059580D01*
X80371904Y-69059580D02*
X80419523Y-69107200D01*
X80419523Y-69107200D02*
X80514761Y-69154819D01*
X80514761Y-69154819D02*
X80800475Y-69154819D01*
X80800475Y-69154819D02*
X80895713Y-69107200D01*
X80895713Y-69107200D02*
X80943332Y-69059580D01*
X79943332Y-68250057D02*
X79895713Y-68202438D01*
X79895713Y-68202438D02*
X79800475Y-68154819D01*
X79800475Y-68154819D02*
X79562380Y-68154819D01*
X79562380Y-68154819D02*
X79467142Y-68202438D01*
X79467142Y-68202438D02*
X79419523Y-68250057D01*
X79419523Y-68250057D02*
X79371904Y-68345295D01*
X79371904Y-68345295D02*
X79371904Y-68440533D01*
X79371904Y-68440533D02*
X79419523Y-68583390D01*
X79419523Y-68583390D02*
X79990951Y-69154819D01*
X79990951Y-69154819D02*
X79371904Y-69154819D01*
X78943332Y-68773866D02*
X78181428Y-68773866D01*
X77705237Y-69154819D02*
X77705237Y-68154819D01*
X77705237Y-68154819D02*
X77467142Y-68154819D01*
X77467142Y-68154819D02*
X77324285Y-68202438D01*
X77324285Y-68202438D02*
X77229047Y-68297676D01*
X77229047Y-68297676D02*
X77181428Y-68392914D01*
X77181428Y-68392914D02*
X77133809Y-68583390D01*
X77133809Y-68583390D02*
X77133809Y-68726247D01*
X77133809Y-68726247D02*
X77181428Y-68916723D01*
X77181428Y-68916723D02*
X77229047Y-69011961D01*
X77229047Y-69011961D02*
X77324285Y-69107200D01*
X77324285Y-69107200D02*
X77467142Y-69154819D01*
X77467142Y-69154819D02*
X77705237Y-69154819D01*
X76324285Y-69107200D02*
X76419523Y-69154819D01*
X76419523Y-69154819D02*
X76609999Y-69154819D01*
X76609999Y-69154819D02*
X76705237Y-69107200D01*
X76705237Y-69107200D02*
X76752856Y-69011961D01*
X76752856Y-69011961D02*
X76752856Y-68631009D01*
X76752856Y-68631009D02*
X76705237Y-68535771D01*
X76705237Y-68535771D02*
X76609999Y-68488152D01*
X76609999Y-68488152D02*
X76419523Y-68488152D01*
X76419523Y-68488152D02*
X76324285Y-68535771D01*
X76324285Y-68535771D02*
X76276666Y-68631009D01*
X76276666Y-68631009D02*
X76276666Y-68726247D01*
X76276666Y-68726247D02*
X76752856Y-68821485D01*
X75943332Y-68488152D02*
X75705237Y-69154819D01*
X75705237Y-69154819D02*
X75467142Y-68488152D01*
X75086189Y-69154819D02*
X75086189Y-68154819D01*
X74514761Y-69154819D02*
X74943332Y-68583390D01*
X74514761Y-68154819D02*
X75086189Y-68726247D01*
X74086189Y-69154819D02*
X74086189Y-68488152D01*
X74086189Y-68154819D02*
X74133808Y-68202438D01*
X74133808Y-68202438D02*
X74086189Y-68250057D01*
X74086189Y-68250057D02*
X74038570Y-68202438D01*
X74038570Y-68202438D02*
X74086189Y-68154819D01*
X74086189Y-68154819D02*
X74086189Y-68250057D01*
X73752856Y-68488152D02*
X73371904Y-68488152D01*
X73609999Y-68154819D02*
X73609999Y-69011961D01*
X73609999Y-69011961D02*
X73562380Y-69107200D01*
X73562380Y-69107200D02*
X73467142Y-69154819D01*
X73467142Y-69154819D02*
X73371904Y-69154819D01*
X72467142Y-69059580D02*
X72514761Y-69107200D01*
X72514761Y-69107200D02*
X72657618Y-69154819D01*
X72657618Y-69154819D02*
X72752856Y-69154819D01*
X72752856Y-69154819D02*
X72895713Y-69107200D01*
X72895713Y-69107200D02*
X72990951Y-69011961D01*
X72990951Y-69011961D02*
X73038570Y-68916723D01*
X73038570Y-68916723D02*
X73086189Y-68726247D01*
X73086189Y-68726247D02*
X73086189Y-68583390D01*
X73086189Y-68583390D02*
X73038570Y-68392914D01*
X73038570Y-68392914D02*
X72990951Y-68297676D01*
X72990951Y-68297676D02*
X72895713Y-68202438D01*
X72895713Y-68202438D02*
X72752856Y-68154819D01*
X72752856Y-68154819D02*
X72657618Y-68154819D01*
X72657618Y-68154819D02*
X72514761Y-68202438D01*
X72514761Y-68202438D02*
X72467142Y-68250057D01*
X76489366Y-57902017D02*
X76456033Y-57835350D01*
X76456033Y-57835350D02*
X76456033Y-57735350D01*
X76456033Y-57735350D02*
X76489366Y-57635350D01*
X76489366Y-57635350D02*
X76556033Y-57568684D01*
X76556033Y-57568684D02*
X76622700Y-57535350D01*
X76622700Y-57535350D02*
X76756033Y-57502017D01*
X76756033Y-57502017D02*
X76856033Y-57502017D01*
X76856033Y-57502017D02*
X76989366Y-57535350D01*
X76989366Y-57535350D02*
X77056033Y-57568684D01*
X77056033Y-57568684D02*
X77122700Y-57635350D01*
X77122700Y-57635350D02*
X77156033Y-57735350D01*
X77156033Y-57735350D02*
X77156033Y-57802017D01*
X77156033Y-57802017D02*
X77122700Y-57902017D01*
X77122700Y-57902017D02*
X77089366Y-57935350D01*
X77089366Y-57935350D02*
X76856033Y-57935350D01*
X76856033Y-57935350D02*
X76856033Y-57802017D01*
X77156033Y-58235350D02*
X76456033Y-58235350D01*
X76456033Y-58235350D02*
X76456033Y-58502017D01*
X76456033Y-58502017D02*
X76489366Y-58568684D01*
X76489366Y-58568684D02*
X76522700Y-58602017D01*
X76522700Y-58602017D02*
X76589366Y-58635350D01*
X76589366Y-58635350D02*
X76689366Y-58635350D01*
X76689366Y-58635350D02*
X76756033Y-58602017D01*
X76756033Y-58602017D02*
X76789366Y-58568684D01*
X76789366Y-58568684D02*
X76822700Y-58502017D01*
X76822700Y-58502017D02*
X76822700Y-58235350D01*
X77156033Y-58935350D02*
X76456033Y-58935350D01*
X76456033Y-59402017D02*
X76456033Y-59535350D01*
X76456033Y-59535350D02*
X76489366Y-59602017D01*
X76489366Y-59602017D02*
X76556033Y-59668683D01*
X76556033Y-59668683D02*
X76689366Y-59702017D01*
X76689366Y-59702017D02*
X76922700Y-59702017D01*
X76922700Y-59702017D02*
X77056033Y-59668683D01*
X77056033Y-59668683D02*
X77122700Y-59602017D01*
X77122700Y-59602017D02*
X77156033Y-59535350D01*
X77156033Y-59535350D02*
X77156033Y-59402017D01*
X77156033Y-59402017D02*
X77122700Y-59335350D01*
X77122700Y-59335350D02*
X77056033Y-59268683D01*
X77056033Y-59268683D02*
X76922700Y-59235350D01*
X76922700Y-59235350D02*
X76689366Y-59235350D01*
X76689366Y-59235350D02*
X76556033Y-59268683D01*
X76556033Y-59268683D02*
X76489366Y-59335350D01*
X76489366Y-59335350D02*
X76456033Y-59402017D01*
X76522700Y-59968683D02*
X76489366Y-60002016D01*
X76489366Y-60002016D02*
X76456033Y-60068683D01*
X76456033Y-60068683D02*
X76456033Y-60235350D01*
X76456033Y-60235350D02*
X76489366Y-60302016D01*
X76489366Y-60302016D02*
X76522700Y-60335350D01*
X76522700Y-60335350D02*
X76589366Y-60368683D01*
X76589366Y-60368683D02*
X76656033Y-60368683D01*
X76656033Y-60368683D02*
X76756033Y-60335350D01*
X76756033Y-60335350D02*
X77156033Y-59935350D01*
X77156033Y-59935350D02*
X77156033Y-60368683D01*
X76456033Y-60968683D02*
X76456033Y-60835350D01*
X76456033Y-60835350D02*
X76489366Y-60768683D01*
X76489366Y-60768683D02*
X76522700Y-60735350D01*
X76522700Y-60735350D02*
X76622700Y-60668683D01*
X76622700Y-60668683D02*
X76756033Y-60635350D01*
X76756033Y-60635350D02*
X77022700Y-60635350D01*
X77022700Y-60635350D02*
X77089366Y-60668683D01*
X77089366Y-60668683D02*
X77122700Y-60702017D01*
X77122700Y-60702017D02*
X77156033Y-60768683D01*
X77156033Y-60768683D02*
X77156033Y-60902017D01*
X77156033Y-60902017D02*
X77122700Y-60968683D01*
X77122700Y-60968683D02*
X77089366Y-61002017D01*
X77089366Y-61002017D02*
X77022700Y-61035350D01*
X77022700Y-61035350D02*
X76856033Y-61035350D01*
X76856033Y-61035350D02*
X76789366Y-61002017D01*
X76789366Y-61002017D02*
X76756033Y-60968683D01*
X76756033Y-60968683D02*
X76722700Y-60902017D01*
X76722700Y-60902017D02*
X76722700Y-60768683D01*
X76722700Y-60768683D02*
X76756033Y-60702017D01*
X76756033Y-60702017D02*
X76789366Y-60668683D01*
X76789366Y-60668683D02*
X76856033Y-60635350D01*
X86502438Y-58130588D02*
X86454819Y-58035350D01*
X86454819Y-58035350D02*
X86454819Y-57892493D01*
X86454819Y-57892493D02*
X86502438Y-57749636D01*
X86502438Y-57749636D02*
X86597676Y-57654398D01*
X86597676Y-57654398D02*
X86692914Y-57606779D01*
X86692914Y-57606779D02*
X86883390Y-57559160D01*
X86883390Y-57559160D02*
X87026247Y-57559160D01*
X87026247Y-57559160D02*
X87216723Y-57606779D01*
X87216723Y-57606779D02*
X87311961Y-57654398D01*
X87311961Y-57654398D02*
X87407200Y-57749636D01*
X87407200Y-57749636D02*
X87454819Y-57892493D01*
X87454819Y-57892493D02*
X87454819Y-57987731D01*
X87454819Y-57987731D02*
X87407200Y-58130588D01*
X87407200Y-58130588D02*
X87359580Y-58178207D01*
X87359580Y-58178207D02*
X87026247Y-58178207D01*
X87026247Y-58178207D02*
X87026247Y-57987731D01*
X87454819Y-58606779D02*
X86454819Y-58606779D01*
X86454819Y-58606779D02*
X87454819Y-59178207D01*
X87454819Y-59178207D02*
X86454819Y-59178207D01*
X87454819Y-59654398D02*
X86454819Y-59654398D01*
X86454819Y-59654398D02*
X86454819Y-59892493D01*
X86454819Y-59892493D02*
X86502438Y-60035350D01*
X86502438Y-60035350D02*
X86597676Y-60130588D01*
X86597676Y-60130588D02*
X86692914Y-60178207D01*
X86692914Y-60178207D02*
X86883390Y-60225826D01*
X86883390Y-60225826D02*
X87026247Y-60225826D01*
X87026247Y-60225826D02*
X87216723Y-60178207D01*
X87216723Y-60178207D02*
X87311961Y-60130588D01*
X87311961Y-60130588D02*
X87407200Y-60035350D01*
X87407200Y-60035350D02*
X87454819Y-59892493D01*
X87454819Y-59892493D02*
X87454819Y-59654398D01*
X63909366Y-88601316D02*
X63876033Y-88534649D01*
X63876033Y-88534649D02*
X63876033Y-88434649D01*
X63876033Y-88434649D02*
X63909366Y-88334649D01*
X63909366Y-88334649D02*
X63976033Y-88267983D01*
X63976033Y-88267983D02*
X64042700Y-88234649D01*
X64042700Y-88234649D02*
X64176033Y-88201316D01*
X64176033Y-88201316D02*
X64276033Y-88201316D01*
X64276033Y-88201316D02*
X64409366Y-88234649D01*
X64409366Y-88234649D02*
X64476033Y-88267983D01*
X64476033Y-88267983D02*
X64542700Y-88334649D01*
X64542700Y-88334649D02*
X64576033Y-88434649D01*
X64576033Y-88434649D02*
X64576033Y-88501316D01*
X64576033Y-88501316D02*
X64542700Y-88601316D01*
X64542700Y-88601316D02*
X64509366Y-88634649D01*
X64509366Y-88634649D02*
X64276033Y-88634649D01*
X64276033Y-88634649D02*
X64276033Y-88501316D01*
X64576033Y-88934649D02*
X63876033Y-88934649D01*
X63876033Y-88934649D02*
X63876033Y-89201316D01*
X63876033Y-89201316D02*
X63909366Y-89267983D01*
X63909366Y-89267983D02*
X63942700Y-89301316D01*
X63942700Y-89301316D02*
X64009366Y-89334649D01*
X64009366Y-89334649D02*
X64109366Y-89334649D01*
X64109366Y-89334649D02*
X64176033Y-89301316D01*
X64176033Y-89301316D02*
X64209366Y-89267983D01*
X64209366Y-89267983D02*
X64242700Y-89201316D01*
X64242700Y-89201316D02*
X64242700Y-88934649D01*
X64576033Y-89634649D02*
X63876033Y-89634649D01*
X63876033Y-90101316D02*
X63876033Y-90234649D01*
X63876033Y-90234649D02*
X63909366Y-90301316D01*
X63909366Y-90301316D02*
X63976033Y-90367982D01*
X63976033Y-90367982D02*
X64109366Y-90401316D01*
X64109366Y-90401316D02*
X64342700Y-90401316D01*
X64342700Y-90401316D02*
X64476033Y-90367982D01*
X64476033Y-90367982D02*
X64542700Y-90301316D01*
X64542700Y-90301316D02*
X64576033Y-90234649D01*
X64576033Y-90234649D02*
X64576033Y-90101316D01*
X64576033Y-90101316D02*
X64542700Y-90034649D01*
X64542700Y-90034649D02*
X64476033Y-89967982D01*
X64476033Y-89967982D02*
X64342700Y-89934649D01*
X64342700Y-89934649D02*
X64109366Y-89934649D01*
X64109366Y-89934649D02*
X63976033Y-89967982D01*
X63976033Y-89967982D02*
X63909366Y-90034649D01*
X63909366Y-90034649D02*
X63876033Y-90101316D01*
X63876033Y-90634649D02*
X63876033Y-91067982D01*
X63876033Y-91067982D02*
X64142700Y-90834649D01*
X64142700Y-90834649D02*
X64142700Y-90934649D01*
X64142700Y-90934649D02*
X64176033Y-91001315D01*
X64176033Y-91001315D02*
X64209366Y-91034649D01*
X64209366Y-91034649D02*
X64276033Y-91067982D01*
X64276033Y-91067982D02*
X64442700Y-91067982D01*
X64442700Y-91067982D02*
X64509366Y-91034649D01*
X64509366Y-91034649D02*
X64542700Y-91001315D01*
X64542700Y-91001315D02*
X64576033Y-90934649D01*
X64576033Y-90934649D02*
X64576033Y-90734649D01*
X64576033Y-90734649D02*
X64542700Y-90667982D01*
X64542700Y-90667982D02*
X64509366Y-90634649D01*
X63842700Y-91867982D02*
X64742700Y-91267982D01*
X63876033Y-92101315D02*
X64442700Y-92101315D01*
X64442700Y-92101315D02*
X64509366Y-92134649D01*
X64509366Y-92134649D02*
X64542700Y-92167982D01*
X64542700Y-92167982D02*
X64576033Y-92234649D01*
X64576033Y-92234649D02*
X64576033Y-92367982D01*
X64576033Y-92367982D02*
X64542700Y-92434649D01*
X64542700Y-92434649D02*
X64509366Y-92467982D01*
X64509366Y-92467982D02*
X64442700Y-92501315D01*
X64442700Y-92501315D02*
X63876033Y-92501315D01*
X63876033Y-92967982D02*
X63876033Y-93034648D01*
X63876033Y-93034648D02*
X63909366Y-93101315D01*
X63909366Y-93101315D02*
X63942700Y-93134648D01*
X63942700Y-93134648D02*
X64009366Y-93167982D01*
X64009366Y-93167982D02*
X64142700Y-93201315D01*
X64142700Y-93201315D02*
X64309366Y-93201315D01*
X64309366Y-93201315D02*
X64442700Y-93167982D01*
X64442700Y-93167982D02*
X64509366Y-93134648D01*
X64509366Y-93134648D02*
X64542700Y-93101315D01*
X64542700Y-93101315D02*
X64576033Y-93034648D01*
X64576033Y-93034648D02*
X64576033Y-92967982D01*
X64576033Y-92967982D02*
X64542700Y-92901315D01*
X64542700Y-92901315D02*
X64509366Y-92867982D01*
X64509366Y-92867982D02*
X64442700Y-92834648D01*
X64442700Y-92834648D02*
X64309366Y-92801315D01*
X64309366Y-92801315D02*
X64142700Y-92801315D01*
X64142700Y-92801315D02*
X64009366Y-92834648D01*
X64009366Y-92834648D02*
X63942700Y-92867982D01*
X63942700Y-92867982D02*
X63909366Y-92901315D01*
X63909366Y-92901315D02*
X63876033Y-92967982D01*
X64576033Y-93901315D02*
X64242700Y-93667982D01*
X64576033Y-93501315D02*
X63876033Y-93501315D01*
X63876033Y-93501315D02*
X63876033Y-93767982D01*
X63876033Y-93767982D02*
X63909366Y-93834649D01*
X63909366Y-93834649D02*
X63942700Y-93867982D01*
X63942700Y-93867982D02*
X64009366Y-93901315D01*
X64009366Y-93901315D02*
X64109366Y-93901315D01*
X64109366Y-93901315D02*
X64176033Y-93867982D01*
X64176033Y-93867982D02*
X64209366Y-93834649D01*
X64209366Y-93834649D02*
X64242700Y-93767982D01*
X64242700Y-93767982D02*
X64242700Y-93501315D01*
X63876033Y-94134649D02*
X64576033Y-94601315D01*
X63876033Y-94601315D02*
X64576033Y-94134649D01*
X64576033Y-94867982D02*
X63876033Y-94867982D01*
X63876033Y-94867982D02*
X63876033Y-95034649D01*
X63876033Y-95034649D02*
X63909366Y-95134649D01*
X63909366Y-95134649D02*
X63976033Y-95201316D01*
X63976033Y-95201316D02*
X64042700Y-95234649D01*
X64042700Y-95234649D02*
X64176033Y-95267982D01*
X64176033Y-95267982D02*
X64276033Y-95267982D01*
X64276033Y-95267982D02*
X64409366Y-95234649D01*
X64409366Y-95234649D02*
X64476033Y-95201316D01*
X64476033Y-95201316D02*
X64542700Y-95134649D01*
X64542700Y-95134649D02*
X64576033Y-95034649D01*
X64576033Y-95034649D02*
X64576033Y-94867982D01*
X86689366Y-74201316D02*
X86656033Y-74134649D01*
X86656033Y-74134649D02*
X86656033Y-74034649D01*
X86656033Y-74034649D02*
X86689366Y-73934649D01*
X86689366Y-73934649D02*
X86756033Y-73867983D01*
X86756033Y-73867983D02*
X86822700Y-73834649D01*
X86822700Y-73834649D02*
X86956033Y-73801316D01*
X86956033Y-73801316D02*
X87056033Y-73801316D01*
X87056033Y-73801316D02*
X87189366Y-73834649D01*
X87189366Y-73834649D02*
X87256033Y-73867983D01*
X87256033Y-73867983D02*
X87322700Y-73934649D01*
X87322700Y-73934649D02*
X87356033Y-74034649D01*
X87356033Y-74034649D02*
X87356033Y-74101316D01*
X87356033Y-74101316D02*
X87322700Y-74201316D01*
X87322700Y-74201316D02*
X87289366Y-74234649D01*
X87289366Y-74234649D02*
X87056033Y-74234649D01*
X87056033Y-74234649D02*
X87056033Y-74101316D01*
X87356033Y-74534649D02*
X86656033Y-74534649D01*
X86656033Y-74534649D02*
X86656033Y-74801316D01*
X86656033Y-74801316D02*
X86689366Y-74867983D01*
X86689366Y-74867983D02*
X86722700Y-74901316D01*
X86722700Y-74901316D02*
X86789366Y-74934649D01*
X86789366Y-74934649D02*
X86889366Y-74934649D01*
X86889366Y-74934649D02*
X86956033Y-74901316D01*
X86956033Y-74901316D02*
X86989366Y-74867983D01*
X86989366Y-74867983D02*
X87022700Y-74801316D01*
X87022700Y-74801316D02*
X87022700Y-74534649D01*
X87356033Y-75234649D02*
X86656033Y-75234649D01*
X86656033Y-75701316D02*
X86656033Y-75834649D01*
X86656033Y-75834649D02*
X86689366Y-75901316D01*
X86689366Y-75901316D02*
X86756033Y-75967982D01*
X86756033Y-75967982D02*
X86889366Y-76001316D01*
X86889366Y-76001316D02*
X87122700Y-76001316D01*
X87122700Y-76001316D02*
X87256033Y-75967982D01*
X87256033Y-75967982D02*
X87322700Y-75901316D01*
X87322700Y-75901316D02*
X87356033Y-75834649D01*
X87356033Y-75834649D02*
X87356033Y-75701316D01*
X87356033Y-75701316D02*
X87322700Y-75634649D01*
X87322700Y-75634649D02*
X87256033Y-75567982D01*
X87256033Y-75567982D02*
X87122700Y-75534649D01*
X87122700Y-75534649D02*
X86889366Y-75534649D01*
X86889366Y-75534649D02*
X86756033Y-75567982D01*
X86756033Y-75567982D02*
X86689366Y-75634649D01*
X86689366Y-75634649D02*
X86656033Y-75701316D01*
X86656033Y-76434649D02*
X86656033Y-76501315D01*
X86656033Y-76501315D02*
X86689366Y-76567982D01*
X86689366Y-76567982D02*
X86722700Y-76601315D01*
X86722700Y-76601315D02*
X86789366Y-76634649D01*
X86789366Y-76634649D02*
X86922700Y-76667982D01*
X86922700Y-76667982D02*
X87089366Y-76667982D01*
X87089366Y-76667982D02*
X87222700Y-76634649D01*
X87222700Y-76634649D02*
X87289366Y-76601315D01*
X87289366Y-76601315D02*
X87322700Y-76567982D01*
X87322700Y-76567982D02*
X87356033Y-76501315D01*
X87356033Y-76501315D02*
X87356033Y-76434649D01*
X87356033Y-76434649D02*
X87322700Y-76367982D01*
X87322700Y-76367982D02*
X87289366Y-76334649D01*
X87289366Y-76334649D02*
X87222700Y-76301315D01*
X87222700Y-76301315D02*
X87089366Y-76267982D01*
X87089366Y-76267982D02*
X86922700Y-76267982D01*
X86922700Y-76267982D02*
X86789366Y-76301315D01*
X86789366Y-76301315D02*
X86722700Y-76334649D01*
X86722700Y-76334649D02*
X86689366Y-76367982D01*
X86689366Y-76367982D02*
X86656033Y-76434649D01*
X97409366Y-57935350D02*
X97442700Y-57902017D01*
X97442700Y-57902017D02*
X97476033Y-57802017D01*
X97476033Y-57802017D02*
X97476033Y-57735350D01*
X97476033Y-57735350D02*
X97442700Y-57635350D01*
X97442700Y-57635350D02*
X97376033Y-57568684D01*
X97376033Y-57568684D02*
X97309366Y-57535350D01*
X97309366Y-57535350D02*
X97176033Y-57502017D01*
X97176033Y-57502017D02*
X97076033Y-57502017D01*
X97076033Y-57502017D02*
X96942700Y-57535350D01*
X96942700Y-57535350D02*
X96876033Y-57568684D01*
X96876033Y-57568684D02*
X96809366Y-57635350D01*
X96809366Y-57635350D02*
X96776033Y-57735350D01*
X96776033Y-57735350D02*
X96776033Y-57802017D01*
X96776033Y-57802017D02*
X96809366Y-57902017D01*
X96809366Y-57902017D02*
X96842700Y-57935350D01*
X97476033Y-58235350D02*
X96776033Y-58235350D01*
X96776033Y-58235350D02*
X97276033Y-58468684D01*
X97276033Y-58468684D02*
X96776033Y-58702017D01*
X96776033Y-58702017D02*
X97476033Y-58702017D01*
X97476033Y-59035350D02*
X96776033Y-59035350D01*
X96776033Y-59035350D02*
X96776033Y-59202017D01*
X96776033Y-59202017D02*
X96809366Y-59302017D01*
X96809366Y-59302017D02*
X96876033Y-59368684D01*
X96876033Y-59368684D02*
X96942700Y-59402017D01*
X96942700Y-59402017D02*
X97076033Y-59435350D01*
X97076033Y-59435350D02*
X97176033Y-59435350D01*
X97176033Y-59435350D02*
X97309366Y-59402017D01*
X97309366Y-59402017D02*
X97376033Y-59368684D01*
X97376033Y-59368684D02*
X97442700Y-59302017D01*
X97442700Y-59302017D02*
X97476033Y-59202017D01*
X97476033Y-59202017D02*
X97476033Y-59035350D01*
X68842438Y-89015601D02*
X68794819Y-88920363D01*
X68794819Y-88920363D02*
X68794819Y-88777506D01*
X68794819Y-88777506D02*
X68842438Y-88634649D01*
X68842438Y-88634649D02*
X68937676Y-88539411D01*
X68937676Y-88539411D02*
X69032914Y-88491792D01*
X69032914Y-88491792D02*
X69223390Y-88444173D01*
X69223390Y-88444173D02*
X69366247Y-88444173D01*
X69366247Y-88444173D02*
X69556723Y-88491792D01*
X69556723Y-88491792D02*
X69651961Y-88539411D01*
X69651961Y-88539411D02*
X69747200Y-88634649D01*
X69747200Y-88634649D02*
X69794819Y-88777506D01*
X69794819Y-88777506D02*
X69794819Y-88872744D01*
X69794819Y-88872744D02*
X69747200Y-89015601D01*
X69747200Y-89015601D02*
X69699580Y-89063220D01*
X69699580Y-89063220D02*
X69366247Y-89063220D01*
X69366247Y-89063220D02*
X69366247Y-88872744D01*
X69794819Y-89491792D02*
X68794819Y-89491792D01*
X68794819Y-89491792D02*
X69794819Y-90063220D01*
X69794819Y-90063220D02*
X68794819Y-90063220D01*
X69794819Y-90539411D02*
X68794819Y-90539411D01*
X68794819Y-90539411D02*
X68794819Y-90777506D01*
X68794819Y-90777506D02*
X68842438Y-90920363D01*
X68842438Y-90920363D02*
X68937676Y-91015601D01*
X68937676Y-91015601D02*
X69032914Y-91063220D01*
X69032914Y-91063220D02*
X69223390Y-91110839D01*
X69223390Y-91110839D02*
X69366247Y-91110839D01*
X69366247Y-91110839D02*
X69556723Y-91063220D01*
X69556723Y-91063220D02*
X69651961Y-91015601D01*
X69651961Y-91015601D02*
X69747200Y-90920363D01*
X69747200Y-90920363D02*
X69794819Y-90777506D01*
X69794819Y-90777506D02*
X69794819Y-90539411D01*
X71529366Y-88634649D02*
X71496033Y-88567982D01*
X71496033Y-88567982D02*
X71496033Y-88467982D01*
X71496033Y-88467982D02*
X71529366Y-88367982D01*
X71529366Y-88367982D02*
X71596033Y-88301316D01*
X71596033Y-88301316D02*
X71662700Y-88267982D01*
X71662700Y-88267982D02*
X71796033Y-88234649D01*
X71796033Y-88234649D02*
X71896033Y-88234649D01*
X71896033Y-88234649D02*
X72029366Y-88267982D01*
X72029366Y-88267982D02*
X72096033Y-88301316D01*
X72096033Y-88301316D02*
X72162700Y-88367982D01*
X72162700Y-88367982D02*
X72196033Y-88467982D01*
X72196033Y-88467982D02*
X72196033Y-88534649D01*
X72196033Y-88534649D02*
X72162700Y-88634649D01*
X72162700Y-88634649D02*
X72129366Y-88667982D01*
X72129366Y-88667982D02*
X71896033Y-88667982D01*
X71896033Y-88667982D02*
X71896033Y-88534649D01*
X72196033Y-88967982D02*
X71496033Y-88967982D01*
X71496033Y-88967982D02*
X71496033Y-89234649D01*
X71496033Y-89234649D02*
X71529366Y-89301316D01*
X71529366Y-89301316D02*
X71562700Y-89334649D01*
X71562700Y-89334649D02*
X71629366Y-89367982D01*
X71629366Y-89367982D02*
X71729366Y-89367982D01*
X71729366Y-89367982D02*
X71796033Y-89334649D01*
X71796033Y-89334649D02*
X71829366Y-89301316D01*
X71829366Y-89301316D02*
X71862700Y-89234649D01*
X71862700Y-89234649D02*
X71862700Y-88967982D01*
X72196033Y-89667982D02*
X71496033Y-89667982D01*
X71496033Y-90134649D02*
X71496033Y-90267982D01*
X71496033Y-90267982D02*
X71529366Y-90334649D01*
X71529366Y-90334649D02*
X71596033Y-90401315D01*
X71596033Y-90401315D02*
X71729366Y-90434649D01*
X71729366Y-90434649D02*
X71962700Y-90434649D01*
X71962700Y-90434649D02*
X72096033Y-90401315D01*
X72096033Y-90401315D02*
X72162700Y-90334649D01*
X72162700Y-90334649D02*
X72196033Y-90267982D01*
X72196033Y-90267982D02*
X72196033Y-90134649D01*
X72196033Y-90134649D02*
X72162700Y-90067982D01*
X72162700Y-90067982D02*
X72096033Y-90001315D01*
X72096033Y-90001315D02*
X71962700Y-89967982D01*
X71962700Y-89967982D02*
X71729366Y-89967982D01*
X71729366Y-89967982D02*
X71596033Y-90001315D01*
X71596033Y-90001315D02*
X71529366Y-90067982D01*
X71529366Y-90067982D02*
X71496033Y-90134649D01*
X72196033Y-91101315D02*
X72196033Y-90701315D01*
X72196033Y-90901315D02*
X71496033Y-90901315D01*
X71496033Y-90901315D02*
X71596033Y-90834648D01*
X71596033Y-90834648D02*
X71662700Y-90767982D01*
X71662700Y-90767982D02*
X71696033Y-90701315D01*
X72196033Y-91434649D02*
X72196033Y-91567982D01*
X72196033Y-91567982D02*
X72162700Y-91634649D01*
X72162700Y-91634649D02*
X72129366Y-91667982D01*
X72129366Y-91667982D02*
X72029366Y-91734649D01*
X72029366Y-91734649D02*
X71896033Y-91767982D01*
X71896033Y-91767982D02*
X71629366Y-91767982D01*
X71629366Y-91767982D02*
X71562700Y-91734649D01*
X71562700Y-91734649D02*
X71529366Y-91701315D01*
X71529366Y-91701315D02*
X71496033Y-91634649D01*
X71496033Y-91634649D02*
X71496033Y-91501315D01*
X71496033Y-91501315D02*
X71529366Y-91434649D01*
X71529366Y-91434649D02*
X71562700Y-91401315D01*
X71562700Y-91401315D02*
X71629366Y-91367982D01*
X71629366Y-91367982D02*
X71796033Y-91367982D01*
X71796033Y-91367982D02*
X71862700Y-91401315D01*
X71862700Y-91401315D02*
X71896033Y-91434649D01*
X71896033Y-91434649D02*
X71929366Y-91501315D01*
X71929366Y-91501315D02*
X71929366Y-91634649D01*
X71929366Y-91634649D02*
X71896033Y-91701315D01*
X71896033Y-91701315D02*
X71862700Y-91734649D01*
X71862700Y-91734649D02*
X71796033Y-91767982D01*
X94976033Y-75601315D02*
X94276033Y-75601315D01*
X94276033Y-75601315D02*
X94276033Y-75767982D01*
X94276033Y-75767982D02*
X94309366Y-75867982D01*
X94309366Y-75867982D02*
X94376033Y-75934649D01*
X94376033Y-75934649D02*
X94442700Y-75967982D01*
X94442700Y-75967982D02*
X94576033Y-76001315D01*
X94576033Y-76001315D02*
X94676033Y-76001315D01*
X94676033Y-76001315D02*
X94809366Y-75967982D01*
X94809366Y-75967982D02*
X94876033Y-75934649D01*
X94876033Y-75934649D02*
X94942700Y-75867982D01*
X94942700Y-75867982D02*
X94976033Y-75767982D01*
X94976033Y-75767982D02*
X94976033Y-75601315D01*
X94976033Y-76667982D02*
X94976033Y-76267982D01*
X94976033Y-76467982D02*
X94276033Y-76467982D01*
X94276033Y-76467982D02*
X94376033Y-76401315D01*
X94376033Y-76401315D02*
X94442700Y-76334649D01*
X94442700Y-76334649D02*
X94476033Y-76267982D01*
X97596033Y-88401315D02*
X96896033Y-88401315D01*
X96896033Y-88401315D02*
X96896033Y-88567982D01*
X96896033Y-88567982D02*
X96929366Y-88667982D01*
X96929366Y-88667982D02*
X96996033Y-88734649D01*
X96996033Y-88734649D02*
X97062700Y-88767982D01*
X97062700Y-88767982D02*
X97196033Y-88801315D01*
X97196033Y-88801315D02*
X97296033Y-88801315D01*
X97296033Y-88801315D02*
X97429366Y-88767982D01*
X97429366Y-88767982D02*
X97496033Y-88734649D01*
X97496033Y-88734649D02*
X97562700Y-88667982D01*
X97562700Y-88667982D02*
X97596033Y-88567982D01*
X97596033Y-88567982D02*
X97596033Y-88401315D01*
X96896033Y-89234649D02*
X96896033Y-89301315D01*
X96896033Y-89301315D02*
X96929366Y-89367982D01*
X96929366Y-89367982D02*
X96962700Y-89401315D01*
X96962700Y-89401315D02*
X97029366Y-89434649D01*
X97029366Y-89434649D02*
X97162700Y-89467982D01*
X97162700Y-89467982D02*
X97329366Y-89467982D01*
X97329366Y-89467982D02*
X97462700Y-89434649D01*
X97462700Y-89434649D02*
X97529366Y-89401315D01*
X97529366Y-89401315D02*
X97562700Y-89367982D01*
X97562700Y-89367982D02*
X97596033Y-89301315D01*
X97596033Y-89301315D02*
X97596033Y-89234649D01*
X97596033Y-89234649D02*
X97562700Y-89167982D01*
X97562700Y-89167982D02*
X97529366Y-89134649D01*
X97529366Y-89134649D02*
X97462700Y-89101315D01*
X97462700Y-89101315D02*
X97329366Y-89067982D01*
X97329366Y-89067982D02*
X97162700Y-89067982D01*
X97162700Y-89067982D02*
X97029366Y-89101315D01*
X97029366Y-89101315D02*
X96962700Y-89134649D01*
X96962700Y-89134649D02*
X96929366Y-89167982D01*
X96929366Y-89167982D02*
X96896033Y-89234649D01*
X61216033Y-57435350D02*
X61916033Y-57668684D01*
X61916033Y-57668684D02*
X61216033Y-57902017D01*
X61916033Y-58135350D02*
X61216033Y-58135350D01*
X61216033Y-58135350D02*
X61916033Y-58535350D01*
X61916033Y-58535350D02*
X61216033Y-58535350D01*
X61182700Y-59368683D02*
X62082700Y-58768683D01*
X61249366Y-59968683D02*
X61216033Y-59902016D01*
X61216033Y-59902016D02*
X61216033Y-59802016D01*
X61216033Y-59802016D02*
X61249366Y-59702016D01*
X61249366Y-59702016D02*
X61316033Y-59635350D01*
X61316033Y-59635350D02*
X61382700Y-59602016D01*
X61382700Y-59602016D02*
X61516033Y-59568683D01*
X61516033Y-59568683D02*
X61616033Y-59568683D01*
X61616033Y-59568683D02*
X61749366Y-59602016D01*
X61749366Y-59602016D02*
X61816033Y-59635350D01*
X61816033Y-59635350D02*
X61882700Y-59702016D01*
X61882700Y-59702016D02*
X61916033Y-59802016D01*
X61916033Y-59802016D02*
X61916033Y-59868683D01*
X61916033Y-59868683D02*
X61882700Y-59968683D01*
X61882700Y-59968683D02*
X61849366Y-60002016D01*
X61849366Y-60002016D02*
X61616033Y-60002016D01*
X61616033Y-60002016D02*
X61616033Y-59868683D01*
X61916033Y-60302016D02*
X61216033Y-60302016D01*
X61216033Y-60302016D02*
X61216033Y-60568683D01*
X61216033Y-60568683D02*
X61249366Y-60635350D01*
X61249366Y-60635350D02*
X61282700Y-60668683D01*
X61282700Y-60668683D02*
X61349366Y-60702016D01*
X61349366Y-60702016D02*
X61449366Y-60702016D01*
X61449366Y-60702016D02*
X61516033Y-60668683D01*
X61516033Y-60668683D02*
X61549366Y-60635350D01*
X61549366Y-60635350D02*
X61582700Y-60568683D01*
X61582700Y-60568683D02*
X61582700Y-60302016D01*
X61916033Y-61002016D02*
X61216033Y-61002016D01*
X61216033Y-61468683D02*
X61216033Y-61602016D01*
X61216033Y-61602016D02*
X61249366Y-61668683D01*
X61249366Y-61668683D02*
X61316033Y-61735349D01*
X61316033Y-61735349D02*
X61449366Y-61768683D01*
X61449366Y-61768683D02*
X61682700Y-61768683D01*
X61682700Y-61768683D02*
X61816033Y-61735349D01*
X61816033Y-61735349D02*
X61882700Y-61668683D01*
X61882700Y-61668683D02*
X61916033Y-61602016D01*
X61916033Y-61602016D02*
X61916033Y-61468683D01*
X61916033Y-61468683D02*
X61882700Y-61402016D01*
X61882700Y-61402016D02*
X61816033Y-61335349D01*
X61816033Y-61335349D02*
X61682700Y-61302016D01*
X61682700Y-61302016D02*
X61449366Y-61302016D01*
X61449366Y-61302016D02*
X61316033Y-61335349D01*
X61316033Y-61335349D02*
X61249366Y-61402016D01*
X61249366Y-61402016D02*
X61216033Y-61468683D01*
X61216033Y-62002016D02*
X61216033Y-62435349D01*
X61216033Y-62435349D02*
X61482700Y-62202016D01*
X61482700Y-62202016D02*
X61482700Y-62302016D01*
X61482700Y-62302016D02*
X61516033Y-62368682D01*
X61516033Y-62368682D02*
X61549366Y-62402016D01*
X61549366Y-62402016D02*
X61616033Y-62435349D01*
X61616033Y-62435349D02*
X61782700Y-62435349D01*
X61782700Y-62435349D02*
X61849366Y-62402016D01*
X61849366Y-62402016D02*
X61882700Y-62368682D01*
X61882700Y-62368682D02*
X61916033Y-62302016D01*
X61916033Y-62302016D02*
X61916033Y-62102016D01*
X61916033Y-62102016D02*
X61882700Y-62035349D01*
X61882700Y-62035349D02*
X61849366Y-62002016D01*
X61916033Y-62768683D02*
X61916033Y-62902016D01*
X61916033Y-62902016D02*
X61882700Y-62968683D01*
X61882700Y-62968683D02*
X61849366Y-63002016D01*
X61849366Y-63002016D02*
X61749366Y-63068683D01*
X61749366Y-63068683D02*
X61616033Y-63102016D01*
X61616033Y-63102016D02*
X61349366Y-63102016D01*
X61349366Y-63102016D02*
X61282700Y-63068683D01*
X61282700Y-63068683D02*
X61249366Y-63035349D01*
X61249366Y-63035349D02*
X61216033Y-62968683D01*
X61216033Y-62968683D02*
X61216033Y-62835349D01*
X61216033Y-62835349D02*
X61249366Y-62768683D01*
X61249366Y-62768683D02*
X61282700Y-62735349D01*
X61282700Y-62735349D02*
X61349366Y-62702016D01*
X61349366Y-62702016D02*
X61516033Y-62702016D01*
X61516033Y-62702016D02*
X61582700Y-62735349D01*
X61582700Y-62735349D02*
X61616033Y-62768683D01*
X61616033Y-62768683D02*
X61649366Y-62835349D01*
X61649366Y-62835349D02*
X61649366Y-62968683D01*
X61649366Y-62968683D02*
X61616033Y-63035349D01*
X61616033Y-63035349D02*
X61582700Y-63068683D01*
X61582700Y-63068683D02*
X61516033Y-63102016D01*
X71409366Y-57902017D02*
X71376033Y-57835350D01*
X71376033Y-57835350D02*
X71376033Y-57735350D01*
X71376033Y-57735350D02*
X71409366Y-57635350D01*
X71409366Y-57635350D02*
X71476033Y-57568684D01*
X71476033Y-57568684D02*
X71542700Y-57535350D01*
X71542700Y-57535350D02*
X71676033Y-57502017D01*
X71676033Y-57502017D02*
X71776033Y-57502017D01*
X71776033Y-57502017D02*
X71909366Y-57535350D01*
X71909366Y-57535350D02*
X71976033Y-57568684D01*
X71976033Y-57568684D02*
X72042700Y-57635350D01*
X72042700Y-57635350D02*
X72076033Y-57735350D01*
X72076033Y-57735350D02*
X72076033Y-57802017D01*
X72076033Y-57802017D02*
X72042700Y-57902017D01*
X72042700Y-57902017D02*
X72009366Y-57935350D01*
X72009366Y-57935350D02*
X71776033Y-57935350D01*
X71776033Y-57935350D02*
X71776033Y-57802017D01*
X72076033Y-58235350D02*
X71376033Y-58235350D01*
X71376033Y-58235350D02*
X71376033Y-58502017D01*
X71376033Y-58502017D02*
X71409366Y-58568684D01*
X71409366Y-58568684D02*
X71442700Y-58602017D01*
X71442700Y-58602017D02*
X71509366Y-58635350D01*
X71509366Y-58635350D02*
X71609366Y-58635350D01*
X71609366Y-58635350D02*
X71676033Y-58602017D01*
X71676033Y-58602017D02*
X71709366Y-58568684D01*
X71709366Y-58568684D02*
X71742700Y-58502017D01*
X71742700Y-58502017D02*
X71742700Y-58235350D01*
X72076033Y-58935350D02*
X71376033Y-58935350D01*
X71376033Y-59402017D02*
X71376033Y-59535350D01*
X71376033Y-59535350D02*
X71409366Y-59602017D01*
X71409366Y-59602017D02*
X71476033Y-59668683D01*
X71476033Y-59668683D02*
X71609366Y-59702017D01*
X71609366Y-59702017D02*
X71842700Y-59702017D01*
X71842700Y-59702017D02*
X71976033Y-59668683D01*
X71976033Y-59668683D02*
X72042700Y-59602017D01*
X72042700Y-59602017D02*
X72076033Y-59535350D01*
X72076033Y-59535350D02*
X72076033Y-59402017D01*
X72076033Y-59402017D02*
X72042700Y-59335350D01*
X72042700Y-59335350D02*
X71976033Y-59268683D01*
X71976033Y-59268683D02*
X71842700Y-59235350D01*
X71842700Y-59235350D02*
X71609366Y-59235350D01*
X71609366Y-59235350D02*
X71476033Y-59268683D01*
X71476033Y-59268683D02*
X71409366Y-59335350D01*
X71409366Y-59335350D02*
X71376033Y-59402017D01*
X71376033Y-59935350D02*
X71376033Y-60368683D01*
X71376033Y-60368683D02*
X71642700Y-60135350D01*
X71642700Y-60135350D02*
X71642700Y-60235350D01*
X71642700Y-60235350D02*
X71676033Y-60302016D01*
X71676033Y-60302016D02*
X71709366Y-60335350D01*
X71709366Y-60335350D02*
X71776033Y-60368683D01*
X71776033Y-60368683D02*
X71942700Y-60368683D01*
X71942700Y-60368683D02*
X72009366Y-60335350D01*
X72009366Y-60335350D02*
X72042700Y-60302016D01*
X72042700Y-60302016D02*
X72076033Y-60235350D01*
X72076033Y-60235350D02*
X72076033Y-60035350D01*
X72076033Y-60035350D02*
X72042700Y-59968683D01*
X72042700Y-59968683D02*
X72009366Y-59935350D01*
X71376033Y-60602017D02*
X71376033Y-61035350D01*
X71376033Y-61035350D02*
X71642700Y-60802017D01*
X71642700Y-60802017D02*
X71642700Y-60902017D01*
X71642700Y-60902017D02*
X71676033Y-60968683D01*
X71676033Y-60968683D02*
X71709366Y-61002017D01*
X71709366Y-61002017D02*
X71776033Y-61035350D01*
X71776033Y-61035350D02*
X71942700Y-61035350D01*
X71942700Y-61035350D02*
X72009366Y-61002017D01*
X72009366Y-61002017D02*
X72042700Y-60968683D01*
X72042700Y-60968683D02*
X72076033Y-60902017D01*
X72076033Y-60902017D02*
X72076033Y-60702017D01*
X72076033Y-60702017D02*
X72042700Y-60635350D01*
X72042700Y-60635350D02*
X72009366Y-60602017D01*
X58749366Y-73534649D02*
X58716033Y-73467982D01*
X58716033Y-73467982D02*
X58716033Y-73367982D01*
X58716033Y-73367982D02*
X58749366Y-73267982D01*
X58749366Y-73267982D02*
X58816033Y-73201316D01*
X58816033Y-73201316D02*
X58882700Y-73167982D01*
X58882700Y-73167982D02*
X59016033Y-73134649D01*
X59016033Y-73134649D02*
X59116033Y-73134649D01*
X59116033Y-73134649D02*
X59249366Y-73167982D01*
X59249366Y-73167982D02*
X59316033Y-73201316D01*
X59316033Y-73201316D02*
X59382700Y-73267982D01*
X59382700Y-73267982D02*
X59416033Y-73367982D01*
X59416033Y-73367982D02*
X59416033Y-73434649D01*
X59416033Y-73434649D02*
X59382700Y-73534649D01*
X59382700Y-73534649D02*
X59349366Y-73567982D01*
X59349366Y-73567982D02*
X59116033Y-73567982D01*
X59116033Y-73567982D02*
X59116033Y-73434649D01*
X59416033Y-73867982D02*
X58716033Y-73867982D01*
X58716033Y-73867982D02*
X58716033Y-74134649D01*
X58716033Y-74134649D02*
X58749366Y-74201316D01*
X58749366Y-74201316D02*
X58782700Y-74234649D01*
X58782700Y-74234649D02*
X58849366Y-74267982D01*
X58849366Y-74267982D02*
X58949366Y-74267982D01*
X58949366Y-74267982D02*
X59016033Y-74234649D01*
X59016033Y-74234649D02*
X59049366Y-74201316D01*
X59049366Y-74201316D02*
X59082700Y-74134649D01*
X59082700Y-74134649D02*
X59082700Y-73867982D01*
X59416033Y-74567982D02*
X58716033Y-74567982D01*
X58716033Y-75034649D02*
X58716033Y-75167982D01*
X58716033Y-75167982D02*
X58749366Y-75234649D01*
X58749366Y-75234649D02*
X58816033Y-75301315D01*
X58816033Y-75301315D02*
X58949366Y-75334649D01*
X58949366Y-75334649D02*
X59182700Y-75334649D01*
X59182700Y-75334649D02*
X59316033Y-75301315D01*
X59316033Y-75301315D02*
X59382700Y-75234649D01*
X59382700Y-75234649D02*
X59416033Y-75167982D01*
X59416033Y-75167982D02*
X59416033Y-75034649D01*
X59416033Y-75034649D02*
X59382700Y-74967982D01*
X59382700Y-74967982D02*
X59316033Y-74901315D01*
X59316033Y-74901315D02*
X59182700Y-74867982D01*
X59182700Y-74867982D02*
X58949366Y-74867982D01*
X58949366Y-74867982D02*
X58816033Y-74901315D01*
X58816033Y-74901315D02*
X58749366Y-74967982D01*
X58749366Y-74967982D02*
X58716033Y-75034649D01*
X58782700Y-75601315D02*
X58749366Y-75634648D01*
X58749366Y-75634648D02*
X58716033Y-75701315D01*
X58716033Y-75701315D02*
X58716033Y-75867982D01*
X58716033Y-75867982D02*
X58749366Y-75934648D01*
X58749366Y-75934648D02*
X58782700Y-75967982D01*
X58782700Y-75967982D02*
X58849366Y-76001315D01*
X58849366Y-76001315D02*
X58916033Y-76001315D01*
X58916033Y-76001315D02*
X59016033Y-75967982D01*
X59016033Y-75967982D02*
X59416033Y-75567982D01*
X59416033Y-75567982D02*
X59416033Y-76001315D01*
X58782700Y-76267982D02*
X58749366Y-76301315D01*
X58749366Y-76301315D02*
X58716033Y-76367982D01*
X58716033Y-76367982D02*
X58716033Y-76534649D01*
X58716033Y-76534649D02*
X58749366Y-76601315D01*
X58749366Y-76601315D02*
X58782700Y-76634649D01*
X58782700Y-76634649D02*
X58849366Y-76667982D01*
X58849366Y-76667982D02*
X58916033Y-76667982D01*
X58916033Y-76667982D02*
X59016033Y-76634649D01*
X59016033Y-76634649D02*
X59416033Y-76234649D01*
X59416033Y-76234649D02*
X59416033Y-76667982D01*
X68762438Y-74515601D02*
X68714819Y-74420363D01*
X68714819Y-74420363D02*
X68714819Y-74277506D01*
X68714819Y-74277506D02*
X68762438Y-74134649D01*
X68762438Y-74134649D02*
X68857676Y-74039411D01*
X68857676Y-74039411D02*
X68952914Y-73991792D01*
X68952914Y-73991792D02*
X69143390Y-73944173D01*
X69143390Y-73944173D02*
X69286247Y-73944173D01*
X69286247Y-73944173D02*
X69476723Y-73991792D01*
X69476723Y-73991792D02*
X69571961Y-74039411D01*
X69571961Y-74039411D02*
X69667200Y-74134649D01*
X69667200Y-74134649D02*
X69714819Y-74277506D01*
X69714819Y-74277506D02*
X69714819Y-74372744D01*
X69714819Y-74372744D02*
X69667200Y-74515601D01*
X69667200Y-74515601D02*
X69619580Y-74563220D01*
X69619580Y-74563220D02*
X69286247Y-74563220D01*
X69286247Y-74563220D02*
X69286247Y-74372744D01*
X69714819Y-74991792D02*
X68714819Y-74991792D01*
X68714819Y-74991792D02*
X69714819Y-75563220D01*
X69714819Y-75563220D02*
X68714819Y-75563220D01*
X69714819Y-76039411D02*
X68714819Y-76039411D01*
X68714819Y-76039411D02*
X68714819Y-76277506D01*
X68714819Y-76277506D02*
X68762438Y-76420363D01*
X68762438Y-76420363D02*
X68857676Y-76515601D01*
X68857676Y-76515601D02*
X68952914Y-76563220D01*
X68952914Y-76563220D02*
X69143390Y-76610839D01*
X69143390Y-76610839D02*
X69286247Y-76610839D01*
X69286247Y-76610839D02*
X69476723Y-76563220D01*
X69476723Y-76563220D02*
X69571961Y-76515601D01*
X69571961Y-76515601D02*
X69667200Y-76420363D01*
X69667200Y-76420363D02*
X69714819Y-76277506D01*
X69714819Y-76277506D02*
X69714819Y-76039411D01*
X91849366Y-88702649D02*
X91816033Y-88635982D01*
X91816033Y-88635982D02*
X91816033Y-88535982D01*
X91816033Y-88535982D02*
X91849366Y-88435982D01*
X91849366Y-88435982D02*
X91916033Y-88369316D01*
X91916033Y-88369316D02*
X91982700Y-88335982D01*
X91982700Y-88335982D02*
X92116033Y-88302649D01*
X92116033Y-88302649D02*
X92216033Y-88302649D01*
X92216033Y-88302649D02*
X92349366Y-88335982D01*
X92349366Y-88335982D02*
X92416033Y-88369316D01*
X92416033Y-88369316D02*
X92482700Y-88435982D01*
X92482700Y-88435982D02*
X92516033Y-88535982D01*
X92516033Y-88535982D02*
X92516033Y-88602649D01*
X92516033Y-88602649D02*
X92482700Y-88702649D01*
X92482700Y-88702649D02*
X92449366Y-88735982D01*
X92449366Y-88735982D02*
X92216033Y-88735982D01*
X92216033Y-88735982D02*
X92216033Y-88602649D01*
X92516033Y-89035982D02*
X91816033Y-89035982D01*
X91816033Y-89035982D02*
X91816033Y-89302649D01*
X91816033Y-89302649D02*
X91849366Y-89369316D01*
X91849366Y-89369316D02*
X91882700Y-89402649D01*
X91882700Y-89402649D02*
X91949366Y-89435982D01*
X91949366Y-89435982D02*
X92049366Y-89435982D01*
X92049366Y-89435982D02*
X92116033Y-89402649D01*
X92116033Y-89402649D02*
X92149366Y-89369316D01*
X92149366Y-89369316D02*
X92182700Y-89302649D01*
X92182700Y-89302649D02*
X92182700Y-89035982D01*
X92516033Y-89735982D02*
X91816033Y-89735982D01*
X91816033Y-90202649D02*
X91816033Y-90335982D01*
X91816033Y-90335982D02*
X91849366Y-90402649D01*
X91849366Y-90402649D02*
X91916033Y-90469315D01*
X91916033Y-90469315D02*
X92049366Y-90502649D01*
X92049366Y-90502649D02*
X92282700Y-90502649D01*
X92282700Y-90502649D02*
X92416033Y-90469315D01*
X92416033Y-90469315D02*
X92482700Y-90402649D01*
X92482700Y-90402649D02*
X92516033Y-90335982D01*
X92516033Y-90335982D02*
X92516033Y-90202649D01*
X92516033Y-90202649D02*
X92482700Y-90135982D01*
X92482700Y-90135982D02*
X92416033Y-90069315D01*
X92416033Y-90069315D02*
X92282700Y-90035982D01*
X92282700Y-90035982D02*
X92049366Y-90035982D01*
X92049366Y-90035982D02*
X91916033Y-90069315D01*
X91916033Y-90069315D02*
X91849366Y-90135982D01*
X91849366Y-90135982D02*
X91816033Y-90202649D01*
X92516033Y-91169315D02*
X92516033Y-90769315D01*
X92516033Y-90969315D02*
X91816033Y-90969315D01*
X91816033Y-90969315D02*
X91916033Y-90902648D01*
X91916033Y-90902648D02*
X91982700Y-90835982D01*
X91982700Y-90835982D02*
X92016033Y-90769315D01*
X91816033Y-91802649D02*
X91816033Y-91469315D01*
X91816033Y-91469315D02*
X92149366Y-91435982D01*
X92149366Y-91435982D02*
X92116033Y-91469315D01*
X92116033Y-91469315D02*
X92082700Y-91535982D01*
X92082700Y-91535982D02*
X92082700Y-91702649D01*
X92082700Y-91702649D02*
X92116033Y-91769315D01*
X92116033Y-91769315D02*
X92149366Y-91802649D01*
X92149366Y-91802649D02*
X92216033Y-91835982D01*
X92216033Y-91835982D02*
X92382700Y-91835982D01*
X92382700Y-91835982D02*
X92449366Y-91802649D01*
X92449366Y-91802649D02*
X92482700Y-91769315D01*
X92482700Y-91769315D02*
X92516033Y-91702649D01*
X92516033Y-91702649D02*
X92516033Y-91535982D01*
X92516033Y-91535982D02*
X92482700Y-91469315D01*
X92482700Y-91469315D02*
X92449366Y-91435982D01*
X95056033Y-88401315D02*
X94356033Y-88401315D01*
X94356033Y-88401315D02*
X94356033Y-88567982D01*
X94356033Y-88567982D02*
X94389366Y-88667982D01*
X94389366Y-88667982D02*
X94456033Y-88734649D01*
X94456033Y-88734649D02*
X94522700Y-88767982D01*
X94522700Y-88767982D02*
X94656033Y-88801315D01*
X94656033Y-88801315D02*
X94756033Y-88801315D01*
X94756033Y-88801315D02*
X94889366Y-88767982D01*
X94889366Y-88767982D02*
X94956033Y-88734649D01*
X94956033Y-88734649D02*
X95022700Y-88667982D01*
X95022700Y-88667982D02*
X95056033Y-88567982D01*
X95056033Y-88567982D02*
X95056033Y-88401315D01*
X95056033Y-89467982D02*
X95056033Y-89067982D01*
X95056033Y-89267982D02*
X94356033Y-89267982D01*
X94356033Y-89267982D02*
X94456033Y-89201315D01*
X94456033Y-89201315D02*
X94522700Y-89134649D01*
X94522700Y-89134649D02*
X94556033Y-89067982D01*
X63829366Y-70001316D02*
X63796033Y-69934649D01*
X63796033Y-69934649D02*
X63796033Y-69834649D01*
X63796033Y-69834649D02*
X63829366Y-69734649D01*
X63829366Y-69734649D02*
X63896033Y-69667983D01*
X63896033Y-69667983D02*
X63962700Y-69634649D01*
X63962700Y-69634649D02*
X64096033Y-69601316D01*
X64096033Y-69601316D02*
X64196033Y-69601316D01*
X64196033Y-69601316D02*
X64329366Y-69634649D01*
X64329366Y-69634649D02*
X64396033Y-69667983D01*
X64396033Y-69667983D02*
X64462700Y-69734649D01*
X64462700Y-69734649D02*
X64496033Y-69834649D01*
X64496033Y-69834649D02*
X64496033Y-69901316D01*
X64496033Y-69901316D02*
X64462700Y-70001316D01*
X64462700Y-70001316D02*
X64429366Y-70034649D01*
X64429366Y-70034649D02*
X64196033Y-70034649D01*
X64196033Y-70034649D02*
X64196033Y-69901316D01*
X64496033Y-70334649D02*
X63796033Y-70334649D01*
X63796033Y-70334649D02*
X63796033Y-70601316D01*
X63796033Y-70601316D02*
X63829366Y-70667983D01*
X63829366Y-70667983D02*
X63862700Y-70701316D01*
X63862700Y-70701316D02*
X63929366Y-70734649D01*
X63929366Y-70734649D02*
X64029366Y-70734649D01*
X64029366Y-70734649D02*
X64096033Y-70701316D01*
X64096033Y-70701316D02*
X64129366Y-70667983D01*
X64129366Y-70667983D02*
X64162700Y-70601316D01*
X64162700Y-70601316D02*
X64162700Y-70334649D01*
X64496033Y-71034649D02*
X63796033Y-71034649D01*
X63796033Y-71501316D02*
X63796033Y-71634649D01*
X63796033Y-71634649D02*
X63829366Y-71701316D01*
X63829366Y-71701316D02*
X63896033Y-71767982D01*
X63896033Y-71767982D02*
X64029366Y-71801316D01*
X64029366Y-71801316D02*
X64262700Y-71801316D01*
X64262700Y-71801316D02*
X64396033Y-71767982D01*
X64396033Y-71767982D02*
X64462700Y-71701316D01*
X64462700Y-71701316D02*
X64496033Y-71634649D01*
X64496033Y-71634649D02*
X64496033Y-71501316D01*
X64496033Y-71501316D02*
X64462700Y-71434649D01*
X64462700Y-71434649D02*
X64396033Y-71367982D01*
X64396033Y-71367982D02*
X64262700Y-71334649D01*
X64262700Y-71334649D02*
X64029366Y-71334649D01*
X64029366Y-71334649D02*
X63896033Y-71367982D01*
X63896033Y-71367982D02*
X63829366Y-71434649D01*
X63829366Y-71434649D02*
X63796033Y-71501316D01*
X63796033Y-72034649D02*
X63796033Y-72467982D01*
X63796033Y-72467982D02*
X64062700Y-72234649D01*
X64062700Y-72234649D02*
X64062700Y-72334649D01*
X64062700Y-72334649D02*
X64096033Y-72401315D01*
X64096033Y-72401315D02*
X64129366Y-72434649D01*
X64129366Y-72434649D02*
X64196033Y-72467982D01*
X64196033Y-72467982D02*
X64362700Y-72467982D01*
X64362700Y-72467982D02*
X64429366Y-72434649D01*
X64429366Y-72434649D02*
X64462700Y-72401315D01*
X64462700Y-72401315D02*
X64496033Y-72334649D01*
X64496033Y-72334649D02*
X64496033Y-72134649D01*
X64496033Y-72134649D02*
X64462700Y-72067982D01*
X64462700Y-72067982D02*
X64429366Y-72034649D01*
X63762700Y-73267982D02*
X64662700Y-72667982D01*
X63796033Y-73501315D02*
X64362700Y-73501315D01*
X64362700Y-73501315D02*
X64429366Y-73534649D01*
X64429366Y-73534649D02*
X64462700Y-73567982D01*
X64462700Y-73567982D02*
X64496033Y-73634649D01*
X64496033Y-73634649D02*
X64496033Y-73767982D01*
X64496033Y-73767982D02*
X64462700Y-73834649D01*
X64462700Y-73834649D02*
X64429366Y-73867982D01*
X64429366Y-73867982D02*
X64362700Y-73901315D01*
X64362700Y-73901315D02*
X63796033Y-73901315D01*
X63796033Y-74367982D02*
X63796033Y-74434648D01*
X63796033Y-74434648D02*
X63829366Y-74501315D01*
X63829366Y-74501315D02*
X63862700Y-74534648D01*
X63862700Y-74534648D02*
X63929366Y-74567982D01*
X63929366Y-74567982D02*
X64062700Y-74601315D01*
X64062700Y-74601315D02*
X64229366Y-74601315D01*
X64229366Y-74601315D02*
X64362700Y-74567982D01*
X64362700Y-74567982D02*
X64429366Y-74534648D01*
X64429366Y-74534648D02*
X64462700Y-74501315D01*
X64462700Y-74501315D02*
X64496033Y-74434648D01*
X64496033Y-74434648D02*
X64496033Y-74367982D01*
X64496033Y-74367982D02*
X64462700Y-74301315D01*
X64462700Y-74301315D02*
X64429366Y-74267982D01*
X64429366Y-74267982D02*
X64362700Y-74234648D01*
X64362700Y-74234648D02*
X64229366Y-74201315D01*
X64229366Y-74201315D02*
X64062700Y-74201315D01*
X64062700Y-74201315D02*
X63929366Y-74234648D01*
X63929366Y-74234648D02*
X63862700Y-74267982D01*
X63862700Y-74267982D02*
X63829366Y-74301315D01*
X63829366Y-74301315D02*
X63796033Y-74367982D01*
X64496033Y-75301315D02*
X64162700Y-75067982D01*
X64496033Y-74901315D02*
X63796033Y-74901315D01*
X63796033Y-74901315D02*
X63796033Y-75167982D01*
X63796033Y-75167982D02*
X63829366Y-75234649D01*
X63829366Y-75234649D02*
X63862700Y-75267982D01*
X63862700Y-75267982D02*
X63929366Y-75301315D01*
X63929366Y-75301315D02*
X64029366Y-75301315D01*
X64029366Y-75301315D02*
X64096033Y-75267982D01*
X64096033Y-75267982D02*
X64129366Y-75234649D01*
X64129366Y-75234649D02*
X64162700Y-75167982D01*
X64162700Y-75167982D02*
X64162700Y-74901315D01*
X63796033Y-75534649D02*
X64496033Y-76001315D01*
X63796033Y-76001315D02*
X64496033Y-75534649D01*
X64496033Y-76267982D02*
X63796033Y-76267982D01*
X63796033Y-76267982D02*
X63796033Y-76434649D01*
X63796033Y-76434649D02*
X63829366Y-76534649D01*
X63829366Y-76534649D02*
X63896033Y-76601316D01*
X63896033Y-76601316D02*
X63962700Y-76634649D01*
X63962700Y-76634649D02*
X64096033Y-76667982D01*
X64096033Y-76667982D02*
X64196033Y-76667982D01*
X64196033Y-76667982D02*
X64329366Y-76634649D01*
X64329366Y-76634649D02*
X64396033Y-76601316D01*
X64396033Y-76601316D02*
X64462700Y-76534649D01*
X64462700Y-76534649D02*
X64496033Y-76434649D01*
X64496033Y-76434649D02*
X64496033Y-76267982D01*
X79029366Y-57902017D02*
X78996033Y-57835350D01*
X78996033Y-57835350D02*
X78996033Y-57735350D01*
X78996033Y-57735350D02*
X79029366Y-57635350D01*
X79029366Y-57635350D02*
X79096033Y-57568684D01*
X79096033Y-57568684D02*
X79162700Y-57535350D01*
X79162700Y-57535350D02*
X79296033Y-57502017D01*
X79296033Y-57502017D02*
X79396033Y-57502017D01*
X79396033Y-57502017D02*
X79529366Y-57535350D01*
X79529366Y-57535350D02*
X79596033Y-57568684D01*
X79596033Y-57568684D02*
X79662700Y-57635350D01*
X79662700Y-57635350D02*
X79696033Y-57735350D01*
X79696033Y-57735350D02*
X79696033Y-57802017D01*
X79696033Y-57802017D02*
X79662700Y-57902017D01*
X79662700Y-57902017D02*
X79629366Y-57935350D01*
X79629366Y-57935350D02*
X79396033Y-57935350D01*
X79396033Y-57935350D02*
X79396033Y-57802017D01*
X79696033Y-58235350D02*
X78996033Y-58235350D01*
X78996033Y-58235350D02*
X78996033Y-58502017D01*
X78996033Y-58502017D02*
X79029366Y-58568684D01*
X79029366Y-58568684D02*
X79062700Y-58602017D01*
X79062700Y-58602017D02*
X79129366Y-58635350D01*
X79129366Y-58635350D02*
X79229366Y-58635350D01*
X79229366Y-58635350D02*
X79296033Y-58602017D01*
X79296033Y-58602017D02*
X79329366Y-58568684D01*
X79329366Y-58568684D02*
X79362700Y-58502017D01*
X79362700Y-58502017D02*
X79362700Y-58235350D01*
X79696033Y-58935350D02*
X78996033Y-58935350D01*
X78996033Y-59402017D02*
X78996033Y-59535350D01*
X78996033Y-59535350D02*
X79029366Y-59602017D01*
X79029366Y-59602017D02*
X79096033Y-59668683D01*
X79096033Y-59668683D02*
X79229366Y-59702017D01*
X79229366Y-59702017D02*
X79462700Y-59702017D01*
X79462700Y-59702017D02*
X79596033Y-59668683D01*
X79596033Y-59668683D02*
X79662700Y-59602017D01*
X79662700Y-59602017D02*
X79696033Y-59535350D01*
X79696033Y-59535350D02*
X79696033Y-59402017D01*
X79696033Y-59402017D02*
X79662700Y-59335350D01*
X79662700Y-59335350D02*
X79596033Y-59268683D01*
X79596033Y-59268683D02*
X79462700Y-59235350D01*
X79462700Y-59235350D02*
X79229366Y-59235350D01*
X79229366Y-59235350D02*
X79096033Y-59268683D01*
X79096033Y-59268683D02*
X79029366Y-59335350D01*
X79029366Y-59335350D02*
X78996033Y-59402017D01*
X79062700Y-59968683D02*
X79029366Y-60002016D01*
X79029366Y-60002016D02*
X78996033Y-60068683D01*
X78996033Y-60068683D02*
X78996033Y-60235350D01*
X78996033Y-60235350D02*
X79029366Y-60302016D01*
X79029366Y-60302016D02*
X79062700Y-60335350D01*
X79062700Y-60335350D02*
X79129366Y-60368683D01*
X79129366Y-60368683D02*
X79196033Y-60368683D01*
X79196033Y-60368683D02*
X79296033Y-60335350D01*
X79296033Y-60335350D02*
X79696033Y-59935350D01*
X79696033Y-59935350D02*
X79696033Y-60368683D01*
X78996033Y-60602017D02*
X78996033Y-61068683D01*
X78996033Y-61068683D02*
X79696033Y-60768683D01*
X53582438Y-88815601D02*
X53534819Y-88720363D01*
X53534819Y-88720363D02*
X53534819Y-88577506D01*
X53534819Y-88577506D02*
X53582438Y-88434649D01*
X53582438Y-88434649D02*
X53677676Y-88339411D01*
X53677676Y-88339411D02*
X53772914Y-88291792D01*
X53772914Y-88291792D02*
X53963390Y-88244173D01*
X53963390Y-88244173D02*
X54106247Y-88244173D01*
X54106247Y-88244173D02*
X54296723Y-88291792D01*
X54296723Y-88291792D02*
X54391961Y-88339411D01*
X54391961Y-88339411D02*
X54487200Y-88434649D01*
X54487200Y-88434649D02*
X54534819Y-88577506D01*
X54534819Y-88577506D02*
X54534819Y-88672744D01*
X54534819Y-88672744D02*
X54487200Y-88815601D01*
X54487200Y-88815601D02*
X54439580Y-88863220D01*
X54439580Y-88863220D02*
X54106247Y-88863220D01*
X54106247Y-88863220D02*
X54106247Y-88672744D01*
X54534819Y-89291792D02*
X53534819Y-89291792D01*
X53534819Y-89291792D02*
X54534819Y-89863220D01*
X54534819Y-89863220D02*
X53534819Y-89863220D01*
X54534819Y-90339411D02*
X53534819Y-90339411D01*
X53534819Y-90339411D02*
X53534819Y-90577506D01*
X53534819Y-90577506D02*
X53582438Y-90720363D01*
X53582438Y-90720363D02*
X53677676Y-90815601D01*
X53677676Y-90815601D02*
X53772914Y-90863220D01*
X53772914Y-90863220D02*
X53963390Y-90910839D01*
X53963390Y-90910839D02*
X54106247Y-90910839D01*
X54106247Y-90910839D02*
X54296723Y-90863220D01*
X54296723Y-90863220D02*
X54391961Y-90815601D01*
X54391961Y-90815601D02*
X54487200Y-90720363D01*
X54487200Y-90720363D02*
X54534819Y-90577506D01*
X54534819Y-90577506D02*
X54534819Y-90339411D01*
X81689366Y-88634649D02*
X81656033Y-88567982D01*
X81656033Y-88567982D02*
X81656033Y-88467982D01*
X81656033Y-88467982D02*
X81689366Y-88367982D01*
X81689366Y-88367982D02*
X81756033Y-88301316D01*
X81756033Y-88301316D02*
X81822700Y-88267982D01*
X81822700Y-88267982D02*
X81956033Y-88234649D01*
X81956033Y-88234649D02*
X82056033Y-88234649D01*
X82056033Y-88234649D02*
X82189366Y-88267982D01*
X82189366Y-88267982D02*
X82256033Y-88301316D01*
X82256033Y-88301316D02*
X82322700Y-88367982D01*
X82322700Y-88367982D02*
X82356033Y-88467982D01*
X82356033Y-88467982D02*
X82356033Y-88534649D01*
X82356033Y-88534649D02*
X82322700Y-88634649D01*
X82322700Y-88634649D02*
X82289366Y-88667982D01*
X82289366Y-88667982D02*
X82056033Y-88667982D01*
X82056033Y-88667982D02*
X82056033Y-88534649D01*
X82356033Y-88967982D02*
X81656033Y-88967982D01*
X81656033Y-88967982D02*
X81656033Y-89234649D01*
X81656033Y-89234649D02*
X81689366Y-89301316D01*
X81689366Y-89301316D02*
X81722700Y-89334649D01*
X81722700Y-89334649D02*
X81789366Y-89367982D01*
X81789366Y-89367982D02*
X81889366Y-89367982D01*
X81889366Y-89367982D02*
X81956033Y-89334649D01*
X81956033Y-89334649D02*
X81989366Y-89301316D01*
X81989366Y-89301316D02*
X82022700Y-89234649D01*
X82022700Y-89234649D02*
X82022700Y-88967982D01*
X82356033Y-89667982D02*
X81656033Y-89667982D01*
X81656033Y-90134649D02*
X81656033Y-90267982D01*
X81656033Y-90267982D02*
X81689366Y-90334649D01*
X81689366Y-90334649D02*
X81756033Y-90401315D01*
X81756033Y-90401315D02*
X81889366Y-90434649D01*
X81889366Y-90434649D02*
X82122700Y-90434649D01*
X82122700Y-90434649D02*
X82256033Y-90401315D01*
X82256033Y-90401315D02*
X82322700Y-90334649D01*
X82322700Y-90334649D02*
X82356033Y-90267982D01*
X82356033Y-90267982D02*
X82356033Y-90134649D01*
X82356033Y-90134649D02*
X82322700Y-90067982D01*
X82322700Y-90067982D02*
X82256033Y-90001315D01*
X82256033Y-90001315D02*
X82122700Y-89967982D01*
X82122700Y-89967982D02*
X81889366Y-89967982D01*
X81889366Y-89967982D02*
X81756033Y-90001315D01*
X81756033Y-90001315D02*
X81689366Y-90067982D01*
X81689366Y-90067982D02*
X81656033Y-90134649D01*
X82356033Y-91101315D02*
X82356033Y-90701315D01*
X82356033Y-90901315D02*
X81656033Y-90901315D01*
X81656033Y-90901315D02*
X81756033Y-90834648D01*
X81756033Y-90834648D02*
X81822700Y-90767982D01*
X81822700Y-90767982D02*
X81856033Y-90701315D01*
X81656033Y-91701315D02*
X81656033Y-91567982D01*
X81656033Y-91567982D02*
X81689366Y-91501315D01*
X81689366Y-91501315D02*
X81722700Y-91467982D01*
X81722700Y-91467982D02*
X81822700Y-91401315D01*
X81822700Y-91401315D02*
X81956033Y-91367982D01*
X81956033Y-91367982D02*
X82222700Y-91367982D01*
X82222700Y-91367982D02*
X82289366Y-91401315D01*
X82289366Y-91401315D02*
X82322700Y-91434649D01*
X82322700Y-91434649D02*
X82356033Y-91501315D01*
X82356033Y-91501315D02*
X82356033Y-91634649D01*
X82356033Y-91634649D02*
X82322700Y-91701315D01*
X82322700Y-91701315D02*
X82289366Y-91734649D01*
X82289366Y-91734649D02*
X82222700Y-91767982D01*
X82222700Y-91767982D02*
X82056033Y-91767982D01*
X82056033Y-91767982D02*
X81989366Y-91734649D01*
X81989366Y-91734649D02*
X81956033Y-91701315D01*
X81956033Y-91701315D02*
X81922700Y-91634649D01*
X81922700Y-91634649D02*
X81922700Y-91501315D01*
X81922700Y-91501315D02*
X81956033Y-91434649D01*
X81956033Y-91434649D02*
X81989366Y-91401315D01*
X81989366Y-91401315D02*
X82056033Y-91367982D01*
X66369366Y-73534649D02*
X66336033Y-73467982D01*
X66336033Y-73467982D02*
X66336033Y-73367982D01*
X66336033Y-73367982D02*
X66369366Y-73267982D01*
X66369366Y-73267982D02*
X66436033Y-73201316D01*
X66436033Y-73201316D02*
X66502700Y-73167982D01*
X66502700Y-73167982D02*
X66636033Y-73134649D01*
X66636033Y-73134649D02*
X66736033Y-73134649D01*
X66736033Y-73134649D02*
X66869366Y-73167982D01*
X66869366Y-73167982D02*
X66936033Y-73201316D01*
X66936033Y-73201316D02*
X67002700Y-73267982D01*
X67002700Y-73267982D02*
X67036033Y-73367982D01*
X67036033Y-73367982D02*
X67036033Y-73434649D01*
X67036033Y-73434649D02*
X67002700Y-73534649D01*
X67002700Y-73534649D02*
X66969366Y-73567982D01*
X66969366Y-73567982D02*
X66736033Y-73567982D01*
X66736033Y-73567982D02*
X66736033Y-73434649D01*
X67036033Y-73867982D02*
X66336033Y-73867982D01*
X66336033Y-73867982D02*
X66336033Y-74134649D01*
X66336033Y-74134649D02*
X66369366Y-74201316D01*
X66369366Y-74201316D02*
X66402700Y-74234649D01*
X66402700Y-74234649D02*
X66469366Y-74267982D01*
X66469366Y-74267982D02*
X66569366Y-74267982D01*
X66569366Y-74267982D02*
X66636033Y-74234649D01*
X66636033Y-74234649D02*
X66669366Y-74201316D01*
X66669366Y-74201316D02*
X66702700Y-74134649D01*
X66702700Y-74134649D02*
X66702700Y-73867982D01*
X67036033Y-74567982D02*
X66336033Y-74567982D01*
X66336033Y-75034649D02*
X66336033Y-75167982D01*
X66336033Y-75167982D02*
X66369366Y-75234649D01*
X66369366Y-75234649D02*
X66436033Y-75301315D01*
X66436033Y-75301315D02*
X66569366Y-75334649D01*
X66569366Y-75334649D02*
X66802700Y-75334649D01*
X66802700Y-75334649D02*
X66936033Y-75301315D01*
X66936033Y-75301315D02*
X67002700Y-75234649D01*
X67002700Y-75234649D02*
X67036033Y-75167982D01*
X67036033Y-75167982D02*
X67036033Y-75034649D01*
X67036033Y-75034649D02*
X67002700Y-74967982D01*
X67002700Y-74967982D02*
X66936033Y-74901315D01*
X66936033Y-74901315D02*
X66802700Y-74867982D01*
X66802700Y-74867982D02*
X66569366Y-74867982D01*
X66569366Y-74867982D02*
X66436033Y-74901315D01*
X66436033Y-74901315D02*
X66369366Y-74967982D01*
X66369366Y-74967982D02*
X66336033Y-75034649D01*
X66402700Y-75601315D02*
X66369366Y-75634648D01*
X66369366Y-75634648D02*
X66336033Y-75701315D01*
X66336033Y-75701315D02*
X66336033Y-75867982D01*
X66336033Y-75867982D02*
X66369366Y-75934648D01*
X66369366Y-75934648D02*
X66402700Y-75967982D01*
X66402700Y-75967982D02*
X66469366Y-76001315D01*
X66469366Y-76001315D02*
X66536033Y-76001315D01*
X66536033Y-76001315D02*
X66636033Y-75967982D01*
X66636033Y-75967982D02*
X67036033Y-75567982D01*
X67036033Y-75567982D02*
X67036033Y-76001315D01*
X67036033Y-76667982D02*
X67036033Y-76267982D01*
X67036033Y-76467982D02*
X66336033Y-76467982D01*
X66336033Y-76467982D02*
X66436033Y-76401315D01*
X66436033Y-76401315D02*
X66502700Y-76334649D01*
X66502700Y-76334649D02*
X66536033Y-76267982D01*
X97516033Y-75601315D02*
X96816033Y-75601315D01*
X96816033Y-75601315D02*
X96816033Y-75767982D01*
X96816033Y-75767982D02*
X96849366Y-75867982D01*
X96849366Y-75867982D02*
X96916033Y-75934649D01*
X96916033Y-75934649D02*
X96982700Y-75967982D01*
X96982700Y-75967982D02*
X97116033Y-76001315D01*
X97116033Y-76001315D02*
X97216033Y-76001315D01*
X97216033Y-76001315D02*
X97349366Y-75967982D01*
X97349366Y-75967982D02*
X97416033Y-75934649D01*
X97416033Y-75934649D02*
X97482700Y-75867982D01*
X97482700Y-75867982D02*
X97516033Y-75767982D01*
X97516033Y-75767982D02*
X97516033Y-75601315D01*
X96816033Y-76434649D02*
X96816033Y-76501315D01*
X96816033Y-76501315D02*
X96849366Y-76567982D01*
X96849366Y-76567982D02*
X96882700Y-76601315D01*
X96882700Y-76601315D02*
X96949366Y-76634649D01*
X96949366Y-76634649D02*
X97082700Y-76667982D01*
X97082700Y-76667982D02*
X97249366Y-76667982D01*
X97249366Y-76667982D02*
X97382700Y-76634649D01*
X97382700Y-76634649D02*
X97449366Y-76601315D01*
X97449366Y-76601315D02*
X97482700Y-76567982D01*
X97482700Y-76567982D02*
X97516033Y-76501315D01*
X97516033Y-76501315D02*
X97516033Y-76434649D01*
X97516033Y-76434649D02*
X97482700Y-76367982D01*
X97482700Y-76367982D02*
X97449366Y-76334649D01*
X97449366Y-76334649D02*
X97382700Y-76301315D01*
X97382700Y-76301315D02*
X97249366Y-76267982D01*
X97249366Y-76267982D02*
X97082700Y-76267982D01*
X97082700Y-76267982D02*
X96949366Y-76301315D01*
X96949366Y-76301315D02*
X96882700Y-76334649D01*
X96882700Y-76334649D02*
X96849366Y-76367982D01*
X96849366Y-76367982D02*
X96816033Y-76434649D01*
X56289366Y-88634649D02*
X56256033Y-88567982D01*
X56256033Y-88567982D02*
X56256033Y-88467982D01*
X56256033Y-88467982D02*
X56289366Y-88367982D01*
X56289366Y-88367982D02*
X56356033Y-88301316D01*
X56356033Y-88301316D02*
X56422700Y-88267982D01*
X56422700Y-88267982D02*
X56556033Y-88234649D01*
X56556033Y-88234649D02*
X56656033Y-88234649D01*
X56656033Y-88234649D02*
X56789366Y-88267982D01*
X56789366Y-88267982D02*
X56856033Y-88301316D01*
X56856033Y-88301316D02*
X56922700Y-88367982D01*
X56922700Y-88367982D02*
X56956033Y-88467982D01*
X56956033Y-88467982D02*
X56956033Y-88534649D01*
X56956033Y-88534649D02*
X56922700Y-88634649D01*
X56922700Y-88634649D02*
X56889366Y-88667982D01*
X56889366Y-88667982D02*
X56656033Y-88667982D01*
X56656033Y-88667982D02*
X56656033Y-88534649D01*
X56956033Y-88967982D02*
X56256033Y-88967982D01*
X56256033Y-88967982D02*
X56256033Y-89234649D01*
X56256033Y-89234649D02*
X56289366Y-89301316D01*
X56289366Y-89301316D02*
X56322700Y-89334649D01*
X56322700Y-89334649D02*
X56389366Y-89367982D01*
X56389366Y-89367982D02*
X56489366Y-89367982D01*
X56489366Y-89367982D02*
X56556033Y-89334649D01*
X56556033Y-89334649D02*
X56589366Y-89301316D01*
X56589366Y-89301316D02*
X56622700Y-89234649D01*
X56622700Y-89234649D02*
X56622700Y-88967982D01*
X56956033Y-89667982D02*
X56256033Y-89667982D01*
X56256033Y-90134649D02*
X56256033Y-90267982D01*
X56256033Y-90267982D02*
X56289366Y-90334649D01*
X56289366Y-90334649D02*
X56356033Y-90401315D01*
X56356033Y-90401315D02*
X56489366Y-90434649D01*
X56489366Y-90434649D02*
X56722700Y-90434649D01*
X56722700Y-90434649D02*
X56856033Y-90401315D01*
X56856033Y-90401315D02*
X56922700Y-90334649D01*
X56922700Y-90334649D02*
X56956033Y-90267982D01*
X56956033Y-90267982D02*
X56956033Y-90134649D01*
X56956033Y-90134649D02*
X56922700Y-90067982D01*
X56922700Y-90067982D02*
X56856033Y-90001315D01*
X56856033Y-90001315D02*
X56722700Y-89967982D01*
X56722700Y-89967982D02*
X56489366Y-89967982D01*
X56489366Y-89967982D02*
X56356033Y-90001315D01*
X56356033Y-90001315D02*
X56289366Y-90067982D01*
X56289366Y-90067982D02*
X56256033Y-90134649D01*
X56322700Y-90701315D02*
X56289366Y-90734648D01*
X56289366Y-90734648D02*
X56256033Y-90801315D01*
X56256033Y-90801315D02*
X56256033Y-90967982D01*
X56256033Y-90967982D02*
X56289366Y-91034648D01*
X56289366Y-91034648D02*
X56322700Y-91067982D01*
X56322700Y-91067982D02*
X56389366Y-91101315D01*
X56389366Y-91101315D02*
X56456033Y-91101315D01*
X56456033Y-91101315D02*
X56556033Y-91067982D01*
X56556033Y-91067982D02*
X56956033Y-90667982D01*
X56956033Y-90667982D02*
X56956033Y-91101315D01*
X56256033Y-91334649D02*
X56256033Y-91767982D01*
X56256033Y-91767982D02*
X56522700Y-91534649D01*
X56522700Y-91534649D02*
X56522700Y-91634649D01*
X56522700Y-91634649D02*
X56556033Y-91701315D01*
X56556033Y-91701315D02*
X56589366Y-91734649D01*
X56589366Y-91734649D02*
X56656033Y-91767982D01*
X56656033Y-91767982D02*
X56822700Y-91767982D01*
X56822700Y-91767982D02*
X56889366Y-91734649D01*
X56889366Y-91734649D02*
X56922700Y-91701315D01*
X56922700Y-91701315D02*
X56956033Y-91634649D01*
X56956033Y-91634649D02*
X56956033Y-91434649D01*
X56956033Y-91434649D02*
X56922700Y-91367982D01*
X56922700Y-91367982D02*
X56889366Y-91334649D01*
X76609366Y-88701316D02*
X76576033Y-88634649D01*
X76576033Y-88634649D02*
X76576033Y-88534649D01*
X76576033Y-88534649D02*
X76609366Y-88434649D01*
X76609366Y-88434649D02*
X76676033Y-88367983D01*
X76676033Y-88367983D02*
X76742700Y-88334649D01*
X76742700Y-88334649D02*
X76876033Y-88301316D01*
X76876033Y-88301316D02*
X76976033Y-88301316D01*
X76976033Y-88301316D02*
X77109366Y-88334649D01*
X77109366Y-88334649D02*
X77176033Y-88367983D01*
X77176033Y-88367983D02*
X77242700Y-88434649D01*
X77242700Y-88434649D02*
X77276033Y-88534649D01*
X77276033Y-88534649D02*
X77276033Y-88601316D01*
X77276033Y-88601316D02*
X77242700Y-88701316D01*
X77242700Y-88701316D02*
X77209366Y-88734649D01*
X77209366Y-88734649D02*
X76976033Y-88734649D01*
X76976033Y-88734649D02*
X76976033Y-88601316D01*
X77276033Y-89034649D02*
X76576033Y-89034649D01*
X76576033Y-89034649D02*
X76576033Y-89301316D01*
X76576033Y-89301316D02*
X76609366Y-89367983D01*
X76609366Y-89367983D02*
X76642700Y-89401316D01*
X76642700Y-89401316D02*
X76709366Y-89434649D01*
X76709366Y-89434649D02*
X76809366Y-89434649D01*
X76809366Y-89434649D02*
X76876033Y-89401316D01*
X76876033Y-89401316D02*
X76909366Y-89367983D01*
X76909366Y-89367983D02*
X76942700Y-89301316D01*
X76942700Y-89301316D02*
X76942700Y-89034649D01*
X77276033Y-89734649D02*
X76576033Y-89734649D01*
X76576033Y-90201316D02*
X76576033Y-90334649D01*
X76576033Y-90334649D02*
X76609366Y-90401316D01*
X76609366Y-90401316D02*
X76676033Y-90467982D01*
X76676033Y-90467982D02*
X76809366Y-90501316D01*
X76809366Y-90501316D02*
X77042700Y-90501316D01*
X77042700Y-90501316D02*
X77176033Y-90467982D01*
X77176033Y-90467982D02*
X77242700Y-90401316D01*
X77242700Y-90401316D02*
X77276033Y-90334649D01*
X77276033Y-90334649D02*
X77276033Y-90201316D01*
X77276033Y-90201316D02*
X77242700Y-90134649D01*
X77242700Y-90134649D02*
X77176033Y-90067982D01*
X77176033Y-90067982D02*
X77042700Y-90034649D01*
X77042700Y-90034649D02*
X76809366Y-90034649D01*
X76809366Y-90034649D02*
X76676033Y-90067982D01*
X76676033Y-90067982D02*
X76609366Y-90134649D01*
X76609366Y-90134649D02*
X76576033Y-90201316D01*
X76576033Y-91134649D02*
X76576033Y-90801315D01*
X76576033Y-90801315D02*
X76909366Y-90767982D01*
X76909366Y-90767982D02*
X76876033Y-90801315D01*
X76876033Y-90801315D02*
X76842700Y-90867982D01*
X76842700Y-90867982D02*
X76842700Y-91034649D01*
X76842700Y-91034649D02*
X76876033Y-91101315D01*
X76876033Y-91101315D02*
X76909366Y-91134649D01*
X76909366Y-91134649D02*
X76976033Y-91167982D01*
X76976033Y-91167982D02*
X77142700Y-91167982D01*
X77142700Y-91167982D02*
X77209366Y-91134649D01*
X77209366Y-91134649D02*
X77242700Y-91101315D01*
X77242700Y-91101315D02*
X77276033Y-91034649D01*
X77276033Y-91034649D02*
X77276033Y-90867982D01*
X77276033Y-90867982D02*
X77242700Y-90801315D01*
X77242700Y-90801315D02*
X77209366Y-90767982D01*
X89189366Y-57902017D02*
X89156033Y-57835350D01*
X89156033Y-57835350D02*
X89156033Y-57735350D01*
X89156033Y-57735350D02*
X89189366Y-57635350D01*
X89189366Y-57635350D02*
X89256033Y-57568684D01*
X89256033Y-57568684D02*
X89322700Y-57535350D01*
X89322700Y-57535350D02*
X89456033Y-57502017D01*
X89456033Y-57502017D02*
X89556033Y-57502017D01*
X89556033Y-57502017D02*
X89689366Y-57535350D01*
X89689366Y-57535350D02*
X89756033Y-57568684D01*
X89756033Y-57568684D02*
X89822700Y-57635350D01*
X89822700Y-57635350D02*
X89856033Y-57735350D01*
X89856033Y-57735350D02*
X89856033Y-57802017D01*
X89856033Y-57802017D02*
X89822700Y-57902017D01*
X89822700Y-57902017D02*
X89789366Y-57935350D01*
X89789366Y-57935350D02*
X89556033Y-57935350D01*
X89556033Y-57935350D02*
X89556033Y-57802017D01*
X89856033Y-58235350D02*
X89156033Y-58235350D01*
X89156033Y-58235350D02*
X89156033Y-58502017D01*
X89156033Y-58502017D02*
X89189366Y-58568684D01*
X89189366Y-58568684D02*
X89222700Y-58602017D01*
X89222700Y-58602017D02*
X89289366Y-58635350D01*
X89289366Y-58635350D02*
X89389366Y-58635350D01*
X89389366Y-58635350D02*
X89456033Y-58602017D01*
X89456033Y-58602017D02*
X89489366Y-58568684D01*
X89489366Y-58568684D02*
X89522700Y-58502017D01*
X89522700Y-58502017D02*
X89522700Y-58235350D01*
X89856033Y-58935350D02*
X89156033Y-58935350D01*
X89156033Y-59402017D02*
X89156033Y-59535350D01*
X89156033Y-59535350D02*
X89189366Y-59602017D01*
X89189366Y-59602017D02*
X89256033Y-59668683D01*
X89256033Y-59668683D02*
X89389366Y-59702017D01*
X89389366Y-59702017D02*
X89622700Y-59702017D01*
X89622700Y-59702017D02*
X89756033Y-59668683D01*
X89756033Y-59668683D02*
X89822700Y-59602017D01*
X89822700Y-59602017D02*
X89856033Y-59535350D01*
X89856033Y-59535350D02*
X89856033Y-59402017D01*
X89856033Y-59402017D02*
X89822700Y-59335350D01*
X89822700Y-59335350D02*
X89756033Y-59268683D01*
X89756033Y-59268683D02*
X89622700Y-59235350D01*
X89622700Y-59235350D02*
X89389366Y-59235350D01*
X89389366Y-59235350D02*
X89256033Y-59268683D01*
X89256033Y-59268683D02*
X89189366Y-59335350D01*
X89189366Y-59335350D02*
X89156033Y-59402017D01*
X89856033Y-60368683D02*
X89856033Y-59968683D01*
X89856033Y-60168683D02*
X89156033Y-60168683D01*
X89156033Y-60168683D02*
X89256033Y-60102016D01*
X89256033Y-60102016D02*
X89322700Y-60035350D01*
X89322700Y-60035350D02*
X89356033Y-59968683D01*
X89156033Y-60602017D02*
X89156033Y-61035350D01*
X89156033Y-61035350D02*
X89422700Y-60802017D01*
X89422700Y-60802017D02*
X89422700Y-60902017D01*
X89422700Y-60902017D02*
X89456033Y-60968683D01*
X89456033Y-60968683D02*
X89489366Y-61002017D01*
X89489366Y-61002017D02*
X89556033Y-61035350D01*
X89556033Y-61035350D02*
X89722700Y-61035350D01*
X89722700Y-61035350D02*
X89789366Y-61002017D01*
X89789366Y-61002017D02*
X89822700Y-60968683D01*
X89822700Y-60968683D02*
X89856033Y-60902017D01*
X89856033Y-60902017D02*
X89856033Y-60702017D01*
X89856033Y-60702017D02*
X89822700Y-60635350D01*
X89822700Y-60635350D02*
X89789366Y-60602017D01*
X89122700Y-61835350D02*
X90022700Y-61235350D01*
X89856033Y-62068683D02*
X89156033Y-62068683D01*
X89156033Y-62068683D02*
X89656033Y-62302017D01*
X89656033Y-62302017D02*
X89156033Y-62535350D01*
X89156033Y-62535350D02*
X89856033Y-62535350D01*
X89156033Y-62768683D02*
X89156033Y-63168683D01*
X89856033Y-62968683D02*
X89156033Y-62968683D01*
X89789366Y-63802016D02*
X89822700Y-63768683D01*
X89822700Y-63768683D02*
X89856033Y-63668683D01*
X89856033Y-63668683D02*
X89856033Y-63602016D01*
X89856033Y-63602016D02*
X89822700Y-63502016D01*
X89822700Y-63502016D02*
X89756033Y-63435350D01*
X89756033Y-63435350D02*
X89689366Y-63402016D01*
X89689366Y-63402016D02*
X89556033Y-63368683D01*
X89556033Y-63368683D02*
X89456033Y-63368683D01*
X89456033Y-63368683D02*
X89322700Y-63402016D01*
X89322700Y-63402016D02*
X89256033Y-63435350D01*
X89256033Y-63435350D02*
X89189366Y-63502016D01*
X89189366Y-63502016D02*
X89156033Y-63602016D01*
X89156033Y-63602016D02*
X89156033Y-63668683D01*
X89156033Y-63668683D02*
X89189366Y-63768683D01*
X89189366Y-63768683D02*
X89222700Y-63802016D01*
X89856033Y-64102016D02*
X89156033Y-64102016D01*
X89856033Y-64502016D02*
X89456033Y-64202016D01*
X89156033Y-64502016D02*
X89556033Y-64102016D01*
X94936033Y-57535350D02*
X94236033Y-57535350D01*
X94236033Y-57535350D02*
X94236033Y-57702017D01*
X94236033Y-57702017D02*
X94269366Y-57802017D01*
X94269366Y-57802017D02*
X94336033Y-57868684D01*
X94336033Y-57868684D02*
X94402700Y-57902017D01*
X94402700Y-57902017D02*
X94536033Y-57935350D01*
X94536033Y-57935350D02*
X94636033Y-57935350D01*
X94636033Y-57935350D02*
X94769366Y-57902017D01*
X94769366Y-57902017D02*
X94836033Y-57868684D01*
X94836033Y-57868684D02*
X94902700Y-57802017D01*
X94902700Y-57802017D02*
X94936033Y-57702017D01*
X94936033Y-57702017D02*
X94936033Y-57535350D01*
X94236033Y-58168684D02*
X94236033Y-58602017D01*
X94236033Y-58602017D02*
X94502700Y-58368684D01*
X94502700Y-58368684D02*
X94502700Y-58468684D01*
X94502700Y-58468684D02*
X94536033Y-58535350D01*
X94536033Y-58535350D02*
X94569366Y-58568684D01*
X94569366Y-58568684D02*
X94636033Y-58602017D01*
X94636033Y-58602017D02*
X94802700Y-58602017D01*
X94802700Y-58602017D02*
X94869366Y-58568684D01*
X94869366Y-58568684D02*
X94902700Y-58535350D01*
X94902700Y-58535350D02*
X94936033Y-58468684D01*
X94936033Y-58468684D02*
X94936033Y-58268684D01*
X94936033Y-58268684D02*
X94902700Y-58202017D01*
X94902700Y-58202017D02*
X94869366Y-58168684D01*
X68869366Y-57902017D02*
X68836033Y-57835350D01*
X68836033Y-57835350D02*
X68836033Y-57735350D01*
X68836033Y-57735350D02*
X68869366Y-57635350D01*
X68869366Y-57635350D02*
X68936033Y-57568684D01*
X68936033Y-57568684D02*
X69002700Y-57535350D01*
X69002700Y-57535350D02*
X69136033Y-57502017D01*
X69136033Y-57502017D02*
X69236033Y-57502017D01*
X69236033Y-57502017D02*
X69369366Y-57535350D01*
X69369366Y-57535350D02*
X69436033Y-57568684D01*
X69436033Y-57568684D02*
X69502700Y-57635350D01*
X69502700Y-57635350D02*
X69536033Y-57735350D01*
X69536033Y-57735350D02*
X69536033Y-57802017D01*
X69536033Y-57802017D02*
X69502700Y-57902017D01*
X69502700Y-57902017D02*
X69469366Y-57935350D01*
X69469366Y-57935350D02*
X69236033Y-57935350D01*
X69236033Y-57935350D02*
X69236033Y-57802017D01*
X69536033Y-58235350D02*
X68836033Y-58235350D01*
X68836033Y-58235350D02*
X68836033Y-58502017D01*
X68836033Y-58502017D02*
X68869366Y-58568684D01*
X68869366Y-58568684D02*
X68902700Y-58602017D01*
X68902700Y-58602017D02*
X68969366Y-58635350D01*
X68969366Y-58635350D02*
X69069366Y-58635350D01*
X69069366Y-58635350D02*
X69136033Y-58602017D01*
X69136033Y-58602017D02*
X69169366Y-58568684D01*
X69169366Y-58568684D02*
X69202700Y-58502017D01*
X69202700Y-58502017D02*
X69202700Y-58235350D01*
X69536033Y-58935350D02*
X68836033Y-58935350D01*
X68836033Y-59402017D02*
X68836033Y-59535350D01*
X68836033Y-59535350D02*
X68869366Y-59602017D01*
X68869366Y-59602017D02*
X68936033Y-59668683D01*
X68936033Y-59668683D02*
X69069366Y-59702017D01*
X69069366Y-59702017D02*
X69302700Y-59702017D01*
X69302700Y-59702017D02*
X69436033Y-59668683D01*
X69436033Y-59668683D02*
X69502700Y-59602017D01*
X69502700Y-59602017D02*
X69536033Y-59535350D01*
X69536033Y-59535350D02*
X69536033Y-59402017D01*
X69536033Y-59402017D02*
X69502700Y-59335350D01*
X69502700Y-59335350D02*
X69436033Y-59268683D01*
X69436033Y-59268683D02*
X69302700Y-59235350D01*
X69302700Y-59235350D02*
X69069366Y-59235350D01*
X69069366Y-59235350D02*
X68936033Y-59268683D01*
X68936033Y-59268683D02*
X68869366Y-59335350D01*
X68869366Y-59335350D02*
X68836033Y-59402017D01*
X68836033Y-59935350D02*
X68836033Y-60368683D01*
X68836033Y-60368683D02*
X69102700Y-60135350D01*
X69102700Y-60135350D02*
X69102700Y-60235350D01*
X69102700Y-60235350D02*
X69136033Y-60302016D01*
X69136033Y-60302016D02*
X69169366Y-60335350D01*
X69169366Y-60335350D02*
X69236033Y-60368683D01*
X69236033Y-60368683D02*
X69402700Y-60368683D01*
X69402700Y-60368683D02*
X69469366Y-60335350D01*
X69469366Y-60335350D02*
X69502700Y-60302016D01*
X69502700Y-60302016D02*
X69536033Y-60235350D01*
X69536033Y-60235350D02*
X69536033Y-60035350D01*
X69536033Y-60035350D02*
X69502700Y-59968683D01*
X69502700Y-59968683D02*
X69469366Y-59935350D01*
X68902700Y-60635350D02*
X68869366Y-60668683D01*
X68869366Y-60668683D02*
X68836033Y-60735350D01*
X68836033Y-60735350D02*
X68836033Y-60902017D01*
X68836033Y-60902017D02*
X68869366Y-60968683D01*
X68869366Y-60968683D02*
X68902700Y-61002017D01*
X68902700Y-61002017D02*
X68969366Y-61035350D01*
X68969366Y-61035350D02*
X69036033Y-61035350D01*
X69036033Y-61035350D02*
X69136033Y-61002017D01*
X69136033Y-61002017D02*
X69536033Y-60602017D01*
X69536033Y-60602017D02*
X69536033Y-61035350D01*
X89309366Y-88701316D02*
X89276033Y-88634649D01*
X89276033Y-88634649D02*
X89276033Y-88534649D01*
X89276033Y-88534649D02*
X89309366Y-88434649D01*
X89309366Y-88434649D02*
X89376033Y-88367983D01*
X89376033Y-88367983D02*
X89442700Y-88334649D01*
X89442700Y-88334649D02*
X89576033Y-88301316D01*
X89576033Y-88301316D02*
X89676033Y-88301316D01*
X89676033Y-88301316D02*
X89809366Y-88334649D01*
X89809366Y-88334649D02*
X89876033Y-88367983D01*
X89876033Y-88367983D02*
X89942700Y-88434649D01*
X89942700Y-88434649D02*
X89976033Y-88534649D01*
X89976033Y-88534649D02*
X89976033Y-88601316D01*
X89976033Y-88601316D02*
X89942700Y-88701316D01*
X89942700Y-88701316D02*
X89909366Y-88734649D01*
X89909366Y-88734649D02*
X89676033Y-88734649D01*
X89676033Y-88734649D02*
X89676033Y-88601316D01*
X89976033Y-89034649D02*
X89276033Y-89034649D01*
X89276033Y-89034649D02*
X89276033Y-89301316D01*
X89276033Y-89301316D02*
X89309366Y-89367983D01*
X89309366Y-89367983D02*
X89342700Y-89401316D01*
X89342700Y-89401316D02*
X89409366Y-89434649D01*
X89409366Y-89434649D02*
X89509366Y-89434649D01*
X89509366Y-89434649D02*
X89576033Y-89401316D01*
X89576033Y-89401316D02*
X89609366Y-89367983D01*
X89609366Y-89367983D02*
X89642700Y-89301316D01*
X89642700Y-89301316D02*
X89642700Y-89034649D01*
X89976033Y-89734649D02*
X89276033Y-89734649D01*
X89276033Y-90201316D02*
X89276033Y-90334649D01*
X89276033Y-90334649D02*
X89309366Y-90401316D01*
X89309366Y-90401316D02*
X89376033Y-90467982D01*
X89376033Y-90467982D02*
X89509366Y-90501316D01*
X89509366Y-90501316D02*
X89742700Y-90501316D01*
X89742700Y-90501316D02*
X89876033Y-90467982D01*
X89876033Y-90467982D02*
X89942700Y-90401316D01*
X89942700Y-90401316D02*
X89976033Y-90334649D01*
X89976033Y-90334649D02*
X89976033Y-90201316D01*
X89976033Y-90201316D02*
X89942700Y-90134649D01*
X89942700Y-90134649D02*
X89876033Y-90067982D01*
X89876033Y-90067982D02*
X89742700Y-90034649D01*
X89742700Y-90034649D02*
X89509366Y-90034649D01*
X89509366Y-90034649D02*
X89376033Y-90067982D01*
X89376033Y-90067982D02*
X89309366Y-90134649D01*
X89309366Y-90134649D02*
X89276033Y-90201316D01*
X89342700Y-90767982D02*
X89309366Y-90801315D01*
X89309366Y-90801315D02*
X89276033Y-90867982D01*
X89276033Y-90867982D02*
X89276033Y-91034649D01*
X89276033Y-91034649D02*
X89309366Y-91101315D01*
X89309366Y-91101315D02*
X89342700Y-91134649D01*
X89342700Y-91134649D02*
X89409366Y-91167982D01*
X89409366Y-91167982D02*
X89476033Y-91167982D01*
X89476033Y-91167982D02*
X89576033Y-91134649D01*
X89576033Y-91134649D02*
X89976033Y-90734649D01*
X89976033Y-90734649D02*
X89976033Y-91167982D01*
X71449366Y-73534649D02*
X71416033Y-73467982D01*
X71416033Y-73467982D02*
X71416033Y-73367982D01*
X71416033Y-73367982D02*
X71449366Y-73267982D01*
X71449366Y-73267982D02*
X71516033Y-73201316D01*
X71516033Y-73201316D02*
X71582700Y-73167982D01*
X71582700Y-73167982D02*
X71716033Y-73134649D01*
X71716033Y-73134649D02*
X71816033Y-73134649D01*
X71816033Y-73134649D02*
X71949366Y-73167982D01*
X71949366Y-73167982D02*
X72016033Y-73201316D01*
X72016033Y-73201316D02*
X72082700Y-73267982D01*
X72082700Y-73267982D02*
X72116033Y-73367982D01*
X72116033Y-73367982D02*
X72116033Y-73434649D01*
X72116033Y-73434649D02*
X72082700Y-73534649D01*
X72082700Y-73534649D02*
X72049366Y-73567982D01*
X72049366Y-73567982D02*
X71816033Y-73567982D01*
X71816033Y-73567982D02*
X71816033Y-73434649D01*
X72116033Y-73867982D02*
X71416033Y-73867982D01*
X71416033Y-73867982D02*
X71416033Y-74134649D01*
X71416033Y-74134649D02*
X71449366Y-74201316D01*
X71449366Y-74201316D02*
X71482700Y-74234649D01*
X71482700Y-74234649D02*
X71549366Y-74267982D01*
X71549366Y-74267982D02*
X71649366Y-74267982D01*
X71649366Y-74267982D02*
X71716033Y-74234649D01*
X71716033Y-74234649D02*
X71749366Y-74201316D01*
X71749366Y-74201316D02*
X71782700Y-74134649D01*
X71782700Y-74134649D02*
X71782700Y-73867982D01*
X72116033Y-74567982D02*
X71416033Y-74567982D01*
X71416033Y-75034649D02*
X71416033Y-75167982D01*
X71416033Y-75167982D02*
X71449366Y-75234649D01*
X71449366Y-75234649D02*
X71516033Y-75301315D01*
X71516033Y-75301315D02*
X71649366Y-75334649D01*
X71649366Y-75334649D02*
X71882700Y-75334649D01*
X71882700Y-75334649D02*
X72016033Y-75301315D01*
X72016033Y-75301315D02*
X72082700Y-75234649D01*
X72082700Y-75234649D02*
X72116033Y-75167982D01*
X72116033Y-75167982D02*
X72116033Y-75034649D01*
X72116033Y-75034649D02*
X72082700Y-74967982D01*
X72082700Y-74967982D02*
X72016033Y-74901315D01*
X72016033Y-74901315D02*
X71882700Y-74867982D01*
X71882700Y-74867982D02*
X71649366Y-74867982D01*
X71649366Y-74867982D02*
X71516033Y-74901315D01*
X71516033Y-74901315D02*
X71449366Y-74967982D01*
X71449366Y-74967982D02*
X71416033Y-75034649D01*
X72116033Y-76001315D02*
X72116033Y-75601315D01*
X72116033Y-75801315D02*
X71416033Y-75801315D01*
X71416033Y-75801315D02*
X71516033Y-75734648D01*
X71516033Y-75734648D02*
X71582700Y-75667982D01*
X71582700Y-75667982D02*
X71616033Y-75601315D01*
X72116033Y-76334649D02*
X72116033Y-76467982D01*
X72116033Y-76467982D02*
X72082700Y-76534649D01*
X72082700Y-76534649D02*
X72049366Y-76567982D01*
X72049366Y-76567982D02*
X71949366Y-76634649D01*
X71949366Y-76634649D02*
X71816033Y-76667982D01*
X71816033Y-76667982D02*
X71549366Y-76667982D01*
X71549366Y-76667982D02*
X71482700Y-76634649D01*
X71482700Y-76634649D02*
X71449366Y-76601315D01*
X71449366Y-76601315D02*
X71416033Y-76534649D01*
X71416033Y-76534649D02*
X71416033Y-76401315D01*
X71416033Y-76401315D02*
X71449366Y-76334649D01*
X71449366Y-76334649D02*
X71482700Y-76301315D01*
X71482700Y-76301315D02*
X71549366Y-76267982D01*
X71549366Y-76267982D02*
X71716033Y-76267982D01*
X71716033Y-76267982D02*
X71782700Y-76301315D01*
X71782700Y-76301315D02*
X71816033Y-76334649D01*
X71816033Y-76334649D02*
X71849366Y-76401315D01*
X71849366Y-76401315D02*
X71849366Y-76534649D01*
X71849366Y-76534649D02*
X71816033Y-76601315D01*
X71816033Y-76601315D02*
X71782700Y-76634649D01*
X71782700Y-76634649D02*
X71716033Y-76667982D01*
X73949366Y-57902017D02*
X73916033Y-57835350D01*
X73916033Y-57835350D02*
X73916033Y-57735350D01*
X73916033Y-57735350D02*
X73949366Y-57635350D01*
X73949366Y-57635350D02*
X74016033Y-57568684D01*
X74016033Y-57568684D02*
X74082700Y-57535350D01*
X74082700Y-57535350D02*
X74216033Y-57502017D01*
X74216033Y-57502017D02*
X74316033Y-57502017D01*
X74316033Y-57502017D02*
X74449366Y-57535350D01*
X74449366Y-57535350D02*
X74516033Y-57568684D01*
X74516033Y-57568684D02*
X74582700Y-57635350D01*
X74582700Y-57635350D02*
X74616033Y-57735350D01*
X74616033Y-57735350D02*
X74616033Y-57802017D01*
X74616033Y-57802017D02*
X74582700Y-57902017D01*
X74582700Y-57902017D02*
X74549366Y-57935350D01*
X74549366Y-57935350D02*
X74316033Y-57935350D01*
X74316033Y-57935350D02*
X74316033Y-57802017D01*
X74616033Y-58235350D02*
X73916033Y-58235350D01*
X73916033Y-58235350D02*
X73916033Y-58502017D01*
X73916033Y-58502017D02*
X73949366Y-58568684D01*
X73949366Y-58568684D02*
X73982700Y-58602017D01*
X73982700Y-58602017D02*
X74049366Y-58635350D01*
X74049366Y-58635350D02*
X74149366Y-58635350D01*
X74149366Y-58635350D02*
X74216033Y-58602017D01*
X74216033Y-58602017D02*
X74249366Y-58568684D01*
X74249366Y-58568684D02*
X74282700Y-58502017D01*
X74282700Y-58502017D02*
X74282700Y-58235350D01*
X74616033Y-58935350D02*
X73916033Y-58935350D01*
X73916033Y-59402017D02*
X73916033Y-59535350D01*
X73916033Y-59535350D02*
X73949366Y-59602017D01*
X73949366Y-59602017D02*
X74016033Y-59668683D01*
X74016033Y-59668683D02*
X74149366Y-59702017D01*
X74149366Y-59702017D02*
X74382700Y-59702017D01*
X74382700Y-59702017D02*
X74516033Y-59668683D01*
X74516033Y-59668683D02*
X74582700Y-59602017D01*
X74582700Y-59602017D02*
X74616033Y-59535350D01*
X74616033Y-59535350D02*
X74616033Y-59402017D01*
X74616033Y-59402017D02*
X74582700Y-59335350D01*
X74582700Y-59335350D02*
X74516033Y-59268683D01*
X74516033Y-59268683D02*
X74382700Y-59235350D01*
X74382700Y-59235350D02*
X74149366Y-59235350D01*
X74149366Y-59235350D02*
X74016033Y-59268683D01*
X74016033Y-59268683D02*
X73949366Y-59335350D01*
X73949366Y-59335350D02*
X73916033Y-59402017D01*
X73982700Y-59968683D02*
X73949366Y-60002016D01*
X73949366Y-60002016D02*
X73916033Y-60068683D01*
X73916033Y-60068683D02*
X73916033Y-60235350D01*
X73916033Y-60235350D02*
X73949366Y-60302016D01*
X73949366Y-60302016D02*
X73982700Y-60335350D01*
X73982700Y-60335350D02*
X74049366Y-60368683D01*
X74049366Y-60368683D02*
X74116033Y-60368683D01*
X74116033Y-60368683D02*
X74216033Y-60335350D01*
X74216033Y-60335350D02*
X74616033Y-59935350D01*
X74616033Y-59935350D02*
X74616033Y-60368683D01*
X73916033Y-61002017D02*
X73916033Y-60668683D01*
X73916033Y-60668683D02*
X74249366Y-60635350D01*
X74249366Y-60635350D02*
X74216033Y-60668683D01*
X74216033Y-60668683D02*
X74182700Y-60735350D01*
X74182700Y-60735350D02*
X74182700Y-60902017D01*
X74182700Y-60902017D02*
X74216033Y-60968683D01*
X74216033Y-60968683D02*
X74249366Y-61002017D01*
X74249366Y-61002017D02*
X74316033Y-61035350D01*
X74316033Y-61035350D02*
X74482700Y-61035350D01*
X74482700Y-61035350D02*
X74549366Y-61002017D01*
X74549366Y-61002017D02*
X74582700Y-60968683D01*
X74582700Y-60968683D02*
X74616033Y-60902017D01*
X74616033Y-60902017D02*
X74616033Y-60735350D01*
X74616033Y-60735350D02*
X74582700Y-60668683D01*
X74582700Y-60668683D02*
X74549366Y-60635350D01*
X53522438Y-74515601D02*
X53474819Y-74420363D01*
X53474819Y-74420363D02*
X53474819Y-74277506D01*
X53474819Y-74277506D02*
X53522438Y-74134649D01*
X53522438Y-74134649D02*
X53617676Y-74039411D01*
X53617676Y-74039411D02*
X53712914Y-73991792D01*
X53712914Y-73991792D02*
X53903390Y-73944173D01*
X53903390Y-73944173D02*
X54046247Y-73944173D01*
X54046247Y-73944173D02*
X54236723Y-73991792D01*
X54236723Y-73991792D02*
X54331961Y-74039411D01*
X54331961Y-74039411D02*
X54427200Y-74134649D01*
X54427200Y-74134649D02*
X54474819Y-74277506D01*
X54474819Y-74277506D02*
X54474819Y-74372744D01*
X54474819Y-74372744D02*
X54427200Y-74515601D01*
X54427200Y-74515601D02*
X54379580Y-74563220D01*
X54379580Y-74563220D02*
X54046247Y-74563220D01*
X54046247Y-74563220D02*
X54046247Y-74372744D01*
X54474819Y-74991792D02*
X53474819Y-74991792D01*
X53474819Y-74991792D02*
X54474819Y-75563220D01*
X54474819Y-75563220D02*
X53474819Y-75563220D01*
X54474819Y-76039411D02*
X53474819Y-76039411D01*
X53474819Y-76039411D02*
X53474819Y-76277506D01*
X53474819Y-76277506D02*
X53522438Y-76420363D01*
X53522438Y-76420363D02*
X53617676Y-76515601D01*
X53617676Y-76515601D02*
X53712914Y-76563220D01*
X53712914Y-76563220D02*
X53903390Y-76610839D01*
X53903390Y-76610839D02*
X54046247Y-76610839D01*
X54046247Y-76610839D02*
X54236723Y-76563220D01*
X54236723Y-76563220D02*
X54331961Y-76515601D01*
X54331961Y-76515601D02*
X54427200Y-76420363D01*
X54427200Y-76420363D02*
X54474819Y-76277506D01*
X54474819Y-76277506D02*
X54474819Y-76039411D01*
X76529366Y-74201316D02*
X76496033Y-74134649D01*
X76496033Y-74134649D02*
X76496033Y-74034649D01*
X76496033Y-74034649D02*
X76529366Y-73934649D01*
X76529366Y-73934649D02*
X76596033Y-73867983D01*
X76596033Y-73867983D02*
X76662700Y-73834649D01*
X76662700Y-73834649D02*
X76796033Y-73801316D01*
X76796033Y-73801316D02*
X76896033Y-73801316D01*
X76896033Y-73801316D02*
X77029366Y-73834649D01*
X77029366Y-73834649D02*
X77096033Y-73867983D01*
X77096033Y-73867983D02*
X77162700Y-73934649D01*
X77162700Y-73934649D02*
X77196033Y-74034649D01*
X77196033Y-74034649D02*
X77196033Y-74101316D01*
X77196033Y-74101316D02*
X77162700Y-74201316D01*
X77162700Y-74201316D02*
X77129366Y-74234649D01*
X77129366Y-74234649D02*
X76896033Y-74234649D01*
X76896033Y-74234649D02*
X76896033Y-74101316D01*
X77196033Y-74534649D02*
X76496033Y-74534649D01*
X76496033Y-74534649D02*
X76496033Y-74801316D01*
X76496033Y-74801316D02*
X76529366Y-74867983D01*
X76529366Y-74867983D02*
X76562700Y-74901316D01*
X76562700Y-74901316D02*
X76629366Y-74934649D01*
X76629366Y-74934649D02*
X76729366Y-74934649D01*
X76729366Y-74934649D02*
X76796033Y-74901316D01*
X76796033Y-74901316D02*
X76829366Y-74867983D01*
X76829366Y-74867983D02*
X76862700Y-74801316D01*
X76862700Y-74801316D02*
X76862700Y-74534649D01*
X77196033Y-75234649D02*
X76496033Y-75234649D01*
X76496033Y-75701316D02*
X76496033Y-75834649D01*
X76496033Y-75834649D02*
X76529366Y-75901316D01*
X76529366Y-75901316D02*
X76596033Y-75967982D01*
X76596033Y-75967982D02*
X76729366Y-76001316D01*
X76729366Y-76001316D02*
X76962700Y-76001316D01*
X76962700Y-76001316D02*
X77096033Y-75967982D01*
X77096033Y-75967982D02*
X77162700Y-75901316D01*
X77162700Y-75901316D02*
X77196033Y-75834649D01*
X77196033Y-75834649D02*
X77196033Y-75701316D01*
X77196033Y-75701316D02*
X77162700Y-75634649D01*
X77162700Y-75634649D02*
X77096033Y-75567982D01*
X77096033Y-75567982D02*
X76962700Y-75534649D01*
X76962700Y-75534649D02*
X76729366Y-75534649D01*
X76729366Y-75534649D02*
X76596033Y-75567982D01*
X76596033Y-75567982D02*
X76529366Y-75634649D01*
X76529366Y-75634649D02*
X76496033Y-75701316D01*
X76496033Y-76634649D02*
X76496033Y-76301315D01*
X76496033Y-76301315D02*
X76829366Y-76267982D01*
X76829366Y-76267982D02*
X76796033Y-76301315D01*
X76796033Y-76301315D02*
X76762700Y-76367982D01*
X76762700Y-76367982D02*
X76762700Y-76534649D01*
X76762700Y-76534649D02*
X76796033Y-76601315D01*
X76796033Y-76601315D02*
X76829366Y-76634649D01*
X76829366Y-76634649D02*
X76896033Y-76667982D01*
X76896033Y-76667982D02*
X77062700Y-76667982D01*
X77062700Y-76667982D02*
X77129366Y-76634649D01*
X77129366Y-76634649D02*
X77162700Y-76601315D01*
X77162700Y-76601315D02*
X77196033Y-76534649D01*
X77196033Y-76534649D02*
X77196033Y-76367982D01*
X77196033Y-76367982D02*
X77162700Y-76301315D01*
X77162700Y-76301315D02*
X77129366Y-76267982D01*
X79069366Y-73534649D02*
X79036033Y-73467982D01*
X79036033Y-73467982D02*
X79036033Y-73367982D01*
X79036033Y-73367982D02*
X79069366Y-73267982D01*
X79069366Y-73267982D02*
X79136033Y-73201316D01*
X79136033Y-73201316D02*
X79202700Y-73167982D01*
X79202700Y-73167982D02*
X79336033Y-73134649D01*
X79336033Y-73134649D02*
X79436033Y-73134649D01*
X79436033Y-73134649D02*
X79569366Y-73167982D01*
X79569366Y-73167982D02*
X79636033Y-73201316D01*
X79636033Y-73201316D02*
X79702700Y-73267982D01*
X79702700Y-73267982D02*
X79736033Y-73367982D01*
X79736033Y-73367982D02*
X79736033Y-73434649D01*
X79736033Y-73434649D02*
X79702700Y-73534649D01*
X79702700Y-73534649D02*
X79669366Y-73567982D01*
X79669366Y-73567982D02*
X79436033Y-73567982D01*
X79436033Y-73567982D02*
X79436033Y-73434649D01*
X79736033Y-73867982D02*
X79036033Y-73867982D01*
X79036033Y-73867982D02*
X79036033Y-74134649D01*
X79036033Y-74134649D02*
X79069366Y-74201316D01*
X79069366Y-74201316D02*
X79102700Y-74234649D01*
X79102700Y-74234649D02*
X79169366Y-74267982D01*
X79169366Y-74267982D02*
X79269366Y-74267982D01*
X79269366Y-74267982D02*
X79336033Y-74234649D01*
X79336033Y-74234649D02*
X79369366Y-74201316D01*
X79369366Y-74201316D02*
X79402700Y-74134649D01*
X79402700Y-74134649D02*
X79402700Y-73867982D01*
X79736033Y-74567982D02*
X79036033Y-74567982D01*
X79036033Y-75034649D02*
X79036033Y-75167982D01*
X79036033Y-75167982D02*
X79069366Y-75234649D01*
X79069366Y-75234649D02*
X79136033Y-75301315D01*
X79136033Y-75301315D02*
X79269366Y-75334649D01*
X79269366Y-75334649D02*
X79502700Y-75334649D01*
X79502700Y-75334649D02*
X79636033Y-75301315D01*
X79636033Y-75301315D02*
X79702700Y-75234649D01*
X79702700Y-75234649D02*
X79736033Y-75167982D01*
X79736033Y-75167982D02*
X79736033Y-75034649D01*
X79736033Y-75034649D02*
X79702700Y-74967982D01*
X79702700Y-74967982D02*
X79636033Y-74901315D01*
X79636033Y-74901315D02*
X79502700Y-74867982D01*
X79502700Y-74867982D02*
X79269366Y-74867982D01*
X79269366Y-74867982D02*
X79136033Y-74901315D01*
X79136033Y-74901315D02*
X79069366Y-74967982D01*
X79069366Y-74967982D02*
X79036033Y-75034649D01*
X79736033Y-76001315D02*
X79736033Y-75601315D01*
X79736033Y-75801315D02*
X79036033Y-75801315D01*
X79036033Y-75801315D02*
X79136033Y-75734648D01*
X79136033Y-75734648D02*
X79202700Y-75667982D01*
X79202700Y-75667982D02*
X79236033Y-75601315D01*
X79036033Y-76234649D02*
X79036033Y-76701315D01*
X79036033Y-76701315D02*
X79736033Y-76401315D01*
X63789366Y-57902017D02*
X63756033Y-57835350D01*
X63756033Y-57835350D02*
X63756033Y-57735350D01*
X63756033Y-57735350D02*
X63789366Y-57635350D01*
X63789366Y-57635350D02*
X63856033Y-57568684D01*
X63856033Y-57568684D02*
X63922700Y-57535350D01*
X63922700Y-57535350D02*
X64056033Y-57502017D01*
X64056033Y-57502017D02*
X64156033Y-57502017D01*
X64156033Y-57502017D02*
X64289366Y-57535350D01*
X64289366Y-57535350D02*
X64356033Y-57568684D01*
X64356033Y-57568684D02*
X64422700Y-57635350D01*
X64422700Y-57635350D02*
X64456033Y-57735350D01*
X64456033Y-57735350D02*
X64456033Y-57802017D01*
X64456033Y-57802017D02*
X64422700Y-57902017D01*
X64422700Y-57902017D02*
X64389366Y-57935350D01*
X64389366Y-57935350D02*
X64156033Y-57935350D01*
X64156033Y-57935350D02*
X64156033Y-57802017D01*
X64456033Y-58235350D02*
X63756033Y-58235350D01*
X63756033Y-58235350D02*
X63756033Y-58502017D01*
X63756033Y-58502017D02*
X63789366Y-58568684D01*
X63789366Y-58568684D02*
X63822700Y-58602017D01*
X63822700Y-58602017D02*
X63889366Y-58635350D01*
X63889366Y-58635350D02*
X63989366Y-58635350D01*
X63989366Y-58635350D02*
X64056033Y-58602017D01*
X64056033Y-58602017D02*
X64089366Y-58568684D01*
X64089366Y-58568684D02*
X64122700Y-58502017D01*
X64122700Y-58502017D02*
X64122700Y-58235350D01*
X64456033Y-58935350D02*
X63756033Y-58935350D01*
X63756033Y-59402017D02*
X63756033Y-59535350D01*
X63756033Y-59535350D02*
X63789366Y-59602017D01*
X63789366Y-59602017D02*
X63856033Y-59668683D01*
X63856033Y-59668683D02*
X63989366Y-59702017D01*
X63989366Y-59702017D02*
X64222700Y-59702017D01*
X64222700Y-59702017D02*
X64356033Y-59668683D01*
X64356033Y-59668683D02*
X64422700Y-59602017D01*
X64422700Y-59602017D02*
X64456033Y-59535350D01*
X64456033Y-59535350D02*
X64456033Y-59402017D01*
X64456033Y-59402017D02*
X64422700Y-59335350D01*
X64422700Y-59335350D02*
X64356033Y-59268683D01*
X64356033Y-59268683D02*
X64222700Y-59235350D01*
X64222700Y-59235350D02*
X63989366Y-59235350D01*
X63989366Y-59235350D02*
X63856033Y-59268683D01*
X63856033Y-59268683D02*
X63789366Y-59335350D01*
X63789366Y-59335350D02*
X63756033Y-59402017D01*
X63756033Y-59935350D02*
X63756033Y-60368683D01*
X63756033Y-60368683D02*
X64022700Y-60135350D01*
X64022700Y-60135350D02*
X64022700Y-60235350D01*
X64022700Y-60235350D02*
X64056033Y-60302016D01*
X64056033Y-60302016D02*
X64089366Y-60335350D01*
X64089366Y-60335350D02*
X64156033Y-60368683D01*
X64156033Y-60368683D02*
X64322700Y-60368683D01*
X64322700Y-60368683D02*
X64389366Y-60335350D01*
X64389366Y-60335350D02*
X64422700Y-60302016D01*
X64422700Y-60302016D02*
X64456033Y-60235350D01*
X64456033Y-60235350D02*
X64456033Y-60035350D01*
X64456033Y-60035350D02*
X64422700Y-59968683D01*
X64422700Y-59968683D02*
X64389366Y-59935350D01*
X63989366Y-60968683D02*
X64456033Y-60968683D01*
X63722700Y-60802017D02*
X64222700Y-60635350D01*
X64222700Y-60635350D02*
X64222700Y-61068683D01*
X100069366Y-88701315D02*
X100102700Y-88667982D01*
X100102700Y-88667982D02*
X100136033Y-88567982D01*
X100136033Y-88567982D02*
X100136033Y-88501315D01*
X100136033Y-88501315D02*
X100102700Y-88401315D01*
X100102700Y-88401315D02*
X100036033Y-88334649D01*
X100036033Y-88334649D02*
X99969366Y-88301315D01*
X99969366Y-88301315D02*
X99836033Y-88267982D01*
X99836033Y-88267982D02*
X99736033Y-88267982D01*
X99736033Y-88267982D02*
X99602700Y-88301315D01*
X99602700Y-88301315D02*
X99536033Y-88334649D01*
X99536033Y-88334649D02*
X99469366Y-88401315D01*
X99469366Y-88401315D02*
X99436033Y-88501315D01*
X99436033Y-88501315D02*
X99436033Y-88567982D01*
X99436033Y-88567982D02*
X99469366Y-88667982D01*
X99469366Y-88667982D02*
X99502700Y-88701315D01*
X100136033Y-89334649D02*
X100136033Y-89001315D01*
X100136033Y-89001315D02*
X99436033Y-89001315D01*
X100136033Y-89567982D02*
X99436033Y-89567982D01*
X100136033Y-89967982D02*
X99736033Y-89667982D01*
X99436033Y-89967982D02*
X99836033Y-89567982D01*
X56448289Y-57501921D02*
X56448289Y-57835254D01*
X56972099Y-57978111D02*
X56972099Y-57501921D01*
X56972099Y-57501921D02*
X55972099Y-57501921D01*
X55972099Y-57501921D02*
X55972099Y-57978111D01*
X56972099Y-58406683D02*
X55972099Y-58406683D01*
X55972099Y-58406683D02*
X56972099Y-58978111D01*
X56972099Y-58978111D02*
X55972099Y-58978111D01*
X55924480Y-60168587D02*
X57210194Y-59311445D01*
X56972099Y-61073349D02*
X56495908Y-60740016D01*
X56972099Y-60501921D02*
X55972099Y-60501921D01*
X55972099Y-60501921D02*
X55972099Y-60882873D01*
X55972099Y-60882873D02*
X56019718Y-60978111D01*
X56019718Y-60978111D02*
X56067337Y-61025730D01*
X56067337Y-61025730D02*
X56162575Y-61073349D01*
X56162575Y-61073349D02*
X56305432Y-61073349D01*
X56305432Y-61073349D02*
X56400670Y-61025730D01*
X56400670Y-61025730D02*
X56448289Y-60978111D01*
X56448289Y-60978111D02*
X56495908Y-60882873D01*
X56495908Y-60882873D02*
X56495908Y-60501921D01*
X56448289Y-61501921D02*
X56448289Y-61835254D01*
X56972099Y-61978111D02*
X56972099Y-61501921D01*
X56972099Y-61501921D02*
X55972099Y-61501921D01*
X55972099Y-61501921D02*
X55972099Y-61978111D01*
X56924480Y-62359064D02*
X56972099Y-62501921D01*
X56972099Y-62501921D02*
X56972099Y-62740016D01*
X56972099Y-62740016D02*
X56924480Y-62835254D01*
X56924480Y-62835254D02*
X56876860Y-62882873D01*
X56876860Y-62882873D02*
X56781622Y-62930492D01*
X56781622Y-62930492D02*
X56686384Y-62930492D01*
X56686384Y-62930492D02*
X56591146Y-62882873D01*
X56591146Y-62882873D02*
X56543527Y-62835254D01*
X56543527Y-62835254D02*
X56495908Y-62740016D01*
X56495908Y-62740016D02*
X56448289Y-62549540D01*
X56448289Y-62549540D02*
X56400670Y-62454302D01*
X56400670Y-62454302D02*
X56353051Y-62406683D01*
X56353051Y-62406683D02*
X56257813Y-62359064D01*
X56257813Y-62359064D02*
X56162575Y-62359064D01*
X56162575Y-62359064D02*
X56067337Y-62406683D01*
X56067337Y-62406683D02*
X56019718Y-62454302D01*
X56019718Y-62454302D02*
X55972099Y-62549540D01*
X55972099Y-62549540D02*
X55972099Y-62787635D01*
X55972099Y-62787635D02*
X56019718Y-62930492D01*
X56448289Y-63359064D02*
X56448289Y-63692397D01*
X56972099Y-63835254D02*
X56972099Y-63359064D01*
X56972099Y-63359064D02*
X55972099Y-63359064D01*
X55972099Y-63359064D02*
X55972099Y-63835254D01*
X55972099Y-64120969D02*
X55972099Y-64692397D01*
X56972099Y-64406683D02*
X55972099Y-64406683D01*
X99989366Y-75401315D02*
X100022700Y-75367982D01*
X100022700Y-75367982D02*
X100056033Y-75267982D01*
X100056033Y-75267982D02*
X100056033Y-75201315D01*
X100056033Y-75201315D02*
X100022700Y-75101315D01*
X100022700Y-75101315D02*
X99956033Y-75034649D01*
X99956033Y-75034649D02*
X99889366Y-75001315D01*
X99889366Y-75001315D02*
X99756033Y-74967982D01*
X99756033Y-74967982D02*
X99656033Y-74967982D01*
X99656033Y-74967982D02*
X99522700Y-75001315D01*
X99522700Y-75001315D02*
X99456033Y-75034649D01*
X99456033Y-75034649D02*
X99389366Y-75101315D01*
X99389366Y-75101315D02*
X99356033Y-75201315D01*
X99356033Y-75201315D02*
X99356033Y-75267982D01*
X99356033Y-75267982D02*
X99389366Y-75367982D01*
X99389366Y-75367982D02*
X99422700Y-75401315D01*
X100056033Y-76034649D02*
X100056033Y-75701315D01*
X100056033Y-75701315D02*
X99356033Y-75701315D01*
X100056033Y-76267982D02*
X99356033Y-76267982D01*
X100056033Y-76667982D02*
X99656033Y-76367982D01*
X99356033Y-76667982D02*
X99756033Y-76267982D01*
X92396033Y-57535350D02*
X91696033Y-57535350D01*
X91696033Y-57535350D02*
X91696033Y-57702017D01*
X91696033Y-57702017D02*
X91729366Y-57802017D01*
X91729366Y-57802017D02*
X91796033Y-57868684D01*
X91796033Y-57868684D02*
X91862700Y-57902017D01*
X91862700Y-57902017D02*
X91996033Y-57935350D01*
X91996033Y-57935350D02*
X92096033Y-57935350D01*
X92096033Y-57935350D02*
X92229366Y-57902017D01*
X92229366Y-57902017D02*
X92296033Y-57868684D01*
X92296033Y-57868684D02*
X92362700Y-57802017D01*
X92362700Y-57802017D02*
X92396033Y-57702017D01*
X92396033Y-57702017D02*
X92396033Y-57535350D01*
X91762700Y-58202017D02*
X91729366Y-58235350D01*
X91729366Y-58235350D02*
X91696033Y-58302017D01*
X91696033Y-58302017D02*
X91696033Y-58468684D01*
X91696033Y-58468684D02*
X91729366Y-58535350D01*
X91729366Y-58535350D02*
X91762700Y-58568684D01*
X91762700Y-58568684D02*
X91829366Y-58602017D01*
X91829366Y-58602017D02*
X91896033Y-58602017D01*
X91896033Y-58602017D02*
X91996033Y-58568684D01*
X91996033Y-58568684D02*
X92396033Y-58168684D01*
X92396033Y-58168684D02*
X92396033Y-58602017D01*
X99406099Y-58079289D02*
X99406099Y-57603099D01*
X99406099Y-57603099D02*
X99882289Y-57555480D01*
X99882289Y-57555480D02*
X99834670Y-57603099D01*
X99834670Y-57603099D02*
X99787051Y-57698337D01*
X99787051Y-57698337D02*
X99787051Y-57936432D01*
X99787051Y-57936432D02*
X99834670Y-58031670D01*
X99834670Y-58031670D02*
X99882289Y-58079289D01*
X99882289Y-58079289D02*
X99977527Y-58126908D01*
X99977527Y-58126908D02*
X100215622Y-58126908D01*
X100215622Y-58126908D02*
X100310860Y-58079289D01*
X100310860Y-58079289D02*
X100358480Y-58031670D01*
X100358480Y-58031670D02*
X100406099Y-57936432D01*
X100406099Y-57936432D02*
X100406099Y-57698337D01*
X100406099Y-57698337D02*
X100358480Y-57603099D01*
X100358480Y-57603099D02*
X100310860Y-57555480D01*
X99406099Y-58412623D02*
X100406099Y-58745956D01*
X100406099Y-58745956D02*
X99406099Y-59079289D01*
X84229366Y-88701316D02*
X84196033Y-88634649D01*
X84196033Y-88634649D02*
X84196033Y-88534649D01*
X84196033Y-88534649D02*
X84229366Y-88434649D01*
X84229366Y-88434649D02*
X84296033Y-88367983D01*
X84296033Y-88367983D02*
X84362700Y-88334649D01*
X84362700Y-88334649D02*
X84496033Y-88301316D01*
X84496033Y-88301316D02*
X84596033Y-88301316D01*
X84596033Y-88301316D02*
X84729366Y-88334649D01*
X84729366Y-88334649D02*
X84796033Y-88367983D01*
X84796033Y-88367983D02*
X84862700Y-88434649D01*
X84862700Y-88434649D02*
X84896033Y-88534649D01*
X84896033Y-88534649D02*
X84896033Y-88601316D01*
X84896033Y-88601316D02*
X84862700Y-88701316D01*
X84862700Y-88701316D02*
X84829366Y-88734649D01*
X84829366Y-88734649D02*
X84596033Y-88734649D01*
X84596033Y-88734649D02*
X84596033Y-88601316D01*
X84896033Y-89034649D02*
X84196033Y-89034649D01*
X84196033Y-89034649D02*
X84196033Y-89301316D01*
X84196033Y-89301316D02*
X84229366Y-89367983D01*
X84229366Y-89367983D02*
X84262700Y-89401316D01*
X84262700Y-89401316D02*
X84329366Y-89434649D01*
X84329366Y-89434649D02*
X84429366Y-89434649D01*
X84429366Y-89434649D02*
X84496033Y-89401316D01*
X84496033Y-89401316D02*
X84529366Y-89367983D01*
X84529366Y-89367983D02*
X84562700Y-89301316D01*
X84562700Y-89301316D02*
X84562700Y-89034649D01*
X84896033Y-89734649D02*
X84196033Y-89734649D01*
X84196033Y-90201316D02*
X84196033Y-90334649D01*
X84196033Y-90334649D02*
X84229366Y-90401316D01*
X84229366Y-90401316D02*
X84296033Y-90467982D01*
X84296033Y-90467982D02*
X84429366Y-90501316D01*
X84429366Y-90501316D02*
X84662700Y-90501316D01*
X84662700Y-90501316D02*
X84796033Y-90467982D01*
X84796033Y-90467982D02*
X84862700Y-90401316D01*
X84862700Y-90401316D02*
X84896033Y-90334649D01*
X84896033Y-90334649D02*
X84896033Y-90201316D01*
X84896033Y-90201316D02*
X84862700Y-90134649D01*
X84862700Y-90134649D02*
X84796033Y-90067982D01*
X84796033Y-90067982D02*
X84662700Y-90034649D01*
X84662700Y-90034649D02*
X84429366Y-90034649D01*
X84429366Y-90034649D02*
X84296033Y-90067982D01*
X84296033Y-90067982D02*
X84229366Y-90134649D01*
X84229366Y-90134649D02*
X84196033Y-90201316D01*
X84429366Y-91101315D02*
X84896033Y-91101315D01*
X84162700Y-90934649D02*
X84662700Y-90767982D01*
X84662700Y-90767982D02*
X84662700Y-91201315D01*
X81609366Y-73534649D02*
X81576033Y-73467982D01*
X81576033Y-73467982D02*
X81576033Y-73367982D01*
X81576033Y-73367982D02*
X81609366Y-73267982D01*
X81609366Y-73267982D02*
X81676033Y-73201316D01*
X81676033Y-73201316D02*
X81742700Y-73167982D01*
X81742700Y-73167982D02*
X81876033Y-73134649D01*
X81876033Y-73134649D02*
X81976033Y-73134649D01*
X81976033Y-73134649D02*
X82109366Y-73167982D01*
X82109366Y-73167982D02*
X82176033Y-73201316D01*
X82176033Y-73201316D02*
X82242700Y-73267982D01*
X82242700Y-73267982D02*
X82276033Y-73367982D01*
X82276033Y-73367982D02*
X82276033Y-73434649D01*
X82276033Y-73434649D02*
X82242700Y-73534649D01*
X82242700Y-73534649D02*
X82209366Y-73567982D01*
X82209366Y-73567982D02*
X81976033Y-73567982D01*
X81976033Y-73567982D02*
X81976033Y-73434649D01*
X82276033Y-73867982D02*
X81576033Y-73867982D01*
X81576033Y-73867982D02*
X81576033Y-74134649D01*
X81576033Y-74134649D02*
X81609366Y-74201316D01*
X81609366Y-74201316D02*
X81642700Y-74234649D01*
X81642700Y-74234649D02*
X81709366Y-74267982D01*
X81709366Y-74267982D02*
X81809366Y-74267982D01*
X81809366Y-74267982D02*
X81876033Y-74234649D01*
X81876033Y-74234649D02*
X81909366Y-74201316D01*
X81909366Y-74201316D02*
X81942700Y-74134649D01*
X81942700Y-74134649D02*
X81942700Y-73867982D01*
X82276033Y-74567982D02*
X81576033Y-74567982D01*
X81576033Y-75034649D02*
X81576033Y-75167982D01*
X81576033Y-75167982D02*
X81609366Y-75234649D01*
X81609366Y-75234649D02*
X81676033Y-75301315D01*
X81676033Y-75301315D02*
X81809366Y-75334649D01*
X81809366Y-75334649D02*
X82042700Y-75334649D01*
X82042700Y-75334649D02*
X82176033Y-75301315D01*
X82176033Y-75301315D02*
X82242700Y-75234649D01*
X82242700Y-75234649D02*
X82276033Y-75167982D01*
X82276033Y-75167982D02*
X82276033Y-75034649D01*
X82276033Y-75034649D02*
X82242700Y-74967982D01*
X82242700Y-74967982D02*
X82176033Y-74901315D01*
X82176033Y-74901315D02*
X82042700Y-74867982D01*
X82042700Y-74867982D02*
X81809366Y-74867982D01*
X81809366Y-74867982D02*
X81676033Y-74901315D01*
X81676033Y-74901315D02*
X81609366Y-74967982D01*
X81609366Y-74967982D02*
X81576033Y-75034649D01*
X82276033Y-76001315D02*
X82276033Y-75601315D01*
X82276033Y-75801315D02*
X81576033Y-75801315D01*
X81576033Y-75801315D02*
X81676033Y-75734648D01*
X81676033Y-75734648D02*
X81742700Y-75667982D01*
X81742700Y-75667982D02*
X81776033Y-75601315D01*
X81576033Y-76601315D02*
X81576033Y-76467982D01*
X81576033Y-76467982D02*
X81609366Y-76401315D01*
X81609366Y-76401315D02*
X81642700Y-76367982D01*
X81642700Y-76367982D02*
X81742700Y-76301315D01*
X81742700Y-76301315D02*
X81876033Y-76267982D01*
X81876033Y-76267982D02*
X82142700Y-76267982D01*
X82142700Y-76267982D02*
X82209366Y-76301315D01*
X82209366Y-76301315D02*
X82242700Y-76334649D01*
X82242700Y-76334649D02*
X82276033Y-76401315D01*
X82276033Y-76401315D02*
X82276033Y-76534649D01*
X82276033Y-76534649D02*
X82242700Y-76601315D01*
X82242700Y-76601315D02*
X82209366Y-76634649D01*
X82209366Y-76634649D02*
X82142700Y-76667982D01*
X82142700Y-76667982D02*
X81976033Y-76667982D01*
X81976033Y-76667982D02*
X81909366Y-76634649D01*
X81909366Y-76634649D02*
X81876033Y-76601315D01*
X81876033Y-76601315D02*
X81842700Y-76534649D01*
X81842700Y-76534649D02*
X81842700Y-76401315D01*
X81842700Y-76401315D02*
X81876033Y-76334649D01*
X81876033Y-76334649D02*
X81909366Y-76301315D01*
X81909366Y-76301315D02*
X81976033Y-76267982D01*
X74069366Y-88634649D02*
X74036033Y-88567982D01*
X74036033Y-88567982D02*
X74036033Y-88467982D01*
X74036033Y-88467982D02*
X74069366Y-88367982D01*
X74069366Y-88367982D02*
X74136033Y-88301316D01*
X74136033Y-88301316D02*
X74202700Y-88267982D01*
X74202700Y-88267982D02*
X74336033Y-88234649D01*
X74336033Y-88234649D02*
X74436033Y-88234649D01*
X74436033Y-88234649D02*
X74569366Y-88267982D01*
X74569366Y-88267982D02*
X74636033Y-88301316D01*
X74636033Y-88301316D02*
X74702700Y-88367982D01*
X74702700Y-88367982D02*
X74736033Y-88467982D01*
X74736033Y-88467982D02*
X74736033Y-88534649D01*
X74736033Y-88534649D02*
X74702700Y-88634649D01*
X74702700Y-88634649D02*
X74669366Y-88667982D01*
X74669366Y-88667982D02*
X74436033Y-88667982D01*
X74436033Y-88667982D02*
X74436033Y-88534649D01*
X74736033Y-88967982D02*
X74036033Y-88967982D01*
X74036033Y-88967982D02*
X74036033Y-89234649D01*
X74036033Y-89234649D02*
X74069366Y-89301316D01*
X74069366Y-89301316D02*
X74102700Y-89334649D01*
X74102700Y-89334649D02*
X74169366Y-89367982D01*
X74169366Y-89367982D02*
X74269366Y-89367982D01*
X74269366Y-89367982D02*
X74336033Y-89334649D01*
X74336033Y-89334649D02*
X74369366Y-89301316D01*
X74369366Y-89301316D02*
X74402700Y-89234649D01*
X74402700Y-89234649D02*
X74402700Y-88967982D01*
X74736033Y-89667982D02*
X74036033Y-89667982D01*
X74036033Y-90134649D02*
X74036033Y-90267982D01*
X74036033Y-90267982D02*
X74069366Y-90334649D01*
X74069366Y-90334649D02*
X74136033Y-90401315D01*
X74136033Y-90401315D02*
X74269366Y-90434649D01*
X74269366Y-90434649D02*
X74502700Y-90434649D01*
X74502700Y-90434649D02*
X74636033Y-90401315D01*
X74636033Y-90401315D02*
X74702700Y-90334649D01*
X74702700Y-90334649D02*
X74736033Y-90267982D01*
X74736033Y-90267982D02*
X74736033Y-90134649D01*
X74736033Y-90134649D02*
X74702700Y-90067982D01*
X74702700Y-90067982D02*
X74636033Y-90001315D01*
X74636033Y-90001315D02*
X74502700Y-89967982D01*
X74502700Y-89967982D02*
X74269366Y-89967982D01*
X74269366Y-89967982D02*
X74136033Y-90001315D01*
X74136033Y-90001315D02*
X74069366Y-90067982D01*
X74069366Y-90067982D02*
X74036033Y-90134649D01*
X74736033Y-91101315D02*
X74736033Y-90701315D01*
X74736033Y-90901315D02*
X74036033Y-90901315D01*
X74036033Y-90901315D02*
X74136033Y-90834648D01*
X74136033Y-90834648D02*
X74202700Y-90767982D01*
X74202700Y-90767982D02*
X74236033Y-90701315D01*
X74336033Y-91501315D02*
X74302700Y-91434649D01*
X74302700Y-91434649D02*
X74269366Y-91401315D01*
X74269366Y-91401315D02*
X74202700Y-91367982D01*
X74202700Y-91367982D02*
X74169366Y-91367982D01*
X74169366Y-91367982D02*
X74102700Y-91401315D01*
X74102700Y-91401315D02*
X74069366Y-91434649D01*
X74069366Y-91434649D02*
X74036033Y-91501315D01*
X74036033Y-91501315D02*
X74036033Y-91634649D01*
X74036033Y-91634649D02*
X74069366Y-91701315D01*
X74069366Y-91701315D02*
X74102700Y-91734649D01*
X74102700Y-91734649D02*
X74169366Y-91767982D01*
X74169366Y-91767982D02*
X74202700Y-91767982D01*
X74202700Y-91767982D02*
X74269366Y-91734649D01*
X74269366Y-91734649D02*
X74302700Y-91701315D01*
X74302700Y-91701315D02*
X74336033Y-91634649D01*
X74336033Y-91634649D02*
X74336033Y-91501315D01*
X74336033Y-91501315D02*
X74369366Y-91434649D01*
X74369366Y-91434649D02*
X74402700Y-91401315D01*
X74402700Y-91401315D02*
X74469366Y-91367982D01*
X74469366Y-91367982D02*
X74602700Y-91367982D01*
X74602700Y-91367982D02*
X74669366Y-91401315D01*
X74669366Y-91401315D02*
X74702700Y-91434649D01*
X74702700Y-91434649D02*
X74736033Y-91501315D01*
X74736033Y-91501315D02*
X74736033Y-91634649D01*
X74736033Y-91634649D02*
X74702700Y-91701315D01*
X74702700Y-91701315D02*
X74669366Y-91734649D01*
X74669366Y-91734649D02*
X74602700Y-91767982D01*
X74602700Y-91767982D02*
X74469366Y-91767982D01*
X74469366Y-91767982D02*
X74402700Y-91734649D01*
X74402700Y-91734649D02*
X74369366Y-91701315D01*
X74369366Y-91701315D02*
X74336033Y-91634649D01*
X84149366Y-74201316D02*
X84116033Y-74134649D01*
X84116033Y-74134649D02*
X84116033Y-74034649D01*
X84116033Y-74034649D02*
X84149366Y-73934649D01*
X84149366Y-73934649D02*
X84216033Y-73867983D01*
X84216033Y-73867983D02*
X84282700Y-73834649D01*
X84282700Y-73834649D02*
X84416033Y-73801316D01*
X84416033Y-73801316D02*
X84516033Y-73801316D01*
X84516033Y-73801316D02*
X84649366Y-73834649D01*
X84649366Y-73834649D02*
X84716033Y-73867983D01*
X84716033Y-73867983D02*
X84782700Y-73934649D01*
X84782700Y-73934649D02*
X84816033Y-74034649D01*
X84816033Y-74034649D02*
X84816033Y-74101316D01*
X84816033Y-74101316D02*
X84782700Y-74201316D01*
X84782700Y-74201316D02*
X84749366Y-74234649D01*
X84749366Y-74234649D02*
X84516033Y-74234649D01*
X84516033Y-74234649D02*
X84516033Y-74101316D01*
X84816033Y-74534649D02*
X84116033Y-74534649D01*
X84116033Y-74534649D02*
X84116033Y-74801316D01*
X84116033Y-74801316D02*
X84149366Y-74867983D01*
X84149366Y-74867983D02*
X84182700Y-74901316D01*
X84182700Y-74901316D02*
X84249366Y-74934649D01*
X84249366Y-74934649D02*
X84349366Y-74934649D01*
X84349366Y-74934649D02*
X84416033Y-74901316D01*
X84416033Y-74901316D02*
X84449366Y-74867983D01*
X84449366Y-74867983D02*
X84482700Y-74801316D01*
X84482700Y-74801316D02*
X84482700Y-74534649D01*
X84816033Y-75234649D02*
X84116033Y-75234649D01*
X84116033Y-75701316D02*
X84116033Y-75834649D01*
X84116033Y-75834649D02*
X84149366Y-75901316D01*
X84149366Y-75901316D02*
X84216033Y-75967982D01*
X84216033Y-75967982D02*
X84349366Y-76001316D01*
X84349366Y-76001316D02*
X84582700Y-76001316D01*
X84582700Y-76001316D02*
X84716033Y-75967982D01*
X84716033Y-75967982D02*
X84782700Y-75901316D01*
X84782700Y-75901316D02*
X84816033Y-75834649D01*
X84816033Y-75834649D02*
X84816033Y-75701316D01*
X84816033Y-75701316D02*
X84782700Y-75634649D01*
X84782700Y-75634649D02*
X84716033Y-75567982D01*
X84716033Y-75567982D02*
X84582700Y-75534649D01*
X84582700Y-75534649D02*
X84349366Y-75534649D01*
X84349366Y-75534649D02*
X84216033Y-75567982D01*
X84216033Y-75567982D02*
X84149366Y-75634649D01*
X84149366Y-75634649D02*
X84116033Y-75701316D01*
X84349366Y-76601315D02*
X84816033Y-76601315D01*
X84082700Y-76434649D02*
X84582700Y-76267982D01*
X84582700Y-76267982D02*
X84582700Y-76701315D01*
X58676033Y-57435350D02*
X59376033Y-57668684D01*
X59376033Y-57668684D02*
X58676033Y-57902017D01*
X59376033Y-58135350D02*
X58676033Y-58135350D01*
X58676033Y-58135350D02*
X58676033Y-58402017D01*
X58676033Y-58402017D02*
X58709366Y-58468684D01*
X58709366Y-58468684D02*
X58742700Y-58502017D01*
X58742700Y-58502017D02*
X58809366Y-58535350D01*
X58809366Y-58535350D02*
X58909366Y-58535350D01*
X58909366Y-58535350D02*
X58976033Y-58502017D01*
X58976033Y-58502017D02*
X59009366Y-58468684D01*
X59009366Y-58468684D02*
X59042700Y-58402017D01*
X59042700Y-58402017D02*
X59042700Y-58135350D01*
X58642700Y-59335350D02*
X59542700Y-58735350D01*
X58709366Y-59935350D02*
X58676033Y-59868683D01*
X58676033Y-59868683D02*
X58676033Y-59768683D01*
X58676033Y-59768683D02*
X58709366Y-59668683D01*
X58709366Y-59668683D02*
X58776033Y-59602017D01*
X58776033Y-59602017D02*
X58842700Y-59568683D01*
X58842700Y-59568683D02*
X58976033Y-59535350D01*
X58976033Y-59535350D02*
X59076033Y-59535350D01*
X59076033Y-59535350D02*
X59209366Y-59568683D01*
X59209366Y-59568683D02*
X59276033Y-59602017D01*
X59276033Y-59602017D02*
X59342700Y-59668683D01*
X59342700Y-59668683D02*
X59376033Y-59768683D01*
X59376033Y-59768683D02*
X59376033Y-59835350D01*
X59376033Y-59835350D02*
X59342700Y-59935350D01*
X59342700Y-59935350D02*
X59309366Y-59968683D01*
X59309366Y-59968683D02*
X59076033Y-59968683D01*
X59076033Y-59968683D02*
X59076033Y-59835350D01*
X59376033Y-60268683D02*
X58676033Y-60268683D01*
X58676033Y-60268683D02*
X58676033Y-60535350D01*
X58676033Y-60535350D02*
X58709366Y-60602017D01*
X58709366Y-60602017D02*
X58742700Y-60635350D01*
X58742700Y-60635350D02*
X58809366Y-60668683D01*
X58809366Y-60668683D02*
X58909366Y-60668683D01*
X58909366Y-60668683D02*
X58976033Y-60635350D01*
X58976033Y-60635350D02*
X59009366Y-60602017D01*
X59009366Y-60602017D02*
X59042700Y-60535350D01*
X59042700Y-60535350D02*
X59042700Y-60268683D01*
X59376033Y-60968683D02*
X58676033Y-60968683D01*
X58676033Y-61435350D02*
X58676033Y-61568683D01*
X58676033Y-61568683D02*
X58709366Y-61635350D01*
X58709366Y-61635350D02*
X58776033Y-61702016D01*
X58776033Y-61702016D02*
X58909366Y-61735350D01*
X58909366Y-61735350D02*
X59142700Y-61735350D01*
X59142700Y-61735350D02*
X59276033Y-61702016D01*
X59276033Y-61702016D02*
X59342700Y-61635350D01*
X59342700Y-61635350D02*
X59376033Y-61568683D01*
X59376033Y-61568683D02*
X59376033Y-61435350D01*
X59376033Y-61435350D02*
X59342700Y-61368683D01*
X59342700Y-61368683D02*
X59276033Y-61302016D01*
X59276033Y-61302016D02*
X59142700Y-61268683D01*
X59142700Y-61268683D02*
X58909366Y-61268683D01*
X58909366Y-61268683D02*
X58776033Y-61302016D01*
X58776033Y-61302016D02*
X58709366Y-61368683D01*
X58709366Y-61368683D02*
X58676033Y-61435350D01*
X58676033Y-61968683D02*
X58676033Y-62402016D01*
X58676033Y-62402016D02*
X58942700Y-62168683D01*
X58942700Y-62168683D02*
X58942700Y-62268683D01*
X58942700Y-62268683D02*
X58976033Y-62335349D01*
X58976033Y-62335349D02*
X59009366Y-62368683D01*
X59009366Y-62368683D02*
X59076033Y-62402016D01*
X59076033Y-62402016D02*
X59242700Y-62402016D01*
X59242700Y-62402016D02*
X59309366Y-62368683D01*
X59309366Y-62368683D02*
X59342700Y-62335349D01*
X59342700Y-62335349D02*
X59376033Y-62268683D01*
X59376033Y-62268683D02*
X59376033Y-62068683D01*
X59376033Y-62068683D02*
X59342700Y-62002016D01*
X59342700Y-62002016D02*
X59309366Y-61968683D01*
X58676033Y-63002016D02*
X58676033Y-62868683D01*
X58676033Y-62868683D02*
X58709366Y-62802016D01*
X58709366Y-62802016D02*
X58742700Y-62768683D01*
X58742700Y-62768683D02*
X58842700Y-62702016D01*
X58842700Y-62702016D02*
X58976033Y-62668683D01*
X58976033Y-62668683D02*
X59242700Y-62668683D01*
X59242700Y-62668683D02*
X59309366Y-62702016D01*
X59309366Y-62702016D02*
X59342700Y-62735350D01*
X59342700Y-62735350D02*
X59376033Y-62802016D01*
X59376033Y-62802016D02*
X59376033Y-62935350D01*
X59376033Y-62935350D02*
X59342700Y-63002016D01*
X59342700Y-63002016D02*
X59309366Y-63035350D01*
X59309366Y-63035350D02*
X59242700Y-63068683D01*
X59242700Y-63068683D02*
X59076033Y-63068683D01*
X59076033Y-63068683D02*
X59009366Y-63035350D01*
X59009366Y-63035350D02*
X58976033Y-63002016D01*
X58976033Y-63002016D02*
X58942700Y-62935350D01*
X58942700Y-62935350D02*
X58942700Y-62802016D01*
X58942700Y-62802016D02*
X58976033Y-62735350D01*
X58976033Y-62735350D02*
X59009366Y-62702016D01*
X59009366Y-62702016D02*
X59076033Y-62668683D01*
X91769366Y-70034650D02*
X91736033Y-69967983D01*
X91736033Y-69967983D02*
X91736033Y-69867983D01*
X91736033Y-69867983D02*
X91769366Y-69767983D01*
X91769366Y-69767983D02*
X91836033Y-69701317D01*
X91836033Y-69701317D02*
X91902700Y-69667983D01*
X91902700Y-69667983D02*
X92036033Y-69634650D01*
X92036033Y-69634650D02*
X92136033Y-69634650D01*
X92136033Y-69634650D02*
X92269366Y-69667983D01*
X92269366Y-69667983D02*
X92336033Y-69701317D01*
X92336033Y-69701317D02*
X92402700Y-69767983D01*
X92402700Y-69767983D02*
X92436033Y-69867983D01*
X92436033Y-69867983D02*
X92436033Y-69934650D01*
X92436033Y-69934650D02*
X92402700Y-70034650D01*
X92402700Y-70034650D02*
X92369366Y-70067983D01*
X92369366Y-70067983D02*
X92136033Y-70067983D01*
X92136033Y-70067983D02*
X92136033Y-69934650D01*
X92436033Y-70367983D02*
X91736033Y-70367983D01*
X91736033Y-70367983D02*
X91736033Y-70634650D01*
X91736033Y-70634650D02*
X91769366Y-70701317D01*
X91769366Y-70701317D02*
X91802700Y-70734650D01*
X91802700Y-70734650D02*
X91869366Y-70767983D01*
X91869366Y-70767983D02*
X91969366Y-70767983D01*
X91969366Y-70767983D02*
X92036033Y-70734650D01*
X92036033Y-70734650D02*
X92069366Y-70701317D01*
X92069366Y-70701317D02*
X92102700Y-70634650D01*
X92102700Y-70634650D02*
X92102700Y-70367983D01*
X92436033Y-71067983D02*
X91736033Y-71067983D01*
X91736033Y-71534650D02*
X91736033Y-71667983D01*
X91736033Y-71667983D02*
X91769366Y-71734650D01*
X91769366Y-71734650D02*
X91836033Y-71801316D01*
X91836033Y-71801316D02*
X91969366Y-71834650D01*
X91969366Y-71834650D02*
X92202700Y-71834650D01*
X92202700Y-71834650D02*
X92336033Y-71801316D01*
X92336033Y-71801316D02*
X92402700Y-71734650D01*
X92402700Y-71734650D02*
X92436033Y-71667983D01*
X92436033Y-71667983D02*
X92436033Y-71534650D01*
X92436033Y-71534650D02*
X92402700Y-71467983D01*
X92402700Y-71467983D02*
X92336033Y-71401316D01*
X92336033Y-71401316D02*
X92202700Y-71367983D01*
X92202700Y-71367983D02*
X91969366Y-71367983D01*
X91969366Y-71367983D02*
X91836033Y-71401316D01*
X91836033Y-71401316D02*
X91769366Y-71467983D01*
X91769366Y-71467983D02*
X91736033Y-71534650D01*
X92436033Y-72501316D02*
X92436033Y-72101316D01*
X92436033Y-72301316D02*
X91736033Y-72301316D01*
X91736033Y-72301316D02*
X91836033Y-72234649D01*
X91836033Y-72234649D02*
X91902700Y-72167983D01*
X91902700Y-72167983D02*
X91936033Y-72101316D01*
X91736033Y-73134650D02*
X91736033Y-72801316D01*
X91736033Y-72801316D02*
X92069366Y-72767983D01*
X92069366Y-72767983D02*
X92036033Y-72801316D01*
X92036033Y-72801316D02*
X92002700Y-72867983D01*
X92002700Y-72867983D02*
X92002700Y-73034650D01*
X92002700Y-73034650D02*
X92036033Y-73101316D01*
X92036033Y-73101316D02*
X92069366Y-73134650D01*
X92069366Y-73134650D02*
X92136033Y-73167983D01*
X92136033Y-73167983D02*
X92302700Y-73167983D01*
X92302700Y-73167983D02*
X92369366Y-73134650D01*
X92369366Y-73134650D02*
X92402700Y-73101316D01*
X92402700Y-73101316D02*
X92436033Y-73034650D01*
X92436033Y-73034650D02*
X92436033Y-72867983D01*
X92436033Y-72867983D02*
X92402700Y-72801316D01*
X92402700Y-72801316D02*
X92369366Y-72767983D01*
X91702700Y-73967983D02*
X92602700Y-73367983D01*
X92436033Y-74201316D02*
X91736033Y-74201316D01*
X91736033Y-74201316D02*
X92236033Y-74434650D01*
X92236033Y-74434650D02*
X91736033Y-74667983D01*
X91736033Y-74667983D02*
X92436033Y-74667983D01*
X91736033Y-74901316D02*
X91736033Y-75301316D01*
X92436033Y-75101316D02*
X91736033Y-75101316D01*
X92436033Y-75534649D02*
X91736033Y-75534649D01*
X91736033Y-75534649D02*
X91736033Y-75701316D01*
X91736033Y-75701316D02*
X91769366Y-75801316D01*
X91769366Y-75801316D02*
X91836033Y-75867983D01*
X91836033Y-75867983D02*
X91902700Y-75901316D01*
X91902700Y-75901316D02*
X92036033Y-75934649D01*
X92036033Y-75934649D02*
X92136033Y-75934649D01*
X92136033Y-75934649D02*
X92269366Y-75901316D01*
X92269366Y-75901316D02*
X92336033Y-75867983D01*
X92336033Y-75867983D02*
X92402700Y-75801316D01*
X92402700Y-75801316D02*
X92436033Y-75701316D01*
X92436033Y-75701316D02*
X92436033Y-75534649D01*
X91736033Y-76367983D02*
X91736033Y-76501316D01*
X91736033Y-76501316D02*
X91769366Y-76567983D01*
X91769366Y-76567983D02*
X91836033Y-76634649D01*
X91836033Y-76634649D02*
X91969366Y-76667983D01*
X91969366Y-76667983D02*
X92202700Y-76667983D01*
X92202700Y-76667983D02*
X92336033Y-76634649D01*
X92336033Y-76634649D02*
X92402700Y-76567983D01*
X92402700Y-76567983D02*
X92436033Y-76501316D01*
X92436033Y-76501316D02*
X92436033Y-76367983D01*
X92436033Y-76367983D02*
X92402700Y-76301316D01*
X92402700Y-76301316D02*
X92336033Y-76234649D01*
X92336033Y-76234649D02*
X92202700Y-76201316D01*
X92202700Y-76201316D02*
X91969366Y-76201316D01*
X91969366Y-76201316D02*
X91836033Y-76234649D01*
X91836033Y-76234649D02*
X91769366Y-76301316D01*
X91769366Y-76301316D02*
X91736033Y-76367983D01*
X61369366Y-88667983D02*
X61336033Y-88601316D01*
X61336033Y-88601316D02*
X61336033Y-88501316D01*
X61336033Y-88501316D02*
X61369366Y-88401316D01*
X61369366Y-88401316D02*
X61436033Y-88334650D01*
X61436033Y-88334650D02*
X61502700Y-88301316D01*
X61502700Y-88301316D02*
X61636033Y-88267983D01*
X61636033Y-88267983D02*
X61736033Y-88267983D01*
X61736033Y-88267983D02*
X61869366Y-88301316D01*
X61869366Y-88301316D02*
X61936033Y-88334650D01*
X61936033Y-88334650D02*
X62002700Y-88401316D01*
X62002700Y-88401316D02*
X62036033Y-88501316D01*
X62036033Y-88501316D02*
X62036033Y-88567983D01*
X62036033Y-88567983D02*
X62002700Y-88667983D01*
X62002700Y-88667983D02*
X61969366Y-88701316D01*
X61969366Y-88701316D02*
X61736033Y-88701316D01*
X61736033Y-88701316D02*
X61736033Y-88567983D01*
X62036033Y-89001316D02*
X61336033Y-89001316D01*
X61336033Y-89001316D02*
X61336033Y-89267983D01*
X61336033Y-89267983D02*
X61369366Y-89334650D01*
X61369366Y-89334650D02*
X61402700Y-89367983D01*
X61402700Y-89367983D02*
X61469366Y-89401316D01*
X61469366Y-89401316D02*
X61569366Y-89401316D01*
X61569366Y-89401316D02*
X61636033Y-89367983D01*
X61636033Y-89367983D02*
X61669366Y-89334650D01*
X61669366Y-89334650D02*
X61702700Y-89267983D01*
X61702700Y-89267983D02*
X61702700Y-89001316D01*
X62036033Y-89701316D02*
X61336033Y-89701316D01*
X61336033Y-90167983D02*
X61336033Y-90301316D01*
X61336033Y-90301316D02*
X61369366Y-90367983D01*
X61369366Y-90367983D02*
X61436033Y-90434649D01*
X61436033Y-90434649D02*
X61569366Y-90467983D01*
X61569366Y-90467983D02*
X61802700Y-90467983D01*
X61802700Y-90467983D02*
X61936033Y-90434649D01*
X61936033Y-90434649D02*
X62002700Y-90367983D01*
X62002700Y-90367983D02*
X62036033Y-90301316D01*
X62036033Y-90301316D02*
X62036033Y-90167983D01*
X62036033Y-90167983D02*
X62002700Y-90101316D01*
X62002700Y-90101316D02*
X61936033Y-90034649D01*
X61936033Y-90034649D02*
X61802700Y-90001316D01*
X61802700Y-90001316D02*
X61569366Y-90001316D01*
X61569366Y-90001316D02*
X61436033Y-90034649D01*
X61436033Y-90034649D02*
X61369366Y-90101316D01*
X61369366Y-90101316D02*
X61336033Y-90167983D01*
X62036033Y-91134649D02*
X62036033Y-90734649D01*
X62036033Y-90934649D02*
X61336033Y-90934649D01*
X61336033Y-90934649D02*
X61436033Y-90867982D01*
X61436033Y-90867982D02*
X61502700Y-90801316D01*
X61502700Y-90801316D02*
X61536033Y-90734649D01*
X61302700Y-91934649D02*
X62202700Y-91334649D01*
X61336033Y-92167982D02*
X61902700Y-92167982D01*
X61902700Y-92167982D02*
X61969366Y-92201316D01*
X61969366Y-92201316D02*
X62002700Y-92234649D01*
X62002700Y-92234649D02*
X62036033Y-92301316D01*
X62036033Y-92301316D02*
X62036033Y-92434649D01*
X62036033Y-92434649D02*
X62002700Y-92501316D01*
X62002700Y-92501316D02*
X61969366Y-92534649D01*
X61969366Y-92534649D02*
X61902700Y-92567982D01*
X61902700Y-92567982D02*
X61336033Y-92567982D01*
X61336033Y-93034649D02*
X61336033Y-93101315D01*
X61336033Y-93101315D02*
X61369366Y-93167982D01*
X61369366Y-93167982D02*
X61402700Y-93201315D01*
X61402700Y-93201315D02*
X61469366Y-93234649D01*
X61469366Y-93234649D02*
X61602700Y-93267982D01*
X61602700Y-93267982D02*
X61769366Y-93267982D01*
X61769366Y-93267982D02*
X61902700Y-93234649D01*
X61902700Y-93234649D02*
X61969366Y-93201315D01*
X61969366Y-93201315D02*
X62002700Y-93167982D01*
X62002700Y-93167982D02*
X62036033Y-93101315D01*
X62036033Y-93101315D02*
X62036033Y-93034649D01*
X62036033Y-93034649D02*
X62002700Y-92967982D01*
X62002700Y-92967982D02*
X61969366Y-92934649D01*
X61969366Y-92934649D02*
X61902700Y-92901315D01*
X61902700Y-92901315D02*
X61769366Y-92867982D01*
X61769366Y-92867982D02*
X61602700Y-92867982D01*
X61602700Y-92867982D02*
X61469366Y-92901315D01*
X61469366Y-92901315D02*
X61402700Y-92934649D01*
X61402700Y-92934649D02*
X61369366Y-92967982D01*
X61369366Y-92967982D02*
X61336033Y-93034649D01*
X61336033Y-93467982D02*
X61336033Y-93867982D01*
X62036033Y-93667982D02*
X61336033Y-93667982D01*
X61336033Y-94034649D02*
X62036033Y-94501315D01*
X61336033Y-94501315D02*
X62036033Y-94034649D01*
X62036033Y-94767982D02*
X61336033Y-94767982D01*
X61336033Y-94767982D02*
X61336033Y-94934649D01*
X61336033Y-94934649D02*
X61369366Y-95034649D01*
X61369366Y-95034649D02*
X61436033Y-95101316D01*
X61436033Y-95101316D02*
X61502700Y-95134649D01*
X61502700Y-95134649D02*
X61636033Y-95167982D01*
X61636033Y-95167982D02*
X61736033Y-95167982D01*
X61736033Y-95167982D02*
X61869366Y-95134649D01*
X61869366Y-95134649D02*
X61936033Y-95101316D01*
X61936033Y-95101316D02*
X62002700Y-95034649D01*
X62002700Y-95034649D02*
X62036033Y-94934649D01*
X62036033Y-94934649D02*
X62036033Y-94767982D01*
X79149366Y-88634649D02*
X79116033Y-88567982D01*
X79116033Y-88567982D02*
X79116033Y-88467982D01*
X79116033Y-88467982D02*
X79149366Y-88367982D01*
X79149366Y-88367982D02*
X79216033Y-88301316D01*
X79216033Y-88301316D02*
X79282700Y-88267982D01*
X79282700Y-88267982D02*
X79416033Y-88234649D01*
X79416033Y-88234649D02*
X79516033Y-88234649D01*
X79516033Y-88234649D02*
X79649366Y-88267982D01*
X79649366Y-88267982D02*
X79716033Y-88301316D01*
X79716033Y-88301316D02*
X79782700Y-88367982D01*
X79782700Y-88367982D02*
X79816033Y-88467982D01*
X79816033Y-88467982D02*
X79816033Y-88534649D01*
X79816033Y-88534649D02*
X79782700Y-88634649D01*
X79782700Y-88634649D02*
X79749366Y-88667982D01*
X79749366Y-88667982D02*
X79516033Y-88667982D01*
X79516033Y-88667982D02*
X79516033Y-88534649D01*
X79816033Y-88967982D02*
X79116033Y-88967982D01*
X79116033Y-88967982D02*
X79116033Y-89234649D01*
X79116033Y-89234649D02*
X79149366Y-89301316D01*
X79149366Y-89301316D02*
X79182700Y-89334649D01*
X79182700Y-89334649D02*
X79249366Y-89367982D01*
X79249366Y-89367982D02*
X79349366Y-89367982D01*
X79349366Y-89367982D02*
X79416033Y-89334649D01*
X79416033Y-89334649D02*
X79449366Y-89301316D01*
X79449366Y-89301316D02*
X79482700Y-89234649D01*
X79482700Y-89234649D02*
X79482700Y-88967982D01*
X79816033Y-89667982D02*
X79116033Y-89667982D01*
X79116033Y-90134649D02*
X79116033Y-90267982D01*
X79116033Y-90267982D02*
X79149366Y-90334649D01*
X79149366Y-90334649D02*
X79216033Y-90401315D01*
X79216033Y-90401315D02*
X79349366Y-90434649D01*
X79349366Y-90434649D02*
X79582700Y-90434649D01*
X79582700Y-90434649D02*
X79716033Y-90401315D01*
X79716033Y-90401315D02*
X79782700Y-90334649D01*
X79782700Y-90334649D02*
X79816033Y-90267982D01*
X79816033Y-90267982D02*
X79816033Y-90134649D01*
X79816033Y-90134649D02*
X79782700Y-90067982D01*
X79782700Y-90067982D02*
X79716033Y-90001315D01*
X79716033Y-90001315D02*
X79582700Y-89967982D01*
X79582700Y-89967982D02*
X79349366Y-89967982D01*
X79349366Y-89967982D02*
X79216033Y-90001315D01*
X79216033Y-90001315D02*
X79149366Y-90067982D01*
X79149366Y-90067982D02*
X79116033Y-90134649D01*
X79816033Y-91101315D02*
X79816033Y-90701315D01*
X79816033Y-90901315D02*
X79116033Y-90901315D01*
X79116033Y-90901315D02*
X79216033Y-90834648D01*
X79216033Y-90834648D02*
X79282700Y-90767982D01*
X79282700Y-90767982D02*
X79316033Y-90701315D01*
X79116033Y-91334649D02*
X79116033Y-91801315D01*
X79116033Y-91801315D02*
X79816033Y-91501315D01*
X86769366Y-88701316D02*
X86736033Y-88634649D01*
X86736033Y-88634649D02*
X86736033Y-88534649D01*
X86736033Y-88534649D02*
X86769366Y-88434649D01*
X86769366Y-88434649D02*
X86836033Y-88367983D01*
X86836033Y-88367983D02*
X86902700Y-88334649D01*
X86902700Y-88334649D02*
X87036033Y-88301316D01*
X87036033Y-88301316D02*
X87136033Y-88301316D01*
X87136033Y-88301316D02*
X87269366Y-88334649D01*
X87269366Y-88334649D02*
X87336033Y-88367983D01*
X87336033Y-88367983D02*
X87402700Y-88434649D01*
X87402700Y-88434649D02*
X87436033Y-88534649D01*
X87436033Y-88534649D02*
X87436033Y-88601316D01*
X87436033Y-88601316D02*
X87402700Y-88701316D01*
X87402700Y-88701316D02*
X87369366Y-88734649D01*
X87369366Y-88734649D02*
X87136033Y-88734649D01*
X87136033Y-88734649D02*
X87136033Y-88601316D01*
X87436033Y-89034649D02*
X86736033Y-89034649D01*
X86736033Y-89034649D02*
X86736033Y-89301316D01*
X86736033Y-89301316D02*
X86769366Y-89367983D01*
X86769366Y-89367983D02*
X86802700Y-89401316D01*
X86802700Y-89401316D02*
X86869366Y-89434649D01*
X86869366Y-89434649D02*
X86969366Y-89434649D01*
X86969366Y-89434649D02*
X87036033Y-89401316D01*
X87036033Y-89401316D02*
X87069366Y-89367983D01*
X87069366Y-89367983D02*
X87102700Y-89301316D01*
X87102700Y-89301316D02*
X87102700Y-89034649D01*
X87436033Y-89734649D02*
X86736033Y-89734649D01*
X86736033Y-90201316D02*
X86736033Y-90334649D01*
X86736033Y-90334649D02*
X86769366Y-90401316D01*
X86769366Y-90401316D02*
X86836033Y-90467982D01*
X86836033Y-90467982D02*
X86969366Y-90501316D01*
X86969366Y-90501316D02*
X87202700Y-90501316D01*
X87202700Y-90501316D02*
X87336033Y-90467982D01*
X87336033Y-90467982D02*
X87402700Y-90401316D01*
X87402700Y-90401316D02*
X87436033Y-90334649D01*
X87436033Y-90334649D02*
X87436033Y-90201316D01*
X87436033Y-90201316D02*
X87402700Y-90134649D01*
X87402700Y-90134649D02*
X87336033Y-90067982D01*
X87336033Y-90067982D02*
X87202700Y-90034649D01*
X87202700Y-90034649D02*
X86969366Y-90034649D01*
X86969366Y-90034649D02*
X86836033Y-90067982D01*
X86836033Y-90067982D02*
X86769366Y-90134649D01*
X86769366Y-90134649D02*
X86736033Y-90201316D01*
X86736033Y-90934649D02*
X86736033Y-91001315D01*
X86736033Y-91001315D02*
X86769366Y-91067982D01*
X86769366Y-91067982D02*
X86802700Y-91101315D01*
X86802700Y-91101315D02*
X86869366Y-91134649D01*
X86869366Y-91134649D02*
X87002700Y-91167982D01*
X87002700Y-91167982D02*
X87169366Y-91167982D01*
X87169366Y-91167982D02*
X87302700Y-91134649D01*
X87302700Y-91134649D02*
X87369366Y-91101315D01*
X87369366Y-91101315D02*
X87402700Y-91067982D01*
X87402700Y-91067982D02*
X87436033Y-91001315D01*
X87436033Y-91001315D02*
X87436033Y-90934649D01*
X87436033Y-90934649D02*
X87402700Y-90867982D01*
X87402700Y-90867982D02*
X87369366Y-90834649D01*
X87369366Y-90834649D02*
X87302700Y-90801315D01*
X87302700Y-90801315D02*
X87169366Y-90767982D01*
X87169366Y-90767982D02*
X87002700Y-90767982D01*
X87002700Y-90767982D02*
X86869366Y-90801315D01*
X86869366Y-90801315D02*
X86802700Y-90834649D01*
X86802700Y-90834649D02*
X86769366Y-90867982D01*
X86769366Y-90867982D02*
X86736033Y-90934649D01*
X58829366Y-88634649D02*
X58796033Y-88567982D01*
X58796033Y-88567982D02*
X58796033Y-88467982D01*
X58796033Y-88467982D02*
X58829366Y-88367982D01*
X58829366Y-88367982D02*
X58896033Y-88301316D01*
X58896033Y-88301316D02*
X58962700Y-88267982D01*
X58962700Y-88267982D02*
X59096033Y-88234649D01*
X59096033Y-88234649D02*
X59196033Y-88234649D01*
X59196033Y-88234649D02*
X59329366Y-88267982D01*
X59329366Y-88267982D02*
X59396033Y-88301316D01*
X59396033Y-88301316D02*
X59462700Y-88367982D01*
X59462700Y-88367982D02*
X59496033Y-88467982D01*
X59496033Y-88467982D02*
X59496033Y-88534649D01*
X59496033Y-88534649D02*
X59462700Y-88634649D01*
X59462700Y-88634649D02*
X59429366Y-88667982D01*
X59429366Y-88667982D02*
X59196033Y-88667982D01*
X59196033Y-88667982D02*
X59196033Y-88534649D01*
X59496033Y-88967982D02*
X58796033Y-88967982D01*
X58796033Y-88967982D02*
X58796033Y-89234649D01*
X58796033Y-89234649D02*
X58829366Y-89301316D01*
X58829366Y-89301316D02*
X58862700Y-89334649D01*
X58862700Y-89334649D02*
X58929366Y-89367982D01*
X58929366Y-89367982D02*
X59029366Y-89367982D01*
X59029366Y-89367982D02*
X59096033Y-89334649D01*
X59096033Y-89334649D02*
X59129366Y-89301316D01*
X59129366Y-89301316D02*
X59162700Y-89234649D01*
X59162700Y-89234649D02*
X59162700Y-88967982D01*
X59496033Y-89667982D02*
X58796033Y-89667982D01*
X58796033Y-90134649D02*
X58796033Y-90267982D01*
X58796033Y-90267982D02*
X58829366Y-90334649D01*
X58829366Y-90334649D02*
X58896033Y-90401315D01*
X58896033Y-90401315D02*
X59029366Y-90434649D01*
X59029366Y-90434649D02*
X59262700Y-90434649D01*
X59262700Y-90434649D02*
X59396033Y-90401315D01*
X59396033Y-90401315D02*
X59462700Y-90334649D01*
X59462700Y-90334649D02*
X59496033Y-90267982D01*
X59496033Y-90267982D02*
X59496033Y-90134649D01*
X59496033Y-90134649D02*
X59462700Y-90067982D01*
X59462700Y-90067982D02*
X59396033Y-90001315D01*
X59396033Y-90001315D02*
X59262700Y-89967982D01*
X59262700Y-89967982D02*
X59029366Y-89967982D01*
X59029366Y-89967982D02*
X58896033Y-90001315D01*
X58896033Y-90001315D02*
X58829366Y-90067982D01*
X58829366Y-90067982D02*
X58796033Y-90134649D01*
X58862700Y-90701315D02*
X58829366Y-90734648D01*
X58829366Y-90734648D02*
X58796033Y-90801315D01*
X58796033Y-90801315D02*
X58796033Y-90967982D01*
X58796033Y-90967982D02*
X58829366Y-91034648D01*
X58829366Y-91034648D02*
X58862700Y-91067982D01*
X58862700Y-91067982D02*
X58929366Y-91101315D01*
X58929366Y-91101315D02*
X58996033Y-91101315D01*
X58996033Y-91101315D02*
X59096033Y-91067982D01*
X59096033Y-91067982D02*
X59496033Y-90667982D01*
X59496033Y-90667982D02*
X59496033Y-91101315D01*
X58862700Y-91367982D02*
X58829366Y-91401315D01*
X58829366Y-91401315D02*
X58796033Y-91467982D01*
X58796033Y-91467982D02*
X58796033Y-91634649D01*
X58796033Y-91634649D02*
X58829366Y-91701315D01*
X58829366Y-91701315D02*
X58862700Y-91734649D01*
X58862700Y-91734649D02*
X58929366Y-91767982D01*
X58929366Y-91767982D02*
X58996033Y-91767982D01*
X58996033Y-91767982D02*
X59096033Y-91734649D01*
X59096033Y-91734649D02*
X59496033Y-91334649D01*
X59496033Y-91334649D02*
X59496033Y-91767982D01*
X81569366Y-57902017D02*
X81536033Y-57835350D01*
X81536033Y-57835350D02*
X81536033Y-57735350D01*
X81536033Y-57735350D02*
X81569366Y-57635350D01*
X81569366Y-57635350D02*
X81636033Y-57568684D01*
X81636033Y-57568684D02*
X81702700Y-57535350D01*
X81702700Y-57535350D02*
X81836033Y-57502017D01*
X81836033Y-57502017D02*
X81936033Y-57502017D01*
X81936033Y-57502017D02*
X82069366Y-57535350D01*
X82069366Y-57535350D02*
X82136033Y-57568684D01*
X82136033Y-57568684D02*
X82202700Y-57635350D01*
X82202700Y-57635350D02*
X82236033Y-57735350D01*
X82236033Y-57735350D02*
X82236033Y-57802017D01*
X82236033Y-57802017D02*
X82202700Y-57902017D01*
X82202700Y-57902017D02*
X82169366Y-57935350D01*
X82169366Y-57935350D02*
X81936033Y-57935350D01*
X81936033Y-57935350D02*
X81936033Y-57802017D01*
X82236033Y-58235350D02*
X81536033Y-58235350D01*
X81536033Y-58235350D02*
X81536033Y-58502017D01*
X81536033Y-58502017D02*
X81569366Y-58568684D01*
X81569366Y-58568684D02*
X81602700Y-58602017D01*
X81602700Y-58602017D02*
X81669366Y-58635350D01*
X81669366Y-58635350D02*
X81769366Y-58635350D01*
X81769366Y-58635350D02*
X81836033Y-58602017D01*
X81836033Y-58602017D02*
X81869366Y-58568684D01*
X81869366Y-58568684D02*
X81902700Y-58502017D01*
X81902700Y-58502017D02*
X81902700Y-58235350D01*
X82236033Y-58935350D02*
X81536033Y-58935350D01*
X81536033Y-59402017D02*
X81536033Y-59535350D01*
X81536033Y-59535350D02*
X81569366Y-59602017D01*
X81569366Y-59602017D02*
X81636033Y-59668683D01*
X81636033Y-59668683D02*
X81769366Y-59702017D01*
X81769366Y-59702017D02*
X82002700Y-59702017D01*
X82002700Y-59702017D02*
X82136033Y-59668683D01*
X82136033Y-59668683D02*
X82202700Y-59602017D01*
X82202700Y-59602017D02*
X82236033Y-59535350D01*
X82236033Y-59535350D02*
X82236033Y-59402017D01*
X82236033Y-59402017D02*
X82202700Y-59335350D01*
X82202700Y-59335350D02*
X82136033Y-59268683D01*
X82136033Y-59268683D02*
X82002700Y-59235350D01*
X82002700Y-59235350D02*
X81769366Y-59235350D01*
X81769366Y-59235350D02*
X81636033Y-59268683D01*
X81636033Y-59268683D02*
X81569366Y-59335350D01*
X81569366Y-59335350D02*
X81536033Y-59402017D01*
X82236033Y-60368683D02*
X82236033Y-59968683D01*
X82236033Y-60168683D02*
X81536033Y-60168683D01*
X81536033Y-60168683D02*
X81636033Y-60102016D01*
X81636033Y-60102016D02*
X81702700Y-60035350D01*
X81702700Y-60035350D02*
X81736033Y-59968683D01*
X81769366Y-60968683D02*
X82236033Y-60968683D01*
X81502700Y-60802017D02*
X82002700Y-60635350D01*
X82002700Y-60635350D02*
X82002700Y-61068683D01*
X81502700Y-61835350D02*
X82402700Y-61235350D01*
X82236033Y-62068683D02*
X81536033Y-62068683D01*
X81536033Y-62068683D02*
X82036033Y-62302017D01*
X82036033Y-62302017D02*
X81536033Y-62535350D01*
X81536033Y-62535350D02*
X82236033Y-62535350D01*
X81536033Y-62768683D02*
X81536033Y-63168683D01*
X82236033Y-62968683D02*
X81536033Y-62968683D01*
X82236033Y-63402016D02*
X81536033Y-63402016D01*
X81536033Y-63402016D02*
X82036033Y-63635350D01*
X82036033Y-63635350D02*
X81536033Y-63868683D01*
X81536033Y-63868683D02*
X82236033Y-63868683D01*
X82202700Y-64168683D02*
X82236033Y-64268683D01*
X82236033Y-64268683D02*
X82236033Y-64435350D01*
X82236033Y-64435350D02*
X82202700Y-64502016D01*
X82202700Y-64502016D02*
X82169366Y-64535350D01*
X82169366Y-64535350D02*
X82102700Y-64568683D01*
X82102700Y-64568683D02*
X82036033Y-64568683D01*
X82036033Y-64568683D02*
X81969366Y-64535350D01*
X81969366Y-64535350D02*
X81936033Y-64502016D01*
X81936033Y-64502016D02*
X81902700Y-64435350D01*
X81902700Y-64435350D02*
X81869366Y-64302016D01*
X81869366Y-64302016D02*
X81836033Y-64235350D01*
X81836033Y-64235350D02*
X81802700Y-64202016D01*
X81802700Y-64202016D02*
X81736033Y-64168683D01*
X81736033Y-64168683D02*
X81669366Y-64168683D01*
X81669366Y-64168683D02*
X81602700Y-64202016D01*
X81602700Y-64202016D02*
X81569366Y-64235350D01*
X81569366Y-64235350D02*
X81536033Y-64302016D01*
X81536033Y-64302016D02*
X81536033Y-64468683D01*
X81536033Y-64468683D02*
X81569366Y-64568683D01*
X66449366Y-88734649D02*
X66416033Y-88667982D01*
X66416033Y-88667982D02*
X66416033Y-88567982D01*
X66416033Y-88567982D02*
X66449366Y-88467982D01*
X66449366Y-88467982D02*
X66516033Y-88401316D01*
X66516033Y-88401316D02*
X66582700Y-88367982D01*
X66582700Y-88367982D02*
X66716033Y-88334649D01*
X66716033Y-88334649D02*
X66816033Y-88334649D01*
X66816033Y-88334649D02*
X66949366Y-88367982D01*
X66949366Y-88367982D02*
X67016033Y-88401316D01*
X67016033Y-88401316D02*
X67082700Y-88467982D01*
X67082700Y-88467982D02*
X67116033Y-88567982D01*
X67116033Y-88567982D02*
X67116033Y-88634649D01*
X67116033Y-88634649D02*
X67082700Y-88734649D01*
X67082700Y-88734649D02*
X67049366Y-88767982D01*
X67049366Y-88767982D02*
X66816033Y-88767982D01*
X66816033Y-88767982D02*
X66816033Y-88634649D01*
X67116033Y-89067982D02*
X66416033Y-89067982D01*
X66416033Y-89067982D02*
X66416033Y-89334649D01*
X66416033Y-89334649D02*
X66449366Y-89401316D01*
X66449366Y-89401316D02*
X66482700Y-89434649D01*
X66482700Y-89434649D02*
X66549366Y-89467982D01*
X66549366Y-89467982D02*
X66649366Y-89467982D01*
X66649366Y-89467982D02*
X66716033Y-89434649D01*
X66716033Y-89434649D02*
X66749366Y-89401316D01*
X66749366Y-89401316D02*
X66782700Y-89334649D01*
X66782700Y-89334649D02*
X66782700Y-89067982D01*
X67116033Y-89767982D02*
X66416033Y-89767982D01*
X66416033Y-90234649D02*
X66416033Y-90367982D01*
X66416033Y-90367982D02*
X66449366Y-90434649D01*
X66449366Y-90434649D02*
X66516033Y-90501315D01*
X66516033Y-90501315D02*
X66649366Y-90534649D01*
X66649366Y-90534649D02*
X66882700Y-90534649D01*
X66882700Y-90534649D02*
X67016033Y-90501315D01*
X67016033Y-90501315D02*
X67082700Y-90434649D01*
X67082700Y-90434649D02*
X67116033Y-90367982D01*
X67116033Y-90367982D02*
X67116033Y-90234649D01*
X67116033Y-90234649D02*
X67082700Y-90167982D01*
X67082700Y-90167982D02*
X67016033Y-90101315D01*
X67016033Y-90101315D02*
X66882700Y-90067982D01*
X66882700Y-90067982D02*
X66649366Y-90067982D01*
X66649366Y-90067982D02*
X66516033Y-90101315D01*
X66516033Y-90101315D02*
X66449366Y-90167982D01*
X66449366Y-90167982D02*
X66416033Y-90234649D01*
X66482700Y-90801315D02*
X66449366Y-90834648D01*
X66449366Y-90834648D02*
X66416033Y-90901315D01*
X66416033Y-90901315D02*
X66416033Y-91067982D01*
X66416033Y-91067982D02*
X66449366Y-91134648D01*
X66449366Y-91134648D02*
X66482700Y-91167982D01*
X66482700Y-91167982D02*
X66549366Y-91201315D01*
X66549366Y-91201315D02*
X66616033Y-91201315D01*
X66616033Y-91201315D02*
X66716033Y-91167982D01*
X66716033Y-91167982D02*
X67116033Y-90767982D01*
X67116033Y-90767982D02*
X67116033Y-91201315D01*
X67116033Y-91867982D02*
X67116033Y-91467982D01*
X67116033Y-91667982D02*
X66416033Y-91667982D01*
X66416033Y-91667982D02*
X66516033Y-91601315D01*
X66516033Y-91601315D02*
X66582700Y-91534649D01*
X66582700Y-91534649D02*
X66616033Y-91467982D01*
X89229366Y-74201316D02*
X89196033Y-74134649D01*
X89196033Y-74134649D02*
X89196033Y-74034649D01*
X89196033Y-74034649D02*
X89229366Y-73934649D01*
X89229366Y-73934649D02*
X89296033Y-73867983D01*
X89296033Y-73867983D02*
X89362700Y-73834649D01*
X89362700Y-73834649D02*
X89496033Y-73801316D01*
X89496033Y-73801316D02*
X89596033Y-73801316D01*
X89596033Y-73801316D02*
X89729366Y-73834649D01*
X89729366Y-73834649D02*
X89796033Y-73867983D01*
X89796033Y-73867983D02*
X89862700Y-73934649D01*
X89862700Y-73934649D02*
X89896033Y-74034649D01*
X89896033Y-74034649D02*
X89896033Y-74101316D01*
X89896033Y-74101316D02*
X89862700Y-74201316D01*
X89862700Y-74201316D02*
X89829366Y-74234649D01*
X89829366Y-74234649D02*
X89596033Y-74234649D01*
X89596033Y-74234649D02*
X89596033Y-74101316D01*
X89896033Y-74534649D02*
X89196033Y-74534649D01*
X89196033Y-74534649D02*
X89196033Y-74801316D01*
X89196033Y-74801316D02*
X89229366Y-74867983D01*
X89229366Y-74867983D02*
X89262700Y-74901316D01*
X89262700Y-74901316D02*
X89329366Y-74934649D01*
X89329366Y-74934649D02*
X89429366Y-74934649D01*
X89429366Y-74934649D02*
X89496033Y-74901316D01*
X89496033Y-74901316D02*
X89529366Y-74867983D01*
X89529366Y-74867983D02*
X89562700Y-74801316D01*
X89562700Y-74801316D02*
X89562700Y-74534649D01*
X89896033Y-75234649D02*
X89196033Y-75234649D01*
X89196033Y-75701316D02*
X89196033Y-75834649D01*
X89196033Y-75834649D02*
X89229366Y-75901316D01*
X89229366Y-75901316D02*
X89296033Y-75967982D01*
X89296033Y-75967982D02*
X89429366Y-76001316D01*
X89429366Y-76001316D02*
X89662700Y-76001316D01*
X89662700Y-76001316D02*
X89796033Y-75967982D01*
X89796033Y-75967982D02*
X89862700Y-75901316D01*
X89862700Y-75901316D02*
X89896033Y-75834649D01*
X89896033Y-75834649D02*
X89896033Y-75701316D01*
X89896033Y-75701316D02*
X89862700Y-75634649D01*
X89862700Y-75634649D02*
X89796033Y-75567982D01*
X89796033Y-75567982D02*
X89662700Y-75534649D01*
X89662700Y-75534649D02*
X89429366Y-75534649D01*
X89429366Y-75534649D02*
X89296033Y-75567982D01*
X89296033Y-75567982D02*
X89229366Y-75634649D01*
X89229366Y-75634649D02*
X89196033Y-75701316D01*
X89262700Y-76267982D02*
X89229366Y-76301315D01*
X89229366Y-76301315D02*
X89196033Y-76367982D01*
X89196033Y-76367982D02*
X89196033Y-76534649D01*
X89196033Y-76534649D02*
X89229366Y-76601315D01*
X89229366Y-76601315D02*
X89262700Y-76634649D01*
X89262700Y-76634649D02*
X89329366Y-76667982D01*
X89329366Y-76667982D02*
X89396033Y-76667982D01*
X89396033Y-76667982D02*
X89496033Y-76634649D01*
X89496033Y-76634649D02*
X89896033Y-76234649D01*
X89896033Y-76234649D02*
X89896033Y-76667982D01*
X73989366Y-73534649D02*
X73956033Y-73467982D01*
X73956033Y-73467982D02*
X73956033Y-73367982D01*
X73956033Y-73367982D02*
X73989366Y-73267982D01*
X73989366Y-73267982D02*
X74056033Y-73201316D01*
X74056033Y-73201316D02*
X74122700Y-73167982D01*
X74122700Y-73167982D02*
X74256033Y-73134649D01*
X74256033Y-73134649D02*
X74356033Y-73134649D01*
X74356033Y-73134649D02*
X74489366Y-73167982D01*
X74489366Y-73167982D02*
X74556033Y-73201316D01*
X74556033Y-73201316D02*
X74622700Y-73267982D01*
X74622700Y-73267982D02*
X74656033Y-73367982D01*
X74656033Y-73367982D02*
X74656033Y-73434649D01*
X74656033Y-73434649D02*
X74622700Y-73534649D01*
X74622700Y-73534649D02*
X74589366Y-73567982D01*
X74589366Y-73567982D02*
X74356033Y-73567982D01*
X74356033Y-73567982D02*
X74356033Y-73434649D01*
X74656033Y-73867982D02*
X73956033Y-73867982D01*
X73956033Y-73867982D02*
X73956033Y-74134649D01*
X73956033Y-74134649D02*
X73989366Y-74201316D01*
X73989366Y-74201316D02*
X74022700Y-74234649D01*
X74022700Y-74234649D02*
X74089366Y-74267982D01*
X74089366Y-74267982D02*
X74189366Y-74267982D01*
X74189366Y-74267982D02*
X74256033Y-74234649D01*
X74256033Y-74234649D02*
X74289366Y-74201316D01*
X74289366Y-74201316D02*
X74322700Y-74134649D01*
X74322700Y-74134649D02*
X74322700Y-73867982D01*
X74656033Y-74567982D02*
X73956033Y-74567982D01*
X73956033Y-75034649D02*
X73956033Y-75167982D01*
X73956033Y-75167982D02*
X73989366Y-75234649D01*
X73989366Y-75234649D02*
X74056033Y-75301315D01*
X74056033Y-75301315D02*
X74189366Y-75334649D01*
X74189366Y-75334649D02*
X74422700Y-75334649D01*
X74422700Y-75334649D02*
X74556033Y-75301315D01*
X74556033Y-75301315D02*
X74622700Y-75234649D01*
X74622700Y-75234649D02*
X74656033Y-75167982D01*
X74656033Y-75167982D02*
X74656033Y-75034649D01*
X74656033Y-75034649D02*
X74622700Y-74967982D01*
X74622700Y-74967982D02*
X74556033Y-74901315D01*
X74556033Y-74901315D02*
X74422700Y-74867982D01*
X74422700Y-74867982D02*
X74189366Y-74867982D01*
X74189366Y-74867982D02*
X74056033Y-74901315D01*
X74056033Y-74901315D02*
X73989366Y-74967982D01*
X73989366Y-74967982D02*
X73956033Y-75034649D01*
X74656033Y-76001315D02*
X74656033Y-75601315D01*
X74656033Y-75801315D02*
X73956033Y-75801315D01*
X73956033Y-75801315D02*
X74056033Y-75734648D01*
X74056033Y-75734648D02*
X74122700Y-75667982D01*
X74122700Y-75667982D02*
X74156033Y-75601315D01*
X74256033Y-76401315D02*
X74222700Y-76334649D01*
X74222700Y-76334649D02*
X74189366Y-76301315D01*
X74189366Y-76301315D02*
X74122700Y-76267982D01*
X74122700Y-76267982D02*
X74089366Y-76267982D01*
X74089366Y-76267982D02*
X74022700Y-76301315D01*
X74022700Y-76301315D02*
X73989366Y-76334649D01*
X73989366Y-76334649D02*
X73956033Y-76401315D01*
X73956033Y-76401315D02*
X73956033Y-76534649D01*
X73956033Y-76534649D02*
X73989366Y-76601315D01*
X73989366Y-76601315D02*
X74022700Y-76634649D01*
X74022700Y-76634649D02*
X74089366Y-76667982D01*
X74089366Y-76667982D02*
X74122700Y-76667982D01*
X74122700Y-76667982D02*
X74189366Y-76634649D01*
X74189366Y-76634649D02*
X74222700Y-76601315D01*
X74222700Y-76601315D02*
X74256033Y-76534649D01*
X74256033Y-76534649D02*
X74256033Y-76401315D01*
X74256033Y-76401315D02*
X74289366Y-76334649D01*
X74289366Y-76334649D02*
X74322700Y-76301315D01*
X74322700Y-76301315D02*
X74389366Y-76267982D01*
X74389366Y-76267982D02*
X74522700Y-76267982D01*
X74522700Y-76267982D02*
X74589366Y-76301315D01*
X74589366Y-76301315D02*
X74622700Y-76334649D01*
X74622700Y-76334649D02*
X74656033Y-76401315D01*
X74656033Y-76401315D02*
X74656033Y-76534649D01*
X74656033Y-76534649D02*
X74622700Y-76601315D01*
X74622700Y-76601315D02*
X74589366Y-76634649D01*
X74589366Y-76634649D02*
X74522700Y-76667982D01*
X74522700Y-76667982D02*
X74389366Y-76667982D01*
X74389366Y-76667982D02*
X74322700Y-76634649D01*
X74322700Y-76634649D02*
X74289366Y-76601315D01*
X74289366Y-76601315D02*
X74256033Y-76534649D01*
X56209366Y-73534649D02*
X56176033Y-73467982D01*
X56176033Y-73467982D02*
X56176033Y-73367982D01*
X56176033Y-73367982D02*
X56209366Y-73267982D01*
X56209366Y-73267982D02*
X56276033Y-73201316D01*
X56276033Y-73201316D02*
X56342700Y-73167982D01*
X56342700Y-73167982D02*
X56476033Y-73134649D01*
X56476033Y-73134649D02*
X56576033Y-73134649D01*
X56576033Y-73134649D02*
X56709366Y-73167982D01*
X56709366Y-73167982D02*
X56776033Y-73201316D01*
X56776033Y-73201316D02*
X56842700Y-73267982D01*
X56842700Y-73267982D02*
X56876033Y-73367982D01*
X56876033Y-73367982D02*
X56876033Y-73434649D01*
X56876033Y-73434649D02*
X56842700Y-73534649D01*
X56842700Y-73534649D02*
X56809366Y-73567982D01*
X56809366Y-73567982D02*
X56576033Y-73567982D01*
X56576033Y-73567982D02*
X56576033Y-73434649D01*
X56876033Y-73867982D02*
X56176033Y-73867982D01*
X56176033Y-73867982D02*
X56176033Y-74134649D01*
X56176033Y-74134649D02*
X56209366Y-74201316D01*
X56209366Y-74201316D02*
X56242700Y-74234649D01*
X56242700Y-74234649D02*
X56309366Y-74267982D01*
X56309366Y-74267982D02*
X56409366Y-74267982D01*
X56409366Y-74267982D02*
X56476033Y-74234649D01*
X56476033Y-74234649D02*
X56509366Y-74201316D01*
X56509366Y-74201316D02*
X56542700Y-74134649D01*
X56542700Y-74134649D02*
X56542700Y-73867982D01*
X56876033Y-74567982D02*
X56176033Y-74567982D01*
X56176033Y-75034649D02*
X56176033Y-75167982D01*
X56176033Y-75167982D02*
X56209366Y-75234649D01*
X56209366Y-75234649D02*
X56276033Y-75301315D01*
X56276033Y-75301315D02*
X56409366Y-75334649D01*
X56409366Y-75334649D02*
X56642700Y-75334649D01*
X56642700Y-75334649D02*
X56776033Y-75301315D01*
X56776033Y-75301315D02*
X56842700Y-75234649D01*
X56842700Y-75234649D02*
X56876033Y-75167982D01*
X56876033Y-75167982D02*
X56876033Y-75034649D01*
X56876033Y-75034649D02*
X56842700Y-74967982D01*
X56842700Y-74967982D02*
X56776033Y-74901315D01*
X56776033Y-74901315D02*
X56642700Y-74867982D01*
X56642700Y-74867982D02*
X56409366Y-74867982D01*
X56409366Y-74867982D02*
X56276033Y-74901315D01*
X56276033Y-74901315D02*
X56209366Y-74967982D01*
X56209366Y-74967982D02*
X56176033Y-75034649D01*
X56242700Y-75601315D02*
X56209366Y-75634648D01*
X56209366Y-75634648D02*
X56176033Y-75701315D01*
X56176033Y-75701315D02*
X56176033Y-75867982D01*
X56176033Y-75867982D02*
X56209366Y-75934648D01*
X56209366Y-75934648D02*
X56242700Y-75967982D01*
X56242700Y-75967982D02*
X56309366Y-76001315D01*
X56309366Y-76001315D02*
X56376033Y-76001315D01*
X56376033Y-76001315D02*
X56476033Y-75967982D01*
X56476033Y-75967982D02*
X56876033Y-75567982D01*
X56876033Y-75567982D02*
X56876033Y-76001315D01*
X56176033Y-76234649D02*
X56176033Y-76667982D01*
X56176033Y-76667982D02*
X56442700Y-76434649D01*
X56442700Y-76434649D02*
X56442700Y-76534649D01*
X56442700Y-76534649D02*
X56476033Y-76601315D01*
X56476033Y-76601315D02*
X56509366Y-76634649D01*
X56509366Y-76634649D02*
X56576033Y-76667982D01*
X56576033Y-76667982D02*
X56742700Y-76667982D01*
X56742700Y-76667982D02*
X56809366Y-76634649D01*
X56809366Y-76634649D02*
X56842700Y-76601315D01*
X56842700Y-76601315D02*
X56876033Y-76534649D01*
X56876033Y-76534649D02*
X56876033Y-76334649D01*
X56876033Y-76334649D02*
X56842700Y-76267982D01*
X56842700Y-76267982D02*
X56809366Y-76234649D01*
X84109366Y-57902017D02*
X84076033Y-57835350D01*
X84076033Y-57835350D02*
X84076033Y-57735350D01*
X84076033Y-57735350D02*
X84109366Y-57635350D01*
X84109366Y-57635350D02*
X84176033Y-57568684D01*
X84176033Y-57568684D02*
X84242700Y-57535350D01*
X84242700Y-57535350D02*
X84376033Y-57502017D01*
X84376033Y-57502017D02*
X84476033Y-57502017D01*
X84476033Y-57502017D02*
X84609366Y-57535350D01*
X84609366Y-57535350D02*
X84676033Y-57568684D01*
X84676033Y-57568684D02*
X84742700Y-57635350D01*
X84742700Y-57635350D02*
X84776033Y-57735350D01*
X84776033Y-57735350D02*
X84776033Y-57802017D01*
X84776033Y-57802017D02*
X84742700Y-57902017D01*
X84742700Y-57902017D02*
X84709366Y-57935350D01*
X84709366Y-57935350D02*
X84476033Y-57935350D01*
X84476033Y-57935350D02*
X84476033Y-57802017D01*
X84776033Y-58235350D02*
X84076033Y-58235350D01*
X84076033Y-58235350D02*
X84076033Y-58502017D01*
X84076033Y-58502017D02*
X84109366Y-58568684D01*
X84109366Y-58568684D02*
X84142700Y-58602017D01*
X84142700Y-58602017D02*
X84209366Y-58635350D01*
X84209366Y-58635350D02*
X84309366Y-58635350D01*
X84309366Y-58635350D02*
X84376033Y-58602017D01*
X84376033Y-58602017D02*
X84409366Y-58568684D01*
X84409366Y-58568684D02*
X84442700Y-58502017D01*
X84442700Y-58502017D02*
X84442700Y-58235350D01*
X84776033Y-58935350D02*
X84076033Y-58935350D01*
X84076033Y-59402017D02*
X84076033Y-59535350D01*
X84076033Y-59535350D02*
X84109366Y-59602017D01*
X84109366Y-59602017D02*
X84176033Y-59668683D01*
X84176033Y-59668683D02*
X84309366Y-59702017D01*
X84309366Y-59702017D02*
X84542700Y-59702017D01*
X84542700Y-59702017D02*
X84676033Y-59668683D01*
X84676033Y-59668683D02*
X84742700Y-59602017D01*
X84742700Y-59602017D02*
X84776033Y-59535350D01*
X84776033Y-59535350D02*
X84776033Y-59402017D01*
X84776033Y-59402017D02*
X84742700Y-59335350D01*
X84742700Y-59335350D02*
X84676033Y-59268683D01*
X84676033Y-59268683D02*
X84542700Y-59235350D01*
X84542700Y-59235350D02*
X84309366Y-59235350D01*
X84309366Y-59235350D02*
X84176033Y-59268683D01*
X84176033Y-59268683D02*
X84109366Y-59335350D01*
X84109366Y-59335350D02*
X84076033Y-59402017D01*
X84776033Y-60368683D02*
X84776033Y-59968683D01*
X84776033Y-60168683D02*
X84076033Y-60168683D01*
X84076033Y-60168683D02*
X84176033Y-60102016D01*
X84176033Y-60102016D02*
X84242700Y-60035350D01*
X84242700Y-60035350D02*
X84276033Y-59968683D01*
X84142700Y-60635350D02*
X84109366Y-60668683D01*
X84109366Y-60668683D02*
X84076033Y-60735350D01*
X84076033Y-60735350D02*
X84076033Y-60902017D01*
X84076033Y-60902017D02*
X84109366Y-60968683D01*
X84109366Y-60968683D02*
X84142700Y-61002017D01*
X84142700Y-61002017D02*
X84209366Y-61035350D01*
X84209366Y-61035350D02*
X84276033Y-61035350D01*
X84276033Y-61035350D02*
X84376033Y-61002017D01*
X84376033Y-61002017D02*
X84776033Y-60602017D01*
X84776033Y-60602017D02*
X84776033Y-61035350D01*
X84042700Y-61835350D02*
X84942700Y-61235350D01*
X84776033Y-62068683D02*
X84076033Y-62068683D01*
X84076033Y-62068683D02*
X84576033Y-62302017D01*
X84576033Y-62302017D02*
X84076033Y-62535350D01*
X84076033Y-62535350D02*
X84776033Y-62535350D01*
X84076033Y-62768683D02*
X84076033Y-63168683D01*
X84776033Y-62968683D02*
X84076033Y-62968683D01*
X84776033Y-63402016D02*
X84076033Y-63402016D01*
X84076033Y-63402016D02*
X84076033Y-63568683D01*
X84076033Y-63568683D02*
X84109366Y-63668683D01*
X84109366Y-63668683D02*
X84176033Y-63735350D01*
X84176033Y-63735350D02*
X84242700Y-63768683D01*
X84242700Y-63768683D02*
X84376033Y-63802016D01*
X84376033Y-63802016D02*
X84476033Y-63802016D01*
X84476033Y-63802016D02*
X84609366Y-63768683D01*
X84609366Y-63768683D02*
X84676033Y-63735350D01*
X84676033Y-63735350D02*
X84742700Y-63668683D01*
X84742700Y-63668683D02*
X84776033Y-63568683D01*
X84776033Y-63568683D02*
X84776033Y-63402016D01*
X84776033Y-64102016D02*
X84076033Y-64102016D01*
X61289366Y-70167983D02*
X61256033Y-70101316D01*
X61256033Y-70101316D02*
X61256033Y-70001316D01*
X61256033Y-70001316D02*
X61289366Y-69901316D01*
X61289366Y-69901316D02*
X61356033Y-69834650D01*
X61356033Y-69834650D02*
X61422700Y-69801316D01*
X61422700Y-69801316D02*
X61556033Y-69767983D01*
X61556033Y-69767983D02*
X61656033Y-69767983D01*
X61656033Y-69767983D02*
X61789366Y-69801316D01*
X61789366Y-69801316D02*
X61856033Y-69834650D01*
X61856033Y-69834650D02*
X61922700Y-69901316D01*
X61922700Y-69901316D02*
X61956033Y-70001316D01*
X61956033Y-70001316D02*
X61956033Y-70067983D01*
X61956033Y-70067983D02*
X61922700Y-70167983D01*
X61922700Y-70167983D02*
X61889366Y-70201316D01*
X61889366Y-70201316D02*
X61656033Y-70201316D01*
X61656033Y-70201316D02*
X61656033Y-70067983D01*
X61956033Y-70501316D02*
X61256033Y-70501316D01*
X61256033Y-70501316D02*
X61256033Y-70767983D01*
X61256033Y-70767983D02*
X61289366Y-70834650D01*
X61289366Y-70834650D02*
X61322700Y-70867983D01*
X61322700Y-70867983D02*
X61389366Y-70901316D01*
X61389366Y-70901316D02*
X61489366Y-70901316D01*
X61489366Y-70901316D02*
X61556033Y-70867983D01*
X61556033Y-70867983D02*
X61589366Y-70834650D01*
X61589366Y-70834650D02*
X61622700Y-70767983D01*
X61622700Y-70767983D02*
X61622700Y-70501316D01*
X61956033Y-71201316D02*
X61256033Y-71201316D01*
X61256033Y-71667983D02*
X61256033Y-71801316D01*
X61256033Y-71801316D02*
X61289366Y-71867983D01*
X61289366Y-71867983D02*
X61356033Y-71934649D01*
X61356033Y-71934649D02*
X61489366Y-71967983D01*
X61489366Y-71967983D02*
X61722700Y-71967983D01*
X61722700Y-71967983D02*
X61856033Y-71934649D01*
X61856033Y-71934649D02*
X61922700Y-71867983D01*
X61922700Y-71867983D02*
X61956033Y-71801316D01*
X61956033Y-71801316D02*
X61956033Y-71667983D01*
X61956033Y-71667983D02*
X61922700Y-71601316D01*
X61922700Y-71601316D02*
X61856033Y-71534649D01*
X61856033Y-71534649D02*
X61722700Y-71501316D01*
X61722700Y-71501316D02*
X61489366Y-71501316D01*
X61489366Y-71501316D02*
X61356033Y-71534649D01*
X61356033Y-71534649D02*
X61289366Y-71601316D01*
X61289366Y-71601316D02*
X61256033Y-71667983D01*
X61956033Y-72634649D02*
X61956033Y-72234649D01*
X61956033Y-72434649D02*
X61256033Y-72434649D01*
X61256033Y-72434649D02*
X61356033Y-72367982D01*
X61356033Y-72367982D02*
X61422700Y-72301316D01*
X61422700Y-72301316D02*
X61456033Y-72234649D01*
X61222700Y-73434649D02*
X62122700Y-72834649D01*
X61256033Y-73667982D02*
X61822700Y-73667982D01*
X61822700Y-73667982D02*
X61889366Y-73701316D01*
X61889366Y-73701316D02*
X61922700Y-73734649D01*
X61922700Y-73734649D02*
X61956033Y-73801316D01*
X61956033Y-73801316D02*
X61956033Y-73934649D01*
X61956033Y-73934649D02*
X61922700Y-74001316D01*
X61922700Y-74001316D02*
X61889366Y-74034649D01*
X61889366Y-74034649D02*
X61822700Y-74067982D01*
X61822700Y-74067982D02*
X61256033Y-74067982D01*
X61256033Y-74534649D02*
X61256033Y-74601315D01*
X61256033Y-74601315D02*
X61289366Y-74667982D01*
X61289366Y-74667982D02*
X61322700Y-74701315D01*
X61322700Y-74701315D02*
X61389366Y-74734649D01*
X61389366Y-74734649D02*
X61522700Y-74767982D01*
X61522700Y-74767982D02*
X61689366Y-74767982D01*
X61689366Y-74767982D02*
X61822700Y-74734649D01*
X61822700Y-74734649D02*
X61889366Y-74701315D01*
X61889366Y-74701315D02*
X61922700Y-74667982D01*
X61922700Y-74667982D02*
X61956033Y-74601315D01*
X61956033Y-74601315D02*
X61956033Y-74534649D01*
X61956033Y-74534649D02*
X61922700Y-74467982D01*
X61922700Y-74467982D02*
X61889366Y-74434649D01*
X61889366Y-74434649D02*
X61822700Y-74401315D01*
X61822700Y-74401315D02*
X61689366Y-74367982D01*
X61689366Y-74367982D02*
X61522700Y-74367982D01*
X61522700Y-74367982D02*
X61389366Y-74401315D01*
X61389366Y-74401315D02*
X61322700Y-74434649D01*
X61322700Y-74434649D02*
X61289366Y-74467982D01*
X61289366Y-74467982D02*
X61256033Y-74534649D01*
X61256033Y-74967982D02*
X61256033Y-75367982D01*
X61956033Y-75167982D02*
X61256033Y-75167982D01*
X61256033Y-75534649D02*
X61956033Y-76001315D01*
X61256033Y-76001315D02*
X61956033Y-75534649D01*
X61956033Y-76267982D02*
X61256033Y-76267982D01*
X61256033Y-76267982D02*
X61256033Y-76434649D01*
X61256033Y-76434649D02*
X61289366Y-76534649D01*
X61289366Y-76534649D02*
X61356033Y-76601316D01*
X61356033Y-76601316D02*
X61422700Y-76634649D01*
X61422700Y-76634649D02*
X61556033Y-76667982D01*
X61556033Y-76667982D02*
X61656033Y-76667982D01*
X61656033Y-76667982D02*
X61789366Y-76634649D01*
X61789366Y-76634649D02*
X61856033Y-76601316D01*
X61856033Y-76601316D02*
X61922700Y-76534649D01*
X61922700Y-76534649D02*
X61956033Y-76434649D01*
X61956033Y-76434649D02*
X61956033Y-76267982D01*
X53434819Y-57511541D02*
X53434819Y-58130588D01*
X53434819Y-58130588D02*
X53815771Y-57797255D01*
X53815771Y-57797255D02*
X53815771Y-57940112D01*
X53815771Y-57940112D02*
X53863390Y-58035350D01*
X53863390Y-58035350D02*
X53911009Y-58082969D01*
X53911009Y-58082969D02*
X54006247Y-58130588D01*
X54006247Y-58130588D02*
X54244342Y-58130588D01*
X54244342Y-58130588D02*
X54339580Y-58082969D01*
X54339580Y-58082969D02*
X54387200Y-58035350D01*
X54387200Y-58035350D02*
X54434819Y-57940112D01*
X54434819Y-57940112D02*
X54434819Y-57654398D01*
X54434819Y-57654398D02*
X54387200Y-57559160D01*
X54387200Y-57559160D02*
X54339580Y-57511541D01*
X53434819Y-58416303D02*
X54434819Y-58749636D01*
X54434819Y-58749636D02*
X53434819Y-59082969D01*
X53434819Y-59321065D02*
X53434819Y-59940112D01*
X53434819Y-59940112D02*
X53815771Y-59606779D01*
X53815771Y-59606779D02*
X53815771Y-59749636D01*
X53815771Y-59749636D02*
X53863390Y-59844874D01*
X53863390Y-59844874D02*
X53911009Y-59892493D01*
X53911009Y-59892493D02*
X54006247Y-59940112D01*
X54006247Y-59940112D02*
X54244342Y-59940112D01*
X54244342Y-59940112D02*
X54339580Y-59892493D01*
X54339580Y-59892493D02*
X54387200Y-59844874D01*
X54387200Y-59844874D02*
X54434819Y-59749636D01*
X54434819Y-59749636D02*
X54434819Y-59463922D01*
X54434819Y-59463922D02*
X54387200Y-59368684D01*
X54387200Y-59368684D02*
X54339580Y-59321065D01*
X66329366Y-57902017D02*
X66296033Y-57835350D01*
X66296033Y-57835350D02*
X66296033Y-57735350D01*
X66296033Y-57735350D02*
X66329366Y-57635350D01*
X66329366Y-57635350D02*
X66396033Y-57568684D01*
X66396033Y-57568684D02*
X66462700Y-57535350D01*
X66462700Y-57535350D02*
X66596033Y-57502017D01*
X66596033Y-57502017D02*
X66696033Y-57502017D01*
X66696033Y-57502017D02*
X66829366Y-57535350D01*
X66829366Y-57535350D02*
X66896033Y-57568684D01*
X66896033Y-57568684D02*
X66962700Y-57635350D01*
X66962700Y-57635350D02*
X66996033Y-57735350D01*
X66996033Y-57735350D02*
X66996033Y-57802017D01*
X66996033Y-57802017D02*
X66962700Y-57902017D01*
X66962700Y-57902017D02*
X66929366Y-57935350D01*
X66929366Y-57935350D02*
X66696033Y-57935350D01*
X66696033Y-57935350D02*
X66696033Y-57802017D01*
X66996033Y-58235350D02*
X66296033Y-58235350D01*
X66296033Y-58235350D02*
X66296033Y-58502017D01*
X66296033Y-58502017D02*
X66329366Y-58568684D01*
X66329366Y-58568684D02*
X66362700Y-58602017D01*
X66362700Y-58602017D02*
X66429366Y-58635350D01*
X66429366Y-58635350D02*
X66529366Y-58635350D01*
X66529366Y-58635350D02*
X66596033Y-58602017D01*
X66596033Y-58602017D02*
X66629366Y-58568684D01*
X66629366Y-58568684D02*
X66662700Y-58502017D01*
X66662700Y-58502017D02*
X66662700Y-58235350D01*
X66996033Y-58935350D02*
X66296033Y-58935350D01*
X66296033Y-59402017D02*
X66296033Y-59535350D01*
X66296033Y-59535350D02*
X66329366Y-59602017D01*
X66329366Y-59602017D02*
X66396033Y-59668683D01*
X66396033Y-59668683D02*
X66529366Y-59702017D01*
X66529366Y-59702017D02*
X66762700Y-59702017D01*
X66762700Y-59702017D02*
X66896033Y-59668683D01*
X66896033Y-59668683D02*
X66962700Y-59602017D01*
X66962700Y-59602017D02*
X66996033Y-59535350D01*
X66996033Y-59535350D02*
X66996033Y-59402017D01*
X66996033Y-59402017D02*
X66962700Y-59335350D01*
X66962700Y-59335350D02*
X66896033Y-59268683D01*
X66896033Y-59268683D02*
X66762700Y-59235350D01*
X66762700Y-59235350D02*
X66529366Y-59235350D01*
X66529366Y-59235350D02*
X66396033Y-59268683D01*
X66396033Y-59268683D02*
X66329366Y-59335350D01*
X66329366Y-59335350D02*
X66296033Y-59402017D01*
X66296033Y-59935350D02*
X66296033Y-60368683D01*
X66296033Y-60368683D02*
X66562700Y-60135350D01*
X66562700Y-60135350D02*
X66562700Y-60235350D01*
X66562700Y-60235350D02*
X66596033Y-60302016D01*
X66596033Y-60302016D02*
X66629366Y-60335350D01*
X66629366Y-60335350D02*
X66696033Y-60368683D01*
X66696033Y-60368683D02*
X66862700Y-60368683D01*
X66862700Y-60368683D02*
X66929366Y-60335350D01*
X66929366Y-60335350D02*
X66962700Y-60302016D01*
X66962700Y-60302016D02*
X66996033Y-60235350D01*
X66996033Y-60235350D02*
X66996033Y-60035350D01*
X66996033Y-60035350D02*
X66962700Y-59968683D01*
X66962700Y-59968683D02*
X66929366Y-59935350D01*
X66296033Y-61002017D02*
X66296033Y-60668683D01*
X66296033Y-60668683D02*
X66629366Y-60635350D01*
X66629366Y-60635350D02*
X66596033Y-60668683D01*
X66596033Y-60668683D02*
X66562700Y-60735350D01*
X66562700Y-60735350D02*
X66562700Y-60902017D01*
X66562700Y-60902017D02*
X66596033Y-60968683D01*
X66596033Y-60968683D02*
X66629366Y-61002017D01*
X66629366Y-61002017D02*
X66696033Y-61035350D01*
X66696033Y-61035350D02*
X66862700Y-61035350D01*
X66862700Y-61035350D02*
X66929366Y-61002017D01*
X66929366Y-61002017D02*
X66962700Y-60968683D01*
X66962700Y-60968683D02*
X66996033Y-60902017D01*
X66996033Y-60902017D02*
X66996033Y-60735350D01*
X66996033Y-60735350D02*
X66962700Y-60668683D01*
X66962700Y-60668683D02*
X66929366Y-60635350D01*
D12*
%TO.C,J6*%
X88020000Y-92077500D02*
X88020000Y-107597500D01*
X88020000Y-92077500D02*
X105980000Y-92077500D01*
X88020000Y-107597500D02*
X105980000Y-107597500D01*
X101600000Y-108282500D02*
X102600000Y-108282500D01*
X102100000Y-107782500D02*
X101600000Y-108282500D01*
X102600000Y-108282500D02*
X102100000Y-107782500D01*
X105980000Y-107597500D02*
X105980000Y-92077500D01*
%TO.C,C1*%
X51120000Y-54000000D02*
G75*
G02*
X45880000Y-54000000I-2620000J0D01*
G01*
X45880000Y-54000000D02*
G75*
G02*
X51120000Y-54000000I2620000J0D01*
G01*
%TO.C,U1*%
X46966880Y-59730120D02*
X52859680Y-59730120D01*
X46966880Y-77713320D02*
X46966880Y-59730120D01*
X52859680Y-77713320D02*
X46966880Y-77713320D01*
X52880000Y-50400000D02*
X52880000Y-87000000D01*
X52880000Y-82900000D02*
X100780000Y-82900000D01*
X52880000Y-87000000D02*
X100780000Y-87000000D01*
X100780000Y-50400000D02*
X52880000Y-50400000D01*
X100780000Y-54500000D02*
X52880000Y-54500001D01*
X100780000Y-87000000D02*
X100780000Y-50400000D01*
%TD*%
M02*
