%TF.GenerationSoftware,KiCad,Pcbnew,8.0.1*%
%TF.CreationDate,2024-04-17T01:34:18+02:00*%
%TF.ProjectId,PowerDistributionBoard,506f7765-7244-4697-9374-726962757469,rev?*%
%TF.SameCoordinates,Original*%
%TF.FileFunction,Copper,L1,Top*%
%TF.FilePolarity,Positive*%
%FSLAX46Y46*%
G04 Gerber Fmt 4.6, Leading zero omitted, Abs format (unit mm)*
G04 Created by KiCad (PCBNEW 8.0.1) date 2024-04-17 01:34:18*
%MOMM*%
%LPD*%
G01*
G04 APERTURE LIST*
%TA.AperFunction,ComponentPad*%
%ADD10R,3.000000X3.000000*%
%TD*%
%TA.AperFunction,ComponentPad*%
%ADD11C,3.000000*%
%TD*%
G04 APERTURE END LIST*
D10*
%TO.P,J7,1,Pin_1*%
%TO.N,GND*%
X147420000Y-50000000D03*
D11*
%TO.P,J7,2,Pin_2*%
%TO.N,+12V*%
X152500000Y-50000000D03*
%TO.P,J7,3,Pin_3*%
X157580000Y-50000000D03*
%TD*%
D10*
%TO.P,J6,1,Pin_1*%
%TO.N,GND*%
X134920000Y-50000000D03*
D11*
%TO.P,J6,2,Pin_2*%
%TO.N,+12V*%
X140000000Y-50000000D03*
%TD*%
D10*
%TO.P,J2,1,Pin_1*%
%TO.N,GND*%
X152500000Y-37500000D03*
D11*
%TO.P,J2,2,Pin_2*%
%TO.N,+12V*%
X147420000Y-37500000D03*
%TD*%
D10*
%TO.P,J1,1,Pin_1*%
%TO.N,GND*%
X140000000Y-37500000D03*
D11*
%TO.P,J1,2,Pin_2*%
%TO.N,+12V*%
X134920000Y-37500000D03*
%TD*%
D10*
%TO.P,J3,1,Pin_1*%
%TO.N,GND*%
X165000000Y-37500000D03*
D11*
%TO.P,J3,2,Pin_2*%
%TO.N,+12V*%
X159920000Y-37500000D03*
%TD*%
D10*
%TO.P,J4,1,Pin_1*%
%TO.N,GND*%
X177500000Y-37500000D03*
D11*
%TO.P,J4,2,Pin_2*%
%TO.N,+12V*%
X172420000Y-37500000D03*
%TD*%
D10*
%TO.P,J5,1,Pin_1*%
%TO.N,GND*%
X190000000Y-37500000D03*
D11*
%TO.P,J5,2,Pin_2*%
%TO.N,+12V*%
X184920000Y-37500000D03*
%TD*%
%TA.AperFunction,Conductor*%
%TO.N,+12V*%
G36*
X197002562Y-30500605D02*
G01*
X197449036Y-30519072D01*
X197459209Y-30519915D01*
X197900114Y-30574873D01*
X197910194Y-30576555D01*
X198345042Y-30667733D01*
X198354950Y-30670242D01*
X198780786Y-30797019D01*
X198790454Y-30800338D01*
X199131430Y-30933388D01*
X199204339Y-30961838D01*
X199213724Y-30965954D01*
X199612869Y-31161083D01*
X199621877Y-31165958D01*
X200003544Y-31393383D01*
X200012123Y-31398989D01*
X200373693Y-31657144D01*
X200381775Y-31663435D01*
X200720796Y-31950571D01*
X200728336Y-31957512D01*
X201042487Y-32271663D01*
X201049428Y-32279203D01*
X201336564Y-32618224D01*
X201342859Y-32626312D01*
X201601010Y-32987876D01*
X201606616Y-32996455D01*
X201834041Y-33378122D01*
X201838919Y-33387136D01*
X202034045Y-33786275D01*
X202038161Y-33795660D01*
X202199656Y-34209533D01*
X202202984Y-34219226D01*
X202329753Y-34645036D01*
X202332269Y-34654971D01*
X202423441Y-35089791D01*
X202425128Y-35099900D01*
X202480082Y-35540769D01*
X202480928Y-35550983D01*
X202499394Y-35997437D01*
X202499500Y-36002561D01*
X202499500Y-50997438D01*
X202499394Y-51002562D01*
X202480928Y-51449016D01*
X202480082Y-51459230D01*
X202425128Y-51900099D01*
X202423441Y-51910208D01*
X202332269Y-52345028D01*
X202329753Y-52354963D01*
X202202984Y-52780773D01*
X202199656Y-52790466D01*
X202038161Y-53204339D01*
X202034045Y-53213724D01*
X201838919Y-53612863D01*
X201834041Y-53621877D01*
X201606616Y-54003544D01*
X201601010Y-54012123D01*
X201342859Y-54373687D01*
X201336564Y-54381775D01*
X201049428Y-54720796D01*
X201042487Y-54728336D01*
X200728336Y-55042487D01*
X200720796Y-55049428D01*
X200381775Y-55336564D01*
X200373687Y-55342859D01*
X200012123Y-55601010D01*
X200003544Y-55606616D01*
X199621877Y-55834041D01*
X199612863Y-55838919D01*
X199213724Y-56034045D01*
X199204339Y-56038161D01*
X198790466Y-56199656D01*
X198780773Y-56202984D01*
X198354963Y-56329753D01*
X198345028Y-56332269D01*
X197910208Y-56423441D01*
X197900099Y-56425128D01*
X197459230Y-56480082D01*
X197449016Y-56480928D01*
X197002563Y-56499394D01*
X196997439Y-56499500D01*
X127002561Y-56499500D01*
X126997437Y-56499394D01*
X126550983Y-56480928D01*
X126540769Y-56480082D01*
X126099900Y-56425128D01*
X126089791Y-56423441D01*
X125654971Y-56332269D01*
X125645036Y-56329753D01*
X125219226Y-56202984D01*
X125209533Y-56199656D01*
X124795660Y-56038161D01*
X124786275Y-56034045D01*
X124387136Y-55838919D01*
X124378122Y-55834041D01*
X123996455Y-55606616D01*
X123987876Y-55601010D01*
X123626312Y-55342859D01*
X123618224Y-55336564D01*
X123279203Y-55049428D01*
X123271663Y-55042487D01*
X122957512Y-54728336D01*
X122950571Y-54720796D01*
X122663435Y-54381775D01*
X122657140Y-54373687D01*
X122398989Y-54012123D01*
X122393383Y-54003544D01*
X122165958Y-53621877D01*
X122161080Y-53612863D01*
X121965954Y-53213724D01*
X121961838Y-53204339D01*
X121811414Y-52818838D01*
X121800338Y-52790454D01*
X121797019Y-52780786D01*
X121670242Y-52354950D01*
X121667733Y-52345042D01*
X121576555Y-51910194D01*
X121574873Y-51900114D01*
X121519915Y-51459209D01*
X121519072Y-51449036D01*
X121505516Y-51121288D01*
X125149500Y-51121288D01*
X125181161Y-51361785D01*
X125243947Y-51596104D01*
X125267431Y-51652799D01*
X125336776Y-51820212D01*
X125458064Y-52030289D01*
X125458066Y-52030292D01*
X125458067Y-52030293D01*
X125605733Y-52222736D01*
X125605739Y-52222743D01*
X125777256Y-52394260D01*
X125777262Y-52394265D01*
X125969711Y-52541936D01*
X126179788Y-52663224D01*
X126403900Y-52756054D01*
X126638211Y-52818838D01*
X126818586Y-52842584D01*
X126878711Y-52850500D01*
X126878712Y-52850500D01*
X127121289Y-52850500D01*
X127169388Y-52844167D01*
X127361789Y-52818838D01*
X127596100Y-52756054D01*
X127820212Y-52663224D01*
X128030289Y-52541936D01*
X128222738Y-52394265D01*
X128394265Y-52222738D01*
X128541936Y-52030289D01*
X128663224Y-51820212D01*
X128756054Y-51596100D01*
X128768406Y-51550001D01*
X132669500Y-51550001D01*
X132669501Y-51550018D01*
X132680000Y-51652796D01*
X132680001Y-51652799D01*
X132735185Y-51819331D01*
X132735187Y-51819336D01*
X132735729Y-51820214D01*
X132827288Y-51968656D01*
X132951344Y-52092712D01*
X133100666Y-52184814D01*
X133267203Y-52239999D01*
X133369991Y-52250500D01*
X136470008Y-52250499D01*
X136572797Y-52239999D01*
X136739334Y-52184814D01*
X136888656Y-52092712D01*
X137012712Y-51968656D01*
X137104814Y-51819334D01*
X137159999Y-51652797D01*
X137170500Y-51550009D01*
X137170500Y-50000001D01*
X137994891Y-50000001D01*
X138015300Y-50285362D01*
X138076109Y-50564895D01*
X138176091Y-50832958D01*
X138313191Y-51084038D01*
X138313196Y-51084046D01*
X138419882Y-51226561D01*
X138419883Y-51226562D01*
X139314767Y-50331677D01*
X139326497Y-50359995D01*
X139409670Y-50484472D01*
X139515528Y-50590330D01*
X139640005Y-50673503D01*
X139668320Y-50685231D01*
X138773436Y-51580115D01*
X138915960Y-51686807D01*
X138915961Y-51686808D01*
X139167042Y-51823908D01*
X139167041Y-51823908D01*
X139435104Y-51923890D01*
X139714637Y-51984699D01*
X139999999Y-52005109D01*
X140000001Y-52005109D01*
X140285362Y-51984699D01*
X140564895Y-51923890D01*
X140832958Y-51823908D01*
X141084047Y-51686803D01*
X141226561Y-51580116D01*
X141226562Y-51580115D01*
X141196448Y-51550001D01*
X145169500Y-51550001D01*
X145169501Y-51550018D01*
X145180000Y-51652796D01*
X145180001Y-51652799D01*
X145235185Y-51819331D01*
X145235187Y-51819336D01*
X145235729Y-51820214D01*
X145327288Y-51968656D01*
X145451344Y-52092712D01*
X145600666Y-52184814D01*
X145767203Y-52239999D01*
X145869991Y-52250500D01*
X148970008Y-52250499D01*
X149072797Y-52239999D01*
X149239334Y-52184814D01*
X149388656Y-52092712D01*
X149512712Y-51968656D01*
X149604814Y-51819334D01*
X149659999Y-51652797D01*
X149670500Y-51550009D01*
X149670500Y-50000001D01*
X150494891Y-50000001D01*
X150515300Y-50285362D01*
X150576109Y-50564895D01*
X150676091Y-50832958D01*
X150813191Y-51084038D01*
X150813196Y-51084046D01*
X150919882Y-51226561D01*
X150919883Y-51226562D01*
X151814767Y-50331677D01*
X151826497Y-50359995D01*
X151909670Y-50484472D01*
X152015528Y-50590330D01*
X152140005Y-50673503D01*
X152168320Y-50685231D01*
X151273436Y-51580115D01*
X151415960Y-51686807D01*
X151415961Y-51686808D01*
X151667042Y-51823908D01*
X151667041Y-51823908D01*
X151935104Y-51923890D01*
X152214637Y-51984699D01*
X152499999Y-52005109D01*
X152500001Y-52005109D01*
X152785362Y-51984699D01*
X153064895Y-51923890D01*
X153332958Y-51823908D01*
X153584047Y-51686803D01*
X153726561Y-51580116D01*
X153726562Y-51580115D01*
X152831679Y-50685231D01*
X152859995Y-50673503D01*
X152984472Y-50590330D01*
X153090330Y-50484472D01*
X153173503Y-50359995D01*
X153185231Y-50331678D01*
X154080115Y-51226562D01*
X154080116Y-51226561D01*
X154186803Y-51084047D01*
X154323908Y-50832958D01*
X154423890Y-50564895D01*
X154484699Y-50285362D01*
X154505109Y-50000001D01*
X155574891Y-50000001D01*
X155595300Y-50285362D01*
X155656109Y-50564895D01*
X155756091Y-50832958D01*
X155893191Y-51084038D01*
X155893196Y-51084046D01*
X155999882Y-51226561D01*
X155999883Y-51226562D01*
X156894767Y-50331677D01*
X156906497Y-50359995D01*
X156989670Y-50484472D01*
X157095528Y-50590330D01*
X157220005Y-50673503D01*
X157248320Y-50685231D01*
X156353436Y-51580115D01*
X156495960Y-51686807D01*
X156495961Y-51686808D01*
X156747042Y-51823908D01*
X156747041Y-51823908D01*
X157015104Y-51923890D01*
X157294637Y-51984699D01*
X157579999Y-52005109D01*
X157580001Y-52005109D01*
X157865362Y-51984699D01*
X158144895Y-51923890D01*
X158412958Y-51823908D01*
X158664047Y-51686803D01*
X158806561Y-51580116D01*
X158806562Y-51580115D01*
X157911679Y-50685231D01*
X157939995Y-50673503D01*
X158064472Y-50590330D01*
X158170330Y-50484472D01*
X158253503Y-50359995D01*
X158265231Y-50331678D01*
X159160115Y-51226562D01*
X159160116Y-51226561D01*
X159238924Y-51121288D01*
X195149500Y-51121288D01*
X195181161Y-51361785D01*
X195243947Y-51596104D01*
X195267431Y-51652799D01*
X195336776Y-51820212D01*
X195458064Y-52030289D01*
X195458066Y-52030292D01*
X195458067Y-52030293D01*
X195605733Y-52222736D01*
X195605739Y-52222743D01*
X195777256Y-52394260D01*
X195777262Y-52394265D01*
X195969711Y-52541936D01*
X196179788Y-52663224D01*
X196403900Y-52756054D01*
X196638211Y-52818838D01*
X196818586Y-52842584D01*
X196878711Y-52850500D01*
X196878712Y-52850500D01*
X197121289Y-52850500D01*
X197169388Y-52844167D01*
X197361789Y-52818838D01*
X197596100Y-52756054D01*
X197820212Y-52663224D01*
X198030289Y-52541936D01*
X198222738Y-52394265D01*
X198394265Y-52222738D01*
X198541936Y-52030289D01*
X198663224Y-51820212D01*
X198756054Y-51596100D01*
X198818838Y-51361789D01*
X198850500Y-51121288D01*
X198850500Y-50878712D01*
X198844476Y-50832958D01*
X198842584Y-50818586D01*
X198818838Y-50638211D01*
X198756054Y-50403900D01*
X198663224Y-50179788D01*
X198541936Y-49969711D01*
X198394265Y-49777262D01*
X198394260Y-49777256D01*
X198222743Y-49605739D01*
X198222736Y-49605733D01*
X198030293Y-49458067D01*
X198030292Y-49458066D01*
X198030289Y-49458064D01*
X197820212Y-49336776D01*
X197820205Y-49336773D01*
X197596104Y-49243947D01*
X197361785Y-49181161D01*
X197121289Y-49149500D01*
X197121288Y-49149500D01*
X196878712Y-49149500D01*
X196878711Y-49149500D01*
X196638214Y-49181161D01*
X196403895Y-49243947D01*
X196179794Y-49336773D01*
X196179785Y-49336777D01*
X195969706Y-49458067D01*
X195777263Y-49605733D01*
X195777256Y-49605739D01*
X195605739Y-49777256D01*
X195605733Y-49777263D01*
X195458067Y-49969706D01*
X195336777Y-50179785D01*
X195336773Y-50179794D01*
X195243947Y-50403895D01*
X195181161Y-50638214D01*
X195149500Y-50878711D01*
X195149500Y-51121288D01*
X159238924Y-51121288D01*
X159266803Y-51084047D01*
X159403908Y-50832958D01*
X159503890Y-50564895D01*
X159564699Y-50285362D01*
X159585109Y-50000001D01*
X159585109Y-49999998D01*
X159564699Y-49714637D01*
X159503890Y-49435104D01*
X159403908Y-49167041D01*
X159266808Y-48915961D01*
X159266807Y-48915960D01*
X159160115Y-48773436D01*
X158265231Y-49668320D01*
X158253503Y-49640005D01*
X158170330Y-49515528D01*
X158064472Y-49409670D01*
X157939995Y-49326497D01*
X157911678Y-49314767D01*
X158806562Y-48419883D01*
X158806561Y-48419882D01*
X158664046Y-48313196D01*
X158664038Y-48313191D01*
X158412957Y-48176091D01*
X158412958Y-48176091D01*
X158144895Y-48076109D01*
X157865362Y-48015300D01*
X157580001Y-47994891D01*
X157579999Y-47994891D01*
X157294637Y-48015300D01*
X157015104Y-48076109D01*
X156747041Y-48176091D01*
X156495961Y-48313191D01*
X156495953Y-48313196D01*
X156353437Y-48419882D01*
X156353436Y-48419883D01*
X157248321Y-49314767D01*
X157220005Y-49326497D01*
X157095528Y-49409670D01*
X156989670Y-49515528D01*
X156906497Y-49640005D01*
X156894768Y-49668321D01*
X155999883Y-48773436D01*
X155999882Y-48773437D01*
X155893196Y-48915953D01*
X155893191Y-48915961D01*
X155756091Y-49167041D01*
X155656109Y-49435104D01*
X155595300Y-49714637D01*
X155574891Y-49999998D01*
X155574891Y-50000001D01*
X154505109Y-50000001D01*
X154505109Y-49999998D01*
X154484699Y-49714637D01*
X154423890Y-49435104D01*
X154323908Y-49167041D01*
X154186808Y-48915961D01*
X154186807Y-48915960D01*
X154080115Y-48773436D01*
X153185231Y-49668320D01*
X153173503Y-49640005D01*
X153090330Y-49515528D01*
X152984472Y-49409670D01*
X152859995Y-49326497D01*
X152831678Y-49314767D01*
X153726562Y-48419883D01*
X153726561Y-48419882D01*
X153584046Y-48313196D01*
X153584038Y-48313191D01*
X153332957Y-48176091D01*
X153332958Y-48176091D01*
X153064895Y-48076109D01*
X152785362Y-48015300D01*
X152500001Y-47994891D01*
X152499999Y-47994891D01*
X152214637Y-48015300D01*
X151935104Y-48076109D01*
X151667041Y-48176091D01*
X151415961Y-48313191D01*
X151415953Y-48313196D01*
X151273437Y-48419882D01*
X151273436Y-48419883D01*
X152168321Y-49314767D01*
X152140005Y-49326497D01*
X152015528Y-49409670D01*
X151909670Y-49515528D01*
X151826497Y-49640005D01*
X151814768Y-49668321D01*
X150919883Y-48773436D01*
X150919882Y-48773437D01*
X150813196Y-48915953D01*
X150813191Y-48915961D01*
X150676091Y-49167041D01*
X150576109Y-49435104D01*
X150515300Y-49714637D01*
X150494891Y-49999998D01*
X150494891Y-50000001D01*
X149670500Y-50000001D01*
X149670499Y-48449992D01*
X149659999Y-48347203D01*
X149604814Y-48180666D01*
X149512712Y-48031344D01*
X149388656Y-47907288D01*
X149239334Y-47815186D01*
X149072797Y-47760001D01*
X149072795Y-47760000D01*
X148970010Y-47749500D01*
X145869998Y-47749500D01*
X145869981Y-47749501D01*
X145767203Y-47760000D01*
X145767200Y-47760001D01*
X145600668Y-47815185D01*
X145600663Y-47815187D01*
X145451342Y-47907289D01*
X145327289Y-48031342D01*
X145235187Y-48180663D01*
X145235186Y-48180666D01*
X145180001Y-48347203D01*
X145180001Y-48347204D01*
X145180000Y-48347204D01*
X145169500Y-48449983D01*
X145169500Y-51550001D01*
X141196448Y-51550001D01*
X140331679Y-50685231D01*
X140359995Y-50673503D01*
X140484472Y-50590330D01*
X140590330Y-50484472D01*
X140673503Y-50359995D01*
X140685231Y-50331678D01*
X141580115Y-51226562D01*
X141580116Y-51226561D01*
X141686803Y-51084047D01*
X141823908Y-50832958D01*
X141923890Y-50564895D01*
X141984699Y-50285362D01*
X142005109Y-50000001D01*
X142005109Y-49999998D01*
X141984699Y-49714637D01*
X141923890Y-49435104D01*
X141823908Y-49167041D01*
X141686808Y-48915961D01*
X141686807Y-48915960D01*
X141580115Y-48773436D01*
X140685231Y-49668320D01*
X140673503Y-49640005D01*
X140590330Y-49515528D01*
X140484472Y-49409670D01*
X140359995Y-49326497D01*
X140331678Y-49314767D01*
X141226562Y-48419883D01*
X141226561Y-48419882D01*
X141084046Y-48313196D01*
X141084038Y-48313191D01*
X140832957Y-48176091D01*
X140832958Y-48176091D01*
X140564895Y-48076109D01*
X140285362Y-48015300D01*
X140000001Y-47994891D01*
X139999999Y-47994891D01*
X139714637Y-48015300D01*
X139435104Y-48076109D01*
X139167041Y-48176091D01*
X138915961Y-48313191D01*
X138915953Y-48313196D01*
X138773437Y-48419882D01*
X138773436Y-48419883D01*
X139668321Y-49314767D01*
X139640005Y-49326497D01*
X139515528Y-49409670D01*
X139409670Y-49515528D01*
X139326497Y-49640005D01*
X139314768Y-49668321D01*
X138419883Y-48773436D01*
X138419882Y-48773437D01*
X138313196Y-48915953D01*
X138313191Y-48915961D01*
X138176091Y-49167041D01*
X138076109Y-49435104D01*
X138015300Y-49714637D01*
X137994891Y-49999998D01*
X137994891Y-50000001D01*
X137170500Y-50000001D01*
X137170499Y-48449992D01*
X137159999Y-48347203D01*
X137104814Y-48180666D01*
X137012712Y-48031344D01*
X136888656Y-47907288D01*
X136739334Y-47815186D01*
X136572797Y-47760001D01*
X136572795Y-47760000D01*
X136470010Y-47749500D01*
X133369998Y-47749500D01*
X133369981Y-47749501D01*
X133267203Y-47760000D01*
X133267200Y-47760001D01*
X133100668Y-47815185D01*
X133100663Y-47815187D01*
X132951342Y-47907289D01*
X132827289Y-48031342D01*
X132735187Y-48180663D01*
X132735186Y-48180666D01*
X132680001Y-48347203D01*
X132680001Y-48347204D01*
X132680000Y-48347204D01*
X132669500Y-48449983D01*
X132669500Y-51550001D01*
X128768406Y-51550001D01*
X128818838Y-51361789D01*
X128850500Y-51121288D01*
X128850500Y-50878712D01*
X128844476Y-50832958D01*
X128842584Y-50818586D01*
X128818838Y-50638211D01*
X128756054Y-50403900D01*
X128663224Y-50179788D01*
X128541936Y-49969711D01*
X128394265Y-49777262D01*
X128394260Y-49777256D01*
X128222743Y-49605739D01*
X128222736Y-49605733D01*
X128030293Y-49458067D01*
X128030292Y-49458066D01*
X128030289Y-49458064D01*
X127820212Y-49336776D01*
X127820205Y-49336773D01*
X127596104Y-49243947D01*
X127361785Y-49181161D01*
X127121289Y-49149500D01*
X127121288Y-49149500D01*
X126878712Y-49149500D01*
X126878711Y-49149500D01*
X126638214Y-49181161D01*
X126403895Y-49243947D01*
X126179794Y-49336773D01*
X126179785Y-49336777D01*
X125969706Y-49458067D01*
X125777263Y-49605733D01*
X125777256Y-49605739D01*
X125605739Y-49777256D01*
X125605733Y-49777263D01*
X125458067Y-49969706D01*
X125336777Y-50179785D01*
X125336773Y-50179794D01*
X125243947Y-50403895D01*
X125181161Y-50638214D01*
X125149500Y-50878711D01*
X125149500Y-51121288D01*
X121505516Y-51121288D01*
X121500606Y-51002562D01*
X121500500Y-50997438D01*
X121500500Y-36121288D01*
X125149500Y-36121288D01*
X125181162Y-36361789D01*
X125212554Y-36478944D01*
X125243947Y-36596104D01*
X125303551Y-36740000D01*
X125336776Y-36820212D01*
X125458064Y-37030289D01*
X125458066Y-37030292D01*
X125458067Y-37030293D01*
X125605733Y-37222736D01*
X125605739Y-37222743D01*
X125777256Y-37394260D01*
X125777262Y-37394265D01*
X125969711Y-37541936D01*
X126179788Y-37663224D01*
X126403900Y-37756054D01*
X126638211Y-37818838D01*
X126818586Y-37842584D01*
X126878711Y-37850500D01*
X126878712Y-37850500D01*
X127121289Y-37850500D01*
X127169388Y-37844167D01*
X127361789Y-37818838D01*
X127596100Y-37756054D01*
X127820212Y-37663224D01*
X128030289Y-37541936D01*
X128084940Y-37500001D01*
X132914891Y-37500001D01*
X132935300Y-37785362D01*
X132996109Y-38064895D01*
X133096091Y-38332958D01*
X133233191Y-38584038D01*
X133233196Y-38584046D01*
X133339882Y-38726561D01*
X133339883Y-38726562D01*
X134234767Y-37831677D01*
X134246497Y-37859995D01*
X134329670Y-37984472D01*
X134435528Y-38090330D01*
X134560005Y-38173503D01*
X134588320Y-38185231D01*
X133693436Y-39080115D01*
X133835960Y-39186807D01*
X133835961Y-39186808D01*
X134087042Y-39323908D01*
X134087041Y-39323908D01*
X134355104Y-39423890D01*
X134634637Y-39484699D01*
X134919999Y-39505109D01*
X134920001Y-39505109D01*
X135205362Y-39484699D01*
X135484895Y-39423890D01*
X135752958Y-39323908D01*
X136004047Y-39186803D01*
X136146561Y-39080116D01*
X136146562Y-39080115D01*
X136116448Y-39050001D01*
X137749500Y-39050001D01*
X137749501Y-39050018D01*
X137760000Y-39152796D01*
X137760001Y-39152799D01*
X137771271Y-39186808D01*
X137815186Y-39319334D01*
X137907288Y-39468656D01*
X138031344Y-39592712D01*
X138180666Y-39684814D01*
X138347203Y-39739999D01*
X138449991Y-39750500D01*
X141550008Y-39750499D01*
X141652797Y-39739999D01*
X141819334Y-39684814D01*
X141968656Y-39592712D01*
X142092712Y-39468656D01*
X142184814Y-39319334D01*
X142239999Y-39152797D01*
X142250500Y-39050009D01*
X142250500Y-37500001D01*
X145414891Y-37500001D01*
X145435300Y-37785362D01*
X145496109Y-38064895D01*
X145596091Y-38332958D01*
X145733191Y-38584038D01*
X145733196Y-38584046D01*
X145839882Y-38726561D01*
X145839883Y-38726562D01*
X146734767Y-37831677D01*
X146746497Y-37859995D01*
X146829670Y-37984472D01*
X146935528Y-38090330D01*
X147060005Y-38173503D01*
X147088320Y-38185231D01*
X146193436Y-39080115D01*
X146335960Y-39186807D01*
X146335961Y-39186808D01*
X146587042Y-39323908D01*
X146587041Y-39323908D01*
X146855104Y-39423890D01*
X147134637Y-39484699D01*
X147419999Y-39505109D01*
X147420001Y-39505109D01*
X147705362Y-39484699D01*
X147984895Y-39423890D01*
X148252958Y-39323908D01*
X148504047Y-39186803D01*
X148646561Y-39080116D01*
X148646562Y-39080115D01*
X148616448Y-39050001D01*
X150249500Y-39050001D01*
X150249501Y-39050018D01*
X150260000Y-39152796D01*
X150260001Y-39152799D01*
X150271271Y-39186808D01*
X150315186Y-39319334D01*
X150407288Y-39468656D01*
X150531344Y-39592712D01*
X150680666Y-39684814D01*
X150847203Y-39739999D01*
X150949991Y-39750500D01*
X154050008Y-39750499D01*
X154152797Y-39739999D01*
X154319334Y-39684814D01*
X154468656Y-39592712D01*
X154592712Y-39468656D01*
X154684814Y-39319334D01*
X154739999Y-39152797D01*
X154750500Y-39050009D01*
X154750500Y-37500001D01*
X157914891Y-37500001D01*
X157935300Y-37785362D01*
X157996109Y-38064895D01*
X158096091Y-38332958D01*
X158233191Y-38584038D01*
X158233196Y-38584046D01*
X158339882Y-38726561D01*
X158339883Y-38726562D01*
X159234767Y-37831677D01*
X159246497Y-37859995D01*
X159329670Y-37984472D01*
X159435528Y-38090330D01*
X159560005Y-38173503D01*
X159588320Y-38185231D01*
X158693436Y-39080115D01*
X158835960Y-39186807D01*
X158835961Y-39186808D01*
X159087042Y-39323908D01*
X159087041Y-39323908D01*
X159355104Y-39423890D01*
X159634637Y-39484699D01*
X159919999Y-39505109D01*
X159920001Y-39505109D01*
X160205362Y-39484699D01*
X160484895Y-39423890D01*
X160752958Y-39323908D01*
X161004047Y-39186803D01*
X161146561Y-39080116D01*
X161146562Y-39080115D01*
X161116448Y-39050001D01*
X162749500Y-39050001D01*
X162749501Y-39050018D01*
X162760000Y-39152796D01*
X162760001Y-39152799D01*
X162771271Y-39186808D01*
X162815186Y-39319334D01*
X162907288Y-39468656D01*
X163031344Y-39592712D01*
X163180666Y-39684814D01*
X163347203Y-39739999D01*
X163449991Y-39750500D01*
X166550008Y-39750499D01*
X166652797Y-39739999D01*
X166819334Y-39684814D01*
X166968656Y-39592712D01*
X167092712Y-39468656D01*
X167184814Y-39319334D01*
X167239999Y-39152797D01*
X167250500Y-39050009D01*
X167250500Y-37500001D01*
X170414891Y-37500001D01*
X170435300Y-37785362D01*
X170496109Y-38064895D01*
X170596091Y-38332958D01*
X170733191Y-38584038D01*
X170733196Y-38584046D01*
X170839882Y-38726561D01*
X170839883Y-38726562D01*
X171734767Y-37831677D01*
X171746497Y-37859995D01*
X171829670Y-37984472D01*
X171935528Y-38090330D01*
X172060005Y-38173503D01*
X172088320Y-38185231D01*
X171193436Y-39080115D01*
X171335960Y-39186807D01*
X171335961Y-39186808D01*
X171587042Y-39323908D01*
X171587041Y-39323908D01*
X171855104Y-39423890D01*
X172134637Y-39484699D01*
X172419999Y-39505109D01*
X172420001Y-39505109D01*
X172705362Y-39484699D01*
X172984895Y-39423890D01*
X173252958Y-39323908D01*
X173504047Y-39186803D01*
X173646561Y-39080116D01*
X173646562Y-39080115D01*
X173616448Y-39050001D01*
X175249500Y-39050001D01*
X175249501Y-39050018D01*
X175260000Y-39152796D01*
X175260001Y-39152799D01*
X175271271Y-39186808D01*
X175315186Y-39319334D01*
X175407288Y-39468656D01*
X175531344Y-39592712D01*
X175680666Y-39684814D01*
X175847203Y-39739999D01*
X175949991Y-39750500D01*
X179050008Y-39750499D01*
X179152797Y-39739999D01*
X179319334Y-39684814D01*
X179468656Y-39592712D01*
X179592712Y-39468656D01*
X179684814Y-39319334D01*
X179739999Y-39152797D01*
X179750500Y-39050009D01*
X179750500Y-37500001D01*
X182914891Y-37500001D01*
X182935300Y-37785362D01*
X182996109Y-38064895D01*
X183096091Y-38332958D01*
X183233191Y-38584038D01*
X183233196Y-38584046D01*
X183339882Y-38726561D01*
X183339883Y-38726562D01*
X184234767Y-37831677D01*
X184246497Y-37859995D01*
X184329670Y-37984472D01*
X184435528Y-38090330D01*
X184560005Y-38173503D01*
X184588320Y-38185231D01*
X183693436Y-39080115D01*
X183835960Y-39186807D01*
X183835961Y-39186808D01*
X184087042Y-39323908D01*
X184087041Y-39323908D01*
X184355104Y-39423890D01*
X184634637Y-39484699D01*
X184919999Y-39505109D01*
X184920001Y-39505109D01*
X185205362Y-39484699D01*
X185484895Y-39423890D01*
X185752958Y-39323908D01*
X186004047Y-39186803D01*
X186146561Y-39080116D01*
X186146562Y-39080115D01*
X186116448Y-39050001D01*
X187749500Y-39050001D01*
X187749501Y-39050018D01*
X187760000Y-39152796D01*
X187760001Y-39152799D01*
X187771271Y-39186808D01*
X187815186Y-39319334D01*
X187907288Y-39468656D01*
X188031344Y-39592712D01*
X188180666Y-39684814D01*
X188347203Y-39739999D01*
X188449991Y-39750500D01*
X191550008Y-39750499D01*
X191652797Y-39739999D01*
X191819334Y-39684814D01*
X191968656Y-39592712D01*
X192092712Y-39468656D01*
X192184814Y-39319334D01*
X192239999Y-39152797D01*
X192250500Y-39050009D01*
X192250499Y-36121288D01*
X195149500Y-36121288D01*
X195181162Y-36361789D01*
X195212554Y-36478944D01*
X195243947Y-36596104D01*
X195303551Y-36740000D01*
X195336776Y-36820212D01*
X195458064Y-37030289D01*
X195458066Y-37030292D01*
X195458067Y-37030293D01*
X195605733Y-37222736D01*
X195605739Y-37222743D01*
X195777256Y-37394260D01*
X195777262Y-37394265D01*
X195969711Y-37541936D01*
X196179788Y-37663224D01*
X196403900Y-37756054D01*
X196638211Y-37818838D01*
X196818586Y-37842584D01*
X196878711Y-37850500D01*
X196878712Y-37850500D01*
X197121289Y-37850500D01*
X197169388Y-37844167D01*
X197361789Y-37818838D01*
X197596100Y-37756054D01*
X197820212Y-37663224D01*
X198030289Y-37541936D01*
X198222738Y-37394265D01*
X198394265Y-37222738D01*
X198541936Y-37030289D01*
X198663224Y-36820212D01*
X198756054Y-36596100D01*
X198818838Y-36361789D01*
X198850500Y-36121288D01*
X198850500Y-35878712D01*
X198846351Y-35847200D01*
X198818838Y-35638214D01*
X198818838Y-35638211D01*
X198756054Y-35403900D01*
X198663224Y-35179788D01*
X198541936Y-34969711D01*
X198394265Y-34777262D01*
X198394260Y-34777256D01*
X198222743Y-34605739D01*
X198222736Y-34605733D01*
X198030293Y-34458067D01*
X198030292Y-34458066D01*
X198030289Y-34458064D01*
X197820212Y-34336776D01*
X197820205Y-34336773D01*
X197596104Y-34243947D01*
X197361785Y-34181161D01*
X197121289Y-34149500D01*
X197121288Y-34149500D01*
X196878712Y-34149500D01*
X196878711Y-34149500D01*
X196638214Y-34181161D01*
X196403895Y-34243947D01*
X196179794Y-34336773D01*
X196179785Y-34336777D01*
X195969706Y-34458067D01*
X195777263Y-34605733D01*
X195777256Y-34605739D01*
X195605739Y-34777256D01*
X195605733Y-34777263D01*
X195458067Y-34969706D01*
X195336777Y-35179785D01*
X195336773Y-35179794D01*
X195243947Y-35403895D01*
X195181161Y-35638214D01*
X195153648Y-35847203D01*
X195149500Y-35878712D01*
X195149500Y-36121288D01*
X192250499Y-36121288D01*
X192250499Y-35949992D01*
X192248876Y-35934108D01*
X192239999Y-35847203D01*
X192239998Y-35847200D01*
X192228730Y-35813196D01*
X192184814Y-35680666D01*
X192092712Y-35531344D01*
X191968656Y-35407288D01*
X191819334Y-35315186D01*
X191652797Y-35260001D01*
X191652795Y-35260000D01*
X191550010Y-35249500D01*
X188449998Y-35249500D01*
X188449981Y-35249501D01*
X188347203Y-35260000D01*
X188347200Y-35260001D01*
X188180668Y-35315185D01*
X188180663Y-35315187D01*
X188031342Y-35407289D01*
X187907289Y-35531342D01*
X187815187Y-35680663D01*
X187815186Y-35680666D01*
X187760001Y-35847203D01*
X187760001Y-35847204D01*
X187760000Y-35847204D01*
X187749500Y-35949983D01*
X187749500Y-39050001D01*
X186116448Y-39050001D01*
X185251679Y-38185231D01*
X185279995Y-38173503D01*
X185404472Y-38090330D01*
X185510330Y-37984472D01*
X185593503Y-37859995D01*
X185605231Y-37831678D01*
X186500115Y-38726562D01*
X186500116Y-38726561D01*
X186606803Y-38584047D01*
X186743908Y-38332958D01*
X186843890Y-38064895D01*
X186904699Y-37785362D01*
X186925109Y-37500001D01*
X186925109Y-37499998D01*
X186904699Y-37214637D01*
X186843890Y-36935104D01*
X186743908Y-36667041D01*
X186606808Y-36415961D01*
X186606807Y-36415960D01*
X186500115Y-36273436D01*
X185605231Y-37168320D01*
X185593503Y-37140005D01*
X185510330Y-37015528D01*
X185404472Y-36909670D01*
X185279995Y-36826497D01*
X185251678Y-36814767D01*
X186146562Y-35919883D01*
X186146561Y-35919882D01*
X186004046Y-35813196D01*
X186004038Y-35813191D01*
X185752957Y-35676091D01*
X185752958Y-35676091D01*
X185484895Y-35576109D01*
X185205362Y-35515300D01*
X184920001Y-35494891D01*
X184919999Y-35494891D01*
X184634637Y-35515300D01*
X184355104Y-35576109D01*
X184087041Y-35676091D01*
X183835961Y-35813191D01*
X183835953Y-35813196D01*
X183693437Y-35919882D01*
X183693436Y-35919883D01*
X184588321Y-36814767D01*
X184560005Y-36826497D01*
X184435528Y-36909670D01*
X184329670Y-37015528D01*
X184246497Y-37140005D01*
X184234768Y-37168321D01*
X183339883Y-36273436D01*
X183339882Y-36273437D01*
X183233196Y-36415953D01*
X183233191Y-36415961D01*
X183096091Y-36667041D01*
X182996109Y-36935104D01*
X182935300Y-37214637D01*
X182914891Y-37499998D01*
X182914891Y-37500001D01*
X179750500Y-37500001D01*
X179750499Y-35949992D01*
X179748876Y-35934108D01*
X179739999Y-35847203D01*
X179739998Y-35847200D01*
X179728730Y-35813196D01*
X179684814Y-35680666D01*
X179592712Y-35531344D01*
X179468656Y-35407288D01*
X179319334Y-35315186D01*
X179152797Y-35260001D01*
X179152795Y-35260000D01*
X179050010Y-35249500D01*
X175949998Y-35249500D01*
X175949981Y-35249501D01*
X175847203Y-35260000D01*
X175847200Y-35260001D01*
X175680668Y-35315185D01*
X175680663Y-35315187D01*
X175531342Y-35407289D01*
X175407289Y-35531342D01*
X175315187Y-35680663D01*
X175315186Y-35680666D01*
X175260001Y-35847203D01*
X175260001Y-35847204D01*
X175260000Y-35847204D01*
X175249500Y-35949983D01*
X175249500Y-39050001D01*
X173616448Y-39050001D01*
X172751679Y-38185231D01*
X172779995Y-38173503D01*
X172904472Y-38090330D01*
X173010330Y-37984472D01*
X173093503Y-37859995D01*
X173105231Y-37831678D01*
X174000115Y-38726562D01*
X174000116Y-38726561D01*
X174106803Y-38584047D01*
X174243908Y-38332958D01*
X174343890Y-38064895D01*
X174404699Y-37785362D01*
X174425109Y-37500001D01*
X174425109Y-37499998D01*
X174404699Y-37214637D01*
X174343890Y-36935104D01*
X174243908Y-36667041D01*
X174106808Y-36415961D01*
X174106807Y-36415960D01*
X174000115Y-36273436D01*
X173105231Y-37168320D01*
X173093503Y-37140005D01*
X173010330Y-37015528D01*
X172904472Y-36909670D01*
X172779995Y-36826497D01*
X172751678Y-36814767D01*
X173646562Y-35919883D01*
X173646561Y-35919882D01*
X173504046Y-35813196D01*
X173504038Y-35813191D01*
X173252957Y-35676091D01*
X173252958Y-35676091D01*
X172984895Y-35576109D01*
X172705362Y-35515300D01*
X172420001Y-35494891D01*
X172419999Y-35494891D01*
X172134637Y-35515300D01*
X171855104Y-35576109D01*
X171587041Y-35676091D01*
X171335961Y-35813191D01*
X171335953Y-35813196D01*
X171193437Y-35919882D01*
X171193436Y-35919883D01*
X172088321Y-36814767D01*
X172060005Y-36826497D01*
X171935528Y-36909670D01*
X171829670Y-37015528D01*
X171746497Y-37140005D01*
X171734768Y-37168321D01*
X170839883Y-36273436D01*
X170839882Y-36273437D01*
X170733196Y-36415953D01*
X170733191Y-36415961D01*
X170596091Y-36667041D01*
X170496109Y-36935104D01*
X170435300Y-37214637D01*
X170414891Y-37499998D01*
X170414891Y-37500001D01*
X167250500Y-37500001D01*
X167250499Y-35949992D01*
X167248876Y-35934108D01*
X167239999Y-35847203D01*
X167239998Y-35847200D01*
X167228730Y-35813196D01*
X167184814Y-35680666D01*
X167092712Y-35531344D01*
X166968656Y-35407288D01*
X166819334Y-35315186D01*
X166652797Y-35260001D01*
X166652795Y-35260000D01*
X166550010Y-35249500D01*
X163449998Y-35249500D01*
X163449981Y-35249501D01*
X163347203Y-35260000D01*
X163347200Y-35260001D01*
X163180668Y-35315185D01*
X163180663Y-35315187D01*
X163031342Y-35407289D01*
X162907289Y-35531342D01*
X162815187Y-35680663D01*
X162815186Y-35680666D01*
X162760001Y-35847203D01*
X162760001Y-35847204D01*
X162760000Y-35847204D01*
X162749500Y-35949983D01*
X162749500Y-39050001D01*
X161116448Y-39050001D01*
X160251679Y-38185231D01*
X160279995Y-38173503D01*
X160404472Y-38090330D01*
X160510330Y-37984472D01*
X160593503Y-37859995D01*
X160605231Y-37831678D01*
X161500115Y-38726562D01*
X161500116Y-38726561D01*
X161606803Y-38584047D01*
X161743908Y-38332958D01*
X161843890Y-38064895D01*
X161904699Y-37785362D01*
X161925109Y-37500001D01*
X161925109Y-37499998D01*
X161904699Y-37214637D01*
X161843890Y-36935104D01*
X161743908Y-36667041D01*
X161606808Y-36415961D01*
X161606807Y-36415960D01*
X161500115Y-36273436D01*
X160605231Y-37168320D01*
X160593503Y-37140005D01*
X160510330Y-37015528D01*
X160404472Y-36909670D01*
X160279995Y-36826497D01*
X160251678Y-36814767D01*
X161146562Y-35919883D01*
X161146561Y-35919882D01*
X161004046Y-35813196D01*
X161004038Y-35813191D01*
X160752957Y-35676091D01*
X160752958Y-35676091D01*
X160484895Y-35576109D01*
X160205362Y-35515300D01*
X159920001Y-35494891D01*
X159919999Y-35494891D01*
X159634637Y-35515300D01*
X159355104Y-35576109D01*
X159087041Y-35676091D01*
X158835961Y-35813191D01*
X158835953Y-35813196D01*
X158693437Y-35919882D01*
X158693436Y-35919883D01*
X159588321Y-36814767D01*
X159560005Y-36826497D01*
X159435528Y-36909670D01*
X159329670Y-37015528D01*
X159246497Y-37140005D01*
X159234768Y-37168321D01*
X158339883Y-36273436D01*
X158339882Y-36273437D01*
X158233196Y-36415953D01*
X158233191Y-36415961D01*
X158096091Y-36667041D01*
X157996109Y-36935104D01*
X157935300Y-37214637D01*
X157914891Y-37499998D01*
X157914891Y-37500001D01*
X154750500Y-37500001D01*
X154750499Y-35949992D01*
X154748876Y-35934108D01*
X154739999Y-35847203D01*
X154739998Y-35847200D01*
X154728730Y-35813196D01*
X154684814Y-35680666D01*
X154592712Y-35531344D01*
X154468656Y-35407288D01*
X154319334Y-35315186D01*
X154152797Y-35260001D01*
X154152795Y-35260000D01*
X154050010Y-35249500D01*
X150949998Y-35249500D01*
X150949981Y-35249501D01*
X150847203Y-35260000D01*
X150847200Y-35260001D01*
X150680668Y-35315185D01*
X150680663Y-35315187D01*
X150531342Y-35407289D01*
X150407289Y-35531342D01*
X150315187Y-35680663D01*
X150315186Y-35680666D01*
X150260001Y-35847203D01*
X150260001Y-35847204D01*
X150260000Y-35847204D01*
X150249500Y-35949983D01*
X150249500Y-39050001D01*
X148616448Y-39050001D01*
X147751679Y-38185231D01*
X147779995Y-38173503D01*
X147904472Y-38090330D01*
X148010330Y-37984472D01*
X148093503Y-37859995D01*
X148105231Y-37831678D01*
X149000115Y-38726562D01*
X149000116Y-38726561D01*
X149106803Y-38584047D01*
X149243908Y-38332958D01*
X149343890Y-38064895D01*
X149404699Y-37785362D01*
X149425109Y-37500001D01*
X149425109Y-37499998D01*
X149404699Y-37214637D01*
X149343890Y-36935104D01*
X149243908Y-36667041D01*
X149106808Y-36415961D01*
X149106807Y-36415960D01*
X149000115Y-36273436D01*
X148105231Y-37168320D01*
X148093503Y-37140005D01*
X148010330Y-37015528D01*
X147904472Y-36909670D01*
X147779995Y-36826497D01*
X147751678Y-36814767D01*
X148646562Y-35919883D01*
X148646561Y-35919882D01*
X148504046Y-35813196D01*
X148504038Y-35813191D01*
X148252957Y-35676091D01*
X148252958Y-35676091D01*
X147984895Y-35576109D01*
X147705362Y-35515300D01*
X147420001Y-35494891D01*
X147419999Y-35494891D01*
X147134637Y-35515300D01*
X146855104Y-35576109D01*
X146587041Y-35676091D01*
X146335961Y-35813191D01*
X146335953Y-35813196D01*
X146193437Y-35919882D01*
X146193436Y-35919883D01*
X147088321Y-36814767D01*
X147060005Y-36826497D01*
X146935528Y-36909670D01*
X146829670Y-37015528D01*
X146746497Y-37140005D01*
X146734768Y-37168321D01*
X145839883Y-36273436D01*
X145839882Y-36273437D01*
X145733196Y-36415953D01*
X145733191Y-36415961D01*
X145596091Y-36667041D01*
X145496109Y-36935104D01*
X145435300Y-37214637D01*
X145414891Y-37499998D01*
X145414891Y-37500001D01*
X142250500Y-37500001D01*
X142250499Y-35949992D01*
X142248876Y-35934108D01*
X142239999Y-35847203D01*
X142239998Y-35847200D01*
X142228730Y-35813196D01*
X142184814Y-35680666D01*
X142092712Y-35531344D01*
X141968656Y-35407288D01*
X141819334Y-35315186D01*
X141652797Y-35260001D01*
X141652795Y-35260000D01*
X141550010Y-35249500D01*
X138449998Y-35249500D01*
X138449981Y-35249501D01*
X138347203Y-35260000D01*
X138347200Y-35260001D01*
X138180668Y-35315185D01*
X138180663Y-35315187D01*
X138031342Y-35407289D01*
X137907289Y-35531342D01*
X137815187Y-35680663D01*
X137815186Y-35680666D01*
X137760001Y-35847203D01*
X137760001Y-35847204D01*
X137760000Y-35847204D01*
X137749500Y-35949983D01*
X137749500Y-39050001D01*
X136116448Y-39050001D01*
X135251679Y-38185231D01*
X135279995Y-38173503D01*
X135404472Y-38090330D01*
X135510330Y-37984472D01*
X135593503Y-37859995D01*
X135605231Y-37831678D01*
X136500115Y-38726562D01*
X136500116Y-38726561D01*
X136606803Y-38584047D01*
X136743908Y-38332958D01*
X136843890Y-38064895D01*
X136904699Y-37785362D01*
X136925109Y-37500001D01*
X136925109Y-37499998D01*
X136904699Y-37214637D01*
X136843890Y-36935104D01*
X136743908Y-36667041D01*
X136606808Y-36415961D01*
X136606807Y-36415960D01*
X136500115Y-36273436D01*
X135605231Y-37168320D01*
X135593503Y-37140005D01*
X135510330Y-37015528D01*
X135404472Y-36909670D01*
X135279995Y-36826497D01*
X135251678Y-36814767D01*
X136146562Y-35919883D01*
X136146561Y-35919882D01*
X136004046Y-35813196D01*
X136004038Y-35813191D01*
X135752957Y-35676091D01*
X135752958Y-35676091D01*
X135484895Y-35576109D01*
X135205362Y-35515300D01*
X134920001Y-35494891D01*
X134919999Y-35494891D01*
X134634637Y-35515300D01*
X134355104Y-35576109D01*
X134087041Y-35676091D01*
X133835961Y-35813191D01*
X133835953Y-35813196D01*
X133693437Y-35919882D01*
X133693436Y-35919883D01*
X134588321Y-36814767D01*
X134560005Y-36826497D01*
X134435528Y-36909670D01*
X134329670Y-37015528D01*
X134246497Y-37140005D01*
X134234768Y-37168321D01*
X133339883Y-36273436D01*
X133339882Y-36273437D01*
X133233196Y-36415953D01*
X133233191Y-36415961D01*
X133096091Y-36667041D01*
X132996109Y-36935104D01*
X132935300Y-37214637D01*
X132914891Y-37499998D01*
X132914891Y-37500001D01*
X128084940Y-37500001D01*
X128222738Y-37394265D01*
X128394265Y-37222738D01*
X128541936Y-37030289D01*
X128663224Y-36820212D01*
X128756054Y-36596100D01*
X128818838Y-36361789D01*
X128850500Y-36121288D01*
X128850500Y-35878712D01*
X128846351Y-35847200D01*
X128818838Y-35638214D01*
X128818838Y-35638211D01*
X128756054Y-35403900D01*
X128663224Y-35179788D01*
X128541936Y-34969711D01*
X128394265Y-34777262D01*
X128394260Y-34777256D01*
X128222743Y-34605739D01*
X128222736Y-34605733D01*
X128030293Y-34458067D01*
X128030292Y-34458066D01*
X128030289Y-34458064D01*
X127820212Y-34336776D01*
X127820205Y-34336773D01*
X127596104Y-34243947D01*
X127361785Y-34181161D01*
X127121289Y-34149500D01*
X127121288Y-34149500D01*
X126878712Y-34149500D01*
X126878711Y-34149500D01*
X126638214Y-34181161D01*
X126403895Y-34243947D01*
X126179794Y-34336773D01*
X126179785Y-34336777D01*
X125969706Y-34458067D01*
X125777263Y-34605733D01*
X125777256Y-34605739D01*
X125605739Y-34777256D01*
X125605733Y-34777263D01*
X125458067Y-34969706D01*
X125336777Y-35179785D01*
X125336773Y-35179794D01*
X125243947Y-35403895D01*
X125181161Y-35638214D01*
X125153648Y-35847203D01*
X125149500Y-35878712D01*
X125149500Y-36121288D01*
X121500500Y-36121288D01*
X121500500Y-36002561D01*
X121500606Y-35997437D01*
X121503814Y-35919882D01*
X121519072Y-35550961D01*
X121519915Y-35540792D01*
X121574874Y-35099881D01*
X121576554Y-35089809D01*
X121667734Y-34654951D01*
X121670241Y-34645055D01*
X121797022Y-34219205D01*
X121800336Y-34209553D01*
X121961840Y-33795654D01*
X121965954Y-33786275D01*
X122161088Y-33387120D01*
X122165949Y-33378136D01*
X122393389Y-32996445D01*
X122398982Y-32987885D01*
X122657153Y-32626294D01*
X122663422Y-32618240D01*
X122950581Y-32279191D01*
X122957500Y-32271675D01*
X123271675Y-31957500D01*
X123279191Y-31950581D01*
X123618240Y-31663422D01*
X123626294Y-31657153D01*
X123987885Y-31398982D01*
X123996445Y-31393389D01*
X124378136Y-31165949D01*
X124387120Y-31161088D01*
X124786280Y-30965951D01*
X124795654Y-30961840D01*
X125209553Y-30800336D01*
X125219205Y-30797022D01*
X125645055Y-30670241D01*
X125654951Y-30667734D01*
X126089809Y-30576554D01*
X126099881Y-30574874D01*
X126540792Y-30519915D01*
X126550961Y-30519072D01*
X126997437Y-30500605D01*
X127002561Y-30500500D01*
X127065892Y-30500500D01*
X196934108Y-30500500D01*
X196997439Y-30500500D01*
X197002562Y-30500605D01*
G37*
%TD.AperFunction*%
%TD*%
M02*
