%TF.GenerationSoftware,KiCad,Pcbnew,8.0.1*%
%TF.CreationDate,2024-04-17T01:34:18+02:00*%
%TF.ProjectId,PowerDistributionBoard,506f7765-7244-4697-9374-726962757469,rev?*%
%TF.SameCoordinates,Original*%
%TF.FileFunction,Legend,Top*%
%TF.FilePolarity,Positive*%
%FSLAX46Y46*%
G04 Gerber Fmt 4.6, Leading zero omitted, Abs format (unit mm)*
G04 Created by KiCad (PCBNEW 8.0.1) date 2024-04-17 01:34:18*
%MOMM*%
%LPD*%
G01*
G04 APERTURE LIST*
%ADD10C,0.150000*%
%ADD11C,0.120000*%
G04 APERTURE END LIST*
D10*
X152136666Y-44804819D02*
X152136666Y-45519104D01*
X152136666Y-45519104D02*
X152089047Y-45661961D01*
X152089047Y-45661961D02*
X151993809Y-45757200D01*
X151993809Y-45757200D02*
X151850952Y-45804819D01*
X151850952Y-45804819D02*
X151755714Y-45804819D01*
X152517619Y-44804819D02*
X153184285Y-44804819D01*
X153184285Y-44804819D02*
X152755714Y-45804819D01*
X137126666Y-44374819D02*
X137126666Y-45089104D01*
X137126666Y-45089104D02*
X137079047Y-45231961D01*
X137079047Y-45231961D02*
X136983809Y-45327200D01*
X136983809Y-45327200D02*
X136840952Y-45374819D01*
X136840952Y-45374819D02*
X136745714Y-45374819D01*
X138031428Y-44374819D02*
X137840952Y-44374819D01*
X137840952Y-44374819D02*
X137745714Y-44422438D01*
X137745714Y-44422438D02*
X137698095Y-44470057D01*
X137698095Y-44470057D02*
X137602857Y-44612914D01*
X137602857Y-44612914D02*
X137555238Y-44803390D01*
X137555238Y-44803390D02*
X137555238Y-45184342D01*
X137555238Y-45184342D02*
X137602857Y-45279580D01*
X137602857Y-45279580D02*
X137650476Y-45327200D01*
X137650476Y-45327200D02*
X137745714Y-45374819D01*
X137745714Y-45374819D02*
X137936190Y-45374819D01*
X137936190Y-45374819D02*
X138031428Y-45327200D01*
X138031428Y-45327200D02*
X138079047Y-45279580D01*
X138079047Y-45279580D02*
X138126666Y-45184342D01*
X138126666Y-45184342D02*
X138126666Y-44946247D01*
X138126666Y-44946247D02*
X138079047Y-44851009D01*
X138079047Y-44851009D02*
X138031428Y-44803390D01*
X138031428Y-44803390D02*
X137936190Y-44755771D01*
X137936190Y-44755771D02*
X137745714Y-44755771D01*
X137745714Y-44755771D02*
X137650476Y-44803390D01*
X137650476Y-44803390D02*
X137602857Y-44851009D01*
X137602857Y-44851009D02*
X137555238Y-44946247D01*
X149626666Y-42034819D02*
X149626666Y-42749104D01*
X149626666Y-42749104D02*
X149579047Y-42891961D01*
X149579047Y-42891961D02*
X149483809Y-42987200D01*
X149483809Y-42987200D02*
X149340952Y-43034819D01*
X149340952Y-43034819D02*
X149245714Y-43034819D01*
X150055238Y-42130057D02*
X150102857Y-42082438D01*
X150102857Y-42082438D02*
X150198095Y-42034819D01*
X150198095Y-42034819D02*
X150436190Y-42034819D01*
X150436190Y-42034819D02*
X150531428Y-42082438D01*
X150531428Y-42082438D02*
X150579047Y-42130057D01*
X150579047Y-42130057D02*
X150626666Y-42225295D01*
X150626666Y-42225295D02*
X150626666Y-42320533D01*
X150626666Y-42320533D02*
X150579047Y-42463390D01*
X150579047Y-42463390D02*
X150007619Y-43034819D01*
X150007619Y-43034819D02*
X150626666Y-43034819D01*
X137126666Y-42034819D02*
X137126666Y-42749104D01*
X137126666Y-42749104D02*
X137079047Y-42891961D01*
X137079047Y-42891961D02*
X136983809Y-42987200D01*
X136983809Y-42987200D02*
X136840952Y-43034819D01*
X136840952Y-43034819D02*
X136745714Y-43034819D01*
X138126666Y-43034819D02*
X137555238Y-43034819D01*
X137840952Y-43034819D02*
X137840952Y-42034819D01*
X137840952Y-42034819D02*
X137745714Y-42177676D01*
X137745714Y-42177676D02*
X137650476Y-42272914D01*
X137650476Y-42272914D02*
X137555238Y-42320533D01*
X162126666Y-42034819D02*
X162126666Y-42749104D01*
X162126666Y-42749104D02*
X162079047Y-42891961D01*
X162079047Y-42891961D02*
X161983809Y-42987200D01*
X161983809Y-42987200D02*
X161840952Y-43034819D01*
X161840952Y-43034819D02*
X161745714Y-43034819D01*
X162507619Y-42034819D02*
X163126666Y-42034819D01*
X163126666Y-42034819D02*
X162793333Y-42415771D01*
X162793333Y-42415771D02*
X162936190Y-42415771D01*
X162936190Y-42415771D02*
X163031428Y-42463390D01*
X163031428Y-42463390D02*
X163079047Y-42511009D01*
X163079047Y-42511009D02*
X163126666Y-42606247D01*
X163126666Y-42606247D02*
X163126666Y-42844342D01*
X163126666Y-42844342D02*
X163079047Y-42939580D01*
X163079047Y-42939580D02*
X163031428Y-42987200D01*
X163031428Y-42987200D02*
X162936190Y-43034819D01*
X162936190Y-43034819D02*
X162650476Y-43034819D01*
X162650476Y-43034819D02*
X162555238Y-42987200D01*
X162555238Y-42987200D02*
X162507619Y-42939580D01*
X174626666Y-42034819D02*
X174626666Y-42749104D01*
X174626666Y-42749104D02*
X174579047Y-42891961D01*
X174579047Y-42891961D02*
X174483809Y-42987200D01*
X174483809Y-42987200D02*
X174340952Y-43034819D01*
X174340952Y-43034819D02*
X174245714Y-43034819D01*
X175531428Y-42368152D02*
X175531428Y-43034819D01*
X175293333Y-41987200D02*
X175055238Y-42701485D01*
X175055238Y-42701485D02*
X175674285Y-42701485D01*
X125666666Y-47254819D02*
X125333333Y-46778628D01*
X125095238Y-47254819D02*
X125095238Y-46254819D01*
X125095238Y-46254819D02*
X125476190Y-46254819D01*
X125476190Y-46254819D02*
X125571428Y-46302438D01*
X125571428Y-46302438D02*
X125619047Y-46350057D01*
X125619047Y-46350057D02*
X125666666Y-46445295D01*
X125666666Y-46445295D02*
X125666666Y-46588152D01*
X125666666Y-46588152D02*
X125619047Y-46683390D01*
X125619047Y-46683390D02*
X125571428Y-46731009D01*
X125571428Y-46731009D02*
X125476190Y-46778628D01*
X125476190Y-46778628D02*
X125095238Y-46778628D01*
X126095238Y-46731009D02*
X126428571Y-46731009D01*
X126571428Y-47254819D02*
X126095238Y-47254819D01*
X126095238Y-47254819D02*
X126095238Y-46254819D01*
X126095238Y-46254819D02*
X126571428Y-46254819D01*
X127333333Y-46731009D02*
X127000000Y-46731009D01*
X127000000Y-47254819D02*
X127000000Y-46254819D01*
X127000000Y-46254819D02*
X127476190Y-46254819D01*
X128000000Y-46254819D02*
X128000000Y-46492914D01*
X127761905Y-46397676D02*
X128000000Y-46492914D01*
X128000000Y-46492914D02*
X128238095Y-46397676D01*
X127857143Y-46683390D02*
X128000000Y-46492914D01*
X128000000Y-46492914D02*
X128142857Y-46683390D01*
X128761905Y-46254819D02*
X128761905Y-46492914D01*
X128523810Y-46397676D02*
X128761905Y-46492914D01*
X128761905Y-46492914D02*
X129000000Y-46397676D01*
X128619048Y-46683390D02*
X128761905Y-46492914D01*
X128761905Y-46492914D02*
X128904762Y-46683390D01*
X195666666Y-47254819D02*
X195333333Y-46778628D01*
X195095238Y-47254819D02*
X195095238Y-46254819D01*
X195095238Y-46254819D02*
X195476190Y-46254819D01*
X195476190Y-46254819D02*
X195571428Y-46302438D01*
X195571428Y-46302438D02*
X195619047Y-46350057D01*
X195619047Y-46350057D02*
X195666666Y-46445295D01*
X195666666Y-46445295D02*
X195666666Y-46588152D01*
X195666666Y-46588152D02*
X195619047Y-46683390D01*
X195619047Y-46683390D02*
X195571428Y-46731009D01*
X195571428Y-46731009D02*
X195476190Y-46778628D01*
X195476190Y-46778628D02*
X195095238Y-46778628D01*
X196095238Y-46731009D02*
X196428571Y-46731009D01*
X196571428Y-47254819D02*
X196095238Y-47254819D01*
X196095238Y-47254819D02*
X196095238Y-46254819D01*
X196095238Y-46254819D02*
X196571428Y-46254819D01*
X197333333Y-46731009D02*
X197000000Y-46731009D01*
X197000000Y-47254819D02*
X197000000Y-46254819D01*
X197000000Y-46254819D02*
X197476190Y-46254819D01*
X198000000Y-46254819D02*
X198000000Y-46492914D01*
X197761905Y-46397676D02*
X198000000Y-46492914D01*
X198000000Y-46492914D02*
X198238095Y-46397676D01*
X197857143Y-46683390D02*
X198000000Y-46492914D01*
X198000000Y-46492914D02*
X198142857Y-46683390D01*
X198761905Y-46254819D02*
X198761905Y-46492914D01*
X198523810Y-46397676D02*
X198761905Y-46492914D01*
X198761905Y-46492914D02*
X199000000Y-46397676D01*
X198619048Y-46683390D02*
X198761905Y-46492914D01*
X198761905Y-46492914D02*
X198904762Y-46683390D01*
X187126666Y-42034819D02*
X187126666Y-42749104D01*
X187126666Y-42749104D02*
X187079047Y-42891961D01*
X187079047Y-42891961D02*
X186983809Y-42987200D01*
X186983809Y-42987200D02*
X186840952Y-43034819D01*
X186840952Y-43034819D02*
X186745714Y-43034819D01*
X188079047Y-42034819D02*
X187602857Y-42034819D01*
X187602857Y-42034819D02*
X187555238Y-42511009D01*
X187555238Y-42511009D02*
X187602857Y-42463390D01*
X187602857Y-42463390D02*
X187698095Y-42415771D01*
X187698095Y-42415771D02*
X187936190Y-42415771D01*
X187936190Y-42415771D02*
X188031428Y-42463390D01*
X188031428Y-42463390D02*
X188079047Y-42511009D01*
X188079047Y-42511009D02*
X188126666Y-42606247D01*
X188126666Y-42606247D02*
X188126666Y-42844342D01*
X188126666Y-42844342D02*
X188079047Y-42939580D01*
X188079047Y-42939580D02*
X188031428Y-42987200D01*
X188031428Y-42987200D02*
X187936190Y-43034819D01*
X187936190Y-43034819D02*
X187698095Y-43034819D01*
X187698095Y-43034819D02*
X187602857Y-42987200D01*
X187602857Y-42987200D02*
X187555238Y-42939580D01*
X195666666Y-32254819D02*
X195333333Y-31778628D01*
X195095238Y-32254819D02*
X195095238Y-31254819D01*
X195095238Y-31254819D02*
X195476190Y-31254819D01*
X195476190Y-31254819D02*
X195571428Y-31302438D01*
X195571428Y-31302438D02*
X195619047Y-31350057D01*
X195619047Y-31350057D02*
X195666666Y-31445295D01*
X195666666Y-31445295D02*
X195666666Y-31588152D01*
X195666666Y-31588152D02*
X195619047Y-31683390D01*
X195619047Y-31683390D02*
X195571428Y-31731009D01*
X195571428Y-31731009D02*
X195476190Y-31778628D01*
X195476190Y-31778628D02*
X195095238Y-31778628D01*
X196095238Y-31731009D02*
X196428571Y-31731009D01*
X196571428Y-32254819D02*
X196095238Y-32254819D01*
X196095238Y-32254819D02*
X196095238Y-31254819D01*
X196095238Y-31254819D02*
X196571428Y-31254819D01*
X197333333Y-31731009D02*
X197000000Y-31731009D01*
X197000000Y-32254819D02*
X197000000Y-31254819D01*
X197000000Y-31254819D02*
X197476190Y-31254819D01*
X198000000Y-31254819D02*
X198000000Y-31492914D01*
X197761905Y-31397676D02*
X198000000Y-31492914D01*
X198000000Y-31492914D02*
X198238095Y-31397676D01*
X197857143Y-31683390D02*
X198000000Y-31492914D01*
X198000000Y-31492914D02*
X198142857Y-31683390D01*
X198761905Y-31254819D02*
X198761905Y-31492914D01*
X198523810Y-31397676D02*
X198761905Y-31492914D01*
X198761905Y-31492914D02*
X199000000Y-31397676D01*
X198619048Y-31683390D02*
X198761905Y-31492914D01*
X198761905Y-31492914D02*
X198904762Y-31683390D01*
X125666666Y-32254819D02*
X125333333Y-31778628D01*
X125095238Y-32254819D02*
X125095238Y-31254819D01*
X125095238Y-31254819D02*
X125476190Y-31254819D01*
X125476190Y-31254819D02*
X125571428Y-31302438D01*
X125571428Y-31302438D02*
X125619047Y-31350057D01*
X125619047Y-31350057D02*
X125666666Y-31445295D01*
X125666666Y-31445295D02*
X125666666Y-31588152D01*
X125666666Y-31588152D02*
X125619047Y-31683390D01*
X125619047Y-31683390D02*
X125571428Y-31731009D01*
X125571428Y-31731009D02*
X125476190Y-31778628D01*
X125476190Y-31778628D02*
X125095238Y-31778628D01*
X126095238Y-31731009D02*
X126428571Y-31731009D01*
X126571428Y-32254819D02*
X126095238Y-32254819D01*
X126095238Y-32254819D02*
X126095238Y-31254819D01*
X126095238Y-31254819D02*
X126571428Y-31254819D01*
X127333333Y-31731009D02*
X127000000Y-31731009D01*
X127000000Y-32254819D02*
X127000000Y-31254819D01*
X127000000Y-31254819D02*
X127476190Y-31254819D01*
X128000000Y-31254819D02*
X128000000Y-31492914D01*
X127761905Y-31397676D02*
X128000000Y-31492914D01*
X128000000Y-31492914D02*
X128238095Y-31397676D01*
X127857143Y-31683390D02*
X128000000Y-31492914D01*
X128000000Y-31492914D02*
X128142857Y-31683390D01*
X128761905Y-31254819D02*
X128761905Y-31492914D01*
X128523810Y-31397676D02*
X128761905Y-31492914D01*
X128761905Y-31492914D02*
X129000000Y-31397676D01*
X128619048Y-31683390D02*
X128761905Y-31492914D01*
X128761905Y-31492914D02*
X128904762Y-31683390D01*
D11*
%TO.C,J7*%
X144880000Y-46190000D02*
X160120000Y-46190000D01*
X144880000Y-52540000D02*
X160120000Y-52540000D01*
X144880000Y-53810000D02*
X144880000Y-46190000D01*
X144880000Y-53810000D02*
X160120000Y-53810000D01*
X160120000Y-53810000D02*
X160120000Y-46190000D01*
%TO.C,J6*%
X132380000Y-46190000D02*
X132380000Y-53810000D01*
X132380000Y-53810000D02*
X142540000Y-53810000D01*
X142540000Y-46190000D02*
X132380000Y-46190000D01*
X142540000Y-52540000D02*
X132380000Y-52540000D01*
X142540000Y-53810000D02*
X142540000Y-46190000D01*
%TO.C,J2*%
X144880000Y-33690000D02*
X144880000Y-41310000D01*
X144880000Y-34960000D02*
X155040000Y-34960000D01*
X144880000Y-41310000D02*
X155040000Y-41310000D01*
X155040000Y-33690000D02*
X144880000Y-33690000D01*
X155040000Y-41310000D02*
X155040000Y-33690000D01*
%TO.C,J1*%
X132380000Y-33690000D02*
X132380000Y-41310000D01*
X132380000Y-34960000D02*
X142540000Y-34960000D01*
X132380000Y-41310000D02*
X142540000Y-41310000D01*
X142540000Y-33690000D02*
X132380000Y-33690000D01*
X142540000Y-41310000D02*
X142540000Y-33690000D01*
%TO.C,J3*%
X157380000Y-33690000D02*
X157380000Y-41310000D01*
X157380000Y-34960000D02*
X167540000Y-34960000D01*
X157380000Y-41310000D02*
X167540000Y-41310000D01*
X167540000Y-33690000D02*
X157380000Y-33690000D01*
X167540000Y-41310000D02*
X167540000Y-33690000D01*
%TO.C,J4*%
X169880000Y-33690000D02*
X169880000Y-41310000D01*
X169880000Y-34960000D02*
X180040000Y-34960000D01*
X169880000Y-41310000D02*
X180040000Y-41310000D01*
X180040000Y-33690000D02*
X169880000Y-33690000D01*
X180040000Y-41310000D02*
X180040000Y-33690000D01*
%TO.C,J5*%
X182380000Y-33690000D02*
X182380000Y-41310000D01*
X182380000Y-34960000D02*
X192540000Y-34960000D01*
X182380000Y-41310000D02*
X192540000Y-41310000D01*
X192540000Y-33690000D02*
X182380000Y-33690000D01*
X192540000Y-41310000D02*
X192540000Y-33690000D01*
%TD*%
M02*
