%TF.GenerationSoftware,KiCad,Pcbnew,8.0.1*%
%TF.CreationDate,2024-04-19T10:07:40+02:00*%
%TF.ProjectId,PowerDistributionBoard,506f7765-7244-4697-9374-726962757469,rev?*%
%TF.SameCoordinates,Original*%
%TF.FileFunction,Legend,Top*%
%TF.FilePolarity,Positive*%
%FSLAX46Y46*%
G04 Gerber Fmt 4.6, Leading zero omitted, Abs format (unit mm)*
G04 Created by KiCad (PCBNEW 8.0.1) date 2024-04-19 10:07:40*
%MOMM*%
%LPD*%
G01*
G04 APERTURE LIST*
%ADD10C,0.150000*%
%ADD11C,0.120000*%
G04 APERTURE END LIST*
D10*
X162896779Y-47617987D02*
X162896779Y-46617987D01*
X162896779Y-46617987D02*
X163277731Y-46617987D01*
X163277731Y-46617987D02*
X163372969Y-46665606D01*
X163372969Y-46665606D02*
X163420588Y-46713225D01*
X163420588Y-46713225D02*
X163468207Y-46808463D01*
X163468207Y-46808463D02*
X163468207Y-46951320D01*
X163468207Y-46951320D02*
X163420588Y-47046558D01*
X163420588Y-47046558D02*
X163372969Y-47094177D01*
X163372969Y-47094177D02*
X163277731Y-47141796D01*
X163277731Y-47141796D02*
X162896779Y-47141796D01*
X164039636Y-47617987D02*
X163944398Y-47570368D01*
X163944398Y-47570368D02*
X163896779Y-47522748D01*
X163896779Y-47522748D02*
X163849160Y-47427510D01*
X163849160Y-47427510D02*
X163849160Y-47141796D01*
X163849160Y-47141796D02*
X163896779Y-47046558D01*
X163896779Y-47046558D02*
X163944398Y-46998939D01*
X163944398Y-46998939D02*
X164039636Y-46951320D01*
X164039636Y-46951320D02*
X164182493Y-46951320D01*
X164182493Y-46951320D02*
X164277731Y-46998939D01*
X164277731Y-46998939D02*
X164325350Y-47046558D01*
X164325350Y-47046558D02*
X164372969Y-47141796D01*
X164372969Y-47141796D02*
X164372969Y-47427510D01*
X164372969Y-47427510D02*
X164325350Y-47522748D01*
X164325350Y-47522748D02*
X164277731Y-47570368D01*
X164277731Y-47570368D02*
X164182493Y-47617987D01*
X164182493Y-47617987D02*
X164039636Y-47617987D01*
X164706303Y-46951320D02*
X164896779Y-47617987D01*
X164896779Y-47617987D02*
X165087255Y-47141796D01*
X165087255Y-47141796D02*
X165277731Y-47617987D01*
X165277731Y-47617987D02*
X165468207Y-46951320D01*
X166230112Y-47570368D02*
X166134874Y-47617987D01*
X166134874Y-47617987D02*
X165944398Y-47617987D01*
X165944398Y-47617987D02*
X165849160Y-47570368D01*
X165849160Y-47570368D02*
X165801541Y-47475129D01*
X165801541Y-47475129D02*
X165801541Y-47094177D01*
X165801541Y-47094177D02*
X165849160Y-46998939D01*
X165849160Y-46998939D02*
X165944398Y-46951320D01*
X165944398Y-46951320D02*
X166134874Y-46951320D01*
X166134874Y-46951320D02*
X166230112Y-46998939D01*
X166230112Y-46998939D02*
X166277731Y-47094177D01*
X166277731Y-47094177D02*
X166277731Y-47189415D01*
X166277731Y-47189415D02*
X165801541Y-47284653D01*
X166706303Y-47617987D02*
X166706303Y-46951320D01*
X166706303Y-47141796D02*
X166753922Y-47046558D01*
X166753922Y-47046558D02*
X166801541Y-46998939D01*
X166801541Y-46998939D02*
X166896779Y-46951320D01*
X166896779Y-46951320D02*
X166992017Y-46951320D01*
X168087256Y-47617987D02*
X168087256Y-46617987D01*
X168087256Y-46617987D02*
X168325351Y-46617987D01*
X168325351Y-46617987D02*
X168468208Y-46665606D01*
X168468208Y-46665606D02*
X168563446Y-46760844D01*
X168563446Y-46760844D02*
X168611065Y-46856082D01*
X168611065Y-46856082D02*
X168658684Y-47046558D01*
X168658684Y-47046558D02*
X168658684Y-47189415D01*
X168658684Y-47189415D02*
X168611065Y-47379891D01*
X168611065Y-47379891D02*
X168563446Y-47475129D01*
X168563446Y-47475129D02*
X168468208Y-47570368D01*
X168468208Y-47570368D02*
X168325351Y-47617987D01*
X168325351Y-47617987D02*
X168087256Y-47617987D01*
X169087256Y-47617987D02*
X169087256Y-46951320D01*
X169087256Y-46617987D02*
X169039637Y-46665606D01*
X169039637Y-46665606D02*
X169087256Y-46713225D01*
X169087256Y-46713225D02*
X169134875Y-46665606D01*
X169134875Y-46665606D02*
X169087256Y-46617987D01*
X169087256Y-46617987D02*
X169087256Y-46713225D01*
X169515827Y-47570368D02*
X169611065Y-47617987D01*
X169611065Y-47617987D02*
X169801541Y-47617987D01*
X169801541Y-47617987D02*
X169896779Y-47570368D01*
X169896779Y-47570368D02*
X169944398Y-47475129D01*
X169944398Y-47475129D02*
X169944398Y-47427510D01*
X169944398Y-47427510D02*
X169896779Y-47332272D01*
X169896779Y-47332272D02*
X169801541Y-47284653D01*
X169801541Y-47284653D02*
X169658684Y-47284653D01*
X169658684Y-47284653D02*
X169563446Y-47237034D01*
X169563446Y-47237034D02*
X169515827Y-47141796D01*
X169515827Y-47141796D02*
X169515827Y-47094177D01*
X169515827Y-47094177D02*
X169563446Y-46998939D01*
X169563446Y-46998939D02*
X169658684Y-46951320D01*
X169658684Y-46951320D02*
X169801541Y-46951320D01*
X169801541Y-46951320D02*
X169896779Y-46998939D01*
X170230113Y-46951320D02*
X170611065Y-46951320D01*
X170372970Y-46617987D02*
X170372970Y-47475129D01*
X170372970Y-47475129D02*
X170420589Y-47570368D01*
X170420589Y-47570368D02*
X170515827Y-47617987D01*
X170515827Y-47617987D02*
X170611065Y-47617987D01*
X170944399Y-47617987D02*
X170944399Y-46951320D01*
X170944399Y-47141796D02*
X170992018Y-47046558D01*
X170992018Y-47046558D02*
X171039637Y-46998939D01*
X171039637Y-46998939D02*
X171134875Y-46951320D01*
X171134875Y-46951320D02*
X171230113Y-46951320D01*
X171563447Y-47617987D02*
X171563447Y-46951320D01*
X171563447Y-46617987D02*
X171515828Y-46665606D01*
X171515828Y-46665606D02*
X171563447Y-46713225D01*
X171563447Y-46713225D02*
X171611066Y-46665606D01*
X171611066Y-46665606D02*
X171563447Y-46617987D01*
X171563447Y-46617987D02*
X171563447Y-46713225D01*
X172039637Y-47617987D02*
X172039637Y-46617987D01*
X172039637Y-46998939D02*
X172134875Y-46951320D01*
X172134875Y-46951320D02*
X172325351Y-46951320D01*
X172325351Y-46951320D02*
X172420589Y-46998939D01*
X172420589Y-46998939D02*
X172468208Y-47046558D01*
X172468208Y-47046558D02*
X172515827Y-47141796D01*
X172515827Y-47141796D02*
X172515827Y-47427510D01*
X172515827Y-47427510D02*
X172468208Y-47522748D01*
X172468208Y-47522748D02*
X172420589Y-47570368D01*
X172420589Y-47570368D02*
X172325351Y-47617987D01*
X172325351Y-47617987D02*
X172134875Y-47617987D01*
X172134875Y-47617987D02*
X172039637Y-47570368D01*
X173372970Y-46951320D02*
X173372970Y-47617987D01*
X172944399Y-46951320D02*
X172944399Y-47475129D01*
X172944399Y-47475129D02*
X172992018Y-47570368D01*
X172992018Y-47570368D02*
X173087256Y-47617987D01*
X173087256Y-47617987D02*
X173230113Y-47617987D01*
X173230113Y-47617987D02*
X173325351Y-47570368D01*
X173325351Y-47570368D02*
X173372970Y-47522748D01*
X173706304Y-46951320D02*
X174087256Y-46951320D01*
X173849161Y-46617987D02*
X173849161Y-47475129D01*
X173849161Y-47475129D02*
X173896780Y-47570368D01*
X173896780Y-47570368D02*
X173992018Y-47617987D01*
X173992018Y-47617987D02*
X174087256Y-47617987D01*
X174420590Y-47617987D02*
X174420590Y-46951320D01*
X174420590Y-46617987D02*
X174372971Y-46665606D01*
X174372971Y-46665606D02*
X174420590Y-46713225D01*
X174420590Y-46713225D02*
X174468209Y-46665606D01*
X174468209Y-46665606D02*
X174420590Y-46617987D01*
X174420590Y-46617987D02*
X174420590Y-46713225D01*
X175039637Y-47617987D02*
X174944399Y-47570368D01*
X174944399Y-47570368D02*
X174896780Y-47522748D01*
X174896780Y-47522748D02*
X174849161Y-47427510D01*
X174849161Y-47427510D02*
X174849161Y-47141796D01*
X174849161Y-47141796D02*
X174896780Y-47046558D01*
X174896780Y-47046558D02*
X174944399Y-46998939D01*
X174944399Y-46998939D02*
X175039637Y-46951320D01*
X175039637Y-46951320D02*
X175182494Y-46951320D01*
X175182494Y-46951320D02*
X175277732Y-46998939D01*
X175277732Y-46998939D02*
X175325351Y-47046558D01*
X175325351Y-47046558D02*
X175372970Y-47141796D01*
X175372970Y-47141796D02*
X175372970Y-47427510D01*
X175372970Y-47427510D02*
X175325351Y-47522748D01*
X175325351Y-47522748D02*
X175277732Y-47570368D01*
X175277732Y-47570368D02*
X175182494Y-47617987D01*
X175182494Y-47617987D02*
X175039637Y-47617987D01*
X175801542Y-46951320D02*
X175801542Y-47617987D01*
X175801542Y-47046558D02*
X175849161Y-46998939D01*
X175849161Y-46998939D02*
X175944399Y-46951320D01*
X175944399Y-46951320D02*
X176087256Y-46951320D01*
X176087256Y-46951320D02*
X176182494Y-46998939D01*
X176182494Y-46998939D02*
X176230113Y-47094177D01*
X176230113Y-47094177D02*
X176230113Y-47617987D01*
X177801542Y-47094177D02*
X177944399Y-47141796D01*
X177944399Y-47141796D02*
X177992018Y-47189415D01*
X177992018Y-47189415D02*
X178039637Y-47284653D01*
X178039637Y-47284653D02*
X178039637Y-47427510D01*
X178039637Y-47427510D02*
X177992018Y-47522748D01*
X177992018Y-47522748D02*
X177944399Y-47570368D01*
X177944399Y-47570368D02*
X177849161Y-47617987D01*
X177849161Y-47617987D02*
X177468209Y-47617987D01*
X177468209Y-47617987D02*
X177468209Y-46617987D01*
X177468209Y-46617987D02*
X177801542Y-46617987D01*
X177801542Y-46617987D02*
X177896780Y-46665606D01*
X177896780Y-46665606D02*
X177944399Y-46713225D01*
X177944399Y-46713225D02*
X177992018Y-46808463D01*
X177992018Y-46808463D02*
X177992018Y-46903701D01*
X177992018Y-46903701D02*
X177944399Y-46998939D01*
X177944399Y-46998939D02*
X177896780Y-47046558D01*
X177896780Y-47046558D02*
X177801542Y-47094177D01*
X177801542Y-47094177D02*
X177468209Y-47094177D01*
X178611066Y-47617987D02*
X178515828Y-47570368D01*
X178515828Y-47570368D02*
X178468209Y-47522748D01*
X178468209Y-47522748D02*
X178420590Y-47427510D01*
X178420590Y-47427510D02*
X178420590Y-47141796D01*
X178420590Y-47141796D02*
X178468209Y-47046558D01*
X178468209Y-47046558D02*
X178515828Y-46998939D01*
X178515828Y-46998939D02*
X178611066Y-46951320D01*
X178611066Y-46951320D02*
X178753923Y-46951320D01*
X178753923Y-46951320D02*
X178849161Y-46998939D01*
X178849161Y-46998939D02*
X178896780Y-47046558D01*
X178896780Y-47046558D02*
X178944399Y-47141796D01*
X178944399Y-47141796D02*
X178944399Y-47427510D01*
X178944399Y-47427510D02*
X178896780Y-47522748D01*
X178896780Y-47522748D02*
X178849161Y-47570368D01*
X178849161Y-47570368D02*
X178753923Y-47617987D01*
X178753923Y-47617987D02*
X178611066Y-47617987D01*
X179801542Y-47617987D02*
X179801542Y-47094177D01*
X179801542Y-47094177D02*
X179753923Y-46998939D01*
X179753923Y-46998939D02*
X179658685Y-46951320D01*
X179658685Y-46951320D02*
X179468209Y-46951320D01*
X179468209Y-46951320D02*
X179372971Y-46998939D01*
X179801542Y-47570368D02*
X179706304Y-47617987D01*
X179706304Y-47617987D02*
X179468209Y-47617987D01*
X179468209Y-47617987D02*
X179372971Y-47570368D01*
X179372971Y-47570368D02*
X179325352Y-47475129D01*
X179325352Y-47475129D02*
X179325352Y-47379891D01*
X179325352Y-47379891D02*
X179372971Y-47284653D01*
X179372971Y-47284653D02*
X179468209Y-47237034D01*
X179468209Y-47237034D02*
X179706304Y-47237034D01*
X179706304Y-47237034D02*
X179801542Y-47189415D01*
X180277733Y-47617987D02*
X180277733Y-46951320D01*
X180277733Y-47141796D02*
X180325352Y-47046558D01*
X180325352Y-47046558D02*
X180372971Y-46998939D01*
X180372971Y-46998939D02*
X180468209Y-46951320D01*
X180468209Y-46951320D02*
X180563447Y-46951320D01*
X181325352Y-47617987D02*
X181325352Y-46617987D01*
X181325352Y-47570368D02*
X181230114Y-47617987D01*
X181230114Y-47617987D02*
X181039638Y-47617987D01*
X181039638Y-47617987D02*
X180944400Y-47570368D01*
X180944400Y-47570368D02*
X180896781Y-47522748D01*
X180896781Y-47522748D02*
X180849162Y-47427510D01*
X180849162Y-47427510D02*
X180849162Y-47141796D01*
X180849162Y-47141796D02*
X180896781Y-47046558D01*
X180896781Y-47046558D02*
X180944400Y-46998939D01*
X180944400Y-46998939D02*
X181039638Y-46951320D01*
X181039638Y-46951320D02*
X181230114Y-46951320D01*
X181230114Y-46951320D02*
X181325352Y-46998939D01*
X183134876Y-47617987D02*
X182801543Y-47141796D01*
X182563448Y-47617987D02*
X182563448Y-46617987D01*
X182563448Y-46617987D02*
X182944400Y-46617987D01*
X182944400Y-46617987D02*
X183039638Y-46665606D01*
X183039638Y-46665606D02*
X183087257Y-46713225D01*
X183087257Y-46713225D02*
X183134876Y-46808463D01*
X183134876Y-46808463D02*
X183134876Y-46951320D01*
X183134876Y-46951320D02*
X183087257Y-47046558D01*
X183087257Y-47046558D02*
X183039638Y-47094177D01*
X183039638Y-47094177D02*
X182944400Y-47141796D01*
X182944400Y-47141796D02*
X182563448Y-47141796D01*
X183944400Y-47570368D02*
X183849162Y-47617987D01*
X183849162Y-47617987D02*
X183658686Y-47617987D01*
X183658686Y-47617987D02*
X183563448Y-47570368D01*
X183563448Y-47570368D02*
X183515829Y-47475129D01*
X183515829Y-47475129D02*
X183515829Y-47094177D01*
X183515829Y-47094177D02*
X183563448Y-46998939D01*
X183563448Y-46998939D02*
X183658686Y-46951320D01*
X183658686Y-46951320D02*
X183849162Y-46951320D01*
X183849162Y-46951320D02*
X183944400Y-46998939D01*
X183944400Y-46998939D02*
X183992019Y-47094177D01*
X183992019Y-47094177D02*
X183992019Y-47189415D01*
X183992019Y-47189415D02*
X183515829Y-47284653D01*
X184563448Y-47617987D02*
X184468210Y-47570368D01*
X184468210Y-47570368D02*
X184420591Y-47475129D01*
X184420591Y-47475129D02*
X184420591Y-46617987D01*
X185372972Y-47617987D02*
X185372972Y-47094177D01*
X185372972Y-47094177D02*
X185325353Y-46998939D01*
X185325353Y-46998939D02*
X185230115Y-46951320D01*
X185230115Y-46951320D02*
X185039639Y-46951320D01*
X185039639Y-46951320D02*
X184944401Y-46998939D01*
X185372972Y-47570368D02*
X185277734Y-47617987D01*
X185277734Y-47617987D02*
X185039639Y-47617987D01*
X185039639Y-47617987D02*
X184944401Y-47570368D01*
X184944401Y-47570368D02*
X184896782Y-47475129D01*
X184896782Y-47475129D02*
X184896782Y-47379891D01*
X184896782Y-47379891D02*
X184944401Y-47284653D01*
X184944401Y-47284653D02*
X185039639Y-47237034D01*
X185039639Y-47237034D02*
X185277734Y-47237034D01*
X185277734Y-47237034D02*
X185372972Y-47189415D01*
X185849163Y-47617987D02*
X185849163Y-46951320D01*
X185849163Y-46617987D02*
X185801544Y-46665606D01*
X185801544Y-46665606D02*
X185849163Y-46713225D01*
X185849163Y-46713225D02*
X185896782Y-46665606D01*
X185896782Y-46665606D02*
X185849163Y-46617987D01*
X185849163Y-46617987D02*
X185849163Y-46713225D01*
X186277734Y-47570368D02*
X186372972Y-47617987D01*
X186372972Y-47617987D02*
X186563448Y-47617987D01*
X186563448Y-47617987D02*
X186658686Y-47570368D01*
X186658686Y-47570368D02*
X186706305Y-47475129D01*
X186706305Y-47475129D02*
X186706305Y-47427510D01*
X186706305Y-47427510D02*
X186658686Y-47332272D01*
X186658686Y-47332272D02*
X186563448Y-47284653D01*
X186563448Y-47284653D02*
X186420591Y-47284653D01*
X186420591Y-47284653D02*
X186325353Y-47237034D01*
X186325353Y-47237034D02*
X186277734Y-47141796D01*
X186277734Y-47141796D02*
X186277734Y-47094177D01*
X186277734Y-47094177D02*
X186325353Y-46998939D01*
X186325353Y-46998939D02*
X186420591Y-46951320D01*
X186420591Y-46951320D02*
X186563448Y-46951320D01*
X186563448Y-46951320D02*
X186658686Y-46998939D01*
X163277731Y-49180312D02*
X163182493Y-49227931D01*
X163182493Y-49227931D02*
X162992017Y-49227931D01*
X162992017Y-49227931D02*
X162896779Y-49180312D01*
X162896779Y-49180312D02*
X162849160Y-49085073D01*
X162849160Y-49085073D02*
X162849160Y-48704121D01*
X162849160Y-48704121D02*
X162896779Y-48608883D01*
X162896779Y-48608883D02*
X162992017Y-48561264D01*
X162992017Y-48561264D02*
X163182493Y-48561264D01*
X163182493Y-48561264D02*
X163277731Y-48608883D01*
X163277731Y-48608883D02*
X163325350Y-48704121D01*
X163325350Y-48704121D02*
X163325350Y-48799359D01*
X163325350Y-48799359D02*
X162849160Y-48894597D01*
X163896779Y-49227931D02*
X163801541Y-49180312D01*
X163801541Y-49180312D02*
X163753922Y-49085073D01*
X163753922Y-49085073D02*
X163753922Y-48227931D01*
X164134875Y-48227931D02*
X164468208Y-49227931D01*
X164468208Y-49227931D02*
X164801541Y-48227931D01*
X165134875Y-48704121D02*
X165468208Y-48704121D01*
X165611065Y-49227931D02*
X165134875Y-49227931D01*
X165134875Y-49227931D02*
X165134875Y-48227931D01*
X165134875Y-48227931D02*
X165611065Y-48227931D01*
X165992018Y-49180312D02*
X166134875Y-49227931D01*
X166134875Y-49227931D02*
X166372970Y-49227931D01*
X166372970Y-49227931D02*
X166468208Y-49180312D01*
X166468208Y-49180312D02*
X166515827Y-49132692D01*
X166515827Y-49132692D02*
X166563446Y-49037454D01*
X166563446Y-49037454D02*
X166563446Y-48942216D01*
X166563446Y-48942216D02*
X166515827Y-48846978D01*
X166515827Y-48846978D02*
X166468208Y-48799359D01*
X166468208Y-48799359D02*
X166372970Y-48751740D01*
X166372970Y-48751740D02*
X166182494Y-48704121D01*
X166182494Y-48704121D02*
X166087256Y-48656502D01*
X166087256Y-48656502D02*
X166039637Y-48608883D01*
X166039637Y-48608883D02*
X165992018Y-48513645D01*
X165992018Y-48513645D02*
X165992018Y-48418407D01*
X165992018Y-48418407D02*
X166039637Y-48323169D01*
X166039637Y-48323169D02*
X166087256Y-48275550D01*
X166087256Y-48275550D02*
X166182494Y-48227931D01*
X166182494Y-48227931D02*
X166420589Y-48227931D01*
X166420589Y-48227931D02*
X166563446Y-48275550D01*
X167563446Y-49132692D02*
X167515827Y-49180312D01*
X167515827Y-49180312D02*
X167372970Y-49227931D01*
X167372970Y-49227931D02*
X167277732Y-49227931D01*
X167277732Y-49227931D02*
X167134875Y-49180312D01*
X167134875Y-49180312D02*
X167039637Y-49085073D01*
X167039637Y-49085073D02*
X166992018Y-48989835D01*
X166992018Y-48989835D02*
X166944399Y-48799359D01*
X166944399Y-48799359D02*
X166944399Y-48656502D01*
X166944399Y-48656502D02*
X166992018Y-48466026D01*
X166992018Y-48466026D02*
X167039637Y-48370788D01*
X167039637Y-48370788D02*
X167134875Y-48275550D01*
X167134875Y-48275550D02*
X167277732Y-48227931D01*
X167277732Y-48227931D02*
X167372970Y-48227931D01*
X167372970Y-48227931D02*
X167515827Y-48275550D01*
X167515827Y-48275550D02*
X167563446Y-48323169D01*
X162849160Y-50552160D02*
X163325350Y-50552160D01*
X162753922Y-50837875D02*
X163087255Y-49837875D01*
X163087255Y-49837875D02*
X163420588Y-50837875D01*
X163753922Y-50171208D02*
X163753922Y-51171208D01*
X163753922Y-50218827D02*
X163849160Y-50171208D01*
X163849160Y-50171208D02*
X164039636Y-50171208D01*
X164039636Y-50171208D02*
X164134874Y-50218827D01*
X164134874Y-50218827D02*
X164182493Y-50266446D01*
X164182493Y-50266446D02*
X164230112Y-50361684D01*
X164230112Y-50361684D02*
X164230112Y-50647398D01*
X164230112Y-50647398D02*
X164182493Y-50742636D01*
X164182493Y-50742636D02*
X164134874Y-50790256D01*
X164134874Y-50790256D02*
X164039636Y-50837875D01*
X164039636Y-50837875D02*
X163849160Y-50837875D01*
X163849160Y-50837875D02*
X163753922Y-50790256D01*
X164658684Y-50837875D02*
X164658684Y-50171208D01*
X164658684Y-50361684D02*
X164706303Y-50266446D01*
X164706303Y-50266446D02*
X164753922Y-50218827D01*
X164753922Y-50218827D02*
X164849160Y-50171208D01*
X164849160Y-50171208D02*
X164944398Y-50171208D01*
X165277732Y-50837875D02*
X165277732Y-50171208D01*
X165277732Y-49837875D02*
X165230113Y-49885494D01*
X165230113Y-49885494D02*
X165277732Y-49933113D01*
X165277732Y-49933113D02*
X165325351Y-49885494D01*
X165325351Y-49885494D02*
X165277732Y-49837875D01*
X165277732Y-49837875D02*
X165277732Y-49933113D01*
X165896779Y-50837875D02*
X165801541Y-50790256D01*
X165801541Y-50790256D02*
X165753922Y-50695017D01*
X165753922Y-50695017D02*
X165753922Y-49837875D01*
X166992018Y-49933113D02*
X167039637Y-49885494D01*
X167039637Y-49885494D02*
X167134875Y-49837875D01*
X167134875Y-49837875D02*
X167372970Y-49837875D01*
X167372970Y-49837875D02*
X167468208Y-49885494D01*
X167468208Y-49885494D02*
X167515827Y-49933113D01*
X167515827Y-49933113D02*
X167563446Y-50028351D01*
X167563446Y-50028351D02*
X167563446Y-50123589D01*
X167563446Y-50123589D02*
X167515827Y-50266446D01*
X167515827Y-50266446D02*
X166944399Y-50837875D01*
X166944399Y-50837875D02*
X167563446Y-50837875D01*
X168182494Y-49837875D02*
X168277732Y-49837875D01*
X168277732Y-49837875D02*
X168372970Y-49885494D01*
X168372970Y-49885494D02*
X168420589Y-49933113D01*
X168420589Y-49933113D02*
X168468208Y-50028351D01*
X168468208Y-50028351D02*
X168515827Y-50218827D01*
X168515827Y-50218827D02*
X168515827Y-50456922D01*
X168515827Y-50456922D02*
X168468208Y-50647398D01*
X168468208Y-50647398D02*
X168420589Y-50742636D01*
X168420589Y-50742636D02*
X168372970Y-50790256D01*
X168372970Y-50790256D02*
X168277732Y-50837875D01*
X168277732Y-50837875D02*
X168182494Y-50837875D01*
X168182494Y-50837875D02*
X168087256Y-50790256D01*
X168087256Y-50790256D02*
X168039637Y-50742636D01*
X168039637Y-50742636D02*
X167992018Y-50647398D01*
X167992018Y-50647398D02*
X167944399Y-50456922D01*
X167944399Y-50456922D02*
X167944399Y-50218827D01*
X167944399Y-50218827D02*
X167992018Y-50028351D01*
X167992018Y-50028351D02*
X168039637Y-49933113D01*
X168039637Y-49933113D02*
X168087256Y-49885494D01*
X168087256Y-49885494D02*
X168182494Y-49837875D01*
X168896780Y-49933113D02*
X168944399Y-49885494D01*
X168944399Y-49885494D02*
X169039637Y-49837875D01*
X169039637Y-49837875D02*
X169277732Y-49837875D01*
X169277732Y-49837875D02*
X169372970Y-49885494D01*
X169372970Y-49885494D02*
X169420589Y-49933113D01*
X169420589Y-49933113D02*
X169468208Y-50028351D01*
X169468208Y-50028351D02*
X169468208Y-50123589D01*
X169468208Y-50123589D02*
X169420589Y-50266446D01*
X169420589Y-50266446D02*
X168849161Y-50837875D01*
X168849161Y-50837875D02*
X169468208Y-50837875D01*
X170325351Y-50171208D02*
X170325351Y-50837875D01*
X170087256Y-49790256D02*
X169849161Y-50504541D01*
X169849161Y-50504541D02*
X170468208Y-50504541D01*
X163372969Y-52447819D02*
X162896779Y-52447819D01*
X162896779Y-52447819D02*
X162896779Y-51447819D01*
X164230112Y-52447819D02*
X163658684Y-52447819D01*
X163944398Y-52447819D02*
X163944398Y-51447819D01*
X163944398Y-51447819D02*
X163849160Y-51590676D01*
X163849160Y-51590676D02*
X163753922Y-51685914D01*
X163753922Y-51685914D02*
X163658684Y-51733533D01*
X164658684Y-51924009D02*
X164992017Y-51924009D01*
X165134874Y-52447819D02*
X164658684Y-52447819D01*
X164658684Y-52447819D02*
X164658684Y-51447819D01*
X164658684Y-51447819D02*
X165134874Y-51447819D01*
X165563446Y-52352580D02*
X165611065Y-52400200D01*
X165611065Y-52400200D02*
X165563446Y-52447819D01*
X165563446Y-52447819D02*
X165515827Y-52400200D01*
X165515827Y-52400200D02*
X165563446Y-52352580D01*
X165563446Y-52352580D02*
X165563446Y-52447819D01*
X166420588Y-52400200D02*
X166325350Y-52447819D01*
X166325350Y-52447819D02*
X166134874Y-52447819D01*
X166134874Y-52447819D02*
X166039636Y-52400200D01*
X166039636Y-52400200D02*
X165992017Y-52304961D01*
X165992017Y-52304961D02*
X165992017Y-51924009D01*
X165992017Y-51924009D02*
X166039636Y-51828771D01*
X166039636Y-51828771D02*
X166134874Y-51781152D01*
X166134874Y-51781152D02*
X166325350Y-51781152D01*
X166325350Y-51781152D02*
X166420588Y-51828771D01*
X166420588Y-51828771D02*
X166468207Y-51924009D01*
X166468207Y-51924009D02*
X166468207Y-52019247D01*
X166468207Y-52019247D02*
X165992017Y-52114485D01*
X167325350Y-51781152D02*
X167325350Y-52447819D01*
X166896779Y-51781152D02*
X166896779Y-52304961D01*
X166896779Y-52304961D02*
X166944398Y-52400200D01*
X166944398Y-52400200D02*
X167039636Y-52447819D01*
X167039636Y-52447819D02*
X167182493Y-52447819D01*
X167182493Y-52447819D02*
X167277731Y-52400200D01*
X167277731Y-52400200D02*
X167325350Y-52352580D01*
X152136666Y-44804819D02*
X152136666Y-45519104D01*
X152136666Y-45519104D02*
X152089047Y-45661961D01*
X152089047Y-45661961D02*
X151993809Y-45757200D01*
X151993809Y-45757200D02*
X151850952Y-45804819D01*
X151850952Y-45804819D02*
X151755714Y-45804819D01*
X152517619Y-44804819D02*
X153184285Y-44804819D01*
X153184285Y-44804819D02*
X152755714Y-45804819D01*
X137126666Y-44374819D02*
X137126666Y-45089104D01*
X137126666Y-45089104D02*
X137079047Y-45231961D01*
X137079047Y-45231961D02*
X136983809Y-45327200D01*
X136983809Y-45327200D02*
X136840952Y-45374819D01*
X136840952Y-45374819D02*
X136745714Y-45374819D01*
X138031428Y-44374819D02*
X137840952Y-44374819D01*
X137840952Y-44374819D02*
X137745714Y-44422438D01*
X137745714Y-44422438D02*
X137698095Y-44470057D01*
X137698095Y-44470057D02*
X137602857Y-44612914D01*
X137602857Y-44612914D02*
X137555238Y-44803390D01*
X137555238Y-44803390D02*
X137555238Y-45184342D01*
X137555238Y-45184342D02*
X137602857Y-45279580D01*
X137602857Y-45279580D02*
X137650476Y-45327200D01*
X137650476Y-45327200D02*
X137745714Y-45374819D01*
X137745714Y-45374819D02*
X137936190Y-45374819D01*
X137936190Y-45374819D02*
X138031428Y-45327200D01*
X138031428Y-45327200D02*
X138079047Y-45279580D01*
X138079047Y-45279580D02*
X138126666Y-45184342D01*
X138126666Y-45184342D02*
X138126666Y-44946247D01*
X138126666Y-44946247D02*
X138079047Y-44851009D01*
X138079047Y-44851009D02*
X138031428Y-44803390D01*
X138031428Y-44803390D02*
X137936190Y-44755771D01*
X137936190Y-44755771D02*
X137745714Y-44755771D01*
X137745714Y-44755771D02*
X137650476Y-44803390D01*
X137650476Y-44803390D02*
X137602857Y-44851009D01*
X137602857Y-44851009D02*
X137555238Y-44946247D01*
X149626666Y-42034819D02*
X149626666Y-42749104D01*
X149626666Y-42749104D02*
X149579047Y-42891961D01*
X149579047Y-42891961D02*
X149483809Y-42987200D01*
X149483809Y-42987200D02*
X149340952Y-43034819D01*
X149340952Y-43034819D02*
X149245714Y-43034819D01*
X150055238Y-42130057D02*
X150102857Y-42082438D01*
X150102857Y-42082438D02*
X150198095Y-42034819D01*
X150198095Y-42034819D02*
X150436190Y-42034819D01*
X150436190Y-42034819D02*
X150531428Y-42082438D01*
X150531428Y-42082438D02*
X150579047Y-42130057D01*
X150579047Y-42130057D02*
X150626666Y-42225295D01*
X150626666Y-42225295D02*
X150626666Y-42320533D01*
X150626666Y-42320533D02*
X150579047Y-42463390D01*
X150579047Y-42463390D02*
X150007619Y-43034819D01*
X150007619Y-43034819D02*
X150626666Y-43034819D01*
X137126666Y-42034819D02*
X137126666Y-42749104D01*
X137126666Y-42749104D02*
X137079047Y-42891961D01*
X137079047Y-42891961D02*
X136983809Y-42987200D01*
X136983809Y-42987200D02*
X136840952Y-43034819D01*
X136840952Y-43034819D02*
X136745714Y-43034819D01*
X138126666Y-43034819D02*
X137555238Y-43034819D01*
X137840952Y-43034819D02*
X137840952Y-42034819D01*
X137840952Y-42034819D02*
X137745714Y-42177676D01*
X137745714Y-42177676D02*
X137650476Y-42272914D01*
X137650476Y-42272914D02*
X137555238Y-42320533D01*
X162126666Y-42034819D02*
X162126666Y-42749104D01*
X162126666Y-42749104D02*
X162079047Y-42891961D01*
X162079047Y-42891961D02*
X161983809Y-42987200D01*
X161983809Y-42987200D02*
X161840952Y-43034819D01*
X161840952Y-43034819D02*
X161745714Y-43034819D01*
X162507619Y-42034819D02*
X163126666Y-42034819D01*
X163126666Y-42034819D02*
X162793333Y-42415771D01*
X162793333Y-42415771D02*
X162936190Y-42415771D01*
X162936190Y-42415771D02*
X163031428Y-42463390D01*
X163031428Y-42463390D02*
X163079047Y-42511009D01*
X163079047Y-42511009D02*
X163126666Y-42606247D01*
X163126666Y-42606247D02*
X163126666Y-42844342D01*
X163126666Y-42844342D02*
X163079047Y-42939580D01*
X163079047Y-42939580D02*
X163031428Y-42987200D01*
X163031428Y-42987200D02*
X162936190Y-43034819D01*
X162936190Y-43034819D02*
X162650476Y-43034819D01*
X162650476Y-43034819D02*
X162555238Y-42987200D01*
X162555238Y-42987200D02*
X162507619Y-42939580D01*
X174626666Y-42034819D02*
X174626666Y-42749104D01*
X174626666Y-42749104D02*
X174579047Y-42891961D01*
X174579047Y-42891961D02*
X174483809Y-42987200D01*
X174483809Y-42987200D02*
X174340952Y-43034819D01*
X174340952Y-43034819D02*
X174245714Y-43034819D01*
X175531428Y-42368152D02*
X175531428Y-43034819D01*
X175293333Y-41987200D02*
X175055238Y-42701485D01*
X175055238Y-42701485D02*
X175674285Y-42701485D01*
X126666666Y-46731009D02*
X126809523Y-46778628D01*
X126809523Y-46778628D02*
X126857142Y-46826247D01*
X126857142Y-46826247D02*
X126904761Y-46921485D01*
X126904761Y-46921485D02*
X126904761Y-47064342D01*
X126904761Y-47064342D02*
X126857142Y-47159580D01*
X126857142Y-47159580D02*
X126809523Y-47207200D01*
X126809523Y-47207200D02*
X126714285Y-47254819D01*
X126714285Y-47254819D02*
X126333333Y-47254819D01*
X126333333Y-47254819D02*
X126333333Y-46254819D01*
X126333333Y-46254819D02*
X126666666Y-46254819D01*
X126666666Y-46254819D02*
X126761904Y-46302438D01*
X126761904Y-46302438D02*
X126809523Y-46350057D01*
X126809523Y-46350057D02*
X126857142Y-46445295D01*
X126857142Y-46445295D02*
X126857142Y-46540533D01*
X126857142Y-46540533D02*
X126809523Y-46635771D01*
X126809523Y-46635771D02*
X126761904Y-46683390D01*
X126761904Y-46683390D02*
X126666666Y-46731009D01*
X126666666Y-46731009D02*
X126333333Y-46731009D01*
X127809523Y-47254819D02*
X127333333Y-47254819D01*
X127333333Y-47254819D02*
X127333333Y-46254819D01*
X196571428Y-46731009D02*
X196714285Y-46778628D01*
X196714285Y-46778628D02*
X196761904Y-46826247D01*
X196761904Y-46826247D02*
X196809523Y-46921485D01*
X196809523Y-46921485D02*
X196809523Y-47064342D01*
X196809523Y-47064342D02*
X196761904Y-47159580D01*
X196761904Y-47159580D02*
X196714285Y-47207200D01*
X196714285Y-47207200D02*
X196619047Y-47254819D01*
X196619047Y-47254819D02*
X196238095Y-47254819D01*
X196238095Y-47254819D02*
X196238095Y-46254819D01*
X196238095Y-46254819D02*
X196571428Y-46254819D01*
X196571428Y-46254819D02*
X196666666Y-46302438D01*
X196666666Y-46302438D02*
X196714285Y-46350057D01*
X196714285Y-46350057D02*
X196761904Y-46445295D01*
X196761904Y-46445295D02*
X196761904Y-46540533D01*
X196761904Y-46540533D02*
X196714285Y-46635771D01*
X196714285Y-46635771D02*
X196666666Y-46683390D01*
X196666666Y-46683390D02*
X196571428Y-46731009D01*
X196571428Y-46731009D02*
X196238095Y-46731009D01*
X197809523Y-47254819D02*
X197476190Y-46778628D01*
X197238095Y-47254819D02*
X197238095Y-46254819D01*
X197238095Y-46254819D02*
X197619047Y-46254819D01*
X197619047Y-46254819D02*
X197714285Y-46302438D01*
X197714285Y-46302438D02*
X197761904Y-46350057D01*
X197761904Y-46350057D02*
X197809523Y-46445295D01*
X197809523Y-46445295D02*
X197809523Y-46588152D01*
X197809523Y-46588152D02*
X197761904Y-46683390D01*
X197761904Y-46683390D02*
X197714285Y-46731009D01*
X197714285Y-46731009D02*
X197619047Y-46778628D01*
X197619047Y-46778628D02*
X197238095Y-46778628D01*
X187126666Y-42034819D02*
X187126666Y-42749104D01*
X187126666Y-42749104D02*
X187079047Y-42891961D01*
X187079047Y-42891961D02*
X186983809Y-42987200D01*
X186983809Y-42987200D02*
X186840952Y-43034819D01*
X186840952Y-43034819D02*
X186745714Y-43034819D01*
X188079047Y-42034819D02*
X187602857Y-42034819D01*
X187602857Y-42034819D02*
X187555238Y-42511009D01*
X187555238Y-42511009D02*
X187602857Y-42463390D01*
X187602857Y-42463390D02*
X187698095Y-42415771D01*
X187698095Y-42415771D02*
X187936190Y-42415771D01*
X187936190Y-42415771D02*
X188031428Y-42463390D01*
X188031428Y-42463390D02*
X188079047Y-42511009D01*
X188079047Y-42511009D02*
X188126666Y-42606247D01*
X188126666Y-42606247D02*
X188126666Y-42844342D01*
X188126666Y-42844342D02*
X188079047Y-42939580D01*
X188079047Y-42939580D02*
X188031428Y-42987200D01*
X188031428Y-42987200D02*
X187936190Y-43034819D01*
X187936190Y-43034819D02*
X187698095Y-43034819D01*
X187698095Y-43034819D02*
X187602857Y-42987200D01*
X187602857Y-42987200D02*
X187555238Y-42939580D01*
X196214286Y-31254819D02*
X196785714Y-31254819D01*
X196500000Y-32254819D02*
X196500000Y-31254819D01*
X197690476Y-32254819D02*
X197357143Y-31778628D01*
X197119048Y-32254819D02*
X197119048Y-31254819D01*
X197119048Y-31254819D02*
X197500000Y-31254819D01*
X197500000Y-31254819D02*
X197595238Y-31302438D01*
X197595238Y-31302438D02*
X197642857Y-31350057D01*
X197642857Y-31350057D02*
X197690476Y-31445295D01*
X197690476Y-31445295D02*
X197690476Y-31588152D01*
X197690476Y-31588152D02*
X197642857Y-31683390D01*
X197642857Y-31683390D02*
X197595238Y-31731009D01*
X197595238Y-31731009D02*
X197500000Y-31778628D01*
X197500000Y-31778628D02*
X197119048Y-31778628D01*
X126309524Y-31254819D02*
X126880952Y-31254819D01*
X126595238Y-32254819D02*
X126595238Y-31254819D01*
X127690476Y-32254819D02*
X127214286Y-32254819D01*
X127214286Y-32254819D02*
X127214286Y-31254819D01*
D11*
%TO.C,J7*%
X144880000Y-46190000D02*
X160120000Y-46190000D01*
X144880000Y-52540000D02*
X160120000Y-52540000D01*
X144880000Y-53810000D02*
X144880000Y-46190000D01*
X144880000Y-53810000D02*
X160120000Y-53810000D01*
X160120000Y-53810000D02*
X160120000Y-46190000D01*
%TO.C,J6*%
X132380000Y-46190000D02*
X132380000Y-53810000D01*
X132380000Y-53810000D02*
X142540000Y-53810000D01*
X142540000Y-46190000D02*
X132380000Y-46190000D01*
X142540000Y-52540000D02*
X132380000Y-52540000D01*
X142540000Y-53810000D02*
X142540000Y-46190000D01*
%TO.C,J2*%
X144880000Y-33690000D02*
X144880000Y-41310000D01*
X144880000Y-34960000D02*
X155040000Y-34960000D01*
X144880000Y-41310000D02*
X155040000Y-41310000D01*
X155040000Y-33690000D02*
X144880000Y-33690000D01*
X155040000Y-41310000D02*
X155040000Y-33690000D01*
%TO.C,J1*%
X132380000Y-33690000D02*
X132380000Y-41310000D01*
X132380000Y-34960000D02*
X142540000Y-34960000D01*
X132380000Y-41310000D02*
X142540000Y-41310000D01*
X142540000Y-33690000D02*
X132380000Y-33690000D01*
X142540000Y-41310000D02*
X142540000Y-33690000D01*
%TO.C,J3*%
X157380000Y-33690000D02*
X157380000Y-41310000D01*
X157380000Y-34960000D02*
X167540000Y-34960000D01*
X157380000Y-41310000D02*
X167540000Y-41310000D01*
X167540000Y-33690000D02*
X157380000Y-33690000D01*
X167540000Y-41310000D02*
X167540000Y-33690000D01*
%TO.C,J4*%
X169880000Y-33690000D02*
X169880000Y-41310000D01*
X169880000Y-34960000D02*
X180040000Y-34960000D01*
X169880000Y-41310000D02*
X180040000Y-41310000D01*
X180040000Y-33690000D02*
X169880000Y-33690000D01*
X180040000Y-41310000D02*
X180040000Y-33690000D01*
%TO.C,J5*%
X182380000Y-33690000D02*
X182380000Y-41310000D01*
X182380000Y-34960000D02*
X192540000Y-34960000D01*
X182380000Y-41310000D02*
X192540000Y-41310000D01*
X192540000Y-33690000D02*
X182380000Y-33690000D01*
X192540000Y-41310000D02*
X192540000Y-33690000D01*
%TD*%
M02*
