%TF.GenerationSoftware,KiCad,Pcbnew,8.0.1*%
%TF.CreationDate,2024-07-22T16:36:45+02:00*%
%TF.ProjectId,Switch-_and_PowerDistribution-Board,53776974-6368-42d5-9f61-6e645f506f77,rev?*%
%TF.SameCoordinates,Original*%
%TF.FileFunction,Legend,Top*%
%TF.FilePolarity,Positive*%
%FSLAX46Y46*%
G04 Gerber Fmt 4.6, Leading zero omitted, Abs format (unit mm)*
G04 Created by KiCad (PCBNEW 8.0.1) date 2024-07-22 16:36:45*
%MOMM*%
%LPD*%
G01*
G04 APERTURE LIST*
%ADD10C,0.300000*%
%ADD11C,0.150000*%
%ADD12C,0.152400*%
%ADD13C,0.120000*%
%ADD14C,0.508000*%
G04 APERTURE END LIST*
D10*
X84668796Y-120785912D02*
X83954510Y-120785912D01*
X83954510Y-120785912D02*
X83954510Y-119285912D01*
X85168796Y-120785912D02*
X85168796Y-119785912D01*
X85168796Y-119285912D02*
X85097368Y-119357341D01*
X85097368Y-119357341D02*
X85168796Y-119428769D01*
X85168796Y-119428769D02*
X85240225Y-119357341D01*
X85240225Y-119357341D02*
X85168796Y-119285912D01*
X85168796Y-119285912D02*
X85168796Y-119428769D01*
X86525940Y-120714484D02*
X86383082Y-120785912D01*
X86383082Y-120785912D02*
X86097368Y-120785912D01*
X86097368Y-120785912D02*
X85954511Y-120714484D01*
X85954511Y-120714484D02*
X85883082Y-120643055D01*
X85883082Y-120643055D02*
X85811654Y-120500198D01*
X85811654Y-120500198D02*
X85811654Y-120071626D01*
X85811654Y-120071626D02*
X85883082Y-119928769D01*
X85883082Y-119928769D02*
X85954511Y-119857341D01*
X85954511Y-119857341D02*
X86097368Y-119785912D01*
X86097368Y-119785912D02*
X86383082Y-119785912D01*
X86383082Y-119785912D02*
X86525940Y-119857341D01*
X87168796Y-120785912D02*
X87168796Y-119285912D01*
X87811654Y-120785912D02*
X87811654Y-120000198D01*
X87811654Y-120000198D02*
X87740225Y-119857341D01*
X87740225Y-119857341D02*
X87597368Y-119785912D01*
X87597368Y-119785912D02*
X87383082Y-119785912D01*
X87383082Y-119785912D02*
X87240225Y-119857341D01*
X87240225Y-119857341D02*
X87168796Y-119928769D01*
X88311654Y-119785912D02*
X88883082Y-119785912D01*
X88525939Y-119285912D02*
X88525939Y-120571626D01*
X88525939Y-120571626D02*
X88597368Y-120714484D01*
X88597368Y-120714484D02*
X88740225Y-120785912D01*
X88740225Y-120785912D02*
X88883082Y-120785912D01*
X90525939Y-120785912D02*
X90525939Y-119285912D01*
X91168797Y-120785912D02*
X91168797Y-120000198D01*
X91168797Y-120000198D02*
X91097368Y-119857341D01*
X91097368Y-119857341D02*
X90954511Y-119785912D01*
X90954511Y-119785912D02*
X90740225Y-119785912D01*
X90740225Y-119785912D02*
X90597368Y-119857341D01*
X90597368Y-119857341D02*
X90525939Y-119928769D01*
X91883082Y-120785912D02*
X91883082Y-119785912D01*
X91883082Y-119285912D02*
X91811654Y-119357341D01*
X91811654Y-119357341D02*
X91883082Y-119428769D01*
X91883082Y-119428769D02*
X91954511Y-119357341D01*
X91954511Y-119357341D02*
X91883082Y-119285912D01*
X91883082Y-119285912D02*
X91883082Y-119428769D01*
X92597368Y-119785912D02*
X92597368Y-120785912D01*
X92597368Y-119928769D02*
X92668797Y-119857341D01*
X92668797Y-119857341D02*
X92811654Y-119785912D01*
X92811654Y-119785912D02*
X93025940Y-119785912D01*
X93025940Y-119785912D02*
X93168797Y-119857341D01*
X93168797Y-119857341D02*
X93240226Y-120000198D01*
X93240226Y-120000198D02*
X93240226Y-120785912D01*
X93740226Y-119785912D02*
X94311654Y-119785912D01*
X93954511Y-119285912D02*
X93954511Y-120571626D01*
X93954511Y-120571626D02*
X94025940Y-120714484D01*
X94025940Y-120714484D02*
X94168797Y-120785912D01*
X94168797Y-120785912D02*
X94311654Y-120785912D01*
X95383083Y-120714484D02*
X95240226Y-120785912D01*
X95240226Y-120785912D02*
X94954512Y-120785912D01*
X94954512Y-120785912D02*
X94811654Y-120714484D01*
X94811654Y-120714484D02*
X94740226Y-120571626D01*
X94740226Y-120571626D02*
X94740226Y-120000198D01*
X94740226Y-120000198D02*
X94811654Y-119857341D01*
X94811654Y-119857341D02*
X94954512Y-119785912D01*
X94954512Y-119785912D02*
X95240226Y-119785912D01*
X95240226Y-119785912D02*
X95383083Y-119857341D01*
X95383083Y-119857341D02*
X95454512Y-120000198D01*
X95454512Y-120000198D02*
X95454512Y-120143055D01*
X95454512Y-120143055D02*
X94740226Y-120285912D01*
X96097368Y-119785912D02*
X96097368Y-120785912D01*
X96097368Y-119928769D02*
X96168797Y-119857341D01*
X96168797Y-119857341D02*
X96311654Y-119785912D01*
X96311654Y-119785912D02*
X96525940Y-119785912D01*
X96525940Y-119785912D02*
X96668797Y-119857341D01*
X96668797Y-119857341D02*
X96740226Y-120000198D01*
X96740226Y-120000198D02*
X96740226Y-120785912D01*
X83954510Y-122629400D02*
X85097368Y-122629400D01*
X84525939Y-123200828D02*
X84525939Y-122057971D01*
X88883082Y-121772257D02*
X88740225Y-121700828D01*
X88740225Y-121700828D02*
X88525939Y-121700828D01*
X88525939Y-121700828D02*
X88311653Y-121772257D01*
X88311653Y-121772257D02*
X88168796Y-121915114D01*
X88168796Y-121915114D02*
X88097367Y-122057971D01*
X88097367Y-122057971D02*
X88025939Y-122343685D01*
X88025939Y-122343685D02*
X88025939Y-122557971D01*
X88025939Y-122557971D02*
X88097367Y-122843685D01*
X88097367Y-122843685D02*
X88168796Y-122986542D01*
X88168796Y-122986542D02*
X88311653Y-123129400D01*
X88311653Y-123129400D02*
X88525939Y-123200828D01*
X88525939Y-123200828D02*
X88668796Y-123200828D01*
X88668796Y-123200828D02*
X88883082Y-123129400D01*
X88883082Y-123129400D02*
X88954510Y-123057971D01*
X88954510Y-123057971D02*
X88954510Y-122557971D01*
X88954510Y-122557971D02*
X88668796Y-122557971D01*
X89597367Y-123200828D02*
X89597367Y-121700828D01*
X89597367Y-121700828D02*
X90454510Y-123200828D01*
X90454510Y-123200828D02*
X90454510Y-121700828D01*
X91168796Y-123200828D02*
X91168796Y-121700828D01*
X91168796Y-121700828D02*
X91525939Y-121700828D01*
X91525939Y-121700828D02*
X91740225Y-121772257D01*
X91740225Y-121772257D02*
X91883082Y-121915114D01*
X91883082Y-121915114D02*
X91954511Y-122057971D01*
X91954511Y-122057971D02*
X92025939Y-122343685D01*
X92025939Y-122343685D02*
X92025939Y-122557971D01*
X92025939Y-122557971D02*
X91954511Y-122843685D01*
X91954511Y-122843685D02*
X91883082Y-122986542D01*
X91883082Y-122986542D02*
X91740225Y-123129400D01*
X91740225Y-123129400D02*
X91525939Y-123200828D01*
X91525939Y-123200828D02*
X91168796Y-123200828D01*
X70454510Y-120000198D02*
X70668796Y-120071626D01*
X70668796Y-120071626D02*
X70740225Y-120143055D01*
X70740225Y-120143055D02*
X70811653Y-120285912D01*
X70811653Y-120285912D02*
X70811653Y-120500198D01*
X70811653Y-120500198D02*
X70740225Y-120643055D01*
X70740225Y-120643055D02*
X70668796Y-120714484D01*
X70668796Y-120714484D02*
X70525939Y-120785912D01*
X70525939Y-120785912D02*
X69954510Y-120785912D01*
X69954510Y-120785912D02*
X69954510Y-119285912D01*
X69954510Y-119285912D02*
X70454510Y-119285912D01*
X70454510Y-119285912D02*
X70597368Y-119357341D01*
X70597368Y-119357341D02*
X70668796Y-119428769D01*
X70668796Y-119428769D02*
X70740225Y-119571626D01*
X70740225Y-119571626D02*
X70740225Y-119714484D01*
X70740225Y-119714484D02*
X70668796Y-119857341D01*
X70668796Y-119857341D02*
X70597368Y-119928769D01*
X70597368Y-119928769D02*
X70454510Y-120000198D01*
X70454510Y-120000198D02*
X69954510Y-120000198D01*
X71454510Y-120785912D02*
X71454510Y-119785912D01*
X71454510Y-120071626D02*
X71525939Y-119928769D01*
X71525939Y-119928769D02*
X71597368Y-119857341D01*
X71597368Y-119857341D02*
X71740225Y-119785912D01*
X71740225Y-119785912D02*
X71883082Y-119785912D01*
X72954510Y-120714484D02*
X72811653Y-120785912D01*
X72811653Y-120785912D02*
X72525939Y-120785912D01*
X72525939Y-120785912D02*
X72383081Y-120714484D01*
X72383081Y-120714484D02*
X72311653Y-120571626D01*
X72311653Y-120571626D02*
X72311653Y-120000198D01*
X72311653Y-120000198D02*
X72383081Y-119857341D01*
X72383081Y-119857341D02*
X72525939Y-119785912D01*
X72525939Y-119785912D02*
X72811653Y-119785912D01*
X72811653Y-119785912D02*
X72954510Y-119857341D01*
X72954510Y-119857341D02*
X73025939Y-120000198D01*
X73025939Y-120000198D02*
X73025939Y-120143055D01*
X73025939Y-120143055D02*
X72311653Y-120285912D01*
X73668795Y-120785912D02*
X73668795Y-119785912D01*
X73668795Y-119928769D02*
X73740224Y-119857341D01*
X73740224Y-119857341D02*
X73883081Y-119785912D01*
X73883081Y-119785912D02*
X74097367Y-119785912D01*
X74097367Y-119785912D02*
X74240224Y-119857341D01*
X74240224Y-119857341D02*
X74311653Y-120000198D01*
X74311653Y-120000198D02*
X74311653Y-120785912D01*
X74311653Y-120000198D02*
X74383081Y-119857341D01*
X74383081Y-119857341D02*
X74525938Y-119785912D01*
X74525938Y-119785912D02*
X74740224Y-119785912D01*
X74740224Y-119785912D02*
X74883081Y-119857341D01*
X74883081Y-119857341D02*
X74954510Y-120000198D01*
X74954510Y-120000198D02*
X74954510Y-120785912D01*
X75597367Y-120714484D02*
X75740224Y-120785912D01*
X75740224Y-120785912D02*
X76025938Y-120785912D01*
X76025938Y-120785912D02*
X76168795Y-120714484D01*
X76168795Y-120714484D02*
X76240224Y-120571626D01*
X76240224Y-120571626D02*
X76240224Y-120500198D01*
X76240224Y-120500198D02*
X76168795Y-120357341D01*
X76168795Y-120357341D02*
X76025938Y-120285912D01*
X76025938Y-120285912D02*
X75811653Y-120285912D01*
X75811653Y-120285912D02*
X75668795Y-120214484D01*
X75668795Y-120214484D02*
X75597367Y-120071626D01*
X75597367Y-120071626D02*
X75597367Y-120000198D01*
X75597367Y-120000198D02*
X75668795Y-119857341D01*
X75668795Y-119857341D02*
X75811653Y-119785912D01*
X75811653Y-119785912D02*
X76025938Y-119785912D01*
X76025938Y-119785912D02*
X76168795Y-119857341D01*
X77097367Y-120785912D02*
X76954510Y-120714484D01*
X76954510Y-120714484D02*
X76883081Y-120571626D01*
X76883081Y-120571626D02*
X76883081Y-119285912D01*
X77668795Y-120785912D02*
X77668795Y-119785912D01*
X77668795Y-119285912D02*
X77597367Y-119357341D01*
X77597367Y-119357341D02*
X77668795Y-119428769D01*
X77668795Y-119428769D02*
X77740224Y-119357341D01*
X77740224Y-119357341D02*
X77668795Y-119285912D01*
X77668795Y-119285912D02*
X77668795Y-119428769D01*
X79025939Y-120714484D02*
X78883081Y-120785912D01*
X78883081Y-120785912D02*
X78597367Y-120785912D01*
X78597367Y-120785912D02*
X78454510Y-120714484D01*
X78454510Y-120714484D02*
X78383081Y-120643055D01*
X78383081Y-120643055D02*
X78311653Y-120500198D01*
X78311653Y-120500198D02*
X78311653Y-120071626D01*
X78311653Y-120071626D02*
X78383081Y-119928769D01*
X78383081Y-119928769D02*
X78454510Y-119857341D01*
X78454510Y-119857341D02*
X78597367Y-119785912D01*
X78597367Y-119785912D02*
X78883081Y-119785912D01*
X78883081Y-119785912D02*
X79025939Y-119857341D01*
X79668795Y-120785912D02*
X79668795Y-119285912D01*
X80311653Y-120785912D02*
X80311653Y-120000198D01*
X80311653Y-120000198D02*
X80240224Y-119857341D01*
X80240224Y-119857341D02*
X80097367Y-119785912D01*
X80097367Y-119785912D02*
X79883081Y-119785912D01*
X79883081Y-119785912D02*
X79740224Y-119857341D01*
X79740224Y-119857341D02*
X79668795Y-119928769D01*
X80811653Y-119785912D02*
X81383081Y-119785912D01*
X81025938Y-119285912D02*
X81025938Y-120571626D01*
X81025938Y-120571626D02*
X81097367Y-120714484D01*
X81097367Y-120714484D02*
X81240224Y-120785912D01*
X81240224Y-120785912D02*
X81383081Y-120785912D01*
X69954510Y-122629400D02*
X71097368Y-122629400D01*
X70525939Y-123200828D02*
X70525939Y-122057971D01*
X74883082Y-121772257D02*
X74740225Y-121700828D01*
X74740225Y-121700828D02*
X74525939Y-121700828D01*
X74525939Y-121700828D02*
X74311653Y-121772257D01*
X74311653Y-121772257D02*
X74168796Y-121915114D01*
X74168796Y-121915114D02*
X74097367Y-122057971D01*
X74097367Y-122057971D02*
X74025939Y-122343685D01*
X74025939Y-122343685D02*
X74025939Y-122557971D01*
X74025939Y-122557971D02*
X74097367Y-122843685D01*
X74097367Y-122843685D02*
X74168796Y-122986542D01*
X74168796Y-122986542D02*
X74311653Y-123129400D01*
X74311653Y-123129400D02*
X74525939Y-123200828D01*
X74525939Y-123200828D02*
X74668796Y-123200828D01*
X74668796Y-123200828D02*
X74883082Y-123129400D01*
X74883082Y-123129400D02*
X74954510Y-123057971D01*
X74954510Y-123057971D02*
X74954510Y-122557971D01*
X74954510Y-122557971D02*
X74668796Y-122557971D01*
X75597367Y-123200828D02*
X75597367Y-121700828D01*
X75597367Y-121700828D02*
X76454510Y-123200828D01*
X76454510Y-123200828D02*
X76454510Y-121700828D01*
X77168796Y-123200828D02*
X77168796Y-121700828D01*
X77168796Y-121700828D02*
X77525939Y-121700828D01*
X77525939Y-121700828D02*
X77740225Y-121772257D01*
X77740225Y-121772257D02*
X77883082Y-121915114D01*
X77883082Y-121915114D02*
X77954511Y-122057971D01*
X77954511Y-122057971D02*
X78025939Y-122343685D01*
X78025939Y-122343685D02*
X78025939Y-122557971D01*
X78025939Y-122557971D02*
X77954511Y-122843685D01*
X77954511Y-122843685D02*
X77883082Y-122986542D01*
X77883082Y-122986542D02*
X77740225Y-123129400D01*
X77740225Y-123129400D02*
X77525939Y-123200828D01*
X77525939Y-123200828D02*
X77168796Y-123200828D01*
X99125939Y-58324988D02*
X98983082Y-58396416D01*
X98983082Y-58396416D02*
X98697368Y-58396416D01*
X98697368Y-58396416D02*
X98554510Y-58324988D01*
X98554510Y-58324988D02*
X98483082Y-58182130D01*
X98483082Y-58182130D02*
X98483082Y-57610702D01*
X98483082Y-57610702D02*
X98554510Y-57467845D01*
X98554510Y-57467845D02*
X98697368Y-57396416D01*
X98697368Y-57396416D02*
X98983082Y-57396416D01*
X98983082Y-57396416D02*
X99125939Y-57467845D01*
X99125939Y-57467845D02*
X99197368Y-57610702D01*
X99197368Y-57610702D02*
X99197368Y-57753559D01*
X99197368Y-57753559D02*
X98483082Y-57896416D01*
X100054510Y-58396416D02*
X99911653Y-58324988D01*
X99911653Y-58324988D02*
X99840224Y-58182130D01*
X99840224Y-58182130D02*
X99840224Y-56896416D01*
X100411653Y-56896416D02*
X100911653Y-58396416D01*
X100911653Y-58396416D02*
X101411653Y-56896416D01*
X101911652Y-57610702D02*
X102411652Y-57610702D01*
X102625938Y-58396416D02*
X101911652Y-58396416D01*
X101911652Y-58396416D02*
X101911652Y-56896416D01*
X101911652Y-56896416D02*
X102625938Y-56896416D01*
X103197367Y-58324988D02*
X103411653Y-58396416D01*
X103411653Y-58396416D02*
X103768795Y-58396416D01*
X103768795Y-58396416D02*
X103911653Y-58324988D01*
X103911653Y-58324988D02*
X103983081Y-58253559D01*
X103983081Y-58253559D02*
X104054510Y-58110702D01*
X104054510Y-58110702D02*
X104054510Y-57967845D01*
X104054510Y-57967845D02*
X103983081Y-57824988D01*
X103983081Y-57824988D02*
X103911653Y-57753559D01*
X103911653Y-57753559D02*
X103768795Y-57682130D01*
X103768795Y-57682130D02*
X103483081Y-57610702D01*
X103483081Y-57610702D02*
X103340224Y-57539273D01*
X103340224Y-57539273D02*
X103268795Y-57467845D01*
X103268795Y-57467845D02*
X103197367Y-57324988D01*
X103197367Y-57324988D02*
X103197367Y-57182130D01*
X103197367Y-57182130D02*
X103268795Y-57039273D01*
X103268795Y-57039273D02*
X103340224Y-56967845D01*
X103340224Y-56967845D02*
X103483081Y-56896416D01*
X103483081Y-56896416D02*
X103840224Y-56896416D01*
X103840224Y-56896416D02*
X104054510Y-56967845D01*
X105554509Y-58253559D02*
X105483081Y-58324988D01*
X105483081Y-58324988D02*
X105268795Y-58396416D01*
X105268795Y-58396416D02*
X105125938Y-58396416D01*
X105125938Y-58396416D02*
X104911652Y-58324988D01*
X104911652Y-58324988D02*
X104768795Y-58182130D01*
X104768795Y-58182130D02*
X104697366Y-58039273D01*
X104697366Y-58039273D02*
X104625938Y-57753559D01*
X104625938Y-57753559D02*
X104625938Y-57539273D01*
X104625938Y-57539273D02*
X104697366Y-57253559D01*
X104697366Y-57253559D02*
X104768795Y-57110702D01*
X104768795Y-57110702D02*
X104911652Y-56967845D01*
X104911652Y-56967845D02*
X105125938Y-56896416D01*
X105125938Y-56896416D02*
X105268795Y-56896416D01*
X105268795Y-56896416D02*
X105483081Y-56967845D01*
X105483081Y-56967845D02*
X105554509Y-57039273D01*
X98483082Y-60739904D02*
X98697368Y-60811332D01*
X98697368Y-60811332D02*
X99054510Y-60811332D01*
X99054510Y-60811332D02*
X99197368Y-60739904D01*
X99197368Y-60739904D02*
X99268796Y-60668475D01*
X99268796Y-60668475D02*
X99340225Y-60525618D01*
X99340225Y-60525618D02*
X99340225Y-60382761D01*
X99340225Y-60382761D02*
X99268796Y-60239904D01*
X99268796Y-60239904D02*
X99197368Y-60168475D01*
X99197368Y-60168475D02*
X99054510Y-60097046D01*
X99054510Y-60097046D02*
X98768796Y-60025618D01*
X98768796Y-60025618D02*
X98625939Y-59954189D01*
X98625939Y-59954189D02*
X98554510Y-59882761D01*
X98554510Y-59882761D02*
X98483082Y-59739904D01*
X98483082Y-59739904D02*
X98483082Y-59597046D01*
X98483082Y-59597046D02*
X98554510Y-59454189D01*
X98554510Y-59454189D02*
X98625939Y-59382761D01*
X98625939Y-59382761D02*
X98768796Y-59311332D01*
X98768796Y-59311332D02*
X99125939Y-59311332D01*
X99125939Y-59311332D02*
X99340225Y-59382761D01*
X100625939Y-60739904D02*
X100483081Y-60811332D01*
X100483081Y-60811332D02*
X100197367Y-60811332D01*
X100197367Y-60811332D02*
X100054510Y-60739904D01*
X100054510Y-60739904D02*
X99983081Y-60668475D01*
X99983081Y-60668475D02*
X99911653Y-60525618D01*
X99911653Y-60525618D02*
X99911653Y-60097046D01*
X99911653Y-60097046D02*
X99983081Y-59954189D01*
X99983081Y-59954189D02*
X100054510Y-59882761D01*
X100054510Y-59882761D02*
X100197367Y-59811332D01*
X100197367Y-59811332D02*
X100483081Y-59811332D01*
X100483081Y-59811332D02*
X100625939Y-59882761D01*
X101268795Y-60811332D02*
X101268795Y-59311332D01*
X101911653Y-60811332D02*
X101911653Y-60025618D01*
X101911653Y-60025618D02*
X101840224Y-59882761D01*
X101840224Y-59882761D02*
X101697367Y-59811332D01*
X101697367Y-59811332D02*
X101483081Y-59811332D01*
X101483081Y-59811332D02*
X101340224Y-59882761D01*
X101340224Y-59882761D02*
X101268795Y-59954189D01*
X103268796Y-60811332D02*
X103268796Y-60025618D01*
X103268796Y-60025618D02*
X103197367Y-59882761D01*
X103197367Y-59882761D02*
X103054510Y-59811332D01*
X103054510Y-59811332D02*
X102768796Y-59811332D01*
X102768796Y-59811332D02*
X102625938Y-59882761D01*
X103268796Y-60739904D02*
X103125938Y-60811332D01*
X103125938Y-60811332D02*
X102768796Y-60811332D01*
X102768796Y-60811332D02*
X102625938Y-60739904D01*
X102625938Y-60739904D02*
X102554510Y-60597046D01*
X102554510Y-60597046D02*
X102554510Y-60454189D01*
X102554510Y-60454189D02*
X102625938Y-60311332D01*
X102625938Y-60311332D02*
X102768796Y-60239904D01*
X102768796Y-60239904D02*
X103125938Y-60239904D01*
X103125938Y-60239904D02*
X103268796Y-60168475D01*
X104197367Y-60811332D02*
X104054510Y-60739904D01*
X104054510Y-60739904D02*
X103983081Y-60597046D01*
X103983081Y-60597046D02*
X103983081Y-59311332D01*
X104554510Y-59811332D02*
X105125938Y-59811332D01*
X104768795Y-59311332D02*
X104768795Y-60597046D01*
X104768795Y-60597046D02*
X104840224Y-60739904D01*
X104840224Y-60739904D02*
X104983081Y-60811332D01*
X104983081Y-60811332D02*
X105125938Y-60811332D01*
X106268796Y-59811332D02*
X106268796Y-60811332D01*
X105625938Y-59811332D02*
X105625938Y-60597046D01*
X105625938Y-60597046D02*
X105697367Y-60739904D01*
X105697367Y-60739904D02*
X105840224Y-60811332D01*
X105840224Y-60811332D02*
X106054510Y-60811332D01*
X106054510Y-60811332D02*
X106197367Y-60739904D01*
X106197367Y-60739904D02*
X106268796Y-60668475D01*
X106983081Y-59811332D02*
X106983081Y-60811332D01*
X106983081Y-59954189D02*
X107054510Y-59882761D01*
X107054510Y-59882761D02*
X107197367Y-59811332D01*
X107197367Y-59811332D02*
X107411653Y-59811332D01*
X107411653Y-59811332D02*
X107554510Y-59882761D01*
X107554510Y-59882761D02*
X107625939Y-60025618D01*
X107625939Y-60025618D02*
X107625939Y-60811332D01*
X108983082Y-59811332D02*
X108983082Y-61025618D01*
X108983082Y-61025618D02*
X108911653Y-61168475D01*
X108911653Y-61168475D02*
X108840224Y-61239904D01*
X108840224Y-61239904D02*
X108697367Y-61311332D01*
X108697367Y-61311332D02*
X108483082Y-61311332D01*
X108483082Y-61311332D02*
X108340224Y-61239904D01*
X108983082Y-60739904D02*
X108840224Y-60811332D01*
X108840224Y-60811332D02*
X108554510Y-60811332D01*
X108554510Y-60811332D02*
X108411653Y-60739904D01*
X108411653Y-60739904D02*
X108340224Y-60668475D01*
X108340224Y-60668475D02*
X108268796Y-60525618D01*
X108268796Y-60525618D02*
X108268796Y-60097046D01*
X108268796Y-60097046D02*
X108340224Y-59954189D01*
X108340224Y-59954189D02*
X108411653Y-59882761D01*
X108411653Y-59882761D02*
X108554510Y-59811332D01*
X108554510Y-59811332D02*
X108840224Y-59811332D01*
X108840224Y-59811332D02*
X108983082Y-59882761D01*
X109625939Y-60739904D02*
X109768796Y-60811332D01*
X109768796Y-60811332D02*
X110054510Y-60811332D01*
X110054510Y-60811332D02*
X110197367Y-60739904D01*
X110197367Y-60739904D02*
X110268796Y-60597046D01*
X110268796Y-60597046D02*
X110268796Y-60525618D01*
X110268796Y-60525618D02*
X110197367Y-60382761D01*
X110197367Y-60382761D02*
X110054510Y-60311332D01*
X110054510Y-60311332D02*
X109840225Y-60311332D01*
X109840225Y-60311332D02*
X109697367Y-60239904D01*
X109697367Y-60239904D02*
X109625939Y-60097046D01*
X109625939Y-60097046D02*
X109625939Y-60025618D01*
X109625939Y-60025618D02*
X109697367Y-59882761D01*
X109697367Y-59882761D02*
X109840225Y-59811332D01*
X109840225Y-59811332D02*
X110054510Y-59811332D01*
X110054510Y-59811332D02*
X110197367Y-59882761D01*
X110911653Y-60239904D02*
X112054511Y-60239904D01*
X114554511Y-59811332D02*
X114554511Y-60811332D01*
X113911653Y-59811332D02*
X113911653Y-60597046D01*
X113911653Y-60597046D02*
X113983082Y-60739904D01*
X113983082Y-60739904D02*
X114125939Y-60811332D01*
X114125939Y-60811332D02*
X114340225Y-60811332D01*
X114340225Y-60811332D02*
X114483082Y-60739904D01*
X114483082Y-60739904D02*
X114554511Y-60668475D01*
X115268796Y-59811332D02*
X115268796Y-60811332D01*
X115268796Y-59954189D02*
X115340225Y-59882761D01*
X115340225Y-59882761D02*
X115483082Y-59811332D01*
X115483082Y-59811332D02*
X115697368Y-59811332D01*
X115697368Y-59811332D02*
X115840225Y-59882761D01*
X115840225Y-59882761D02*
X115911654Y-60025618D01*
X115911654Y-60025618D02*
X115911654Y-60811332D01*
X117268797Y-60811332D02*
X117268797Y-59311332D01*
X117268797Y-60739904D02*
X117125939Y-60811332D01*
X117125939Y-60811332D02*
X116840225Y-60811332D01*
X116840225Y-60811332D02*
X116697368Y-60739904D01*
X116697368Y-60739904D02*
X116625939Y-60668475D01*
X116625939Y-60668475D02*
X116554511Y-60525618D01*
X116554511Y-60525618D02*
X116554511Y-60097046D01*
X116554511Y-60097046D02*
X116625939Y-59954189D01*
X116625939Y-59954189D02*
X116697368Y-59882761D01*
X116697368Y-59882761D02*
X116840225Y-59811332D01*
X116840225Y-59811332D02*
X117125939Y-59811332D01*
X117125939Y-59811332D02*
X117268797Y-59882761D01*
X98483082Y-63154820D02*
X98697368Y-63226248D01*
X98697368Y-63226248D02*
X99054510Y-63226248D01*
X99054510Y-63226248D02*
X99197368Y-63154820D01*
X99197368Y-63154820D02*
X99268796Y-63083391D01*
X99268796Y-63083391D02*
X99340225Y-62940534D01*
X99340225Y-62940534D02*
X99340225Y-62797677D01*
X99340225Y-62797677D02*
X99268796Y-62654820D01*
X99268796Y-62654820D02*
X99197368Y-62583391D01*
X99197368Y-62583391D02*
X99054510Y-62511962D01*
X99054510Y-62511962D02*
X98768796Y-62440534D01*
X98768796Y-62440534D02*
X98625939Y-62369105D01*
X98625939Y-62369105D02*
X98554510Y-62297677D01*
X98554510Y-62297677D02*
X98483082Y-62154820D01*
X98483082Y-62154820D02*
X98483082Y-62011962D01*
X98483082Y-62011962D02*
X98554510Y-61869105D01*
X98554510Y-61869105D02*
X98625939Y-61797677D01*
X98625939Y-61797677D02*
X98768796Y-61726248D01*
X98768796Y-61726248D02*
X99125939Y-61726248D01*
X99125939Y-61726248D02*
X99340225Y-61797677D01*
X99768796Y-62226248D02*
X100340224Y-62226248D01*
X99983081Y-61726248D02*
X99983081Y-63011962D01*
X99983081Y-63011962D02*
X100054510Y-63154820D01*
X100054510Y-63154820D02*
X100197367Y-63226248D01*
X100197367Y-63226248D02*
X100340224Y-63226248D01*
X100840224Y-63226248D02*
X100840224Y-62226248D01*
X100840224Y-62511962D02*
X100911653Y-62369105D01*
X100911653Y-62369105D02*
X100983082Y-62297677D01*
X100983082Y-62297677D02*
X101125939Y-62226248D01*
X101125939Y-62226248D02*
X101268796Y-62226248D01*
X101983081Y-63226248D02*
X101840224Y-63154820D01*
X101840224Y-63154820D02*
X101768795Y-63083391D01*
X101768795Y-63083391D02*
X101697367Y-62940534D01*
X101697367Y-62940534D02*
X101697367Y-62511962D01*
X101697367Y-62511962D02*
X101768795Y-62369105D01*
X101768795Y-62369105D02*
X101840224Y-62297677D01*
X101840224Y-62297677D02*
X101983081Y-62226248D01*
X101983081Y-62226248D02*
X102197367Y-62226248D01*
X102197367Y-62226248D02*
X102340224Y-62297677D01*
X102340224Y-62297677D02*
X102411653Y-62369105D01*
X102411653Y-62369105D02*
X102483081Y-62511962D01*
X102483081Y-62511962D02*
X102483081Y-62940534D01*
X102483081Y-62940534D02*
X102411653Y-63083391D01*
X102411653Y-63083391D02*
X102340224Y-63154820D01*
X102340224Y-63154820D02*
X102197367Y-63226248D01*
X102197367Y-63226248D02*
X101983081Y-63226248D01*
X103125938Y-63226248D02*
X103125938Y-62226248D01*
X103125938Y-62369105D02*
X103197367Y-62297677D01*
X103197367Y-62297677D02*
X103340224Y-62226248D01*
X103340224Y-62226248D02*
X103554510Y-62226248D01*
X103554510Y-62226248D02*
X103697367Y-62297677D01*
X103697367Y-62297677D02*
X103768796Y-62440534D01*
X103768796Y-62440534D02*
X103768796Y-63226248D01*
X103768796Y-62440534D02*
X103840224Y-62297677D01*
X103840224Y-62297677D02*
X103983081Y-62226248D01*
X103983081Y-62226248D02*
X104197367Y-62226248D01*
X104197367Y-62226248D02*
X104340224Y-62297677D01*
X104340224Y-62297677D02*
X104411653Y-62440534D01*
X104411653Y-62440534D02*
X104411653Y-63226248D01*
X104983081Y-62226248D02*
X105340224Y-63226248D01*
X105340224Y-63226248D02*
X105697367Y-62226248D01*
X106840224Y-63154820D02*
X106697367Y-63226248D01*
X106697367Y-63226248D02*
X106411653Y-63226248D01*
X106411653Y-63226248D02*
X106268795Y-63154820D01*
X106268795Y-63154820D02*
X106197367Y-63011962D01*
X106197367Y-63011962D02*
X106197367Y-62440534D01*
X106197367Y-62440534D02*
X106268795Y-62297677D01*
X106268795Y-62297677D02*
X106411653Y-62226248D01*
X106411653Y-62226248D02*
X106697367Y-62226248D01*
X106697367Y-62226248D02*
X106840224Y-62297677D01*
X106840224Y-62297677D02*
X106911653Y-62440534D01*
X106911653Y-62440534D02*
X106911653Y-62583391D01*
X106911653Y-62583391D02*
X106197367Y-62726248D01*
X107554509Y-63226248D02*
X107554509Y-62226248D01*
X107554509Y-62511962D02*
X107625938Y-62369105D01*
X107625938Y-62369105D02*
X107697367Y-62297677D01*
X107697367Y-62297677D02*
X107840224Y-62226248D01*
X107840224Y-62226248D02*
X107983081Y-62226248D01*
X108268795Y-62226248D02*
X108840223Y-62226248D01*
X108483080Y-61726248D02*
X108483080Y-63011962D01*
X108483080Y-63011962D02*
X108554509Y-63154820D01*
X108554509Y-63154820D02*
X108697366Y-63226248D01*
X108697366Y-63226248D02*
X108840223Y-63226248D01*
X109911652Y-63154820D02*
X109768795Y-63226248D01*
X109768795Y-63226248D02*
X109483081Y-63226248D01*
X109483081Y-63226248D02*
X109340223Y-63154820D01*
X109340223Y-63154820D02*
X109268795Y-63011962D01*
X109268795Y-63011962D02*
X109268795Y-62440534D01*
X109268795Y-62440534D02*
X109340223Y-62297677D01*
X109340223Y-62297677D02*
X109483081Y-62226248D01*
X109483081Y-62226248D02*
X109768795Y-62226248D01*
X109768795Y-62226248D02*
X109911652Y-62297677D01*
X109911652Y-62297677D02*
X109983081Y-62440534D01*
X109983081Y-62440534D02*
X109983081Y-62583391D01*
X109983081Y-62583391D02*
X109268795Y-62726248D01*
X110625937Y-63226248D02*
X110625937Y-62226248D01*
X110625937Y-61726248D02*
X110554509Y-61797677D01*
X110554509Y-61797677D02*
X110625937Y-61869105D01*
X110625937Y-61869105D02*
X110697366Y-61797677D01*
X110697366Y-61797677D02*
X110625937Y-61726248D01*
X110625937Y-61726248D02*
X110625937Y-61869105D01*
X111554509Y-63226248D02*
X111411652Y-63154820D01*
X111411652Y-63154820D02*
X111340223Y-63011962D01*
X111340223Y-63011962D02*
X111340223Y-61726248D01*
X112697366Y-63154820D02*
X112554509Y-63226248D01*
X112554509Y-63226248D02*
X112268795Y-63226248D01*
X112268795Y-63226248D02*
X112125937Y-63154820D01*
X112125937Y-63154820D02*
X112054509Y-63011962D01*
X112054509Y-63011962D02*
X112054509Y-62440534D01*
X112054509Y-62440534D02*
X112125937Y-62297677D01*
X112125937Y-62297677D02*
X112268795Y-62226248D01*
X112268795Y-62226248D02*
X112554509Y-62226248D01*
X112554509Y-62226248D02*
X112697366Y-62297677D01*
X112697366Y-62297677D02*
X112768795Y-62440534D01*
X112768795Y-62440534D02*
X112768795Y-62583391D01*
X112768795Y-62583391D02*
X112054509Y-62726248D01*
X113411651Y-63226248D02*
X113411651Y-62226248D01*
X113411651Y-62511962D02*
X113483080Y-62369105D01*
X113483080Y-62369105D02*
X113554509Y-62297677D01*
X113554509Y-62297677D02*
X113697366Y-62226248D01*
X113697366Y-62226248D02*
X113840223Y-62226248D01*
X114340222Y-62226248D02*
X114340222Y-63726248D01*
X114340222Y-62297677D02*
X114483080Y-62226248D01*
X114483080Y-62226248D02*
X114768794Y-62226248D01*
X114768794Y-62226248D02*
X114911651Y-62297677D01*
X114911651Y-62297677D02*
X114983080Y-62369105D01*
X114983080Y-62369105D02*
X115054508Y-62511962D01*
X115054508Y-62511962D02*
X115054508Y-62940534D01*
X115054508Y-62940534D02*
X114983080Y-63083391D01*
X114983080Y-63083391D02*
X114911651Y-63154820D01*
X114911651Y-63154820D02*
X114768794Y-63226248D01*
X114768794Y-63226248D02*
X114483080Y-63226248D01*
X114483080Y-63226248D02*
X114340222Y-63154820D01*
X115911651Y-63226248D02*
X115768794Y-63154820D01*
X115768794Y-63154820D02*
X115697365Y-63011962D01*
X115697365Y-63011962D02*
X115697365Y-61726248D01*
X117125937Y-63226248D02*
X117125937Y-62440534D01*
X117125937Y-62440534D02*
X117054508Y-62297677D01*
X117054508Y-62297677D02*
X116911651Y-62226248D01*
X116911651Y-62226248D02*
X116625937Y-62226248D01*
X116625937Y-62226248D02*
X116483079Y-62297677D01*
X117125937Y-63154820D02*
X116983079Y-63226248D01*
X116983079Y-63226248D02*
X116625937Y-63226248D01*
X116625937Y-63226248D02*
X116483079Y-63154820D01*
X116483079Y-63154820D02*
X116411651Y-63011962D01*
X116411651Y-63011962D02*
X116411651Y-62869105D01*
X116411651Y-62869105D02*
X116483079Y-62726248D01*
X116483079Y-62726248D02*
X116625937Y-62654820D01*
X116625937Y-62654820D02*
X116983079Y-62654820D01*
X116983079Y-62654820D02*
X117125937Y-62583391D01*
X117625937Y-62226248D02*
X118197365Y-62226248D01*
X117840222Y-61726248D02*
X117840222Y-63011962D01*
X117840222Y-63011962D02*
X117911651Y-63154820D01*
X117911651Y-63154820D02*
X118054508Y-63226248D01*
X118054508Y-63226248D02*
X118197365Y-63226248D01*
X118697365Y-63226248D02*
X118697365Y-62226248D01*
X118697365Y-61726248D02*
X118625937Y-61797677D01*
X118625937Y-61797677D02*
X118697365Y-61869105D01*
X118697365Y-61869105D02*
X118768794Y-61797677D01*
X118768794Y-61797677D02*
X118697365Y-61726248D01*
X118697365Y-61726248D02*
X118697365Y-61869105D01*
X119411651Y-62226248D02*
X119411651Y-63226248D01*
X119411651Y-62369105D02*
X119483080Y-62297677D01*
X119483080Y-62297677D02*
X119625937Y-62226248D01*
X119625937Y-62226248D02*
X119840223Y-62226248D01*
X119840223Y-62226248D02*
X119983080Y-62297677D01*
X119983080Y-62297677D02*
X120054509Y-62440534D01*
X120054509Y-62440534D02*
X120054509Y-63226248D01*
X121340223Y-63154820D02*
X121197366Y-63226248D01*
X121197366Y-63226248D02*
X120911652Y-63226248D01*
X120911652Y-63226248D02*
X120768794Y-63154820D01*
X120768794Y-63154820D02*
X120697366Y-63011962D01*
X120697366Y-63011962D02*
X120697366Y-62440534D01*
X120697366Y-62440534D02*
X120768794Y-62297677D01*
X120768794Y-62297677D02*
X120911652Y-62226248D01*
X120911652Y-62226248D02*
X121197366Y-62226248D01*
X121197366Y-62226248D02*
X121340223Y-62297677D01*
X121340223Y-62297677D02*
X121411652Y-62440534D01*
X121411652Y-62440534D02*
X121411652Y-62583391D01*
X121411652Y-62583391D02*
X120697366Y-62726248D01*
X98340225Y-64641164D02*
X98911653Y-64641164D01*
X98554510Y-65641164D02*
X98554510Y-64355450D01*
X98554510Y-64355450D02*
X98625939Y-64212593D01*
X98625939Y-64212593D02*
X98768796Y-64141164D01*
X98768796Y-64141164D02*
X98911653Y-64141164D01*
X100054511Y-64641164D02*
X100054511Y-65641164D01*
X99411653Y-64641164D02*
X99411653Y-65426878D01*
X99411653Y-65426878D02*
X99483082Y-65569736D01*
X99483082Y-65569736D02*
X99625939Y-65641164D01*
X99625939Y-65641164D02*
X99840225Y-65641164D01*
X99840225Y-65641164D02*
X99983082Y-65569736D01*
X99983082Y-65569736D02*
X100054511Y-65498307D01*
X99483082Y-64141164D02*
X99554511Y-64212593D01*
X99554511Y-64212593D02*
X99483082Y-64284021D01*
X99483082Y-64284021D02*
X99411653Y-64212593D01*
X99411653Y-64212593D02*
X99483082Y-64141164D01*
X99483082Y-64141164D02*
X99483082Y-64284021D01*
X100054511Y-64141164D02*
X100125939Y-64212593D01*
X100125939Y-64212593D02*
X100054511Y-64284021D01*
X100054511Y-64284021D02*
X99983082Y-64212593D01*
X99983082Y-64212593D02*
X100054511Y-64141164D01*
X100054511Y-64141164D02*
X100054511Y-64284021D01*
X100768796Y-65641164D02*
X100768796Y-64641164D01*
X100768796Y-64926878D02*
X100840225Y-64784021D01*
X100840225Y-64784021D02*
X100911654Y-64712593D01*
X100911654Y-64712593D02*
X101054511Y-64641164D01*
X101054511Y-64641164D02*
X101197368Y-64641164D01*
X103625939Y-65641164D02*
X102768796Y-65641164D01*
X103197367Y-65641164D02*
X103197367Y-64141164D01*
X103197367Y-64141164D02*
X103054510Y-64355450D01*
X103054510Y-64355450D02*
X102911653Y-64498307D01*
X102911653Y-64498307D02*
X102768796Y-64569736D01*
X104197367Y-64284021D02*
X104268795Y-64212593D01*
X104268795Y-64212593D02*
X104411653Y-64141164D01*
X104411653Y-64141164D02*
X104768795Y-64141164D01*
X104768795Y-64141164D02*
X104911653Y-64212593D01*
X104911653Y-64212593D02*
X104983081Y-64284021D01*
X104983081Y-64284021D02*
X105054510Y-64426878D01*
X105054510Y-64426878D02*
X105054510Y-64569736D01*
X105054510Y-64569736D02*
X104983081Y-64784021D01*
X104983081Y-64784021D02*
X104125938Y-65641164D01*
X104125938Y-65641164D02*
X105054510Y-65641164D01*
X105483081Y-64141164D02*
X105983081Y-65641164D01*
X105983081Y-65641164D02*
X106483081Y-64141164D01*
X108125937Y-65641164D02*
X108125937Y-64141164D01*
X108125937Y-64855450D02*
X108983080Y-64855450D01*
X108983080Y-65641164D02*
X108983080Y-64141164D01*
X109697366Y-65641164D02*
X109697366Y-64641164D01*
X109697366Y-64141164D02*
X109625938Y-64212593D01*
X109625938Y-64212593D02*
X109697366Y-64284021D01*
X109697366Y-64284021D02*
X109768795Y-64212593D01*
X109768795Y-64212593D02*
X109697366Y-64141164D01*
X109697366Y-64141164D02*
X109697366Y-64284021D01*
X111054510Y-64641164D02*
X111054510Y-65855450D01*
X111054510Y-65855450D02*
X110983081Y-65998307D01*
X110983081Y-65998307D02*
X110911652Y-66069736D01*
X110911652Y-66069736D02*
X110768795Y-66141164D01*
X110768795Y-66141164D02*
X110554510Y-66141164D01*
X110554510Y-66141164D02*
X110411652Y-66069736D01*
X111054510Y-65569736D02*
X110911652Y-65641164D01*
X110911652Y-65641164D02*
X110625938Y-65641164D01*
X110625938Y-65641164D02*
X110483081Y-65569736D01*
X110483081Y-65569736D02*
X110411652Y-65498307D01*
X110411652Y-65498307D02*
X110340224Y-65355450D01*
X110340224Y-65355450D02*
X110340224Y-64926878D01*
X110340224Y-64926878D02*
X110411652Y-64784021D01*
X110411652Y-64784021D02*
X110483081Y-64712593D01*
X110483081Y-64712593D02*
X110625938Y-64641164D01*
X110625938Y-64641164D02*
X110911652Y-64641164D01*
X110911652Y-64641164D02*
X111054510Y-64712593D01*
X111768795Y-65641164D02*
X111768795Y-64141164D01*
X112411653Y-65641164D02*
X112411653Y-64855450D01*
X112411653Y-64855450D02*
X112340224Y-64712593D01*
X112340224Y-64712593D02*
X112197367Y-64641164D01*
X112197367Y-64641164D02*
X111983081Y-64641164D01*
X111983081Y-64641164D02*
X111840224Y-64712593D01*
X111840224Y-64712593D02*
X111768795Y-64784021D01*
X113054510Y-65569736D02*
X113268796Y-65641164D01*
X113268796Y-65641164D02*
X113625938Y-65641164D01*
X113625938Y-65641164D02*
X113768796Y-65569736D01*
X113768796Y-65569736D02*
X113840224Y-65498307D01*
X113840224Y-65498307D02*
X113911653Y-65355450D01*
X113911653Y-65355450D02*
X113911653Y-65212593D01*
X113911653Y-65212593D02*
X113840224Y-65069736D01*
X113840224Y-65069736D02*
X113768796Y-64998307D01*
X113768796Y-64998307D02*
X113625938Y-64926878D01*
X113625938Y-64926878D02*
X113340224Y-64855450D01*
X113340224Y-64855450D02*
X113197367Y-64784021D01*
X113197367Y-64784021D02*
X113125938Y-64712593D01*
X113125938Y-64712593D02*
X113054510Y-64569736D01*
X113054510Y-64569736D02*
X113054510Y-64426878D01*
X113054510Y-64426878D02*
X113125938Y-64284021D01*
X113125938Y-64284021D02*
X113197367Y-64212593D01*
X113197367Y-64212593D02*
X113340224Y-64141164D01*
X113340224Y-64141164D02*
X113697367Y-64141164D01*
X113697367Y-64141164D02*
X113911653Y-64212593D01*
X114554509Y-65641164D02*
X114554509Y-64641164D01*
X114554509Y-64141164D02*
X114483081Y-64212593D01*
X114483081Y-64212593D02*
X114554509Y-64284021D01*
X114554509Y-64284021D02*
X114625938Y-64212593D01*
X114625938Y-64212593D02*
X114554509Y-64141164D01*
X114554509Y-64141164D02*
X114554509Y-64284021D01*
X115911653Y-65641164D02*
X115911653Y-64141164D01*
X115911653Y-65569736D02*
X115768795Y-65641164D01*
X115768795Y-65641164D02*
X115483081Y-65641164D01*
X115483081Y-65641164D02*
X115340224Y-65569736D01*
X115340224Y-65569736D02*
X115268795Y-65498307D01*
X115268795Y-65498307D02*
X115197367Y-65355450D01*
X115197367Y-65355450D02*
X115197367Y-64926878D01*
X115197367Y-64926878D02*
X115268795Y-64784021D01*
X115268795Y-64784021D02*
X115340224Y-64712593D01*
X115340224Y-64712593D02*
X115483081Y-64641164D01*
X115483081Y-64641164D02*
X115768795Y-64641164D01*
X115768795Y-64641164D02*
X115911653Y-64712593D01*
X117197367Y-65569736D02*
X117054510Y-65641164D01*
X117054510Y-65641164D02*
X116768796Y-65641164D01*
X116768796Y-65641164D02*
X116625938Y-65569736D01*
X116625938Y-65569736D02*
X116554510Y-65426878D01*
X116554510Y-65426878D02*
X116554510Y-64855450D01*
X116554510Y-64855450D02*
X116625938Y-64712593D01*
X116625938Y-64712593D02*
X116768796Y-64641164D01*
X116768796Y-64641164D02*
X117054510Y-64641164D01*
X117054510Y-64641164D02*
X117197367Y-64712593D01*
X117197367Y-64712593D02*
X117268796Y-64855450D01*
X117268796Y-64855450D02*
X117268796Y-64998307D01*
X117268796Y-64998307D02*
X116554510Y-65141164D01*
X117840224Y-65569736D02*
X118054510Y-65641164D01*
X118054510Y-65641164D02*
X118411652Y-65641164D01*
X118411652Y-65641164D02*
X118554510Y-65569736D01*
X118554510Y-65569736D02*
X118625938Y-65498307D01*
X118625938Y-65498307D02*
X118697367Y-65355450D01*
X118697367Y-65355450D02*
X118697367Y-65212593D01*
X118697367Y-65212593D02*
X118625938Y-65069736D01*
X118625938Y-65069736D02*
X118554510Y-64998307D01*
X118554510Y-64998307D02*
X118411652Y-64926878D01*
X118411652Y-64926878D02*
X118125938Y-64855450D01*
X118125938Y-64855450D02*
X117983081Y-64784021D01*
X117983081Y-64784021D02*
X117911652Y-64712593D01*
X117911652Y-64712593D02*
X117840224Y-64569736D01*
X117840224Y-64569736D02*
X117840224Y-64426878D01*
X117840224Y-64426878D02*
X117911652Y-64284021D01*
X117911652Y-64284021D02*
X117983081Y-64212593D01*
X117983081Y-64212593D02*
X118125938Y-64141164D01*
X118125938Y-64141164D02*
X118483081Y-64141164D01*
X118483081Y-64141164D02*
X118697367Y-64212593D01*
X119197366Y-64641164D02*
X119483081Y-65641164D01*
X119483081Y-65641164D02*
X119768795Y-64926878D01*
X119768795Y-64926878D02*
X120054509Y-65641164D01*
X120054509Y-65641164D02*
X120340223Y-64641164D01*
X120911652Y-65641164D02*
X120911652Y-64641164D01*
X120911652Y-64141164D02*
X120840224Y-64212593D01*
X120840224Y-64212593D02*
X120911652Y-64284021D01*
X120911652Y-64284021D02*
X120983081Y-64212593D01*
X120983081Y-64212593D02*
X120911652Y-64141164D01*
X120911652Y-64141164D02*
X120911652Y-64284021D01*
X121411653Y-64641164D02*
X121983081Y-64641164D01*
X121625938Y-64141164D02*
X121625938Y-65426878D01*
X121625938Y-65426878D02*
X121697367Y-65569736D01*
X121697367Y-65569736D02*
X121840224Y-65641164D01*
X121840224Y-65641164D02*
X121983081Y-65641164D01*
X123125939Y-65569736D02*
X122983081Y-65641164D01*
X122983081Y-65641164D02*
X122697367Y-65641164D01*
X122697367Y-65641164D02*
X122554510Y-65569736D01*
X122554510Y-65569736D02*
X122483081Y-65498307D01*
X122483081Y-65498307D02*
X122411653Y-65355450D01*
X122411653Y-65355450D02*
X122411653Y-64926878D01*
X122411653Y-64926878D02*
X122483081Y-64784021D01*
X122483081Y-64784021D02*
X122554510Y-64712593D01*
X122554510Y-64712593D02*
X122697367Y-64641164D01*
X122697367Y-64641164D02*
X122983081Y-64641164D01*
X122983081Y-64641164D02*
X123125939Y-64712593D01*
X123768795Y-65641164D02*
X123768795Y-64141164D01*
X124411653Y-65641164D02*
X124411653Y-64855450D01*
X124411653Y-64855450D02*
X124340224Y-64712593D01*
X124340224Y-64712593D02*
X124197367Y-64641164D01*
X124197367Y-64641164D02*
X123983081Y-64641164D01*
X123983081Y-64641164D02*
X123840224Y-64712593D01*
X123840224Y-64712593D02*
X123768795Y-64784021D01*
X125125938Y-65641164D02*
X125125938Y-64641164D01*
X125125938Y-64141164D02*
X125054510Y-64212593D01*
X125054510Y-64212593D02*
X125125938Y-64284021D01*
X125125938Y-64284021D02*
X125197367Y-64212593D01*
X125197367Y-64212593D02*
X125125938Y-64141164D01*
X125125938Y-64141164D02*
X125125938Y-64284021D01*
X125840224Y-64641164D02*
X125840224Y-65641164D01*
X125840224Y-64784021D02*
X125911653Y-64712593D01*
X125911653Y-64712593D02*
X126054510Y-64641164D01*
X126054510Y-64641164D02*
X126268796Y-64641164D01*
X126268796Y-64641164D02*
X126411653Y-64712593D01*
X126411653Y-64712593D02*
X126483082Y-64855450D01*
X126483082Y-64855450D02*
X126483082Y-65641164D01*
X127840225Y-64641164D02*
X127840225Y-65855450D01*
X127840225Y-65855450D02*
X127768796Y-65998307D01*
X127768796Y-65998307D02*
X127697367Y-66069736D01*
X127697367Y-66069736D02*
X127554510Y-66141164D01*
X127554510Y-66141164D02*
X127340225Y-66141164D01*
X127340225Y-66141164D02*
X127197367Y-66069736D01*
X127840225Y-65569736D02*
X127697367Y-65641164D01*
X127697367Y-65641164D02*
X127411653Y-65641164D01*
X127411653Y-65641164D02*
X127268796Y-65569736D01*
X127268796Y-65569736D02*
X127197367Y-65498307D01*
X127197367Y-65498307D02*
X127125939Y-65355450D01*
X127125939Y-65355450D02*
X127125939Y-64926878D01*
X127125939Y-64926878D02*
X127197367Y-64784021D01*
X127197367Y-64784021D02*
X127268796Y-64712593D01*
X127268796Y-64712593D02*
X127411653Y-64641164D01*
X127411653Y-64641164D02*
X127697367Y-64641164D01*
X127697367Y-64641164D02*
X127840225Y-64712593D01*
X98340225Y-66556080D02*
X98840225Y-68056080D01*
X98840225Y-68056080D02*
X99340225Y-66556080D01*
X100411653Y-67984652D02*
X100268796Y-68056080D01*
X100268796Y-68056080D02*
X99983082Y-68056080D01*
X99983082Y-68056080D02*
X99840224Y-67984652D01*
X99840224Y-67984652D02*
X99768796Y-67841794D01*
X99768796Y-67841794D02*
X99768796Y-67270366D01*
X99768796Y-67270366D02*
X99840224Y-67127509D01*
X99840224Y-67127509D02*
X99983082Y-67056080D01*
X99983082Y-67056080D02*
X100268796Y-67056080D01*
X100268796Y-67056080D02*
X100411653Y-67127509D01*
X100411653Y-67127509D02*
X100483082Y-67270366D01*
X100483082Y-67270366D02*
X100483082Y-67413223D01*
X100483082Y-67413223D02*
X99768796Y-67556080D01*
X101125938Y-68056080D02*
X101125938Y-67056080D01*
X101125938Y-67341794D02*
X101197367Y-67198937D01*
X101197367Y-67198937D02*
X101268796Y-67127509D01*
X101268796Y-67127509D02*
X101411653Y-67056080D01*
X101411653Y-67056080D02*
X101554510Y-67056080D01*
X101983081Y-67984652D02*
X102125938Y-68056080D01*
X102125938Y-68056080D02*
X102411652Y-68056080D01*
X102411652Y-68056080D02*
X102554509Y-67984652D01*
X102554509Y-67984652D02*
X102625938Y-67841794D01*
X102625938Y-67841794D02*
X102625938Y-67770366D01*
X102625938Y-67770366D02*
X102554509Y-67627509D01*
X102554509Y-67627509D02*
X102411652Y-67556080D01*
X102411652Y-67556080D02*
X102197367Y-67556080D01*
X102197367Y-67556080D02*
X102054509Y-67484652D01*
X102054509Y-67484652D02*
X101983081Y-67341794D01*
X101983081Y-67341794D02*
X101983081Y-67270366D01*
X101983081Y-67270366D02*
X102054509Y-67127509D01*
X102054509Y-67127509D02*
X102197367Y-67056080D01*
X102197367Y-67056080D02*
X102411652Y-67056080D01*
X102411652Y-67056080D02*
X102554509Y-67127509D01*
X103268795Y-68056080D02*
X103268795Y-67056080D01*
X103268795Y-66556080D02*
X103197367Y-66627509D01*
X103197367Y-66627509D02*
X103268795Y-66698937D01*
X103268795Y-66698937D02*
X103340224Y-66627509D01*
X103340224Y-66627509D02*
X103268795Y-66556080D01*
X103268795Y-66556080D02*
X103268795Y-66698937D01*
X104197367Y-68056080D02*
X104054510Y-67984652D01*
X104054510Y-67984652D02*
X103983081Y-67913223D01*
X103983081Y-67913223D02*
X103911653Y-67770366D01*
X103911653Y-67770366D02*
X103911653Y-67341794D01*
X103911653Y-67341794D02*
X103983081Y-67198937D01*
X103983081Y-67198937D02*
X104054510Y-67127509D01*
X104054510Y-67127509D02*
X104197367Y-67056080D01*
X104197367Y-67056080D02*
X104411653Y-67056080D01*
X104411653Y-67056080D02*
X104554510Y-67127509D01*
X104554510Y-67127509D02*
X104625939Y-67198937D01*
X104625939Y-67198937D02*
X104697367Y-67341794D01*
X104697367Y-67341794D02*
X104697367Y-67770366D01*
X104697367Y-67770366D02*
X104625939Y-67913223D01*
X104625939Y-67913223D02*
X104554510Y-67984652D01*
X104554510Y-67984652D02*
X104411653Y-68056080D01*
X104411653Y-68056080D02*
X104197367Y-68056080D01*
X105340224Y-67056080D02*
X105340224Y-68056080D01*
X105340224Y-67198937D02*
X105411653Y-67127509D01*
X105411653Y-67127509D02*
X105554510Y-67056080D01*
X105554510Y-67056080D02*
X105768796Y-67056080D01*
X105768796Y-67056080D02*
X105911653Y-67127509D01*
X105911653Y-67127509D02*
X105983082Y-67270366D01*
X105983082Y-67270366D02*
X105983082Y-68056080D01*
X108625939Y-68056080D02*
X107768796Y-68056080D01*
X108197367Y-68056080D02*
X108197367Y-66556080D01*
X108197367Y-66556080D02*
X108054510Y-66770366D01*
X108054510Y-66770366D02*
X107911653Y-66913223D01*
X107911653Y-66913223D02*
X107768796Y-66984652D01*
X109268795Y-67913223D02*
X109340224Y-67984652D01*
X109340224Y-67984652D02*
X109268795Y-68056080D01*
X109268795Y-68056080D02*
X109197367Y-67984652D01*
X109197367Y-67984652D02*
X109268795Y-67913223D01*
X109268795Y-67913223D02*
X109268795Y-68056080D01*
X110268796Y-66556080D02*
X110411653Y-66556080D01*
X110411653Y-66556080D02*
X110554510Y-66627509D01*
X110554510Y-66627509D02*
X110625939Y-66698937D01*
X110625939Y-66698937D02*
X110697367Y-66841794D01*
X110697367Y-66841794D02*
X110768796Y-67127509D01*
X110768796Y-67127509D02*
X110768796Y-67484652D01*
X110768796Y-67484652D02*
X110697367Y-67770366D01*
X110697367Y-67770366D02*
X110625939Y-67913223D01*
X110625939Y-67913223D02*
X110554510Y-67984652D01*
X110554510Y-67984652D02*
X110411653Y-68056080D01*
X110411653Y-68056080D02*
X110268796Y-68056080D01*
X110268796Y-68056080D02*
X110125939Y-67984652D01*
X110125939Y-67984652D02*
X110054510Y-67913223D01*
X110054510Y-67913223D02*
X109983081Y-67770366D01*
X109983081Y-67770366D02*
X109911653Y-67484652D01*
X109911653Y-67484652D02*
X109911653Y-67127509D01*
X109911653Y-67127509D02*
X109983081Y-66841794D01*
X109983081Y-66841794D02*
X110054510Y-66698937D01*
X110054510Y-66698937D02*
X110125939Y-66627509D01*
X110125939Y-66627509D02*
X110268796Y-66556080D01*
X98983082Y-68970996D02*
X98983082Y-70042425D01*
X98983082Y-70042425D02*
X98911653Y-70256710D01*
X98911653Y-70256710D02*
X98768796Y-70399568D01*
X98768796Y-70399568D02*
X98554510Y-70470996D01*
X98554510Y-70470996D02*
X98411653Y-70470996D01*
X100340225Y-69470996D02*
X100340225Y-70470996D01*
X99697367Y-69470996D02*
X99697367Y-70256710D01*
X99697367Y-70256710D02*
X99768796Y-70399568D01*
X99768796Y-70399568D02*
X99911653Y-70470996D01*
X99911653Y-70470996D02*
X100125939Y-70470996D01*
X100125939Y-70470996D02*
X100268796Y-70399568D01*
X100268796Y-70399568D02*
X100340225Y-70328139D01*
X101268796Y-70470996D02*
X101125939Y-70399568D01*
X101125939Y-70399568D02*
X101054510Y-70256710D01*
X101054510Y-70256710D02*
X101054510Y-68970996D01*
X101840224Y-70470996D02*
X101840224Y-69470996D01*
X101840224Y-68970996D02*
X101768796Y-69042425D01*
X101768796Y-69042425D02*
X101840224Y-69113853D01*
X101840224Y-69113853D02*
X101911653Y-69042425D01*
X101911653Y-69042425D02*
X101840224Y-68970996D01*
X101840224Y-68970996D02*
X101840224Y-69113853D01*
X103625939Y-69113853D02*
X103697367Y-69042425D01*
X103697367Y-69042425D02*
X103840225Y-68970996D01*
X103840225Y-68970996D02*
X104197367Y-68970996D01*
X104197367Y-68970996D02*
X104340225Y-69042425D01*
X104340225Y-69042425D02*
X104411653Y-69113853D01*
X104411653Y-69113853D02*
X104483082Y-69256710D01*
X104483082Y-69256710D02*
X104483082Y-69399568D01*
X104483082Y-69399568D02*
X104411653Y-69613853D01*
X104411653Y-69613853D02*
X103554510Y-70470996D01*
X103554510Y-70470996D02*
X104483082Y-70470996D01*
X105411653Y-68970996D02*
X105554510Y-68970996D01*
X105554510Y-68970996D02*
X105697367Y-69042425D01*
X105697367Y-69042425D02*
X105768796Y-69113853D01*
X105768796Y-69113853D02*
X105840224Y-69256710D01*
X105840224Y-69256710D02*
X105911653Y-69542425D01*
X105911653Y-69542425D02*
X105911653Y-69899568D01*
X105911653Y-69899568D02*
X105840224Y-70185282D01*
X105840224Y-70185282D02*
X105768796Y-70328139D01*
X105768796Y-70328139D02*
X105697367Y-70399568D01*
X105697367Y-70399568D02*
X105554510Y-70470996D01*
X105554510Y-70470996D02*
X105411653Y-70470996D01*
X105411653Y-70470996D02*
X105268796Y-70399568D01*
X105268796Y-70399568D02*
X105197367Y-70328139D01*
X105197367Y-70328139D02*
X105125938Y-70185282D01*
X105125938Y-70185282D02*
X105054510Y-69899568D01*
X105054510Y-69899568D02*
X105054510Y-69542425D01*
X105054510Y-69542425D02*
X105125938Y-69256710D01*
X105125938Y-69256710D02*
X105197367Y-69113853D01*
X105197367Y-69113853D02*
X105268796Y-69042425D01*
X105268796Y-69042425D02*
X105411653Y-68970996D01*
X106483081Y-69113853D02*
X106554509Y-69042425D01*
X106554509Y-69042425D02*
X106697367Y-68970996D01*
X106697367Y-68970996D02*
X107054509Y-68970996D01*
X107054509Y-68970996D02*
X107197367Y-69042425D01*
X107197367Y-69042425D02*
X107268795Y-69113853D01*
X107268795Y-69113853D02*
X107340224Y-69256710D01*
X107340224Y-69256710D02*
X107340224Y-69399568D01*
X107340224Y-69399568D02*
X107268795Y-69613853D01*
X107268795Y-69613853D02*
X106411652Y-70470996D01*
X106411652Y-70470996D02*
X107340224Y-70470996D01*
X108625938Y-69470996D02*
X108625938Y-70470996D01*
X108268795Y-68899568D02*
X107911652Y-69970996D01*
X107911652Y-69970996D02*
X108840223Y-69970996D01*
X99268796Y-72885912D02*
X98554510Y-72885912D01*
X98554510Y-72885912D02*
X98554510Y-71385912D01*
X100554511Y-72885912D02*
X99697368Y-72885912D01*
X100125939Y-72885912D02*
X100125939Y-71385912D01*
X100125939Y-71385912D02*
X99983082Y-71600198D01*
X99983082Y-71600198D02*
X99840225Y-71743055D01*
X99840225Y-71743055D02*
X99697368Y-71814484D01*
X101197367Y-72100198D02*
X101697367Y-72100198D01*
X101911653Y-72885912D02*
X101197367Y-72885912D01*
X101197367Y-72885912D02*
X101197367Y-71385912D01*
X101197367Y-71385912D02*
X101911653Y-71385912D01*
X102554510Y-72743055D02*
X102625939Y-72814484D01*
X102625939Y-72814484D02*
X102554510Y-72885912D01*
X102554510Y-72885912D02*
X102483082Y-72814484D01*
X102483082Y-72814484D02*
X102554510Y-72743055D01*
X102554510Y-72743055D02*
X102554510Y-72885912D01*
X103840225Y-72814484D02*
X103697368Y-72885912D01*
X103697368Y-72885912D02*
X103411654Y-72885912D01*
X103411654Y-72885912D02*
X103268796Y-72814484D01*
X103268796Y-72814484D02*
X103197368Y-72671626D01*
X103197368Y-72671626D02*
X103197368Y-72100198D01*
X103197368Y-72100198D02*
X103268796Y-71957341D01*
X103268796Y-71957341D02*
X103411654Y-71885912D01*
X103411654Y-71885912D02*
X103697368Y-71885912D01*
X103697368Y-71885912D02*
X103840225Y-71957341D01*
X103840225Y-71957341D02*
X103911654Y-72100198D01*
X103911654Y-72100198D02*
X103911654Y-72243055D01*
X103911654Y-72243055D02*
X103197368Y-72385912D01*
X105197368Y-71885912D02*
X105197368Y-72885912D01*
X104554510Y-71885912D02*
X104554510Y-72671626D01*
X104554510Y-72671626D02*
X104625939Y-72814484D01*
X104625939Y-72814484D02*
X104768796Y-72885912D01*
X104768796Y-72885912D02*
X104983082Y-72885912D01*
X104983082Y-72885912D02*
X105125939Y-72814484D01*
X105125939Y-72814484D02*
X105197368Y-72743055D01*
X99768796Y-74157971D02*
X99625939Y-74086542D01*
X99625939Y-74086542D02*
X99340225Y-74086542D01*
X99340225Y-74086542D02*
X99197368Y-74157971D01*
X99197368Y-74157971D02*
X99054510Y-74300828D01*
X99054510Y-74300828D02*
X98983082Y-74443685D01*
X98983082Y-74443685D02*
X98983082Y-74729400D01*
X98983082Y-74729400D02*
X99054510Y-74872257D01*
X99054510Y-74872257D02*
X99197368Y-75015114D01*
X99197368Y-75015114D02*
X99340225Y-75086542D01*
X99340225Y-75086542D02*
X99625939Y-75086542D01*
X99625939Y-75086542D02*
X99768796Y-75015114D01*
X99483082Y-73586542D02*
X99125939Y-73657971D01*
X99125939Y-73657971D02*
X98768796Y-73872257D01*
X98768796Y-73872257D02*
X98554510Y-74229400D01*
X98554510Y-74229400D02*
X98483082Y-74586542D01*
X98483082Y-74586542D02*
X98554510Y-74943685D01*
X98554510Y-74943685D02*
X98768796Y-75300828D01*
X98768796Y-75300828D02*
X99125939Y-75515114D01*
X99125939Y-75515114D02*
X99483082Y-75586542D01*
X99483082Y-75586542D02*
X99840225Y-75515114D01*
X99840225Y-75515114D02*
X100197368Y-75300828D01*
X100197368Y-75300828D02*
X100411653Y-74943685D01*
X100411653Y-74943685D02*
X100483082Y-74586542D01*
X100483082Y-74586542D02*
X100411653Y-74229400D01*
X100411653Y-74229400D02*
X100197368Y-73872257D01*
X100197368Y-73872257D02*
X99840225Y-73657971D01*
X99840225Y-73657971D02*
X99483082Y-73586542D01*
X102268796Y-75300828D02*
X102268796Y-73800828D01*
X102268796Y-73800828D02*
X102840225Y-73800828D01*
X102840225Y-73800828D02*
X102983082Y-73872257D01*
X102983082Y-73872257D02*
X103054511Y-73943685D01*
X103054511Y-73943685D02*
X103125939Y-74086542D01*
X103125939Y-74086542D02*
X103125939Y-74300828D01*
X103125939Y-74300828D02*
X103054511Y-74443685D01*
X103054511Y-74443685D02*
X102983082Y-74515114D01*
X102983082Y-74515114D02*
X102840225Y-74586542D01*
X102840225Y-74586542D02*
X102268796Y-74586542D01*
X104411654Y-75300828D02*
X104411654Y-74515114D01*
X104411654Y-74515114D02*
X104340225Y-74372257D01*
X104340225Y-74372257D02*
X104197368Y-74300828D01*
X104197368Y-74300828D02*
X103911654Y-74300828D01*
X103911654Y-74300828D02*
X103768796Y-74372257D01*
X104411654Y-75229400D02*
X104268796Y-75300828D01*
X104268796Y-75300828D02*
X103911654Y-75300828D01*
X103911654Y-75300828D02*
X103768796Y-75229400D01*
X103768796Y-75229400D02*
X103697368Y-75086542D01*
X103697368Y-75086542D02*
X103697368Y-74943685D01*
X103697368Y-74943685D02*
X103768796Y-74800828D01*
X103768796Y-74800828D02*
X103911654Y-74729400D01*
X103911654Y-74729400D02*
X104268796Y-74729400D01*
X104268796Y-74729400D02*
X104411654Y-74657971D01*
X104911654Y-74300828D02*
X105483082Y-74300828D01*
X105125939Y-73800828D02*
X105125939Y-75086542D01*
X105125939Y-75086542D02*
X105197368Y-75229400D01*
X105197368Y-75229400D02*
X105340225Y-75300828D01*
X105340225Y-75300828D02*
X105483082Y-75300828D01*
X105983082Y-75300828D02*
X105983082Y-74300828D01*
X105983082Y-74586542D02*
X106054511Y-74443685D01*
X106054511Y-74443685D02*
X106125940Y-74372257D01*
X106125940Y-74372257D02*
X106268797Y-74300828D01*
X106268797Y-74300828D02*
X106411654Y-74300828D01*
X106911653Y-75300828D02*
X106911653Y-74300828D01*
X106911653Y-73800828D02*
X106840225Y-73872257D01*
X106840225Y-73872257D02*
X106911653Y-73943685D01*
X106911653Y-73943685D02*
X106983082Y-73872257D01*
X106983082Y-73872257D02*
X106911653Y-73800828D01*
X106911653Y-73800828D02*
X106911653Y-73943685D01*
X108268797Y-75229400D02*
X108125939Y-75300828D01*
X108125939Y-75300828D02*
X107840225Y-75300828D01*
X107840225Y-75300828D02*
X107697368Y-75229400D01*
X107697368Y-75229400D02*
X107625939Y-75157971D01*
X107625939Y-75157971D02*
X107554511Y-75015114D01*
X107554511Y-75015114D02*
X107554511Y-74586542D01*
X107554511Y-74586542D02*
X107625939Y-74443685D01*
X107625939Y-74443685D02*
X107697368Y-74372257D01*
X107697368Y-74372257D02*
X107840225Y-74300828D01*
X107840225Y-74300828D02*
X108125939Y-74300828D01*
X108125939Y-74300828D02*
X108268797Y-74372257D01*
X108911653Y-75300828D02*
X108911653Y-73800828D01*
X109054511Y-74729400D02*
X109483082Y-75300828D01*
X109483082Y-74300828D02*
X108911653Y-74872257D01*
X111125939Y-73800828D02*
X112125939Y-73800828D01*
X112125939Y-73800828D02*
X111125939Y-75300828D01*
X111125939Y-75300828D02*
X112125939Y-75300828D01*
X113340225Y-75300828D02*
X113340225Y-74515114D01*
X113340225Y-74515114D02*
X113268796Y-74372257D01*
X113268796Y-74372257D02*
X113125939Y-74300828D01*
X113125939Y-74300828D02*
X112840225Y-74300828D01*
X112840225Y-74300828D02*
X112697367Y-74372257D01*
X113340225Y-75229400D02*
X113197367Y-75300828D01*
X113197367Y-75300828D02*
X112840225Y-75300828D01*
X112840225Y-75300828D02*
X112697367Y-75229400D01*
X112697367Y-75229400D02*
X112625939Y-75086542D01*
X112625939Y-75086542D02*
X112625939Y-74943685D01*
X112625939Y-74943685D02*
X112697367Y-74800828D01*
X112697367Y-74800828D02*
X112840225Y-74729400D01*
X112840225Y-74729400D02*
X113197367Y-74729400D01*
X113197367Y-74729400D02*
X113340225Y-74657971D01*
X114697368Y-74300828D02*
X114697368Y-75300828D01*
X114054510Y-74300828D02*
X114054510Y-75086542D01*
X114054510Y-75086542D02*
X114125939Y-75229400D01*
X114125939Y-75229400D02*
X114268796Y-75300828D01*
X114268796Y-75300828D02*
X114483082Y-75300828D01*
X114483082Y-75300828D02*
X114625939Y-75229400D01*
X114625939Y-75229400D02*
X114697368Y-75157971D01*
X115411653Y-74300828D02*
X115411653Y-75300828D01*
X115411653Y-74443685D02*
X115483082Y-74372257D01*
X115483082Y-74372257D02*
X115625939Y-74300828D01*
X115625939Y-74300828D02*
X115840225Y-74300828D01*
X115840225Y-74300828D02*
X115983082Y-74372257D01*
X115983082Y-74372257D02*
X116054511Y-74515114D01*
X116054511Y-74515114D02*
X116054511Y-75300828D01*
X117340225Y-75229400D02*
X117197368Y-75300828D01*
X117197368Y-75300828D02*
X116911654Y-75300828D01*
X116911654Y-75300828D02*
X116768796Y-75229400D01*
X116768796Y-75229400D02*
X116697368Y-75086542D01*
X116697368Y-75086542D02*
X116697368Y-74515114D01*
X116697368Y-74515114D02*
X116768796Y-74372257D01*
X116768796Y-74372257D02*
X116911654Y-74300828D01*
X116911654Y-74300828D02*
X117197368Y-74300828D01*
X117197368Y-74300828D02*
X117340225Y-74372257D01*
X117340225Y-74372257D02*
X117411654Y-74515114D01*
X117411654Y-74515114D02*
X117411654Y-74657971D01*
X117411654Y-74657971D02*
X116697368Y-74800828D01*
X118054510Y-75300828D02*
X118054510Y-74300828D01*
X118054510Y-74586542D02*
X118125939Y-74443685D01*
X118125939Y-74443685D02*
X118197368Y-74372257D01*
X118197368Y-74372257D02*
X118340225Y-74300828D01*
X118340225Y-74300828D02*
X118483082Y-74300828D01*
X98954510Y-120785912D02*
X98954510Y-119285912D01*
X98954510Y-120000198D02*
X99811653Y-120000198D01*
X99811653Y-120785912D02*
X99811653Y-119285912D01*
X101168797Y-119785912D02*
X101168797Y-120785912D01*
X100525939Y-119785912D02*
X100525939Y-120571626D01*
X100525939Y-120571626D02*
X100597368Y-120714484D01*
X100597368Y-120714484D02*
X100740225Y-120785912D01*
X100740225Y-120785912D02*
X100954511Y-120785912D01*
X100954511Y-120785912D02*
X101097368Y-120714484D01*
X101097368Y-120714484D02*
X101168797Y-120643055D01*
X101883082Y-119785912D02*
X101883082Y-121285912D01*
X101883082Y-119857341D02*
X102025940Y-119785912D01*
X102025940Y-119785912D02*
X102311654Y-119785912D01*
X102311654Y-119785912D02*
X102454511Y-119857341D01*
X102454511Y-119857341D02*
X102525940Y-119928769D01*
X102525940Y-119928769D02*
X102597368Y-120071626D01*
X102597368Y-120071626D02*
X102597368Y-120500198D01*
X102597368Y-120500198D02*
X102525940Y-120643055D01*
X102525940Y-120643055D02*
X102454511Y-120714484D01*
X102454511Y-120714484D02*
X102311654Y-120785912D01*
X102311654Y-120785912D02*
X102025940Y-120785912D01*
X102025940Y-120785912D02*
X101883082Y-120714484D01*
X103811654Y-120714484D02*
X103668797Y-120785912D01*
X103668797Y-120785912D02*
X103383083Y-120785912D01*
X103383083Y-120785912D02*
X103240225Y-120714484D01*
X103240225Y-120714484D02*
X103168797Y-120571626D01*
X103168797Y-120571626D02*
X103168797Y-120000198D01*
X103168797Y-120000198D02*
X103240225Y-119857341D01*
X103240225Y-119857341D02*
X103383083Y-119785912D01*
X103383083Y-119785912D02*
X103668797Y-119785912D01*
X103668797Y-119785912D02*
X103811654Y-119857341D01*
X103811654Y-119857341D02*
X103883083Y-120000198D01*
X103883083Y-120000198D02*
X103883083Y-120143055D01*
X103883083Y-120143055D02*
X103168797Y-120285912D01*
X98954510Y-122629400D02*
X100097368Y-122629400D01*
X99525939Y-123200828D02*
X99525939Y-122057971D01*
X103883082Y-121772257D02*
X103740225Y-121700828D01*
X103740225Y-121700828D02*
X103525939Y-121700828D01*
X103525939Y-121700828D02*
X103311653Y-121772257D01*
X103311653Y-121772257D02*
X103168796Y-121915114D01*
X103168796Y-121915114D02*
X103097367Y-122057971D01*
X103097367Y-122057971D02*
X103025939Y-122343685D01*
X103025939Y-122343685D02*
X103025939Y-122557971D01*
X103025939Y-122557971D02*
X103097367Y-122843685D01*
X103097367Y-122843685D02*
X103168796Y-122986542D01*
X103168796Y-122986542D02*
X103311653Y-123129400D01*
X103311653Y-123129400D02*
X103525939Y-123200828D01*
X103525939Y-123200828D02*
X103668796Y-123200828D01*
X103668796Y-123200828D02*
X103883082Y-123129400D01*
X103883082Y-123129400D02*
X103954510Y-123057971D01*
X103954510Y-123057971D02*
X103954510Y-122557971D01*
X103954510Y-122557971D02*
X103668796Y-122557971D01*
X104597367Y-123200828D02*
X104597367Y-121700828D01*
X104597367Y-121700828D02*
X105454510Y-123200828D01*
X105454510Y-123200828D02*
X105454510Y-121700828D01*
X106168796Y-123200828D02*
X106168796Y-121700828D01*
X106168796Y-121700828D02*
X106525939Y-121700828D01*
X106525939Y-121700828D02*
X106740225Y-121772257D01*
X106740225Y-121772257D02*
X106883082Y-121915114D01*
X106883082Y-121915114D02*
X106954511Y-122057971D01*
X106954511Y-122057971D02*
X107025939Y-122343685D01*
X107025939Y-122343685D02*
X107025939Y-122557971D01*
X107025939Y-122557971D02*
X106954511Y-122843685D01*
X106954511Y-122843685D02*
X106883082Y-122986542D01*
X106883082Y-122986542D02*
X106740225Y-123129400D01*
X106740225Y-123129400D02*
X106525939Y-123200828D01*
X106525939Y-123200828D02*
X106168796Y-123200828D01*
X68633905Y-68166551D02*
X70183905Y-67583218D01*
X70183905Y-67583218D02*
X68633905Y-66999884D01*
X69372000Y-66416551D02*
X69372000Y-65833218D01*
X70183905Y-65583218D02*
X70183905Y-66416551D01*
X70183905Y-66416551D02*
X68633905Y-66416551D01*
X68633905Y-66416551D02*
X68633905Y-65583218D01*
X70110096Y-64916551D02*
X70183905Y-64666551D01*
X70183905Y-64666551D02*
X70183905Y-64249885D01*
X70183905Y-64249885D02*
X70110096Y-64083218D01*
X70110096Y-64083218D02*
X70036286Y-63999885D01*
X70036286Y-63999885D02*
X69888667Y-63916551D01*
X69888667Y-63916551D02*
X69741048Y-63916551D01*
X69741048Y-63916551D02*
X69593429Y-63999885D01*
X69593429Y-63999885D02*
X69519619Y-64083218D01*
X69519619Y-64083218D02*
X69445810Y-64249885D01*
X69445810Y-64249885D02*
X69372000Y-64583218D01*
X69372000Y-64583218D02*
X69298191Y-64749885D01*
X69298191Y-64749885D02*
X69224381Y-64833218D01*
X69224381Y-64833218D02*
X69076762Y-64916551D01*
X69076762Y-64916551D02*
X68929143Y-64916551D01*
X68929143Y-64916551D02*
X68781524Y-64833218D01*
X68781524Y-64833218D02*
X68707715Y-64749885D01*
X68707715Y-64749885D02*
X68633905Y-64583218D01*
X68633905Y-64583218D02*
X68633905Y-64166551D01*
X68633905Y-64166551D02*
X68707715Y-63916551D01*
X70036286Y-62166551D02*
X70110096Y-62249884D01*
X70110096Y-62249884D02*
X70183905Y-62499884D01*
X70183905Y-62499884D02*
X70183905Y-62666551D01*
X70183905Y-62666551D02*
X70110096Y-62916551D01*
X70110096Y-62916551D02*
X69962476Y-63083218D01*
X69962476Y-63083218D02*
X69814857Y-63166551D01*
X69814857Y-63166551D02*
X69519619Y-63249884D01*
X69519619Y-63249884D02*
X69298191Y-63249884D01*
X69298191Y-63249884D02*
X69002953Y-63166551D01*
X69002953Y-63166551D02*
X68855334Y-63083218D01*
X68855334Y-63083218D02*
X68707715Y-62916551D01*
X68707715Y-62916551D02*
X68633905Y-62666551D01*
X68633905Y-62666551D02*
X68633905Y-62499884D01*
X68633905Y-62499884D02*
X68707715Y-62249884D01*
X68707715Y-62249884D02*
X68781524Y-62166551D01*
X72679318Y-74666551D02*
X71129318Y-74666551D01*
X71129318Y-74666551D02*
X72679318Y-73666551D01*
X72679318Y-73666551D02*
X71129318Y-73666551D01*
X72531699Y-71833218D02*
X72605509Y-71916551D01*
X72605509Y-71916551D02*
X72679318Y-72166551D01*
X72679318Y-72166551D02*
X72679318Y-72333218D01*
X72679318Y-72333218D02*
X72605509Y-72583218D01*
X72605509Y-72583218D02*
X72457889Y-72749885D01*
X72457889Y-72749885D02*
X72310270Y-72833218D01*
X72310270Y-72833218D02*
X72015032Y-72916551D01*
X72015032Y-72916551D02*
X71793604Y-72916551D01*
X71793604Y-72916551D02*
X71498366Y-72833218D01*
X71498366Y-72833218D02*
X71350747Y-72749885D01*
X71350747Y-72749885D02*
X71203128Y-72583218D01*
X71203128Y-72583218D02*
X71129318Y-72333218D01*
X71129318Y-72333218D02*
X71129318Y-72166551D01*
X71129318Y-72166551D02*
X71203128Y-71916551D01*
X71203128Y-71916551D02*
X71276937Y-71833218D01*
X72236461Y-69833218D02*
X72236461Y-68999885D01*
X72679318Y-69999885D02*
X71129318Y-69416552D01*
X71129318Y-69416552D02*
X72679318Y-68833218D01*
X72679318Y-68249885D02*
X71129318Y-68249885D01*
X71129318Y-68249885D02*
X71129318Y-67833218D01*
X71129318Y-67833218D02*
X71203128Y-67583218D01*
X71203128Y-67583218D02*
X71350747Y-67416552D01*
X71350747Y-67416552D02*
X71498366Y-67333218D01*
X71498366Y-67333218D02*
X71793604Y-67249885D01*
X71793604Y-67249885D02*
X72015032Y-67249885D01*
X72015032Y-67249885D02*
X72310270Y-67333218D01*
X72310270Y-67333218D02*
X72457889Y-67416552D01*
X72457889Y-67416552D02*
X72605509Y-67583218D01*
X72605509Y-67583218D02*
X72679318Y-67833218D01*
X72679318Y-67833218D02*
X72679318Y-68249885D01*
X72531699Y-65499885D02*
X72605509Y-65583218D01*
X72605509Y-65583218D02*
X72679318Y-65833218D01*
X72679318Y-65833218D02*
X72679318Y-65999885D01*
X72679318Y-65999885D02*
X72605509Y-66249885D01*
X72605509Y-66249885D02*
X72457889Y-66416552D01*
X72457889Y-66416552D02*
X72310270Y-66499885D01*
X72310270Y-66499885D02*
X72015032Y-66583218D01*
X72015032Y-66583218D02*
X71793604Y-66583218D01*
X71793604Y-66583218D02*
X71498366Y-66499885D01*
X71498366Y-66499885D02*
X71350747Y-66416552D01*
X71350747Y-66416552D02*
X71203128Y-66249885D01*
X71203128Y-66249885D02*
X71129318Y-65999885D01*
X71129318Y-65999885D02*
X71129318Y-65833218D01*
X71129318Y-65833218D02*
X71203128Y-65583218D01*
X71203128Y-65583218D02*
X71276937Y-65499885D01*
X72679318Y-63833218D02*
X72679318Y-64833218D01*
X72679318Y-64333218D02*
X71129318Y-64333218D01*
X71129318Y-64333218D02*
X71350747Y-64499885D01*
X71350747Y-64499885D02*
X71498366Y-64666552D01*
X71498366Y-64666552D02*
X71572175Y-64833218D01*
X71129318Y-62249885D02*
X71129318Y-63083218D01*
X71129318Y-63083218D02*
X71867413Y-63166551D01*
X71867413Y-63166551D02*
X71793604Y-63083218D01*
X71793604Y-63083218D02*
X71719794Y-62916551D01*
X71719794Y-62916551D02*
X71719794Y-62499885D01*
X71719794Y-62499885D02*
X71793604Y-62333218D01*
X71793604Y-62333218D02*
X71867413Y-62249885D01*
X71867413Y-62249885D02*
X72015032Y-62166551D01*
X72015032Y-62166551D02*
X72384080Y-62166551D01*
X72384080Y-62166551D02*
X72531699Y-62249885D01*
X72531699Y-62249885D02*
X72605509Y-62333218D01*
X72605509Y-62333218D02*
X72679318Y-62499885D01*
X72679318Y-62499885D02*
X72679318Y-62916551D01*
X72679318Y-62916551D02*
X72605509Y-63083218D01*
X72605509Y-63083218D02*
X72531699Y-63166551D01*
X74731874Y-68166551D02*
X74731874Y-67333218D01*
X75174731Y-68333218D02*
X73624731Y-67749885D01*
X73624731Y-67749885D02*
X75174731Y-67166551D01*
X75174731Y-66583218D02*
X73624731Y-66583218D01*
X73624731Y-66583218D02*
X73624731Y-66166551D01*
X73624731Y-66166551D02*
X73698541Y-65916551D01*
X73698541Y-65916551D02*
X73846160Y-65749885D01*
X73846160Y-65749885D02*
X73993779Y-65666551D01*
X73993779Y-65666551D02*
X74289017Y-65583218D01*
X74289017Y-65583218D02*
X74510445Y-65583218D01*
X74510445Y-65583218D02*
X74805683Y-65666551D01*
X74805683Y-65666551D02*
X74953302Y-65749885D01*
X74953302Y-65749885D02*
X75100922Y-65916551D01*
X75100922Y-65916551D02*
X75174731Y-66166551D01*
X75174731Y-66166551D02*
X75174731Y-66583218D01*
X75027112Y-63833218D02*
X75100922Y-63916551D01*
X75100922Y-63916551D02*
X75174731Y-64166551D01*
X75174731Y-64166551D02*
X75174731Y-64333218D01*
X75174731Y-64333218D02*
X75100922Y-64583218D01*
X75100922Y-64583218D02*
X74953302Y-64749885D01*
X74953302Y-64749885D02*
X74805683Y-64833218D01*
X74805683Y-64833218D02*
X74510445Y-64916551D01*
X74510445Y-64916551D02*
X74289017Y-64916551D01*
X74289017Y-64916551D02*
X73993779Y-64833218D01*
X73993779Y-64833218D02*
X73846160Y-64749885D01*
X73846160Y-64749885D02*
X73698541Y-64583218D01*
X73698541Y-64583218D02*
X73624731Y-64333218D01*
X73624731Y-64333218D02*
X73624731Y-64166551D01*
X73624731Y-64166551D02*
X73698541Y-63916551D01*
X73698541Y-63916551D02*
X73772350Y-63833218D01*
X73772350Y-63166551D02*
X73698541Y-63083218D01*
X73698541Y-63083218D02*
X73624731Y-62916551D01*
X73624731Y-62916551D02*
X73624731Y-62499885D01*
X73624731Y-62499885D02*
X73698541Y-62333218D01*
X73698541Y-62333218D02*
X73772350Y-62249885D01*
X73772350Y-62249885D02*
X73919969Y-62166551D01*
X73919969Y-62166551D02*
X74067588Y-62166551D01*
X74067588Y-62166551D02*
X74289017Y-62249885D01*
X74289017Y-62249885D02*
X75174731Y-63249885D01*
X75174731Y-63249885D02*
X75174731Y-62166551D01*
X76120144Y-64666551D02*
X76120144Y-63666551D01*
X77670144Y-64166551D02*
X76120144Y-64166551D01*
X76120144Y-63249885D02*
X77670144Y-62083218D01*
X76120144Y-62083218D02*
X77670144Y-63249885D01*
X80165557Y-63833218D02*
X79427462Y-64416551D01*
X80165557Y-64833218D02*
X78615557Y-64833218D01*
X78615557Y-64833218D02*
X78615557Y-64166551D01*
X78615557Y-64166551D02*
X78689367Y-63999885D01*
X78689367Y-63999885D02*
X78763176Y-63916551D01*
X78763176Y-63916551D02*
X78910795Y-63833218D01*
X78910795Y-63833218D02*
X79132224Y-63833218D01*
X79132224Y-63833218D02*
X79279843Y-63916551D01*
X79279843Y-63916551D02*
X79353652Y-63999885D01*
X79353652Y-63999885D02*
X79427462Y-64166551D01*
X79427462Y-64166551D02*
X79427462Y-64833218D01*
X78615557Y-63249885D02*
X80165557Y-62083218D01*
X78615557Y-62083218D02*
X80165557Y-63249885D01*
X82218113Y-68166551D02*
X82218113Y-67333218D01*
X82660970Y-68333218D02*
X81110970Y-67749885D01*
X81110970Y-67749885D02*
X82660970Y-67166551D01*
X82660970Y-66583218D02*
X81110970Y-66583218D01*
X81110970Y-66583218D02*
X81110970Y-66166551D01*
X81110970Y-66166551D02*
X81184780Y-65916551D01*
X81184780Y-65916551D02*
X81332399Y-65749885D01*
X81332399Y-65749885D02*
X81480018Y-65666551D01*
X81480018Y-65666551D02*
X81775256Y-65583218D01*
X81775256Y-65583218D02*
X81996684Y-65583218D01*
X81996684Y-65583218D02*
X82291922Y-65666551D01*
X82291922Y-65666551D02*
X82439541Y-65749885D01*
X82439541Y-65749885D02*
X82587161Y-65916551D01*
X82587161Y-65916551D02*
X82660970Y-66166551D01*
X82660970Y-66166551D02*
X82660970Y-66583218D01*
X82513351Y-63833218D02*
X82587161Y-63916551D01*
X82587161Y-63916551D02*
X82660970Y-64166551D01*
X82660970Y-64166551D02*
X82660970Y-64333218D01*
X82660970Y-64333218D02*
X82587161Y-64583218D01*
X82587161Y-64583218D02*
X82439541Y-64749885D01*
X82439541Y-64749885D02*
X82291922Y-64833218D01*
X82291922Y-64833218D02*
X81996684Y-64916551D01*
X81996684Y-64916551D02*
X81775256Y-64916551D01*
X81775256Y-64916551D02*
X81480018Y-64833218D01*
X81480018Y-64833218D02*
X81332399Y-64749885D01*
X81332399Y-64749885D02*
X81184780Y-64583218D01*
X81184780Y-64583218D02*
X81110970Y-64333218D01*
X81110970Y-64333218D02*
X81110970Y-64166551D01*
X81110970Y-64166551D02*
X81184780Y-63916551D01*
X81184780Y-63916551D02*
X81258589Y-63833218D01*
X82660970Y-62166551D02*
X82660970Y-63166551D01*
X82660970Y-62666551D02*
X81110970Y-62666551D01*
X81110970Y-62666551D02*
X81332399Y-62833218D01*
X81332399Y-62833218D02*
X81480018Y-62999885D01*
X81480018Y-62999885D02*
X81553827Y-63166551D01*
X83680193Y-65833217D02*
X83606383Y-65999884D01*
X83606383Y-65999884D02*
X83606383Y-66249884D01*
X83606383Y-66249884D02*
X83680193Y-66499884D01*
X83680193Y-66499884D02*
X83827812Y-66666551D01*
X83827812Y-66666551D02*
X83975431Y-66749884D01*
X83975431Y-66749884D02*
X84270669Y-66833217D01*
X84270669Y-66833217D02*
X84492097Y-66833217D01*
X84492097Y-66833217D02*
X84787335Y-66749884D01*
X84787335Y-66749884D02*
X84934954Y-66666551D01*
X84934954Y-66666551D02*
X85082574Y-66499884D01*
X85082574Y-66499884D02*
X85156383Y-66249884D01*
X85156383Y-66249884D02*
X85156383Y-66083217D01*
X85156383Y-66083217D02*
X85082574Y-65833217D01*
X85082574Y-65833217D02*
X85008764Y-65749884D01*
X85008764Y-65749884D02*
X84492097Y-65749884D01*
X84492097Y-65749884D02*
X84492097Y-66083217D01*
X85156383Y-64999884D02*
X83606383Y-64999884D01*
X83606383Y-64999884D02*
X85156383Y-63999884D01*
X85156383Y-63999884D02*
X83606383Y-63999884D01*
X85156383Y-63166551D02*
X83606383Y-63166551D01*
X83606383Y-63166551D02*
X83606383Y-62749884D01*
X83606383Y-62749884D02*
X83680193Y-62499884D01*
X83680193Y-62499884D02*
X83827812Y-62333218D01*
X83827812Y-62333218D02*
X83975431Y-62249884D01*
X83975431Y-62249884D02*
X84270669Y-62166551D01*
X84270669Y-62166551D02*
X84492097Y-62166551D01*
X84492097Y-62166551D02*
X84787335Y-62249884D01*
X84787335Y-62249884D02*
X84934954Y-62333218D01*
X84934954Y-62333218D02*
X85082574Y-62499884D01*
X85082574Y-62499884D02*
X85156383Y-62749884D01*
X85156383Y-62749884D02*
X85156383Y-63166551D01*
X87651796Y-71166551D02*
X86101796Y-71166551D01*
X86101796Y-71166551D02*
X87651796Y-70166551D01*
X87651796Y-70166551D02*
X86101796Y-70166551D01*
X87504177Y-68333218D02*
X87577987Y-68416551D01*
X87577987Y-68416551D02*
X87651796Y-68666551D01*
X87651796Y-68666551D02*
X87651796Y-68833218D01*
X87651796Y-68833218D02*
X87577987Y-69083218D01*
X87577987Y-69083218D02*
X87430367Y-69249885D01*
X87430367Y-69249885D02*
X87282748Y-69333218D01*
X87282748Y-69333218D02*
X86987510Y-69416551D01*
X86987510Y-69416551D02*
X86766082Y-69416551D01*
X86766082Y-69416551D02*
X86470844Y-69333218D01*
X86470844Y-69333218D02*
X86323225Y-69249885D01*
X86323225Y-69249885D02*
X86175606Y-69083218D01*
X86175606Y-69083218D02*
X86101796Y-68833218D01*
X86101796Y-68833218D02*
X86101796Y-68666551D01*
X86101796Y-68666551D02*
X86175606Y-68416551D01*
X86175606Y-68416551D02*
X86249415Y-68333218D01*
X86101796Y-66416552D02*
X86101796Y-65333218D01*
X86101796Y-65333218D02*
X86692272Y-65916552D01*
X86692272Y-65916552D02*
X86692272Y-65666552D01*
X86692272Y-65666552D02*
X86766082Y-65499885D01*
X86766082Y-65499885D02*
X86839891Y-65416552D01*
X86839891Y-65416552D02*
X86987510Y-65333218D01*
X86987510Y-65333218D02*
X87356558Y-65333218D01*
X87356558Y-65333218D02*
X87504177Y-65416552D01*
X87504177Y-65416552D02*
X87577987Y-65499885D01*
X87577987Y-65499885D02*
X87651796Y-65666552D01*
X87651796Y-65666552D02*
X87651796Y-66166552D01*
X87651796Y-66166552D02*
X87577987Y-66333218D01*
X87577987Y-66333218D02*
X87504177Y-66416552D01*
X86101796Y-64833218D02*
X87651796Y-64249885D01*
X87651796Y-64249885D02*
X86101796Y-63666551D01*
X86101796Y-63249885D02*
X86101796Y-62166551D01*
X86101796Y-62166551D02*
X86692272Y-62749885D01*
X86692272Y-62749885D02*
X86692272Y-62499885D01*
X86692272Y-62499885D02*
X86766082Y-62333218D01*
X86766082Y-62333218D02*
X86839891Y-62249885D01*
X86839891Y-62249885D02*
X86987510Y-62166551D01*
X86987510Y-62166551D02*
X87356558Y-62166551D01*
X87356558Y-62166551D02*
X87504177Y-62249885D01*
X87504177Y-62249885D02*
X87577987Y-62333218D01*
X87577987Y-62333218D02*
X87651796Y-62499885D01*
X87651796Y-62499885D02*
X87651796Y-62999885D01*
X87651796Y-62999885D02*
X87577987Y-63166551D01*
X87577987Y-63166551D02*
X87504177Y-63249885D01*
X88597209Y-63749885D02*
X88597209Y-64583218D01*
X88597209Y-64583218D02*
X89335304Y-64666551D01*
X89335304Y-64666551D02*
X89261495Y-64583218D01*
X89261495Y-64583218D02*
X89187685Y-64416551D01*
X89187685Y-64416551D02*
X89187685Y-63999885D01*
X89187685Y-63999885D02*
X89261495Y-63833218D01*
X89261495Y-63833218D02*
X89335304Y-63749885D01*
X89335304Y-63749885D02*
X89482923Y-63666551D01*
X89482923Y-63666551D02*
X89851971Y-63666551D01*
X89851971Y-63666551D02*
X89999590Y-63749885D01*
X89999590Y-63749885D02*
X90073400Y-63833218D01*
X90073400Y-63833218D02*
X90147209Y-63999885D01*
X90147209Y-63999885D02*
X90147209Y-64416551D01*
X90147209Y-64416551D02*
X90073400Y-64583218D01*
X90073400Y-64583218D02*
X89999590Y-64666551D01*
X88597209Y-63166551D02*
X90147209Y-62583218D01*
X90147209Y-62583218D02*
X88597209Y-61999884D01*
X113454510Y-120000198D02*
X112954510Y-120000198D01*
X112954510Y-120785912D02*
X112954510Y-119285912D01*
X112954510Y-119285912D02*
X113668796Y-119285912D01*
X114240224Y-120785912D02*
X114240224Y-119785912D01*
X114240224Y-120071626D02*
X114311653Y-119928769D01*
X114311653Y-119928769D02*
X114383082Y-119857341D01*
X114383082Y-119857341D02*
X114525939Y-119785912D01*
X114525939Y-119785912D02*
X114668796Y-119785912D01*
X115383081Y-120785912D02*
X115240224Y-120714484D01*
X115240224Y-120714484D02*
X115168795Y-120643055D01*
X115168795Y-120643055D02*
X115097367Y-120500198D01*
X115097367Y-120500198D02*
X115097367Y-120071626D01*
X115097367Y-120071626D02*
X115168795Y-119928769D01*
X115168795Y-119928769D02*
X115240224Y-119857341D01*
X115240224Y-119857341D02*
X115383081Y-119785912D01*
X115383081Y-119785912D02*
X115597367Y-119785912D01*
X115597367Y-119785912D02*
X115740224Y-119857341D01*
X115740224Y-119857341D02*
X115811653Y-119928769D01*
X115811653Y-119928769D02*
X115883081Y-120071626D01*
X115883081Y-120071626D02*
X115883081Y-120500198D01*
X115883081Y-120500198D02*
X115811653Y-120643055D01*
X115811653Y-120643055D02*
X115740224Y-120714484D01*
X115740224Y-120714484D02*
X115597367Y-120785912D01*
X115597367Y-120785912D02*
X115383081Y-120785912D01*
X116525938Y-119785912D02*
X116525938Y-120785912D01*
X116525938Y-119928769D02*
X116597367Y-119857341D01*
X116597367Y-119857341D02*
X116740224Y-119785912D01*
X116740224Y-119785912D02*
X116954510Y-119785912D01*
X116954510Y-119785912D02*
X117097367Y-119857341D01*
X117097367Y-119857341D02*
X117168796Y-120000198D01*
X117168796Y-120000198D02*
X117168796Y-120785912D01*
X117668796Y-119785912D02*
X118240224Y-119785912D01*
X117883081Y-119285912D02*
X117883081Y-120571626D01*
X117883081Y-120571626D02*
X117954510Y-120714484D01*
X117954510Y-120714484D02*
X118097367Y-120785912D01*
X118097367Y-120785912D02*
X118240224Y-120785912D01*
X118954510Y-120785912D02*
X118811653Y-120714484D01*
X118811653Y-120714484D02*
X118740224Y-120571626D01*
X118740224Y-120571626D02*
X118740224Y-119285912D01*
X119525938Y-120785912D02*
X119525938Y-119785912D01*
X119525938Y-119285912D02*
X119454510Y-119357341D01*
X119454510Y-119357341D02*
X119525938Y-119428769D01*
X119525938Y-119428769D02*
X119597367Y-119357341D01*
X119597367Y-119357341D02*
X119525938Y-119285912D01*
X119525938Y-119285912D02*
X119525938Y-119428769D01*
X120883082Y-120714484D02*
X120740224Y-120785912D01*
X120740224Y-120785912D02*
X120454510Y-120785912D01*
X120454510Y-120785912D02*
X120311653Y-120714484D01*
X120311653Y-120714484D02*
X120240224Y-120643055D01*
X120240224Y-120643055D02*
X120168796Y-120500198D01*
X120168796Y-120500198D02*
X120168796Y-120071626D01*
X120168796Y-120071626D02*
X120240224Y-119928769D01*
X120240224Y-119928769D02*
X120311653Y-119857341D01*
X120311653Y-119857341D02*
X120454510Y-119785912D01*
X120454510Y-119785912D02*
X120740224Y-119785912D01*
X120740224Y-119785912D02*
X120883082Y-119857341D01*
X121525938Y-120785912D02*
X121525938Y-119285912D01*
X122168796Y-120785912D02*
X122168796Y-120000198D01*
X122168796Y-120000198D02*
X122097367Y-119857341D01*
X122097367Y-119857341D02*
X121954510Y-119785912D01*
X121954510Y-119785912D02*
X121740224Y-119785912D01*
X121740224Y-119785912D02*
X121597367Y-119857341D01*
X121597367Y-119857341D02*
X121525938Y-119928769D01*
X122668796Y-119785912D02*
X123240224Y-119785912D01*
X122883081Y-119285912D02*
X122883081Y-120571626D01*
X122883081Y-120571626D02*
X122954510Y-120714484D01*
X122954510Y-120714484D02*
X123097367Y-120785912D01*
X123097367Y-120785912D02*
X123240224Y-120785912D01*
X112954510Y-122629400D02*
X114097368Y-122629400D01*
X113525939Y-123200828D02*
X113525939Y-122057971D01*
X117883082Y-121772257D02*
X117740225Y-121700828D01*
X117740225Y-121700828D02*
X117525939Y-121700828D01*
X117525939Y-121700828D02*
X117311653Y-121772257D01*
X117311653Y-121772257D02*
X117168796Y-121915114D01*
X117168796Y-121915114D02*
X117097367Y-122057971D01*
X117097367Y-122057971D02*
X117025939Y-122343685D01*
X117025939Y-122343685D02*
X117025939Y-122557971D01*
X117025939Y-122557971D02*
X117097367Y-122843685D01*
X117097367Y-122843685D02*
X117168796Y-122986542D01*
X117168796Y-122986542D02*
X117311653Y-123129400D01*
X117311653Y-123129400D02*
X117525939Y-123200828D01*
X117525939Y-123200828D02*
X117668796Y-123200828D01*
X117668796Y-123200828D02*
X117883082Y-123129400D01*
X117883082Y-123129400D02*
X117954510Y-123057971D01*
X117954510Y-123057971D02*
X117954510Y-122557971D01*
X117954510Y-122557971D02*
X117668796Y-122557971D01*
X118597367Y-123200828D02*
X118597367Y-121700828D01*
X118597367Y-121700828D02*
X119454510Y-123200828D01*
X119454510Y-123200828D02*
X119454510Y-121700828D01*
X120168796Y-123200828D02*
X120168796Y-121700828D01*
X120168796Y-121700828D02*
X120525939Y-121700828D01*
X120525939Y-121700828D02*
X120740225Y-121772257D01*
X120740225Y-121772257D02*
X120883082Y-121915114D01*
X120883082Y-121915114D02*
X120954511Y-122057971D01*
X120954511Y-122057971D02*
X121025939Y-122343685D01*
X121025939Y-122343685D02*
X121025939Y-122557971D01*
X121025939Y-122557971D02*
X120954511Y-122843685D01*
X120954511Y-122843685D02*
X120883082Y-122986542D01*
X120883082Y-122986542D02*
X120740225Y-123129400D01*
X120740225Y-123129400D02*
X120525939Y-123200828D01*
X120525939Y-123200828D02*
X120168796Y-123200828D01*
X66157341Y-111459774D02*
X66085912Y-111602632D01*
X66085912Y-111602632D02*
X66085912Y-111816917D01*
X66085912Y-111816917D02*
X66157341Y-112031203D01*
X66157341Y-112031203D02*
X66300198Y-112174060D01*
X66300198Y-112174060D02*
X66443055Y-112245489D01*
X66443055Y-112245489D02*
X66728769Y-112316917D01*
X66728769Y-112316917D02*
X66943055Y-112316917D01*
X66943055Y-112316917D02*
X67228769Y-112245489D01*
X67228769Y-112245489D02*
X67371626Y-112174060D01*
X67371626Y-112174060D02*
X67514484Y-112031203D01*
X67514484Y-112031203D02*
X67585912Y-111816917D01*
X67585912Y-111816917D02*
X67585912Y-111674060D01*
X67585912Y-111674060D02*
X67514484Y-111459774D01*
X67514484Y-111459774D02*
X67443055Y-111388346D01*
X67443055Y-111388346D02*
X66943055Y-111388346D01*
X66943055Y-111388346D02*
X66943055Y-111674060D01*
X67585912Y-110745489D02*
X66085912Y-110745489D01*
X66085912Y-110745489D02*
X67585912Y-109888346D01*
X67585912Y-109888346D02*
X66085912Y-109888346D01*
X67585912Y-109174060D02*
X66085912Y-109174060D01*
X66085912Y-109174060D02*
X66085912Y-108816917D01*
X66085912Y-108816917D02*
X66157341Y-108602631D01*
X66157341Y-108602631D02*
X66300198Y-108459774D01*
X66300198Y-108459774D02*
X66443055Y-108388345D01*
X66443055Y-108388345D02*
X66728769Y-108316917D01*
X66728769Y-108316917D02*
X66943055Y-108316917D01*
X66943055Y-108316917D02*
X67228769Y-108388345D01*
X67228769Y-108388345D02*
X67371626Y-108459774D01*
X67371626Y-108459774D02*
X67514484Y-108602631D01*
X67514484Y-108602631D02*
X67585912Y-108816917D01*
X67585912Y-108816917D02*
X67585912Y-109174060D01*
X67014484Y-105388346D02*
X67014484Y-104245489D01*
X67585912Y-104816917D02*
X66443055Y-104816917D01*
X69572257Y-112316917D02*
X69572257Y-111602632D01*
X70000828Y-112459774D02*
X68500828Y-111959774D01*
X68500828Y-111959774D02*
X70000828Y-111459774D01*
X70000828Y-110959775D02*
X68500828Y-110959775D01*
X69429400Y-110816918D02*
X70000828Y-110388346D01*
X69000828Y-110388346D02*
X69572257Y-110959775D01*
X70000828Y-109745489D02*
X68500828Y-109745489D01*
X69429400Y-109602632D02*
X70000828Y-109174060D01*
X69000828Y-109174060D02*
X69572257Y-109745489D01*
X69000828Y-107888346D02*
X70000828Y-107888346D01*
X69000828Y-108531203D02*
X69786542Y-108531203D01*
X69786542Y-108531203D02*
X69929400Y-108459774D01*
X69929400Y-108459774D02*
X70000828Y-108316917D01*
X70000828Y-108316917D02*
X70000828Y-108102631D01*
X70000828Y-108102631D02*
X69929400Y-107959774D01*
X69929400Y-107959774D02*
X69857971Y-107888346D01*
D11*
X115238095Y-86454819D02*
X115238095Y-87264342D01*
X115238095Y-87264342D02*
X115285714Y-87359580D01*
X115285714Y-87359580D02*
X115333333Y-87407200D01*
X115333333Y-87407200D02*
X115428571Y-87454819D01*
X115428571Y-87454819D02*
X115619047Y-87454819D01*
X115619047Y-87454819D02*
X115714285Y-87407200D01*
X115714285Y-87407200D02*
X115761904Y-87359580D01*
X115761904Y-87359580D02*
X115809523Y-87264342D01*
X115809523Y-87264342D02*
X115809523Y-86454819D01*
X116238095Y-86550057D02*
X116285714Y-86502438D01*
X116285714Y-86502438D02*
X116380952Y-86454819D01*
X116380952Y-86454819D02*
X116619047Y-86454819D01*
X116619047Y-86454819D02*
X116714285Y-86502438D01*
X116714285Y-86502438D02*
X116761904Y-86550057D01*
X116761904Y-86550057D02*
X116809523Y-86645295D01*
X116809523Y-86645295D02*
X116809523Y-86740533D01*
X116809523Y-86740533D02*
X116761904Y-86883390D01*
X116761904Y-86883390D02*
X116190476Y-87454819D01*
X116190476Y-87454819D02*
X116809523Y-87454819D01*
X115940189Y-85854819D02*
X115368761Y-85854819D01*
X115654475Y-85854819D02*
X115654475Y-84854819D01*
X115654475Y-84854819D02*
X115559237Y-84997676D01*
X115559237Y-84997676D02*
X115463999Y-85092914D01*
X115463999Y-85092914D02*
X115368761Y-85140533D01*
X116321142Y-84950057D02*
X116368761Y-84902438D01*
X116368761Y-84902438D02*
X116463999Y-84854819D01*
X116463999Y-84854819D02*
X116702094Y-84854819D01*
X116702094Y-84854819D02*
X116797332Y-84902438D01*
X116797332Y-84902438D02*
X116844951Y-84950057D01*
X116844951Y-84950057D02*
X116892570Y-85045295D01*
X116892570Y-85045295D02*
X116892570Y-85140533D01*
X116892570Y-85140533D02*
X116844951Y-85283390D01*
X116844951Y-85283390D02*
X116273523Y-85854819D01*
X116273523Y-85854819D02*
X116892570Y-85854819D01*
X117178285Y-84854819D02*
X117511618Y-85854819D01*
X117511618Y-85854819D02*
X117844951Y-84854819D01*
X117940190Y-85950057D02*
X118702094Y-85950057D01*
X118797333Y-85188152D02*
X119178285Y-85188152D01*
X118940190Y-84854819D02*
X118940190Y-85711961D01*
X118940190Y-85711961D02*
X118987809Y-85807200D01*
X118987809Y-85807200D02*
X119083047Y-85854819D01*
X119083047Y-85854819D02*
X119178285Y-85854819D01*
X119654476Y-85854819D02*
X119559238Y-85807200D01*
X119559238Y-85807200D02*
X119511619Y-85759580D01*
X119511619Y-85759580D02*
X119464000Y-85664342D01*
X119464000Y-85664342D02*
X119464000Y-85378628D01*
X119464000Y-85378628D02*
X119511619Y-85283390D01*
X119511619Y-85283390D02*
X119559238Y-85235771D01*
X119559238Y-85235771D02*
X119654476Y-85188152D01*
X119654476Y-85188152D02*
X119797333Y-85188152D01*
X119797333Y-85188152D02*
X119892571Y-85235771D01*
X119892571Y-85235771D02*
X119940190Y-85283390D01*
X119940190Y-85283390D02*
X119987809Y-85378628D01*
X119987809Y-85378628D02*
X119987809Y-85664342D01*
X119987809Y-85664342D02*
X119940190Y-85759580D01*
X119940190Y-85759580D02*
X119892571Y-85807200D01*
X119892571Y-85807200D02*
X119797333Y-85854819D01*
X119797333Y-85854819D02*
X119654476Y-85854819D01*
X120178286Y-85950057D02*
X120940190Y-85950057D01*
X121654476Y-84854819D02*
X121178286Y-84854819D01*
X121178286Y-84854819D02*
X121130667Y-85331009D01*
X121130667Y-85331009D02*
X121178286Y-85283390D01*
X121178286Y-85283390D02*
X121273524Y-85235771D01*
X121273524Y-85235771D02*
X121511619Y-85235771D01*
X121511619Y-85235771D02*
X121606857Y-85283390D01*
X121606857Y-85283390D02*
X121654476Y-85331009D01*
X121654476Y-85331009D02*
X121702095Y-85426247D01*
X121702095Y-85426247D02*
X121702095Y-85664342D01*
X121702095Y-85664342D02*
X121654476Y-85759580D01*
X121654476Y-85759580D02*
X121606857Y-85807200D01*
X121606857Y-85807200D02*
X121511619Y-85854819D01*
X121511619Y-85854819D02*
X121273524Y-85854819D01*
X121273524Y-85854819D02*
X121178286Y-85807200D01*
X121178286Y-85807200D02*
X121130667Y-85759580D01*
X121987810Y-84854819D02*
X122321143Y-85854819D01*
X122321143Y-85854819D02*
X122654476Y-84854819D01*
X106772000Y-81854819D02*
X106772000Y-82092914D01*
X106533905Y-81997676D02*
X106772000Y-82092914D01*
X106772000Y-82092914D02*
X107010095Y-81997676D01*
X106629143Y-82283390D02*
X106772000Y-82092914D01*
X106772000Y-82092914D02*
X106914857Y-82283390D01*
X106772000Y-81854819D02*
X106772000Y-82092914D01*
X106533905Y-81997676D02*
X106772000Y-82092914D01*
X106772000Y-82092914D02*
X107010095Y-81997676D01*
X106629143Y-82283390D02*
X106772000Y-82092914D01*
X106772000Y-82092914D02*
X106914857Y-82283390D01*
X67066666Y-126854819D02*
X67066666Y-127569104D01*
X67066666Y-127569104D02*
X67019047Y-127711961D01*
X67019047Y-127711961D02*
X66923809Y-127807200D01*
X66923809Y-127807200D02*
X66780952Y-127854819D01*
X66780952Y-127854819D02*
X66685714Y-127854819D01*
X67495238Y-126950057D02*
X67542857Y-126902438D01*
X67542857Y-126902438D02*
X67638095Y-126854819D01*
X67638095Y-126854819D02*
X67876190Y-126854819D01*
X67876190Y-126854819D02*
X67971428Y-126902438D01*
X67971428Y-126902438D02*
X68019047Y-126950057D01*
X68019047Y-126950057D02*
X68066666Y-127045295D01*
X68066666Y-127045295D02*
X68066666Y-127140533D01*
X68066666Y-127140533D02*
X68019047Y-127283390D01*
X68019047Y-127283390D02*
X67447619Y-127854819D01*
X67447619Y-127854819D02*
X68066666Y-127854819D01*
X124225033Y-94294019D02*
X123891700Y-93817828D01*
X123653605Y-94294019D02*
X123653605Y-93294019D01*
X123653605Y-93294019D02*
X124034557Y-93294019D01*
X124034557Y-93294019D02*
X124129795Y-93341638D01*
X124129795Y-93341638D02*
X124177414Y-93389257D01*
X124177414Y-93389257D02*
X124225033Y-93484495D01*
X124225033Y-93484495D02*
X124225033Y-93627352D01*
X124225033Y-93627352D02*
X124177414Y-93722590D01*
X124177414Y-93722590D02*
X124129795Y-93770209D01*
X124129795Y-93770209D02*
X124034557Y-93817828D01*
X124034557Y-93817828D02*
X123653605Y-93817828D01*
X124605986Y-93389257D02*
X124653605Y-93341638D01*
X124653605Y-93341638D02*
X124748843Y-93294019D01*
X124748843Y-93294019D02*
X124986938Y-93294019D01*
X124986938Y-93294019D02*
X125082176Y-93341638D01*
X125082176Y-93341638D02*
X125129795Y-93389257D01*
X125129795Y-93389257D02*
X125177414Y-93484495D01*
X125177414Y-93484495D02*
X125177414Y-93579733D01*
X125177414Y-93579733D02*
X125129795Y-93722590D01*
X125129795Y-93722590D02*
X124558367Y-94294019D01*
X124558367Y-94294019D02*
X125177414Y-94294019D01*
X123105986Y-97134019D02*
X123725033Y-97134019D01*
X123725033Y-97134019D02*
X123391700Y-97514971D01*
X123391700Y-97514971D02*
X123534557Y-97514971D01*
X123534557Y-97514971D02*
X123629795Y-97562590D01*
X123629795Y-97562590D02*
X123677414Y-97610209D01*
X123677414Y-97610209D02*
X123725033Y-97705447D01*
X123725033Y-97705447D02*
X123725033Y-97943542D01*
X123725033Y-97943542D02*
X123677414Y-98038780D01*
X123677414Y-98038780D02*
X123629795Y-98086400D01*
X123629795Y-98086400D02*
X123534557Y-98134019D01*
X123534557Y-98134019D02*
X123248843Y-98134019D01*
X123248843Y-98134019D02*
X123153605Y-98086400D01*
X123153605Y-98086400D02*
X123105986Y-98038780D01*
X124058367Y-97134019D02*
X124677414Y-97134019D01*
X124677414Y-97134019D02*
X124344081Y-97514971D01*
X124344081Y-97514971D02*
X124486938Y-97514971D01*
X124486938Y-97514971D02*
X124582176Y-97562590D01*
X124582176Y-97562590D02*
X124629795Y-97610209D01*
X124629795Y-97610209D02*
X124677414Y-97705447D01*
X124677414Y-97705447D02*
X124677414Y-97943542D01*
X124677414Y-97943542D02*
X124629795Y-98038780D01*
X124629795Y-98038780D02*
X124582176Y-98086400D01*
X124582176Y-98086400D02*
X124486938Y-98134019D01*
X124486938Y-98134019D02*
X124201224Y-98134019D01*
X124201224Y-98134019D02*
X124105986Y-98086400D01*
X124105986Y-98086400D02*
X124058367Y-98038780D01*
X125296462Y-97134019D02*
X125391700Y-97134019D01*
X125391700Y-97134019D02*
X125486938Y-97181638D01*
X125486938Y-97181638D02*
X125534557Y-97229257D01*
X125534557Y-97229257D02*
X125582176Y-97324495D01*
X125582176Y-97324495D02*
X125629795Y-97514971D01*
X125629795Y-97514971D02*
X125629795Y-97753066D01*
X125629795Y-97753066D02*
X125582176Y-97943542D01*
X125582176Y-97943542D02*
X125534557Y-98038780D01*
X125534557Y-98038780D02*
X125486938Y-98086400D01*
X125486938Y-98086400D02*
X125391700Y-98134019D01*
X125391700Y-98134019D02*
X125296462Y-98134019D01*
X125296462Y-98134019D02*
X125201224Y-98086400D01*
X125201224Y-98086400D02*
X125153605Y-98038780D01*
X125153605Y-98038780D02*
X125105986Y-97943542D01*
X125105986Y-97943542D02*
X125058367Y-97753066D01*
X125058367Y-97753066D02*
X125058367Y-97514971D01*
X125058367Y-97514971D02*
X125105986Y-97324495D01*
X125105986Y-97324495D02*
X125153605Y-97229257D01*
X125153605Y-97229257D02*
X125201224Y-97181638D01*
X125201224Y-97181638D02*
X125296462Y-97134019D01*
X59238095Y-56254819D02*
X59238095Y-55254819D01*
X59238095Y-55731009D02*
X59809523Y-55731009D01*
X59809523Y-56254819D02*
X59809523Y-55254819D01*
X60809523Y-56254819D02*
X60238095Y-56254819D01*
X60523809Y-56254819D02*
X60523809Y-55254819D01*
X60523809Y-55254819D02*
X60428571Y-55397676D01*
X60428571Y-55397676D02*
X60333333Y-55492914D01*
X60333333Y-55492914D02*
X60238095Y-55540533D01*
X91297319Y-59969133D02*
X92011604Y-59969133D01*
X92011604Y-59969133D02*
X92154461Y-60016752D01*
X92154461Y-60016752D02*
X92249700Y-60111990D01*
X92249700Y-60111990D02*
X92297319Y-60254847D01*
X92297319Y-60254847D02*
X92297319Y-60350085D01*
X91297319Y-59588180D02*
X91297319Y-58969133D01*
X91297319Y-58969133D02*
X91678271Y-59302466D01*
X91678271Y-59302466D02*
X91678271Y-59159609D01*
X91678271Y-59159609D02*
X91725890Y-59064371D01*
X91725890Y-59064371D02*
X91773509Y-59016752D01*
X91773509Y-59016752D02*
X91868747Y-58969133D01*
X91868747Y-58969133D02*
X92106842Y-58969133D01*
X92106842Y-58969133D02*
X92202080Y-59016752D01*
X92202080Y-59016752D02*
X92249700Y-59064371D01*
X92249700Y-59064371D02*
X92297319Y-59159609D01*
X92297319Y-59159609D02*
X92297319Y-59445323D01*
X92297319Y-59445323D02*
X92249700Y-59540561D01*
X92249700Y-59540561D02*
X92202080Y-59588180D01*
X90945180Y-94171495D02*
X90135657Y-94171495D01*
X90135657Y-94171495D02*
X90040419Y-94219114D01*
X90040419Y-94219114D02*
X89992800Y-94266733D01*
X89992800Y-94266733D02*
X89945180Y-94361971D01*
X89945180Y-94361971D02*
X89945180Y-94552447D01*
X89945180Y-94552447D02*
X89992800Y-94647685D01*
X89992800Y-94647685D02*
X90040419Y-94695304D01*
X90040419Y-94695304D02*
X90135657Y-94742923D01*
X90135657Y-94742923D02*
X90945180Y-94742923D01*
X89945180Y-95742923D02*
X89945180Y-95171495D01*
X89945180Y-95457209D02*
X90945180Y-95457209D01*
X90945180Y-95457209D02*
X90802323Y-95361971D01*
X90802323Y-95361971D02*
X90707085Y-95266733D01*
X90707085Y-95266733D02*
X90659466Y-95171495D01*
X91945180Y-89504829D02*
X92945180Y-89504829D01*
X92945180Y-89504829D02*
X92945180Y-89885781D01*
X92945180Y-89885781D02*
X92897561Y-89981019D01*
X92897561Y-89981019D02*
X92849942Y-90028638D01*
X92849942Y-90028638D02*
X92754704Y-90076257D01*
X92754704Y-90076257D02*
X92611847Y-90076257D01*
X92611847Y-90076257D02*
X92516609Y-90028638D01*
X92516609Y-90028638D02*
X92468990Y-89981019D01*
X92468990Y-89981019D02*
X92421371Y-89885781D01*
X92421371Y-89885781D02*
X92421371Y-89504829D01*
X91945180Y-90504829D02*
X92945180Y-90504829D01*
X91945180Y-91076257D02*
X92516609Y-90647686D01*
X92945180Y-91076257D02*
X92373752Y-90504829D01*
X92945180Y-91504829D02*
X92135657Y-91504829D01*
X92135657Y-91504829D02*
X92040419Y-91552448D01*
X92040419Y-91552448D02*
X91992800Y-91600067D01*
X91992800Y-91600067D02*
X91945180Y-91695305D01*
X91945180Y-91695305D02*
X91945180Y-91885781D01*
X91945180Y-91885781D02*
X91992800Y-91981019D01*
X91992800Y-91981019D02*
X92040419Y-92028638D01*
X92040419Y-92028638D02*
X92135657Y-92076257D01*
X92135657Y-92076257D02*
X92945180Y-92076257D01*
X92611847Y-92981019D02*
X91945180Y-92981019D01*
X92992800Y-92742924D02*
X92278514Y-92504829D01*
X92278514Y-92504829D02*
X92278514Y-93123876D01*
X91945180Y-93552448D02*
X91945180Y-93742924D01*
X91945180Y-93742924D02*
X91992800Y-93838162D01*
X91992800Y-93838162D02*
X92040419Y-93885781D01*
X92040419Y-93885781D02*
X92183276Y-93981019D01*
X92183276Y-93981019D02*
X92373752Y-94028638D01*
X92373752Y-94028638D02*
X92754704Y-94028638D01*
X92754704Y-94028638D02*
X92849942Y-93981019D01*
X92849942Y-93981019D02*
X92897561Y-93933400D01*
X92897561Y-93933400D02*
X92945180Y-93838162D01*
X92945180Y-93838162D02*
X92945180Y-93647686D01*
X92945180Y-93647686D02*
X92897561Y-93552448D01*
X92897561Y-93552448D02*
X92849942Y-93504829D01*
X92849942Y-93504829D02*
X92754704Y-93457210D01*
X92754704Y-93457210D02*
X92516609Y-93457210D01*
X92516609Y-93457210D02*
X92421371Y-93504829D01*
X92421371Y-93504829D02*
X92373752Y-93552448D01*
X92373752Y-93552448D02*
X92326133Y-93647686D01*
X92326133Y-93647686D02*
X92326133Y-93838162D01*
X92326133Y-93838162D02*
X92373752Y-93933400D01*
X92373752Y-93933400D02*
X92421371Y-93981019D01*
X92421371Y-93981019D02*
X92516609Y-94028638D01*
X91945180Y-94981019D02*
X91945180Y-94409591D01*
X91945180Y-94695305D02*
X92945180Y-94695305D01*
X92945180Y-94695305D02*
X92802323Y-94600067D01*
X92802323Y-94600067D02*
X92707085Y-94504829D01*
X92707085Y-94504829D02*
X92659466Y-94409591D01*
X92945180Y-95314353D02*
X92945180Y-95933400D01*
X92945180Y-95933400D02*
X92564228Y-95600067D01*
X92564228Y-95600067D02*
X92564228Y-95742924D01*
X92564228Y-95742924D02*
X92516609Y-95838162D01*
X92516609Y-95838162D02*
X92468990Y-95885781D01*
X92468990Y-95885781D02*
X92373752Y-95933400D01*
X92373752Y-95933400D02*
X92135657Y-95933400D01*
X92135657Y-95933400D02*
X92040419Y-95885781D01*
X92040419Y-95885781D02*
X91992800Y-95838162D01*
X91992800Y-95838162D02*
X91945180Y-95742924D01*
X91945180Y-95742924D02*
X91945180Y-95457210D01*
X91945180Y-95457210D02*
X91992800Y-95361972D01*
X91992800Y-95361972D02*
X92040419Y-95314353D01*
X91945180Y-96361972D02*
X92945180Y-96361972D01*
X92945180Y-96361972D02*
X92945180Y-96600067D01*
X92945180Y-96600067D02*
X92897561Y-96742924D01*
X92897561Y-96742924D02*
X92802323Y-96838162D01*
X92802323Y-96838162D02*
X92707085Y-96885781D01*
X92707085Y-96885781D02*
X92516609Y-96933400D01*
X92516609Y-96933400D02*
X92373752Y-96933400D01*
X92373752Y-96933400D02*
X92183276Y-96885781D01*
X92183276Y-96885781D02*
X92088038Y-96838162D01*
X92088038Y-96838162D02*
X91992800Y-96742924D01*
X91992800Y-96742924D02*
X91945180Y-96600067D01*
X91945180Y-96600067D02*
X91945180Y-96361972D01*
X91945180Y-97361972D02*
X92945180Y-97361972D01*
X92945180Y-97361972D02*
X92945180Y-97742924D01*
X92945180Y-97742924D02*
X92897561Y-97838162D01*
X92897561Y-97838162D02*
X92849942Y-97885781D01*
X92849942Y-97885781D02*
X92754704Y-97933400D01*
X92754704Y-97933400D02*
X92611847Y-97933400D01*
X92611847Y-97933400D02*
X92516609Y-97885781D01*
X92516609Y-97885781D02*
X92468990Y-97838162D01*
X92468990Y-97838162D02*
X92421371Y-97742924D01*
X92421371Y-97742924D02*
X92421371Y-97361972D01*
X91945180Y-98361972D02*
X92945180Y-98361972D01*
X91945180Y-98838162D02*
X92945180Y-98838162D01*
X92468990Y-98838162D02*
X92468990Y-99409590D01*
X91945180Y-99409590D02*
X92945180Y-99409590D01*
X91992800Y-99838162D02*
X91945180Y-99981019D01*
X91945180Y-99981019D02*
X91945180Y-100219114D01*
X91945180Y-100219114D02*
X91992800Y-100314352D01*
X91992800Y-100314352D02*
X92040419Y-100361971D01*
X92040419Y-100361971D02*
X92135657Y-100409590D01*
X92135657Y-100409590D02*
X92230895Y-100409590D01*
X92230895Y-100409590D02*
X92326133Y-100361971D01*
X92326133Y-100361971D02*
X92373752Y-100314352D01*
X92373752Y-100314352D02*
X92421371Y-100219114D01*
X92421371Y-100219114D02*
X92468990Y-100028638D01*
X92468990Y-100028638D02*
X92516609Y-99933400D01*
X92516609Y-99933400D02*
X92564228Y-99885781D01*
X92564228Y-99885781D02*
X92659466Y-99838162D01*
X92659466Y-99838162D02*
X92754704Y-99838162D01*
X92754704Y-99838162D02*
X92849942Y-99885781D01*
X92849942Y-99885781D02*
X92897561Y-99933400D01*
X92897561Y-99933400D02*
X92945180Y-100028638D01*
X92945180Y-100028638D02*
X92945180Y-100266733D01*
X92945180Y-100266733D02*
X92897561Y-100409590D01*
X110066666Y-126854819D02*
X110066666Y-127569104D01*
X110066666Y-127569104D02*
X110019047Y-127711961D01*
X110019047Y-127711961D02*
X109923809Y-127807200D01*
X109923809Y-127807200D02*
X109780952Y-127854819D01*
X109780952Y-127854819D02*
X109685714Y-127854819D01*
X110971428Y-126854819D02*
X110780952Y-126854819D01*
X110780952Y-126854819D02*
X110685714Y-126902438D01*
X110685714Y-126902438D02*
X110638095Y-126950057D01*
X110638095Y-126950057D02*
X110542857Y-127092914D01*
X110542857Y-127092914D02*
X110495238Y-127283390D01*
X110495238Y-127283390D02*
X110495238Y-127664342D01*
X110495238Y-127664342D02*
X110542857Y-127759580D01*
X110542857Y-127759580D02*
X110590476Y-127807200D01*
X110590476Y-127807200D02*
X110685714Y-127854819D01*
X110685714Y-127854819D02*
X110876190Y-127854819D01*
X110876190Y-127854819D02*
X110971428Y-127807200D01*
X110971428Y-127807200D02*
X111019047Y-127759580D01*
X111019047Y-127759580D02*
X111066666Y-127664342D01*
X111066666Y-127664342D02*
X111066666Y-127426247D01*
X111066666Y-127426247D02*
X111019047Y-127331009D01*
X111019047Y-127331009D02*
X110971428Y-127283390D01*
X110971428Y-127283390D02*
X110876190Y-127235771D01*
X110876190Y-127235771D02*
X110685714Y-127235771D01*
X110685714Y-127235771D02*
X110590476Y-127283390D01*
X110590476Y-127283390D02*
X110542857Y-127331009D01*
X110542857Y-127331009D02*
X110495238Y-127426247D01*
X128393780Y-102461666D02*
X128441400Y-102509285D01*
X128441400Y-102509285D02*
X128489019Y-102652142D01*
X128489019Y-102652142D02*
X128489019Y-102747380D01*
X128489019Y-102747380D02*
X128441400Y-102890237D01*
X128441400Y-102890237D02*
X128346161Y-102985475D01*
X128346161Y-102985475D02*
X128250923Y-103033094D01*
X128250923Y-103033094D02*
X128060447Y-103080713D01*
X128060447Y-103080713D02*
X127917590Y-103080713D01*
X127917590Y-103080713D02*
X127727114Y-103033094D01*
X127727114Y-103033094D02*
X127631876Y-102985475D01*
X127631876Y-102985475D02*
X127536638Y-102890237D01*
X127536638Y-102890237D02*
X127489019Y-102747380D01*
X127489019Y-102747380D02*
X127489019Y-102652142D01*
X127489019Y-102652142D02*
X127536638Y-102509285D01*
X127536638Y-102509285D02*
X127584257Y-102461666D01*
X128489019Y-101509285D02*
X128489019Y-102080713D01*
X128489019Y-101794999D02*
X127489019Y-101794999D01*
X127489019Y-101794999D02*
X127631876Y-101890237D01*
X127631876Y-101890237D02*
X127727114Y-101985475D01*
X127727114Y-101985475D02*
X127774733Y-102080713D01*
X120084257Y-103509285D02*
X120036638Y-103461666D01*
X120036638Y-103461666D02*
X119989019Y-103366428D01*
X119989019Y-103366428D02*
X119989019Y-103128333D01*
X119989019Y-103128333D02*
X120036638Y-103033095D01*
X120036638Y-103033095D02*
X120084257Y-102985476D01*
X120084257Y-102985476D02*
X120179495Y-102937857D01*
X120179495Y-102937857D02*
X120274733Y-102937857D01*
X120274733Y-102937857D02*
X120417590Y-102985476D01*
X120417590Y-102985476D02*
X120989019Y-103556904D01*
X120989019Y-103556904D02*
X120989019Y-102937857D01*
X120322352Y-102509285D02*
X120989019Y-102509285D01*
X120417590Y-102509285D02*
X120369971Y-102461666D01*
X120369971Y-102461666D02*
X120322352Y-102366428D01*
X120322352Y-102366428D02*
X120322352Y-102223571D01*
X120322352Y-102223571D02*
X120369971Y-102128333D01*
X120369971Y-102128333D02*
X120465209Y-102080714D01*
X120465209Y-102080714D02*
X120989019Y-102080714D01*
X119989019Y-101699761D02*
X119989019Y-101033095D01*
X119989019Y-101033095D02*
X120989019Y-101461666D01*
X59238095Y-126254819D02*
X59238095Y-125254819D01*
X59238095Y-125731009D02*
X59809523Y-125731009D01*
X59809523Y-126254819D02*
X59809523Y-125254819D01*
X60190476Y-125254819D02*
X60809523Y-125254819D01*
X60809523Y-125254819D02*
X60476190Y-125635771D01*
X60476190Y-125635771D02*
X60619047Y-125635771D01*
X60619047Y-125635771D02*
X60714285Y-125683390D01*
X60714285Y-125683390D02*
X60761904Y-125731009D01*
X60761904Y-125731009D02*
X60809523Y-125826247D01*
X60809523Y-125826247D02*
X60809523Y-126064342D01*
X60809523Y-126064342D02*
X60761904Y-126159580D01*
X60761904Y-126159580D02*
X60714285Y-126207200D01*
X60714285Y-126207200D02*
X60619047Y-126254819D01*
X60619047Y-126254819D02*
X60333333Y-126254819D01*
X60333333Y-126254819D02*
X60238095Y-126207200D01*
X60238095Y-126207200D02*
X60190476Y-126159580D01*
X129238095Y-126254819D02*
X129238095Y-125254819D01*
X129238095Y-125731009D02*
X129809523Y-125731009D01*
X129809523Y-126254819D02*
X129809523Y-125254819D01*
X130714285Y-125588152D02*
X130714285Y-126254819D01*
X130476190Y-125207200D02*
X130238095Y-125921485D01*
X130238095Y-125921485D02*
X130857142Y-125921485D01*
X101707319Y-111006633D02*
X102421604Y-111006633D01*
X102421604Y-111006633D02*
X102564461Y-111054252D01*
X102564461Y-111054252D02*
X102659700Y-111149490D01*
X102659700Y-111149490D02*
X102707319Y-111292347D01*
X102707319Y-111292347D02*
X102707319Y-111387585D01*
X102707319Y-110006633D02*
X102707319Y-110578061D01*
X102707319Y-110292347D02*
X101707319Y-110292347D01*
X101707319Y-110292347D02*
X101850176Y-110387585D01*
X101850176Y-110387585D02*
X101945414Y-110482823D01*
X101945414Y-110482823D02*
X101993033Y-110578061D01*
X74454819Y-85952381D02*
X73454819Y-85952381D01*
X73931009Y-85952381D02*
X73931009Y-85380953D01*
X74454819Y-85380953D02*
X73454819Y-85380953D01*
X73454819Y-84904762D02*
X74264342Y-84904762D01*
X74264342Y-84904762D02*
X74359580Y-84857143D01*
X74359580Y-84857143D02*
X74407200Y-84809524D01*
X74407200Y-84809524D02*
X74454819Y-84714286D01*
X74454819Y-84714286D02*
X74454819Y-84523810D01*
X74454819Y-84523810D02*
X74407200Y-84428572D01*
X74407200Y-84428572D02*
X74359580Y-84380953D01*
X74359580Y-84380953D02*
X74264342Y-84333334D01*
X74264342Y-84333334D02*
X73454819Y-84333334D01*
X74359580Y-82523810D02*
X74407200Y-82571429D01*
X74407200Y-82571429D02*
X74454819Y-82714286D01*
X74454819Y-82714286D02*
X74454819Y-82809524D01*
X74454819Y-82809524D02*
X74407200Y-82952381D01*
X74407200Y-82952381D02*
X74311961Y-83047619D01*
X74311961Y-83047619D02*
X74216723Y-83095238D01*
X74216723Y-83095238D02*
X74026247Y-83142857D01*
X74026247Y-83142857D02*
X73883390Y-83142857D01*
X73883390Y-83142857D02*
X73692914Y-83095238D01*
X73692914Y-83095238D02*
X73597676Y-83047619D01*
X73597676Y-83047619D02*
X73502438Y-82952381D01*
X73502438Y-82952381D02*
X73454819Y-82809524D01*
X73454819Y-82809524D02*
X73454819Y-82714286D01*
X73454819Y-82714286D02*
X73502438Y-82571429D01*
X73502438Y-82571429D02*
X73550057Y-82523810D01*
X74454819Y-81952381D02*
X74407200Y-82047619D01*
X74407200Y-82047619D02*
X74359580Y-82095238D01*
X74359580Y-82095238D02*
X74264342Y-82142857D01*
X74264342Y-82142857D02*
X73978628Y-82142857D01*
X73978628Y-82142857D02*
X73883390Y-82095238D01*
X73883390Y-82095238D02*
X73835771Y-82047619D01*
X73835771Y-82047619D02*
X73788152Y-81952381D01*
X73788152Y-81952381D02*
X73788152Y-81809524D01*
X73788152Y-81809524D02*
X73835771Y-81714286D01*
X73835771Y-81714286D02*
X73883390Y-81666667D01*
X73883390Y-81666667D02*
X73978628Y-81619048D01*
X73978628Y-81619048D02*
X74264342Y-81619048D01*
X74264342Y-81619048D02*
X74359580Y-81666667D01*
X74359580Y-81666667D02*
X74407200Y-81714286D01*
X74407200Y-81714286D02*
X74454819Y-81809524D01*
X74454819Y-81809524D02*
X74454819Y-81952381D01*
X73788152Y-81190476D02*
X74454819Y-81190476D01*
X73883390Y-81190476D02*
X73835771Y-81142857D01*
X73835771Y-81142857D02*
X73788152Y-81047619D01*
X73788152Y-81047619D02*
X73788152Y-80904762D01*
X73788152Y-80904762D02*
X73835771Y-80809524D01*
X73835771Y-80809524D02*
X73931009Y-80761905D01*
X73931009Y-80761905D02*
X74454819Y-80761905D01*
X73788152Y-80285714D02*
X74454819Y-80285714D01*
X73883390Y-80285714D02*
X73835771Y-80238095D01*
X73835771Y-80238095D02*
X73788152Y-80142857D01*
X73788152Y-80142857D02*
X73788152Y-80000000D01*
X73788152Y-80000000D02*
X73835771Y-79904762D01*
X73835771Y-79904762D02*
X73931009Y-79857143D01*
X73931009Y-79857143D02*
X74454819Y-79857143D01*
X74407200Y-79000000D02*
X74454819Y-79095238D01*
X74454819Y-79095238D02*
X74454819Y-79285714D01*
X74454819Y-79285714D02*
X74407200Y-79380952D01*
X74407200Y-79380952D02*
X74311961Y-79428571D01*
X74311961Y-79428571D02*
X73931009Y-79428571D01*
X73931009Y-79428571D02*
X73835771Y-79380952D01*
X73835771Y-79380952D02*
X73788152Y-79285714D01*
X73788152Y-79285714D02*
X73788152Y-79095238D01*
X73788152Y-79095238D02*
X73835771Y-79000000D01*
X73835771Y-79000000D02*
X73931009Y-78952381D01*
X73931009Y-78952381D02*
X74026247Y-78952381D01*
X74026247Y-78952381D02*
X74121485Y-79428571D01*
X74407200Y-78095238D02*
X74454819Y-78190476D01*
X74454819Y-78190476D02*
X74454819Y-78380952D01*
X74454819Y-78380952D02*
X74407200Y-78476190D01*
X74407200Y-78476190D02*
X74359580Y-78523809D01*
X74359580Y-78523809D02*
X74264342Y-78571428D01*
X74264342Y-78571428D02*
X73978628Y-78571428D01*
X73978628Y-78571428D02*
X73883390Y-78523809D01*
X73883390Y-78523809D02*
X73835771Y-78476190D01*
X73835771Y-78476190D02*
X73788152Y-78380952D01*
X73788152Y-78380952D02*
X73788152Y-78190476D01*
X73788152Y-78190476D02*
X73835771Y-78095238D01*
X73788152Y-77809523D02*
X73788152Y-77428571D01*
X73454819Y-77666666D02*
X74311961Y-77666666D01*
X74311961Y-77666666D02*
X74407200Y-77619047D01*
X74407200Y-77619047D02*
X74454819Y-77523809D01*
X74454819Y-77523809D02*
X74454819Y-77428571D01*
X74454819Y-76952380D02*
X74407200Y-77047618D01*
X74407200Y-77047618D02*
X74359580Y-77095237D01*
X74359580Y-77095237D02*
X74264342Y-77142856D01*
X74264342Y-77142856D02*
X73978628Y-77142856D01*
X73978628Y-77142856D02*
X73883390Y-77095237D01*
X73883390Y-77095237D02*
X73835771Y-77047618D01*
X73835771Y-77047618D02*
X73788152Y-76952380D01*
X73788152Y-76952380D02*
X73788152Y-76809523D01*
X73788152Y-76809523D02*
X73835771Y-76714285D01*
X73835771Y-76714285D02*
X73883390Y-76666666D01*
X73883390Y-76666666D02*
X73978628Y-76619047D01*
X73978628Y-76619047D02*
X74264342Y-76619047D01*
X74264342Y-76619047D02*
X74359580Y-76666666D01*
X74359580Y-76666666D02*
X74407200Y-76714285D01*
X74407200Y-76714285D02*
X74454819Y-76809523D01*
X74454819Y-76809523D02*
X74454819Y-76952380D01*
X74454819Y-76190475D02*
X73788152Y-76190475D01*
X73978628Y-76190475D02*
X73883390Y-76142856D01*
X73883390Y-76142856D02*
X73835771Y-76095237D01*
X73835771Y-76095237D02*
X73788152Y-75999999D01*
X73788152Y-75999999D02*
X73788152Y-75904761D01*
X105428571Y-100654819D02*
X105428571Y-99654819D01*
X105428571Y-99654819D02*
X105761904Y-100369104D01*
X105761904Y-100369104D02*
X106095237Y-99654819D01*
X106095237Y-99654819D02*
X106095237Y-100654819D01*
X106761904Y-99654819D02*
X106952380Y-99654819D01*
X106952380Y-99654819D02*
X107047618Y-99702438D01*
X107047618Y-99702438D02*
X107142856Y-99797676D01*
X107142856Y-99797676D02*
X107190475Y-99988152D01*
X107190475Y-99988152D02*
X107190475Y-100321485D01*
X107190475Y-100321485D02*
X107142856Y-100511961D01*
X107142856Y-100511961D02*
X107047618Y-100607200D01*
X107047618Y-100607200D02*
X106952380Y-100654819D01*
X106952380Y-100654819D02*
X106761904Y-100654819D01*
X106761904Y-100654819D02*
X106666666Y-100607200D01*
X106666666Y-100607200D02*
X106571428Y-100511961D01*
X106571428Y-100511961D02*
X106523809Y-100321485D01*
X106523809Y-100321485D02*
X106523809Y-99988152D01*
X106523809Y-99988152D02*
X106571428Y-99797676D01*
X106571428Y-99797676D02*
X106666666Y-99702438D01*
X106666666Y-99702438D02*
X106761904Y-99654819D01*
X107571428Y-100607200D02*
X107714285Y-100654819D01*
X107714285Y-100654819D02*
X107952380Y-100654819D01*
X107952380Y-100654819D02*
X108047618Y-100607200D01*
X108047618Y-100607200D02*
X108095237Y-100559580D01*
X108095237Y-100559580D02*
X108142856Y-100464342D01*
X108142856Y-100464342D02*
X108142856Y-100369104D01*
X108142856Y-100369104D02*
X108095237Y-100273866D01*
X108095237Y-100273866D02*
X108047618Y-100226247D01*
X108047618Y-100226247D02*
X107952380Y-100178628D01*
X107952380Y-100178628D02*
X107761904Y-100131009D01*
X107761904Y-100131009D02*
X107666666Y-100083390D01*
X107666666Y-100083390D02*
X107619047Y-100035771D01*
X107619047Y-100035771D02*
X107571428Y-99940533D01*
X107571428Y-99940533D02*
X107571428Y-99845295D01*
X107571428Y-99845295D02*
X107619047Y-99750057D01*
X107619047Y-99750057D02*
X107666666Y-99702438D01*
X107666666Y-99702438D02*
X107761904Y-99654819D01*
X107761904Y-99654819D02*
X107999999Y-99654819D01*
X107999999Y-99654819D02*
X108142856Y-99702438D01*
X108904761Y-100131009D02*
X108571428Y-100131009D01*
X108571428Y-100654819D02*
X108571428Y-99654819D01*
X108571428Y-99654819D02*
X109047618Y-99654819D01*
X109428571Y-100131009D02*
X109761904Y-100131009D01*
X109904761Y-100654819D02*
X109428571Y-100654819D01*
X109428571Y-100654819D02*
X109428571Y-99654819D01*
X109428571Y-99654819D02*
X109904761Y-99654819D01*
X110190476Y-99654819D02*
X110761904Y-99654819D01*
X110476190Y-100654819D02*
X110476190Y-99654819D01*
X111619047Y-100654819D02*
X111047619Y-100654819D01*
X111333333Y-100654819D02*
X111333333Y-99654819D01*
X111333333Y-99654819D02*
X111238095Y-99797676D01*
X111238095Y-99797676D02*
X111142857Y-99892914D01*
X111142857Y-99892914D02*
X111047619Y-99940533D01*
X113352000Y-99004819D02*
X113352000Y-99242914D01*
X113113905Y-99147676D02*
X113352000Y-99242914D01*
X113352000Y-99242914D02*
X113590095Y-99147676D01*
X113209143Y-99433390D02*
X113352000Y-99242914D01*
X113352000Y-99242914D02*
X113494857Y-99433390D01*
X113352000Y-99004819D02*
X113352000Y-99242914D01*
X113113905Y-99147676D02*
X113352000Y-99242914D01*
X113352000Y-99242914D02*
X113590095Y-99147676D01*
X113209143Y-99433390D02*
X113352000Y-99242914D01*
X113352000Y-99242914D02*
X113494857Y-99433390D01*
X55154819Y-107933333D02*
X55869104Y-107933333D01*
X55869104Y-107933333D02*
X56011961Y-107980952D01*
X56011961Y-107980952D02*
X56107200Y-108076190D01*
X56107200Y-108076190D02*
X56154819Y-108219047D01*
X56154819Y-108219047D02*
X56154819Y-108314285D01*
X55154819Y-107552380D02*
X55154819Y-106885714D01*
X55154819Y-106885714D02*
X56154819Y-107314285D01*
X120571428Y-92045180D02*
X120571428Y-93045180D01*
X120571428Y-93045180D02*
X120238095Y-92330895D01*
X120238095Y-92330895D02*
X119904762Y-93045180D01*
X119904762Y-93045180D02*
X119904762Y-92045180D01*
X119238095Y-93045180D02*
X119047619Y-93045180D01*
X119047619Y-93045180D02*
X118952381Y-92997561D01*
X118952381Y-92997561D02*
X118857143Y-92902323D01*
X118857143Y-92902323D02*
X118809524Y-92711847D01*
X118809524Y-92711847D02*
X118809524Y-92378514D01*
X118809524Y-92378514D02*
X118857143Y-92188038D01*
X118857143Y-92188038D02*
X118952381Y-92092800D01*
X118952381Y-92092800D02*
X119047619Y-92045180D01*
X119047619Y-92045180D02*
X119238095Y-92045180D01*
X119238095Y-92045180D02*
X119333333Y-92092800D01*
X119333333Y-92092800D02*
X119428571Y-92188038D01*
X119428571Y-92188038D02*
X119476190Y-92378514D01*
X119476190Y-92378514D02*
X119476190Y-92711847D01*
X119476190Y-92711847D02*
X119428571Y-92902323D01*
X119428571Y-92902323D02*
X119333333Y-92997561D01*
X119333333Y-92997561D02*
X119238095Y-93045180D01*
X118428571Y-92092800D02*
X118285714Y-92045180D01*
X118285714Y-92045180D02*
X118047619Y-92045180D01*
X118047619Y-92045180D02*
X117952381Y-92092800D01*
X117952381Y-92092800D02*
X117904762Y-92140419D01*
X117904762Y-92140419D02*
X117857143Y-92235657D01*
X117857143Y-92235657D02*
X117857143Y-92330895D01*
X117857143Y-92330895D02*
X117904762Y-92426133D01*
X117904762Y-92426133D02*
X117952381Y-92473752D01*
X117952381Y-92473752D02*
X118047619Y-92521371D01*
X118047619Y-92521371D02*
X118238095Y-92568990D01*
X118238095Y-92568990D02*
X118333333Y-92616609D01*
X118333333Y-92616609D02*
X118380952Y-92664228D01*
X118380952Y-92664228D02*
X118428571Y-92759466D01*
X118428571Y-92759466D02*
X118428571Y-92854704D01*
X118428571Y-92854704D02*
X118380952Y-92949942D01*
X118380952Y-92949942D02*
X118333333Y-92997561D01*
X118333333Y-92997561D02*
X118238095Y-93045180D01*
X118238095Y-93045180D02*
X118000000Y-93045180D01*
X118000000Y-93045180D02*
X117857143Y-92997561D01*
X117095238Y-92568990D02*
X117428571Y-92568990D01*
X117428571Y-92045180D02*
X117428571Y-93045180D01*
X117428571Y-93045180D02*
X116952381Y-93045180D01*
X116571428Y-92568990D02*
X116238095Y-92568990D01*
X116095238Y-92045180D02*
X116571428Y-92045180D01*
X116571428Y-92045180D02*
X116571428Y-93045180D01*
X116571428Y-93045180D02*
X116095238Y-93045180D01*
X115809523Y-93045180D02*
X115238095Y-93045180D01*
X115523809Y-92045180D02*
X115523809Y-93045180D01*
X114952380Y-92949942D02*
X114904761Y-92997561D01*
X114904761Y-92997561D02*
X114809523Y-93045180D01*
X114809523Y-93045180D02*
X114571428Y-93045180D01*
X114571428Y-93045180D02*
X114476190Y-92997561D01*
X114476190Y-92997561D02*
X114428571Y-92949942D01*
X114428571Y-92949942D02*
X114380952Y-92854704D01*
X114380952Y-92854704D02*
X114380952Y-92759466D01*
X114380952Y-92759466D02*
X114428571Y-92616609D01*
X114428571Y-92616609D02*
X114999999Y-92045180D01*
X114999999Y-92045180D02*
X114380952Y-92045180D01*
X117223999Y-96840180D02*
X117223999Y-96602085D01*
X117462094Y-96697323D02*
X117223999Y-96602085D01*
X117223999Y-96602085D02*
X116985904Y-96697323D01*
X117366856Y-96411609D02*
X117223999Y-96602085D01*
X117223999Y-96602085D02*
X117081142Y-96411609D01*
X117224000Y-95749819D02*
X117224000Y-95987914D01*
X116985905Y-95892676D02*
X117224000Y-95987914D01*
X117224000Y-95987914D02*
X117462095Y-95892676D01*
X117081143Y-96178390D02*
X117224000Y-95987914D01*
X117224000Y-95987914D02*
X117366857Y-96178390D01*
X123197533Y-106829819D02*
X122864200Y-106353628D01*
X122626105Y-106829819D02*
X122626105Y-105829819D01*
X122626105Y-105829819D02*
X123007057Y-105829819D01*
X123007057Y-105829819D02*
X123102295Y-105877438D01*
X123102295Y-105877438D02*
X123149914Y-105925057D01*
X123149914Y-105925057D02*
X123197533Y-106020295D01*
X123197533Y-106020295D02*
X123197533Y-106163152D01*
X123197533Y-106163152D02*
X123149914Y-106258390D01*
X123149914Y-106258390D02*
X123102295Y-106306009D01*
X123102295Y-106306009D02*
X123007057Y-106353628D01*
X123007057Y-106353628D02*
X122626105Y-106353628D01*
X124149914Y-106829819D02*
X123578486Y-106829819D01*
X123864200Y-106829819D02*
X123864200Y-105829819D01*
X123864200Y-105829819D02*
X123768962Y-105972676D01*
X123768962Y-105972676D02*
X123673724Y-106067914D01*
X123673724Y-106067914D02*
X123578486Y-106115533D01*
X122855629Y-109765057D02*
X122903248Y-109717438D01*
X122903248Y-109717438D02*
X122998486Y-109669819D01*
X122998486Y-109669819D02*
X123236581Y-109669819D01*
X123236581Y-109669819D02*
X123331819Y-109717438D01*
X123331819Y-109717438D02*
X123379438Y-109765057D01*
X123379438Y-109765057D02*
X123427057Y-109860295D01*
X123427057Y-109860295D02*
X123427057Y-109955533D01*
X123427057Y-109955533D02*
X123379438Y-110098390D01*
X123379438Y-110098390D02*
X122808010Y-110669819D01*
X122808010Y-110669819D02*
X123427057Y-110669819D01*
X124331819Y-109669819D02*
X123855629Y-109669819D01*
X123855629Y-109669819D02*
X123808010Y-110146009D01*
X123808010Y-110146009D02*
X123855629Y-110098390D01*
X123855629Y-110098390D02*
X123950867Y-110050771D01*
X123950867Y-110050771D02*
X124188962Y-110050771D01*
X124188962Y-110050771D02*
X124284200Y-110098390D01*
X124284200Y-110098390D02*
X124331819Y-110146009D01*
X124331819Y-110146009D02*
X124379438Y-110241247D01*
X124379438Y-110241247D02*
X124379438Y-110479342D01*
X124379438Y-110479342D02*
X124331819Y-110574580D01*
X124331819Y-110574580D02*
X124284200Y-110622200D01*
X124284200Y-110622200D02*
X124188962Y-110669819D01*
X124188962Y-110669819D02*
X123950867Y-110669819D01*
X123950867Y-110669819D02*
X123855629Y-110622200D01*
X123855629Y-110622200D02*
X123808010Y-110574580D01*
X124808010Y-110669819D02*
X124808010Y-110003152D01*
X124808010Y-110098390D02*
X124855629Y-110050771D01*
X124855629Y-110050771D02*
X124950867Y-110003152D01*
X124950867Y-110003152D02*
X125093724Y-110003152D01*
X125093724Y-110003152D02*
X125188962Y-110050771D01*
X125188962Y-110050771D02*
X125236581Y-110146009D01*
X125236581Y-110146009D02*
X125236581Y-110669819D01*
X125236581Y-110146009D02*
X125284200Y-110050771D01*
X125284200Y-110050771D02*
X125379438Y-110003152D01*
X125379438Y-110003152D02*
X125522295Y-110003152D01*
X125522295Y-110003152D02*
X125617534Y-110050771D01*
X125617534Y-110050771D02*
X125665153Y-110146009D01*
X125665153Y-110146009D02*
X125665153Y-110669819D01*
X118487695Y-111830419D02*
X118487695Y-112639942D01*
X118487695Y-112639942D02*
X118535314Y-112735180D01*
X118535314Y-112735180D02*
X118582933Y-112782800D01*
X118582933Y-112782800D02*
X118678171Y-112830419D01*
X118678171Y-112830419D02*
X118868647Y-112830419D01*
X118868647Y-112830419D02*
X118963885Y-112782800D01*
X118963885Y-112782800D02*
X119011504Y-112735180D01*
X119011504Y-112735180D02*
X119059123Y-112639942D01*
X119059123Y-112639942D02*
X119059123Y-111830419D01*
X119440076Y-111830419D02*
X120059123Y-111830419D01*
X120059123Y-111830419D02*
X119725790Y-112211371D01*
X119725790Y-112211371D02*
X119868647Y-112211371D01*
X119868647Y-112211371D02*
X119963885Y-112258990D01*
X119963885Y-112258990D02*
X120011504Y-112306609D01*
X120011504Y-112306609D02*
X120059123Y-112401847D01*
X120059123Y-112401847D02*
X120059123Y-112639942D01*
X120059123Y-112639942D02*
X120011504Y-112735180D01*
X120011504Y-112735180D02*
X119963885Y-112782800D01*
X119963885Y-112782800D02*
X119868647Y-112830419D01*
X119868647Y-112830419D02*
X119582933Y-112830419D01*
X119582933Y-112830419D02*
X119487695Y-112782800D01*
X119487695Y-112782800D02*
X119440076Y-112735180D01*
X112306050Y-102168419D02*
X112306050Y-102406514D01*
X112067955Y-102311276D02*
X112306050Y-102406514D01*
X112306050Y-102406514D02*
X112544145Y-102311276D01*
X112163193Y-102596990D02*
X112306050Y-102406514D01*
X112306050Y-102406514D02*
X112448907Y-102596990D01*
X112306050Y-102168419D02*
X112306050Y-102406514D01*
X112067955Y-102311276D02*
X112306050Y-102406514D01*
X112306050Y-102406514D02*
X112544145Y-102311276D01*
X112163193Y-102596990D02*
X112306050Y-102406514D01*
X112306050Y-102406514D02*
X112448907Y-102596990D01*
X81066666Y-126854819D02*
X81066666Y-127569104D01*
X81066666Y-127569104D02*
X81019047Y-127711961D01*
X81019047Y-127711961D02*
X80923809Y-127807200D01*
X80923809Y-127807200D02*
X80780952Y-127854819D01*
X80780952Y-127854819D02*
X80685714Y-127854819D01*
X82019047Y-126854819D02*
X81542857Y-126854819D01*
X81542857Y-126854819D02*
X81495238Y-127331009D01*
X81495238Y-127331009D02*
X81542857Y-127283390D01*
X81542857Y-127283390D02*
X81638095Y-127235771D01*
X81638095Y-127235771D02*
X81876190Y-127235771D01*
X81876190Y-127235771D02*
X81971428Y-127283390D01*
X81971428Y-127283390D02*
X82019047Y-127331009D01*
X82019047Y-127331009D02*
X82066666Y-127426247D01*
X82066666Y-127426247D02*
X82066666Y-127664342D01*
X82066666Y-127664342D02*
X82019047Y-127759580D01*
X82019047Y-127759580D02*
X81971428Y-127807200D01*
X81971428Y-127807200D02*
X81876190Y-127854819D01*
X81876190Y-127854819D02*
X81638095Y-127854819D01*
X81638095Y-127854819D02*
X81542857Y-127807200D01*
X81542857Y-127807200D02*
X81495238Y-127759580D01*
X129238095Y-56254819D02*
X129238095Y-55254819D01*
X129238095Y-55731009D02*
X129809523Y-55731009D01*
X129809523Y-56254819D02*
X129809523Y-55254819D01*
X130238095Y-55350057D02*
X130285714Y-55302438D01*
X130285714Y-55302438D02*
X130380952Y-55254819D01*
X130380952Y-55254819D02*
X130619047Y-55254819D01*
X130619047Y-55254819D02*
X130714285Y-55302438D01*
X130714285Y-55302438D02*
X130761904Y-55350057D01*
X130761904Y-55350057D02*
X130809523Y-55445295D01*
X130809523Y-55445295D02*
X130809523Y-55540533D01*
X130809523Y-55540533D02*
X130761904Y-55683390D01*
X130761904Y-55683390D02*
X130190476Y-56254819D01*
X130190476Y-56254819D02*
X130809523Y-56254819D01*
X96066666Y-126854819D02*
X96066666Y-127569104D01*
X96066666Y-127569104D02*
X96019047Y-127711961D01*
X96019047Y-127711961D02*
X95923809Y-127807200D01*
X95923809Y-127807200D02*
X95780952Y-127854819D01*
X95780952Y-127854819D02*
X95685714Y-127854819D01*
X96971428Y-127188152D02*
X96971428Y-127854819D01*
X96733333Y-126807200D02*
X96495238Y-127521485D01*
X96495238Y-127521485D02*
X97114285Y-127521485D01*
D12*
%TO.C,U2*%
X107661000Y-78717000D02*
X107661000Y-88623000D01*
X107661000Y-88623000D02*
X130267000Y-88623000D01*
X130267000Y-78717000D02*
X107661000Y-78717000D01*
X130267000Y-88623000D02*
X130267000Y-78717000D01*
D13*
%TO.C,J2*%
X68780000Y-123590000D02*
X68780000Y-131210000D01*
X68780000Y-131210000D02*
X78940000Y-131210000D01*
X78940000Y-123590000D02*
X68780000Y-123590000D01*
X78940000Y-129940000D02*
X68780000Y-129940000D01*
X78940000Y-131210000D02*
X78940000Y-123590000D01*
%TO.C,R2*%
X122471700Y-94839200D02*
X126311700Y-94839200D01*
X122471700Y-96679200D02*
X126311700Y-96679200D01*
%TO.C,J3*%
X70402500Y-58305800D02*
X70402500Y-60965800D01*
X88242500Y-58305800D02*
X70402500Y-58305800D01*
X88242500Y-58305800D02*
X88242500Y-60965800D01*
X88242500Y-60965800D02*
X70402500Y-60965800D01*
X89512500Y-58305800D02*
X90842500Y-58305800D01*
X90842500Y-58305800D02*
X90842500Y-59635800D01*
D12*
%TO.C,U1*%
X78589000Y-78042400D02*
X78589000Y-111824400D01*
X78589000Y-111824400D02*
X102211000Y-111824400D01*
X102211000Y-78042400D02*
X78589000Y-78042400D01*
X102211000Y-111824400D02*
X102211000Y-78042400D01*
D14*
X98401000Y-77407400D02*
G75*
G02*
X97639000Y-77407400I-381000J0D01*
G01*
X97639000Y-77407400D02*
G75*
G02*
X98401000Y-77407400I381000J0D01*
G01*
D13*
%TO.C,J6*%
X111860000Y-123590000D02*
X111860000Y-131210000D01*
X111860000Y-131210000D02*
X122020000Y-131210000D01*
X122020000Y-123590000D02*
X111860000Y-123590000D01*
X122020000Y-129940000D02*
X111860000Y-129940000D01*
X122020000Y-131210000D02*
X122020000Y-123590000D01*
%TO.C,C1*%
X126904200Y-102295000D02*
G75*
G02*
X121664200Y-102295000I-2620000J0D01*
G01*
X121664200Y-102295000D02*
G75*
G02*
X126904200Y-102295000I2620000J0D01*
G01*
%TO.C,J1*%
X54420000Y-72602500D02*
X54420000Y-88122500D01*
X68000000Y-71917500D02*
X68500000Y-72417500D01*
X68500000Y-72417500D02*
X69000000Y-71917500D01*
X69000000Y-71917500D02*
X68000000Y-71917500D01*
X72380000Y-72602500D02*
X54420000Y-72602500D01*
X72380000Y-88122500D02*
X54420000Y-88122500D01*
X72380000Y-88122500D02*
X72380000Y-72602500D01*
D12*
%TO.C,MOSFET1*%
X114164800Y-101381100D02*
X114775269Y-101381100D01*
X114684207Y-99018900D02*
X114164800Y-99018900D01*
X115916531Y-101381100D02*
X116527000Y-101381100D01*
X116527000Y-99018900D02*
X116007593Y-99018900D01*
D13*
%TO.C,J7*%
X56850000Y-99750000D02*
X56850000Y-112600000D01*
X56850000Y-112600000D02*
X59400000Y-115450000D01*
X59400000Y-115450000D02*
X62550000Y-115450000D01*
X62550000Y-115450000D02*
X65150000Y-112600000D01*
X65150000Y-99750000D02*
X56850000Y-99750000D01*
X65150000Y-112600000D02*
X65150000Y-99750000D01*
D12*
%TO.C,MOSFET2*%
X114049000Y-96826100D02*
X114568407Y-96826100D01*
X114659469Y-94463900D02*
X114049000Y-94463900D01*
X115891793Y-96826100D02*
X116411200Y-96826100D01*
X116411200Y-94463900D02*
X115800731Y-94463900D01*
D13*
%TO.C,R1*%
X122364200Y-107375000D02*
X126204200Y-107375000D01*
X122364200Y-109215000D02*
X126204200Y-109215000D01*
D12*
%TO.C,U3*%
X113163300Y-108911200D02*
X117405100Y-108911200D01*
X117405100Y-103678800D02*
X113163300Y-103678800D01*
D13*
%TO.C,J5*%
X82860000Y-123540000D02*
X82860000Y-131160000D01*
X82860000Y-131160000D02*
X93020000Y-131160000D01*
X93020000Y-123540000D02*
X82860000Y-123540000D01*
X93020000Y-129890000D02*
X82860000Y-129890000D01*
X93020000Y-131160000D02*
X93020000Y-123540000D01*
%TO.C,J4*%
X97320000Y-123590000D02*
X97320000Y-131210000D01*
X97320000Y-131210000D02*
X107480000Y-131210000D01*
X107480000Y-123590000D02*
X97320000Y-123590000D01*
X107480000Y-129940000D02*
X97320000Y-129940000D01*
X107480000Y-131210000D02*
X107480000Y-123590000D01*
%TD*%
M02*
