%TF.GenerationSoftware,KiCad,Pcbnew,8.0.1*%
%TF.CreationDate,2024-07-22T16:36:45+02:00*%
%TF.ProjectId,Switch-_and_PowerDistribution-Board,53776974-6368-42d5-9f61-6e645f506f77,rev?*%
%TF.SameCoordinates,Original*%
%TF.FileFunction,Legend,Bot*%
%TF.FilePolarity,Positive*%
%FSLAX46Y46*%
G04 Gerber Fmt 4.6, Leading zero omitted, Abs format (unit mm)*
G04 Created by KiCad (PCBNEW 8.0.1) date 2024-07-22 16:36:45*
%MOMM*%
%LPD*%
G01*
G04 APERTURE LIST*
%ADD10C,0.100000*%
%ADD11C,0.508000*%
G04 APERTURE END LIST*
D10*
X95580193Y-106163380D02*
X95008765Y-106163380D01*
X95294479Y-106163380D02*
X95294479Y-107163380D01*
X95294479Y-107163380D02*
X95199241Y-107020523D01*
X95199241Y-107020523D02*
X95104003Y-106925285D01*
X95104003Y-106925285D02*
X95008765Y-106877666D01*
X95961146Y-107068142D02*
X96008765Y-107115761D01*
X96008765Y-107115761D02*
X96104003Y-107163380D01*
X96104003Y-107163380D02*
X96342098Y-107163380D01*
X96342098Y-107163380D02*
X96437336Y-107115761D01*
X96437336Y-107115761D02*
X96484955Y-107068142D01*
X96484955Y-107068142D02*
X96532574Y-106972904D01*
X96532574Y-106972904D02*
X96532574Y-106877666D01*
X96532574Y-106877666D02*
X96484955Y-106734809D01*
X96484955Y-106734809D02*
X95913527Y-106163380D01*
X95913527Y-106163380D02*
X96532574Y-106163380D01*
X96818289Y-107163380D02*
X97151622Y-106163380D01*
X97151622Y-106163380D02*
X97484955Y-107163380D01*
X98770670Y-107163380D02*
X98961146Y-107163380D01*
X98961146Y-107163380D02*
X99056384Y-107115761D01*
X99056384Y-107115761D02*
X99151622Y-107020523D01*
X99151622Y-107020523D02*
X99199241Y-106830047D01*
X99199241Y-106830047D02*
X99199241Y-106496714D01*
X99199241Y-106496714D02*
X99151622Y-106306238D01*
X99151622Y-106306238D02*
X99056384Y-106211000D01*
X99056384Y-106211000D02*
X98961146Y-106163380D01*
X98961146Y-106163380D02*
X98770670Y-106163380D01*
X98770670Y-106163380D02*
X98675432Y-106211000D01*
X98675432Y-106211000D02*
X98580194Y-106306238D01*
X98580194Y-106306238D02*
X98532575Y-106496714D01*
X98532575Y-106496714D02*
X98532575Y-106830047D01*
X98532575Y-106830047D02*
X98580194Y-107020523D01*
X98580194Y-107020523D02*
X98675432Y-107115761D01*
X98675432Y-107115761D02*
X98770670Y-107163380D01*
X100056384Y-106830047D02*
X100056384Y-106163380D01*
X99627813Y-106830047D02*
X99627813Y-106306238D01*
X99627813Y-106306238D02*
X99675432Y-106211000D01*
X99675432Y-106211000D02*
X99770670Y-106163380D01*
X99770670Y-106163380D02*
X99913527Y-106163380D01*
X99913527Y-106163380D02*
X100008765Y-106211000D01*
X100008765Y-106211000D02*
X100056384Y-106258619D01*
X100389718Y-106830047D02*
X100770670Y-106830047D01*
X100532575Y-107163380D02*
X100532575Y-106306238D01*
X100532575Y-106306238D02*
X100580194Y-106211000D01*
X100580194Y-106211000D02*
X100675432Y-106163380D01*
X100675432Y-106163380D02*
X100770670Y-106163380D01*
X81980193Y-107115761D02*
X81884955Y-107163380D01*
X81884955Y-107163380D02*
X81742098Y-107163380D01*
X81742098Y-107163380D02*
X81599241Y-107115761D01*
X81599241Y-107115761D02*
X81504003Y-107020523D01*
X81504003Y-107020523D02*
X81456384Y-106925285D01*
X81456384Y-106925285D02*
X81408765Y-106734809D01*
X81408765Y-106734809D02*
X81408765Y-106591952D01*
X81408765Y-106591952D02*
X81456384Y-106401476D01*
X81456384Y-106401476D02*
X81504003Y-106306238D01*
X81504003Y-106306238D02*
X81599241Y-106211000D01*
X81599241Y-106211000D02*
X81742098Y-106163380D01*
X81742098Y-106163380D02*
X81837336Y-106163380D01*
X81837336Y-106163380D02*
X81980193Y-106211000D01*
X81980193Y-106211000D02*
X82027812Y-106258619D01*
X82027812Y-106258619D02*
X82027812Y-106591952D01*
X82027812Y-106591952D02*
X81837336Y-106591952D01*
X82456384Y-106163380D02*
X82456384Y-107163380D01*
X82456384Y-107163380D02*
X83027812Y-106163380D01*
X83027812Y-106163380D02*
X83027812Y-107163380D01*
X83504003Y-106163380D02*
X83504003Y-107163380D01*
X83504003Y-107163380D02*
X83742098Y-107163380D01*
X83742098Y-107163380D02*
X83884955Y-107115761D01*
X83884955Y-107115761D02*
X83980193Y-107020523D01*
X83980193Y-107020523D02*
X84027812Y-106925285D01*
X84027812Y-106925285D02*
X84075431Y-106734809D01*
X84075431Y-106734809D02*
X84075431Y-106591952D01*
X84075431Y-106591952D02*
X84027812Y-106401476D01*
X84027812Y-106401476D02*
X83980193Y-106306238D01*
X83980193Y-106306238D02*
X83884955Y-106211000D01*
X83884955Y-106211000D02*
X83742098Y-106163380D01*
X83742098Y-106163380D02*
X83504003Y-106163380D01*
X95008765Y-83449095D02*
X95484955Y-83449095D01*
X94913527Y-83163380D02*
X95246860Y-84163380D01*
X95246860Y-84163380D02*
X95580193Y-83163380D01*
X95913527Y-83163380D02*
X95913527Y-84163380D01*
X96008765Y-83544333D02*
X96294479Y-83163380D01*
X96294479Y-83830047D02*
X95913527Y-83449095D01*
X96723051Y-83163380D02*
X96723051Y-84163380D01*
X96818289Y-83544333D02*
X97104003Y-83163380D01*
X97104003Y-83830047D02*
X96723051Y-83449095D01*
X97961146Y-83830047D02*
X97961146Y-83163380D01*
X97532575Y-83830047D02*
X97532575Y-83306238D01*
X97532575Y-83306238D02*
X97580194Y-83211000D01*
X97580194Y-83211000D02*
X97675432Y-83163380D01*
X97675432Y-83163380D02*
X97818289Y-83163380D01*
X97818289Y-83163380D02*
X97913527Y-83211000D01*
X97913527Y-83211000D02*
X97961146Y-83258619D01*
X99199242Y-83544333D02*
X99961147Y-83544333D01*
X99580194Y-83163380D02*
X99580194Y-83925285D01*
X100437337Y-83163380D02*
X100437337Y-84163380D01*
X100913527Y-83830047D02*
X100913527Y-83163380D01*
X100913527Y-83734809D02*
X100961146Y-83782428D01*
X100961146Y-83782428D02*
X101056384Y-83830047D01*
X101056384Y-83830047D02*
X101199241Y-83830047D01*
X101199241Y-83830047D02*
X101294479Y-83782428D01*
X101294479Y-83782428D02*
X101342098Y-83687190D01*
X101342098Y-83687190D02*
X101342098Y-83163380D01*
X82180193Y-84115761D02*
X82084955Y-84163380D01*
X82084955Y-84163380D02*
X81942098Y-84163380D01*
X81942098Y-84163380D02*
X81799241Y-84115761D01*
X81799241Y-84115761D02*
X81704003Y-84020523D01*
X81704003Y-84020523D02*
X81656384Y-83925285D01*
X81656384Y-83925285D02*
X81608765Y-83734809D01*
X81608765Y-83734809D02*
X81608765Y-83591952D01*
X81608765Y-83591952D02*
X81656384Y-83401476D01*
X81656384Y-83401476D02*
X81704003Y-83306238D01*
X81704003Y-83306238D02*
X81799241Y-83211000D01*
X81799241Y-83211000D02*
X81942098Y-83163380D01*
X81942098Y-83163380D02*
X82037336Y-83163380D01*
X82037336Y-83163380D02*
X82180193Y-83211000D01*
X82180193Y-83211000D02*
X82227812Y-83258619D01*
X82227812Y-83258619D02*
X82227812Y-83591952D01*
X82227812Y-83591952D02*
X82037336Y-83591952D01*
X82656384Y-83163380D02*
X82656384Y-84163380D01*
X82656384Y-84163380D02*
X83227812Y-83163380D01*
X83227812Y-83163380D02*
X83227812Y-84163380D01*
X83704003Y-83163380D02*
X83704003Y-84163380D01*
X83704003Y-84163380D02*
X83942098Y-84163380D01*
X83942098Y-84163380D02*
X84084955Y-84115761D01*
X84084955Y-84115761D02*
X84180193Y-84020523D01*
X84180193Y-84020523D02*
X84227812Y-83925285D01*
X84227812Y-83925285D02*
X84275431Y-83734809D01*
X84275431Y-83734809D02*
X84275431Y-83591952D01*
X84275431Y-83591952D02*
X84227812Y-83401476D01*
X84227812Y-83401476D02*
X84180193Y-83306238D01*
X84180193Y-83306238D02*
X84084955Y-83211000D01*
X84084955Y-83211000D02*
X83942098Y-83163380D01*
X83942098Y-83163380D02*
X83704003Y-83163380D01*
D11*
%TO.C,U1*%
X98401000Y-77407400D02*
G75*
G02*
X97639000Y-77407400I-381000J0D01*
G01*
X97639000Y-77407400D02*
G75*
G02*
X98401000Y-77407400I381000J0D01*
G01*
%TD*%
M02*
