%TF.GenerationSoftware,KiCad,Pcbnew,8.0.1*%
%TF.CreationDate,2024-07-22T16:36:45+02:00*%
%TF.ProjectId,Switch-_and_PowerDistribution-Board,53776974-6368-42d5-9f61-6e645f506f77,rev?*%
%TF.SameCoordinates,Original*%
%TF.FileFunction,Soldermask,Bot*%
%TF.FilePolarity,Negative*%
%FSLAX46Y46*%
G04 Gerber Fmt 4.6, Leading zero omitted, Abs format (unit mm)*
G04 Created by KiCad (PCBNEW 8.0.1) date 2024-07-22 16:36:45*
%MOMM*%
%LPD*%
G01*
G04 APERTURE LIST*
G04 Aperture macros list*
%AMRoundRect*
0 Rectangle with rounded corners*
0 $1 Rounding radius*
0 $2 $3 $4 $5 $6 $7 $8 $9 X,Y pos of 4 corners*
0 Add a 4 corners polygon primitive as box body*
4,1,4,$2,$3,$4,$5,$6,$7,$8,$9,$2,$3,0*
0 Add four circle primitives for the rounded corners*
1,1,$1+$1,$2,$3*
1,1,$1+$1,$4,$5*
1,1,$1+$1,$6,$7*
1,1,$1+$1,$8,$9*
0 Add four rect primitives between the rounded corners*
20,1,$1+$1,$2,$3,$4,$5,0*
20,1,$1+$1,$4,$5,$6,$7,0*
20,1,$1+$1,$6,$7,$8,$9,0*
20,1,$1+$1,$8,$9,$2,$3,0*%
G04 Aperture macros list end*
%ADD10R,1.270000X1.270000*%
%ADD11C,1.270000*%
%ADD12R,3.000000X3.000000*%
%ADD13C,3.000000*%
%ADD14C,1.400000*%
%ADD15O,1.400000X1.400000*%
%ADD16C,3.200000*%
%ADD17R,1.700000X1.700000*%
%ADD18O,1.700000X1.700000*%
%ADD19C,2.006600*%
%ADD20C,2.514600*%
%ADD21C,1.200000*%
%ADD22R,1.500000X1.500000*%
%ADD23C,1.500000*%
%ADD24RoundRect,1.500000X1.500000X-1.500000X1.500000X1.500000X-1.500000X1.500000X-1.500000X-1.500000X0*%
%ADD25C,6.000000*%
G04 APERTURE END LIST*
D10*
%TO.C,U2*%
X109820000Y-82400000D03*
D11*
X112360000Y-82400000D03*
X114900000Y-82400000D03*
X119980000Y-82400000D03*
X122520000Y-82400000D03*
X125060000Y-82400000D03*
X127600000Y-82400000D03*
%TD*%
D12*
%TO.C,J2*%
X71320000Y-127400000D03*
D13*
X76400000Y-127400000D03*
%TD*%
D14*
%TO.C,R2*%
X121851700Y-95759200D03*
D15*
X126931700Y-95759200D03*
%TD*%
D16*
%TO.C,H1*%
X60000000Y-60000000D03*
%TD*%
D17*
%TO.C,J3*%
X89512500Y-59635800D03*
D18*
X86972500Y-59635800D03*
X84432500Y-59635800D03*
X81892500Y-59635800D03*
X79352500Y-59635800D03*
X76812500Y-59635800D03*
X74272500Y-59635800D03*
X71732500Y-59635800D03*
%TD*%
D19*
%TO.C,U1*%
X98020000Y-80963400D03*
X90400000Y-80963400D03*
X82780000Y-80963400D03*
D20*
X82780000Y-108903400D03*
D19*
X90400000Y-108903400D03*
D20*
X98020000Y-108903400D03*
%TD*%
D12*
%TO.C,J6*%
X114400000Y-127400000D03*
D13*
X119480000Y-127400000D03*
%TD*%
D21*
%TO.C,C1*%
X124284200Y-101295000D03*
X124284200Y-103295000D03*
%TD*%
D16*
%TO.C,H3*%
X60000000Y-130000000D03*
%TD*%
%TO.C,H4*%
X130000000Y-130000000D03*
%TD*%
%TO.C,J1*%
X62150000Y-74647500D03*
X62150000Y-86077500D03*
D22*
X68500000Y-75917500D03*
D23*
X71040000Y-77187500D03*
X68500000Y-78457500D03*
X71040000Y-79727500D03*
X68500000Y-80997500D03*
X71040000Y-82267500D03*
X68500000Y-83537500D03*
X71040000Y-84807500D03*
%TD*%
D24*
%TO.C,J7*%
X61000000Y-111200000D03*
D25*
X61000000Y-104000000D03*
%TD*%
D14*
%TO.C,R1*%
X121744200Y-108295000D03*
D15*
X126824200Y-108295000D03*
%TD*%
D12*
%TO.C,J5*%
X85400000Y-127350000D03*
D13*
X90480000Y-127350000D03*
%TD*%
D16*
%TO.C,H2*%
X130000000Y-60000000D03*
%TD*%
D12*
%TO.C,J4*%
X99860000Y-127400000D03*
D13*
X104940000Y-127400000D03*
%TD*%
M02*
